<?xml version="1.0" encoding="UTF-8" standalone="no"?>
<!DOCTYPE svg PUBLIC "-//W3C//DTD SVG 1.1//EN" "http://www.w3.org/Graphics/SVG/1.1/DTD/svg11.dtd">
<!-- Created with Vectornator (http://vectornator.io/) -->
<svg height="100%" stroke-miterlimit="10" style="fill-rule:nonzero;clip-rule:evenodd;stroke-linecap:round;stroke-linejoin:round;" version="1.1" viewBox="0 0 711 491" width="100%" xml:space="preserve" xmlns="http://www.w3.org/2000/svg" xmlns:vectornator="http://vectornator.io" xmlns:xlink="http://www.w3.org/1999/xlink">
<defs/>
<clipPath id="ArtboardFrame">
<rect height="491" width="711" x="0" y="0"/>
</clipPath>
<g clip-path="url(#ArtboardFrame)" id="Layer-1" vectornator:layerName="Layer 1">
<path d="M172.666 228.386C170.581 231.781 243.192 277.022 244.088 283.008C245.063 289.519 246.816 296.171 247.207 299.936C248.797 315.26 242.723 331.552 239.414 346.511C238.586 346.485 238.586 346.485 237.758 346.459C241.026 352.575 256.421 347.324 260.002 343.502C263.347 339.932 265.899 335.652 269.371 332.207C272.53 329.074 276.399 326.745 279.794 323.87C281.097 322.766 282.232 321.48 283.451 320.285C278.146 315.746 276.55 310.673 270.359 302.975C264.169 295.277 260.382 293.591 255.688 283.22C254.27 280.085 232.72 237.214 223.594 229.963C222.972 229.469 205.008 206.24 205.947 199.207C207.267 189.318 227.285 182.942 227.285 182.942C227.285 182.942 226.957 176.737 223.594 169.905C220.231 163.073 213.833 152.613 213.833 152.613C213.833 152.613 207.721 158.746 200.742 165.473C193.764 172.199 192.818 175.635 185.918 179.519C179.195 183.304 161.719 186.902 161.719 186.902C161.719 186.902 171.82 196.255 167.672 208.172C163.75 219.437 173.193 229.298 172.666 228.386Z" fill="#aa6269" fill-rule="nonzero" opacity="1" stroke="none"/>
<g opacity="1" vectornator:layerName="Duty coat">
<path d="M58.4298 266.112C58.4298 266.112 53.8961 280.153 53.7974 295.794C53.6987 311.434 58.035 328.673 58.035 328.673C58.035 328.673 50.7502 335.739 36.4915 375.456C22.2327 415.174 0 487.543 0 487.543L77.1915 487.543L82.9015 444.125L79.9412 342.291L78.3624 314.859L75.2048 279.532L63.3636 259.402L58.4298 266.112Z" fill="#fefdef" fill-rule="nonzero" opacity="1" stroke="#260e0e" stroke-linecap="butt" stroke-linejoin="round" stroke-width="1" vectornator:layerName="Curve 1"/>
<path d="M79.3437 404.98C76.4061 411.139 76.996 417.056 75.8281 423.965C73.3394 438.686 59.529 472.169 62.1172 485.488C65.9844 485.488 70.186 487.061 73.7187 485.488C82.0931 481.759 74.0105 469.681 74.3125 465.8C74.8057 459.463 78.4053 454.212 79.7995 447.864C82.773 434.324 79.979 418.321 79.3437 404.98Z" fill="#adacac" fill-rule="nonzero" opacity="1" stroke="none"/>
<path d="M58.3594 398.191C50.1421 406.892 41.6387 415.332 33.7076 424.295C26.8722 432.019 17.5995 438.284 13.5455 447.768C8.46131 459.663 5.5972 472.349 0.703125 484.324C8.53812 477.264 13.6949 467.69 19.6875 459.011C28.7049 445.951 38.4902 433.432 47.4609 420.34C49.6199 417.189 60.6391 402.707 58.3594 398.191Z" fill="#c3bfb4" fill-rule="nonzero" opacity="1" stroke="none"/>
<path d="M75.5859 348.269C60.2312 371.054 42.9984 393.162 31.6406 418.582C38.5767 418.257 45.4754 401.339 47.672 398.599C58.3088 385.335 82.5721 368.686 75.5859 348.269Z" fill="#c3bfb4" fill-rule="nonzero" opacity="1" stroke="none"/>
<path d="M64.6875 334.558C60.3188 341.538 58.5971 350.009 54.7584 357.439C49.988 366.672 43.282 374.538 38.6567 383.764C53.6657 380.49 62.2242 349.409 72.4219 340.183C68.5547 337.371 68.5547 337.371 64.6875 334.558Z" fill="#dcdcdc" fill-rule="nonzero" opacity="1" stroke="none"/>
<path d="M34.3984 381.965C23.235 406.72 16.5576 435.637 7.85972 461.548C6.03773 466.976 2.95647 471.329 5.92187 475.48C8.8031 469.859 9.75322 463.442 11.7595 457.453C19.639 433.932 29.0234 411.456 35.1236 387.407C35.938 384.196 35.6288 384.559 34.3984 381.965Z" fill="#898887" fill-rule="nonzero" opacity="1" stroke="none"/>
<path d="M54.625 283.23C51.1012 290.701 53.3316 302.23 53.9219 309.246C56.0657 334.728 59.2697 329.266 76.2891 344.402C84.5003 336.486 60.6455 331.67 58.4922 324.715C56.4769 318.205 57.7439 311.268 56.788 305.512C55.822 299.695 55.5099 293.779 55.2963 287.886C55.1166 282.929 57.4498 286.055 54.625 283.23Z" fill="#898887" fill-rule="nonzero" opacity="1" stroke="none"/>
<path d="M73.4766 480.863C72.9399 482.181 73.2852 484.707 71.8666 484.816C47.9745 486.645 23.9555 485.931 0 486.488C33.1505 487.436 66.3305 486.883 99.4922 486.488C92.1094 486.254 84.5617 487.354 77.3437 485.785C75.3049 485.342 75.5225 481.272 73.4766 480.863Z" fill="#504d48" fill-rule="nonzero" opacity="1" stroke="none"/>
</g>
<path d="M247.517 184.522C246.898 185.442 235.632 168.544 223.355 155.402C211.618 142.839 198.886 133.945 196.643 137.347C194.403 140.746 193.463 150.226 193.463 150.226L161.185 180.263L169.14 199.755L166.992 216.201C166.992 216.201 167.861 229.873 177.988 231.043C186.705 232.049 201.065 229.058 211.572 227.334C224.417 225.227 230.535 237.841 230.822 238.27C235.932 245.926 241.466 250.985 245.742 274.597C245.925 275.606 247.383 284.692 247.383 284.692C251.426 277.994 257.139 266.341 261.79 257.543C262.719 255.787 266.319 247.301 265.605 244.558C264.669 240.962 261.795 238.466 262.302 237.755C262.809 237.045 267.374 238.807 267.249 239.636C265.605 250.534 267.633 247.48 264.672 258.543C260.805 272.99 245.93 283.933 247.996 288.855C250.269 294.27 253.335 297.654 259.453 302.918C269.518 311.577 282.153 320.079 286.191 316.671C289.324 314.026 298.834 294.854 298.834 294.854C298.834 294.854 300.397 274.973 296.332 262.601C286.837 233.7 266.578 218.246 247.517 184.522Z" fill="#fefdef" fill-rule="nonzero" opacity="1" stroke="#260e0e" stroke-linecap="butt" stroke-linejoin="round" stroke-width="1"/>
<path d="M139.246 150.867C138.335 139.109 146.72 135.438 138.335 126.84C136.758 138.035 121.679 142.392 120.937 149.285C130.331 150.087 129.853 150.065 139.246 150.867Z" fill="#dcdcdc" fill-rule="nonzero" opacity="1" stroke="#260e0e" stroke-linecap="butt" stroke-linejoin="round" stroke-width="1" vectornator:layerName="Curve 6"/>
<path d="M192.698 293.666C191.098 297.266 157.748 292.495 155.148 295.454C153.535 297.289 116.067 295.88 114.551 297.796C114.177 298.269 112.446 336.561 110.961 335.613C102.124 342.981 104.707 355.287 103.575 365.492C101.988 379.803 100.425 394.13 99.6283 408.507C98.8271 422.96 98.6981 437.45 98.7841 451.925C98.8497 462.965 103.685 464.977 105.687 475.535C106.391 472.898 106.391 472.898 107.094 470.261C110.257 475.202 108.476 481.931 108.586 487.797C172.938 487.916 172.938 487.916 237.29 488.036C238.602 473.734 241.73 437.049 239.649 433.234C237.816 429.872 242.996 391.444 236.727 378.915C235.751 385.731 235.514 335.376 235.514 335.376L234.368 293.166C234.368 293.166 194.857 297.714 192.698 293.666Z" fill="#0d162d" fill-rule="nonzero" opacity="1" stroke="none"/>
<path d="M166.54 193.058C170.22 200.97 169.102 200.613 168.75 202.722C167.31 211.365 162.335 224.83 174.452 230.5C184.466 235.187 234.717 236.876 231.68 229.793C230.171 226.275 202.255 193.058 202.255 193.058C202.255 193.058 200.174 191.279 203.404 186.902C217.947 166.012 193.774 169.122 188.221 180.832C181.763 179.077 171.391 189.23 166.54 193.058Z" fill="#bb7981" fill-rule="nonzero" opacity="1" stroke="none"/>
<path d="M216.119 231.352C216.119 231.352 203.242 226.889 174.084 229.264C144.925 231.64 123.661 235.255 99.487 241.855C92.1615 243.855 78.9931 260.96 78.9931 260.96C72.4917 277.478 70.1112 300.113 73.4817 309.927L94.9478 298.375L122.16 289.673L135.726 313.136C135.726 313.136 146.884 328.7 155.108 338.848C163.332 348.995 168.247 353.35 168.247 353.35C168.247 353.35 173.43 367.4 175.374 373.03C181.82 391.69 183.773 394.908 187.734 414.715C190.609 409.21 190.936 402.678 193.297 396.935C198.506 384.268 203.211 383.347 213.047 372.879C224.57 360.615 224.227 354.717 241.875 350.027C239.062 349.324 245.742 320.503 245.742 320.503C245.742 320.503 251.545 297.078 244.53 272.72C241.869 263.481 246.175 262.746 235.651 249.532C217.397 226.613 216.119 231.352 216.119 231.352Z" fill="#851b1d" fill-rule="nonzero" opacity="1" stroke="none"/>
<path d="M116.876 291.444C116.876 291.444 75.0887 300.559 75.1982 308.828C75.5833 337.934 78.4121 371.643 79.1154 400.743C79.3497 410.436 79.4226 420.141 79.1016 429.832C78.9451 434.556 80.1991 439.263 79.9751 443.984C79.6414 451.017 72.6455 461.11 73.6995 469.565C74.2572 472.853 72.6374 478.445 73.8778 478.114C75.6389 482.03 72.5832 487.038 76.0583 487.369C83.6012 488.087 91.2122 487.448 98.7891 487.488C99.8437 483.797 98.0147 480.3 100.898 480.105C103.782 479.91 103.348 488.391 110.324 486.707C110.664 469.785 100.505 460.212 100.472 442.365C100.447 428.488 103.123 413.415 104.414 399.597C105.717 385.653 111.14 371.471 108.281 357.761C106.299 358.447 106.299 358.447 104.316 359.133C115.966 349.571 110.559 338.002 113.555 321.902C115.013 314.063 116.028 307.382 117.803 295.03C118.22 292.128 116.876 291.444 116.876 291.444Z" fill="#fcd3af" fill-rule="nonzero" opacity="1" stroke="none"/>
<path d="M57.5747 198.946L59.5383 199.911C57.067 205.687 55.429 210.974 54.9882 213.193L60.9843 208.101C57.9025 212.496 48.4878 223.67 47.5624 228.979L57.5313 224.459C57.6255 228.473 55.942 238.103 54.8437 240.691C54.4723 241.567 48.4973 252.985 48.4973 252.985C42.96 261.932 36.3013 270.979 36.9141 273.035C42.4948 269.746 44.4212 268.14 47.8125 262.488C50.2283 265.757 47.1902 266.828 49.9219 270.925C52.7344 266.531 57.3462 269.409 60.1587 265.014C60.1587 265.014 60.3126 271.688 61.5234 279.011C64.2993 277.623 62.8639 277.793 65.8193 278.422C66.6839 276.66 66.6839 276.66 67.5485 274.897C68.579 275.372 68.579 275.372 69.6094 275.847C67.4452 287.608 69.71 299.787 70.6641 311.707C71.1908 300.398 72.1989 288.935 74.1354 277.781C76.4722 264.321 81.4176 265.851 88.2422 255.808C90.3847 252.655 91.652 253.084 94.9008 249.292C95.604 249.995 100.135 246.738 100.838 247.441C111.821 241.756 109.56 244.854 117.388 240.996C115.982 240.293 122.663 240.464 123.713 238.306L126.864 229.793C126.864 229.793 108.933 217.609 108.633 216.082C105.499 200.143 95.1233 179.669 103.711 162.644C105.485 159.127 110.909 159.224 113.906 156.668C116.13 154.771 117.809 153.835 120.149 152.085C127.828 146.341 134.32 158.145 141.649 162.909C148.977 167.674 158.379 176.707 158.379 176.707C158.379 176.707 138.876 147.415 127.526 139.917C116.177 132.419 109.884 136.075 102.962 138.629C96.0408 141.183 94.1967 142.094 92.5915 142.726C80.4559 147.507 66.6949 177.197 66.6949 177.197C62.6449 179.916 55.5226 197.687 55.0644 199.939L57.5747 198.946Z" fill="#2f2a21" fill-rule="nonzero" opacity="1" stroke="none"/>
<path d="M145.547 162.996C145.547 162.996 138.346 151.218 127.887 150.867C117.428 150.515 109.264 157.88 103.711 161.59C101.563 163.024 99.2493 174.536 98.8574 177.058C98.3206 180.513 102.212 184.798 102.785 188.247C103.446 192.226 105.106 195.987 106.654 199.712C108.916 205.155 111.95 210.977 115.847 215.556C119.781 220.178 125.384 226.608 131.69 228.197C138.489 229.91 145.936 227.611 152.166 225.059C174.9 215.743 167.522 195.647 157.5 179.438C153.936 173.674 145.547 162.996 145.547 162.996Z" fill="#fcd3af" fill-rule="nonzero" opacity="1" stroke="none"/>
<path d="M146.383 302.364C150.245 299.136 160.705 284.94 165.422 283.18C178.223 278.406 177.05 272.173 191.48 271.772C195.068 271.672 202.1 268.376 205.012 266.278C208.403 263.835 209.066 263.495 210.586 262.29C214.453 259.225 215.965 258.096 218.921 252.919C217.823 249.556 209.18 258.096 206.273 258.231C205.881 258.25 212.559 254.866 215.965 251.596C219.401 248.296 221.141 244.861 220.863 242.458C220.409 238.539 218.244 242.876 214.453 246.613C212.321 248.714 209.959 250.065 206.675 251.596C206.675 251.596 209.197 250.28 211.538 248.734C213.542 247.41 215.113 245.181 216.667 243.93C221.409 239.008 220.053 237.209 219.235 236.959C218.418 236.708 217.453 236.871 212.791 241.729C210.586 244.026 208.403 245.613 204.038 248.329C206.734 246.054 207.628 246.273 211.538 242.458C214.81 239.266 217.225 235.856 216.914 234.877C215.495 230.417 209.18 240.093 198.952 244.558C191.263 247.915 190.04 247.412 182.079 246.863C184.107 243.715 192.295 238.928 191.735 235.965C190.732 230.667 181.201 236.868 179.77 237.884C172.965 242.715 157.115 250.28 151.875 256.511C148.27 260.799 145.423 265.703 141.68 269.871C138.134 273.818 137.488 274.582 131.627 279.95C130.362 281.109 128.807 282.243 127.193 283.321C121.329 287.235 114.677 290.407 118.236 291.343C120.283 291.881 107.413 335.865 115.437 335.586C121.385 335.38 145.45 300.032 146.383 302.364Z" fill="#fcd3af" fill-rule="nonzero" opacity="1" stroke="none"/>
<path d="M127.494 61.5108C126.659 64.5753 122.584 70.2208 122.712 73.4273C122.824 76.2304 122.712 83.9037 122.712 83.9037C122.712 83.9037 128.142 113.621 139.246 126.84C150.351 140.058 169.553 136.616 169.553 136.616C169.553 136.616 185.301 135.612 191.48 125.747C197.66 115.881 200.906 111.621 202.255 97.9939C203.603 84.3667 203.142 92.7805 202.5 85.652C201.858 78.5236 200.742 78.596 199.687 69.4802C196.87 45.1271 183.253 42.1744 161.573 45.7876C154.063 47.0394 146.306 45.3546 138.867 48.0349C132.573 50.3028 133.485 61.1395 127.494 61.5108Z" fill="#fcd3af" fill-rule="nonzero" opacity="1" stroke="none"/>
<path d="M155.991 68.822C149.376 73.0744 144.797 69.8669 137.5 71.9219C134.271 72.8315 131.151 76.4626 126.366 77.322C131.203 77.9717 137.91 76.8241 141.179 73.5549C144.549 75.8552 150.022 72.723 154.491 74.1345C155.979 71.5339 155.239 73.2185 155.991 68.822Z" fill="#8d7663" fill-rule="nonzero" opacity="1" stroke="none" vectornator:layerName="Curve 17"/>
<path d="M165.804 66.9584C166.35 68.3203 167.523 71.8342 169.366 72.3334C170.859 72.7378 171.241 71.2806 172.137 70.6659C174.256 69.2104 176.525 68.6083 178.878 68.3354C183.387 67.8122 188.205 68.499 192.87 66.7047C184.438 58.9857 174.254 72.1013 165.804 66.9584Z" fill="#8d7663" fill-rule="nonzero" opacity="1" stroke="none" vectornator:layerName="Curve 16"/>
<path d="M150.619 150.252C156.427 157.115 159.976 179.984 159.976 179.984C159.976 179.984 175.535 168.198 183.618 159.129C191.7 150.06 193.567 147.22 194.272 140.144C194.977 133.069 194.871 125.962 194.536 122.261C194.2 118.56 173.799 132.923 162.367 134.104C143.035 136.101 144.812 143.389 150.619 150.252Z" fill="#fcd3af" fill-rule="nonzero" opacity="1" stroke="none" vectornator:layerName="Curve 9"/>
<path d="M129.727 97.2536C123.922 108.862 135.797 126.695 144.844 133.465C139.232 131.966 141.671 133.296 137.461 129.597C135.067 133.351 137.007 141.902 138.243 152.341C139.951 166.761 157.274 178.082 159.609 180.574C168.918 175.813 156.571 158.446 154.687 152.8C153.842 150.266 153.878 147.401 152.578 145.066C160.597 145.19 165.58 145.995 171.211 139.793C168.148 138.268 170.178 139.032 164.827 138.534C166.261 137.581 166.261 137.581 167.695 136.629C149.478 126.037 140.838 113.789 129.727 97.2536Z" fill="#aa8f76" fill-rule="nonzero" opacity="1" stroke="none"/>
<path d="M238.359 212.215C238.359 212.215 224.124 197.449 220.813 182.871C219.561 177.358 230.883 170.234 228.609 165.371C225.645 159.033 225.084 159.674 221.484 156.316C213.832 149.178 195.44 161.852 189.137 167.473C182.834 173.094 189.593 177.761 189.593 177.761C189.593 177.761 194.775 172.588 199.672 172.136C204.569 171.684 207.481 172.136 208.403 174.949C209.892 179.487 202.011 190.802 201.797 191.121C197.303 197.8 229.57 225.222 229.57 225.222C229.57 225.222 250.274 252.295 261.156 264.543C267.633 254.383 265.918 245.261 264.434 241.657L238.359 212.215Z" fill="#fcd3af" fill-rule="nonzero" opacity="1" stroke="none"/>
<path d="M618.098 234.568C630.759 249.266 710.307 307.439 710.307 307.439L710.307 242.458L653.976 190.395C631.385 197.517 616.986 204.832 618.098 234.568Z" fill="#fcd3af" fill-rule="nonzero" opacity="1" stroke="none" vectornator:layerName="Curve 18"/>
<path d="M225.022 218.048C223.037 219.06 222.754 222.168 221.031 223.58C218.622 225.553 228.189 236.407 228.748 237.308C234.658 246.839 239.68 257.021 244.39 267.026C246.34 271.167 250.848 278.146 253.014 277.053C256.563 275.262 260.7 265.322 261.453 264.136C250.77 252.222 234.135 231.21 225.022 218.048Z" fill="#aa8f76" fill-rule="nonzero" opacity="1" stroke="none"/>
<path d="M273.516 260.73C270.318 264.525 258.023 288.498 253.828 277.957C252.949 278.66 252.949 278.66 252.07 279.363C252.773 281.121 252.773 281.121 253.477 282.879C250.19 284.071 251.813 284.243 248.906 281.121C240.111 294.408 271.612 317.623 286.875 305.027C276.731 301.526 270.684 305.32 261.211 298.347C271.293 293.759 282.336 295.868 287.882 283.166C287.871 283.158 268.178 291.887 260.956 291.577C264.908 282.441 277.007 270.38 273.516 260.73Z" fill="#c3bfb4" fill-rule="nonzero" opacity="1" stroke="none"/>
<path d="M164.18 216.961C157.227 219.047 152.119 227.016 145.168 229.13C135.294 232.132 127.069 227.397 121.992 238.798C124.604 241.181 163.707 232.583 169.062 231.893C174.727 231.162 174.154 227.201 164.18 216.961Z" fill="#d5ab88" fill-rule="nonzero" opacity="1" stroke="none"/>
<path d="M190.547 182.305C193.415 186.588 199.347 191.845 198.57 196.843C194.322 195.941 191.55 195.457 189.593 195.618C191.044 200.637 196.197 209.645 200.039 210.894C203.881 212.143 205.312 204.48 204.961 200.613C204.568 196.288 203.274 190.4 202.395 191.279C199.422 186.791 201.092 178.575 190.547 182.305Z" fill="#646260" fill-rule="nonzero" opacity="1" stroke="none"/>
<path d="M227.285 163.347C228.958 168.71 222.187 178.465 222.187 178.465C222.187 178.465 219.534 182.086 215.965 186.902C213.695 189.967 211.125 193.944 208.403 196.394C206.151 198.422 204.578 198.939 202.395 201.881C200.212 204.823 202.395 209.97 202.395 209.97C202.395 209.97 202.847 211.087 204.494 209.367C206.141 207.647 209.291 202.602 208.983 203.092C207.597 205.298 207.855 205.6 204.494 209.367C203.882 210.053 200.039 212.589 200.039 212.589C200.039 212.589 188.036 216.954 190.547 218.989C194.796 222.434 203.126 216.961 206.675 213.934C210.654 210.54 214.696 206.645 214.696 206.645C214.696 206.645 211.538 211.03 207.481 214.02C203.7 216.806 194.604 221.077 197.303 221.931C205.012 224.369 207.64 220.62 211.538 217.306C215.436 213.991 217.685 209.97 217.685 209.97C217.685 209.97 214.854 214.5 212.586 216.961C210.456 219.271 203.587 223.154 205.022 223.666C208.403 224.872 211.145 226.137 218.244 218.989C220.699 216.517 222.309 212.648 222.309 212.648C222.309 212.648 221.507 215.314 218.921 218.989C217.564 220.92 216.703 220.742 212.791 224.872C221.791 230.497 232.493 202.026 239.036 188.756C242.252 182.231 250.518 177.996 254.51 172.136C260.957 162.672 260.88 154.014 259.632 142.341C258.523 131.973 233.721 140.105 229.762 143.588C225.71 147.152 215.094 152.673 215.495 157.012C215.713 159.385 225.612 157.984 227.285 163.347Z" fill="#fcd3af" fill-rule="nonzero" opacity="1" stroke="#8d7663" stroke-linecap="butt" stroke-linejoin="round" stroke-width="0.5"/>
<path d="M386.705 285.099C370.281 296.751 364.146 301.623 360.578 306.439C358.307 309.504 421.558 423.585 428.1 410.315C431.317 403.791 444.313 379.17 448.847 356.011C453.381 332.852 452.266 333.968 446.236 317.679C440.206 301.39 424.728 290.855 424.728 290.855C424.728 290.855 401.492 274.608 386.705 285.099Z" fill="#fcd3af" fill-rule="nonzero" opacity="1" stroke="#000000" stroke-linecap="butt" stroke-linejoin="round" stroke-width="0.5" vectornator:layerName="Curve 19"/>
<path d="M258.399 139.617C255.975 143.276 261 155.848 258.206 162.106C255.318 168.572 252.553 173.829 248.446 177.937C246.085 180.298 242.217 182.568 240.345 185.941C234.044 197.293 229.867 211.375 221.031 222.434C221.712 224.021 219.287 227.036 221.609 223.58C224.413 219.406 228.976 211.585 232.344 204.087C237.833 191.869 240.655 187.194 242.272 185.941C247.383 181.982 250.149 178.222 251.506 176.355C253.555 173.538 259.098 166.837 260.221 163.347C261.877 158.204 260.221 155.412 260.221 150.867C260.221 143.709 260.221 140.948 258.399 139.617Z" fill="#aa8f76" fill-rule="nonzero" opacity="1" stroke="none"/>
<path d="M129.852 286.57C126.715 289.257 125.737 295.403 128.43 298.347C131.123 301.292 137.488 301.034 140.625 298.347C143.762 295.661 143.67 290.545 140.977 287.6C138.283 284.656 132.988 283.883 129.852 286.57Z" fill="#3d3b38" fill-rule="nonzero" opacity="1" stroke="none"/>
<path d="M102.656 183.738C97.3446 180.574 103.125 196.417 105.469 204.832C107.547 212.292 107.108 214.02 112.684 224.809C112.684 224.809 125.497 232.99 127.969 228.738C131.035 223.462 117.936 216.488 114.437 212.348C106.789 203.298 112.815 189.789 102.656 183.738Z" fill="#aa8f76" fill-rule="nonzero" opacity="1" stroke="none"/>
<path d="M127.03 79.0009C128.266 75.7749 121.521 84.9078 120.114 84.0289C116.414 88.6238 117.925 96.3864 121.185 105.34C123.574 111.898 129.525 112.371 129.525 112.371L128.43 105.515C128.43 105.515 132.968 101.076 126.864 90.103C123.749 84.5042 126.218 81.1207 127.03 79.0009Z" fill="#8b6b53" fill-rule="nonzero" opacity="1" stroke="none"/>
<path d="M201.219 97.5702C201.219 97.5702 204.47 95.8474 205.312 93.1884C207.081 87.6035 209.936 84.1504 207.397 74.9663C205.538 68.2383 199.672 70.0917 199.672 70.0917C199.672 70.0917 200.308 74.5136 200.954 78.7966C201.599 83.0796 202.255 82.8843 202.255 87.2237C202.255 93.6304 201.219 97.5702 201.219 97.5702Z" fill="#8b6b53" fill-rule="nonzero" opacity="1" stroke="none" vectornator:layerName="Curve 8"/>
<path d="M129.978 97.9939C131.019 95.8559 132.385 99.8219 145.115 99.8219C151.819 99.8219 157.042 96.8244 158.555 94.4411C161.052 90.5078 159.872 85.9145 162.07 81.7849C164.699 86.1976 166.772 93.7348 171.859 94.4411C181.48 95.7768 192.35 95.4221 197.227 83.5427C198.443 89.4941 196.665 87.8259 201.445 89.5192C202.159 87.1945 203.555 85.4469 201.797 79.3655C200.44 73.2702 200.954 71.4486 200.003 69.0917C197.535 71.8301 194.311 72.6437 192.346 71.4486C189.316 69.6065 185.371 68.6163 182.109 68.8578C179.866 69.024 172.5 70.0917 167.672 71.4486C167.672 71.4486 169.102 75.8249 161.719 76.7749C157.391 77.3317 153.984 73.7217 153.984 73.7217C145.825 72.2041 135.352 74.4409 128.43 78.7966C127.396 79.4469 126.624 79.5254 125.982 79.8036C125.208 80.1392 124.624 80.7654 124.002 83.0356C122.907 87.0324 129.025 96.6771 129.025 96.6771C129.025 96.6771 129.783 97.8695 129.978 97.9939Z" fill="#646260" fill-rule="nonzero" opacity="1" stroke="none"/>
<path d="M151.249 77.0795C146.641 76.0934 144.451 76.3927 139.519 77.2524C134.586 78.1121 134.056 78.7489 131.517 80.5182C128.19 82.8364 131.133 90.9255 131.133 90.9255C131.133 90.9255 132.954 95.4291 135.354 96.2073C139.401 97.5198 154.338 98.3085 156.109 92.655C156.951 89.9646 158.899 85.6683 157.651 81.7849C156.747 78.9724 154.269 77.7259 151.249 77.0795Z" fill="#fcd3af" fill-rule="nonzero" opacity="1" stroke="none"/>
<path d="M190.547 73.7217C187.526 72.2956 185.825 72.0602 181.113 72.2927C176.4 72.5251 172.666 72.9216 170.743 74.6515C167.528 77.5426 167.857 80.027 167.816 82.034C167.732 86.2026 168.987 89.9212 172.059 91.277C173.98 92.125 179.135 92.9266 183.391 91.7741C186.458 90.9432 189.27 90.1013 191.48 87.8528C193.781 85.5132 194.536 83.694 194.536 80.027C194.536 77.2524 193.567 75.1478 190.547 73.7217Z" fill="#fcd3af" fill-rule="nonzero" opacity="1" stroke="none"/>
<path d="M156.094 222.058C148.256 228.506 136.342 228.44 127.017 226.593C126.505 235.497 117.726 237.778 122.712 238.743C127.091 239.59 146.342 230.443 157.852 223.816C156.973 222.937 156.973 222.937 156.094 222.058Z" fill="#8b6b53" fill-rule="nonzero" opacity="1" stroke="none"/>
<path d="M214.453 147.879C205.802 140.184 197.93 134.104 196.631 138.397C195.145 143.306 195.277 145.908 194.536 152.8C203.929 153.603 205.06 147.077 214.453 147.879Z" fill="#dcdcdc" fill-rule="nonzero" opacity="1" stroke="none"/>
<path d="M171.672 145.824C163.88 153.625 168.804 153.534 157.589 152.651C156.871 152.594 154.965 152.615 154.269 152.8C155.078 154.979 157.801 159.461 159.976 163.749C160.899 165.569 161.369 168.329 161.599 171.034C161.965 175.346 161.719 179.519 161.719 179.519C161.719 179.519 169.938 172.16 172.5 164.754C175.019 157.47 171.882 150.176 171.672 145.824Z" fill="#c18c5f" fill-rule="nonzero" opacity="1" stroke="none"/>
<path d="M215.508 274.793C209.804 269.089 193.947 276.13 191.48 284.153C200.283 290.114 208.474 278.763 215.508 274.793Z" fill="#aa6269" fill-rule="nonzero" opacity="1" stroke="none"/>
<path d="M202.569 96.8223C200.874 100.539 197.315 112.545 197.315 112.545C197.315 112.545 195.854 121.086 190.547 126.557C195.215 131.287 192.33 131.757 193.171 138.397C197.388 133.313 194.062 126.704 195.854 120.107C197.586 113.728 199.28 111.149 200.742 106.723C201.558 104.255 203.213 100.713 202.569 96.8223Z" fill="#898887" fill-rule="nonzero" opacity="1" stroke="none"/>
<path d="M146.953 174.597C158.561 179.1 159.185 196.175 165.937 204.832C169.899 196.438 153.281 160.183 146.953 174.597Z" fill="#aa8f76" fill-rule="nonzero" opacity="1" stroke="none"/>
<path d="M68.0937 178.222C67.4937 178.696 62.191 182.057 62.5971 183.973C63.6352 188.87 60.9169 204.271 65.9844 205.644C67.8714 202.2 72.3721 189.371 70.5547 186.66C69.1618 187.111 69.1618 187.111 67.7688 187.562C67.2024 183.319 70.7169 181.62 68.0937 178.222Z" fill="#1b1712" fill-rule="nonzero" opacity="1" stroke="none"/>
<path d="M94.9219 160.183C89.0636 166.515 78.1035 185.299 84.0234 192.527C87.5597 186.589 89.6233 179.716 92.8125 173.543C88.1407 168.871 98.6995 165.247 94.9219 160.183Z" fill="#1b1712" fill-rule="nonzero" opacity="1" stroke="none"/>
<path d="M228.516 267.761C226.889 271.005 227.323 274.77 225.703 277.957C222.564 284.135 213.321 297.668 211.538 307.439C217.821 302.479 234.941 275.647 228.516 267.761Z" fill="#591517" fill-rule="nonzero" opacity="1" stroke="none"/>
<path d="M138.164 127.84C137.461 128.543 137.461 128.543 136.758 129.246C145.195 142.122 170.316 141.45 182.109 134.519C181.582 133.816 181.582 133.816 181.055 133.113C167.624 139.911 149.755 137.182 138.164 127.84Z" fill="#8b6b53" fill-rule="nonzero" opacity="1" stroke="none"/>
<path d="M118.477 152.449C127.887 154.031 132.739 165.13 140.977 159.129C143.437 155.613 122.712 144.544 118.477 152.449Z" fill="#8b6b53" fill-rule="nonzero" opacity="1" stroke="none"/>
<path d="M135.786 82.9032C131.752 89.726 144.957 92.5194 149.063 87.0583C154.165 80.273 137.572 79.8827 135.786 82.9032Z" fill="#646260" fill-rule="nonzero" opacity="1" stroke="none"/>
<path d="M174.803 78.7769C170.769 85.5997 186.094 87.0531 190.201 81.5919C195.303 74.8066 176.589 75.7563 174.803 78.7769Z" fill="#646260" fill-rule="nonzero" opacity="1" stroke="none" vectornator:layerName="Curve 10"/>
<path d="M174.133 80.027C173.474 84.3219 180.972 86.8077 186.153 83.5183C192.305 74.6502 175.833 75.0394 174.133 80.027Z" fill="#504d48" fill-rule="nonzero" opacity="1" stroke="none"/>
<path d="M296.07 268.222C295.529 268.835 294.141 299.397 294.279 300.182C302.031 298.213 298.672 273.166 296.07 268.222Z" fill="#898887" fill-rule="nonzero" opacity="1" stroke="none"/>
<path d="M197.523 166.84C196.293 165.961 196.293 165.961 195.062 165.082C196.983 162.934 199.862 160.748 202.395 160.183C204.628 159.685 208.291 163.244 210.586 162.293C209.562 160.931 206.785 157.93 204.944 158.048C196.573 158.586 181.697 171.994 188.031 175.629C190.412 169.681 192.365 170.309 197.523 166.84Z" fill="#aa8f76" fill-rule="nonzero" opacity="1" stroke="none"/>
<path d="M122.695 174.949C115.764 178.887 99.9442 183.547 106.875 194.636C108.541 191.708 107.963 188.286 110.042 185.519C113.767 180.558 123.162 182.238 122.695 174.949Z" fill="#898887" fill-rule="nonzero" opacity="1" stroke="none"/>
<path d="M178.822 72.1774C175.702 72.5139 173.273 72.7451 170.736 74.6384C174.582 77.0538 177.197 75.7909 181.174 75.6556C182.618 75.6065 186.032 75.2486 187.436 75.8249C187.95 76.0361 190.694 78.0662 191.953 77.9159C197.294 77.2785 192.305 71.7595 178.822 72.1774Z" fill="#d5ab88" fill-rule="nonzero" opacity="1" stroke="none"/>
<path d="M141.179 77.0795C135.731 78.1894 132.738 79.2706 132.968 80.0009C133.197 80.7313 133.43 80.6535 137.406 80.5182C138.85 80.4691 142.202 79.0951 146.171 78.7966C150.139 78.498 152.022 79.4742 153.281 79.3239C158.623 78.6865 149.701 75.3433 141.179 77.0795Z" fill="#d5ab88" fill-rule="nonzero" opacity="1" stroke="none" vectornator:layerName="Curve 7"/>
<path d="M88.2017 254.906C87.2522 257.506 91.8679 256.725 92.478 256.855C96.3354 257.673 96.0712 257.898 97.8929 258.573C102.624 260.327 102.968 261.868 111.797 264.597C108.959 256.629 94.0931 246.158 88.2017 254.906Z" fill="#591517" fill-rule="nonzero" opacity="1" stroke="none"/>
<path d="M149.414 291.668C146.601 294.48 144.707 298.562 147.656 301.511C152.72 296.447 156.888 290.426 162.367 286.043C158.13 281.805 152.701 293.311 149.414 291.668Z" fill="#aa8f76" fill-rule="nonzero" opacity="1" stroke="none"/>
<path d="M122.712 286.033C124.486 287.187 127.844 290.855 127.844 290.855L133.768 284.719C133.768 284.719 131.88 282.928 130.101 281.049C127.305 283.107 125.503 284.449 122.712 286.033Z" fill="#2f2a21" fill-rule="nonzero" opacity="1" stroke="none"/>
<path d="M137.007 300.519C138.781 301.672 142.833 306.439 142.833 306.439L149.063 300.205C149.063 300.205 145.216 295.184 143.437 293.305C140.641 295.363 139.798 298.935 137.007 300.519Z" fill="#2f2a21" fill-rule="nonzero" opacity="1" stroke="none" vectornator:layerName="Curve 1"/>
<path d="M189.141 178.816C195.529 176.345 201.285 173.008 207.07 177.058C210.721 167.479 188.815 171.735 189.141 178.816Z" fill="#646260" fill-rule="nonzero" opacity="1" stroke="none"/>
<path d="M117.918 293.21C115.636 300.327 108.936 334.27 110.785 341.504C113.86 339.256 113.778 337.894 116.367 334.558C112.339 328.777 121.398 299.31 117.918 293.21Z" fill="#504d48" fill-rule="nonzero" opacity="1" stroke="none"/>
<path d="M154.647 200.994C154.316 201.858 154.316 201.858 153.984 202.722C156.969 204.139 159.092 199.474 156.45 198.07C150.544 194.93 143.917 206.03 142.535 209.97C149.154 208.366 148.201 201.299 154.647 200.994Z" fill="#adacac" fill-rule="nonzero" opacity="1" stroke="none"/>
<path d="M140.625 158.777C135.026 163.542 132.082 165.551 127.969 171.785C133.633 173.353 139.229 164.22 142.734 161.238C141.68 160.008 141.68 160.008 140.625 158.777Z" fill="#898887" fill-rule="nonzero" opacity="1" stroke="none"/>
<path d="M107.566 214.02C104.534 217.051 101.344 229.167 107.227 230.847C108.842 228.379 110.188 228.903 108.633 226.629C111.03 224.365 109.751 225.025 112.148 222.761C110.48 220.676 109.175 216.155 107.566 214.02Z" fill="#504d48" fill-rule="nonzero" opacity="1" stroke="none"/>
<path d="M202.255 87.0583C201.195 90.1331 201.133 90.4151 198.131 91.302C198.002 95.5017 197.751 99.8968 198.249 104.06C204.311 104.589 201.797 92.6833 202.255 87.0583Z" fill="#aa8f76" fill-rule="nonzero" opacity="1" stroke="none"/>
<path d="M223.442 174.592C218.261 183.626 216.366 185.533 210.586 193.933C206.957 199.207 204.494 197.517 204.494 197.517C203.454 199.395 208.746 197.145 208.983 197.517C213.15 190.135 218.835 184.408 223.442 177.288C224.544 175.585 227.46 168.669 228.292 165.932C229.934 160.523 228.149 161.205 227.785 162.293C227.576 162.917 226.13 169.905 223.442 174.592Z" fill="#d5ab88" fill-rule="nonzero" opacity="1" stroke="none"/>
<path d="M224.648 159.129C225.928 161.689 224.1 164.908 226.406 167.215C228.808 164.813 228.797 149.285 227.04 149.636C224.972 150.05 227.629 156.148 224.648 159.129Z" fill="#777574" fill-rule="nonzero" opacity="1" stroke="none"/>
<path d="M90 232.605C87.3932 235.27 81.912 243.12 85.7267 245.719C88.9912 239.714 94.075 239.727 90 232.605Z" fill="#1b1712" fill-rule="nonzero" opacity="1" stroke="none"/>
<path d="M101.305 165.621C100.482 170.112 96.7244 178.972 100.953 182.496C104.156 180.534 102.431 175.211 104.684 171.585C101.649 167.93 102.743 169.936 101.305 165.621Z" fill="#d5ab88" fill-rule="nonzero" opacity="1" stroke="none"/>
<path d="M91.4389 352.257C94.0272 356.165 105.847 364.273 108.834 356.543C100.372 357.211 99.3587 356.16 91.4389 352.257Z" fill="#aa8f76" fill-rule="nonzero" opacity="1" stroke="none"/>
<path d="M148.414 169.027C145.18 171.762 141.695 172.544 139.246 177.837C143.005 179.936 146.669 173.449 150.619 172.455C149.517 170.741 149.517 170.741 148.414 169.027Z" fill="#777574" fill-rule="nonzero" opacity="1" stroke="none"/>
<path d="M113.203 197.449C115.241 200.506 126.188 190.463 127.266 188.308C123.247 184.29 116.021 194.631 113.203 197.449Z" fill="#aa8f76" fill-rule="nonzero" opacity="1" stroke="none"/>
<path d="M99.1406 487.84C101.048 487.84 103.417 488.134 104.766 486.785C103.949 485.151 103.507 480.355 101.602 479.402C97.9974 477.6 98.8869 487.078 99.1406 487.84Z" fill="#2f2a21" fill-rule="nonzero" opacity="1" stroke="none"/>
<path d="M262.302 237.508C262.302 237.508 265.67 243.928 265.67 247.224C265.67 248.706 266.754 240.796 267.633 240.093C265.67 237.879 262.302 237.508 262.302 237.508Z" fill="#898887" fill-rule="nonzero" opacity="1" stroke="none"/>
<path d="M245.53 268.222C244.748 266.645 247.383 279.578 247.383 282.874C247.383 284.355 249.609 279.715 251.506 277.168C247.996 272.72 246.93 271.047 245.53 268.222Z" fill="#898887" fill-rule="nonzero" opacity="1" stroke="none" vectornator:layerName="Curve 2"/>
<path d="M278.383 232.55C275.905 233.789 281.74 244.267 283.305 246.613C286.619 243.299 280.812 235.79 278.383 232.55Z" fill="#898887" fill-rule="nonzero" opacity="1" stroke="none"/>
<path d="M191.953 256.511C194.59 259.148 201.771 256.186 204.258 253.699C201.759 249.951 194.799 254.614 191.953 256.511Z" fill="#d5ab88" fill-rule="nonzero" opacity="1" stroke="none"/>
<path d="M201.219 246.613C203.856 249.25 211.663 241.694 212.695 240.691C210.57 240.691 202.5 245.613 201.219 246.613Z" fill="#d5ab88" fill-rule="nonzero" opacity="1" stroke="none" vectornator:layerName="Curve 4"/>
<path d="M209.18 261.393C210.401 263.263 210.966 262.023 213.422 259.387C216.445 256.142 215.406 257.036 215.994 256.16C214.801 256.16 209.784 260.67 209.18 261.393Z" fill="#d5ab88" fill-rule="nonzero" opacity="1" stroke="none" vectornator:layerName="Curve 5"/>
<path d="M382.514 316.622C383.515 305.43 377.53 293.189 386.035 285.952C391.088 281.653 395.82 281.653 399.984 281.653C399.984 281.653 405.236 293.305 406.072 296.542C392.406 282.429 388.056 303.994 385.003 315.55" fill="#c08e66" fill-rule="nonzero" opacity="1" stroke="none" vectornator:layerName="path 42"/>
<path d="M207.063 212.13C205.358 212.816 195.45 216.652 196.747 218.875C198.345 218.587 208.448 213.688 207.063 212.13Z" fill="#aa8f76" fill-rule="nonzero" opacity="1" stroke="none"/>
<g opacity="1" vectornator:layerName="Longyi">
<path d="M385.664 285.691C374.105 293.846 362.065 301.359 350.987 310.156C325.981 330.013 330.84 362.199 296.394 329.575C293.083 326.439 287.882 323.66 283.656 318.144C263.525 333.7 262.042 346.123 236.953 350.027C237.832 350.73 195.897 373.03 200.138 385.138C212.424 420.218 238.515 435.625 250.396 450.373C263.03 466.055 287.882 479.175 298.524 481.236C322.531 485.886 320.258 486.213 326.635 487.012C332.227 487.712 350.307 488.036 354.023 487.1C367.996 483.582 377.733 471.646 381.325 462.452C387.3 447.154 387.078 430.78 392.2 415.176C394.416 408.423 407.25 398.27 413.789 408.738C416.448 412.993 417.011 418.641 419.332 423.089C421.405 427.061 423.943 430.077 426.748 433.571C425.062 419.749 424.01 405.567 426.112 391.802C416.721 393.164 417.136 371.475 410.118 363.996C401.746 355.074 386.01 350.131 384.172 338.035C382.852 329.347 383.165 320.428 383.92 311.672C384.667 303.024 392.196 291.407 385.664 285.691Z" fill="#2f2a21" fill-rule="nonzero" opacity="1" stroke="none"/>
<g opacity="1" vectornator:layerName="Shadow">
<path d="M311.836 482.918C310.43 481.863 310.43 481.863 309.023 480.808C310.639 480.015 310.639 480.015 312.254 479.222C312.045 478.433 312.045 478.433 311.836 477.644C329.942 474.352 321.234 455.411 326.953 442.488C318.732 436.863 314.033 427.191 309.023 418.582C307.087 423.822 309.97 429.839 311.836 435.105C300.345 419.436 293.024 401.871 295.307 382.051C287.7 384.565 286.073 394.593 286.297 401.69C286.571 410.38 287.385 419.045 287.93 427.722C284.883 425.496 280.757 424.263 278.789 421.043C274.04 413.27 279.523 408.862 271.553 403.109C270.425 404.341 270.425 404.341 269.297 405.574C267.488 400.966 268.881 402.439 266.11 400.394C264.42 403.249 264.42 403.249 262.73 406.105C260.494 404.863 261.423 405.826 260.508 402.761C259.963 406.032 256.275 408.087 255.364 411.275C254.178 415.428 256.063 420.168 254.531 424.207C243.281 410.672 252.269 416.289 241.019 402.754C243.964 401.574 246.639 395.117 249.762 394.561C258.84 392.944 253.444 389.505 257.52 384.969C262.117 379.853 266.755 377.952 271.559 373.03C263.146 366.567 252.523 376.981 243.969 373.03C242.041 372.14 244.163 364.166 244.715 362.288C246.043 357.769 260.643 350.038 262.698 345.801C264.221 342.663 241.976 352.144 245.391 351.433C229.051 344.711 216.157 368.447 208.125 376.746C205.133 379.838 198.769 381.063 198.51 385.358C198.125 391.734 204.485 392.663 208.477 396.785C216.79 405.37 224.576 414.454 232.415 423.474C234.955 426.396 232.599 432.104 235.496 434.673C240.345 438.972 286.978 492.031 311.836 482.918Z" fill="#1b1712" fill-rule="nonzero" opacity="1" stroke="none"/>
<path d="M349.805 428.074C342.964 419.765 348.723 404.184 341.719 394.324C338.051 401.45 343.024 410.327 342.244 418.164C341.707 423.549 339.422 428.664 338.906 434.05C338.637 436.868 344.547 437.771 345.234 440.73C346.721 447.125 342.222 453.111 345.937 459.011C359.455 445.494 355.322 446.506 374.062 448.465C374.297 436.043 374.657 423.623 374.766 411.199C374.802 407.074 371.464 403.06 369.492 399.949C363.466 403.495 365.413 385.539 360.703 383.074C358.067 388.475 358.717 403.216 357.909 408.606C356.735 416.431 353.441 421.408 349.805 428.074Z" fill="#1b1712" fill-rule="nonzero" opacity="1" stroke="none"/>
<path d="M404.297 393.269C407.109 397.136 407.109 397.136 409.922 401.004C415.943 386.281 411.325 392.327 404.297 393.269Z" fill="#1b1712" fill-rule="nonzero" opacity="1" stroke="none"/>
<path d="M328.359 428.425C324.9 431.885 327.318 435.005 329.766 438.269C330.996 437.039 330.996 437.039 332.227 435.808C331.166 433.687 330.674 429.583 328.359 428.425Z" fill="#1b1712" fill-rule="nonzero" opacity="1" stroke="none"/>
</g>
</g>
<path d="M160.664 245.371C162.07 246.425 162.07 246.425 163.477 247.48C165.335 246.212 167.341 245.371 169.102 243.965C165.915 242.512 165.207 243.196 165.313 239.399C162.071 239.116 161.711 242.766 160.664 245.371Z" fill="#663933" fill-rule="nonzero" opacity="1" stroke="none"/>
<path d="M192.656 145.418C192.163 145.911 185.875 157.204 181.766 160.913C175.759 166.336 168.517 172.834 167.734 173.496C166.32 174.69 162.587 178.318 161.185 179.519C164.821 183.155 168.508 175.083 174.727 170.864C180.945 166.645 180.062 166.663 186.06 162.643C188.703 160.872 191.433 157.026 194.536 155.613C196.541 154.7 196.833 132.563 194.796 125.747C194.796 125.747 194.449 133.852 193.536 137.456C192.623 141.059 192.7 145.454 192.656 145.418Z" fill="#777574" fill-rule="nonzero" opacity="1" stroke="none"/>
<path d="M122.712 92.4534C120.28 94.8856 123.93 103.458 125.435 105.34C126.932 104.342 126.83 103.043 128.43 101.443C124.968 96.8278 126.34 96.0817 122.712 92.4534Z" fill="#70543c" fill-rule="nonzero" opacity="1" stroke="none"/>
<path d="M123.289 184.683C128.155 188.333 127.097 186.138 128.075 190.208C130.428 189.379 130.428 189.379 132.781 188.55C126.616 183.639 129.916 184.522 123.289 184.683Z" fill="#777574" fill-rule="nonzero" opacity="1" stroke="none"/>
<path d="M216.806 154.191C218.904 154.191 223.442 155.613 224.648 159.129C227.237 156.54 215.495 150.94 216.806 154.191Z" fill="#d5ab88" fill-rule="nonzero" opacity="1" stroke="none" vectornator:layerName="Curve 14"/>
<path d="M228.976 144.89C233.315 142.397 242.453 138.519 243.971 139.412C246.585 140.948 256.113 141.902 256.5 138.734C252.988 133.626 227.664 141.639 228.976 144.89Z" fill="#d5ab88" fill-rule="nonzero" opacity="1" stroke="none" vectornator:layerName="Curve 15"/>
<path d="M133.594 52.2536C131.057 54.7899 125.855 59.2805 129.375 62.8005C131.332 60.8437 135.583 54.2427 133.594 52.2536Z" fill="#d5ab88" fill-rule="nonzero" opacity="1" stroke="none"/>
<path d="M192.305 265.652C194.237 267.584 201.806 264.588 203.555 262.84C200.992 258.996 194.743 263.823 192.305 265.652Z" fill="#d5ab88" fill-rule="nonzero" opacity="1" stroke="none"/>
<path d="M135.352 87.2237C137.072 85.7799 136.033 86.7174 138.57 86.8752C139.477 83.6887 141.787 83.3249 144.933 81.527C137.406 80.6814 133.891 81.9371 135.352 87.2237Z" fill="#898887" fill-rule="nonzero" opacity="1" stroke="none"/>
<path d="M182.109 76.7749C182.109 75.8249 173.474 77.2524 174.133 80.5182C176.793 81.4928 182.109 77.9159 182.109 76.7749Z" fill="#777574" fill-rule="nonzero" opacity="1" stroke="none"/>
<path d="M113.555 271.98C114.691 274.253 118.284 279.907 120.586 277.605C119.175 275.489 116.975 268.56 113.555 271.98Z" fill="#591517" fill-rule="nonzero" opacity="1" stroke="none"/>
<path d="M117.016 184.793C113.964 187.664 109.711 189.471 111.729 193.652C114.46 191.742 117.833 187.897 120.114 185.496C119.235 184.793 117.895 185.496 117.016 184.793Z" fill="#d5ab88" fill-rule="nonzero" opacity="1" stroke="none"/>
<path d="M159.976 120.972L177.333 119.813C177.333 119.813 179.582 116.516 178.284 116.432C176.849 116.34 159.976 120.972 159.976 120.972Z" fill="#aa8f76" fill-rule="nonzero" opacity="1" stroke="none"/>
<path d="M165.18 95.8722C163.773 97.279 164.283 99.0726 163.422 100.794C164.938 102.31 164.235 103.014 165.883 104.661C169.159 103.023 166.999 97.6915 165.18 95.8722Z" fill="#d5ab88" fill-rule="nonzero" opacity="1" stroke="none"/>
<path d="M217.969 265.574C215.952 265.862 214.068 266.31 212.695 267.683C216.644 271.632 221.607 268.157 217.969 265.574Z" fill="#bb7981" fill-rule="nonzero" opacity="1" stroke="none"/>
<path d="M199.672 163.784C198.969 164.487 198.633 165.229 197.93 165.932C212.695 170.027 208.773 164.402 199.672 163.784Z" fill="#aa8f76" fill-rule="nonzero" opacity="1" stroke="none"/>
<path d="M210.586 154.786C209.883 155.489 208.6 155.613 207.897 156.316C216.914 158.334 223.198 159.129 210.586 154.786Z" fill="#aa8f76" fill-rule="nonzero" opacity="1" stroke="none" vectornator:layerName="Curve 12"/>
<path d="M90.7031 245.613C87.3261 248.99 87.1698 256.529 92.8125 250.886C91.2454 248.928 92.2134 247.123 90.7031 245.613Z" fill="#1b1712" fill-rule="nonzero" opacity="1" stroke="none"/>
<path d="M207.481 174.355C205.644 176.191 201.636 186.359 200.039 187.957C201.067 189.499 199.911 190.431 201.219 192.175C203.183 190.212 209.575 176.449 207.481 174.355Z" fill="#aa8f76" fill-rule="nonzero" opacity="1" stroke="none"/>
<path d="M172.059 45.0146C174.394 49.6844 174.221 46.908 176.981 46.4209C178.842 46.0925 181.27 47.0539 182.606 45.7178C181.894 45.0055 173.042 44.0319 172.059 45.0146Z" fill="#aa8f76" fill-rule="nonzero" opacity="1" stroke="none"/>
<path d="M252.422 279.011C252.114 278.731 248.609 281.2 248.555 281.472C247.648 286.008 259.066 285.068 252.422 279.011Z" fill="#dcdcdc" fill-rule="nonzero" opacity="1" stroke="none"/>
<path d="M115.312 153.855C118.051 155.815 119.642 154.36 121.992 152.449C121.082 151.558 121.082 151.558 120.171 150.667C117.407 152.426 119.034 151.374 115.312 153.855Z" fill="#aa8f76" fill-rule="nonzero" opacity="1" stroke="none"/>
<path d="M150.117 202.019C149.102 201.297 148.186 203.599 147.305 204.48C143.985 207.799 156.139 206.304 150.117 202.019Z" fill="#e9c3a2" fill-rule="nonzero" opacity="1" stroke="none"/>
<path d="M216.591 217.306C216.085 217.606 214.729 218.789 213.47 219.997C212.115 221.296 210.871 222.622 210.917 222.904C211.132 224.22 216.508 220.63 217.927 219.231C219.345 217.831 217.703 217.964 216.591 217.306Z" fill="#aa8f76" fill-rule="nonzero" opacity="1" stroke="none"/>
<path d="M145.211 82.7663C143.424 83.4355 143.471 87.9817 146.617 86.6335C150.206 85.0955 147.321 81.976 145.211 82.7663Z" fill="#e9c3a2" fill-rule="nonzero" opacity="1" stroke="none"/>
<path d="M184.24 78.6122C182.453 79.2814 182.5 83.8276 185.646 82.4794C189.235 80.9414 186.35 77.8219 184.24 78.6122Z" fill="#e9c3a2" fill-rule="nonzero" opacity="1" stroke="none" vectornator:layerName="Curve 11"/>
<path d="M145.844 171.84C146.723 170.961 146.723 170.961 147.602 170.082C143.352 165.832 139.813 168.824 145.844 171.84Z" fill="#646260" fill-rule="nonzero" opacity="1" stroke="none"/>
<path d="M137.454 185.496C136.751 186.199 144.141 193.933 143.437 194.636C145.078 196.277 146.146 194.578 148.197 192.527C146.568 190.573 139.228 186.679 137.454 185.496Z" fill="#d5ab88" fill-rule="nonzero" opacity="1" stroke="none"/>
<path d="M229.57 264.949C227.905 266.614 228.813 268.207 229.922 269.871C231.641 268.152 230.829 268.408 231.68 266.707C230.326 265.353 231.039 265.928 229.57 264.949Z" fill="#70543c" fill-rule="nonzero" opacity="1" stroke="none"/>
<path d="M152.578 37.1364C152.126 38.1032 152.126 38.1032 151.674 39.07C152.478 39.861 152.478 39.861 153.281 40.6521C152.93 38.8942 152.93 38.8942 152.578 37.1364Z" fill="#1b1712" fill-rule="nonzero" opacity="1" stroke="none"/>
<path d="M216.812 161.513C217.578 162.279 219.387 163.202 221.031 162.216C219.423 160.608 218.604 159.721 216.812 161.513Z" fill="#d5ab88" fill-rule="nonzero" opacity="1" stroke="none"/>
<path d="M212.587 165.041C213.353 165.807 215.162 166.73 216.806 165.744C215.198 164.136 214.379 163.249 212.587 165.041Z" fill="#d5ab88" fill-rule="nonzero" opacity="1" stroke="none" vectornator:layerName="Curve 13"/>
<path d="M114.609 60.6911C113.73 61.57 113.73 61.57 112.852 62.4489C113.73 63.3278 113.73 63.3278 114.609 64.2067C115.867 62.9494 115.358 63.0605 116.016 61.7458C115.312 61.2185 115.312 61.2185 114.609 60.6911Z" fill="#646260" fill-rule="nonzero" opacity="1" stroke="none"/>
<path d="M166.588 13.8521C161.848 14.4546 159.073 19.9386 153.182 20.6333C152.833 20.6745 152.495 20.5753 152.151 20.5396C150.891 17.1553 155.267 16.9547 154.338 14.6333C154.246 14.4019 154.027 14.2829 153.713 14.2271C151.519 13.8358 138.354 21.155 137.838 21.4771C137.341 21.3022 136.827 21.1065 136.401 21.1333C134.506 21.2526 133.199 23.1236 131.494 24.8208C130.08 24.8808 129.069 27.0991 128.526 29.5083C128.433 29.2275 126.249 29.6098 125.494 28.3521C124.994 28.8522 121.79 33.8076 123.244 35.9771C121.781 38.9589 120.328 41.9753 117.057 44.5083C119.535 48.7199 107.129 60.7658 107.588 70.5396C110.928 66.4966 110.905 66.4888 114.244 62.4458C112.979 68.0468 115.2 74.0024 114.244 79.6646C113.302 85.2511 108.486 82.7091 110.744 87.7583C115.393 84.7241 113.272 86.478 117.057 82.4771C117.522 85.9666 121.894 94.2777 123.276 91.0396C125.989 84.679 121.102 78.4186 123.182 72.6958C125.312 66.8356 128.334 61.3327 131.307 55.8521C132.31 54.0022 133.782 52.3566 135.494 51.1333C144.223 44.8983 154.402 46.166 163.119 45.2271C169.553 44.5342 172.969 44.1677 177.715 44.5342C180.694 44.7643 188.259 46.2479 191.48 51.9021C196.172 60.1374 195.666 58.5817 199.151 68.9771C200.85 74.0481 200.355 79.8649 202.838 84.6021C208.81 75.8072 207.743 53.8884 201.807 46.6333C204.769 42.8752 204.751 42.8601 207.713 39.1021C203.816 38.1049 200.901 39.0147 197.213 37.1333C205.303 34.1805 201.286 37.5487 208.983 30.9997C206.533 30.6259 205.804 29.2999 200.619 29.2896C198.01 28.5888 194.554 28.1497 190.182 27.6333C189.89 27.9256 184.641 27.3118 182.713 24.2896C183.133 21.0889 184.551 17.9672 186.151 14.3208C180.217 17.3334 173.189 18.7539 167.682 22.0083C166.268 19.3947 168.445 17.2409 168.744 13.9458C167.972 13.8045 167.265 13.766 166.588 13.8521Z" fill="#453232" fill-rule="nonzero" opacity="1" stroke="none" vectornator:layerName="Curve 3"/>
<path d="M646.369 489.37C622.857 489.37 622.857 489.37 599.345 489.37C599.935 475.226 602.464 461.03 601.116 446.938C596.811 401.928 559.967 358.277 537.14 321.12C528.411 306.913 521.116 291.852 512.27 277.718C504.522 265.339 492.305 255.404 487.402 241.648C484.656 233.945 489.039 225.341 490.75 217.344C491.703 212.89 494.526 208.258 494.82 203.859C496.033 185.706 498.742 167.61 498.715 149.416C498.702 141.274 490.097 131.782 494.991 125.274C502.449 130.662 507.936 138.796 511.87 147.113C517.129 158.231 526.92 169.237 525.398 181.441C524.214 190.933 511.84 194.939 505.061 201.688C510.192 206.711 510.192 206.711 515.324 211.734C503.087 225.682 503.087 225.682 490.85 239.63C509.591 225.629 509.591 225.629 528.331 211.628C533.669 218.213 533.669 218.213 539.006 224.798C534.391 215.224 530.756 205.138 528.002 194.873C528.209 201.898 528.209 201.898 528.417 208.923C523.906 208.589 520.323 204.725 516.85 201.828C519.919 195.125 527.417 188.965 526.057 181.719C522.571 163.155 510.905 147.114 503.329 129.811C525.314 135.576 547.847 140.19 570.552 141.231C561.26 160.659 554.959 173.04 556.772 194.507C558.803 184.787 560.094 174.881 562.866 165.345C564.884 158.4 567.808 151.713 571.083 145.265C572.371 142.73 573.665 139.26 576.437 138.623C588.042 135.957 597.019 150.735 606.427 158.035C613.686 163.667 621.519 168.517 629.065 173.758C606.469 184.142 601.114 194.894 591.667 217.642C588.488 197.937 588.488 197.937 585.31 178.231C583.925 193.012 581.467 207.732 581.154 222.574C580.952 232.219 592.876 234.61 595.176 244.011C606.581 290.64 627.242 374.261 631.75 400.565C636.257 426.87 646.369 489.37 646.369 489.37Z" fill="#fefdef" fill-rule="nonzero" opacity="1" stroke="#260e0e" stroke-linecap="butt" stroke-linejoin="round" stroke-width="1" vectornator:layerName="path"/>
<path d="M229.867 489.37C172.766 489.37 172.766 489.37 115.665 489.37C128.338 466.403 138.961 435.817 137.96 409.256C137.271 409.741 136.131 409.902 135.895 410.71C132.681 421.713 130.776 433.064 127.773 444.127C126.673 448.18 121.365 468.258 116.746 472.293C113.242 469.281 116.025 472.548 115.736 466.337C115.467 460.541 112.659 454.672 113.973 449.02C115.105 444.147 120.53 441.297 122.613 436.747C132.013 416.21 136.982 393.921 144.046 372.467C145.082 369.319 146.546 369.933 149.215 369.619C154.593 380.837 152.625 393.942 150.816 406.063C148.298 422.931 144.837 439.644 141.848 456.435C144.771 438.35 152.442 425.294 154.588 405.887C155.96 393.477 152.238 379.508 158.348 368.62C161.773 370.372 162.451 375.285 163.327 379.03C167.583 397.227 170.749 415.666 174.907 433.886C179.069 452.126 190.832 468.237 200.171 483.927C194.044 471.33 186.165 459.443 181.791 446.136C173.538 421.03 172.43 393.155 159.713 369.988C164.739 370.774 162.31 370.88 167.004 369.826C175.439 383.188 177.974 399.463 183.392 414.306C190.985 435.108 197.272 446.831 212.207 462.208" fill="#081126" fill-rule="nonzero" opacity="1" stroke="none" vectornator:layerName="path 1"/>
<path d="M155.991 119.653C155.953 119.105 159.604 116.331 159.604 116.331C159.604 116.331 162.408 114.376 166.54 113.546C170.672 112.715 172.108 112.219 176.132 113.008C180.157 113.797 182.769 115.413 182.873 115.61" fill="#615144" fill-rule="nonzero" opacity="1" stroke="none" vectornator:layerName="path 2"/>
<path d="M181.808 117.92C181.574 117.876 181.296 117.897 181.112 117.776C179.453 116.687 177.602 116.335 175.662 116.31C175.183 116.304 174.686 116.366 174.418 115.768C174.794 115.235 175.306 114.912 175.98 115.034C177.227 115.26 178.462 115.548 179.706 115.795C180.899 116.032 181.754 116.955 182.873 117.339C182.887 118.21 182.375 118.115 181.808 117.92" fill="#6a5849" fill-rule="nonzero" opacity="1" stroke="none" vectornator:layerName="path 3"/>
<path d="M166.364 116.314C168.509 116.223 170.218 115.306 172.068 115.605C172.24 116.34 171.911 116.681 171.417 116.804C170.438 117.046 169.445 117.246 168.449 117.401C167.734 117.512 167.053 117.404 166.364 116.314" fill="#735f50" fill-rule="nonzero" opacity="1" stroke="none" vectornator:layerName="path 4"/>
<path d="M189.602 174.066C189.263 173.878 188.926 173.689 189.39 173.149C189.477 173.505 189.543 173.78 189.61 174.055L189.602 174.066Z" fill="#523d3b" fill-rule="nonzero" opacity="1" stroke="none" vectornator:layerName="path 5"/>
<path d="M599.425 489.37C527.689 489.37 525.689 489.37 453.953 489.37C450.434 441.572 455.481 402.069 478.596 359.734C471.379 353.749 472.867 357.603 474.978 347.879C467.399 347.26 469.609 349.258 466.994 343.86C474.166 346.493 470.456 346.192 478.137 344.592C478.79 358.472 493.1 358.625 499.466 346.67C501.766 342.351 497.616 328.326 497.539 327.35C509.076 327.35 513.876 341.089 512.997 342.034C509.076 346.25 510.646 337.327 502.641 328.128C518.356 326.481 526.413 330.095 542.366 335.398C539.825 336.141 539.825 336.141 537.285 336.885C556.71 366.33 576.475 399.615 590.315 433.712C593.782 442.253 599.541 451.107 601.645 460.082C602.922 465.531 601.686 474.338 600.941 479.175" fill="#351919" fill-rule="nonzero" opacity="1" stroke="none" vectornator:layerName="path 22"/>
<path d="M575.241 212.13C571.104 211.357 570.476 196.459 570.123 193.619C568.956 184.241 569.657 140.616 580.443 142.021C576.671 165.34 569.621 186.836 575.35 210.4" fill="#c7c8b8" fill-rule="nonzero" opacity="1" stroke="none" vectornator:layerName="path 6"/>
<path d="M572.725 140.13C573.539 139.831 573.539 139.831 574.352 139.532C566.012 158.326 561.372 176.265 556.992 196.178C549.799 185.211 561.269 149.514 570.418 142.112C569.979 141.482 569.979 141.482 569.54 140.852" fill="#c7c8b8" fill-rule="nonzero" opacity="1" stroke="none" vectornator:layerName="path 7"/>
<path d="M653.976 190.395C627.066 198.17 617.052 208.213 618.255 234.568C605.494 233.838 603.503 227.029 592.049 217.306C604.901 184.519 618.021 179.907 628.938 173.607C628.938 173.607 643.162 186.052 653.976 190.395Z" fill="#f9f27e" fill-rule="nonzero" opacity="1" stroke="#081126" stroke-linecap="butt" stroke-linejoin="round" stroke-width="0.5" vectornator:layerName="path 8"/>
<path d="M611.203 364.628C598.544 336.934 585.192 309.553 571.449 282.38C567.877 275.318 560.743 270.673 562.815 261.922C582.959 277.708 591.967 305.646 600.983 328.041C608.346 346.328 612.82 361.91 618.538 380.41" fill="#c7c7b8" fill-rule="nonzero" opacity="1" stroke="none" vectornator:layerName="path 9"/>
<path d="M592.049 237.508C592.049 237.508 581.9 229.701 581.823 224.872C581.603 211.03 584.361 194.05 585.382 181.944C586.748 183.13 592.898 217.237 592.119 220.503" fill="#c6c7b7" fill-rule="nonzero" opacity="1" stroke="none" vectornator:layerName="path 10"/>
<path d="M464.29 432.623C458.733 404.448 480.214 375.083 496.282 354.621C499.965 356.972 500.442 361.589 499.835 365.77C499.301 365.082 499.301 365.082 498.768 364.394C497.173 403.115 474.964 444.277 460.813 479.149C459.658 474.414 461.318 469.318 462.737 464.656C467.631 448.57 473.417 432.768 478.553 416.757C484.217 399.1 489.232 381.236 494.07 363.335C479.448 385.331 471.994 404.938 465.446 430.547" fill="#1d0d10" fill-rule="nonzero" opacity="1" stroke="none" vectornator:layerName="path 11"/>
<path d="M506.713 352.65C511.456 357.325 510.811 359.294 511.52 367.805C512.27 376.82 512.789 385.86 512.968 394.904C513.469 420.216 507.608 455.968 492.311 476.727C497.802 443.382 504.466 408.817 504.816 374.913" fill="#1d0d10" fill-rule="nonzero" opacity="1" stroke="none" vectornator:layerName="path 12"/>
<path d="M579.274 443.024C570.7 437.381 566.058 426.396 559.909 418.198C544.084 397.104 531.476 375.61 517.118 353.113C545.841 364.931 551.832 397.725 566.145 422.576" fill="#1d0d10" fill-rule="nonzero" opacity="1" stroke="none" vectornator:layerName="path 13"/>
<path d="M556.71 464.653C548.333 459.058 542.43 452.551 539.423 442.732C533.699 424.039 527.469 405.475 522.745 386.505C521.583 381.836 522.137 376.901 521.833 372.099C532.625 396.582 537.199 423.36 547.759 448.09" fill="#1d0d10" fill-rule="nonzero" opacity="1" stroke="none" vectornator:layerName="path 14"/>
<path d="M477.945 344.89C480.875 340.536 494.352 331.62 495.301 327.792C506.857 329.809 502.118 347.157 497.539 352.032C492.96 356.907 472.744 360.017 476.986 347.291" fill="#1e0d10" fill-rule="nonzero" opacity="1" stroke="none" vectornator:layerName="path 15"/>
<path d="M467.388 343.93C466.599 336.292 475.587 318.198 484.069 317.679C481.835 321.286 466.687 345.825 476.206 345.13C473.173 346.731 474.949 346.267 470.747 345.851" fill="#1e0d10" fill-rule="nonzero" opacity="1" stroke="none" vectornator:layerName="path 16"/>
<path d="M509.076 329.139C509.463 328.245 509.463 328.245 509.85 327.35C512.394 329.874 516.039 329.485 518.976 331.635C529.121 339.06 521.287 349.468 511.871 352.032C510.214 344.727 524.052 338.587 512.25 332.009" fill="#1e0d10" fill-rule="nonzero" opacity="1" stroke="none" vectornator:layerName="path 17"/>
<path d="M503.645 328.333C507.041 332.812 514.211 338.546 510.842 345.144C508.602 340.073 501.288 333.065 501.434 327.913" fill="#1e0e10" fill-rule="nonzero" opacity="1" stroke="none" vectornator:layerName="path 18"/>
<path d="M467.388 343.93C471.424 348.195 470.644 345.024 477.601 345.144C476.47 354.509 472.663 356.067 480.036 358.81C456.357 401.069 452.939 438.972 455.702 488.547C446.632 492.814 435.666 489.37 425.642 489.37C427.429 480.924 425.406 494.247 429.216 472.477C433.026 450.707 435.632 429.939 440.881 402.291C446.029 375.177 459.373 346.329 472.15 322.248C479.484 308.426 490.113 321.075 497.539 327.112C487.587 336.596 481.032 345.084 475.704 345.144C470.376 345.203 471.88 335.553 476.227 327.35C471.356 332.802 473.621 330.088 469.765 336.299" fill="#30141a" fill-rule="nonzero" opacity="1" stroke="none" vectornator:layerName="path 19"/>
<path d="M598.863 465.371C587.781 438.268 578.306 410.45 565.617 384.061C557.502 367.184 546.291 351.979 536.629 335.938C539.802 336.225 544.202 334.276 546.15 336.798C559.291 353.814 571.149 373.148 581.793 391.827C587.227 401.363 592.063 410.891 595.339 421.366C604.668 451.192 600.074 448.489 601.941 462.05" fill="#30141a" fill-rule="nonzero" opacity="1" stroke="none" vectornator:layerName="path 20"/>
<path d="M582.743 478.196C564.245 463.035 545.012 434.869 543.516 410.315C562.35 428.362 572.436 454.711 582.743 478.196Z" fill="#30141a" fill-rule="nonzero" opacity="1" stroke="none" vectornator:layerName="path 21"/>
<path d="M525.828 182.496C526.729 187.364 521.833 193.652 516.406 201.881C516.406 201.881 523.735 209.367 528.065 208.876C529.188 204.087 528.652 201.801 528.334 197.517C532.356 208.296 531.687 211.03 536.629 220.678C534.292 218.989 533.42 216.961 528.59 211.03C516.406 220.3 508.076 226.682 493.727 237.212C504.492 224.666 508.311 218.869 515.755 211.82C511.918 208.577 509.076 204.832 505.687 201.881C509.076 198.275 518.164 192.807 521.833 189.222" fill="#c7c7b8" fill-rule="nonzero" opacity="1" stroke="none" vectornator:layerName="path 23"/>
<path d="M536.629 332.964C530.802 332.122 529.854 327.184 526.471 322.365C528.678 326.645 528.678 326.645 530.885 330.925C522.224 330.122 514.302 327.257 505.604 326.83C510.621 317.481 509.769 317.853 502.489 327.143C500.195 318.996 502.655 315.358 499.462 323.574C482.477 301.511 472.139 276.776 470.538 250.573C469.377 231.574 468.894 212.53 468.787 193.495C468.729 183.139 479.307 187.038 484.619 190.438C500.599 200.664 493.138 205.644 489.455 220.678C489.135 221.985 484.069 232.605 486.519 239.582C491.228 252.99 493.727 256.16 506.576 271.047C510.646 275.763 520.726 292.732 523.735 298.186C531.296 311.886 537.731 322.234 545.889 335.588" fill="#dcefe8" fill-rule="nonzero" opacity="1" stroke="none" vectornator:layerName="path 24"/>
<path d="M490.316 319.993C477.088 312.265 456.534 319.952 452.174 301.828C450.545 295.052 447.527 288.389 446.108 291.444C443.571 287.205 442.581 270.828 443.825 266.278C453.557 275.595 459.329 291.963 465.719 305.148C460.521 291.2 446.367 252.722 428.1 251.173C429.935 226.268 429.935 226.268 431.769 201.364C442.099 202.886 441.294 217.025 441.615 224.864C452.971 225.953 455.703 229.498 461.591 237.508C464.072 240.884 463.501 240.271 464.352 247.598C464.963 252.857 464.017 258.339 465.42 263.443C466.606 267.756 470.097 271.095 471.932 275.174C476.127 284.497 479.243 294.284 483.482 303.587C487.578 312.578 496.591 315.831 497.976 325.928C491.749 318.609 495.133 321.764 487.96 316.319C489.62 317.395 489.62 317.395 491.281 318.471" fill="#dcefe8" fill-rule="nonzero" opacity="1" stroke="none" vectornator:layerName="path 25"/>
<path d="M478.892 316.023C470.213 329.406 459.703 350.757 452.939 365.202C450.457 355.332 448.258 329.198 440.377 318.785C432.379 308.216 427.97 309.49 426.151 298.636C423.379 282.095 425.416 265.017 427.089 248.329C427.463 250.12 446.991 266.948 448.262 272.894C452.808 294.148 434.535 324.415 472.782 315.208" fill="#95968d" fill-rule="nonzero" opacity="1" stroke="none" vectornator:layerName="path 26"/>
<path d="M479.33 135.454C479.656 135.093 482.468 130.131 486.189 127.84C490.125 125.416 494.981 125.656 495.326 125.274C498.925 139.387 502.506 176.355 487.54 187.925C480.352 182.65 475.352 183.077 466.882 184.793C446.437 190.867 442.274 189.043 444.81 171.247" fill="#dcefe8" fill-rule="nonzero" opacity="1" stroke="none" vectornator:layerName="path 27"/>
<path d="M495.477 193.652C495.477 193.652 494.629 196.295 494.629 201.364C488.884 194.12 477.366 182.893 468.38 190.394C463.22 178.24 484.392 178.286 487.628 187.393C488.173 184.79 494.528 151.21 497.976 149.631C498.591 155.922 497.648 168.174 497.539 174.355" fill="#4f8b8f" fill-rule="nonzero" opacity="1" stroke="none" vectornator:layerName="path 28"/>
<path d="M504.764 288.281C497.34 277.891 489.36 267.843 486.189 255.262C492.354 264.589 497.818 272.492 502.545 282.722" fill="#508c90" fill-rule="nonzero" opacity="1" stroke="none" vectornator:layerName="path 29"/>
<path d="M481.101 214.249C484.995 223.15 479.114 235.457 476.942 244.026C475 233.895 477.559 226.811 480.134 216.502" fill="#518c90" fill-rule="nonzero" opacity="1" stroke="none" vectornator:layerName="path 30"/>
<path d="M429.488 198.96C427.108 201.427 427.108 201.427 424.728 203.893C429.574 180.937 429.574 180.937 434.421 157.98C445.679 195.649 445.679 195.649 456.937 233.318C452.005 229.81 444.767 230.647 441.305 225.682C439.052 222.45 440.444 213.583 438.87 209.97C436.854 205.345 435.037 203.144 431.868 199.218" fill="#4f8b8f" fill-rule="nonzero" opacity="1" stroke="none" vectornator:layerName="path 31"/>
<path d="M465.472 318.512C446.564 321.933 445.673 305.186 448.145 291.444C452.939 298.016 451.122 308.379 459.231 311.707C466.097 314.525 472.948 311.262 479.33 316.023" fill="#4f8b8f" fill-rule="nonzero" opacity="1" stroke="none" vectornator:layerName="path 32"/>
<path d="M444.596 271.159C443.875 262.93 424.309 252.577 427.171 245.719C442.92 257.971 465.971 284.233 465.581 305.203C461.426 300.15 456.19 290.671 452.612 285.129" fill="#4f8b8f" fill-rule="nonzero" opacity="1" stroke="none" vectornator:layerName="path 33"/>
<path d="M459.231 255.609C447.775 246.536 447.775 246.536 436.32 237.463C447.395 235.583 448.528 238.928 455.47 248.019" fill="#518c90" fill-rule="nonzero" opacity="1" stroke="none" vectornator:layerName="path 34"/>
<path d="M404.095 291.571C396.4 273.988 396.278 260.361 394.217 238.58C392.628 221.787 394.376 204.839 394.967 187.982C395.578 170.548 398.71 160.058 417.676 154.18C421.085 163.283 408.895 200.38 407.282 211.943C403.639 238.073 407.121 277.106 410.332 303.306L404.095 291.571Z" fill="#fefdef" fill-rule="nonzero" opacity="1" stroke="#000000" stroke-linecap="butt" stroke-linejoin="round" stroke-width="1" vectornator:layerName="path 35"/>
<path d="M426.677 252.71C426.147 269.842 423.204 286.816 421.855 303.903C421.109 313.36 424.779 318.691 419.253 325.554C394.16 294.915 408.332 247.895 418.916 215.278C420.228 211.234 422.368 207.492 424.473 203.798C427.938 197.721 434.098 197.109 432.734 205.725C430.708 218.518 428.396 231.356 428.1 244.306L426.677 252.71Z" fill="#fefdef" fill-rule="nonzero" opacity="1" stroke="#000000" stroke-linecap="butt" stroke-linejoin="round" stroke-width="1" vectornator:layerName="path 36"/>
<path d="M404.92 288.281C401.201 249.623 400.128 188.204 419.082 153.204C429.99 159.853 427.535 192.865 425.642 201.364C419.279 229.937 406.616 259.536 405.624 286.742" fill="#c7c7b8" fill-rule="nonzero" opacity="1" stroke="none" vectornator:layerName="path 37"/>
<path d="M446.229 380.323C440.873 401.863 436.106 429.888 432.928 451.855C432.807 452.689 427.466 436.948 427.294 436.34C424.438 426.259 426.778 427.132 424.782 416.845C422.892 407.1 429.219 397.424 429.284 388.483C429.342 380.466 427.139 376.58 428.1 368.62C428.852 362.388 432.928 351.421 432.928 345.144C432.928 331.964 419.103 327.68 419.082 325.554C418.997 316.983 421.333 312.347 421.775 303.788C422.02 299.047 422.868 279.15 424.728 275.624C428.22 278.655 426.524 303.729 429.995 306.843C443.503 318.963 456.466 340.683 452.939 361.932C452.145 366.716 448.512 371.098 447.95 375.914" fill="#c7c7b8" fill-rule="nonzero" opacity="1" stroke="none" vectornator:layerName="path 38"/>
<path d="M478.866 138.952C482.14 135.581 485.471 134.328 488.753 131.07C490.327 138.169 483.93 150.559 481.652 156.738C470.474 155.313 470.082 168.949 457.562 165.941C456.131 180.179 466.246 170.465 469.74 163.897C470.575 164.283 470.575 164.283 471.409 164.67C470.721 168.405 470.076 169.69 473.682 171.525C469.909 181.949 454.221 203.342 449.053 181.193C448.729 179.803 448.818 178.308 449.112 176.912C450.152 171.963 451.555 167.092 453.033 162.255C456.67 150.347 468.499 148.636 477.477 139.785" fill="#fed5b1" fill-rule="nonzero" opacity="1" stroke="none" vectornator:layerName="path 39"/>
<path d="M456.937 233.318C445.148 210.783 436.683 188.948 441.159 162.83C442.018 167.852 442.018 167.852 442.878 172.874C443.942 171.464 443.942 171.464 445.007 170.053C447.56 176.949 450.48 183.703 453.32 190.485C459.93 189.732 463.407 187.406 467.34 182.496C473.985 192.596 470.523 239.054 470.608 250.937C470.015 248.871 463.24 246.284 463.24 246.284C463.24 246.284 459.456 241.09 456.937 239.582" fill="#fcd3af" fill-rule="nonzero" opacity="1" stroke="#260e0e" stroke-linecap="butt" stroke-linejoin="round" stroke-width="1" vectornator:layerName="path 41"/>
<path d="M463.682 242.477C461.375 247.739 462.621 258.169 464.932 263.446C464.932 263.446 484.244 303.609 485.651 308.383L488.651 310.852C492.311 314.488 495.599 322.17 498.183 325.554C499.848 322.773 493.834 314.567 492.311 311.707C492.184 312.629 489.582 306.517 489.455 307.439C486.163 301.701 478.735 285.515 478.901 285.383L477.901 282.602C475.246 273.244 473.345 267.079 471.838 258.165C469.046 244.026 470.823 244.507 463.682 242.477Z" fill="#4f8a8e" fill-rule="nonzero" opacity="1" stroke="none"/>
<path d="M431.655 338.343C422.826 334.432 396.983 339.095 387.197 345.144C385.871 343.948 385.383 343.253 385.07 341.504C390.79 334.389 423.92 329.874 429.453 334.807" fill="#bf8d66" fill-rule="nonzero" opacity="1" stroke="none" vectornator:layerName="path 43"/>
<path d="M385.207 341.339C389.779 337.661 395.148 335.405 406.072 333.794C416.996 332.182 427.449 332.678 429.603 334.839" fill="none" opacity="1" stroke="#000000" stroke-linecap="butt" stroke-linejoin="round" stroke-width="0.5" vectornator:layerName="Curve 20"/>
<path d="M435.737 143.344C434.911 145.222 433.391 160.144 434.616 162.644C435.319 161.414 440.129 183.174 440.832 181.944C445.638 187.369 444.676 179.202 448.847 184.793C451.779 179.131 446.963 170.769 453.282 165.833C478.892 145.824 465.671 144.494 435.737 143.344Z" fill="#fcd3af" fill-rule="nonzero" opacity="1" stroke="none" vectornator:layerName="Curve 22"/>
<path d="M462.807 151.079C469.601 150.824 470.645 147.01 472.483 144.75C482.494 132.446 494.123 120.844 491.283 94.1255C489.067 73.2698 489.182 77.0282 485.936 62.1333C485.017 57.9146 482.358 52.0836 472.483 48.0406C462.608 43.9976 463.018 45.4416 450.801 45.9614C438.585 46.4812 434.108 46.1949 426.244 48.0406C418.381 49.8863 413.168 62.1333 413.168 62.1333C413.168 62.1333 405.177 82.3725 413.727 100.528C416.896 107.257 420.929 118.223 424.258 124.875C427.133 130.621 434.891 142.081 442.835 145.713C450.801 149.355 455.974 151.334 462.807 151.079Z" fill="#fcd3af" fill-rule="nonzero" opacity="1" stroke="none" vectornator:layerName="Curve 23"/>
<path d="M414.612 100.102C416.866 115.465 432.285 141.687 445.475 146.921C444.438 141.452 439.239 136.904 436.868 131.867C433.205 124.085 432.012 115.6 427.651 108.188C425.73 104.925 417.977 101.839 414.612 100.102Z" fill="#aa8f76" fill-rule="nonzero" opacity="1" stroke="none" vectornator:layerName="Curve 24"/>
<path d="M414.982 56.3285C410.021 61.917 406.784 78.936 409.777 86.086C414.629 84.5392 412.931 82.9016 417.807 81.4692C416.789 69.6919 420.722 71.5339 414.982 56.3285Z" fill="#aa8f76" fill-rule="nonzero" opacity="1" stroke="none" vectornator:layerName="Curve 25"/>
<path d="M411.007 84.7985C411.007 84.7985 404.932 87.184 403.268 87.7974C398.956 89.387 400.58 92.1696 400.58 92.1696C402.2 94.2691 405.177 95.9961 405.177 95.9961C405.568 96.5722 405.506 91.0492 406.537 90.6484C413.865 87.7974 410.762 97.0681 413.168 101.264C414.047 100.385 414.699 100.102 415.698 100.102C419.935 103.509 422.356 107.001 425.541 106.959C429.947 106.9 431.212 107.262 435.491 106.21C449.107 102.865 444.726 94.9789 451.987 85.8272C458.329 89.7999 458.686 98.2772 466.051 100.93C474.504 103.975 483.77 102.789 489.877 98.2645C494.099 95.1364 491.688 87.4466 493.98 82.9692C494.474 82.0036 495.638 79.3377 496.82 78.6946C498.033 78.0343 498.139 84.2469 499.323 84.3265C501.111 84.4468 503.858 78.5607 504.684 77.2671C504.859 76.9931 503.81 75.5253 500.987 75.4623C497.482 75.3842 493.279 74.3082 488.898 73.7349C483.334 73.0066 478.997 71.5339 476.166 71.5339C473.116 71.5339 471.138 71.3931 464.916 74.7124C458.694 78.0318 455.63 83.0646 451.981 82.9692C447.36 82.8485 438.638 78.6946 432.985 78.2171C422.768 77.354 413.168 80.7661 411.007 84.7985Z" fill="#2f2a21" fill-rule="nonzero" opacity="1" stroke="none" vectornator:layerName="Curve 26"/>
<path d="M466.69 98.191C473.49 101.932 486.885 99.89 488.898 95.0142C492.431 86.4581 488.613 77.021 485.017 76.0924C478.332 74.3662 473.662 74.5581 468.783 76.0924C465.048 77.2671 463.587 78.1147 459.433 82.1724C455.28 86.2301 462.855 96.0812 466.69 98.191Z" fill="#fcd3af" fill-rule="nonzero" opacity="1" stroke="none" vectornator:layerName="Curve 27"/>
<path d="M414.291 100.102C412.625 101.184 411.403 101.688 412.56 103.378C418.197 111.614 418.526 113.257 420.517 118.646C421.718 121.898 424.484 128.092 427.275 131.867C428.354 133.325 429.31 134.363 431.518 136.881C433.709 139.378 438.06 145.312 441.713 144.399C425.064 130.872 423.017 118.414 414.291 100.102Z" fill="#504d48" fill-rule="nonzero" opacity="1" stroke="none" vectornator:layerName="Curve 28"/>
<path d="M413.644 102.657C411.095 95.3001 410.963 87.3429 408.14 84.3265C407.598 85.8988 403.943 93.4919 405.609 100.857C406.957 106.817 416.874 112.738 418.335 113.752C420.374 115.168 416.193 110.013 413.644 102.657Z" fill="#d5ab88" fill-rule="nonzero" opacity="1" stroke="none" vectornator:layerName="Curve 29"/>
<path d="M414.612 88.3646C413.8 93.2918 417.548 99.7318 422.438 102.518C427.941 105.654 432.547 105.873 436.868 103.377C441.454 101.098 446.437 94.5728 446.437 89.2532C446.437 86.3711 442.797 83.8657 438.638 82.1724C434.907 80.6529 427.11 81.4692 423.432 81.4692C420.517 81.4692 414.291 85.2339 414.612 88.3646Z" fill="#fcd3af" fill-rule="nonzero" opacity="1" stroke="none" vectornator:layerName="Curve 30"/>
<path d="M417.147 84.9605C417.807 83.9204 417.808 83.7247 415.698 85.688C411.641 89.4622 416.57 101.264 424.764 103.572C418.877 96.7053 419.775 97.7907 417.807 93.1646C416.57 90.2583 416.363 86.1971 417.147 84.9605Z" fill="#aa8f76" fill-rule="nonzero" opacity="1" stroke="none" vectornator:layerName="Curve 31"/>
<path d="M470.989 79.3599C462.955 81.815 463.657 90.2625 475.208 89.2036C479.571 88.8036 479.682 84.8334 478.627 82.3725C477.573 79.9115 474.264 78.6159 470.989 79.3599Z" fill="#504d48" fill-rule="nonzero" opacity="1" stroke="none" vectornator:layerName="Curve 32"/>
<path d="M431.518 84.6333C424.033 86.8223 425.588 96.8042 433.942 94.7331C440.725 93.0517 436.676 83.1246 431.518 84.6333Z" fill="#3d3b38" fill-rule="nonzero" opacity="1" stroke="none" vectornator:layerName="Curve 33"/>
<path d="M455.688 80.7296C464.158 72.2073 473.035 70.6889 475.346 71.2073C481.529 72.5942 482.402 70.6919 479.33 67.8522C472.409 64.2067 455.688 76.9683 455.688 80.7296Z" fill="#8d7663" fill-rule="nonzero" opacity="1" stroke="none" vectornator:layerName="Curve 46"/>
<path d="M420.507 74.1591C413.842 74.0033 417.328 78.4247 419.171 78.9239C420.663 79.3282 426.144 77.7691 428.496 77.4962C433.006 76.9731 445.81 80.1507 445.81 80.1507C445.81 80.1507 445.145 74.7349 420.507 74.1591Z" fill="#8d7663" fill-rule="nonzero" opacity="1" stroke="none" vectornator:layerName="Curve 47"/>
<path d="M491.276 88.1489C491.276 93.5474 490.548 105.074 492.128 108.891C493.189 107.61 499.039 99.0258 500.073 91.5452C500.909 85.4929 497.2 80.3541 496.19 78.8906C494.78 76.848 492.925 86.8217 491.276 88.1489Z" fill="#d5ab88" fill-rule="nonzero" opacity="1" stroke="none" vectornator:layerName="Curve 34"/>
<path d="M444.81 129.201C451.808 129.672 467.658 129.891 474.057 127.172C469.421 120.761 451.268 124.304 444.81 129.201Z" fill="#e9c3a2" fill-rule="nonzero" opacity="1" stroke="none" vectornator:layerName="Curve 35"/>
<path d="M496.82 84.3265C494.439 86.132 498.013 89.8938 495.651 92.7192C490.257 89.8681 493.137 102.518 493.137 102.518C493.137 102.518 496.491 98.5918 497.417 94.8144C498.344 91.037 498.997 87.6038 496.82 84.3265Z" fill="#aa8f76" fill-rule="nonzero" opacity="1" stroke="none" vectornator:layerName="Curve 36"/>
<path d="M413.168 108.145C414.79 105.636 412.56 102.518 412.027 102.518C409.417 102.518 412.105 99.0124 408.712 92.7192C408.712 92.7192 407.64 95.4834 408.057 99.3504C408.474 103.217 409.935 105.369 413.168 108.145Z" fill="#aa8f76" fill-rule="nonzero" opacity="1" stroke="none" vectornator:layerName="Curve 37"/>
<path d="M482.916 130.688C480.604 135.55 474.807 140.606 473.002 142.451C471.593 143.891 470.611 145.472 467.799 147.406C464.986 149.34 462.855 151.079 461.049 151.079C457.457 151.079 456.855 150.178 453.516 148.969C450.176 147.761 449.874 147.427 446.437 146.373C443.001 145.318 436.868 142.641 436.868 142.641C436.868 142.641 441.383 146.036 449.834 148.969C457.685 151.694 463.35 153.328 465.638 151.694C468.086 149.945 473.084 145.596 476.166 141.626C478.073 139.17 482.904 133.846 485.018 129.488C487.412 124.554 490.314 119.848 490.58 118.646C491.084 116.371 492.112 114.117 492.112 112.055C492.112 110.685 492.897 107.882 492.112 108.165C491.07 108.541 489.644 118.882 488.119 121.952C486.767 124.676 483.918 128.579 482.916 130.688Z" fill="#d5ab88" fill-rule="nonzero" opacity="1" stroke="none" vectornator:layerName="Curve 38"/>
<path d="M469.263 80.1507C465.552 81.4456 462.77 87.0845 470.593 86.2814C470.192 83.9445 470.142 80.678 469.263 80.1507Z" fill="#dcdcdc" fill-rule="nonzero" opacity="1" stroke="none" vectornator:layerName="Curve 39"/>
<path d="M431.303 84.7611C426.772 86.138 423.374 92.1342 432.928 91.2802C432.438 88.7952 432.377 85.3218 431.303 84.7611Z" fill="#dcdcdc" fill-rule="nonzero" opacity="1" stroke="none" vectornator:layerName="Curve 52"/>
<path d="M475.704 79.7023C474.65 80.2297 475.346 81.6357 475.346 81.6357C475.346 81.6357 476.242 83.9367 476.761 84.9418C478.078 87.4947 479.33 85.5228 478.892 83.255C478.668 82.094 477.959 80.607 475.704 79.7023Z" fill="#dcdcdc" fill-rule="nonzero" opacity="1" stroke="none" vectornator:layerName="Curve 40"/>
<path d="M503.237 65.6489C502.368 66.5178 500.824 65.8549 500.424 67.0552C499.671 69.313 503.192 72.5743 504.643 73.7349C506.397 71.9808 504.879 67.2909 503.237 65.6489Z" fill="#504d48" fill-rule="nonzero" opacity="1" stroke="none" vectornator:layerName="Curve 41"/>
<path d="M453.963 132.149C454.49 132.852 454.49 132.852 455.018 133.555C457.547 132.291 461.638 133.966 464.158 131.446C462.635 129.161 455.797 130.315 453.963 132.149Z" fill="#d5ab88" fill-rule="nonzero" opacity="1" stroke="none" vectornator:layerName="Curve 42"/>
<path d="M457.182 115.465C456.353 110.857 454.877 102.518 454.877 102.518C450.584 112.065 450.832 125.103 457.182 115.465Z" fill="#d5ab88" fill-rule="nonzero" opacity="1" stroke="none" vectornator:layerName="Curve 43"/>
<path d="M446.651 0.602064C439.146 0.609686 436.445 5.75704 431.182 11.1646C430.303 9.23097 430.28 9.22316 429.401 7.28956C426.944 8.12132 427.092 8.25385 426.432 9.94581C425.94 9.59578 425.345 9.595 424.494 10.4458C423.981 10.1308 423.8 9.6641 422.744 7.28956C421.024 10.8532 418.147 16.0389 417.807 20.0633C417.406 18.3342 417.807 15.2948 419.935 9.56672C415.346 11.7617 411.74 22.6824 411.315 23.9098C411.126 23.6086 411.067 19.0378 410.855 18.7203C409.764 19.6528 406.93 31.6022 407.619 24.1646C405.18 27.848 405.376 27.6286 404.15 33.824C401.074 29.732 403.705 21.5524 403.401 16.0708C400.91 17.316 397.074 35.6093 397.895 41.2263C397.574 41.0678 395.688 34.392 395.276 34.1646C395.178 34.4917 392.972 40.7622 395.908 47.7096C395.908 47.7096 398.557 52.5205 399.901 54.8521C400.191 55.3563 398.126 58.2401 397.8 57.9146C395.983 59.7317 389.376 49.9892 387.974 51.3917C388.256 51.6741 393.033 60.7803 396.768 62.1333C396.115 62.5246 394.619 62.8364 393.329 67.2579C392.057 71.6154 391.383 77.2763 394.521 80.4146C395.259 79.923 395.901 73.9239 397.504 71.5331C397.722 72.3639 395.94 80.4869 396.387 82.5428C396.872 84.7735 399.494 78.8208 399.494 78.8208C399.494 78.8208 398.969 88.1794 400.588 91.6646C403.067 97.0005 405.182 96.0083 405.182 96.0083C405.182 96.0083 405.699 96.7933 409.932 85.6958C414.165 74.5983 414.15 53.0063 422.119 51.6021C432.497 49.7735 461.444 45.1631 466.838 46.6646C475.32 49.0254 477.529 51.9824 482.494 60.0396C485.961 65.6646 488.128 73.5653 491.307 74.8833C494.539 76.2235 502.915 79.7507 502.869 79.4771C505.473 78.2832 513.696 54.8492 515.182 53.6646C509.679 51.2288 504.416 56.4034 498.307 55.4458C502.61 53.5579 512.962 52.0578 511.682 45.6021C506.167 47.6155 505.698 48.1956 504.307 47.0083C506.856 44.0351 506.851 44.044 509.401 41.0708C505.729 41.5827 496.818 44.8321 492.088 42.7583C488.898 39.1169 488.898 38.0053 494.807 38.3521C502.231 38.0103 502.417 35.2066 505.698 29.2875C505.055 28.7433 498.643 29.3874 491.109 29.3042C483.574 29.221 486.219 27.3646 483.918 26.1756C483.944 26.0841 497.091 27.4114 500.088 25.5708C497.238 23.7936 483.918 22.3394 481.682 21.4771C476.869 18.5514 490.419 20.0417 494.463 17.4771C489.522 14.5385 481.707 17.4103 478.401 13.7271C480.032 12.74 481.54 11.6229 482.776 10.1958C478.264 10.8372 473.719 11.2281 469.244 12.0708C468.738 11.7176 468.868 8.56575 465.048 8.05063C461.228 7.53551 457.378 9.91203 453.963 10.0103C455.335 8.86991 458.435 6.38017 460.338 4.47706C459.438 3.57701 456.918 4.89948 456.127 4.54077C456.645 3.80848 458.838 1.13848 459.643 0C453.761 1.12975 450.801 3.06702 443.463 8.69581C438.86 10.6431 441.979 6.75017 446.651 0.602064Z" fill="#453232" fill-rule="nonzero" opacity="1" stroke="none" vectornator:layerName="Curve 44"/>
<path d="M436.303 141.987C433.952 145.096 417.584 151.52 418.187 154.191C419.368 151.194 422.747 169.086 425.642 167.971C426.697 175.155 425.096 191.781 426.748 194.636C432.928 182.496 443.743 149.442 436.303 141.987Z" fill="#adacac" fill-rule="nonzero" opacity="1" stroke="none" vectornator:layerName="Curve 45"/>
<path d="M471.434 76.4626C468.314 76.7991 464.127 78.8781 461.591 80.7714C465.437 83.1868 466.872 80.3096 470.678 79.1507C474.708 77.9239 476.405 77.6072 479.33 79.1507C482.402 80.7714 482.81 80.1056 484.069 79.9553C489.41 79.3179 481.051 73.7349 471.434 76.4626Z" fill="#d5ab88" fill-rule="nonzero" opacity="1" stroke="none" vectornator:layerName="Curve 48"/>
<path d="M428.1 81.7094C424.98 82.0459 422.044 82.5845 419.507 84.4778C423.353 86.8933 428.496 84.7611 428.496 84.7611C428.496 84.7611 433.729 83.0547 436.303 83.714C445.475 86.0634 441.582 81.2915 428.1 81.7094Z" fill="#d5ab88" fill-rule="nonzero" opacity="1" stroke="none" vectornator:layerName="Curve 49"/>
<path d="M476.404 80.1507C476.259 79.4922 470.253 77.4962 466.308 82.2814C468.968 83.256 476.65 81.2649 476.404 80.1507Z" fill="#777574" fill-rule="nonzero" opacity="1" stroke="none" vectornator:layerName="Curve 50"/>
<path d="M436.303 86.8077C434.57 84.3265 431.205 82.9227 427.294 87.8811C429.954 88.8557 436.956 87.7433 436.303 86.8077Z" fill="#777574" fill-rule="nonzero" opacity="1" stroke="none" vectornator:layerName="Curve 51"/>
</g>
</svg>
