<?xml version="1.0" encoding="utf-8"?>
<!-- Generator: Adobe Illustrator 26.0.3, SVG Export Plug-In . SVG Version: 6.00 Build 0)  -->
<svg version="1.1" id="Layer_1" xmlns="http://www.w3.org/2000/svg" xmlns:xlink="http://www.w3.org/1999/xlink" x="0px" y="0px"
	 viewBox="0 0 720 720" style="enable-background:new 0 0 720 720;" xml:space="preserve">
<style type="text/css">
	.st0{fill:#5309DD;}
	.st1{fill:#FFF21F;}
</style>
<g>
	<path class="st0" d="M359.39,247.75c-62.23,0-112.86,50.63-112.86,112.86c0,27.76,10.07,53.2,26.75,72.87l-49.48,49.48
		c-6.07-6.72-11.65-13.89-16.63-21.41c-6.92-10.43-18.56-16.65-31.14-16.65H59.99c-12.48,0-24.09,6.19-31.05,16.54
		c-7,10.4-8.35,23.56-3.61,35.19c36.49,89.52,108.76,161.74,198.3,198.14c4.59,1.87,9.41,2.79,14.21,2.79
		c7.37,0,14.68-2.17,20.97-6.41c10.35-6.97,16.53-18.58,16.52-31.06L275.3,544.1c-0.01-12.59-6.24-24.23-16.67-31.14
		c-7.58-5.02-14.81-10.63-21.59-16.75l49.48-49.48c19.68,16.67,45.12,26.75,72.87,26.75c62.23,0,112.86-50.63,112.86-112.87
		C472.25,298.38,421.62,247.75,359.39,247.75z M234.38,493.75c-1.4-1.31-2.78-2.64-4.13-3.99c-1.35-1.35-2.67-2.73-3.98-4.12
		L234.38,493.75z M359.39,454.75c-51.9,0-94.13-42.23-94.13-94.14c0-51.9,42.23-94.13,94.13-94.13c51.9,0,94.13,42.23,94.13,94.13
		C453.52,412.52,411.29,454.75,359.39,454.75z"/>
	<path class="st0" d="M720,360.61c0,32.65-4.37,65-12.98,96.16c-39.87,144.48-166.95,250.21-316.24,263.09
		c-1.06,0.09-2.12,0.14-3.18,0.14c-9.32,0-18.39-3.5-25.31-9.84c-7.72-7.09-12.15-17.15-12.16-27.63l-0.03-103.6
		c-0.01-18.8,14.07-34.78,32.74-37.17c56.99-7.3,107.84-41.72,136.02-92.07c15.17-27.05,23.18-57.86,23.18-89.08
		c0-100.72-81.93-182.65-182.64-182.65c-31.25,0.02-62.01,8.02-89.01,23.14c-50.41,28.19-84.86,79.08-92.15,136.12
		c-2.39,18.67-18.36,32.75-37.15,32.75H37.48c-10.47,0-20.54-4.43-27.63-12.15c-7.07-7.7-10.61-18.08-9.71-28.48
		C12.97,179.99,118.71,52.85,263.26,12.96C294.33,4.38,326.64,0.02,359.28,0C558.23,0,720,161.77,720,360.61z"/>
</g>
<circle class="st1" cx="360" cy="360" r="93.52"/>
</svg>
