<?xml version="1.0" encoding="UTF-8" standalone="no"?>
<!DOCTYPE svg PUBLIC "-//W3C//DTD SVG 1.1//EN" "http://www.w3.org/Graphics/SVG/1.1/DTD/svg11.dtd">
<!-- Created with Vectornator (http://vectornator.io/) -->
<svg height="100%" stroke-miterlimit="10" style="fill-rule:nonzero;clip-rule:evenodd;stroke-linecap:round;stroke-linejoin:round;" version="1.1" viewBox="0 0 600 966" width="100%" xml:space="preserve" xmlns="http://www.w3.org/2000/svg" xmlns:vectornator="http://vectornator.io" xmlns:xlink="http://www.w3.org/1999/xlink">
<defs>
<filter color-interpolation-filters="sRGB" filterUnits="userSpaceOnUse" height="970.5" id="Filter" width="550.5" x="29.1642" y="-1.1862">
<feDropShadow dx="4.41425" dy="4.0638" flood-color="#000000" flood-opacity="0.2" in="SourceGraphic" result="Shadow" stdDeviation="2"/>
</filter>
</defs>
<clipPath id="ArtboardFrame">
<rect height="966" width="600" x="0" y="0"/>
</clipPath>
<g clip-path="url(#ArtboardFrame)" id="Layer-1" vectornator:layerName="Layer 1">
<path d="M30 0L570 2.71682e-14L570 960L30 960L30 0Z" fill="#f31515" fill-rule="nonzero" filter="url(#Filter)" stroke="#ffffff" stroke-linecap="butt" stroke-linejoin="round" stroke-width="0.5" vectornator:layerName="Rectangle 1" vectornator:shadowAngle="0.744085" vectornator:shadowColor="#000000" vectornator:shadowOffset="6" vectornator:shadowOpacity="0.2" vectornator:shadowRadius="4"/>
<g opacity="1" vectornator:layerName="g">
<path d="M404.34 574.459C402.499 632.197 411.123 690.421 424.977 747.276C350.751 747.626 276.329 747.496 202.136 747.354C200.148 694.598 201.76 642.615 195.819 590.022C195.598 587.933 195.353 585.825 195.091 583.736C193.52 571.151 191.098 560.09 188.267 547.692C184.912 533.025 178.791 518.902 172.654 504.772C166.934 491.674 161.214 478.563 157.614 465.024C149.783 435.52 149.963 406.294 148.883 376.375C148.138 355.589 160.183 336.737 170.06 318.073C175.133 308.523 179.838 298.766 182.105 288.51C184.715 276.813 184.593 265.039 188.209 253.387C189.895 247.99 192.129 242.443 197.12 238.544C202.545 234.295 210.041 232.913 217.25 231.746C220.842 231.168 224.5 230.792 228.043 230.046C233.861 228.82 233.304 228.664 234.728 224.395C239.106 211.2 239.981 196.623 242.281 183.026C246.233 160.255 244.809 154.41 251.977 131.321C255.954 124.672 251.814 100.098 256.314 93.8311C262.312 80.6099 281.083 76.0103 295.64 84.1584C297.49 85.1964 299.47 86.974 301.123 83.9703C301.679 71.4432 297.432 51.2806 316.596 48.3223C328.077 45.7274 339.32 49.3863 346.463 57.7095C355.35 68.258 353.206 80.9926 357.306 92.6115C402.965 63.613 416.737 130.965 418.038 155.02C419.625 169.149 421.114 183.266 425.059 197.142C429.69 225.485 425.738 254.367 429.518 282.801C434.338 318.637 454.107 352.937 447.52 388.909C446.914 395.085 445.826 403.466 441.596 409.518C433.847 448.17 423.332 486.368 414.478 524.825C414.478 524.838 414.478 524.844 414.462 524.857C412.793 532.142 411.164 539.434 409.642 546.752C408.3 553.103 407.048 559.48 405.87 565.863C405.338 568.731 404.823 571.585 404.34 574.459Z" fill="none" opacity="1" stroke="#000000" stroke-linecap="butt" stroke-linejoin="round" stroke-width="7" vectornator:layerName="path"/>
<path d="M202.169 296.074C220.032 295.918 237.698 289.82 250.014 279.557C250.725 278.961 251.445 278.344 252.387 278C253.36 277.644 254.473 277.637 255.553 277.631C264.276 277.585 273.539 277.462 280.895 273.738" fill="none" opacity="1" stroke="#000000" stroke-linecap="butt" stroke-linejoin="round" stroke-width="7" vectornator:layerName="path"/>
<path d="M302.44 107.649C299.298 136.596 305.001 174.06 297.326 200.159C290.878 222.073 291.23 247.821 291.23 270.748" fill="none" opacity="1" stroke="#000000" stroke-linecap="butt" stroke-linejoin="round" stroke-width="7" vectornator:layerName="path"/>
<path d="M356.43 116.491C356.356 143.09 359.351 170.512 362.42 196.506C363.925 209.286 362.436 224.019 361.953 236.858C361.561 247.341 358.304 264.247 362.313 274.419C363.533 276.696 367.73 276.709 369.252 276.794C375.316 277.138 382.435 276.969 388.236 276.625C386.133 278.604 381.936 279.363 378.769 279.642C372.247 280.226 365.652 280.297 359.106 279.856" fill="none" opacity="1" stroke="#000000" stroke-linecap="butt" stroke-linejoin="round" stroke-width="7" vectornator:layerName="path"/>
<path d="M290.24 371.567C290.207 370.361 290.142 365.119 289.765 364.976C301.327 377.503 309.625 385.275 313.921 388.662C314.289 388.954 303.013 398.646 299.805 403.427C292.335 414.566 287.024 425.743 285.592 438.387C283.767 454.554 287.842 469.598 288.972 485.706C289.405 491.901 294.528 507.01 285.968 510.708C281.763 507.127 282.573 494.516 281.435 489.306C279.692 481.333 277.712 473.334 278.121 465.206C278.89 450.123 279.169 434.65 281.615 419.639C282.319 415.422 290.493 380.565 290.24 371.567Z" fill="none" opacity="1" stroke="#000000" stroke-linecap="butt" stroke-linejoin="round" stroke-width="7" vectornator:layerName="path"/>
<path d="M318.634 589.27C298.496 602.536 303.054 629.861 304.208 648.48C305.296 665.996 305.124 700.716 316.76 715.137C319.657 673.476 312.227 632.236 318.634 589.27Z" fill="none" opacity="1" stroke="#000000" stroke-linecap="butt" stroke-linejoin="round" stroke-width="7" vectornator:layerName="path"/>
<path d="M285.322 600.551C280.723 600.071 277.491 596.964 276.084 593.681C275.282 591.813 273.555 587.11 277.401 587.265C279.455 587.35 281.296 588.135 283.53 588.089C288.227 587.992 292.646 584.943 297.187 585.481C297.76 587.285 296.295 590.217 295.73 591.988C294.429 596.01 291.934 601.245 285.322 600.551Z" fill="none" opacity="1" stroke="#000000" stroke-linecap="butt" stroke-linejoin="round" stroke-width="7" vectornator:layerName="path"/>
<path d="M410.297 543.651C408.955 550.002 407.048 559.486 405.87 565.87C405.314 567.129 404.528 568.4 403.325 569.088C400.911 570.476 396.182 571.838 393.285 572.558C389.365 573.545 385.02 573.908 380.945 574.265C377.01 574.602 373.041 574.803 369.08 574.913C367.796 574.946 364.114 573.869 360.489 572.87C358.697 572.377 358.958 570.301 360.849 570.119C368.892 569.341 378.482 568.828 383.916 566.473C392.467 564.449 400.33 561.193 404.626 555.529C405.494 554.381 406.557 551.708 407.662 548.367C408.268 547.712 409.552 544.027 410.297 543.651Z" fill="none" opacity="1" stroke="#000000" stroke-linecap="butt" stroke-linejoin="round" stroke-width="7" vectornator:layerName="path"/>
<path d="M212.021 295.951C216.121 308.063 222.29 321.822 233.075 331.203C237.273 334.856 240.767 337.009 247.256 338.145C257.992 340.026 267.361 334.94 277.458 340.902C281.509 343.296 284.667 346.5 287.769 349.666C289.978 351.917 292.228 354.227 293.382 356.932C294.618 359.819 294.511 362.939 294.397 365.982C294.069 374.571 293.595 383.576 288.129 390.997C285.723 387.403 285.633 383.167 285.019 379.125C283.685 370.4 279.586 361.947 273.212 354.759C264.914 345.397 251.331 356.316 239.662 354.454C232.306 353.28 224.721 348.375 220.654 343.685C215.662 337.931 211.849 331.528 209.444 324.807C208.453 322.049 207.259 295.964 207.651 295.964C207.643 295.951 212.021 295.951 212.021 295.951Z" fill="none" opacity="1" stroke="#000000" stroke-linecap="butt" stroke-linejoin="round" stroke-width="7" vectornator:layerName="path"/>
<path d="M278.383 277.371C289.119 277.903 297.907 273.537 308.037 274.556C318.339 275.587 328.003 276.054 338.616 276.035C348.877 276.015 357.289 278.604 367.714 278.701C376.306 278.779 384.317 277.592 392.524 277.332C370.112 285.078 348.386 280.654 325.532 280.031C316.556 279.784 306.098 276.547 297.833 277.365C290.158 278.124 282.957 282.055 275.11 282.632C269.873 277.598 276.935 276.405 282.622 276.69L278.383 277.371Z" fill="none" opacity="1" stroke="#000000" stroke-linecap="butt" stroke-linejoin="round" stroke-width="7" vectornator:layerName="path"/>
<path d="M363.393 337.859C373.548 331.832 385.871 326.039 396.959 321.161C403.612 331.404 370.938 335.952 364.875 339.468L363.393 337.859Z" fill="none" opacity="1" stroke="#000000" stroke-linecap="butt" stroke-linejoin="round" stroke-width="7" vectornator:layerName="path"/>
<path d="M195.827 590.022C195.607 587.933 195.361 585.825 195.099 583.736C193.528 571.151 191.106 560.09 188.275 547.692C184.92 533.025 180.19 521.432 174.061 507.302C186.646 532.635 189.093 533.797 201.604 547.297C213.723 560.375 232.576 571.358 253.475 571.293C257.452 573.279 263.63 575.523 264.35 579.124C266.584 590.295 209.075 588.31 195.827 590.022Z" fill="none" opacity="1" stroke="#000000" stroke-linecap="butt" stroke-linejoin="round" stroke-width="7" vectornator:layerName="path"/>
<path d="M292.335 154.423C292.31 154.507 292.277 154.598 292.261 154.689C292.261 154.676 292.245 154.669 292.245 154.656L292.335 154.423Z" fill="none" opacity="1" stroke="#000000" stroke-linecap="butt" stroke-linejoin="round" stroke-width="7" vectornator:layerName="path"/>
<path d="M292.105 231.382C290.96 222.475 290.714 206.03 291.484 197.006C292.253 187.904 295.714 169.37 299.224 159.853C303.807 193.23 293.398 204.239 292.105 231.382Z" fill="none" opacity="1" stroke="#000000" stroke-linecap="butt" stroke-linejoin="round" stroke-width="7" vectornator:layerName="path"/>
<path d="M308.152 195.618C322.152 195.618 334.688 196.565 348.116 198.42C338.354 201.67 319.133 201.826 308.315 202.682C308.021 201.372 308.021 200.055 308.152 198.706L308.152 197.674" fill="none" opacity="1" stroke="#000000" stroke-linecap="butt" stroke-linejoin="round" stroke-width="7" vectornator:layerName="path"/>
<path d="M317.726 137.069C326.105 139.645 338.313 137.536 347.486 138.042C341.775 143.368 319.968 140.138 310.697 143.271C309.952 139.742 312.325 138.704 316.695 139.496L323.887 138.691" fill="none" opacity="1" stroke="#000000" stroke-linecap="butt" stroke-linejoin="round" stroke-width="7" vectornator:layerName="path"/>
<path d="M372.943 209.663C387.729 209.799 402.024 206.237 416.589 206.393C405.575 210.169 386.673 216.26 374.563 214.204C374.497 213.471 374.637 212.764 374.997 212.089L372.943 209.663Z" fill="none" opacity="1" stroke="#000000" stroke-linecap="butt" stroke-linejoin="round" stroke-width="7" vectornator:layerName="path"/>
<path d="M370.848 156.2C383.098 156.2 395.347 156.252 407.588 156.187C397.548 158.179 386.24 163.084 375.316 161.734C375.414 158.977 373.556 157.511 371.871 155.396" fill="none" opacity="1" stroke="#000000" stroke-linecap="butt" stroke-linejoin="round" stroke-width="7" vectornator:layerName="path"/>
<path d="M261.952 150.615C270.061 150.615 281.607 149.356 288.628 151.225C279.119 153.463 267.737 152.23 257.844 152.23L266.06 149.81" fill="none" opacity="1" stroke="#000000" stroke-linecap="butt" stroke-linejoin="round" stroke-width="7" vectornator:layerName="path"/>
<path d="M250.39 198.206C260.847 195.579 274.889 200.204 285.821 200.814C276.395 204.246 258.9 205.939 250.39 199.821L249.359 199.017" fill="none" opacity="1" stroke="#000000" stroke-linecap="butt" stroke-linejoin="round" stroke-width="7" vectornator:layerName="path"/>
<path d="M203.503 276.489C212.471 288.821 217.765 324.917 230.007 335.887C236.414 341.622 255.136 347.337 263.057 340.311C266.878 336.918 269.898 335.926 272.058 331.716C274.218 327.505 274.881 322.899 275.102 318.352C275.658 307.051 279.349 304.897 274.848 294.16L271.174 287.05C259.849 276.216 259.98 240.99 239.409 235.015" fill="none" opacity="1" stroke="#000000" stroke-linecap="butt" stroke-linejoin="round" stroke-width="7" vectornator:layerName="path"/>
<path d="M199.035 278.422C201.531 283.651 205.516 288.211 210.442 291.468" fill="none" opacity="1" stroke="#000000" stroke-linecap="butt" stroke-linejoin="round" stroke-width="7" vectornator:layerName="path"/>
<path d="M319.567 393.261C327.447 400.105 333.314 410.342 339.672 418.179" fill="none" opacity="1" stroke="#000000" stroke-linecap="butt" stroke-linejoin="round" stroke-width="7" vectornator:layerName="path"/>
<path d="M298.635 273.797C312.3 276.67 326.718 277.254 340.678 275.496" fill="none" opacity="1" stroke="#000000" stroke-linecap="butt" stroke-linejoin="round" stroke-width="7" vectornator:layerName="path"/>
<path d="M318.397 278.675C324.853 279.155 331.391 278.967 337.782 278.124" fill="none" opacity="1" stroke="#000000" stroke-linecap="butt" stroke-linejoin="round" stroke-width="7" vectornator:layerName="path"/>
<path d="M391.485 337.619C382.451 337.587 372.64 337.34 365.636 332.818C355.121 326.026 343.509 320.486 333.666 312.993C326.326 307.408 321.514 299.474 313.626 295.198C301.074 288.393 277.229 287.654 262.672 283.521C255.144 281.38 237.829 272.642 229.753 275.165C221.488 277.747 219.77 294.77 219.95 300.654C220.22 309.451 224.23 318.319 231.979 324.618C236.888 328.608 243.058 331.443 249.146 334.226C256.077 337.392 263.081 340.48 269.947 343.737C275.822 346.526 277.467 349.796 281.083 354.376C287.368 362.329 293.93 370.173 301.319 377.516C316.335 392.424 334.893 404.225 355.923 413.437" fill="none" opacity="1" stroke="#000000" stroke-linecap="butt" stroke-linejoin="round" stroke-width="7" vectornator:layerName="path"/>
<path d="M370.562 335.186C379.358 335.186 387.655 331.761 393.228 330.308" fill="none" opacity="1" stroke="#000000" stroke-linecap="butt" stroke-linejoin="round" stroke-width="7" vectornator:layerName="path"/>
<path d="M262.672 282.444C262.819 282.483 262.967 282.529 263.106 282.567C268.49 284.105 276.779 285.351 280.601 288.685C285.273 292.759 277.704 300.745 272.369 303.625C265.053 307.57 255.439 305.507 249.408 302.925C243.181 300.258 234.581 296.956 233.353 290.592C232.151 284.352 237.698 275.315 246.7 278.292C251.814 279.986 257.337 280.952 262.672 282.444Z" fill="none" opacity="1" stroke="#000000" stroke-linecap="butt" stroke-linejoin="round" stroke-width="7" vectornator:layerName="path"/>
<path d="M299.895 323.47C308.315 320.525 315.115 306.337 316.621 299.37" fill="none" opacity="1" stroke="#000000" stroke-linecap="butt" stroke-linejoin="round" stroke-width="7" vectornator:layerName="path"/>
<path d="M313.012 324.106C316.58 319.182 319.542 315.127 319.428 309.341" fill="none" opacity="1" stroke="#000000" stroke-linecap="butt" stroke-linejoin="round" stroke-width="7" vectornator:layerName="path"/>
<path d="M285.985 510.708C288.211 507.756 290.109 497.441 290.281 494.01C291.181 476.338 284.651 460.528 284.7 442.844C284.749 422.539 296.009 403.174 314.297 388.954" fill="none" opacity="1" stroke="#000000" stroke-linecap="butt" stroke-linejoin="round" stroke-width="7" vectornator:layerName="path"/>
<path d="M269.349 353.247C277.057 359.799 280.02 368.492 282.065 373.87C288.456 390.666 286.468 411.017 282.065 428.208" fill="none" opacity="1" stroke="#000000" stroke-linecap="butt" stroke-linejoin="round" stroke-width="7" vectornator:layerName="path"/>
<path d="M368.467 212.147C370.463 212.206 372.435 212.504 374.416 212.731C387.557 214.23 401.255 212.556 413.21 207.989" fill="none" opacity="1" stroke="#000000" stroke-linecap="butt" stroke-linejoin="round" stroke-width="7" vectornator:layerName="path"/>
<path d="M368.884 155.844C379.824 157.401 391.018 157.868 402.106 157.232C392.573 159.275 382.86 160.956 373 161.358" fill="none" opacity="1" stroke="#000000" stroke-linecap="butt" stroke-linejoin="round" stroke-width="7" vectornator:layerName="path"/>
<path d="M310.222 139.71C321.833 139.924 333.477 138.873 344.737 136.596" fill="none" opacity="1" stroke="#000000" stroke-linecap="butt" stroke-linejoin="round" stroke-width="7" vectornator:layerName="path"/>
<path d="M308.34 194.852C311.188 194.807 313.896 195.579 316.621 196.13C325.033 197.843 334.042 197.544 342.83 197.233" fill="none" opacity="1" stroke="#000000" stroke-linecap="butt" stroke-linejoin="round" stroke-width="7" vectornator:layerName="path"/>
<path d="M309.854 201.781C314.371 201.502 318.888 201.125 323.38 200.652" fill="none" opacity="1" stroke="#000000" stroke-linecap="butt" stroke-linejoin="round" stroke-width="7" vectornator:layerName="path"/>
<path d="M247.878 199.075C250.202 199.153 252.46 199.672 254.719 200.133C264.972 202.215 275.634 203.033 286.206 202.54" fill="none" opacity="1" stroke="#000000" stroke-linecap="butt" stroke-linejoin="round" stroke-width="7" vectornator:layerName="path"/>
<path d="M260.266 148.325C262.721 149.506 265.724 149.661 268.597 149.733C274.464 149.882 280.339 149.817 286.206 149.538" fill="none" opacity="1" stroke="#000000" stroke-linecap="butt" stroke-linejoin="round" stroke-width="7" vectornator:layerName="path"/>
<path d="M414.478 524.831C413.235 528.697 410.321 540.414 407.67 548.367C406.566 551.708 405.502 554.381 404.634 555.529C400.339 561.193 392.475 564.443 383.924 566.473C378.262 567.823 372.288 568.634 366.847 569.243" fill="none" opacity="1" stroke="#000000" stroke-linecap="butt" stroke-linejoin="round" stroke-width="7" vectornator:layerName="path"/>
<path d="M255.545 571.248C254.858 571.28 254.162 571.293 253.475 571.293C232.576 571.358 213.715 560.375 201.604 547.297C189.085 533.79 186.646 532.629 174.061 507.302" fill="none" opacity="1" stroke="#000000" stroke-linecap="butt" stroke-linejoin="round" stroke-width="7" vectornator:layerName="path"/>
<path d="M301.949 582.199C300.296 586.571 298.087 590.814 295.362 594.836C294.307 596.393 293.087 597.995 291.14 598.858C287.613 600.428 282.924 598.923 280.47 596.367C278.015 593.811 277.246 590.522 276.542 587.363" fill="none" opacity="1" stroke="#000000" stroke-linecap="butt" stroke-linejoin="round" stroke-width="7" vectornator:layerName="path"/>
<path d="M305.771 605.015C303.119 637.166 306.229 669.609 314.976 701.073" fill="none" opacity="1" stroke="#000000" stroke-linecap="butt" stroke-linejoin="round" stroke-width="7" vectornator:layerName="path"/>
</g>
<path d="M0 688C0 688 150 708 300 708C450 708 600 688 600 688L600 848C600 848 450 868 300 868C150 868 0 848 0 848L0 688Z" fill="#fce2e0" fill-rule="nonzero" opacity="1" stroke="#000000" stroke-linecap="butt" stroke-linejoin="round" stroke-width="0.5" vectornator:layerName="Rectangle 2"/>
<g fill="#000000" opacity="1" stroke="none" vectornator:layerName="Text 1">
<path d="M53.2154 799.5L35.8823 799.5L35.8823 761.253L54.4609 761.253C59.1488 761.322 62.4702 762.68 64.4249 765.327C65.6012 766.953 66.1893 768.899 66.1893 771.165C66.1893 773.5 65.6012 775.377 64.4249 776.796C63.7675 777.591 62.7988 778.318 61.5187 778.975C63.4735 779.685 64.9482 780.809 65.9428 782.349C66.9375 783.888 67.4348 785.756 67.4348 787.953C67.4348 790.219 66.864 792.252 65.7223 794.051C64.9957 795.245 64.0876 796.248 62.9978 797.061C61.7696 797.995 60.3208 798.635 58.6515 798.981C56.9822 799.327 55.1702 799.5 53.2154 799.5ZM53.0338 782.66L43.511 782.66L43.511 792.857L52.9041 792.857C54.582 792.857 55.8881 792.632 56.8222 792.183C58.5174 791.352 59.3651 789.761 59.3651 787.408C59.3651 785.419 58.5434 784.052 56.9 783.309C55.9832 782.893 54.6945 782.677 53.0338 782.66ZM57.0038 775.369C58.0417 774.746 58.5607 773.63 58.5607 772.021C58.5607 770.24 57.8688 769.063 56.4849 768.492C55.2913 768.095 53.769 767.896 51.9181 767.896L43.511 767.896L43.511 776.329L52.9041 776.329C54.582 776.329 55.9486 776.009 57.0038 775.369Z"/>
<path d="M97.7419 791.197C97.5516 792.875 96.678 794.579 95.1211 796.308C92.6993 799.059 89.3088 800.434 84.9496 800.434C81.3515 800.434 78.1772 799.275 75.4268 796.957C72.6763 794.639 71.3011 790.868 71.3011 785.644C71.3011 780.748 72.5422 776.995 75.0246 774.383C77.5069 771.77 80.7288 770.464 84.6901 770.464C87.0427 770.464 89.1618 770.906 91.0473 771.788C92.9329 772.67 94.4897 774.063 95.7179 775.965C96.825 777.643 97.5429 779.589 97.8716 781.804C98.0619 783.101 98.1397 784.969 98.1051 787.408L78.7481 787.408C78.8519 790.245 79.7427 792.235 81.4207 793.376C82.4413 794.086 83.6695 794.44 85.1053 794.44C86.6276 794.44 87.8644 794.008 88.8158 793.143C89.3348 792.676 89.7932 792.027 90.191 791.197L97.7419 791.197ZM90.4246 782.53C90.3035 780.575 89.711 779.092 88.6472 778.08C87.5833 777.068 86.2643 776.562 84.6901 776.562C82.9776 776.562 81.6499 777.098 80.7071 778.171C79.7644 779.243 79.1719 780.697 78.9297 782.53L90.4246 782.53Z"/>
<path d="M111.079 804.456C111.875 805.131 113.215 805.468 115.101 805.468C117.765 805.468 119.547 804.577 120.446 802.795C121.034 801.654 121.328 799.734 121.328 797.035L121.328 795.219C120.619 796.43 119.858 797.338 119.045 797.943C117.575 799.068 115.663 799.63 113.311 799.63C109.678 799.63 106.776 798.354 104.605 795.802C102.434 793.251 101.349 789.796 101.349 785.436C101.349 781.233 102.395 777.7 104.488 774.837C106.581 771.974 109.548 770.542 113.388 770.542C114.807 770.542 116.044 770.758 117.099 771.191C118.898 771.935 120.351 773.301 121.458 775.291L121.458 771.217L128.646 771.217L128.646 798.047C128.646 801.697 128.032 804.447 126.803 806.298C124.693 809.481 120.645 811.073 114.66 811.073C111.044 811.073 108.095 810.363 105.812 808.945C103.528 807.527 102.265 805.407 102.023 802.588L110.067 802.588C110.275 803.453 110.612 804.075 111.079 804.456ZM109.834 789.847C110.837 792.235 112.636 793.428 115.231 793.428C116.961 793.428 118.422 792.775 119.616 791.469C120.809 790.163 121.406 788.083 121.406 785.229C121.406 782.547 120.84 780.506 119.707 779.105C118.574 777.704 117.056 777.003 115.153 777.003C112.558 777.003 110.768 778.223 109.782 780.662C109.263 781.959 109.003 783.559 109.003 785.462C109.003 787.106 109.28 788.567 109.834 789.847Z"/>
<path d="M143.15 771.217L143.15 799.5L135.652 799.5L135.652 771.217L143.15 771.217ZM143.15 761.019L143.15 767.844L135.652 767.844L135.652 761.019L143.15 761.019Z"/>
<path d="M163.623 776.692C161.115 776.692 159.394 777.756 158.46 779.883C157.975 781.008 157.733 782.444 157.733 784.191L157.733 799.5L150.364 799.5L150.364 771.269L157.5 771.269L157.5 775.395C158.451 773.941 159.351 772.895 160.198 772.255C161.72 771.113 163.649 770.542 165.985 770.542C168.908 770.542 171.3 771.308 173.159 772.839C175.019 774.37 175.948 776.908 175.948 780.454L175.948 799.5L168.372 799.5L168.372 782.297C168.372 780.809 168.173 779.667 167.775 778.872C167.048 777.418 165.665 776.692 163.623 776.692Z"/>
<path d="M196.084 776.692C193.576 776.692 191.854 777.756 190.92 779.883C190.436 781.008 190.194 782.444 190.194 784.191L190.194 799.5L182.825 799.5L182.825 771.269L189.96 771.269L189.96 775.395C190.912 773.941 191.811 772.895 192.659 772.255C194.181 771.113 196.11 770.542 198.445 770.542C201.369 770.542 203.76 771.308 205.62 772.839C207.479 774.37 208.409 776.908 208.409 780.454L208.409 799.5L200.832 799.5L200.832 782.297C200.832 780.809 200.633 779.667 200.236 778.872C199.509 777.418 198.125 776.692 196.084 776.692Z"/>
<path d="M222.836 771.217L222.836 799.5L215.337 799.5L215.337 771.217L222.836 771.217ZM222.836 761.019L222.836 767.844L215.337 767.844L215.337 761.019L222.836 761.019Z"/>
<path d="M243.309 776.692C240.801 776.692 239.079 777.756 238.145 779.883C237.661 781.008 237.419 782.444 237.419 784.191L237.419 799.5L230.05 799.5L230.05 771.269L237.185 771.269L237.185 775.395C238.137 773.941 239.036 772.895 239.884 772.255C241.406 771.113 243.335 770.542 245.67 770.542C248.594 770.542 250.985 771.308 252.845 772.839C254.704 774.37 255.634 776.908 255.634 780.454L255.634 799.5L248.057 799.5L248.057 782.297C248.057 780.809 247.858 779.667 247.461 778.872C246.734 777.418 245.35 776.692 243.309 776.692Z"/>
<path d="M270.45 804.456C271.246 805.131 272.587 805.468 274.472 805.468C277.136 805.468 278.918 804.577 279.817 802.795C280.406 801.654 280.7 799.734 280.7 797.035L280.7 795.219C279.99 796.43 279.229 797.338 278.416 797.943C276.946 799.068 275.034 799.63 272.682 799.63C269.049 799.63 266.147 798.354 263.976 795.802C261.805 793.251 260.72 789.796 260.72 785.436C260.72 781.233 261.766 777.7 263.86 774.837C265.953 771.974 268.919 770.542 272.76 770.542C274.178 770.542 275.415 770.758 276.47 771.191C278.269 771.935 279.722 773.301 280.829 775.291L280.829 771.217L288.017 771.217L288.017 798.047C288.017 801.697 287.403 804.447 286.175 806.298C284.064 809.481 280.016 811.073 274.031 811.073C270.416 811.073 267.466 810.363 265.183 808.945C262.9 807.527 261.637 805.407 261.395 802.588L269.438 802.588C269.646 803.453 269.983 804.075 270.45 804.456ZM269.205 789.847C270.208 792.235 272.007 793.428 274.602 793.428C276.332 793.428 277.794 792.775 278.987 791.469C280.181 790.163 280.778 788.083 280.778 785.229C280.778 782.547 280.211 780.506 279.078 779.105C277.945 777.704 276.427 777.003 274.524 777.003C271.929 777.003 270.139 778.223 269.153 780.662C268.634 781.959 268.375 783.559 268.375 785.462C268.375 787.106 268.651 788.567 269.205 789.847Z"/>
<path d="M333.27 774.798C335.657 777.79 336.851 781.328 336.851 785.41C336.851 789.562 335.657 793.113 333.27 796.062C330.883 799.011 327.259 800.486 322.398 800.486C317.537 800.486 313.913 799.011 311.526 796.062C309.138 793.113 307.945 789.562 307.945 785.41C307.945 781.328 309.138 777.79 311.526 774.798C313.913 771.805 317.537 770.309 322.398 770.309C327.259 770.309 330.883 771.805 333.27 774.798ZM322.372 776.562C320.21 776.562 318.545 777.328 317.377 778.859C316.209 780.389 315.625 782.573 315.625 785.41C315.625 788.247 316.209 790.436 317.377 791.975C318.545 793.515 320.21 794.284 322.372 794.284C324.534 794.284 326.195 793.515 327.354 791.975C328.513 790.436 329.092 788.247 329.092 785.41C329.092 782.573 328.513 780.389 327.354 778.859C326.195 777.328 324.534 776.562 322.372 776.562Z"/>
<path d="M355.403 761.019L355.403 767.039C354.988 766.987 354.292 766.948 353.315 766.923C352.337 766.897 351.663 767.113 351.291 767.571C350.919 768.03 350.733 768.536 350.733 769.089L350.733 771.476L355.585 771.476L355.585 776.692L350.733 776.692L350.733 799.5L343.364 799.5L343.364 776.692L339.238 776.692L339.238 771.476L343.286 771.476L343.286 769.66C343.286 766.633 343.796 764.548 344.817 763.407C345.889 761.711 348.475 760.864 352.575 760.864C353.042 760.864 353.466 760.877 353.847 760.903C354.227 760.929 354.746 760.968 355.403 761.019Z"/>
<path d="M387.553 794.233L387.553 799.759L384.05 799.889C380.555 800.01 378.168 799.405 376.888 798.073C376.058 797.225 375.643 795.919 375.643 794.155L375.643 776.744L371.699 776.744L371.699 771.476L375.643 771.476L375.643 763.588L382.96 763.588L382.96 771.476L387.553 771.476L387.553 776.744L382.96 776.744L382.96 791.69C382.96 792.849 383.107 793.571 383.401 793.856C383.695 794.142 384.595 794.284 386.1 794.284C386.325 794.284 386.562 794.28 386.813 794.272C387.064 794.263 387.311 794.25 387.553 794.233Z"/>
<path d="M417.86 782.893L417.86 799.5L410.309 799.5L410.309 782.297C410.309 780.774 410.049 779.546 409.53 778.612C408.856 777.297 407.576 776.64 405.69 776.64C403.735 776.64 402.252 777.293 401.24 778.599C400.228 779.905 399.722 781.769 399.722 784.191L399.722 799.5L392.353 799.5L392.353 761.383L399.722 761.383L399.722 774.901C400.795 773.258 402.036 772.112 403.446 771.463C404.856 770.815 406.339 770.49 407.896 770.49C409.643 770.49 411.23 770.793 412.657 771.399C414.084 772.004 415.256 772.929 416.173 774.175C416.952 775.23 417.427 776.316 417.6 777.431C417.773 778.547 417.86 780.368 417.86 782.893Z"/>
<path d="M448.971 791.197C448.781 792.875 447.907 794.579 446.35 796.308C443.929 799.059 440.538 800.434 436.179 800.434C432.581 800.434 429.406 799.275 426.656 796.957C423.906 794.639 422.53 790.868 422.53 785.644C422.53 780.748 423.772 776.995 426.254 774.383C428.736 771.77 431.958 770.464 435.919 770.464C438.272 770.464 440.391 770.906 442.277 771.788C444.162 772.67 445.719 774.063 446.947 775.965C448.054 777.643 448.772 779.589 449.101 781.804C449.291 783.101 449.369 784.969 449.334 787.408L429.977 787.408C430.081 790.245 430.972 792.235 432.65 793.376C433.671 794.086 434.899 794.44 436.335 794.44C437.857 794.44 439.094 794.008 440.045 793.143C440.564 792.676 441.022 792.027 441.42 791.197L448.971 791.197ZM441.654 782.53C441.533 780.575 440.94 779.092 439.876 778.08C438.813 777.068 437.494 776.562 435.919 776.562C434.207 776.562 432.879 777.098 431.936 778.171C430.994 779.243 430.401 780.697 430.159 782.53L441.654 782.53Z"/>
<path d="M496.3 782.79L477.721 782.79L477.721 792.624L498.895 792.624L498.895 799.5L469.911 799.5L469.911 761.253L497.961 761.253L497.961 768.025L477.721 768.025L477.721 776.147L496.3 776.147L496.3 782.79Z"/>
<path d="M517.837 776.692C515.328 776.692 513.607 777.756 512.673 779.883C512.189 781.008 511.946 782.444 511.946 784.191L511.946 799.5L504.577 799.5L504.577 771.269L511.713 771.269L511.713 775.395C512.664 773.941 513.564 772.895 514.411 772.255C515.934 771.113 517.863 770.542 520.198 770.542C523.121 770.542 525.513 771.308 527.372 772.839C529.232 774.37 530.162 776.908 530.162 780.454L530.162 799.5L522.585 799.5L522.585 782.297C522.585 780.809 522.386 779.667 521.988 778.872C521.262 777.418 519.878 776.692 517.837 776.692Z"/>
<path d="M562.726 761.305L562.726 799.5L555.539 799.5L555.539 795.582C554.483 797.26 553.281 798.479 551.932 799.241C550.583 800.002 548.905 800.382 546.898 800.382C543.594 800.382 540.813 799.046 538.556 796.373C536.298 793.701 535.17 790.271 535.17 786.085C535.17 781.259 536.281 777.462 538.504 774.694C540.727 771.926 543.698 770.542 547.417 770.542C549.13 770.542 550.652 770.919 551.984 771.671C553.316 772.423 554.397 773.466 555.227 774.798L555.227 761.305L562.726 761.305ZM542.798 785.54C542.798 788.152 543.317 790.237 544.355 791.794C545.376 793.368 546.933 794.155 549.026 794.155C551.119 794.155 552.71 793.376 553.8 791.819C554.89 790.263 555.435 788.247 555.435 785.774C555.435 782.314 554.561 779.84 552.814 778.353C551.742 777.453 550.496 777.003 549.078 777.003C546.915 777.003 545.328 777.821 544.316 779.455C543.304 781.09 542.798 783.118 542.798 785.54Z"/>
</g>
</g>
</svg>
