<?xml version="1.0" encoding="UTF-8" standalone="no"?>
<!DOCTYPE svg PUBLIC "-//W3C//DTD SVG 1.1//EN" "http://www.w3.org/Graphics/SVG/1.1/DTD/svg11.dtd">
<!-- Created with Vectornator (http://vectornator.io/) -->
<svg height="100%" stroke-miterlimit="10" style="fill-rule:nonzero;clip-rule:evenodd;stroke-linecap:round;stroke-linejoin:round;" version="1.1" viewBox="0 0 600 966" width="100%" xml:space="preserve" xmlns="http://www.w3.org/2000/svg" xmlns:vectornator="http://vectornator.io" xmlns:xlink="http://www.w3.org/1999/xlink">
<defs>
<filter color-interpolation-filters="sRGB" filterUnits="userSpaceOnUse" height="970.5" id="Filter" width="550.5" x="29.1642" y="-1.1862">
<feDropShadow dx="4.41425" dy="4.0638" flood-color="#000000" flood-opacity="0.2" in="SourceGraphic" result="Shadow" stdDeviation="2"/>
</filter>
</defs>
<clipPath id="ArtboardFrame">
<rect height="966" width="600" x="0" y="0"/>
</clipPath>
<g clip-path="url(#ArtboardFrame)" id="Layer-1" vectornator:layerName="Layer 1">
<path d="M30 0L570 2.71682e-14L570 960L30 960L30 0Z" fill="#a65628" fill-rule="nonzero" filter="url(#Filter)" stroke="#ffffff" stroke-linecap="butt" stroke-linejoin="round" stroke-width="0.5" vectornator:layerName="Rectangle 1" vectornator:shadowAngle="0.744085" vectornator:shadowColor="#000000" vectornator:shadowOffset="6" vectornator:shadowOpacity="0.2" vectornator:shadowRadius="4"/>
<g opacity="1" vectornator:layerName="Group 1">
<g fill="#000000" opacity="1" stroke="none" vectornator:layerName="Text 1">
<path d="M275.597 363.328L269.304 363.328L269.304 366.66L276.476 366.66L276.476 368.989L266.659 368.989L266.659 356.034L276.159 356.034L276.159 358.327L269.304 358.327L269.304 361.078L275.597 361.078L275.597 363.328Z"/>
<path d="M278.436 356.034L280.941 356.034L280.941 368.989L278.436 368.989L278.436 356.034Z"/>
<path d="M291.584 366.176C291.52 366.744 291.224 367.322 290.697 367.908C289.876 368.839 288.728 369.305 287.251 369.305C286.033 369.305 284.957 368.912 284.026 368.127C283.094 367.342 282.628 366.065 282.628 364.295C282.628 362.637 283.049 361.366 283.889 360.481C284.73 359.596 285.822 359.154 287.163 359.154C287.96 359.154 288.678 359.303 289.317 359.602C289.955 359.901 290.483 360.372 290.899 361.017C291.274 361.585 291.517 362.244 291.628 362.994C291.693 363.434 291.719 364.067 291.707 364.893L285.151 364.893C285.186 365.854 285.488 366.528 286.056 366.914C286.402 367.155 286.818 367.275 287.304 367.275C287.82 367.275 288.239 367.128 288.561 366.835C288.737 366.677 288.892 366.457 289.027 366.176L291.584 366.176ZM289.106 363.241C289.065 362.578 288.864 362.076 288.504 361.733C288.143 361.39 287.697 361.219 287.163 361.219C286.583 361.219 286.134 361.401 285.814 361.764C285.495 362.127 285.294 362.619 285.212 363.241L289.106 363.241Z"/>
<path d="M301.683 362.845L299.117 362.845C299.07 362.488 298.95 362.165 298.756 361.878C298.475 361.492 298.038 361.298 297.447 361.298C296.603 361.298 296.026 361.717 295.715 362.555C295.551 363 295.469 363.592 295.469 364.33C295.469 365.034 295.551 365.599 295.715 366.027C296.014 366.824 296.576 367.222 297.403 367.222C297.989 367.222 298.405 367.064 298.651 366.747C298.897 366.431 299.046 366.021 299.099 365.517L301.657 365.517C301.598 366.279 301.323 366.999 300.83 367.679C300.045 368.775 298.882 369.323 297.341 369.323C295.8 369.323 294.666 368.866 293.94 367.952C293.213 367.037 292.85 365.851 292.85 364.392C292.85 362.745 293.251 361.465 294.054 360.551C294.857 359.637 295.964 359.18 297.376 359.18C298.577 359.18 299.56 359.45 300.325 359.989C301.09 360.528 301.542 361.48 301.683 362.845Z"/>
<path d="M307.791 367.204L307.791 369.077L306.605 369.12C305.421 369.161 304.613 368.956 304.179 368.505C303.898 368.218 303.757 367.776 303.757 367.178L303.757 361.281L302.421 361.281L302.421 359.496L303.757 359.496L303.757 356.825L306.236 356.825L306.236 359.496L307.791 359.496L307.791 361.281L306.236 361.281L306.236 366.343C306.236 366.736 306.285 366.98 306.385 367.077C306.485 367.174 306.789 367.222 307.299 367.222C307.375 367.222 307.456 367.221 307.541 367.218C307.626 367.215 307.709 367.21 307.791 367.204Z"/>
<path d="M311.975 359.409L311.975 368.989L309.435 368.989L309.435 359.409L311.975 359.409ZM311.975 355.954L311.975 358.266L309.435 358.266L309.435 355.954L311.975 355.954Z"/>
<path d="M322.39 360.621C323.199 361.635 323.603 362.833 323.603 364.216C323.603 365.622 323.199 366.825 322.39 367.824C321.581 368.823 320.354 369.323 318.707 369.323C317.061 369.323 315.833 368.823 315.025 367.824C314.216 366.825 313.812 365.622 313.812 364.216C313.812 362.833 314.216 361.635 315.025 360.621C315.833 359.608 317.061 359.101 318.707 359.101C320.354 359.101 321.581 359.608 322.39 360.621ZM318.699 361.219C317.966 361.219 317.402 361.478 317.007 361.997C316.611 362.515 316.413 363.255 316.413 364.216C316.413 365.177 316.611 365.918 317.007 366.44C317.402 366.961 317.966 367.222 318.699 367.222C319.431 367.222 319.993 366.961 320.386 366.44C320.779 365.918 320.975 365.177 320.975 364.216C320.975 363.255 320.779 362.515 320.386 361.997C319.993 361.478 319.431 361.219 318.699 361.219Z"/>
<path d="M329.905 361.263C329.055 361.263 328.472 361.623 328.156 362.344C327.992 362.725 327.909 363.211 327.909 363.803L327.909 368.989L325.413 368.989L325.413 359.426L327.83 359.426L327.83 360.824C328.153 360.331 328.457 359.977 328.744 359.76C329.26 359.373 329.913 359.18 330.704 359.18C331.695 359.18 332.505 359.439 333.135 359.958C333.764 360.476 334.079 361.336 334.079 362.537L334.079 368.989L331.513 368.989L331.513 363.161C331.513 362.658 331.446 362.271 331.311 362.001C331.065 361.509 330.596 361.263 329.905 361.263Z"/>
<path d="M274.577 385.909L271.783 385.909L271.783 390.989L269.137 390.989L269.137 378.034L275.492 378.034C276.4 378.051 277.098 378.162 277.588 378.368C278.077 378.573 278.492 378.874 278.831 379.273C279.113 379.601 279.335 379.964 279.499 380.363C279.663 380.761 279.745 381.215 279.745 381.725C279.745 382.34 279.59 382.945 279.28 383.54C278.969 384.135 278.456 384.555 277.742 384.801C278.339 385.041 278.763 385.383 279.012 385.825C279.261 386.267 279.385 386.943 279.385 387.851L279.385 388.721C279.385 389.313 279.409 389.714 279.455 389.925C279.526 390.259 279.69 390.505 279.948 390.663L279.948 390.989L276.968 390.989C276.886 390.702 276.827 390.47 276.792 390.294C276.722 389.931 276.684 389.559 276.678 389.178L276.66 387.974C276.649 387.148 276.498 386.597 276.208 386.322C275.918 386.046 275.374 385.909 274.577 385.909ZM276.221 383.553C276.76 383.307 277.03 382.821 277.03 382.094C277.03 381.309 276.769 380.782 276.247 380.512C275.954 380.36 275.515 380.284 274.929 380.284L271.783 380.284L271.783 383.764L274.85 383.764C275.459 383.764 275.916 383.694 276.221 383.553Z"/>
<path d="M290.073 388.176C290.008 388.744 289.712 389.322 289.185 389.908C288.365 390.839 287.216 391.305 285.74 391.305C284.521 391.305 283.446 390.912 282.514 390.127C281.582 389.342 281.117 388.065 281.117 386.295C281.117 384.637 281.537 383.366 282.378 382.481C283.219 381.596 284.31 381.154 285.652 381.154C286.449 381.154 287.166 381.303 287.805 381.602C288.444 381.901 288.971 382.372 289.387 383.017C289.762 383.585 290.005 384.244 290.117 384.994C290.181 385.434 290.207 386.067 290.196 386.893L283.639 386.893C283.674 387.854 283.976 388.528 284.544 388.914C284.89 389.155 285.306 389.275 285.792 389.275C286.308 389.275 286.727 389.128 287.049 388.835C287.225 388.677 287.38 388.457 287.515 388.176L290.073 388.176ZM287.594 385.241C287.553 384.578 287.352 384.076 286.992 383.733C286.632 383.39 286.185 383.219 285.652 383.219C285.072 383.219 284.622 383.401 284.303 383.764C283.983 384.127 283.783 384.619 283.7 385.241L287.594 385.241Z"/>
<path d="M298.484 381.848C299.234 382.328 299.664 383.155 299.776 384.327L297.271 384.327C297.236 384.004 297.145 383.749 296.998 383.562C296.723 383.222 296.254 383.052 295.592 383.052C295.047 383.052 294.659 383.137 294.428 383.307C294.196 383.477 294.08 383.676 294.08 383.905C294.08 384.192 294.203 384.4 294.45 384.529C294.696 384.663 295.566 384.895 297.06 385.223C298.056 385.457 298.803 385.812 299.301 386.286C299.793 386.767 300.039 387.368 300.039 388.088C300.039 389.037 299.686 389.812 298.98 390.413C298.274 391.014 297.183 391.314 295.706 391.314C294.2 391.314 293.089 390.996 292.371 390.36C291.653 389.724 291.294 388.914 291.294 387.93L293.834 387.93C293.887 388.375 294.001 388.692 294.177 388.879C294.488 389.213 295.062 389.38 295.9 389.38C296.392 389.38 296.783 389.307 297.073 389.161C297.363 389.014 297.508 388.794 297.508 388.501C297.508 388.22 297.391 388.006 297.157 387.86C296.922 387.713 296.052 387.461 294.546 387.104C293.462 386.834 292.698 386.497 292.252 386.093C291.807 385.695 291.584 385.12 291.584 384.37C291.584 383.486 291.931 382.725 292.626 382.09C293.32 381.454 294.297 381.136 295.557 381.136C296.752 381.136 297.728 381.373 298.484 381.848Z"/>
<path d="M308.037 389.635C308.014 389.664 307.955 389.752 307.862 389.899C307.768 390.045 307.657 390.174 307.528 390.286C307.135 390.637 306.756 390.877 306.389 391.006C306.023 391.135 305.594 391.2 305.102 391.2C303.684 391.2 302.729 390.69 302.237 389.67C301.961 389.108 301.824 388.279 301.824 387.183L301.824 381.409L304.39 381.409L304.39 387.183C304.39 387.728 304.454 388.138 304.583 388.413C304.812 388.9 305.26 389.143 305.928 389.143C306.784 389.143 307.369 388.797 307.686 388.106C307.85 387.731 307.932 387.236 307.932 386.62L307.932 381.409L310.472 381.409L310.472 390.989L308.037 390.989L308.037 389.635Z"/>
<path d="M312.942 378.034L315.447 378.034L315.447 390.989L312.942 390.989L312.942 378.034Z"/>
<path d="M322.276 389.204L322.276 391.077L321.089 391.12C319.906 391.161 319.097 390.956 318.663 390.505C318.382 390.218 318.242 389.776 318.242 389.178L318.242 383.281L316.906 383.281L316.906 381.496L318.242 381.496L318.242 378.825L320.72 378.825L320.72 381.496L322.276 381.496L322.276 383.281L320.72 383.281L320.72 388.343C320.72 388.736 320.77 388.98 320.869 389.077C320.969 389.174 321.274 389.222 321.784 389.222C321.86 389.222 321.94 389.221 322.025 389.218C322.11 389.215 322.194 389.21 322.276 389.204Z"/>
<path d="M330.485 381.848C331.235 382.328 331.665 383.155 331.777 384.327L329.272 384.327C329.237 384.004 329.146 383.749 328.999 383.562C328.724 383.222 328.255 383.052 327.593 383.052C327.048 383.052 326.66 383.137 326.429 383.307C326.197 383.477 326.081 383.676 326.081 383.905C326.081 384.192 326.204 384.4 326.45 384.529C326.697 384.663 327.567 384.895 329.061 385.223C330.057 385.457 330.804 385.812 331.302 386.286C331.794 386.767 332.04 387.368 332.04 388.088C332.04 389.037 331.687 389.812 330.981 390.413C330.275 391.014 329.184 391.314 327.707 391.314C326.201 391.314 325.09 390.996 324.372 390.36C323.654 389.724 323.295 388.914 323.295 387.93L325.835 387.93C325.888 388.375 326.002 388.692 326.178 388.879C326.489 389.213 327.063 389.38 327.901 389.38C328.393 389.38 328.784 389.307 329.074 389.161C329.364 389.014 329.509 388.794 329.509 388.501C329.509 388.22 329.392 388.006 329.158 387.86C328.923 387.713 328.053 387.461 326.547 387.104C325.463 386.834 324.699 386.497 324.253 386.093C323.808 385.695 323.585 385.12 323.585 384.37C323.585 383.486 323.932 382.725 324.627 382.09C325.321 381.454 326.298 381.136 327.558 381.136C328.753 381.136 329.729 381.373 330.485 381.848Z"/>
</g>
<path d="M250.215 373.989C250.215 346.374 272.601 323.989 300.215 323.989C327.829 323.989 350.215 346.374 350.215 373.989C350.215 401.603 327.829 423.989 300.215 423.989C272.601 423.989 250.215 401.603 250.215 373.989Z" fill="none" opacity="1" stroke="#000000" stroke-linecap="butt" stroke-linejoin="round" stroke-width="5" vectornator:layerName="Oval 1"/>
<path d="M414.453 358.989C414.453 350.704 421.169 343.989 429.453 343.989C437.737 343.989 444.453 350.704 444.453 358.989C444.453 367.273 437.737 373.989 429.453 373.989C421.169 373.989 414.453 367.273 414.453 358.989Z" fill="none" opacity="1" stroke="#000000" stroke-linecap="butt" stroke-linejoin="round" stroke-width="4" vectornator:layerName="Oval 3"/>
<path d="M504.517 401.508C504.517 393.224 511.232 386.508 519.517 386.508C527.801 386.508 534.517 393.224 534.517 401.508C534.517 409.792 527.801 416.508 519.517 416.508C511.232 416.508 504.517 409.792 504.517 401.508Z" fill="none" opacity="1" stroke="#000000" stroke-linecap="butt" stroke-linejoin="round" stroke-width="4" vectornator:layerName="Oval 5"/>
<path d="M209.921 570.91C209.921 562.626 216.637 555.91 224.921 555.91C233.206 555.91 239.921 562.626 239.921 570.91C239.921 579.194 233.206 585.91 224.921 585.91C216.637 585.91 209.921 579.194 209.921 570.91Z" fill="none" opacity="1" stroke="#000000" stroke-linecap="butt" stroke-linejoin="round" stroke-width="4" vectornator:layerName="Oval 15"/>
<path d="M463.884 487.759C463.884 473.952 475.077 462.759 488.884 462.759C502.692 462.759 513.884 473.952 513.884 487.759C513.884 501.566 502.692 512.759 488.884 512.759C475.077 512.759 463.884 501.566 463.884 487.759Z" fill="none" opacity="1" stroke="#000000" stroke-linecap="butt" stroke-linejoin="round" stroke-width="4" vectornator:layerName="Oval 6"/>
<path d="M342.639 266.894C342.639 253.087 353.831 241.894 367.639 241.894C381.446 241.894 392.639 253.087 392.639 266.894C392.639 280.701 381.446 291.894 367.639 291.894C353.831 291.894 342.639 280.701 342.639 266.894Z" fill="none" opacity="1" stroke="#000000" stroke-linecap="butt" stroke-linejoin="round" stroke-width="4" vectornator:layerName="Oval 11"/>
<path d="M275 497.017C275 483.21 286.193 472.017 300 472.017C313.807 472.017 325 483.21 325 497.017C325 510.824 313.807 522.017 300 522.017C286.193 522.017 275 510.824 275 497.017Z" fill="none" opacity="1" stroke="#000000" stroke-linecap="butt" stroke-linejoin="round" stroke-width="4" vectornator:layerName="Oval 12"/>
<path d="M65.4834 369.079C65.4834 360.795 72.1991 354.079 80.4834 354.079C88.7677 354.079 95.4834 360.795 95.4834 369.079C95.4834 377.364 88.7677 384.079 80.4834 384.079C72.1991 384.079 65.4834 377.364 65.4834 369.079Z" fill="none" opacity="1" stroke="#000000" stroke-linecap="butt" stroke-linejoin="round" stroke-width="4" vectornator:layerName="Oval 4"/>
<path d="M151.768 364.25C151.768 350.443 162.961 339.25 176.768 339.25C190.575 339.25 201.768 350.443 201.768 364.25C201.768 378.057 190.575 389.25 176.768 389.25C162.961 389.25 151.768 378.057 151.768 364.25Z" fill="none" opacity="1" stroke="#000000" stroke-linecap="butt" stroke-linejoin="round" stroke-width="4" vectornator:layerName="Oval 7"/>
<path d="M112.745 225.4C112.745 208.831 126.176 195.4 142.745 195.4C159.313 195.4 172.745 208.831 172.745 225.4C172.745 241.968 159.313 255.4 142.745 255.4C126.176 255.4 112.745 241.968 112.745 225.4Z" fill="none" opacity="1" stroke="#000000" stroke-linecap="butt" stroke-linejoin="round" stroke-width="4" vectornator:layerName="Oval 8"/>
<path d="M434.828 214.739C434.828 198.17 448.259 184.739 464.828 184.739C481.396 184.739 494.828 198.17 494.828 214.739C494.828 231.307 481.396 244.739 464.828 244.739C448.259 244.739 434.828 231.307 434.828 214.739Z" fill="none" opacity="1" stroke="#000000" stroke-linecap="butt" stroke-linejoin="round" stroke-width="4" vectornator:layerName="Oval 9"/>
<path d="M84.2497 509.862C84.2497 493.293 97.6812 479.862 114.25 479.862C130.818 479.862 144.25 493.293 144.25 509.862C144.25 526.43 130.818 539.862 114.25 539.862C97.6812 539.862 84.2497 526.43 84.2497 509.862Z" fill="none" opacity="1" stroke="#000000" stroke-linecap="butt" stroke-linejoin="round" stroke-width="4" vectornator:layerName="Oval 14"/>
<path d="M250.215 210.4C250.215 202.115 256.931 195.4 265.215 195.4C273.499 195.4 280.215 202.115 280.215 210.4C280.215 218.684 273.499 225.4 265.215 225.4C256.931 225.4 250.215 218.684 250.215 210.4Z" fill="none" opacity="1" stroke="#000000" stroke-linecap="butt" stroke-linejoin="round" stroke-width="4" vectornator:layerName="Oval 2"/>
<path d="M387.81 570.91C387.81 562.626 394.526 555.91 402.81 555.91C411.094 555.91 417.81 562.626 417.81 570.91C417.81 579.194 411.094 585.91 402.81 585.91C394.526 585.91 387.81 579.194 387.81 570.91Z" fill="none" opacity="1" stroke="#000000" stroke-linecap="butt" stroke-linejoin="round" stroke-width="4" vectornator:layerName="Oval 13"/>
<path d="M324.815 159.465C324.815 151.181 331.531 144.465 339.815 144.465C348.099 144.465 354.815 151.181 354.815 159.465C354.815 167.75 348.099 174.465 339.815 174.465C331.531 174.465 324.815 167.75 324.815 159.465Z" fill="none" opacity="1" stroke="#000000" stroke-linecap="butt" stroke-linejoin="round" stroke-width="4" vectornator:layerName="Oval 10"/>
<path d="M275.695 498.309L144.835 511.611" fill="none" opacity="1" stroke="#000000" stroke-linecap="butt" stroke-linejoin="round" stroke-width="4" vectornator:layerName="Line 12"/>
<path d="M505.684 392.639L441.701 365.188" fill="none" opacity="1" stroke="#000000" stroke-linecap="butt" stroke-linejoin="round" stroke-width="4" vectornator:layerName="Line 17"/>
<path d="M479.611 462.759L435.444 371.367" fill="none" opacity="1" stroke="#000000" stroke-linecap="butt" stroke-linejoin="round" stroke-width="4" vectornator:layerName="Line 16"/>
<path d="M325.477 498.1L467.457 498.1" fill="none" opacity="1" stroke="#000000" stroke-linecap="butt" stroke-linejoin="round" stroke-width="4" vectornator:layerName="Line 15"/>
<path d="M321.772 510.962L390.079 564.255" fill="none" opacity="1" stroke="#000000" stroke-linecap="butt" stroke-linejoin="round" stroke-width="4" vectornator:layerName="Line 14"/>
<path d="M282.691 515.891L236.837 562.054" fill="none" opacity="1" stroke="#000000" stroke-linecap="butt" stroke-linejoin="round" stroke-width="4" vectornator:layerName="Line 13"/>
<path d="M300.215 423.316L300.215 472.749" fill="none" opacity="1" stroke="#000000" stroke-linecap="butt" stroke-linejoin="round" stroke-width="4" vectornator:layerName="Line 11"/>
<path d="M169.581 386.51L125.288 482.032" fill="none" opacity="1" stroke="#000000" stroke-linecap="butt" stroke-linejoin="round" stroke-width="4" vectornator:layerName="Line 10"/>
<path d="M151.265 365.188L95.0464 369.588" fill="none" opacity="1" stroke="#000000" stroke-linecap="butt" stroke-linejoin="round" stroke-width="4" vectornator:layerName="Line 9"/>
<path d="M169.379 341.405L148.242 254.296" fill="none" opacity="1" stroke="#000000" stroke-linecap="butt" stroke-linejoin="round" stroke-width="4" vectornator:layerName="Line 8"/>
<path d="M249.1 373.989L202.003 365.188" fill="none" opacity="1" stroke="#000000" stroke-linecap="butt" stroke-linejoin="round" stroke-width="4" vectornator:layerName="Line 7"/>
<path d="M413.712 365.188L352.521 373.989" fill="none" opacity="1" stroke="#000000" stroke-linecap="butt" stroke-linejoin="round" stroke-width="4" vectornator:layerName="Line 6"/>
<path d="M434.415 344.546L458.966 243.437" fill="none" opacity="1" stroke="#000000" stroke-linecap="butt" stroke-linejoin="round" stroke-width="4" vectornator:layerName="Line 5"/>
<path d="M387.339 251.663L440.085 232.588" fill="none" opacity="1" stroke="#000000" stroke-linecap="butt" stroke-linejoin="round" stroke-width="4" vectornator:layerName="Line 4"/>
<path d="M363.113 243.437L341.928 173.975" fill="none" opacity="1" stroke="#000000" stroke-linecap="butt" stroke-linejoin="round" stroke-width="4" vectornator:layerName="Line 3"/>
<path d="M327.317 332.994L356.538 288.574" fill="none" opacity="1" stroke="#000000" stroke-linecap="butt" stroke-linejoin="round" stroke-width="4" vectornator:layerName="Line 2"/>
<path d="M289.461 323.767L267.837 224.512" fill="none" opacity="1" stroke="#000000" stroke-linecap="butt" stroke-linejoin="round" stroke-width="4" vectornator:layerName="Line 1"/>
</g>
<path d="M0 688C0 688 150 708 300 708C450 708 600 688 600 688L600 848C600 848 450 868 300 868C150 868 0 848 0 848L0 688Z" fill="#f2e6df" fill-rule="nonzero" opacity="1" stroke="#000000" stroke-linecap="butt" stroke-linejoin="round" stroke-width="0.5" vectornator:layerName="Rectangle 2"/>
<g fill="#000000" opacity="1" stroke="none" vectornator:layerName="Text 1">
<path d="M103.627 796.646C100.773 799.258 97.1229 800.564 92.6772 800.564C87.1762 800.564 82.8516 798.799 79.7033 795.271C76.5549 791.724 74.9808 786.863 74.9808 780.688C74.9808 774.011 76.7712 768.864 80.352 765.249C83.4657 762.101 87.4271 760.526 92.236 760.526C98.6711 760.526 103.376 762.637 106.352 766.858C107.995 769.228 108.877 771.606 108.998 773.993L101.006 773.993C100.487 772.16 99.8215 770.776 99.0084 769.842C97.5553 768.181 95.4017 767.351 92.5474 767.351C89.6413 767.351 87.3492 768.523 85.6713 770.867C83.9933 773.211 83.1543 776.528 83.1543 780.818C83.1543 785.108 84.0409 788.321 85.814 790.457C87.5871 792.594 89.8402 793.662 92.5734 793.662C95.3757 793.662 97.5121 792.745 98.9825 790.911C99.7955 789.925 100.47 788.446 101.006 786.474L108.92 786.474C108.229 790.643 106.464 794.034 103.627 796.646Z"/>
<path d="M138.008 774.798C140.395 777.79 141.589 781.328 141.589 785.41C141.589 789.562 140.395 793.113 138.008 796.062C135.621 799.011 131.997 800.486 127.136 800.486C122.275 800.486 118.651 799.011 116.264 796.062C113.877 793.113 112.683 789.562 112.683 785.41C112.683 781.328 113.877 777.79 116.264 774.798C118.651 771.805 122.275 770.309 127.136 770.309C131.997 770.309 135.621 771.805 138.008 774.798ZM127.11 776.562C124.948 776.562 123.283 777.328 122.115 778.859C120.947 780.389 120.363 782.573 120.363 785.41C120.363 788.247 120.947 790.436 122.115 791.975C123.283 793.515 124.948 794.284 127.11 794.284C129.272 794.284 130.933 793.515 132.092 791.975C133.251 790.436 133.83 788.247 133.83 785.41C133.83 782.573 133.251 780.389 132.092 778.859C130.933 777.328 129.272 776.562 127.11 776.562Z"/>
<path d="M161.101 778.041C158.126 778.041 156.128 779.01 155.108 780.947C154.537 782.037 154.251 783.715 154.251 785.981L154.251 799.5L146.804 799.5L146.804 771.217L153.862 771.217L153.862 776.147C155.004 774.261 155.998 772.973 156.846 772.281C158.23 771.122 160.029 770.542 162.243 770.542C162.382 770.542 162.498 770.547 162.593 770.555C162.689 770.564 162.901 770.577 163.229 770.594L163.229 778.171C162.762 778.119 162.347 778.084 161.984 778.067C161.62 778.05 161.326 778.041 161.101 778.041Z"/>
<path d="M181.782 778.041C178.807 778.041 176.809 779.01 175.788 780.947C175.217 782.037 174.932 783.715 174.932 785.981L174.932 799.5L167.485 799.5L167.485 771.217L174.542 771.217L174.542 776.147C175.684 774.261 176.679 772.973 177.526 772.281C178.91 771.122 180.709 770.542 182.924 770.542C183.062 770.542 183.179 770.547 183.274 770.555C183.369 770.564 183.581 770.577 183.91 770.594L183.91 778.171C183.443 778.119 183.027 778.084 182.664 778.067C182.301 778.05 182.007 778.041 181.782 778.041Z"/>
<path d="M212.452 791.197C212.262 792.875 211.388 794.579 209.831 796.308C207.41 799.059 204.019 800.434 199.66 800.434C196.062 800.434 192.888 799.275 190.137 796.957C187.387 794.639 186.011 790.868 186.011 785.644C186.011 780.748 187.253 776.995 189.735 774.383C192.217 771.77 195.439 770.464 199.4 770.464C201.753 770.464 203.872 770.906 205.758 771.788C207.643 772.67 209.2 774.063 210.428 775.965C211.535 777.643 212.253 779.589 212.582 781.804C212.772 783.101 212.85 784.969 212.815 787.408L193.458 787.408C193.562 790.245 194.453 792.235 196.131 793.376C197.152 794.086 198.38 794.44 199.816 794.44C201.338 794.44 202.575 794.008 203.526 793.143C204.045 792.676 204.503 792.027 204.901 791.197L212.452 791.197ZM205.135 782.53C205.014 780.575 204.421 779.092 203.357 778.08C202.294 777.068 200.975 776.562 199.4 776.562C197.688 776.562 196.36 777.098 195.417 778.171C194.475 779.243 193.882 780.697 193.64 782.53L205.135 782.53Z"/>
<path d="M217.953 761.253L225.348 761.253L225.348 799.5L217.953 799.5L217.953 761.253Z"/>
<path d="M233.626 774.279C235.58 771.788 238.936 770.542 243.693 770.542C246.79 770.542 249.54 771.156 251.945 772.385C254.349 773.613 255.551 775.931 255.551 779.339L255.551 792.312C255.551 793.212 255.569 794.302 255.603 795.582C255.655 796.551 255.802 797.208 256.044 797.554C256.287 797.9 256.65 798.185 257.134 798.41L257.134 799.5L249.09 799.5C248.866 798.929 248.71 798.393 248.623 797.891C248.537 797.39 248.468 796.819 248.416 796.179C247.395 797.286 246.219 798.229 244.887 799.007C243.295 799.924 241.496 800.382 239.49 800.382C236.93 800.382 234.815 799.651 233.146 798.19C231.476 796.728 230.642 794.656 230.642 791.975C230.642 788.498 231.982 785.981 234.663 784.424C236.134 783.577 238.296 782.971 241.15 782.608L243.667 782.297C245.034 782.124 246.011 781.907 246.599 781.648C247.655 781.198 248.182 780.498 248.182 779.546C248.182 778.387 247.78 777.587 246.976 777.146C246.171 776.705 244.991 776.484 243.434 776.484C241.687 776.484 240.45 776.917 239.723 777.782C239.204 778.422 238.858 779.287 238.685 780.376L231.55 780.376C231.705 777.903 232.397 775.87 233.626 774.279ZM239.126 794.155C239.818 794.726 240.666 795.011 241.669 795.011C243.261 795.011 244.727 794.544 246.068 793.61C247.408 792.676 248.104 790.972 248.156 788.498L248.156 785.748C247.689 786.042 247.218 786.28 246.742 786.461C246.266 786.643 245.613 786.812 244.783 786.967L243.122 787.279C241.566 787.555 240.45 787.893 239.775 788.291C238.633 788.965 238.063 790.012 238.063 791.43C238.063 792.693 238.417 793.601 239.126 794.155Z"/>
<path d="M275.064 794.233L275.064 799.759L271.561 799.889C268.067 800.01 265.68 799.405 264.4 798.073C263.569 797.225 263.154 795.919 263.154 794.155L263.154 776.744L259.21 776.744L259.21 771.476L263.154 771.476L263.154 763.588L270.471 763.588L270.471 771.476L275.064 771.476L275.064 776.744L270.471 776.744L270.471 791.69C270.471 792.849 270.618 793.571 270.913 793.856C271.207 794.142 272.106 794.284 273.611 794.284C273.836 794.284 274.074 794.28 274.325 794.272C274.575 794.263 274.822 794.25 275.064 794.233Z"/>
<path d="M304.022 791.197C303.832 792.875 302.958 794.579 301.401 796.308C298.979 799.059 295.589 800.434 291.23 800.434C287.632 800.434 284.457 799.275 281.707 796.957C278.956 794.639 277.581 790.868 277.581 785.644C277.581 780.748 278.822 776.995 281.305 774.383C283.787 771.77 287.009 770.464 290.97 770.464C293.323 770.464 295.442 770.906 297.327 771.788C299.213 772.67 300.77 774.063 301.998 775.965C303.105 777.643 303.823 779.589 304.152 781.804C304.342 783.101 304.42 784.969 304.385 787.408L285.028 787.408C285.132 790.245 286.023 792.235 287.701 793.376C288.721 794.086 289.95 794.44 291.385 794.44C292.908 794.44 294.144 794.008 295.096 793.143C295.615 792.676 296.073 792.027 296.471 791.197L304.022 791.197ZM296.705 782.53C296.584 780.575 295.991 779.092 294.927 778.08C293.863 777.068 292.544 776.562 290.97 776.562C289.258 776.562 287.93 777.098 286.987 778.171C286.044 779.243 285.452 780.697 285.21 782.53L296.705 782.53Z"/>
<path d="M335.107 761.305L335.107 799.5L327.92 799.5L327.92 795.582C326.865 797.26 325.662 798.479 324.313 799.241C322.964 800.002 321.286 800.382 319.279 800.382C315.975 800.382 313.194 799.046 310.937 796.373C308.68 793.701 307.551 790.271 307.551 786.085C307.551 781.259 308.662 777.462 310.885 774.694C313.108 771.926 316.079 770.542 319.798 770.542C321.511 770.542 323.033 770.919 324.365 771.671C325.697 772.423 326.778 773.466 327.608 774.798L327.608 761.305L335.107 761.305ZM315.179 785.54C315.179 788.152 315.698 790.237 316.736 791.794C317.757 793.368 319.314 794.155 321.407 794.155C323.5 794.155 325.092 793.376 326.181 791.819C327.271 790.263 327.816 788.247 327.816 785.774C327.816 782.314 326.942 779.84 325.195 778.353C324.123 777.453 322.877 777.003 321.459 777.003C319.297 777.003 317.709 777.821 316.697 779.455C315.685 781.09 315.179 783.118 315.179 785.54Z"/>
<path d="M383.811 782.79L365.233 782.79L365.233 792.624L386.406 792.624L386.406 799.5L357.422 799.5L357.422 761.253L385.472 761.253L385.472 768.025L365.233 768.025L365.233 776.147L383.811 776.147L383.811 782.79Z"/>
<path d="M389.26 771.217L397.564 771.217L403.454 792.079L409.474 771.217L417.414 771.217L407.216 799.5L399.406 799.5L389.26 771.217Z"/>
<path d="M445.801 791.197C445.61 792.875 444.737 794.579 443.18 796.308C440.758 799.059 437.368 800.434 433.008 800.434C429.41 800.434 426.236 799.275 423.486 796.957C420.735 794.639 419.36 790.868 419.36 785.644C419.36 780.748 420.601 776.995 423.083 774.383C425.566 771.77 428.788 770.464 432.749 770.464C435.101 770.464 437.221 770.906 439.106 771.788C440.992 772.67 442.549 774.063 443.777 775.965C444.884 777.643 445.602 779.589 445.93 781.804C446.121 783.101 446.198 784.969 446.164 787.408L426.807 787.408C426.911 790.245 427.802 792.235 429.479 793.376C430.5 794.086 431.728 794.44 433.164 794.44C434.686 794.44 435.923 794.008 436.875 793.143C437.394 792.676 437.852 792.027 438.25 791.197L445.801 791.197ZM438.483 782.53C438.362 780.575 437.77 779.092 436.706 778.08C435.642 777.068 434.323 776.562 432.749 776.562C431.036 776.562 429.709 777.098 428.766 778.171C427.823 779.243 427.231 780.697 426.988 782.53L438.483 782.53Z"/>
<path d="M464.457 776.692C461.949 776.692 460.228 777.756 459.293 779.883C458.809 781.008 458.567 782.444 458.567 784.191L458.567 799.5L451.198 799.5L451.198 771.269L458.333 771.269L458.333 775.395C459.285 773.941 460.184 772.895 461.032 772.255C462.554 771.113 464.483 770.542 466.818 770.542C469.742 770.542 472.133 771.308 473.993 772.839C475.852 774.37 476.782 776.908 476.782 780.454L476.782 799.5L469.206 799.5L469.206 782.297C469.206 780.809 469.007 779.667 468.609 778.872C467.882 777.418 466.498 776.692 464.457 776.692Z"/>
<path d="M496.555 794.233L496.555 799.759L493.052 799.889C489.557 800.01 487.17 799.405 485.89 798.073C485.06 797.225 484.644 795.919 484.644 794.155L484.644 776.744L480.7 776.744L480.7 771.476L484.644 771.476L484.644 763.588L491.962 763.588L491.962 771.476L496.555 771.476L496.555 776.744L491.962 776.744L491.962 791.69C491.962 792.849 492.109 793.571 492.403 793.856C492.697 794.142 493.596 794.284 495.101 794.284C495.326 794.284 495.564 794.28 495.815 794.272C496.066 794.263 496.312 794.25 496.555 794.233Z"/>
<path d="M520.79 772.514C523.004 773.933 524.275 776.372 524.604 779.832L517.209 779.832C517.105 778.88 516.837 778.128 516.405 777.574C515.592 776.571 514.208 776.069 512.253 776.069C510.644 776.069 509.498 776.32 508.815 776.822C508.132 777.323 507.79 777.911 507.79 778.586C507.79 779.434 508.153 780.048 508.88 780.428C509.606 780.826 512.175 781.51 516.586 782.478C519.527 783.17 521.733 784.217 523.203 785.618C524.656 787.036 525.382 788.81 525.382 790.937C525.382 793.74 524.34 796.027 522.256 797.8C520.171 799.574 516.949 800.46 512.59 800.46C508.145 800.46 504.862 799.522 502.743 797.645C500.624 795.768 499.564 793.376 499.564 790.47L507.063 790.47C507.219 791.785 507.556 792.719 508.075 793.273C508.992 794.259 510.687 794.752 513.161 794.752C514.614 794.752 515.769 794.535 516.625 794.103C517.481 793.67 517.91 793.022 517.91 792.157C517.91 791.326 517.564 790.695 516.872 790.263C516.18 789.83 513.611 789.086 509.165 788.031C505.965 787.235 503.707 786.241 502.393 785.047C501.078 783.871 500.421 782.176 500.421 779.961C500.421 777.349 501.446 775.105 503.496 773.228C505.545 771.351 508.43 770.413 512.149 770.413C515.678 770.413 518.558 771.113 520.79 772.514Z"/>
</g>
</g>
</svg>
