<?xml version="1.0" encoding="UTF-8" standalone="no"?>
<!DOCTYPE svg PUBLIC "-//W3C//DTD SVG 1.1//EN" "http://www.w3.org/Graphics/SVG/1.1/DTD/svg11.dtd">
<!-- Created with Vectornator (http://vectornator.io/) -->
<svg height="100%" stroke-miterlimit="10" style="fill-rule:nonzero;clip-rule:evenodd;stroke-linecap:round;stroke-linejoin:round;" version="1.1" viewBox="0 0 600 966" width="100%" xml:space="preserve" xmlns="http://www.w3.org/2000/svg" xmlns:vectornator="http://vectornator.io" xmlns:xlink="http://www.w3.org/1999/xlink">
<defs>
<filter color-interpolation-filters="sRGB" filterUnits="userSpaceOnUse" height="970.5" id="Filter" width="550.5" x="29.1642" y="-1.1862">
<feDropShadow dx="4.41425" dy="4.0638" flood-color="#000000" flood-opacity="0.2" in="SourceGraphic" result="Shadow" stdDeviation="2"/>
</filter>
</defs>
<clipPath id="ArtboardFrame">
<rect height="966" width="600" x="0" y="0"/>
</clipPath>
<g clip-path="url(#ArtboardFrame)" id="Layer-1" vectornator:layerName="Layer 1">
<path d="M30 0L570 2.71682e-14L570 960L30 960L30 0Z" fill="#a65628" fill-rule="nonzero" filter="url(#Filter)" stroke="#ffffff" stroke-linecap="butt" stroke-linejoin="round" stroke-width="0.5" vectornator:layerName="Rectangle 1" vectornator:shadowAngle="0.744085" vectornator:shadowColor="#000000" vectornator:shadowOffset="6" vectornator:shadowOpacity="0.2" vectornator:shadowRadius="4"/>
<g opacity="1" vectornator:layerName="Group 1">
<path d="M275.164 337.122L214.718 274.196" fill="none" opacity="1" stroke="#000000" stroke-linecap="butt" stroke-linejoin="round" stroke-width="5" vectornator:layerName="Line 1"/>
<path d="M329.079 330.797L416.403 162.682" fill="none" opacity="1" stroke="#000000" stroke-linecap="butt" stroke-linejoin="round" stroke-width="5" vectornator:layerName="Line 2"/>
<path d="M365.164 378.819L445.127 367.382" fill="none" opacity="1" stroke="#000000" stroke-linecap="butt" stroke-linejoin="round" stroke-width="5" vectornator:layerName="Line 3"/>
<path d="M103.207 495.642L196.71 551.215" fill="none" opacity="1" stroke="#000000" stroke-linecap="butt" stroke-linejoin="round" stroke-width="5" vectornator:layerName="Line 6"/>
<path d="M200.767 554.422L265.164 430.72" fill="none" opacity="1" stroke="#000000" stroke-linecap="butt" stroke-linejoin="round" stroke-width="5" vectornator:layerName="Line 7"/>
<path d="M96.0383 328.438L245.164 378.819" fill="none" opacity="1" stroke="#000000" stroke-linecap="butt" stroke-linejoin="round" stroke-width="5" vectornator:layerName="Line 8"/>
<path d="M94.8003 309.213L198.018 271.063" fill="none" opacity="1" stroke="#000000" stroke-linecap="butt" stroke-linejoin="round" stroke-width="5" vectornator:layerName="Line 9"/>
<path d="M457.071 374.178L474.505 514.169" fill="none" opacity="1" stroke="#000000" stroke-linecap="butt" stroke-linejoin="round" stroke-width="5" vectornator:layerName="Line 11"/>
<path d="M441.493 551.127L210.79 557.61" fill="none" opacity="1" stroke="#000000" stroke-linecap="butt" stroke-linejoin="round" stroke-width="5" vectornator:layerName="Line 12"/>
<path d="M255.164 387.122C255.164 359.508 277.55 337.122 305.164 337.122C332.778 337.122 355.164 359.508 355.164 387.122C355.164 414.736 332.778 437.122 305.164 437.122C277.55 437.122 255.164 414.736 255.164 387.122Z" fill="none" opacity="1" stroke="#000000" stroke-linecap="butt" stroke-linejoin="round" stroke-width="5" vectornator:layerName="Oval 1"/>
<path d="M399.08 141.607C399.08 127.8 410.273 116.607 424.08 116.607C437.887 116.607 449.08 127.8 449.08 141.607C449.08 155.414 437.887 166.607 424.08 166.607C410.273 166.607 399.08 155.414 399.08 141.607Z" fill="none" opacity="1" stroke="#000000" stroke-linecap="butt" stroke-linejoin="round" stroke-width="5" vectornator:layerName="Oval 3"/>
<path d="M434.099 532.481C434.099 518.673 445.292 507.481 459.099 507.481C472.906 507.481 484.099 518.673 484.099 532.481C484.099 546.288 472.906 557.481 459.099 557.481C445.292 557.481 434.099 546.288 434.099 532.481Z" fill="none" opacity="1" stroke="#000000" stroke-linecap="butt" stroke-linejoin="round" stroke-width="5" vectornator:layerName="Oval 10"/>
<path d="M46.8097 316.895C46.8097 303.088 58.0026 291.895 71.8097 291.895C85.6168 291.895 96.8097 303.088 96.8097 316.895C96.8097 330.702 85.6168 341.895 71.8097 341.895C58.0026 341.895 46.8097 330.702 46.8097 316.895Z" fill="none" opacity="1" stroke="#000000" stroke-linecap="butt" stroke-linejoin="round" stroke-width="5" vectornator:layerName="Oval 5"/>
<path d="M198.304 268.083C198.304 262.56 202.781 258.083 208.304 258.083C213.827 258.083 218.304 262.56 218.304 268.083C218.304 273.605 213.827 278.083 208.304 278.083C202.781 278.083 198.304 273.605 198.304 268.083Z" fill="none" opacity="1" stroke="#000000" stroke-linecap="butt" stroke-linejoin="round" stroke-width="5" vectornator:layerName="Oval 6"/>
<path d="M446.505 364.286C446.505 358.763 450.982 354.286 456.505 354.286C462.028 354.286 466.505 358.763 466.505 364.286C466.505 369.809 462.028 374.286 456.505 374.286C450.982 374.286 446.505 369.809 446.505 364.286Z" fill="none" opacity="1" stroke="#000000" stroke-linecap="butt" stroke-linejoin="round" stroke-width="5" vectornator:layerName="Oval 7"/>
<path d="M191.201 557.183C191.201 551.66 195.678 547.183 201.201 547.183C206.724 547.183 211.201 551.66 211.201 557.183C211.201 562.706 206.724 567.183 201.201 567.183C195.678 567.183 191.201 562.706 191.201 557.183Z" fill="#a65628" fill-rule="nonzero" opacity="1" stroke="#000000" stroke-linecap="butt" stroke-linejoin="round" stroke-width="5" vectornator:layerName="Oval 8"/>
<path d="M85.4401 490C85.4401 484.477 89.9172 480 95.4401 480C100.963 480 105.44 484.477 105.44 490C105.44 495.523 100.963 500 95.4401 500C89.9172 500 85.4401 495.523 85.4401 490Z" fill="none" opacity="1" stroke="#000000" stroke-linecap="butt" stroke-linejoin="round" stroke-width="5" vectornator:layerName="Oval 9"/>
<path d="M245.164 387.122C245.164 353.985 272.027 327.122 305.164 327.122C338.301 327.122 365.164 353.985 365.164 387.122C365.164 420.259 338.301 447.122 305.164 447.122C272.027 447.122 245.164 420.259 245.164 387.122Z" fill="none" opacity="1" stroke="#000000" stroke-linecap="butt" stroke-linejoin="round" stroke-width="5" vectornator:layerName="Oval 2"/>
<g fill="#000000" opacity="1" stroke="none" vectornator:layerName="Text 1">
<path d="M280.546 376.462L274.253 376.462L274.253 379.793L281.425 379.793L281.425 382.122L271.607 382.122L271.607 369.167L281.108 369.167L281.108 371.461L274.253 371.461L274.253 374.212L280.546 374.212L280.546 376.462Z"/>
<path d="M283.384 369.167L285.889 369.167L285.889 382.122L283.384 382.122L283.384 369.167Z"/>
<path d="M296.533 379.309C296.468 379.878 296.173 380.455 295.645 381.041C294.825 381.972 293.676 382.438 292.2 382.438C290.981 382.438 289.906 382.046 288.974 381.261C288.043 380.475 287.577 379.198 287.577 377.429C287.577 375.77 287.997 374.499 288.838 373.614C289.679 372.729 290.77 372.287 292.112 372.287C292.909 372.287 293.627 372.436 294.265 372.735C294.904 373.034 295.431 373.506 295.847 374.15C296.222 374.719 296.466 375.378 296.577 376.128C296.641 376.567 296.668 377.2 296.656 378.026L290.099 378.026C290.134 378.987 290.436 379.661 291.005 380.048C291.35 380.288 291.766 380.408 292.253 380.408C292.768 380.408 293.187 380.262 293.509 379.969C293.685 379.81 293.841 379.591 293.975 379.309L296.533 379.309ZM294.054 376.374C294.013 375.712 293.813 375.209 293.452 374.867C293.092 374.524 292.645 374.352 292.112 374.352C291.532 374.352 291.082 374.534 290.763 374.897C290.444 375.261 290.243 375.753 290.161 376.374L294.054 376.374Z"/>
<path d="M306.632 375.978L304.065 375.978C304.018 375.621 303.898 375.299 303.705 375.012C303.424 374.625 302.987 374.431 302.395 374.431C301.551 374.431 300.974 374.85 300.664 375.688C300.5 376.134 300.418 376.725 300.418 377.464C300.418 378.167 300.5 378.732 300.664 379.16C300.963 379.957 301.525 380.355 302.351 380.355C302.937 380.355 303.353 380.197 303.599 379.881C303.845 379.564 303.995 379.154 304.048 378.65L306.605 378.65C306.547 379.412 306.271 380.133 305.779 380.812C304.994 381.908 303.831 382.456 302.29 382.456C300.749 382.456 299.615 381.999 298.888 381.085C298.162 380.171 297.799 378.984 297.799 377.525C297.799 375.879 298.2 374.598 299.003 373.684C299.805 372.77 300.913 372.313 302.325 372.313C303.526 372.313 304.509 372.583 305.274 373.122C306.038 373.661 306.491 374.613 306.632 375.978Z"/>
<path d="M312.74 380.338L312.74 382.21L311.553 382.254C310.37 382.295 309.561 382.09 309.128 381.639C308.846 381.351 308.706 380.909 308.706 380.311L308.706 374.414L307.37 374.414L307.37 372.63L308.706 372.63L308.706 369.958L311.184 369.958L311.184 372.63L312.74 372.63L312.74 374.414L311.184 374.414L311.184 379.476C311.184 379.869 311.234 380.114 311.334 380.21C311.433 380.307 311.738 380.355 312.248 380.355C312.324 380.355 312.405 380.354 312.489 380.351C312.574 380.348 312.658 380.344 312.74 380.338Z"/>
<path d="M316.924 372.542L316.924 382.122L314.384 382.122L314.384 372.542L316.924 372.542ZM316.924 369.088L316.924 371.399L314.384 371.399L314.384 369.088L316.924 369.088Z"/>
<path d="M327.339 373.755C328.147 374.768 328.551 375.967 328.551 377.349C328.551 378.756 328.147 379.958 327.339 380.957C326.53 381.956 325.302 382.456 323.656 382.456C322.009 382.456 320.782 381.956 319.973 380.957C319.165 379.958 318.76 378.756 318.76 377.349C318.76 375.967 319.165 374.768 319.973 373.755C320.782 372.741 322.009 372.234 323.656 372.234C325.302 372.234 326.53 372.741 327.339 373.755ZM323.647 374.352C322.915 374.352 322.351 374.612 321.955 375.13C321.56 375.649 321.362 376.389 321.362 377.349C321.362 378.31 321.56 379.052 321.955 379.573C322.351 380.095 322.915 380.355 323.647 380.355C324.38 380.355 324.942 380.095 325.335 379.573C325.727 379.052 325.924 378.31 325.924 377.349C325.924 376.389 325.727 375.649 325.335 375.13C324.942 374.612 324.38 374.352 323.647 374.352Z"/>
<path d="M334.853 374.396C334.004 374.396 333.421 374.757 333.104 375.477C332.94 375.858 332.858 376.345 332.858 376.936L332.858 382.122L330.362 382.122L330.362 372.559L332.779 372.559L332.779 373.957C333.101 373.465 333.406 373.11 333.693 372.893C334.209 372.507 334.862 372.313 335.653 372.313C336.643 372.313 337.453 372.573 338.083 373.091C338.713 373.61 339.028 374.47 339.028 375.671L339.028 382.122L336.462 382.122L336.462 376.295C336.462 375.791 336.394 375.404 336.259 375.135C336.013 374.642 335.545 374.396 334.853 374.396Z"/>
<path d="M279.526 399.042L276.731 399.042L276.731 404.122L274.086 404.122L274.086 391.167L280.44 391.167C281.348 391.184 282.047 391.296 282.536 391.501C283.026 391.706 283.44 392.008 283.78 392.406C284.061 392.734 284.284 393.097 284.448 393.496C284.612 393.894 284.694 394.348 284.694 394.858C284.694 395.473 284.539 396.078 284.228 396.673C283.918 397.268 283.405 397.688 282.69 397.934C283.288 398.175 283.711 398.516 283.96 398.958C284.209 399.401 284.334 400.076 284.334 400.984L284.334 401.854C284.334 402.446 284.357 402.847 284.404 403.058C284.474 403.392 284.638 403.639 284.896 403.797L284.896 404.122L281.917 404.122C281.835 403.835 281.776 403.603 281.741 403.428C281.671 403.064 281.633 402.692 281.627 402.311L281.609 401.107C281.597 400.281 281.447 399.73 281.156 399.455C280.866 399.18 280.323 399.042 279.526 399.042ZM281.17 396.686C281.709 396.44 281.978 395.954 281.978 395.227C281.978 394.442 281.717 393.915 281.196 393.645C280.903 393.493 280.464 393.417 279.878 393.417L276.731 393.417L276.731 396.897L279.799 396.897C280.408 396.897 280.865 396.827 281.17 396.686Z"/>
<path d="M295.021 401.309C294.957 401.878 294.661 402.455 294.134 403.041C293.313 403.972 292.165 404.438 290.688 404.438C289.469 404.438 288.394 404.046 287.463 403.261C286.531 402.475 286.065 401.198 286.065 399.429C286.065 397.77 286.486 396.499 287.326 395.614C288.167 394.729 289.259 394.287 290.6 394.287C291.397 394.287 292.115 394.436 292.754 394.735C293.392 395.034 293.92 395.506 294.336 396.15C294.711 396.719 294.954 397.378 295.065 398.128C295.13 398.567 295.156 399.2 295.144 400.026L288.588 400.026C288.623 400.987 288.925 401.661 289.493 402.048C289.839 402.288 290.255 402.408 290.741 402.408C291.257 402.408 291.676 402.262 291.998 401.969C292.174 401.81 292.329 401.591 292.464 401.309L295.021 401.309ZM292.543 398.374C292.502 397.712 292.301 397.209 291.941 396.867C291.58 396.524 291.134 396.352 290.6 396.352C290.02 396.352 289.571 396.534 289.251 396.897C288.932 397.261 288.731 397.753 288.649 398.374L292.543 398.374Z"/>
<path d="M303.432 394.981C304.182 395.462 304.613 396.288 304.724 397.46L302.219 397.46C302.184 397.138 302.093 396.883 301.947 396.695C301.672 396.355 301.203 396.185 300.541 396.185C299.996 396.185 299.608 396.27 299.376 396.44C299.145 396.61 299.029 396.809 299.029 397.038C299.029 397.325 299.152 397.533 299.398 397.662C299.644 397.797 300.514 398.028 302.009 398.356C303.005 398.591 303.752 398.945 304.25 399.42C304.742 399.9 304.988 400.501 304.988 401.222C304.988 402.171 304.635 402.946 303.929 403.546C303.223 404.147 302.132 404.447 300.655 404.447C299.149 404.447 298.037 404.129 297.32 403.493C296.602 402.858 296.243 402.048 296.243 401.063L298.783 401.063C298.836 401.509 298.95 401.825 299.126 402.013C299.436 402.347 300.01 402.514 300.848 402.514C301.341 402.514 301.732 402.44 302.022 402.294C302.312 402.147 302.457 401.928 302.457 401.635C302.457 401.353 302.34 401.139 302.105 400.993C301.871 400.847 301.001 400.595 299.495 400.237C298.411 399.968 297.646 399.631 297.201 399.226C296.756 398.828 296.533 398.254 296.533 397.504C296.533 396.619 296.88 395.859 297.574 395.223C298.269 394.587 299.246 394.269 300.506 394.269C301.701 394.269 302.676 394.507 303.432 394.981Z"/>
<path d="M312.986 402.768C312.963 402.798 312.904 402.886 312.81 403.032C312.717 403.179 312.605 403.307 312.476 403.419C312.084 403.77 311.704 404.011 311.338 404.139C310.972 404.268 310.543 404.333 310.051 404.333C308.633 404.333 307.677 403.823 307.185 402.804C306.91 402.241 306.772 401.412 306.772 400.316L306.772 394.542L309.339 394.542L309.339 400.316C309.339 400.861 309.403 401.271 309.532 401.547C309.76 402.033 310.209 402.276 310.877 402.276C311.732 402.276 312.318 401.93 312.634 401.239C312.799 400.864 312.881 400.369 312.881 399.754L312.881 394.542L315.421 394.542L315.421 404.122L312.986 404.122L312.986 402.768Z"/>
<path d="M317.89 391.167L320.395 391.167L320.395 404.122L317.89 404.122L317.89 391.167Z"/>
<path d="M327.224 402.338L327.224 404.21L326.038 404.254C324.854 404.295 324.046 404.09 323.612 403.639C323.331 403.351 323.19 402.909 323.19 402.311L323.19 396.414L321.854 396.414L321.854 394.63L323.19 394.63L323.19 391.958L325.669 391.958L325.669 394.63L327.224 394.63L327.224 396.414L325.669 396.414L325.669 401.476C325.669 401.869 325.718 402.114 325.818 402.21C325.918 402.307 326.222 402.355 326.732 402.355C326.808 402.355 326.889 402.354 326.974 402.351C327.059 402.348 327.142 402.344 327.224 402.338Z"/>
<path d="M335.433 394.981C336.183 395.462 336.614 396.288 336.725 397.46L334.22 397.46C334.185 397.138 334.094 396.883 333.948 396.695C333.673 396.355 333.204 396.185 332.542 396.185C331.997 396.185 331.609 396.27 331.377 396.44C331.146 396.61 331.03 396.809 331.03 397.038C331.03 397.325 331.153 397.533 331.399 397.662C331.645 397.797 332.515 398.028 334.009 398.356C335.006 398.591 335.753 398.945 336.251 399.42C336.743 399.9 336.989 400.501 336.989 401.222C336.989 402.171 336.636 402.946 335.93 403.546C335.224 404.147 334.133 404.447 332.656 404.447C331.15 404.447 330.038 404.129 329.321 403.493C328.603 402.858 328.244 402.048 328.244 401.063L330.784 401.063C330.837 401.509 330.951 401.825 331.127 402.013C331.437 402.347 332.011 402.514 332.849 402.514C333.342 402.514 333.733 402.44 334.023 402.294C334.313 402.147 334.458 401.928 334.458 401.635C334.458 401.353 334.341 401.139 334.106 400.993C333.872 400.847 333.002 400.595 331.496 400.237C330.412 399.968 329.647 399.631 329.202 399.226C328.757 398.828 328.534 398.254 328.534 397.504C328.534 396.619 328.881 395.859 329.575 395.223C330.27 394.587 331.247 394.269 332.507 394.269C333.702 394.269 334.677 394.507 335.433 394.981Z"/>
</g>
</g>
<path d="M0 688C0 688 150 708 300 708C450 708 600 688 600 688L600 848C600 848 450 868 300 868C150 868 0 848 0 848L0 688Z" fill="#f2e6df" fill-rule="nonzero" opacity="1" stroke="#000000" stroke-linecap="butt" stroke-linejoin="round" stroke-width="0.5" vectornator:layerName="Rectangle 2"/>
<g fill="#000000" opacity="1" stroke="none" vectornator:layerName="Text 1">
<path d="M103.627 796.646C100.773 799.258 97.1229 800.564 92.6772 800.564C87.1762 800.564 82.8516 798.799 79.7033 795.271C76.5549 791.724 74.9808 786.863 74.9808 780.688C74.9808 774.011 76.7712 768.864 80.352 765.249C83.4657 762.101 87.4271 760.526 92.236 760.526C98.6711 760.526 103.376 762.637 106.352 766.858C107.995 769.228 108.877 771.606 108.998 773.993L101.006 773.993C100.487 772.16 99.8215 770.776 99.0084 769.842C97.5553 768.181 95.4017 767.351 92.5474 767.351C89.6413 767.351 87.3492 768.523 85.6713 770.867C83.9933 773.211 83.1543 776.528 83.1543 780.818C83.1543 785.108 84.0409 788.321 85.814 790.457C87.5871 792.594 89.8402 793.662 92.5734 793.662C95.3757 793.662 97.5121 792.745 98.9825 790.911C99.7955 789.925 100.47 788.446 101.006 786.474L108.92 786.474C108.229 790.643 106.464 794.034 103.627 796.646Z"/>
<path d="M138.008 774.798C140.395 777.79 141.589 781.328 141.589 785.41C141.589 789.562 140.395 793.113 138.008 796.062C135.621 799.011 131.997 800.486 127.136 800.486C122.275 800.486 118.651 799.011 116.264 796.062C113.877 793.113 112.683 789.562 112.683 785.41C112.683 781.328 113.877 777.79 116.264 774.798C118.651 771.805 122.275 770.309 127.136 770.309C131.997 770.309 135.621 771.805 138.008 774.798ZM127.11 776.562C124.948 776.562 123.283 777.328 122.115 778.859C120.947 780.389 120.363 782.573 120.363 785.41C120.363 788.247 120.947 790.436 122.115 791.975C123.283 793.515 124.948 794.284 127.11 794.284C129.272 794.284 130.933 793.515 132.092 791.975C133.251 790.436 133.83 788.247 133.83 785.41C133.83 782.573 133.251 780.389 132.092 778.859C130.933 777.328 129.272 776.562 127.11 776.562Z"/>
<path d="M161.101 778.041C158.126 778.041 156.128 779.01 155.108 780.947C154.537 782.037 154.251 783.715 154.251 785.981L154.251 799.5L146.804 799.5L146.804 771.217L153.862 771.217L153.862 776.147C155.004 774.261 155.998 772.973 156.846 772.281C158.23 771.122 160.029 770.542 162.243 770.542C162.382 770.542 162.498 770.547 162.593 770.555C162.689 770.564 162.901 770.577 163.229 770.594L163.229 778.171C162.762 778.119 162.347 778.084 161.984 778.067C161.62 778.05 161.326 778.041 161.101 778.041Z"/>
<path d="M181.782 778.041C178.807 778.041 176.809 779.01 175.788 780.947C175.217 782.037 174.932 783.715 174.932 785.981L174.932 799.5L167.485 799.5L167.485 771.217L174.542 771.217L174.542 776.147C175.684 774.261 176.679 772.973 177.526 772.281C178.91 771.122 180.709 770.542 182.924 770.542C183.062 770.542 183.179 770.547 183.274 770.555C183.369 770.564 183.581 770.577 183.91 770.594L183.91 778.171C183.443 778.119 183.027 778.084 182.664 778.067C182.301 778.05 182.007 778.041 181.782 778.041Z"/>
<path d="M212.452 791.197C212.262 792.875 211.388 794.579 209.831 796.308C207.41 799.059 204.019 800.434 199.66 800.434C196.062 800.434 192.888 799.275 190.137 796.957C187.387 794.639 186.011 790.868 186.011 785.644C186.011 780.748 187.253 776.995 189.735 774.383C192.217 771.77 195.439 770.464 199.4 770.464C201.753 770.464 203.872 770.906 205.758 771.788C207.643 772.67 209.2 774.063 210.428 775.965C211.535 777.643 212.253 779.589 212.582 781.804C212.772 783.101 212.85 784.969 212.815 787.408L193.458 787.408C193.562 790.245 194.453 792.235 196.131 793.376C197.152 794.086 198.38 794.44 199.816 794.44C201.338 794.44 202.575 794.008 203.526 793.143C204.045 792.676 204.503 792.027 204.901 791.197L212.452 791.197ZM205.135 782.53C205.014 780.575 204.421 779.092 203.357 778.08C202.294 777.068 200.975 776.562 199.4 776.562C197.688 776.562 196.36 777.098 195.417 778.171C194.475 779.243 193.882 780.697 193.64 782.53L205.135 782.53Z"/>
<path d="M217.953 761.253L225.348 761.253L225.348 799.5L217.953 799.5L217.953 761.253Z"/>
<path d="M233.626 774.279C235.58 771.788 238.936 770.542 243.693 770.542C246.79 770.542 249.54 771.156 251.945 772.385C254.349 773.613 255.551 775.931 255.551 779.339L255.551 792.312C255.551 793.212 255.569 794.302 255.603 795.582C255.655 796.551 255.802 797.208 256.044 797.554C256.287 797.9 256.65 798.185 257.134 798.41L257.134 799.5L249.09 799.5C248.866 798.929 248.71 798.393 248.623 797.891C248.537 797.39 248.468 796.819 248.416 796.179C247.395 797.286 246.219 798.229 244.887 799.007C243.295 799.924 241.496 800.382 239.49 800.382C236.93 800.382 234.815 799.651 233.146 798.19C231.476 796.728 230.642 794.656 230.642 791.975C230.642 788.498 231.982 785.981 234.663 784.424C236.134 783.577 238.296 782.971 241.15 782.608L243.667 782.297C245.034 782.124 246.011 781.907 246.599 781.648C247.655 781.198 248.182 780.498 248.182 779.546C248.182 778.387 247.78 777.587 246.976 777.146C246.171 776.705 244.991 776.484 243.434 776.484C241.687 776.484 240.45 776.917 239.723 777.782C239.204 778.422 238.858 779.287 238.685 780.376L231.55 780.376C231.705 777.903 232.397 775.87 233.626 774.279ZM239.126 794.155C239.818 794.726 240.666 795.011 241.669 795.011C243.261 795.011 244.727 794.544 246.068 793.61C247.408 792.676 248.104 790.972 248.156 788.498L248.156 785.748C247.689 786.042 247.218 786.28 246.742 786.461C246.266 786.643 245.613 786.812 244.783 786.967L243.122 787.279C241.566 787.555 240.45 787.893 239.775 788.291C238.633 788.965 238.063 790.012 238.063 791.43C238.063 792.693 238.417 793.601 239.126 794.155Z"/>
<path d="M275.064 794.233L275.064 799.759L271.561 799.889C268.067 800.01 265.68 799.405 264.4 798.073C263.569 797.225 263.154 795.919 263.154 794.155L263.154 776.744L259.21 776.744L259.21 771.476L263.154 771.476L263.154 763.588L270.471 763.588L270.471 771.476L275.064 771.476L275.064 776.744L270.471 776.744L270.471 791.69C270.471 792.849 270.618 793.571 270.913 793.856C271.207 794.142 272.106 794.284 273.611 794.284C273.836 794.284 274.074 794.28 274.325 794.272C274.575 794.263 274.822 794.25 275.064 794.233Z"/>
<path d="M304.022 791.197C303.832 792.875 302.958 794.579 301.401 796.308C298.979 799.059 295.589 800.434 291.23 800.434C287.632 800.434 284.457 799.275 281.707 796.957C278.956 794.639 277.581 790.868 277.581 785.644C277.581 780.748 278.822 776.995 281.305 774.383C283.787 771.77 287.009 770.464 290.97 770.464C293.323 770.464 295.442 770.906 297.327 771.788C299.213 772.67 300.77 774.063 301.998 775.965C303.105 777.643 303.823 779.589 304.152 781.804C304.342 783.101 304.42 784.969 304.385 787.408L285.028 787.408C285.132 790.245 286.023 792.235 287.701 793.376C288.721 794.086 289.95 794.44 291.385 794.44C292.908 794.44 294.144 794.008 295.096 793.143C295.615 792.676 296.073 792.027 296.471 791.197L304.022 791.197ZM296.705 782.53C296.584 780.575 295.991 779.092 294.927 778.08C293.863 777.068 292.544 776.562 290.97 776.562C289.258 776.562 287.93 777.098 286.987 778.171C286.044 779.243 285.452 780.697 285.21 782.53L296.705 782.53Z"/>
<path d="M335.107 761.305L335.107 799.5L327.92 799.5L327.92 795.582C326.865 797.26 325.662 798.479 324.313 799.241C322.964 800.002 321.286 800.382 319.279 800.382C315.975 800.382 313.194 799.046 310.937 796.373C308.68 793.701 307.551 790.271 307.551 786.085C307.551 781.259 308.662 777.462 310.885 774.694C313.108 771.926 316.079 770.542 319.798 770.542C321.511 770.542 323.033 770.919 324.365 771.671C325.697 772.423 326.778 773.466 327.608 774.798L327.608 761.305L335.107 761.305ZM315.179 785.54C315.179 788.152 315.698 790.237 316.736 791.794C317.757 793.368 319.314 794.155 321.407 794.155C323.5 794.155 325.092 793.376 326.181 791.819C327.271 790.263 327.816 788.247 327.816 785.774C327.816 782.314 326.942 779.84 325.195 778.353C324.123 777.453 322.877 777.003 321.459 777.003C319.297 777.003 317.709 777.821 316.697 779.455C315.685 781.09 315.179 783.118 315.179 785.54Z"/>
<path d="M383.811 782.79L365.233 782.79L365.233 792.624L386.406 792.624L386.406 799.5L357.422 799.5L357.422 761.253L385.472 761.253L385.472 768.025L365.233 768.025L365.233 776.147L383.811 776.147L383.811 782.79Z"/>
<path d="M389.26 771.217L397.564 771.217L403.454 792.079L409.474 771.217L417.414 771.217L407.216 799.5L399.406 799.5L389.26 771.217Z"/>
<path d="M445.801 791.197C445.61 792.875 444.737 794.579 443.18 796.308C440.758 799.059 437.368 800.434 433.008 800.434C429.41 800.434 426.236 799.275 423.486 796.957C420.735 794.639 419.36 790.868 419.36 785.644C419.36 780.748 420.601 776.995 423.083 774.383C425.566 771.77 428.788 770.464 432.749 770.464C435.101 770.464 437.221 770.906 439.106 771.788C440.992 772.67 442.549 774.063 443.777 775.965C444.884 777.643 445.602 779.589 445.93 781.804C446.121 783.101 446.198 784.969 446.164 787.408L426.807 787.408C426.911 790.245 427.802 792.235 429.479 793.376C430.5 794.086 431.728 794.44 433.164 794.44C434.686 794.44 435.923 794.008 436.875 793.143C437.394 792.676 437.852 792.027 438.25 791.197L445.801 791.197ZM438.483 782.53C438.362 780.575 437.77 779.092 436.706 778.08C435.642 777.068 434.323 776.562 432.749 776.562C431.036 776.562 429.709 777.098 428.766 778.171C427.823 779.243 427.231 780.697 426.988 782.53L438.483 782.53Z"/>
<path d="M464.457 776.692C461.949 776.692 460.228 777.756 459.293 779.883C458.809 781.008 458.567 782.444 458.567 784.191L458.567 799.5L451.198 799.5L451.198 771.269L458.333 771.269L458.333 775.395C459.285 773.941 460.184 772.895 461.032 772.255C462.554 771.113 464.483 770.542 466.818 770.542C469.742 770.542 472.133 771.308 473.993 772.839C475.852 774.37 476.782 776.908 476.782 780.454L476.782 799.5L469.206 799.5L469.206 782.297C469.206 780.809 469.007 779.667 468.609 778.872C467.882 777.418 466.498 776.692 464.457 776.692Z"/>
<path d="M496.555 794.233L496.555 799.759L493.052 799.889C489.557 800.01 487.17 799.405 485.89 798.073C485.06 797.225 484.644 795.919 484.644 794.155L484.644 776.744L480.7 776.744L480.7 771.476L484.644 771.476L484.644 763.588L491.962 763.588L491.962 771.476L496.555 771.476L496.555 776.744L491.962 776.744L491.962 791.69C491.962 792.849 492.109 793.571 492.403 793.856C492.697 794.142 493.596 794.284 495.101 794.284C495.326 794.284 495.564 794.28 495.815 794.272C496.066 794.263 496.312 794.25 496.555 794.233Z"/>
<path d="M520.79 772.514C523.004 773.933 524.275 776.372 524.604 779.832L517.209 779.832C517.105 778.88 516.837 778.128 516.405 777.574C515.592 776.571 514.208 776.069 512.253 776.069C510.644 776.069 509.498 776.32 508.815 776.822C508.132 777.323 507.79 777.911 507.79 778.586C507.79 779.434 508.153 780.048 508.88 780.428C509.606 780.826 512.175 781.51 516.586 782.478C519.527 783.17 521.733 784.217 523.203 785.618C524.656 787.036 525.382 788.81 525.382 790.937C525.382 793.74 524.34 796.027 522.256 797.8C520.171 799.574 516.949 800.46 512.59 800.46C508.145 800.46 504.862 799.522 502.743 797.645C500.624 795.768 499.564 793.376 499.564 790.47L507.063 790.47C507.219 791.785 507.556 792.719 508.075 793.273C508.992 794.259 510.687 794.752 513.161 794.752C514.614 794.752 515.769 794.535 516.625 794.103C517.481 793.67 517.91 793.022 517.91 792.157C517.91 791.326 517.564 790.695 516.872 790.263C516.18 789.83 513.611 789.086 509.165 788.031C505.965 787.235 503.707 786.241 502.393 785.047C501.078 783.871 500.421 782.176 500.421 779.961C500.421 777.349 501.446 775.105 503.496 773.228C505.545 771.351 508.43 770.413 512.149 770.413C515.678 770.413 518.558 771.113 520.79 772.514Z"/>
</g>
</g>
</svg>
