<?xml version="1.0" encoding="UTF-8" standalone="no"?>
<!DOCTYPE svg PUBLIC "-//W3C//DTD SVG 1.1//EN" "http://www.w3.org/Graphics/SVG/1.1/DTD/svg11.dtd">
<!-- Created with Vectornator (http://vectornator.io/) -->
<svg height="100%" stroke-miterlimit="10" style="fill-rule:nonzero;clip-rule:evenodd;stroke-linecap:round;stroke-linejoin:round;" version="1.1" viewBox="0 0 600 966" width="100%" xml:space="preserve" xmlns="http://www.w3.org/2000/svg" xmlns:vectornator="http://vectornator.io" xmlns:xlink="http://www.w3.org/1999/xlink">
<defs>
<filter color-interpolation-filters="sRGB" filterUnits="userSpaceOnUse" height="970.5" id="Filter" width="550.5" x="29.1642" y="-1.1862">
<feDropShadow dx="4.41425" dy="4.0638" flood-color="#000000" flood-opacity="0.2" in="SourceGraphic" result="Shadow" stdDeviation="2"/>
</filter>
</defs>
<clipPath id="ArtboardFrame">
<rect height="966" width="600" x="0" y="0"/>
</clipPath>
<g clip-path="url(#ArtboardFrame)" id="Layer-1" vectornator:layerName="Layer 1">
<path d="M30 0L570 2.71682e-14L570 960L30 960L30 0Z" fill="#5309dd" fill-rule="nonzero" filter="url(#Filter)" stroke="#ffffff" stroke-linecap="butt" stroke-linejoin="round" stroke-width="0.5" vectornator:layerName="Rectangle 1" vectornator:shadowAngle="0.744085" vectornator:shadowColor="#000000" vectornator:shadowOffset="6" vectornator:shadowOpacity="0.2" vectornator:shadowRadius="4"/>
<g opacity="1" vectornator:layerName="g">
<g opacity="1" vectornator:layerName="g">
<path d="M353.633 580.847L353.508 581.447C353.512 582.481 353.679 583.498 353.809 584.512C353.809 583.609 353.815 582.711 353.809 581.854L353.809 580.847C353.756 580.848 353.685 580.847 353.633 580.847Z" fill="none" opacity="1" stroke="#000000" stroke-linecap="butt" stroke-linejoin="round" stroke-width="7"/>
<path d="M341.089 634.405C334.272 634.851 324.839 643.067 318.408 645.914C290.892 658.084 264.804 663.204 233.908 665.331C233.849 665.335 233.793 665.348 233.733 665.353C233.398 665.375 233.017 665.395 232.679 665.417C232.229 665.446 231.729 665.453 231.274 665.481C212.51 666.637 190.003 666.629 171.888 665.438C162.018 664.787 146.705 665.446 138.821 660.016C133.842 698.77 128.805 730.531 127.707 740.771C125.571 760.79 122.554 772.038 121.133 777.977L153.297 777.977C154.269 777.908 155.281 777.839 156.308 777.784C171.418 777.88 186.526 777.949 201.644 777.977C221.225 778.011 240.821 778.004 260.402 777.977C291.946 777.922 323.51 777.818 355.038 777.762C355.247 777.763 354.611 707.606 354.185 647.521C354.161 644.579 354.134 641.642 354.11 638.756L354.11 637.534C354.11 637.527 354.11 637.519 354.11 637.513C349.771 636.853 344.744 634.163 341.089 634.405Z" fill="none" opacity="1" stroke="#000000" stroke-linecap="butt" stroke-linejoin="round" stroke-width="7"/>
<path d="M362.941 38.0429C361.216 37.9768 359.332 38.1003 357.296 38.4501C356.039 38.6622 354.911 39.03 353.859 39.5002C353.62 39.6071 353.41 39.7461 353.181 39.8646C352.408 40.2645 351.692 40.7191 351.024 41.2362C350.8 41.4094 350.584 41.5875 350.372 41.772C349.614 42.4292 348.892 43.14 348.264 43.9152C348.257 43.9235 348.246 43.9282 348.239 43.9366C347.861 44.4045 347.546 44.9166 347.21 45.4154C346.574 46.3597 346.012 47.342 345.504 48.3516C345.238 48.8815 344.937 49.4015 344.701 49.9375C344.081 51.3459 343.53 52.7791 343.071 54.1167C342.693 55.2072 342.311 56.2908 341.942 57.3744C341.84 57.6676 341.741 57.9597 341.641 58.2531C341.307 59.2294 340.996 60.2093 340.687 61.1892C340.099 63.0524 339.578 64.9107 339.182 66.8044C339.155 66.9343 339.107 67.06 339.081 67.1902C339.08 67.197 339.083 67.2047 339.081 67.2116C338.817 68.5352 338.56 69.852 338.279 71.155C336.488 79.5563 334.427 87.7639 333.311 96.316C332.532 102.214 331.989 108.144 331.781 114.083C331.652 117.834 332.785 122.55 332.006 126.192C328.072 144.709 326.015 163.035 327.541 181.936C314.888 160.916 279.979 156.365 266.7 177.371C261.16 180.265 252.106 164.888 243.267 166.034C229.658 165.519 215.474 163.062 203.777 172.163C201.272 174.132 196.047 177.72 194.193 174.778C183.876 163.435 174.147 162.987 151.892 164.962C145.285 165.559 137.932 167.837 133.452 171.52C121.73 180.443 119.628 190.99 119.628 206.99C114.401 209.672 57.6141 196.898 45.9166 232.108C39.9675 253.602 43.8904 277.314 41.8271 299.575C39.3784 328.222 34.8523 353.648 63.7549 374.051C84.4362 397.458 113.819 418.454 132.975 443.212L132.975 443.233C136.816 448.187 140.256 453.29 143.111 458.6C143.928 461.062 144.664 463.706 145.319 466.529C146.632 472.182 147.629 478.509 148.355 485.411C148.717 488.858 149.002 492.44 149.233 496.148L149.258 496.148C150.254 512.039 150.125 530.191 149.258 549.278C149.258 549.285 149.258 549.292 149.258 549.299C166.369 538.435 192.108 532.48 212.332 527.76C214.576 527.236 216.875 526.792 219.131 526.281C219.829 526.123 220.539 525.988 221.238 525.831C224.74 525.047 228.248 524.286 231.776 523.538C232.019 523.487 232.261 523.439 232.503 523.388C264.664 516.604 297.746 511.39 330.576 509.95C337.144 509.662 347.458 508.782 355.891 510.293C355.892 510.286 355.89 510.279 355.891 510.272C356.389 504.799 357.058 499.359 357.973 493.941C359.282 486.129 361.072 478.37 363.593 470.73C367.696 458.324 371.571 445.845 374.959 433.267C374.975 433.247 374.976 433.224 374.984 433.203C380.604 412.382 384.832 391.342 386.349 369.979C386.494 367.798 386.673 365.623 386.826 363.442C388.472 341.215 390.411 319.273 391.944 297.025C394.192 264.332 384.5 234.055 382.46 202.254C380.501 171.707 384.451 141.612 385.07 111.511C385.158 107.28 385.106 103.064 384.969 98.8878C384.544 85.4321 383.092 72.1443 381.181 58.6817C380.768 55.7605 380.072 52.8627 379.023 50.1947C378.72 49.4218 378.336 48.7153 377.969 47.9872C377.705 47.4637 377.491 46.8968 377.192 46.4013C376.482 45.2241 375.656 44.1256 374.733 43.1436C374.725 43.1356 374.715 43.1302 374.708 43.1222C372.848 41.1587 370.545 39.6446 367.683 38.793C366.246 38.3654 364.666 38.1089 362.941 38.0429Z" fill="none" opacity="1" stroke="#000000" stroke-linecap="butt" stroke-linejoin="round" stroke-width="7"/>
<path d="M123.122 304.915C129.271 306.314 165.006 306.452 185.888 317.315C203.984 326.724 217.199 337.101 223.381 356.215" fill="none" opacity="1" stroke="#000000" stroke-linecap="butt" stroke-linejoin="round" stroke-width="7" vectornator:layerName="path"/>
<path d="M100.096 277.05C113.784 274.938 125.353 262.847 131.808 264.987C138.665 267.257 135.694 285.829 141.105 296.219C146.155 305.91 152.522 309.874 164.765 313.042C185.326 318.364 192.576 310.313 193.579 292.975C195.442 260.941 196.004 223.961 196.084 194.533" fill="none" opacity="1" stroke="#000000" stroke-linecap="butt" stroke-linejoin="round" stroke-width="7" vectornator:layerName="path"/>
<path d="M129.922 202.42C130.371 214.065 130.355 216.191 130.106 215.601C128.87 212.686 128.324 207.563 127.336 204.58" fill="none" opacity="1" stroke="#000000" stroke-linecap="butt" stroke-linejoin="round" stroke-width="7" vectornator:layerName="path"/>
<path d="M266.253 194.526C266.253 213.564 261.894 239.982 260.2 257.491C258.482 275.267 258.064 293.078 253.44 310.621C249.907 324.043 241.461 330.181 223.582 329.173C214.044 328.638 198.469 326.217 192.753 299.758" fill="none" opacity="1" stroke="#000000" stroke-linecap="butt" stroke-linejoin="round" stroke-width="7" vectornator:layerName="path"/>
<path d="M328.867 202.42C329.758 218.694 324.267 234.454 321.337 250.249C318.944 263.121 316.704 276.708 311.654 289.039C306.877 300.711 293.181 310.868 278.978 308.413C274.563 307.652 259.678 305.725 257.029 291.754" fill="none" opacity="1" stroke="#000000" stroke-linecap="butt" stroke-linejoin="round" stroke-width="7" vectornator:layerName="path"/>
<path d="M232.967 360.412C232.983 360.391 233.007 360.371 233.023 360.343C235.801 357.175 236.46 351.393 239.077 347.758C241.75 344.041 245.098 340.708 248.856 337.759C256.683 331.614 266.157 327.184 275.743 323.378C285.706 319.413 296.007 316.142 306.099 312.439C310.876 310.683 315.628 308.852 320.221 306.746C321.706 306.067 330.979 300.101 331.934 300.396C321.465 297.172 321.152 282.88 321.088 275.206C320.999 264.603 324.259 254.535 325.182 244.186C319.482 246.147 321.61 255.152 320.943 259.301C319.891 265.878 317.74 272.339 316.865 278.95C315.612 288.462 308.965 301.082 298.961 306.081C292.257 309.428 284.663 309.407 277.308 308.152C274.595 307.693 271.945 307.199 269.264 306.431C267.088 305.8 265.105 303.715 263.355 303.242C254.66 300.876 254.861 306.561 253.062 311.335C251.208 316.259 249.731 321.107 245.997 325.147C242.071 329.399 237.873 332.334 235.432 337.505C233.706 341.161 231.907 344.96 230.984 348.849C230.39 351.366 227.741 366.275 232.967 360.412Z" fill="none" opacity="1" stroke="#000000" stroke-linecap="butt" stroke-linejoin="round" stroke-width="7" vectornator:layerName="path"/>
<path d="M374.959 433.266C371.571 445.844 367.685 458.326 363.582 470.732C361.062 478.373 359.263 486.122 357.955 493.934C338.156 501.238 309.824 489.805 299.579 470.273C305.938 470.424 324.813 469.258 331.075 468.305C353.611 464.917 362.322 465.033 374.959 433.266Z" fill="none" opacity="1" stroke="#000000" stroke-linecap="butt" stroke-linejoin="round" stroke-width="7" vectornator:layerName="path"/>
<path d="M384.954 98.8748C381.333 99.06 376.886 98.6416 371.466 97.5649C354.631 94.2112 353.451 82.422 341.584 73.8081C340.436 72.9783 339.328 72.0867 338.261 71.1403C338.542 69.8373 338.807 68.5205 339.072 67.1969C339.955 62.7665 341.568 58.4595 343.062 54.1114C345.221 47.8225 348.778 39.8876 357.288 38.4268C373.578 35.6355 379.519 47.0132 381.165 58.6584C383.068 72.1279 384.529 85.4191 384.954 98.8748Z" fill="#000000" fill-rule="nonzero" opacity="1" stroke="#000000" stroke-linecap="butt" stroke-linejoin="round" stroke-width="7" vectornator:layerName="path"/>
<path d="M337.361 115.465C346.297 115.938 357.352 120.416 365.999 117.618C356.028 116.466 345.486 122.241 337.361 122.241L336.229 116.432L337.361 115.465Z" fill="none" opacity="1" stroke="#000000" stroke-linecap="butt" stroke-linejoin="round" stroke-width="7" vectornator:layerName="path"/>
<path d="M354.269 162.018C363.767 163.109 369.516 163.692 379.102 163.692C379.599 165.543 379.431 168.561 378.885 170.317C371.25 171.208 354.269 162.018 354.269 162.018Z" fill="none" opacity="1" stroke="#000000" stroke-linecap="butt" stroke-linejoin="round" stroke-width="7" vectornator:layerName="path"/>
<path d="M339.232 205.142C344.314 204.793 350.592 207.166 355.835 207.536C360.821 207.886 366.296 207.714 371.097 208.86C357.489 208.668 344.948 210.547 331.878 211.39C331.75 207.604 330.762 205.389 334.431 204.086C337.097 203.14 341.881 204.621 339.232 205.142Z" fill="none" opacity="1" stroke="#000000" stroke-linecap="butt" stroke-linejoin="round" stroke-width="7" vectornator:layerName="path"/>
<path d="M211.86 312.644C218.829 312.795 225.22 315.497 232.397 315.408C237.367 315.353 242.104 314.921 246.897 314.071C245.62 318.831 227.572 318.906 222.651 317.713" fill="none" opacity="1" stroke="#000000" stroke-linecap="butt" stroke-linejoin="round" stroke-width="7" vectornator:layerName="path"/>
<path d="M270.693 293.634C279.3 294.169 288.58 292.845 297.356 292.68C291.824 294.95 281.154 296.425 270.693 293.634Z" fill="none" opacity="1" stroke="#000000" stroke-linecap="butt" stroke-linejoin="round" stroke-width="7" vectornator:layerName="path"/>
<path d="M184.363 302.076C177.619 304.415 165.464 302.686 159.129 299.936C162.549 305.889 175.371 304.847 182.171 304.847" fill="none" opacity="1" stroke="#000000" stroke-linecap="butt" stroke-linejoin="round" stroke-width="7" vectornator:layerName="path"/>
<path d="M214.052 249.33C223.469 249.33 233.473 250.31 242.641 248.274C246.824 247.348 250.108 245.736 254.604 246.374C254.957 248.527 254.403 250.818 253.368 252.807C246.736 253.157 239.245 251.415 232.59 250.832C226.456 250.304 217.143 251.867 214.052 249.33Z" fill="none" opacity="1" stroke="#000000" stroke-linecap="butt" stroke-linejoin="round" stroke-width="7" vectornator:layerName="path"/>
<path d="M276.971 240.105C288.829 241.69 303.273 238.816 314.296 241.779C306.034 242.101 297.685 242.883 289.472 243.713C285.313 244.131 280.632 245.414 276.465 244.94C277.437 243.473 277.846 241.456 277.541 239.728C278.649 239.468 279.605 239.66 276.971 240.105Z" fill="none" opacity="1" stroke="#000000" stroke-linecap="butt" stroke-linejoin="round" stroke-width="7" vectornator:layerName="path"/>
<path d="M181.224 315.216C184.355 316.327 188.883 318.899 193.218 321.162C198.902 324.125 204.016 328.425 208.761 332.794C214.71 338.267 220.202 344.665 221.848 352.004C224.786 344.624 227.476 329.399 225.404 329.255C222.578 329.049 216.38 328.213 214.06 327.664C202.122 324.831 195.137 312.651 192.761 299.765C194.093 302.35 186.514 311.794 184.981 312.542C181.232 314.366 178.261 314.167 181.224 315.216Z" fill="none" opacity="1" stroke="#000000" stroke-linecap="butt" stroke-linejoin="round" stroke-width="7" vectornator:layerName="path"/>
<path d="M216.139 466.343C204.651 471.898 187.895 475.101 175.901 479.785C168.707 482.59 156.159 493.015 149.238 496.163L149.23 496.163C148.307 481.328 146.372 468.456 143.104 458.607C140.246 453.292 136.81 448.183 132.964 443.224L132.964 443.217C156.255 460.987 181.416 466.974 216.139 466.343Z" fill="none" opacity="1" stroke="#000000" stroke-linecap="butt" stroke-linejoin="round" stroke-width="7" vectornator:layerName="path"/>
<path d="M98.7952 287.009C100.072 286.652 100.826 282.558 101.019 281.584C101.429 279.526 100.915 276.996 101.629 275.041C102.424 272.853 103.982 273.539 106.607 273.073C109.2 272.613 111.649 271.687 114.274 271.324C117.357 270.892 120.504 270.775 123.603 270.535C127.12 270.261 130.7 270.227 134.233 269.801C140.062 269.095 146.364 267.977 151.888 266.256C149.479 267.909 146.541 269.41 145.079 271.777C143.434 274.444 143.153 277.572 142.615 280.473C141.651 285.678 141.491 290.959 141.113 296.219C138.721 295.245 138.978 291.103 138.03 289.045C137.476 287.825 136.417 286.981 135.694 285.836C134.915 284.588 134.827 283.093 134.113 281.865C132.683 279.43 128.276 278.354 125.337 277.387C120.528 275.802 118.248 278.388 114.354 280.747C111.761 282.318 109.256 284.046 106.39 285.253C103.877 286.302 101.356 286.295 98.7952 287.009Z" fill="none" opacity="1" stroke="#000000" stroke-linecap="butt" stroke-linejoin="round" stroke-width="7" vectornator:layerName="path"/>
<path d="M233.908 665.331C233.849 665.335 233.793 665.348 233.733 665.353C233.398 665.375 233.017 665.395 232.679 665.417C232.229 665.446 231.729 665.453 231.274 665.481L232.027 676.004C232.102 676.835 232.201 677.66 232.278 678.49C232.858 684.821 233.385 691.181 234.034 697.457C233.941 687.488 233.942 676.23 233.908 665.331Z" fill="none" opacity="1" stroke="#000000" stroke-linecap="butt" stroke-linejoin="round" stroke-width="7"/>
<path d="M218.504 490.405C216.729 498.494 217.678 512.382 219.131 526.281C219.829 526.123 220.539 525.988 221.238 525.831C224.74 525.047 228.248 524.286 231.776 523.538C232.019 523.487 232.261 523.439 232.503 523.388C231.551 513.01 229.869 503.782 226.733 497.734C224.797 494.002 222.399 491.325 219.282 490.405C219.282 490.405 218.89 490.405 218.679 490.405C218.618 490.405 218.504 490.404 218.504 490.405Z" fill="none" opacity="1" stroke="#000000" stroke-linecap="butt" stroke-linejoin="round" stroke-width="7"/>
<path d="M247.162 488.097C250.839 489.229 262.311 492.034 262.311 492.034C260.762 496.355 256.9 506.237 255.503 510.435C254.146 506.416 252.099 500.38 250.63 496.163C249.947 494.208 247.162 488.097 247.162 488.097Z" fill="none" opacity="1" stroke="#000000" stroke-linecap="butt" stroke-linejoin="round" stroke-width="7" vectornator:layerName="path"/>
<path d="M123.065 206.898C138.809 206.171 139.652 207.831 152.233 209.1C154.176 209.298 153.654 210.313 155.653 210.505C162.991 211.205 180.092 211.431 190.063 215.1C191.637 215.677 189.605 217.172 190.994 217.665C193.997 218.728 196.791 219.977 197.361 222.343C198.766 228.124 199.577 240.441 195.137 244.639C177.137 261.633 138.368 273.505 100.851 272.257" fill="none" opacity="1" stroke="#000000" stroke-linecap="butt" stroke-linejoin="round" stroke-width="7" vectornator:layerName="path"/>
<path d="M146.38 215.594C138.793 220.731 147.472 228.721 153.14 231.204C159.129 233.823 166.596 234.283 174.151 234.283" fill="none" opacity="1" stroke="#000000" stroke-linecap="butt" stroke-linejoin="round" stroke-width="7" vectornator:layerName="path"/>
<path d="M178.494 234.29C180.71 227.061 185.728 219.963 189.204 218.591C184.636 223.083 182.918 226.835 182.123 232.959" fill="none" opacity="1" stroke="#000000" stroke-linecap="butt" stroke-linejoin="round" stroke-width="7" vectornator:layerName="path"/>
<path d="M152.867 294.415C152.096 288.888 152.803 282.441 155.444 277.441C157.491 273.553 162.292 272.407 166.748 271.187C170.979 270.021 177.771 269.554 181.192 272.167C183.464 273.909 184.909 276.612 186.081 279.019C188.851 284.69 190.826 292.406 189.405 298.503C188.088 304.147 182.115 304.01 176.527 304.188C171.437 304.346 166.909 303.921 161.867 303.18C159.916 302.892 157.283 302.94 155.613 301.905C153.469 300.581 153.541 298.05 153.148 296.041C153.036 295.506 152.947 294.964 152.867 294.415Z" fill="none" opacity="1" stroke="#000000" stroke-linecap="butt" stroke-linejoin="round" stroke-width="7" vectornator:layerName="path"/>
<path d="M208.336 307.46C208.127 303.036 208.063 298.619 208.561 294.21C209.018 290.15 210.471 285.047 214.084 282.112C218.155 278.806 223.341 278.059 228.728 278.045C235.44 278.031 241.405 280.226 245.219 285.116C248.221 288.97 247.732 294.539 248.245 298.983C248.783 303.653 249.626 308.962 247.025 313.323C244.665 317.287 237.576 317.164 233.128 317.068C227.436 316.945 221.759 316.416 216.172 315.484C212.173 314.819 208.625 313.125 208.424 309.209C208.392 308.626 208.368 308.043 208.336 307.46Z" fill="none" opacity="1" stroke="#000000" stroke-linecap="butt" stroke-linejoin="round" stroke-width="7" vectornator:layerName="path"/>
<path d="M266.269 284.094C266.43 276.31 266.59 263.8 276.795 260.495C282.591 258.616 288.139 257.8 293.895 259.994C299.844 262.264 302.614 267.998 303.682 273.265C305.344 281.467 307.239 292.303 294.778 293.702C286.654 294.614 278.601 292.406 270.653 291.37C267.225 290.925 266.542 290.657 266.358 287.77C266.269 286.59 266.237 285.363 266.269 284.094Z" fill="none" opacity="1" stroke="#000000" stroke-linecap="butt" stroke-linejoin="round" stroke-width="7" vectornator:layerName="path"/>
<path d="M132.964 443.211C137.541 446.989 148.186 453.203 153.871 455.644C172.794 463.771 194.968 467.036 216.131 466.35" fill="none" opacity="1" stroke="#000000" stroke-linecap="butt" stroke-linejoin="round" stroke-width="7" vectornator:layerName="path"/>
<path d="M374.983 433.211C374.975 433.232 374.975 433.246 374.959 433.266C362.322 465.033 353.611 464.917 331.075 468.312C324.813 469.258 305.938 470.431 299.579 470.28" fill="none" opacity="1" stroke="#000000" stroke-linecap="butt" stroke-linejoin="round" stroke-width="7" vectornator:layerName="path"/>
<path d="M331.661 301.994C325.511 303.393 291.575 313.831 270.693 324.694C252.597 334.104 239.382 344.48 233.2 363.594" fill="none" opacity="1" stroke="#000000" stroke-linecap="butt" stroke-linejoin="round" stroke-width="7" vectornator:layerName="path"/>
<path d="M246.013 485.958C250.236 493.399 252.773 502.63 255.503 510.435C257.743 503.055 260.521 495.792 263.813 488.701" fill="none" opacity="1" stroke="#000000" stroke-linecap="butt" stroke-linejoin="round" stroke-width="7" vectornator:layerName="path"/>
<path d="M190.609 216.376L187.141 220.073C184.957 222.398 183.158 224.963 181.786 227.706L179.289 232.699C178.799 233.672 177.675 234.297 176.431 234.269C173.412 234.214 167.318 233.974 159.852 233.041C149.102 231.697 143.939 222.816 143.939 222.816C140.511 216.52 151.631 210.958 153.935 209.792L153.935 209.792C154.296 210.094 154.657 210.396 155.669 210.492C163.007 211.191 180.108 211.424 190.079 215.087C191.5 215.615 190.609 216.376 190.609 216.376Z" fill="none" opacity="1" stroke="#000000" stroke-linecap="butt" stroke-linejoin="round" stroke-width="7" vectornator:layerName="path"/>
<path d="M105.355 233.707C104.632 226.622 106.984 219.332 111.858 213.564" fill="none" opacity="1" stroke="#000000" stroke-linecap="butt" stroke-linejoin="round" stroke-width="7" vectornator:layerName="path"/>
<path d="M100.096 227.898C101.22 222.644 103.636 217.597 107.153 213.173" fill="none" opacity="1" stroke="#000000" stroke-linecap="butt" stroke-linejoin="round" stroke-width="7" vectornator:layerName="path"/>
<path d="M211.884 249.357C226.673 249.446 241.469 247.91 255.808 244.803" fill="none" opacity="1" stroke="#000000" stroke-linecap="butt" stroke-linejoin="round" stroke-width="7" vectornator:layerName="path"/>
<path d="M233.441 251.353C239.494 251.613 245.556 251.874 251.609 252.135" fill="none" opacity="1" stroke="#000000" stroke-linecap="butt" stroke-linejoin="round" stroke-width="7" vectornator:layerName="path"/>
<path d="M273.198 238.967C286.67 241.196 300.447 242.087 314.159 241.628" fill="none" opacity="1" stroke="#000000" stroke-linecap="butt" stroke-linejoin="round" stroke-width="7" vectornator:layerName="path"/>
<path d="M278.657 243.816C281.194 243.816 283.731 243.816 286.26 243.816" fill="none" opacity="1" stroke="#000000" stroke-linecap="butt" stroke-linejoin="round" stroke-width="7" vectornator:layerName="path"/>
<path d="M354.269 162.018C362.651 163.232 371.161 163.788 379.655 163.678" fill="none" opacity="1" stroke="#000000" stroke-linecap="butt" stroke-linejoin="round" stroke-width="7" vectornator:layerName="path"/>
<path d="M337.386 114.971C345.286 117.076 353.651 117.913 361.905 117.433" fill="none" opacity="1" stroke="#000000" stroke-linecap="butt" stroke-linejoin="round" stroke-width="7" vectornator:layerName="path"/>
<path d="M338.245 120.752C341.617 120.458 344.997 120.156 348.369 119.861" fill="none" opacity="1" stroke="#000000" stroke-linecap="butt" stroke-linejoin="round" stroke-width="7" vectornator:layerName="path"/>
<path d="M334.11 202.728C345.88 205.506 358.155 206.713 370.359 206.301" fill="none" opacity="1" stroke="#000000" stroke-linecap="butt" stroke-linejoin="round" stroke-width="7" vectornator:layerName="path"/>
<path d="M338.662 209.154C344.579 209.154 350.496 209.154 356.413 209.154" fill="none" opacity="1" stroke="#000000" stroke-linecap="butt" stroke-linejoin="round" stroke-width="7" vectornator:layerName="path"/>
<path d="M218.504 488.09L218.679 490.405L221.238 525.831C224.74 525.047 228.248 524.286 231.776 523.538C231.206 514.749 230.196 505.139 226.733 497.734C224.836 493.679 222.254 490.255 218.504 488.09Z" fill="none" opacity="1" stroke="#000000" stroke-linecap="butt" stroke-linejoin="round" stroke-width="7"/>
<path d="M232.679 665.417C232.229 665.446 231.729 665.453 231.274 665.481L232.027 676.004C232.102 676.835 232.201 677.66 232.278 678.49C232.367 674.312 232.55 669.687 232.679 665.417Z" fill="none" opacity="1" stroke="#000000" stroke-linecap="butt" stroke-linejoin="round" stroke-width="7"/>
<path d="M333.487 561.494C332.957 561.491 332.413 561.514 331.881 561.515C327.769 561.528 323.602 561.68 319.412 561.923C318.166 561.994 316.922 562.071 315.673 562.158C313.126 562.338 310.591 562.586 308.046 562.823C304.368 563.165 300.736 563.557 297.108 563.98C296.833 564.012 296.554 564.033 296.28 564.066C296.271 564.067 296.263 564.065 296.255 564.066C287.754 565.072 279.261 566.183 271.542 567.195C259.086 568.828 246.802 571.065 234.611 573.646C234.207 573.731 233.81 573.838 233.407 573.924C230.543 574.537 227.679 575.16 224.826 575.81C224.542 575.875 224.257 575.938 223.973 576.003C217.527 577.482 211.111 579.004 204.705 580.633C190.888 584.15 177.524 588.896 164.261 593.642C159.502 595.347 154.385 598.612 149.785 600.628C148.252 601.3 146.783 601.841 145.394 602.129C145.392 602.15 145.396 602.171 145.394 602.193C145.097 605.341 144.787 608.459 144.466 611.58L144.466 611.666C144.456 611.774 144.432 611.906 144.416 612.03C144.405 612.111 144.403 612.18 144.391 612.266C144.239 613.795 144.066 615.315 143.914 616.831C143.913 616.838 143.915 616.845 143.914 616.852C146.028 618.843 149.622 619.725 153.523 620.646C160.283 622.251 167.412 622.914 174.372 623.518C191.789 625.03 209.838 625.511 227.837 625.168C228.013 625.164 228.187 625.15 228.364 625.146C230.109 625.111 231.839 625.005 233.582 624.954C233.7 624.95 233.816 624.936 233.933 624.932C247.914 624.508 261.827 623.701 275.33 622.232C291.195 620.503 306.528 617.728 322.071 614.923C332.942 612.962 335.81 610.677 343.597 604.443C347.002 601.721 350.484 598.922 352.981 595.528C353.358 595.016 353.565 594.476 353.809 593.942C353.785 593.7 353.841 593.455 353.834 593.213C353.831 592.549 353.834 591.888 353.834 591.241C353.818 589.095 353.809 587.038 353.809 585.09C353.809 584.892 353.809 584.708 353.809 584.512C353.679 583.498 353.512 582.481 353.508 581.447L353.633 580.847C353.684 580.847 353.756 580.848 353.809 580.847L353.809 580.825C353.809 572.671 353.837 566.893 353.909 564.451C353.925 564.15 353.934 563.853 353.934 563.551C353.94 563.352 353.929 563.151 353.934 562.951C353.778 562.931 353.643 562.933 353.483 562.908C347.12 561.943 340.388 561.532 333.487 561.494Z" fill="none" opacity="1" stroke="#000000" stroke-linecap="butt" stroke-linejoin="round" stroke-width="7"/>
</g>
<path d="M295.373 578.646C285.778 579.016 276.176 579.394 266.631 580.319C242.425 582.672 218.741 588.59 194.406 589.571C200.355 582.247 211.025 579.058 221.037 576.547C235.697 572.871 250.533 569.71 265.378 566.624C286.437 562.255 332.151 556.858 353.884 556.131C353.884 556.131 354.783 550.123 353.796 576.493C334.913 579.881 314.801 577.892 295.373 578.646Z" fill="none" opacity="1" stroke="#000000" stroke-linecap="butt" stroke-linejoin="round" stroke-width="7" vectornator:layerName="path"/>
<g opacity="1" vectornator:layerName="rope">
<path d="M343.623 509.479C342.552 509.487 341.527 509.512 340.486 509.543C336.882 509.654 333.296 509.83 330.576 509.95C297.746 511.39 264.664 516.604 232.503 523.388C232.261 523.439 232.019 523.486 231.776 523.538C228.248 524.286 224.74 525.047 221.238 525.831C220.539 525.988 219.83 526.123 219.131 526.281C216.875 526.792 214.576 527.236 212.332 527.76C194.636 531.89 172.723 536.958 156.057 545.441C153.676 546.653 151.397 547.941 149.258 549.299C149.163 549.36 149.051 549.41 148.957 549.471C140.222 555.074 136.497 560.201 136.112 569.295C135.75 577.827 133.917 587.078 136.237 595.506C137.329 599.491 139.088 601.464 141.28 602.15C142.518 602.538 143.914 602.436 145.394 602.129C150.948 600.977 157.916 595.916 164.261 593.642C177.524 588.896 190.888 584.15 204.705 580.633C211.111 579.004 217.527 577.482 223.973 576.003C224.257 575.938 224.542 575.876 224.826 575.81C227.679 575.16 230.543 574.536 233.407 573.924C233.81 573.838 234.207 573.731 234.611 573.646C246.802 571.065 259.086 568.828 271.542 567.195C296.808 563.882 328.032 559.047 353.483 562.908C353.643 562.933 353.778 562.932 353.934 562.951C367.553 564.715 365.393 551.002 368.536 540.791C370.784 533.5 372.997 523.616 368.059 516.551C365.623 513.068 361.107 511.228 355.891 510.293C353.903 509.937 351.792 509.737 349.669 509.607C349.177 509.577 348.683 509.564 348.189 509.543C346.658 509.48 345.14 509.47 343.623 509.479Z" fill="none" opacity="1" stroke="#000000" stroke-linecap="butt" stroke-linejoin="round" stroke-width="7"/>
<path d="M355.991 580.783C355.716 580.773 355.467 580.793 355.189 580.804C353.629 581.568 354.303 583.356 354.461 584.94C354.779 588.006 355.104 591.101 353.809 593.942C353.818 593.937 353.825 593.925 353.834 593.92C356.389 592.637 358.209 587.79 358.601 585.412C358.777 584.335 358.892 582.353 358.049 581.468C357.555 580.951 356.801 580.811 355.991 580.783Z" fill="none" opacity="1" stroke="#000000" stroke-linecap="butt" stroke-linejoin="round" stroke-width="7"/>
<path d="M357.472 580.354C356.88 580.322 356.293 580.395 355.715 580.525C355.463 580.583 355.371 580.715 355.189 580.804C356.285 580.76 357.387 580.774 358.049 581.468C358.892 582.353 358.777 584.335 358.601 585.412C358.209 587.79 356.389 592.637 353.834 593.92C353.825 593.925 353.818 593.936 353.809 593.942C353.565 594.476 353.358 595.016 352.981 595.528C350.484 598.922 347.002 601.721 343.597 604.443C335.81 610.677 332.942 612.962 322.071 614.923C306.528 617.728 291.195 620.503 275.33 622.232C261.827 623.701 247.914 624.508 233.933 624.932C233.816 624.936 233.7 624.95 233.582 624.954C231.839 625.005 230.109 625.111 228.364 625.146C228.339 625.147 228.314 625.146 228.288 625.146C228.138 625.152 227.988 625.165 227.837 625.168C220.011 625.317 212.207 625.253 204.429 625.061C201.94 625.003 199.455 624.961 196.977 624.868C196.919 624.866 196.86 624.87 196.802 624.868C189.252 624.582 181.746 624.158 174.372 623.518C170.9 623.217 167.374 622.908 163.885 622.467C163.877 622.466 163.868 622.468 163.86 622.467C160.363 622.026 156.903 621.448 153.523 620.646C151.858 620.253 150.319 619.828 148.857 619.36C148.268 619.171 147.686 618.981 147.151 618.76C147.134 618.753 147.117 618.745 147.1 618.738C146.881 618.647 146.662 618.556 146.448 618.46C146.358 618.417 146.261 618.375 146.172 618.331C145.325 617.908 144.535 617.437 143.914 616.852C143.915 616.845 143.913 616.838 143.914 616.831C143.61 616.536 143.452 616.123 143.212 615.781C143.162 615.883 143.075 616.141 143.036 616.209C141.741 616.278 136.98 613.802 137.416 612.502C137.375 612.522 137.25 612.569 137.215 612.587L137.015 612.673C136.285 612.984 135.126 613.358 134.983 613.488C130.992 617.067 130.951 626.278 131.345 630.633C131.947 637.265 132.971 645.574 133.879 652.172C134.358 655.674 136.163 658.185 138.821 660.016C146.705 665.446 162.018 664.786 171.888 665.438C189.932 666.624 212.327 666.624 231.048 665.481C231.121 665.477 231.202 665.485 231.274 665.481C231.729 665.453 232.229 665.446 232.679 665.417C233.017 665.395 233.398 665.376 233.733 665.353C233.793 665.348 233.849 665.335 233.908 665.331C264.804 663.204 290.892 658.085 318.408 645.914C324.839 643.068 334.272 634.85 341.089 634.405C344.744 634.163 349.771 636.853 354.11 637.513C354.11 637.519 354.11 637.527 354.11 637.534C356.411 637.884 358.523 637.674 360.106 636.098C362.218 633.993 361.844 624.592 362.214 621.932C363.217 614.73 363.451 607.471 364.045 600.243C364.43 595.572 364.522 590.608 363.117 586.055C362.515 584.093 361.507 581.686 359.203 580.74C358.657 580.517 358.064 580.386 357.472 580.354Z" fill="none" opacity="1" stroke="#000000" stroke-linecap="butt" stroke-linejoin="round" stroke-width="7"/>
<path d="M141.004 611.28C140.574 611.326 139.973 611.517 139.398 611.687C139.386 611.692 139.385 611.704 139.373 611.709C138.612 612.017 137.809 612.305 137.416 612.502C136.98 613.802 141.741 616.278 143.036 616.209C143.075 616.141 143.162 615.883 143.212 615.781C142.884 615.313 142.468 614.9 142.283 614.323C142.043 613.548 141.926 612.674 141.982 611.666C142 611.311 141.615 611.214 141.004 611.28Z" fill="none" opacity="1" stroke="#000000" stroke-linecap="butt" stroke-linejoin="round" stroke-width="7"/>
<path d="M353.635 580.848C355.016 580.848 357.071 580.443 358.059 581.478C358.902 582.363 358.765 584.331 358.589 585.408C358.195 587.795 356.373 592.678 353.804 593.94C353.563 591.491 354.294 589.029 354.004 586.56C353.804 584.846 353.507 583.179 353.499 581.451L353.635 580.848Z" fill="none" opacity="1" stroke="#000000" stroke-linecap="butt" stroke-linejoin="round" stroke-width="7" vectornator:layerName="path"/>
<path d="M137.003 612.683C138.063 612.114 143.482 609.7 144.317 610.976C144.879 611.833 143.498 615.378 143.024 616.208C141.724 616.277 136.939 613.781 137.42 612.484L137.003 612.683Z" fill="none" opacity="1" stroke="#000000" stroke-linecap="butt" stroke-linejoin="round" stroke-width="7" vectornator:layerName="path"/>
</g>
<path d="M285.289 650.41C297.556 648.236 307.552 644.43 318.607 639.698C323.954 637.407 330.015 635.096 333.138 630.487C337.241 624.418 332.464 623.499 326.009 623.019C312.425 622.01 298.247 624.102 284.614 624.102C264.399 624.102 244.223 624.459 224.023 624.459C217.593 624.459 211.21 625.522 204.843 625.522L208.577 625.878C204.699 625.755 166.804 622.614 174.994 634.911C176.029 636.474 178.952 637.188 180.533 638.237C184.218 640.671 187.486 643.634 191.203 646.069C198.758 651.014 208.834 652.673 218.058 654.004C233.401 656.219 249.225 655.334 264.551 653.517C271.536 652.687 278.85 651.939 285.465 649.985C292.522 647.9 299.355 644.306 307.142 644.786C296.802 651.672 291.246 660.492 287.127 670.944C281.122 686.176 277.124 704.926 277.052 721.036C277.019 728.388 274.354 740.767 278.681 747.467C284.879 757.082 298.359 746.075 305.705 742.166C311.004 739.347 313.645 740.088 314.705 735.102C316.768 725.446 311.397 713.492 310.113 703.829C308.017 688.027 307.383 674.537 314.817 659.676C318.069 653.181 322.766 646.323 331.212 647.598C336.783 648.442 345.583 650.972 350.881 647.166C354.952 644.245 355.249 631.598 351.797 627.49C346.931 621.709 332.239 622.909 324.741 622.607C325.431 622.984 326.13 623.334 326.852 623.67L285.289 650.41Z" fill="#000000" fill-rule="nonzero" opacity="1" stroke="#000000" stroke-linecap="butt" stroke-linejoin="round" stroke-width="7" vectornator:layerName="path"/>
<g opacity="1" vectornator:layerName="tie">
<path d="M154.609 602.766C156.6 605.818 156.905 609.014 159.667 612.128C165.151 618.307 173.348 620.124 181.44 622.724C209.829 631.859 238.322 635.24 268.437 636.262C281.307 636.701 295.67 636.666 308.322 633.889C317.354 631.907 322.758 629.767 324.709 621.51C326.186 615.248 327.382 605.626 317.635 604.556C312.345 603.973 304.613 608.623 299.379 609.487C293.285 610.495 286.758 610.578 280.56 611.003C268.622 611.819 255.945 611.126 244.263 608.177C229.635 604.481 220.724 596.08 209.476 588.165C193.403 576.856 150.739 582.795 154.609 602.766Z" fill="#000000" fill-rule="nonzero" opacity="1" stroke="#000000" stroke-linecap="butt" stroke-linejoin="round" stroke-width="7" vectornator:layerName="path"/>
<path d="M338.493 607.601C340.733 592.664 359.239 575.56 371.491 565.574C380.892 557.907 391.658 551.392 400.706 543.628C410.541 535.186 426.076 522.32 440.961 526.983C448.267 529.274 455.629 539.225 458.021 545.185C459.153 548.004 461.963 553.024 460.39 555.863C459.587 557.31 457.026 557.461 455.749 558.229C450.467 561.411 444.614 564.004 439.082 566.857C420.432 576.472 403.412 590.435 388.519 604.248C383.14 609.234 378.531 614.151 372.342 618.41C368.785 620.858 364.714 625.535 360.556 627.072C349.621 631.111 346.522 622.95 343.592 615.859C342.62 613.513 339.987 610.605 339.65 608.273C339.184 605.036 341.689 601.381 341.151 598.356" fill="#000000" fill-rule="nonzero" opacity="1" stroke="#000000" stroke-linecap="butt" stroke-linejoin="round" stroke-width="7" vectornator:layerName="path"/>
<path d="M472.32 570.128C460.55 589.592 430.251 603.541 407.9 614.24C397.455 619.24 386.303 623.025 374.389 625.419C366.071 627.092 356.18 630.13 347.606 630.576C340.661 630.933 340.974 629.362 339.674 624.562C338.453 620.049 332.287 609.947 335.812 605.962C337.418 604.145 343.27 602.423 345.703 601.347C352.367 598.404 357.457 595.908 362.78 591.581C378.13 579.147 391.706 565.499 407.827 553.621C412.251 550.356 441.21 532.703 436.706 525.955C418.867 527.436 402.914 544.088 391.297 553.154C387.05 556.467 382.923 559.841 378.917 563.291C379.655 562.337 380.418 561.432 381.277 560.671C395.464 548.065 409.417 531.825 429.874 525.646C440.608 522.409 447.022 529.199 454.28 535.151C465.608 544.431 480.606 556.432 472.32 570.128Z" fill="#000000" fill-rule="nonzero" opacity="1" stroke="#000000" stroke-linecap="butt" stroke-linejoin="round" stroke-width="7" vectornator:layerName="path"/>
<path d="M331.918 606.929C326.499 597.938 315.492 592.966 306.139 587.239C288.886 576.685 270.581 567.625 251.039 560.671C232.558 554.094 213.129 548.724 193.885 555.863C180.501 560.822 162.822 574.408 158.094 586.176C156.119 591.087 151.462 600.023 155.581 605.071C158.126 608.191 162.14 607.78 166.323 606.929C177.161 604.728 185.615 600.133 197.224 599.632C225.806 598.398 255.286 604.906 281.226 615.097C291.848 619.274 301.843 624.706 312.425 628.677C319.089 631.173 327.583 634.972 331.669 627.991C334.977 622.305 336.021 610.242 331.918 606.929Z" fill="#000000" fill-rule="nonzero" opacity="1" stroke="#000000" stroke-linecap="butt" stroke-linejoin="round" stroke-width="7" vectornator:layerName="path"/>
<path d="M344.916 618.643C350.416 630.226 365.012 637.126 375.681 644.622C385.982 651.85 397.455 655.183 410.051 658.139C450.699 667.686 492.584 676.691 529.009 695.825C537.64 700.358 554.741 709.048 558.891 717.25C562.295 723.978 556.98 734.121 554.749 740.609C551.505 750.005 548.342 758.351 538.627 748.612C529.756 739.711 523.349 731.186 511.901 724.28C506.144 720.803 500.821 716.784 495.145 713.341C489.3 709.795 482.099 707.991 475.764 705.214C457.283 697.101 439.371 690.544 419.902 684.098C400.505 677.671 381.004 670.134 365.549 657.693C357.465 651.185 333.853 631.241 345.952 620.838C345.952 620.831 344.916 618.643 344.916 618.643Z" fill="#000000" fill-rule="nonzero" opacity="1" stroke="#000000" stroke-linecap="butt" stroke-linejoin="round" stroke-width="7" vectornator:layerName="path"/>
<path d="M337.931 627.62C329.197 632.778 319.04 638.539 311.197 644.759C307.648 647.571 304.742 649.882 302.494 653.565C298.447 660.204 294.867 667.981 292.362 675.264C286.911 691.113 293.791 706.579 297.171 721.968C299.05 730.514 299.836 747.323 306.893 753.605C313.332 750.649 318.013 745.17 324.01 741.562C327.767 739.299 334.415 737.77 337.289 735.129C344.675 728.326 330.537 717.504 326.643 711.942C315.026 695.366 310.53 674.29 316.15 655.211C318.077 648.689 322.677 643.243 327.896 638.443C329.959 636.543 332.697 635.075 334.68 633.258C336.229 631.845 337.964 627.613 339.377 626.784C339.377 626.77 337.931 627.62 337.931 627.62Z" fill="#000000" fill-rule="nonzero" opacity="1" stroke="#000000" stroke-linecap="butt" stroke-linejoin="round" stroke-width="7" vectornator:layerName="path"/>
<path d="M330.971 634.472C330.256 634.499 329.542 634.485 328.835 634.465C326.194 634.383 323.528 634.19 321.04 633.436C320.462 633.265 319.875 633.038 319.506 632.62C319.137 632.202 319.097 631.536 319.562 631.207C321.015 631.955 323.015 631.824 324.315 630.905C326.162 629.602 325.8 627.257 326.073 625.426C326.467 622.82 326.9 620.22 327.181 617.601C327.727 612.539 327.848 607.396 326.7 602.382C326.491 601.477 326.25 600.558 326.379 599.646C326.515 598.734 327.117 597.808 328.129 597.485C328.635 597.328 329.197 597.335 329.726 597.41C331.485 597.678 332.946 598.713 334.182 599.81C339.192 604.261 343.11 609.638 342.62 616.009C342.122 622.346 341.785 633.052 332.215 634.355C331.806 634.417 331.388 634.451 330.971 634.472Z" fill="#000000" fill-rule="nonzero" opacity="1" stroke="#000000" stroke-linecap="butt" stroke-linejoin="round" stroke-width="7" vectornator:layerName="path"/>
<path d="M340.043 608.184C339.144 605.708 337.94 602.78 336.061 601.539C335.716 601.305 335.314 601.1 335.122 600.757C334.76 600.098 335.394 599.33 336.149 598.994C337.57 598.363 339.361 598.686 340.701 599.44C342.042 600.194 343.005 601.326 343.945 602.437C345.96 604.81 347.999 607.21 349.316 609.926C352.302 616.071 351.395 622.422 350.456 628.745C349.838 632.894 349.107 639.595 344.049 641.714C339.521 643.607 331.846 639.56 333.765 634.904C334.439 633.271 337.121 632.449 338.261 630.782C339.77 628.58 340.131 625.556 340.701 623.019C341.568 619.198 342.419 614.432 340.926 610.646C340.661 609.954 340.372 609.096 340.043 608.184Z" fill="#000000" fill-rule="nonzero" opacity="1" stroke="#000000" stroke-linecap="butt" stroke-linejoin="round" stroke-width="7" vectornator:layerName="path"/>
</g>
</g>
<path d="M0 688C0 688 150 708 300 708C450 708 600 688 600 688L600 848C600 848 450 868 300 868C150 868 0 848 0 848L0 688Z" fill="#e6e3f4" fill-rule="nonzero" opacity="1" stroke="#000000" stroke-linecap="butt" stroke-linejoin="round" stroke-width="0.5" vectornator:layerName="Rectangle 2"/>
<g fill="#000000" opacity="1" stroke="none" vectornator:layerName="Text 1">
<path d="M253.035 799.5L253.035 782.426L238.089 782.426L238.089 799.5L230.174 799.5L230.174 761.253L238.089 761.253L238.089 775.836L253.035 775.836L253.035 761.253L260.975 761.253L260.975 799.5L253.035 799.5Z"/>
<path d="M291.593 774.798C293.98 777.79 295.174 781.328 295.174 785.41C295.174 789.562 293.98 793.113 291.593 796.062C289.206 799.011 285.582 800.486 280.721 800.486C275.86 800.486 272.236 799.011 269.849 796.062C267.461 793.113 266.268 789.562 266.268 785.41C266.268 781.328 267.461 777.79 269.849 774.798C272.236 771.805 275.86 770.309 280.721 770.309C285.582 770.309 289.206 771.805 291.593 774.798ZM280.695 776.562C278.533 776.562 276.868 777.328 275.7 778.859C274.532 780.389 273.948 782.573 273.948 785.41C273.948 788.247 274.532 790.436 275.7 791.975C276.868 793.515 278.533 794.284 280.695 794.284C282.857 794.284 284.518 793.515 285.677 791.975C286.836 790.436 287.415 788.247 287.415 785.41C287.415 782.573 286.836 780.389 285.677 778.859C284.518 777.328 282.857 776.562 280.695 776.562Z"/>
<path d="M316.347 779.001C315.724 777.635 314.505 776.951 312.688 776.951C310.578 776.951 309.16 777.635 308.433 779.001C308.035 779.78 307.836 780.939 307.836 782.478L307.836 799.5L300.337 799.5L300.337 771.269L307.525 771.269L307.525 775.395C308.442 773.924 309.307 772.878 310.12 772.255C311.555 771.148 313.415 770.594 315.698 770.594C317.861 770.594 319.608 771.07 320.94 772.021C322.012 772.904 322.825 774.037 323.379 775.42C324.348 773.76 325.55 772.54 326.986 771.762C328.508 770.983 330.203 770.594 332.071 770.594C333.317 770.594 334.545 770.836 335.756 771.321C336.967 771.805 338.065 772.653 339.051 773.864C339.847 774.85 340.383 776.06 340.66 777.496C340.833 778.448 340.92 779.84 340.92 781.674L340.868 799.5L333.291 799.5L333.291 781.492C333.291 780.42 333.118 779.538 332.772 778.846C332.115 777.531 330.904 776.874 329.139 776.874C327.098 776.874 325.688 777.721 324.91 779.416C324.512 780.316 324.313 781.397 324.313 782.66L324.313 799.5L316.866 799.5L316.866 782.66C316.866 780.982 316.693 779.762 316.347 779.001Z"/>
<path d="M371.927 791.197C371.737 792.875 370.863 794.579 369.307 796.308C366.885 799.059 363.494 800.434 359.135 800.434C355.537 800.434 352.363 799.275 349.612 796.957C346.862 794.639 345.486 790.868 345.486 785.644C345.486 780.748 346.728 776.995 349.21 774.383C351.692 771.77 354.914 770.464 358.876 770.464C361.228 770.464 363.347 770.906 365.233 771.788C367.118 772.67 368.675 774.063 369.903 775.965C371.01 777.643 371.728 779.589 372.057 781.804C372.247 783.101 372.325 784.969 372.291 787.408L352.933 787.408C353.037 790.245 353.928 792.235 355.606 793.376C356.627 794.086 357.855 794.44 359.291 794.44C360.813 794.44 362.05 794.008 363.001 793.143C363.52 792.676 363.979 792.027 364.376 791.197L371.927 791.197ZM364.61 782.53C364.489 780.575 363.896 779.092 362.833 778.08C361.769 777.068 360.45 776.562 358.876 776.562C357.163 776.562 355.835 777.098 354.893 778.171C353.95 779.243 353.357 780.697 353.115 782.53L364.61 782.53Z"/>
</g>
</g>
</svg>
