<?xml version="1.0" encoding="UTF-8" standalone="no"?>
<!DOCTYPE svg PUBLIC "-//W3C//DTD SVG 1.1//EN" "http://www.w3.org/Graphics/SVG/1.1/DTD/svg11.dtd">
<!-- Created with Vectornator (http://vectornator.io/) -->
<svg height="100%" stroke-miterlimit="10" style="fill-rule:nonzero;clip-rule:evenodd;stroke-linecap:round;stroke-linejoin:round;" version="1.1" viewBox="0 0 600 966" width="100%" xml:space="preserve" xmlns="http://www.w3.org/2000/svg" xmlns:vectornator="http://vectornator.io" xmlns:xlink="http://www.w3.org/1999/xlink">
<defs>
<filter color-interpolation-filters="sRGB" filterUnits="userSpaceOnUse" height="970.5" id="Filter" width="550.5" x="29.1642" y="-1.1862">
<feDropShadow dx="4.41425" dy="4.0638" flood-color="#000000" flood-opacity="0.2" in="SourceGraphic" result="Shadow" stdDeviation="2"/>
</filter>
</defs>
<clipPath id="ArtboardFrame">
<rect height="966" width="600" x="0" y="0"/>
</clipPath>
<g clip-path="url(#ArtboardFrame)" id="Layer-1" vectornator:layerName="Layer 1">
<path d="M30 0L570 2.71682e-14L570 960L30 960L30 0Z" fill="#bd33db" fill-rule="nonzero" filter="url(#Filter)" stroke="#ffffff" stroke-linecap="butt" stroke-linejoin="round" stroke-width="0.5" vectornator:layerName="Rectangle 1" vectornator:shadowAngle="0.744085" vectornator:shadowColor="#000000" vectornator:shadowOffset="6" vectornator:shadowOpacity="0.2" vectornator:shadowRadius="4"/>
<g opacity="1" vectornator:layerName="party reaction">
<g opacity="1" vectornator:layerName="The Military Scroll.svg">
<path d="M363.877 489.782L96.3097 489.782C92.3477 489.782 88.3856 488.376 85.4012 485.515C82.4168 482.703 80.8731 478.97 80.8731 475.237L80.8731 213.432L333.004 213.432C328.733 213.432 324.925 211.783 322.095 209.165C319.317 206.499 317.567 202.911 317.567 198.887C317.567 194.911 319.317 191.227 322.095 188.609C324.925 185.942 328.784 184.342 333.004 184.342C341.545 184.342 348.44 190.839 348.44 198.887L348.44 475.237C348.44 483.285 355.335 489.782 363.877 489.782Z" fill="none" opacity="1" stroke="#000000" stroke-linecap="butt" stroke-linejoin="round" stroke-width="5" vectornator:layerName="path"/>
<path d="M322.095 209.165C324.925 211.783 328.733 213.432 333.004 213.432L65.4366 213.432C56.895 213.432 50 206.935 50 198.887C50 190.839 56.895 184.342 65.4366 184.342L333.004 184.342C328.784 184.342 324.925 185.942 322.095 188.609C319.317 191.227 317.567 194.911 317.567 198.887C317.567 202.911 319.317 206.499 322.095 209.165Z" fill="none" opacity="1" stroke="#000000" stroke-linecap="butt" stroke-linejoin="round" stroke-width="5" vectornator:layerName="path"/>
<path d="M379.313 475.237C379.313 483.285 372.418 489.782 363.877 489.782C355.335 489.782 348.44 483.285 348.44 475.237L348.44 460.692L363.877 460.692C372.418 460.692 379.313 467.189 379.313 475.237Z" fill="none" opacity="1" stroke="#000000" stroke-linecap="butt" stroke-linejoin="round" stroke-width="5" vectornator:layerName="path"/>
<path d="M134.711 332.915L294.603 332.915L294.603 332.915L294.603 342.611L294.603 342.611L134.711 342.611L134.711 342.611L134.711 332.915L134.711 332.915Z" fill="none" opacity="1" stroke="#000000" stroke-linecap="butt" stroke-linejoin="round" stroke-width="5" vectornator:layerName="rect"/>
<path d="M134.711 233.585L294.603 233.585L294.603 233.585L294.603 243.282L294.603 243.282L134.711 243.282L134.711 243.282L134.711 233.585L134.711 233.585Z" fill="none" opacity="1" stroke="#000000" stroke-linecap="butt" stroke-linejoin="round" stroke-width="5" vectornator:layerName="rect 1"/>
<path d="M134.711 283.25L294.603 283.25L294.603 283.25L294.603 292.946L294.603 292.946L134.711 292.946L134.711 292.946L134.711 283.25L134.711 283.25Z" fill="none" opacity="1" stroke="#000000" stroke-linecap="butt" stroke-linejoin="round" stroke-width="5" vectornator:layerName="rect"/>
<path d="M134.711 382.579L294.603 382.579L294.603 382.579L294.603 392.276L294.603 392.276L134.711 392.276L134.711 392.276L134.711 382.579L134.711 382.579Z" fill="none" opacity="1" stroke="#000000" stroke-linecap="butt" stroke-linejoin="round" stroke-width="5" vectornator:layerName="rect"/>
<path d="M134.711 432.244L294.603 432.244L294.603 432.244L294.603 441.941L294.603 441.941L134.711 441.941L134.711 441.941L134.711 432.244L134.711 432.244Z" fill="none" opacity="1" stroke="#000000" stroke-linecap="butt" stroke-linejoin="round" stroke-width="5" vectornator:layerName="rect 2"/>
</g>
<path d="M115.98 288.18C115.98 283.408 119.957 279.539 124.863 279.539L541.117 279.539C546.023 279.539 550 283.408 550 288.18L550 595.701C550 600.473 546.023 604.342 541.117 604.342L124.863 604.342C119.957 604.342 115.98 600.473 115.98 595.701L115.98 288.18Z" fill="#bd33db" fill-rule="nonzero" opacity="1" stroke="#000000" stroke-linecap="butt" stroke-linejoin="round" stroke-width="5" vectornator:layerName="Rectangle 1"/>
<path d="M140.54 383.607L525.44 383.607L525.44 391.385L140.54 391.385L140.54 383.607Z" fill="#232323" fill-rule="nonzero" opacity="1" stroke="none" vectornator:layerName="Rectangle 2"/>
<path d="M140.54 403.18L483.96 403.18L483.96 410.957L140.54 410.957L140.54 403.18Z" fill="#232323" fill-rule="nonzero" opacity="1" stroke="none" vectornator:layerName="Rectangle 3"/>
<path d="M140.54 422.753L497.145 422.753L497.145 430.53L140.54 430.53L140.54 422.753Z" fill="#232323" fill-rule="nonzero" opacity="1" stroke="none" vectornator:layerName="Rectangle 4"/>
<path d="M140.54 442.325L466.32 442.325L466.32 450.102L140.54 450.102L140.54 442.325Z" fill="#232323" fill-rule="nonzero" opacity="1" stroke="none" vectornator:layerName="Rectangle 5"/>
<path d="M140.54 461.898L515.733 461.898L515.733 469.675L140.54 469.675L140.54 461.898Z" fill="#232323" fill-rule="nonzero" opacity="1" stroke="none" vectornator:layerName="Rectangle 6"/>
<path d="M140.54 481.47L525.44 481.47L525.44 489.248L140.54 489.248L140.54 481.47Z" fill="#232323" fill-rule="nonzero" opacity="1" stroke="none" vectornator:layerName="Rectangle 7"/>
<g fill="#000000" opacity="1" stroke="none" vectornator:layerName="Text 1">
<path d="M150.384 318.71C149.985 318.233 149.415 317.995 148.673 317.995C147.657 317.995 146.966 318.374 146.599 319.132C146.388 319.569 146.263 320.265 146.224 321.218L142.978 321.218C143.032 319.772 143.294 318.604 143.763 317.714C144.653 316.018 146.235 315.171 148.509 315.171C150.306 315.171 151.735 315.669 152.798 316.665C153.86 317.661 154.392 318.979 154.392 320.62C154.392 321.878 154.017 322.995 153.267 323.972C152.775 324.62 151.966 325.343 150.841 326.14L149.505 327.089C148.669 327.683 148.097 328.112 147.788 328.378C147.48 328.643 147.22 328.952 147.009 329.304L154.427 329.304L154.427 332.245L142.79 332.245C142.821 331.026 143.083 329.913 143.575 328.905C144.052 327.772 145.177 326.573 146.95 325.308C148.489 324.206 149.485 323.417 149.939 322.94C150.634 322.198 150.982 321.386 150.982 320.503C150.982 319.784 150.782 319.186 150.384 318.71Z"/>
<path d="M161.997 332.667C159.833 332.667 158.316 331.909 157.444 330.393C156.573 328.878 156.138 326.718 156.138 323.913C156.138 321.108 156.573 318.944 157.444 317.421C158.316 315.897 159.833 315.136 161.997 315.136C164.161 315.136 165.681 315.897 166.556 317.421C167.423 318.944 167.857 321.108 167.857 323.913C167.857 326.718 167.421 328.878 166.55 330.393C165.679 331.909 164.161 332.667 161.997 332.667ZM163.954 328.39C164.259 327.358 164.411 325.866 164.411 323.913C164.411 321.866 164.257 320.351 163.948 319.366C163.64 318.382 162.989 317.89 161.997 317.89C161.005 317.89 160.349 318.382 160.028 319.366C159.708 320.351 159.548 321.866 159.548 323.913C159.548 325.866 159.708 327.36 160.028 328.395C160.349 329.431 161.005 329.948 161.997 329.948C162.989 329.948 163.642 329.429 163.954 328.39Z"/>
<path d="M177.079 318.71C176.681 318.233 176.11 317.995 175.368 317.995C174.353 317.995 173.661 318.374 173.294 319.132C173.083 319.569 172.958 320.265 172.919 321.218L169.673 321.218C169.728 319.772 169.989 318.604 170.458 317.714C171.349 316.018 172.931 315.171 175.204 315.171C177.001 315.171 178.431 315.669 179.493 316.665C180.556 317.661 181.087 318.979 181.087 320.62C181.087 321.878 180.712 322.995 179.962 323.972C179.47 324.62 178.661 325.343 177.536 326.14L176.2 327.089C175.364 327.683 174.792 328.112 174.484 328.378C174.175 328.643 173.915 328.952 173.704 329.304L181.122 329.304L181.122 332.245L169.485 332.245C169.517 331.026 169.778 329.913 170.271 328.905C170.747 327.772 171.872 326.573 173.646 325.308C175.185 324.206 176.181 323.417 176.634 322.94C177.329 322.198 177.677 321.386 177.677 320.503C177.677 319.784 177.478 319.186 177.079 318.71Z"/>
<path d="M188.692 332.667C186.528 332.667 185.011 331.909 184.14 330.393C183.269 328.878 182.833 326.718 182.833 323.913C182.833 321.108 183.269 318.944 184.14 317.421C185.011 315.897 186.528 315.136 188.692 315.136C190.857 315.136 192.376 315.897 193.251 317.421C194.118 318.944 194.552 321.108 194.552 323.913C194.552 326.718 194.116 328.878 193.245 330.393C192.374 331.909 190.857 332.667 188.692 332.667ZM190.65 328.39C190.954 327.358 191.107 325.866 191.107 323.913C191.107 321.866 190.952 320.351 190.644 319.366C190.335 318.382 189.685 317.89 188.692 317.89C187.7 317.89 187.044 318.382 186.724 319.366C186.403 320.351 186.243 321.866 186.243 323.913C186.243 325.866 186.403 327.36 186.724 328.395C187.044 329.431 187.7 329.948 188.692 329.948C189.685 329.948 190.337 329.429 190.65 328.39Z"/>
<path d="M207.232 332.245L203.868 332.245L203.868 314.972L209.118 314.972L212.259 328.554L215.376 314.972L220.567 314.972L220.567 332.245L217.204 332.245L217.204 320.561C217.204 320.226 217.208 319.755 217.216 319.149C217.224 318.544 217.228 318.077 217.228 317.749L213.958 332.245L210.454 332.245L207.208 317.749C207.208 318.077 207.212 318.544 207.22 319.149C207.228 319.755 207.232 320.226 207.232 320.561L207.232 332.245Z"/>
<path d="M228.841 328.893L231.478 319.472L235.028 319.472L230.646 332.034C229.802 334.456 229.134 335.958 228.642 336.54C228.15 337.122 227.165 337.413 225.689 337.413C225.392 337.413 225.153 337.411 224.974 337.407C224.794 337.403 224.525 337.39 224.165 337.366L224.165 334.694L224.587 334.718C224.915 334.733 225.228 334.722 225.525 334.683C225.821 334.643 226.071 334.554 226.275 334.413C226.47 334.28 226.651 334.003 226.819 333.581C226.987 333.159 227.056 332.901 227.025 332.808L222.337 319.472L226.052 319.472L228.841 328.893Z"/>
<path d="M237.478 320.854C238.36 319.729 239.876 319.167 242.025 319.167C243.423 319.167 244.665 319.444 245.751 319.999C246.837 320.554 247.38 321.601 247.38 323.14L247.38 328.999C247.38 329.405 247.388 329.897 247.403 330.476C247.427 330.913 247.493 331.21 247.603 331.366C247.712 331.522 247.876 331.651 248.095 331.753L248.095 332.245L244.462 332.245C244.36 331.987 244.29 331.745 244.251 331.518C244.212 331.292 244.181 331.034 244.157 330.745C243.696 331.245 243.165 331.671 242.564 332.022C241.845 332.436 241.032 332.643 240.126 332.643C238.97 332.643 238.015 332.313 237.261 331.653C236.507 330.993 236.13 330.058 236.13 328.847C236.13 327.276 236.735 326.14 237.946 325.436C238.61 325.054 239.587 324.78 240.876 324.616L242.013 324.476C242.63 324.397 243.071 324.3 243.337 324.183C243.814 323.979 244.052 323.663 244.052 323.233C244.052 322.71 243.87 322.349 243.507 322.149C243.144 321.95 242.61 321.851 241.907 321.851C241.118 321.851 240.56 322.046 240.232 322.436C239.997 322.726 239.841 323.116 239.763 323.608L236.54 323.608C236.61 322.491 236.923 321.573 237.478 320.854ZM239.962 329.831C240.275 330.089 240.657 330.218 241.11 330.218C241.829 330.218 242.491 330.007 243.097 329.585C243.702 329.163 244.017 328.393 244.04 327.276L244.04 326.034C243.829 326.167 243.616 326.274 243.401 326.356C243.187 326.438 242.892 326.515 242.517 326.585L241.767 326.726C241.064 326.851 240.56 327.003 240.255 327.183C239.739 327.487 239.482 327.96 239.482 328.601C239.482 329.171 239.642 329.581 239.962 329.831Z"/>
<path d="M256.357 321.944C255.224 321.944 254.446 322.425 254.025 323.386C253.806 323.893 253.696 324.542 253.696 325.331L253.696 332.245L250.368 332.245L250.368 319.495L253.591 319.495L253.591 321.358C254.021 320.702 254.427 320.229 254.81 319.94C255.497 319.425 256.368 319.167 257.423 319.167C258.743 319.167 259.823 319.513 260.663 320.204C261.503 320.895 261.923 322.042 261.923 323.643L261.923 332.245L258.501 332.245L258.501 324.476C258.501 323.804 258.411 323.288 258.232 322.929C257.903 322.272 257.278 321.944 256.357 321.944Z"/>
<path d="M272.177 322.987C271.896 322.37 271.345 322.061 270.525 322.061C269.571 322.061 268.931 322.37 268.603 322.987C268.423 323.339 268.333 323.862 268.333 324.558L268.333 332.245L264.946 332.245L264.946 319.495L268.192 319.495L268.192 321.358C268.607 320.694 268.997 320.222 269.364 319.94C270.013 319.44 270.853 319.19 271.884 319.19C272.86 319.19 273.65 319.405 274.251 319.835C274.735 320.233 275.103 320.745 275.353 321.37C275.79 320.62 276.333 320.069 276.982 319.718C277.669 319.366 278.435 319.19 279.278 319.19C279.841 319.19 280.396 319.3 280.942 319.518C281.489 319.737 281.985 320.12 282.431 320.667C282.79 321.112 283.032 321.659 283.157 322.308C283.235 322.737 283.275 323.366 283.275 324.194L283.251 332.245L279.829 332.245L279.829 324.112C279.829 323.628 279.751 323.229 279.595 322.917C279.298 322.323 278.751 322.026 277.954 322.026C277.032 322.026 276.396 322.409 276.044 323.175C275.864 323.581 275.775 324.069 275.775 324.64L275.775 332.245L272.411 332.245L272.411 324.64C272.411 323.882 272.333 323.331 272.177 322.987Z"/>
<path d="M286.825 320.854C287.708 319.729 289.224 319.167 291.372 319.167C292.771 319.167 294.013 319.444 295.099 319.999C296.185 320.554 296.728 321.601 296.728 323.14L296.728 328.999C296.728 329.405 296.735 329.897 296.751 330.476C296.775 330.913 296.841 331.21 296.95 331.366C297.06 331.522 297.224 331.651 297.442 331.753L297.442 332.245L293.81 332.245C293.708 331.987 293.638 331.745 293.599 331.518C293.56 331.292 293.528 331.034 293.505 330.745C293.044 331.245 292.513 331.671 291.911 332.022C291.192 332.436 290.38 332.643 289.474 332.643C288.317 332.643 287.362 332.313 286.609 331.653C285.855 330.993 285.478 330.058 285.478 328.847C285.478 327.276 286.083 326.14 287.294 325.436C287.958 325.054 288.935 324.78 290.224 324.616L291.36 324.476C291.978 324.397 292.419 324.3 292.685 324.183C293.161 323.979 293.4 323.663 293.4 323.233C293.4 322.71 293.218 322.349 292.855 322.149C292.491 321.95 291.958 321.851 291.255 321.851C290.466 321.851 289.907 322.046 289.579 322.436C289.345 322.726 289.189 323.116 289.11 323.608L285.888 323.608C285.958 322.491 286.271 321.573 286.825 320.854ZM289.31 329.831C289.622 330.089 290.005 330.218 290.458 330.218C291.177 330.218 291.839 330.007 292.444 329.585C293.05 329.163 293.364 328.393 293.388 327.276L293.388 326.034C293.177 326.167 292.964 326.274 292.749 326.356C292.534 326.438 292.239 326.515 291.864 326.585L291.114 326.726C290.411 326.851 289.907 327.003 289.603 327.183C289.087 327.487 288.829 327.96 288.829 328.601C288.829 329.171 288.989 329.581 289.31 329.831Z"/>
<path d="M306.114 322.554C304.771 322.554 303.868 322.991 303.407 323.866C303.15 324.358 303.021 325.116 303.021 326.14L303.021 332.245L299.657 332.245L299.657 319.472L302.845 319.472L302.845 321.698C303.36 320.847 303.81 320.265 304.192 319.952C304.817 319.429 305.63 319.167 306.63 319.167C306.692 319.167 306.745 319.169 306.788 319.173C306.831 319.177 306.927 319.183 307.075 319.19L307.075 322.612C306.864 322.589 306.677 322.573 306.513 322.565C306.349 322.558 306.216 322.554 306.114 322.554Z"/>
<path d="M327.993 324.698L319.603 324.698L319.603 329.14L329.165 329.14L329.165 332.245L316.075 332.245L316.075 314.972L328.743 314.972L328.743 318.03L319.603 318.03L319.603 321.698L327.993 321.698L327.993 324.698Z"/>
<path d="M331.778 314.972L335.118 314.972L335.118 332.245L331.778 332.245L331.778 314.972Z"/>
<path d="M349.31 328.495C349.224 329.253 348.829 330.022 348.126 330.804C347.032 332.046 345.501 332.667 343.532 332.667C341.907 332.667 340.474 332.143 339.232 331.097C337.989 330.05 337.368 328.347 337.368 325.987C337.368 323.776 337.929 322.081 339.05 320.901C340.171 319.722 341.626 319.132 343.415 319.132C344.478 319.132 345.435 319.331 346.286 319.729C347.138 320.128 347.841 320.757 348.396 321.616C348.896 322.374 349.22 323.253 349.368 324.253C349.454 324.839 349.489 325.683 349.474 326.784L340.732 326.784C340.778 328.065 341.181 328.964 341.939 329.479C342.4 329.8 342.954 329.96 343.603 329.96C344.29 329.96 344.849 329.765 345.278 329.374C345.513 329.163 345.72 328.87 345.9 328.495L349.31 328.495ZM346.005 324.581C345.95 323.698 345.683 323.028 345.202 322.571C344.722 322.114 344.126 321.886 343.415 321.886C342.642 321.886 342.042 322.128 341.616 322.612C341.191 323.097 340.923 323.753 340.814 324.581L346.005 324.581Z"/>
<path d="M362.775 324.054L359.353 324.054C359.29 323.577 359.13 323.147 358.872 322.765C358.497 322.249 357.915 321.991 357.126 321.991C356.001 321.991 355.232 322.55 354.817 323.667C354.599 324.261 354.489 325.05 354.489 326.034C354.489 326.972 354.599 327.726 354.817 328.296C355.216 329.358 355.966 329.89 357.067 329.89C357.849 329.89 358.403 329.679 358.732 329.257C359.06 328.835 359.259 328.288 359.329 327.616L362.739 327.616C362.661 328.632 362.294 329.593 361.638 330.499C360.591 331.96 359.04 332.69 356.985 332.69C354.931 332.69 353.419 332.081 352.45 330.862C351.482 329.643 350.997 328.061 350.997 326.116C350.997 323.921 351.532 322.214 352.603 320.995C353.673 319.776 355.15 319.167 357.032 319.167C358.634 319.167 359.944 319.526 360.964 320.245C361.984 320.964 362.587 322.233 362.775 324.054Z"/>
<path d="M370.919 329.866L370.919 332.362L369.337 332.421C367.759 332.476 366.681 332.202 366.103 331.601C365.728 331.218 365.54 330.628 365.54 329.831L365.54 321.968L363.759 321.968L363.759 319.589L365.54 319.589L365.54 316.026L368.845 316.026L368.845 319.589L370.919 319.589L370.919 321.968L368.845 321.968L368.845 328.718C368.845 329.241 368.911 329.567 369.044 329.696C369.177 329.825 369.583 329.89 370.263 329.89C370.364 329.89 370.472 329.888 370.585 329.884C370.698 329.88 370.81 329.874 370.919 329.866Z"/>
<path d="M376.497 319.472L376.497 332.245L373.11 332.245L373.11 319.472L376.497 319.472ZM376.497 314.866L376.497 317.948L373.11 317.948L373.11 314.866L376.497 314.866Z"/>
<path d="M390.384 321.089C391.462 322.44 392.001 324.038 392.001 325.882C392.001 327.757 391.462 329.36 390.384 330.692C389.306 332.024 387.669 332.69 385.474 332.69C383.278 332.69 381.642 332.024 380.564 330.692C379.485 329.36 378.946 327.757 378.946 325.882C378.946 324.038 379.485 322.44 380.564 321.089C381.642 319.737 383.278 319.061 385.474 319.061C387.669 319.061 389.306 319.737 390.384 321.089ZM385.462 321.886C384.485 321.886 383.734 322.231 383.206 322.923C382.679 323.614 382.415 324.601 382.415 325.882C382.415 327.163 382.679 328.151 383.206 328.847C383.734 329.542 384.485 329.89 385.462 329.89C386.439 329.89 387.189 329.542 387.712 328.847C388.235 328.151 388.497 327.163 388.497 325.882C388.497 324.601 388.235 323.614 387.712 322.923C387.189 322.231 386.439 321.886 385.462 321.886Z"/>
<path d="M400.403 321.944C399.271 321.944 398.493 322.425 398.071 323.386C397.853 323.893 397.743 324.542 397.743 325.331L397.743 332.245L394.415 332.245L394.415 319.495L397.638 319.495L397.638 321.358C398.067 320.702 398.474 320.229 398.857 319.94C399.544 319.425 400.415 319.167 401.47 319.167C402.79 319.167 403.87 319.513 404.71 320.204C405.55 320.895 405.97 322.042 405.97 323.643L405.97 332.245L402.548 332.245L402.548 324.476C402.548 323.804 402.458 323.288 402.278 322.929C401.95 322.272 401.325 321.944 400.403 321.944Z"/>
<path d="M423.325 325.472L419.599 325.472L419.599 332.245L416.071 332.245L416.071 314.972L424.544 314.972C425.755 314.995 426.687 315.143 427.339 315.417C427.991 315.69 428.544 316.093 428.997 316.624C429.372 317.061 429.669 317.546 429.888 318.077C430.107 318.608 430.216 319.214 430.216 319.893C430.216 320.714 430.009 321.52 429.595 322.313C429.181 323.106 428.497 323.667 427.544 323.995C428.341 324.315 428.905 324.77 429.237 325.36C429.569 325.95 429.735 326.851 429.735 328.061L429.735 329.222C429.735 330.011 429.767 330.546 429.829 330.827C429.923 331.272 430.142 331.601 430.485 331.811L430.485 332.245L426.513 332.245C426.403 331.862 426.325 331.554 426.278 331.319C426.185 330.835 426.134 330.339 426.126 329.831L426.103 328.226C426.087 327.124 425.886 326.39 425.499 326.022C425.112 325.655 424.388 325.472 423.325 325.472ZM425.517 322.331C426.235 322.003 426.595 321.354 426.595 320.386C426.595 319.339 426.247 318.636 425.552 318.276C425.161 318.073 424.575 317.972 423.794 317.972L419.599 317.972L419.599 322.612L423.689 322.612C424.501 322.612 425.11 322.518 425.517 322.331Z"/>
<path d="M443.985 328.495C443.9 329.253 443.505 330.022 442.802 330.804C441.708 332.046 440.177 332.667 438.208 332.667C436.583 332.667 435.15 332.143 433.907 331.097C432.665 330.05 432.044 328.347 432.044 325.987C432.044 323.776 432.605 322.081 433.726 320.901C434.847 319.722 436.302 319.132 438.091 319.132C439.153 319.132 440.11 319.331 440.962 319.729C441.814 320.128 442.517 320.757 443.071 321.616C443.571 322.374 443.896 323.253 444.044 324.253C444.13 324.839 444.165 325.683 444.15 326.784L435.407 326.784C435.454 328.065 435.857 328.964 436.614 329.479C437.075 329.8 437.63 329.96 438.278 329.96C438.966 329.96 439.525 329.765 439.954 329.374C440.189 329.163 440.396 328.87 440.575 328.495L443.985 328.495ZM440.681 324.581C440.626 323.698 440.359 323.028 439.878 322.571C439.398 322.114 438.802 321.886 438.091 321.886C437.317 321.886 436.718 322.128 436.292 322.612C435.866 323.097 435.599 323.753 435.489 324.581L440.681 324.581Z"/>
<path d="M455.2 320.058C456.2 320.698 456.775 321.8 456.923 323.362L453.583 323.362C453.536 322.933 453.415 322.593 453.22 322.343C452.853 321.89 452.228 321.663 451.345 321.663C450.618 321.663 450.101 321.776 449.792 322.003C449.484 322.229 449.329 322.495 449.329 322.8C449.329 323.183 449.493 323.46 449.821 323.632C450.15 323.811 451.31 324.12 453.302 324.558C454.63 324.87 455.626 325.343 456.29 325.976C456.946 326.616 457.275 327.417 457.275 328.378C457.275 329.643 456.804 330.677 455.862 331.477C454.921 332.278 453.466 332.679 451.497 332.679C449.489 332.679 448.007 332.255 447.05 331.407C446.093 330.559 445.614 329.479 445.614 328.167L449.001 328.167C449.071 328.761 449.224 329.183 449.458 329.433C449.872 329.878 450.638 330.101 451.755 330.101C452.411 330.101 452.933 330.003 453.319 329.808C453.706 329.612 453.9 329.319 453.9 328.929C453.9 328.554 453.743 328.268 453.431 328.073C453.118 327.878 451.958 327.542 449.95 327.065C448.505 326.706 447.485 326.257 446.892 325.718C446.298 325.186 446.001 324.421 446.001 323.421C446.001 322.241 446.464 321.227 447.39 320.38C448.316 319.532 449.618 319.108 451.298 319.108C452.892 319.108 454.192 319.425 455.2 320.058Z"/>
<path d="M467.939 330.44C467.907 330.479 467.829 330.597 467.704 330.792C467.579 330.987 467.431 331.159 467.259 331.308C466.735 331.776 466.23 332.097 465.741 332.268C465.253 332.44 464.681 332.526 464.025 332.526C462.134 332.526 460.86 331.847 460.204 330.487C459.837 329.737 459.653 328.632 459.653 327.171L459.653 319.472L463.075 319.472L463.075 327.171C463.075 327.897 463.161 328.444 463.333 328.811C463.638 329.46 464.235 329.784 465.126 329.784C466.267 329.784 467.048 329.323 467.47 328.401C467.689 327.901 467.798 327.241 467.798 326.421L467.798 319.472L471.185 319.472L471.185 332.245L467.939 332.245L467.939 330.44Z"/>
<path d="M474.478 314.972L477.817 314.972L477.817 332.245L474.478 332.245L474.478 314.972Z"/>
<path d="M486.923 329.866L486.923 332.362L485.341 332.421C483.763 332.476 482.685 332.202 482.107 331.601C481.732 331.218 481.544 330.628 481.544 329.831L481.544 321.968L479.763 321.968L479.763 319.589L481.544 319.589L481.544 316.026L484.849 316.026L484.849 319.589L486.923 319.589L486.923 321.968L484.849 321.968L484.849 328.718C484.849 329.241 484.915 329.567 485.048 329.696C485.181 329.825 485.587 329.89 486.267 329.89C486.368 329.89 486.476 329.888 486.589 329.884C486.702 329.88 486.814 329.874 486.923 329.866Z"/>
<path d="M497.868 320.058C498.868 320.698 499.442 321.8 499.591 323.362L496.251 323.362C496.204 322.933 496.083 322.593 495.888 322.343C495.521 321.89 494.896 321.663 494.013 321.663C493.286 321.663 492.769 321.776 492.46 322.003C492.151 322.229 491.997 322.495 491.997 322.8C491.997 323.183 492.161 323.46 492.489 323.632C492.817 323.811 493.978 324.12 495.97 324.558C497.298 324.87 498.294 325.343 498.958 325.976C499.614 326.616 499.942 327.417 499.942 328.378C499.942 329.643 499.472 330.677 498.53 331.477C497.589 332.278 496.134 332.679 494.165 332.679C492.157 332.679 490.675 332.255 489.718 331.407C488.761 330.559 488.282 329.479 488.282 328.167L491.669 328.167C491.739 328.761 491.892 329.183 492.126 329.433C492.54 329.878 493.306 330.101 494.423 330.101C495.079 330.101 495.601 330.003 495.987 329.808C496.374 329.612 496.567 329.319 496.567 328.929C496.567 328.554 496.411 328.268 496.099 328.073C495.786 327.878 494.626 327.542 492.618 327.065C491.173 326.706 490.153 326.257 489.56 325.718C488.966 325.186 488.669 324.421 488.669 323.421C488.669 322.241 489.132 321.227 490.058 320.38C490.984 319.532 492.286 319.108 493.966 319.108C495.56 319.108 496.86 319.425 497.868 320.058Z"/>
<path d="M153.29 361.245L151.286 351.94L149.259 361.245L145.79 361.245L142.204 348.472L145.79 348.472L147.782 357.636L149.622 348.472L153.009 348.472L154.954 357.671L156.946 348.472L160.427 348.472L156.724 361.245L153.29 361.245Z"/>
<path d="M173.2 357.495C173.114 358.253 172.72 359.022 172.017 359.804C170.923 361.046 169.392 361.667 167.423 361.667C165.798 361.667 164.364 361.143 163.122 360.097C161.88 359.05 161.259 357.347 161.259 354.987C161.259 352.776 161.819 351.081 162.941 349.901C164.062 348.722 165.517 348.132 167.306 348.132C168.368 348.132 169.325 348.331 170.177 348.729C171.028 349.128 171.732 349.757 172.286 350.616C172.786 351.374 173.11 352.253 173.259 353.253C173.345 353.839 173.38 354.683 173.364 355.784L164.622 355.784C164.669 357.065 165.071 357.964 165.829 358.479C166.29 358.8 166.845 358.96 167.493 358.96C168.181 358.96 168.739 358.765 169.169 358.374C169.403 358.163 169.61 357.87 169.79 357.495L173.2 357.495ZM169.896 353.581C169.841 352.698 169.573 352.028 169.093 351.571C168.612 351.114 168.017 350.886 167.306 350.886C166.532 350.886 165.933 351.128 165.507 351.612C165.081 352.097 164.814 352.753 164.704 353.581L169.896 353.581Z"/>
<path d="M182.036 351.554C180.692 351.554 179.79 351.991 179.329 352.866C179.071 353.358 178.942 354.116 178.942 355.14L178.942 361.245L175.579 361.245L175.579 348.472L178.767 348.472L178.767 350.698C179.282 349.847 179.732 349.265 180.114 348.952C180.739 348.429 181.552 348.167 182.552 348.167C182.614 348.167 182.667 348.169 182.71 348.173C182.753 348.177 182.849 348.183 182.997 348.19L182.997 351.612C182.786 351.589 182.599 351.573 182.435 351.565C182.271 351.558 182.138 351.554 182.036 351.554Z"/>
<path d="M195.888 357.495C195.802 358.253 195.407 359.022 194.704 359.804C193.61 361.046 192.079 361.667 190.11 361.667C188.485 361.667 187.052 361.143 185.81 360.097C184.567 359.05 183.946 357.347 183.946 354.987C183.946 352.776 184.507 351.081 185.628 349.901C186.749 348.722 188.204 348.132 189.993 348.132C191.056 348.132 192.013 348.331 192.864 348.729C193.716 349.128 194.419 349.757 194.974 350.616C195.474 351.374 195.798 352.253 195.946 353.253C196.032 353.839 196.067 354.683 196.052 355.784L187.31 355.784C187.357 357.065 187.759 357.964 188.517 358.479C188.978 358.8 189.532 358.96 190.181 358.96C190.868 358.96 191.427 358.765 191.857 358.374C192.091 358.163 192.298 357.87 192.478 357.495L195.888 357.495ZM192.583 353.581C192.528 352.698 192.261 352.028 191.78 351.571C191.3 351.114 190.704 350.886 189.993 350.886C189.22 350.886 188.62 351.128 188.194 351.612C187.769 352.097 187.501 352.753 187.392 353.581L192.583 353.581Z"/>
<path d="M213.161 359.44C213.13 359.479 213.052 359.597 212.927 359.792C212.802 359.987 212.653 360.159 212.482 360.308C211.958 360.776 211.452 361.097 210.964 361.268C210.476 361.44 209.903 361.526 209.247 361.526C207.357 361.526 206.083 360.847 205.427 359.487C205.06 358.737 204.876 357.632 204.876 356.171L204.876 348.472L208.298 348.472L208.298 356.171C208.298 356.897 208.384 357.444 208.556 357.811C208.86 358.46 209.458 358.784 210.349 358.784C211.489 358.784 212.271 358.323 212.692 357.401C212.911 356.901 213.021 356.241 213.021 355.421L213.021 348.472L216.407 348.472L216.407 361.245L213.161 361.245L213.161 359.44Z"/>
<path d="M225.642 350.944C224.509 350.944 223.732 351.425 223.31 352.386C223.091 352.893 222.982 353.542 222.982 354.331L222.982 361.245L219.653 361.245L219.653 348.495L222.876 348.495L222.876 350.358C223.306 349.702 223.712 349.229 224.095 348.94C224.782 348.425 225.653 348.167 226.708 348.167C228.028 348.167 229.109 348.513 229.948 349.204C230.788 349.895 231.208 351.042 231.208 352.643L231.208 361.245L227.786 361.245L227.786 353.476C227.786 352.804 227.696 352.288 227.517 351.929C227.189 351.272 226.564 350.944 225.642 350.944Z"/>
<path d="M240.278 343.866L240.278 346.585C240.091 346.561 239.776 346.544 239.335 346.532C238.894 346.52 238.589 346.618 238.421 346.825C238.253 347.032 238.169 347.261 238.169 347.511L238.169 348.589L240.36 348.589L240.36 350.944L238.169 350.944L238.169 361.245L234.841 361.245L234.841 350.944L232.978 350.944L232.978 348.589L234.806 348.589L234.806 347.768C234.806 346.401 235.036 345.46 235.497 344.944C235.982 344.179 237.15 343.796 239.001 343.796C239.212 343.796 239.403 343.802 239.575 343.813C239.747 343.825 239.982 343.843 240.278 343.866Z"/>
<path d="M242.763 349.854C243.646 348.729 245.161 348.167 247.31 348.167C248.708 348.167 249.95 348.444 251.036 348.999C252.122 349.554 252.665 350.601 252.665 352.14L252.665 357.999C252.665 358.405 252.673 358.897 252.689 359.476C252.712 359.913 252.778 360.21 252.888 360.366C252.997 360.522 253.161 360.651 253.38 360.753L253.38 361.245L249.747 361.245C249.646 360.987 249.575 360.745 249.536 360.518C249.497 360.292 249.466 360.034 249.442 359.745C248.982 360.245 248.45 360.671 247.849 361.022C247.13 361.436 246.317 361.643 245.411 361.643C244.255 361.643 243.3 361.313 242.546 360.653C241.792 359.993 241.415 359.058 241.415 357.847C241.415 356.276 242.021 355.14 243.232 354.436C243.896 354.054 244.872 353.78 246.161 353.616L247.298 353.476C247.915 353.397 248.357 353.3 248.622 353.183C249.099 352.979 249.337 352.663 249.337 352.233C249.337 351.71 249.155 351.349 248.792 351.149C248.429 350.95 247.896 350.851 247.192 350.851C246.403 350.851 245.845 351.046 245.517 351.436C245.282 351.726 245.126 352.116 245.048 352.608L241.825 352.608C241.896 351.491 242.208 350.573 242.763 349.854ZM245.247 358.831C245.56 359.089 245.942 359.218 246.396 359.218C247.114 359.218 247.776 359.007 248.382 358.585C248.987 358.163 249.302 357.393 249.325 356.276L249.325 355.034C249.114 355.167 248.901 355.274 248.687 355.356C248.472 355.438 248.177 355.515 247.802 355.585L247.052 355.726C246.349 355.851 245.845 356.003 245.54 356.183C245.025 356.487 244.767 356.96 244.767 357.601C244.767 358.171 244.927 358.581 245.247 358.831Z"/>
<path d="M259.064 348.472L259.064 361.245L255.677 361.245L255.677 348.472L259.064 348.472ZM259.064 343.866L259.064 346.948L255.677 346.948L255.677 343.866L259.064 343.866Z"/>
<path d="M268.72 351.554C267.376 351.554 266.474 351.991 266.013 352.866C265.755 353.358 265.626 354.116 265.626 355.14L265.626 361.245L262.263 361.245L262.263 348.472L265.45 348.472L265.45 350.698C265.966 349.847 266.415 349.265 266.798 348.952C267.423 348.429 268.235 348.167 269.235 348.167C269.298 348.167 269.351 348.169 269.394 348.173C269.437 348.177 269.532 348.183 269.681 348.19L269.681 351.612C269.47 351.589 269.282 351.573 269.118 351.565C268.954 351.558 268.821 351.554 268.72 351.554Z"/>
<path d="M278.786 349.854C279.669 348.729 281.185 348.167 283.333 348.167C284.732 348.167 285.974 348.444 287.06 348.999C288.146 349.554 288.689 350.601 288.689 352.14L288.689 357.999C288.689 358.405 288.696 358.897 288.712 359.476C288.735 359.913 288.802 360.21 288.911 360.366C289.021 360.522 289.185 360.651 289.403 360.753L289.403 361.245L285.771 361.245C285.669 360.987 285.599 360.745 285.56 360.518C285.521 360.292 285.489 360.034 285.466 359.745C285.005 360.245 284.474 360.671 283.872 361.022C283.153 361.436 282.341 361.643 281.435 361.643C280.278 361.643 279.323 361.313 278.569 360.653C277.816 359.993 277.439 359.058 277.439 357.847C277.439 356.276 278.044 355.14 279.255 354.436C279.919 354.054 280.896 353.78 282.185 353.616L283.321 353.476C283.939 353.397 284.38 353.3 284.646 353.183C285.122 352.979 285.36 352.663 285.36 352.233C285.36 351.71 285.179 351.349 284.816 351.149C284.452 350.95 283.919 350.851 283.216 350.851C282.427 350.851 281.868 351.046 281.54 351.436C281.306 351.726 281.15 352.116 281.071 352.608L277.849 352.608C277.919 351.491 278.232 350.573 278.786 349.854ZM281.271 358.831C281.583 359.089 281.966 359.218 282.419 359.218C283.138 359.218 283.8 359.007 284.405 358.585C285.011 358.163 285.325 357.393 285.349 356.276L285.349 355.034C285.138 355.167 284.925 355.274 284.71 355.356C284.495 355.438 284.2 355.515 283.825 355.585L283.075 355.726C282.372 355.851 281.868 356.003 281.564 356.183C281.048 356.487 280.79 356.96 280.79 357.601C280.79 358.171 280.95 358.581 281.271 358.831Z"/>
<path d="M297.665 350.944C296.532 350.944 295.755 351.425 295.333 352.386C295.114 352.893 295.005 353.542 295.005 354.331L295.005 361.245L291.677 361.245L291.677 348.495L294.9 348.495L294.9 350.358C295.329 349.702 295.735 349.229 296.118 348.94C296.806 348.425 297.677 348.167 298.732 348.167C300.052 348.167 301.132 348.513 301.972 349.204C302.812 349.895 303.232 351.042 303.232 352.643L303.232 361.245L299.81 361.245L299.81 353.476C299.81 352.804 299.72 352.288 299.54 351.929C299.212 351.272 298.587 350.944 297.665 350.944Z"/>
<path d="M317.939 343.995L317.939 361.245L314.692 361.245L314.692 359.476C314.216 360.233 313.673 360.784 313.064 361.128C312.454 361.472 311.696 361.643 310.79 361.643C309.298 361.643 308.042 361.04 307.023 359.833C306.003 358.626 305.493 357.077 305.493 355.186C305.493 353.007 305.995 351.292 306.999 350.042C308.003 348.792 309.345 348.167 311.025 348.167C311.798 348.167 312.485 348.337 313.087 348.677C313.689 349.017 314.177 349.487 314.552 350.089L314.552 343.995L317.939 343.995ZM308.939 354.94C308.939 356.12 309.173 357.061 309.642 357.765C310.103 358.476 310.806 358.831 311.751 358.831C312.696 358.831 313.415 358.479 313.907 357.776C314.4 357.073 314.646 356.163 314.646 355.046C314.646 353.483 314.251 352.366 313.462 351.694C312.978 351.288 312.415 351.085 311.775 351.085C310.798 351.085 310.081 351.454 309.624 352.192C309.167 352.931 308.939 353.847 308.939 354.94Z"/>
<path d="M331.075 348.472L331.075 361.245L327.689 361.245L327.689 348.472L331.075 348.472ZM331.075 343.866L331.075 346.948L327.689 346.948L327.689 343.866L331.075 343.866Z"/>
<path d="M340.321 350.944C339.189 350.944 338.411 351.425 337.989 352.386C337.771 352.893 337.661 353.542 337.661 354.331L337.661 361.245L334.333 361.245L334.333 348.495L337.556 348.495L337.556 350.358C337.985 349.702 338.392 349.229 338.775 348.94C339.462 348.425 340.333 348.167 341.388 348.167C342.708 348.167 343.788 348.513 344.628 349.204C345.468 349.895 345.888 351.042 345.888 352.643L345.888 361.245L342.466 361.245L342.466 353.476C342.466 352.804 342.376 352.288 342.196 351.929C341.868 351.272 341.243 350.944 340.321 350.944Z"/>
<path d="M349.122 348.53L352.462 348.53L352.462 362.616C352.462 363.905 352.208 364.858 351.7 365.476C351.192 366.093 350.196 366.401 348.712 366.401C348.61 366.401 348.46 366.397 348.261 366.39C348.062 366.382 347.814 366.374 347.517 366.366L347.517 363.694C347.704 363.71 347.837 363.72 347.915 363.724C347.993 363.727 348.064 363.729 348.126 363.729C348.454 363.729 348.702 363.649 348.87 363.489C349.038 363.329 349.122 363.018 349.122 362.558L349.122 348.53ZM349.122 343.866L352.462 343.866L352.462 346.948L349.122 346.948L349.122 343.866Z"/>
<path d="M363.829 359.44C363.798 359.479 363.72 359.597 363.595 359.792C363.47 359.987 363.321 360.159 363.15 360.308C362.626 360.776 362.12 361.097 361.632 361.268C361.144 361.44 360.571 361.526 359.915 361.526C358.025 361.526 356.751 360.847 356.095 359.487C355.728 358.737 355.544 357.632 355.544 356.171L355.544 348.472L358.966 348.472L358.966 356.171C358.966 356.897 359.052 357.444 359.224 357.811C359.528 358.46 360.126 358.784 361.017 358.784C362.157 358.784 362.939 358.323 363.36 357.401C363.579 356.901 363.689 356.241 363.689 355.421L363.689 348.472L367.075 348.472L367.075 361.245L363.829 361.245L363.829 359.44Z"/>
<path d="M379.099 349.058C380.099 349.698 380.673 350.8 380.821 352.362L377.482 352.362C377.435 351.933 377.314 351.593 377.118 351.343C376.751 350.89 376.126 350.663 375.243 350.663C374.517 350.663 373.999 350.776 373.691 351.003C373.382 351.229 373.228 351.495 373.228 351.8C373.228 352.183 373.392 352.46 373.72 352.632C374.048 352.811 375.208 353.12 377.2 353.558C378.528 353.87 379.525 354.343 380.189 354.976C380.845 355.616 381.173 356.417 381.173 357.378C381.173 358.643 380.702 359.677 379.761 360.477C378.819 361.278 377.364 361.679 375.396 361.679C373.388 361.679 371.905 361.255 370.948 360.407C369.991 359.559 369.513 358.479 369.513 357.167L372.9 357.167C372.97 357.761 373.122 358.183 373.357 358.433C373.771 358.878 374.536 359.101 375.653 359.101C376.31 359.101 376.831 359.003 377.218 358.808C377.605 358.612 377.798 358.319 377.798 357.929C377.798 357.554 377.642 357.268 377.329 357.073C377.017 356.878 375.857 356.542 373.849 356.065C372.403 355.706 371.384 355.257 370.79 354.718C370.196 354.186 369.9 353.421 369.9 352.421C369.9 351.241 370.362 350.227 371.288 349.38C372.214 348.532 373.517 348.108 375.196 348.108C376.79 348.108 378.091 348.425 379.099 349.058Z"/>
<path d="M389.493 358.866L389.493 361.362L387.911 361.421C386.333 361.476 385.255 361.202 384.677 360.601C384.302 360.218 384.114 359.628 384.114 358.831L384.114 350.968L382.333 350.968L382.333 348.589L384.114 348.589L384.114 345.026L387.419 345.026L387.419 348.589L389.493 348.589L389.493 350.968L387.419 350.968L387.419 357.718C387.419 358.241 387.485 358.567 387.618 358.696C387.751 358.825 388.157 358.89 388.837 358.89C388.939 358.89 389.046 358.888 389.159 358.884C389.273 358.88 389.384 358.874 389.493 358.866Z"/>
<path d="M395.071 348.472L395.071 361.245L391.685 361.245L391.685 348.472L395.071 348.472ZM395.071 343.866L395.071 346.948L391.685 346.948L391.685 343.866L395.071 343.866Z"/>
<path d="M409.357 353.054L405.935 353.054C405.872 352.577 405.712 352.147 405.454 351.765C405.079 351.249 404.497 350.991 403.708 350.991C402.583 350.991 401.814 351.55 401.4 352.667C401.181 353.261 401.071 354.05 401.071 355.034C401.071 355.972 401.181 356.726 401.4 357.296C401.798 358.358 402.548 358.89 403.65 358.89C404.431 358.89 404.985 358.679 405.314 358.257C405.642 357.835 405.841 357.288 405.911 356.616L409.321 356.616C409.243 357.632 408.876 358.593 408.22 359.499C407.173 360.96 405.622 361.69 403.567 361.69C401.513 361.69 400.001 361.081 399.032 359.862C398.064 358.643 397.579 357.061 397.579 355.116C397.579 352.921 398.114 351.214 399.185 349.995C400.255 348.776 401.732 348.167 403.614 348.167C405.216 348.167 406.526 348.526 407.546 349.245C408.566 349.964 409.169 351.233 409.357 353.054Z"/>
<path d="M422.587 357.495C422.501 358.253 422.107 359.022 421.403 359.804C420.31 361.046 418.778 361.667 416.81 361.667C415.185 361.667 413.751 361.143 412.509 360.097C411.267 359.05 410.646 357.347 410.646 354.987C410.646 352.776 411.206 351.081 412.327 349.901C413.448 348.722 414.903 348.132 416.692 348.132C417.755 348.132 418.712 348.331 419.564 348.729C420.415 349.128 421.118 349.757 421.673 350.616C422.173 351.374 422.497 352.253 422.646 353.253C422.732 353.839 422.767 354.683 422.751 355.784L414.009 355.784C414.056 357.065 414.458 357.964 415.216 358.479C415.677 358.8 416.232 358.96 416.88 358.96C417.567 358.96 418.126 358.765 418.556 358.374C418.79 358.163 418.997 357.87 419.177 357.495L422.587 357.495ZM419.282 353.581C419.228 352.698 418.96 352.028 418.48 351.571C417.999 351.114 417.403 350.886 416.692 350.886C415.919 350.886 415.319 351.128 414.894 351.612C414.468 352.097 414.2 352.753 414.091 353.581L419.282 353.581Z"/>
</g>
<g opacity="1" vectornator:layerName="like">
<path d="M138.573 543.389C138.573 541.48 140.164 539.933 142.126 539.933L226.468 539.933C228.431 539.933 230.021 541.48 230.021 543.389L230.021 570.178C230.021 572.087 228.431 573.634 226.468 573.634L142.126 573.634C140.164 573.634 138.573 572.087 138.573 570.178L138.573 543.389Z" fill="none" opacity="1" stroke="#000000" stroke-linecap="butt" stroke-linejoin="round" stroke-width="3" vectornator:layerName="Rectangle 1"/>
<g fill="#000000" opacity="1" stroke="none" vectornator:layerName="Text 1">
<path d="M167.731 550.52L169.48 550.52L169.48 561.893L176.019 561.893L176.019 563.431L167.731 563.431L167.731 550.52Z"/>
<path d="M177.531 554.062L179.139 554.062L179.139 563.431L177.531 563.431L177.531 554.062ZM177.531 550.52L179.139 550.52L179.139 552.313L177.531 552.313L177.531 550.52Z"/>
<path d="M181.495 550.52L183.015 550.52L183.015 558.017L187.076 554.018L189.097 554.018L185.494 557.542L189.299 563.431L187.278 563.431L184.342 558.685L183.015 559.898L183.015 563.431L181.495 563.431L181.495 550.52Z"/>
<path d="M194.45 553.807C195.118 553.807 195.765 553.964 196.392 554.277C197.019 554.591 197.496 554.996 197.825 555.495C198.141 555.969 198.352 556.523 198.457 557.156C198.551 557.589 198.598 558.281 198.598 559.23L191.699 559.23C191.728 560.185 191.953 560.951 192.375 561.528C192.797 562.105 193.451 562.394 194.335 562.394C195.162 562.394 195.821 562.121 196.313 561.577C196.594 561.26 196.793 560.894 196.911 560.478L198.466 560.478C198.425 560.824 198.289 561.209 198.058 561.634C197.826 562.059 197.567 562.406 197.28 562.675C196.799 563.144 196.204 563.46 195.495 563.624C195.115 563.718 194.684 563.765 194.203 563.765C193.032 563.765 192.038 563.339 191.224 562.486C190.41 561.634 190.002 560.44 190.002 558.905C190.002 557.393 190.412 556.165 191.233 555.222C192.053 554.279 193.125 553.807 194.45 553.807ZM196.972 557.973C196.908 557.288 196.758 556.74 196.524 556.329C196.09 555.568 195.367 555.187 194.353 555.187C193.626 555.187 193.017 555.449 192.525 555.974C192.033 556.498 191.772 557.164 191.743 557.973L196.972 557.973Z"/>
</g>
</g>
<g opacity="1" vectornator:layerName="comment">
<path d="M260.835 543.389C260.835 541.48 262.426 539.933 264.388 539.933L397.967 539.933C399.93 539.933 401.521 541.48 401.521 543.389L401.521 570.178C401.521 572.087 399.93 573.634 397.967 573.634L264.388 573.634C262.426 573.634 260.835 572.087 260.835 570.178L260.835 543.389Z" fill="none" opacity="1" stroke="#000000" stroke-linecap="butt" stroke-linejoin="round" stroke-width="3" vectornator:layerName="Rectangle 2"/>
<g fill="#000000" opacity="1" stroke="none" vectornator:layerName="Text 2">
<path d="M297.484 549.35C299.119 549.35 300.388 549.78 301.29 550.642C302.192 551.503 302.693 552.481 302.793 553.577L301.088 553.577C300.894 552.745 300.509 552.086 299.932 551.6C299.355 551.113 298.545 550.87 297.502 550.87C296.23 550.87 295.203 551.317 294.421 552.21C293.639 553.104 293.248 554.474 293.248 556.319C293.248 557.831 293.601 559.057 294.307 559.998C295.013 560.938 296.066 561.408 297.467 561.408C298.756 561.408 299.737 560.913 300.411 559.923C300.768 559.401 301.035 558.716 301.211 557.866L302.916 557.866C302.764 559.226 302.26 560.365 301.404 561.285C300.379 562.393 298.996 562.946 297.256 562.946C295.756 562.946 294.496 562.492 293.476 561.584C292.135 560.383 291.464 558.528 291.464 556.02C291.464 554.116 291.968 552.555 292.975 551.336C294.065 550.012 295.568 549.35 297.484 549.35Z"/>
<path d="M308.567 561.593C309.616 561.593 310.335 561.196 310.725 560.402C311.115 559.608 311.309 558.725 311.309 557.752C311.309 556.873 311.169 556.158 310.888 555.607C310.442 554.74 309.675 554.307 308.585 554.307C307.618 554.307 306.915 554.676 306.475 555.414C306.036 556.152 305.816 557.043 305.816 558.086C305.816 559.088 306.036 559.923 306.475 560.591C306.915 561.259 307.612 561.593 308.567 561.593ZM308.629 552.927C309.842 552.927 310.867 553.331 311.705 554.14C312.543 554.948 312.962 556.138 312.962 557.708C312.962 559.226 312.593 560.479 311.854 561.47C311.116 562.46 309.971 562.955 308.418 562.955C307.123 562.955 306.095 562.517 305.333 561.641C304.571 560.765 304.19 559.589 304.19 558.112C304.19 556.53 304.592 555.27 305.394 554.333C306.197 553.395 307.275 552.927 308.629 552.927Z"/>
<path d="M314.843 553.199L316.407 553.199L316.407 554.535C316.782 554.072 317.122 553.735 317.427 553.524C317.948 553.167 318.54 552.988 319.202 552.988C319.952 552.988 320.555 553.173 321.013 553.542C321.27 553.753 321.505 554.063 321.716 554.474C322.067 553.97 322.48 553.596 322.955 553.353C323.43 553.11 323.963 552.988 324.555 552.988C325.82 552.988 326.681 553.445 327.139 554.359C327.385 554.852 327.508 555.514 327.508 556.346L327.508 562.612L325.864 562.612L325.864 556.073C325.864 555.446 325.707 555.016 325.394 554.781C325.08 554.547 324.698 554.43 324.247 554.43C323.626 554.43 323.091 554.638 322.643 555.054C322.195 555.47 321.971 556.164 321.971 557.137L321.971 562.612L320.362 562.612L320.362 556.469C320.362 555.83 320.286 555.364 320.134 555.071C319.893 554.632 319.445 554.412 318.789 554.412C318.191 554.412 317.648 554.644 317.159 555.106C316.669 555.569 316.425 556.407 316.425 557.62L316.425 562.612L314.843 562.612L314.843 553.199Z"/>
<path d="M329.837 553.199L331.401 553.199L331.401 554.535C331.776 554.072 332.116 553.735 332.421 553.524C332.942 553.167 333.534 552.988 334.196 552.988C334.946 552.988 335.55 553.173 336.007 553.542C336.264 553.753 336.499 554.063 336.71 554.474C337.061 553.97 337.474 553.596 337.949 553.353C338.424 553.11 338.957 552.988 339.549 552.988C340.814 552.988 341.676 553.445 342.133 554.359C342.379 554.852 342.502 555.514 342.502 556.346L342.502 562.612L340.858 562.612L340.858 556.073C340.858 555.446 340.701 555.016 340.388 554.781C340.075 554.547 339.692 554.43 339.241 554.43C338.62 554.43 338.085 554.638 337.637 555.054C337.189 555.47 336.965 556.164 336.965 557.137L336.965 562.612L335.356 562.612L335.356 556.469C335.356 555.83 335.28 555.364 335.128 555.071C334.888 554.632 334.439 554.412 333.783 554.412C333.185 554.412 332.642 554.644 332.153 555.106C331.663 555.569 331.419 556.407 331.419 557.62L331.419 562.612L329.837 562.612L329.837 553.199Z"/>
<path d="M348.751 552.988C349.419 552.988 350.066 553.145 350.693 553.458C351.32 553.772 351.798 554.178 352.126 554.676C352.442 555.15 352.653 555.704 352.759 556.337C352.852 556.77 352.899 557.462 352.899 558.411L346 558.411C346.029 559.366 346.255 560.132 346.677 560.709C347.098 561.287 347.752 561.575 348.637 561.575C349.463 561.575 350.122 561.303 350.614 560.758C350.895 560.441 351.095 560.075 351.212 559.659L352.767 559.659C352.726 560.005 352.59 560.39 352.359 560.815C352.127 561.24 351.868 561.587 351.581 561.856C351.1 562.325 350.506 562.642 349.797 562.806C349.416 562.899 348.985 562.946 348.505 562.946C347.333 562.946 346.34 562.52 345.525 561.667C344.711 560.815 344.304 559.621 344.304 558.086C344.304 556.574 344.714 555.347 345.534 554.403C346.354 553.46 347.427 552.988 348.751 552.988ZM351.273 557.154C351.209 556.469 351.059 555.921 350.825 555.511C350.391 554.749 349.668 554.368 348.654 554.368C347.928 554.368 347.318 554.63 346.826 555.155C346.334 555.679 346.073 556.346 346.044 557.154L351.273 557.154Z"/>
<path d="M354.842 553.199L356.345 553.199L356.345 554.535C356.79 553.984 357.262 553.589 357.76 553.349C358.258 553.108 358.811 552.988 359.421 552.988C360.757 552.988 361.659 553.454 362.128 554.386C362.386 554.895 362.514 555.625 362.514 556.574L362.514 562.612L360.906 562.612L360.906 556.68C360.906 556.105 360.821 555.643 360.651 555.291C360.37 554.705 359.86 554.412 359.122 554.412C358.747 554.412 358.439 554.45 358.199 554.526C357.765 554.655 357.385 554.913 357.056 555.3C356.793 555.61 356.621 555.931 356.542 556.262C356.463 556.593 356.424 557.066 356.424 557.682L356.424 562.612L354.842 562.612L354.842 553.199Z"/>
<path d="M365.169 550.571L366.768 550.571L366.768 553.199L368.271 553.199L368.271 554.491L366.768 554.491L366.768 560.635C366.768 560.963 366.88 561.183 367.102 561.294C367.225 561.358 367.43 561.391 367.718 561.391C367.794 561.391 367.876 561.389 367.964 561.386C368.052 561.383 368.154 561.376 368.271 561.364L368.271 562.612C368.09 562.665 367.901 562.703 367.704 562.727C367.508 562.75 367.296 562.762 367.067 562.762C366.329 562.762 365.828 562.573 365.564 562.195C365.301 561.817 365.169 561.326 365.169 560.723L365.169 554.491L363.894 554.491L363.894 553.199L365.169 553.199L365.169 550.571Z"/>
</g>
</g>
<g opacity="1" vectornator:layerName="share">
<path d="M428.71 543.389C428.71 541.48 430.3 539.933 432.263 539.933L523.854 539.933C525.816 539.933 527.407 541.48 527.407 543.389L527.407 570.178C527.407 572.087 525.816 573.634 523.854 573.634L432.263 573.634C430.3 573.634 428.71 572.087 428.71 570.178L428.71 543.389Z" fill="none" opacity="1" stroke="#000000" stroke-linecap="butt" stroke-linejoin="round" stroke-width="3" vectornator:layerName="Rectangle 3"/>
<g fill="#000000" opacity="1" stroke="none" vectornator:layerName="Text 3">
<path d="M456.976 559.045C457.017 559.778 457.19 560.372 457.495 560.829C458.075 561.685 459.097 562.112 460.562 562.112C461.218 562.112 461.816 562.019 462.355 561.831C463.398 561.468 463.919 560.818 463.919 559.88C463.919 559.177 463.7 558.676 463.26 558.377C462.815 558.084 462.118 557.829 461.168 557.612L459.419 557.217C458.277 556.959 457.468 556.675 456.994 556.364C456.173 555.825 455.763 555.02 455.763 553.947C455.763 552.787 456.164 551.835 456.967 551.091C457.77 550.347 458.907 549.975 460.377 549.975C461.731 549.975 462.881 550.301 463.827 550.955C464.773 551.608 465.246 552.653 465.246 554.088L463.603 554.088C463.515 553.397 463.328 552.866 463.04 552.497C462.507 551.823 461.602 551.486 460.325 551.486C459.293 551.486 458.552 551.703 458.101 552.137C457.65 552.57 457.424 553.074 457.424 553.649C457.424 554.281 457.688 554.744 458.215 555.037C458.561 555.225 459.343 555.459 460.562 555.74L462.372 556.153C463.245 556.353 463.919 556.625 464.394 556.971C465.214 557.574 465.624 558.45 465.624 559.599C465.624 561.028 465.104 562.051 464.064 562.666C463.024 563.281 461.816 563.589 460.439 563.589C458.833 563.589 457.577 563.179 456.668 562.359C455.76 561.544 455.315 560.44 455.332 559.045L456.976 559.045Z"/>
<path d="M467.628 550.256L469.21 550.256L469.21 555.072C469.585 554.598 469.922 554.264 470.221 554.07C470.731 553.736 471.367 553.57 472.128 553.57C473.494 553.57 474.419 554.047 474.906 555.002C475.169 555.524 475.301 556.247 475.301 557.173L475.301 563.211L473.675 563.211L473.675 557.278C473.675 556.587 473.587 556.08 473.412 555.758C473.124 555.242 472.585 554.985 471.794 554.985C471.138 554.985 470.543 555.21 470.01 555.661C469.477 556.112 469.21 556.965 469.21 558.219L469.21 563.211L467.628 563.211L467.628 550.256Z"/>
<path d="M478.852 560.706C478.852 561.163 479.019 561.524 479.353 561.787C479.687 562.051 480.082 562.183 480.539 562.183C481.096 562.183 481.635 562.054 482.157 561.796C483.036 561.368 483.475 560.668 483.475 559.695L483.475 558.421C483.282 558.544 483.033 558.647 482.728 558.729C482.423 558.811 482.124 558.869 481.831 558.904L480.873 559.028C480.299 559.104 479.869 559.224 479.581 559.388C479.095 559.663 478.852 560.103 478.852 560.706ZM482.684 557.507C483.047 557.46 483.29 557.308 483.413 557.05C483.484 556.909 483.519 556.707 483.519 556.444C483.519 555.904 483.327 555.513 482.943 555.27C482.559 555.027 482.01 554.905 481.295 554.905C480.469 554.905 479.883 555.128 479.537 555.573C479.344 555.82 479.218 556.186 479.16 556.672L477.683 556.672C477.712 555.512 478.089 554.705 478.812 554.251C479.536 553.797 480.375 553.57 481.33 553.57C482.438 553.57 483.337 553.78 484.029 554.202C484.714 554.624 485.057 555.28 485.057 556.171L485.057 561.594C485.057 561.758 485.091 561.89 485.158 561.989C485.225 562.089 485.368 562.139 485.584 562.139C485.655 562.139 485.734 562.134 485.822 562.126C485.91 562.117 486.003 562.104 486.103 562.086L486.103 563.255C485.857 563.325 485.669 563.369 485.54 563.387C485.412 563.404 485.236 563.413 485.013 563.413C484.468 563.413 484.073 563.22 483.827 562.833C483.698 562.628 483.607 562.338 483.554 561.963C483.232 562.385 482.769 562.751 482.165 563.062C481.562 563.372 480.897 563.528 480.17 563.528C479.297 563.528 478.584 563.262 478.03 562.732C477.476 562.202 477.2 561.538 477.2 560.741C477.2 559.868 477.472 559.192 478.017 558.711C478.562 558.231 479.277 557.935 480.162 557.823L482.684 557.507Z"/>
<path d="M487.694 553.798L489.197 553.798L489.197 555.424C489.32 555.108 489.621 554.722 490.102 554.268C490.582 553.814 491.136 553.587 491.763 553.587C491.792 553.587 491.842 553.59 491.912 553.596C491.983 553.602 492.103 553.613 492.273 553.631L492.273 555.301C492.179 555.283 492.093 555.272 492.014 555.266C491.934 555.26 491.848 555.257 491.754 555.257C490.957 555.257 490.345 555.513 489.917 556.026C489.49 556.539 489.276 557.129 489.276 557.797L489.276 563.211L487.694 563.211L487.694 553.798Z"/>
<path d="M497.564 553.587C498.232 553.587 498.879 553.744 499.506 554.057C500.133 554.371 500.611 554.777 500.939 555.275C501.255 555.749 501.466 556.303 501.572 556.936C501.665 557.369 501.712 558.061 501.712 559.01L494.813 559.01C494.842 559.965 495.068 560.731 495.49 561.308C495.912 561.885 496.565 562.174 497.45 562.174C498.276 562.174 498.935 561.902 499.427 561.357C499.708 561.04 499.908 560.674 500.025 560.258L501.58 560.258C501.539 560.604 501.403 560.989 501.172 561.414C500.94 561.839 500.681 562.186 500.394 562.455C499.913 562.924 499.319 563.24 498.61 563.404C498.229 563.498 497.798 563.545 497.318 563.545C496.146 563.545 495.153 563.119 494.338 562.266C493.524 561.414 493.117 560.22 493.117 558.685C493.117 557.173 493.527 555.945 494.347 555.002C495.167 554.059 496.24 553.587 497.564 553.587ZM500.086 557.753C500.022 557.068 499.872 556.52 499.638 556.11C499.204 555.348 498.481 554.967 497.467 554.967C496.741 554.967 496.131 555.229 495.639 555.754C495.147 556.278 494.886 556.945 494.857 557.753L500.086 557.753Z"/>
</g>
</g>
<path d="M138.573 516.748L527.407 517.761" fill="none" opacity="1" stroke="#000000" stroke-linecap="butt" stroke-linejoin="round" stroke-width="1" vectornator:layerName="Line 1"/>
</g>
<path d="M0 688C0 688 150 708 300 708C450 708 600 688 600 688L600 848C600 848 450 868 300 868C150 868 0 848 0 848L0 688Z" fill="#f0e4f1" fill-rule="nonzero" opacity="1" stroke="#000000" stroke-linecap="butt" stroke-linejoin="round" stroke-width="0.5" vectornator:layerName="Rectangle 2"/>
<g fill="#000000" opacity="1" stroke="none" vectornator:layerName="Text 1">
<path d="M119.455 785.748L111.334 785.748L111.334 799.5L103.394 799.5L103.394 761.253L120.052 761.253C123.892 761.253 126.954 762.239 129.238 764.211C131.521 766.183 132.663 769.236 132.663 773.371C132.663 777.885 131.521 781.077 129.238 782.945C126.954 784.814 123.693 785.748 119.455 785.748ZM123.192 777.782C124.23 776.865 124.749 775.412 124.749 773.422C124.749 771.433 124.225 770.015 123.179 769.167C122.132 768.319 120.666 767.896 118.781 767.896L111.334 767.896L111.334 779.157L118.781 779.157C120.666 779.157 122.137 778.699 123.192 777.782Z"/>
<path d="M139.124 774.279C141.078 771.788 144.434 770.542 149.191 770.542C152.288 770.542 155.038 771.156 157.443 772.385C159.847 773.613 161.05 775.931 161.05 779.339L161.05 792.312C161.05 793.212 161.067 794.302 161.101 795.582C161.153 796.551 161.3 797.208 161.543 797.554C161.785 797.9 162.148 798.185 162.632 798.41L162.632 799.5L154.589 799.5C154.364 798.929 154.208 798.393 154.122 797.891C154.035 797.39 153.966 796.819 153.914 796.179C152.893 797.286 151.717 798.229 150.385 799.007C148.794 799.924 146.995 800.382 144.988 800.382C142.428 800.382 140.313 799.651 138.644 798.19C136.974 796.728 136.14 794.656 136.14 791.975C136.14 788.498 137.48 785.981 140.162 784.424C141.632 783.577 143.794 782.971 146.649 782.608L149.165 782.297C150.532 782.124 151.509 781.907 152.098 781.648C153.153 781.198 153.68 780.498 153.68 779.546C153.68 778.387 153.278 777.587 152.474 777.146C151.669 776.705 150.489 776.484 148.932 776.484C147.185 776.484 145.948 776.917 145.221 777.782C144.702 778.422 144.357 779.287 144.184 780.376L137.048 780.376C137.204 777.903 137.896 775.87 139.124 774.279ZM144.625 794.155C145.317 794.726 146.164 795.011 147.168 795.011C148.759 795.011 150.225 794.544 151.566 793.61C152.906 792.676 153.603 790.972 153.654 788.498L153.654 785.748C153.187 786.042 152.716 786.28 152.24 786.461C151.765 786.643 151.112 786.812 150.281 786.967L148.621 787.279C147.064 787.555 145.948 787.893 145.273 788.291C144.132 788.965 143.561 790.012 143.561 791.43C143.561 792.693 143.915 793.601 144.625 794.155Z"/>
<path d="M181.834 778.041C178.858 778.041 176.86 779.01 175.84 780.947C175.269 782.037 174.984 783.715 174.984 785.981L174.984 799.5L167.537 799.5L167.537 771.217L174.594 771.217L174.594 776.147C175.736 774.261 176.731 772.973 177.578 772.281C178.962 771.122 180.761 770.542 182.975 770.542C183.114 770.542 183.231 770.547 183.326 770.555C183.421 770.564 183.633 770.577 183.961 770.594L183.961 778.171C183.494 778.119 183.079 778.084 182.716 778.067C182.353 778.05 182.059 778.041 181.834 778.041Z"/>
<path d="M201.243 794.233L201.243 799.759L197.74 799.889C194.245 800.01 191.858 799.405 190.578 798.073C189.748 797.225 189.333 795.919 189.333 794.155L189.333 776.744L185.389 776.744L185.389 771.476L189.333 771.476L189.333 763.588L196.65 763.588L196.65 771.476L201.243 771.476L201.243 776.744L196.65 776.744L196.65 791.69C196.65 792.849 196.797 793.571 197.091 793.856C197.385 794.142 198.285 794.284 199.79 794.284C200.015 794.284 200.252 794.28 200.503 794.272C200.754 794.263 201.001 794.25 201.243 794.233Z"/>
<path d="M217.486 792.079L223.324 771.217L231.186 771.217L221.482 799.033C219.614 804.395 218.135 807.721 217.045 809.01C215.955 810.299 213.775 810.943 210.506 810.943C209.849 810.943 209.321 810.939 208.923 810.93C208.525 810.921 207.929 810.891 207.133 810.839L207.133 804.923L208.067 804.975C208.794 805.01 209.485 804.984 210.143 804.897C210.8 804.811 211.354 804.612 211.803 804.3C212.236 804.006 212.638 803.392 213.01 802.458C213.382 801.524 213.533 800.953 213.464 800.745L203.085 771.217L211.31 771.217L217.486 792.079Z"/>
<path d="M267.15 784.502L258.899 784.502L258.899 799.5L251.088 799.5L251.088 761.253L269.849 761.253C272.53 761.305 274.593 761.634 276.037 762.239C277.482 762.844 278.706 763.735 279.709 764.912C280.539 765.88 281.197 766.953 281.681 768.129C282.165 769.305 282.407 770.646 282.407 772.151C282.407 773.967 281.949 775.753 281.032 777.509C280.115 779.265 278.602 780.506 276.491 781.233C278.256 781.942 279.506 782.95 280.241 784.256C280.976 785.562 281.344 787.555 281.344 790.237L281.344 792.805C281.344 794.553 281.413 795.738 281.551 796.36C281.759 797.346 282.243 798.073 283.004 798.54L283.004 799.5L274.208 799.5C273.966 798.652 273.793 797.969 273.689 797.45C273.481 796.378 273.369 795.279 273.352 794.155L273.3 790.6C273.265 788.161 272.82 786.535 271.963 785.722C271.107 784.909 269.503 784.502 267.15 784.502ZM272.002 777.548C273.594 776.822 274.39 775.386 274.39 773.241C274.39 770.923 273.62 769.366 272.08 768.57C271.215 768.12 269.918 767.896 268.188 767.896L258.899 767.896L258.899 778.171L267.954 778.171C269.754 778.171 271.103 777.963 272.002 777.548Z"/>
<path d="M312.896 791.197C312.706 792.875 311.832 794.579 310.275 796.308C307.854 799.059 304.463 800.434 300.104 800.434C296.506 800.434 293.331 799.275 290.581 796.957C287.83 794.639 286.455 790.868 286.455 785.644C286.455 780.748 287.696 776.995 290.179 774.383C292.661 771.77 295.883 770.464 299.844 770.464C302.197 770.464 304.316 770.906 306.202 771.788C308.087 772.67 309.644 774.063 310.872 775.965C311.979 777.643 312.697 779.589 313.026 781.804C313.216 783.101 313.294 784.969 313.259 787.408L293.902 787.408C294.006 790.245 294.897 792.235 296.575 793.376C297.596 794.086 298.824 794.44 300.259 794.44C301.782 794.44 303.019 794.008 303.97 793.143C304.489 792.676 304.947 792.027 305.345 791.197L312.896 791.197ZM305.579 782.53C305.458 780.575 304.865 779.092 303.801 778.08C302.737 777.068 301.418 776.562 299.844 776.562C298.132 776.562 296.804 777.098 295.861 778.171C294.919 779.243 294.326 780.697 294.084 782.53L305.579 782.53Z"/>
<path d="M319.305 774.279C321.26 771.788 324.616 770.542 329.373 770.542C332.469 770.542 335.22 771.156 337.624 772.385C340.029 773.613 341.231 775.931 341.231 779.339L341.231 792.312C341.231 793.212 341.248 794.302 341.283 795.582C341.335 796.551 341.482 797.208 341.724 797.554C341.966 797.9 342.329 798.185 342.814 798.41L342.814 799.5L334.77 799.5C334.545 798.929 334.389 798.393 334.303 797.891C334.216 797.39 334.147 796.819 334.095 796.179C333.075 797.286 331.898 798.229 330.566 799.007C328.975 799.924 327.176 800.382 325.169 800.382C322.609 800.382 320.494 799.651 318.825 798.19C317.156 796.728 316.321 794.656 316.321 791.975C316.321 788.498 317.662 785.981 320.343 784.424C321.813 783.577 323.976 782.971 326.83 782.608L329.347 782.297C330.714 782.124 331.691 781.907 332.279 781.648C333.334 781.198 333.862 780.498 333.862 779.546C333.862 778.387 333.46 777.587 332.655 777.146C331.851 776.705 330.67 776.484 329.113 776.484C327.366 776.484 326.129 776.917 325.403 777.782C324.884 778.422 324.538 779.287 324.365 780.376L317.229 780.376C317.385 777.903 318.077 775.87 319.305 774.279ZM324.806 794.155C325.498 794.726 326.346 795.011 327.349 795.011C328.94 795.011 330.406 794.544 331.747 793.61C333.088 792.676 333.784 790.972 333.836 788.498L333.836 785.748C333.369 786.042 332.897 786.28 332.422 786.461C331.946 786.643 331.293 786.812 330.463 786.967L328.802 787.279C327.245 787.555 326.129 787.893 325.455 788.291C324.313 788.965 323.742 790.012 323.742 791.43C323.742 792.693 324.097 793.601 324.806 794.155Z"/>
<path d="M372.265 781.362L364.688 781.362C364.549 780.307 364.195 779.356 363.624 778.508C362.794 777.367 361.505 776.796 359.758 776.796C357.267 776.796 355.563 778.033 354.646 780.506C354.162 781.821 353.92 783.568 353.92 785.748C353.92 787.823 354.162 789.493 354.646 790.756C355.528 793.108 357.189 794.284 359.628 794.284C361.358 794.284 362.586 793.817 363.313 792.883C364.039 791.949 364.48 790.738 364.636 789.251L372.187 789.251C372.014 791.499 371.201 793.627 369.748 795.634C367.43 798.869 363.996 800.486 359.446 800.486C354.897 800.486 351.55 799.137 349.405 796.438C347.26 793.74 346.187 790.237 346.187 785.929C346.187 781.068 347.372 777.289 349.742 774.59C352.112 771.892 355.381 770.542 359.55 770.542C363.096 770.542 365.998 771.338 368.256 772.929C370.513 774.521 371.849 777.332 372.265 781.362Z"/>
<path d="M390.298 794.233L390.298 799.759L386.795 799.889C383.301 800.01 380.914 799.405 379.634 798.073C378.803 797.225 378.388 795.919 378.388 794.155L378.388 776.744L374.444 776.744L374.444 771.476L378.388 771.476L378.388 763.588L385.706 763.588L385.706 771.476L390.298 771.476L390.298 776.744L385.706 776.744L385.706 791.69C385.706 792.849 385.853 793.571 386.147 793.856C386.441 794.142 387.34 794.284 388.845 794.284C389.07 794.284 389.308 794.28 389.559 794.272C389.81 794.263 390.056 794.25 390.298 794.233Z"/>
<path d="M402.649 771.217L402.649 799.5L395.151 799.5L395.151 771.217L402.649 771.217ZM402.649 761.019L402.649 767.844L395.151 767.844L395.151 761.019L402.649 761.019Z"/>
<path d="M433.398 774.798C435.785 777.79 436.978 781.328 436.978 785.41C436.978 789.562 435.785 793.113 433.398 796.062C431.01 799.011 427.386 800.486 422.525 800.486C417.665 800.486 414.041 799.011 411.653 796.062C409.266 793.113 408.073 789.562 408.073 785.41C408.073 781.328 409.266 777.79 411.653 774.798C414.041 771.805 417.665 770.309 422.525 770.309C427.386 770.309 431.01 771.805 433.398 774.798ZM422.5 776.562C420.337 776.562 418.672 777.328 417.505 778.859C416.337 780.389 415.753 782.573 415.753 785.41C415.753 788.247 416.337 790.436 417.505 791.975C418.672 793.515 420.337 794.284 422.5 794.284C424.662 794.284 426.322 793.515 427.481 791.975C428.64 790.436 429.22 788.247 429.22 785.41C429.22 782.573 428.64 780.389 427.481 778.859C426.322 777.328 424.662 776.562 422.5 776.562Z"/>
<path d="M455.583 776.692C453.075 776.692 451.353 777.756 450.419 779.883C449.935 781.008 449.693 782.444 449.693 784.191L449.693 799.5L442.324 799.5L442.324 771.269L449.459 771.269L449.459 775.395C450.411 773.941 451.31 772.895 452.158 772.255C453.68 771.113 455.609 770.542 457.944 770.542C460.868 770.542 463.259 771.308 465.119 772.839C466.978 774.37 467.908 776.908 467.908 780.454L467.908 799.5L460.331 799.5L460.331 782.297C460.331 780.809 460.132 779.667 459.735 778.872C459.008 777.418 457.624 776.692 455.583 776.692Z"/>
<path d="M494.219 772.514C496.433 773.933 497.705 776.372 498.034 779.832L490.638 779.832C490.535 778.88 490.266 778.128 489.834 777.574C489.021 776.571 487.637 776.069 485.682 776.069C484.074 776.069 482.928 776.32 482.244 776.822C481.561 777.323 481.219 777.911 481.219 778.586C481.219 779.434 481.583 780.048 482.309 780.428C483.036 780.826 485.605 781.51 490.016 782.478C492.956 783.17 495.162 784.217 496.632 785.618C498.085 787.036 498.812 788.81 498.812 790.937C498.812 793.74 497.77 796.027 495.685 797.8C493.601 799.574 490.379 800.46 486.02 800.46C481.574 800.46 478.292 799.522 476.173 797.645C474.053 795.768 472.994 793.376 472.994 790.47L480.493 790.47C480.649 791.785 480.986 792.719 481.505 793.273C482.422 794.259 484.117 794.752 486.591 794.752C488.044 794.752 489.198 794.535 490.055 794.103C490.911 793.67 491.339 793.022 491.339 792.157C491.339 791.326 490.993 790.695 490.301 790.263C489.609 789.83 487.04 789.086 482.595 788.031C479.394 787.235 477.137 786.241 475.822 785.047C474.508 783.871 473.85 782.176 473.85 779.961C473.85 777.349 474.875 775.105 476.925 773.228C478.975 771.351 481.859 770.413 485.579 770.413C489.107 770.413 491.988 771.113 494.219 772.514Z"/>
</g>
</g>
</svg>
