<?xml version="1.0" encoding="UTF-8" standalone="no"?>
<!DOCTYPE svg PUBLIC "-//W3C//DTD SVG 1.1//EN" "http://www.w3.org/Graphics/SVG/1.1/DTD/svg11.dtd">
<!-- Created with Vectornator (http://vectornator.io/) -->
<svg height="100%" stroke-miterlimit="10" style="fill-rule:nonzero;clip-rule:evenodd;stroke-linecap:round;stroke-linejoin:round;" version="1.1" viewBox="0 0 600 966" width="100%" xml:space="preserve" xmlns="http://www.w3.org/2000/svg" xmlns:vectornator="http://vectornator.io" xmlns:xlink="http://www.w3.org/1999/xlink">
<defs>
<filter color-interpolation-filters="sRGB" filterUnits="userSpaceOnUse" height="970.5" id="Filter" width="550.5" x="29.1642" y="-1.1862">
<feDropShadow dx="4.41425" dy="4.0638" flood-color="#000000" flood-opacity="0.2" in="SourceGraphic" result="Shadow" stdDeviation="2"/>
</filter>
</defs>
<clipPath id="ArtboardFrame">
<rect height="966" width="600" x="0" y="0"/>
</clipPath>
<g clip-path="url(#ArtboardFrame)" id="Layer-1" vectornator:layerName="Layer 1">
<path d="M30 0L570 2.71682e-14L570 960L30 960L30 0Z" fill="#44bb33" fill-rule="nonzero" filter="url(#Filter)" stroke="#ffffff" stroke-linecap="butt" stroke-linejoin="round" stroke-width="0.5" vectornator:layerName="Rectangle 1" vectornator:shadowAngle="0.744085" vectornator:shadowColor="#000000" vectornator:shadowOffset="6" vectornator:shadowOpacity="0.2" vectornator:shadowRadius="4"/>
<g opacity="1" vectornator:layerName="Prominent Events.svg">
<g opacity="1" vectornator:layerName="right_arm_00000047050021020866194890000015529950249124121747_">
<path d="M240.113 87.145C241.067 85.739 242.654 84.5961 242.947 82.8273C243.561 79.0629 244.543 75.2713 245.1 71.4615C245.62 67.9874 244.949 64.4951 244.94 61.0119C244.93 58.0729 245.025 54.9616 246.696 52.4036C247.443 51.2607 248.179 50.7346 249.53 50.4988C250.182 50.3808 250.257 50.3899 250.673 50.0271C251.23 49.5373 251.579 48.8116 252.033 48.2401C252.76 47.333 253.638 46.4622 254.772 46.1629C255.867 45.8726 256.547 46.0903 257.416 45.3465C258.521 44.4122 259.428 43.487 260.854 43.0879C262.167 42.716 263.565 42.598 264.944 42.4801C266.238 42.3622 267.57 42.5346 268.675 42.0266C271.149 40.9021 274.719 40.3669 276.656 42.5799C278.497 44.6753 278.025 48.3127 278.044 50.8435C278.072 54.1906 278.337 54.6986 281.274 56.6307C282.757 57.6103 285.08 58.4902 285.761 60.2046C287.158 63.7241 284.117 67.933 282.502 70.8991C280.349 74.8359 278.479 79.7432 275.343 83.0269C272.821 85.6756 269.024 86.4647 266.068 88.4966C263.102 90.5466 262.621 92.9685 261.544 96.361C259.239 103.6 255.632 119.592 254.178 127.04C253.12 132.446 227.308 120.421 228.526 117.572C228.999 116.466 237.516 96.5606 237.913 95.4539C238.347 94.2566 239.216 93.1772 239.377 91.8891C239.49 90.9911 239.329 90.0477 239.377 89.1406C239.414 88.3787 239.707 87.7346 240.113 87.145Z" fill="none" opacity="1" stroke="#231f20" stroke-linecap="round" stroke-linejoin="round" stroke-width="5" vectornator:layerName="path"/>
<path d="M268.873 44.2852C269.723 44.5755 271.215 45.6459 271.754 46.3625C273.397 48.5304 272.727 52.3311 272.613 54.9979C272.538 56.7304 272.018 59.0254 271.754 60.6309C271.47 62.3907 269.496 62.817 267.759 62.8261" fill="none" opacity="1" stroke="#231f20" stroke-linecap="round" stroke-linejoin="round" stroke-width="5" vectornator:layerName="path"/>
<path d="M260.854 46.6437C262.375 47.3058 264.018 47.8501 265.454 48.6846C266.663 49.3831 266.767 50.5078 266.909 51.7687C267.164 54.0183 266.748 56.2225 266.625 58.463C266.54 60.1592 266.399 61.928 265.992 63.6697C265.615 65.2843 263.801 66.0281 262.177 66.0371" fill="none" opacity="1" stroke="#231f20" stroke-linecap="round" stroke-linejoin="round" stroke-width="5" vectornator:layerName="path"/>
<path d="M253.62 51.6054C255.527 52.6486 258.04 52.966 259.485 54.6623C260.769 56.1681 260.58 58.9528 260.703 60.8033C260.835 62.9893 260.902 65.4203 259.967 67.4703C259.126 69.3117 253.043 70.2279 251.476 68.3593" fill="none" opacity="1" stroke="#231f20" stroke-linecap="round" stroke-linejoin="round" stroke-width="5" vectornator:layerName="path"/>
<path d="M252.996 61.3747C252.94 62.563 253.1 63.8964 253.393 65.0484" fill="none" opacity="1" stroke="#231f20" stroke-linecap="round" stroke-linejoin="round" stroke-width="5" vectornator:layerName="path"/>
<path d="M277.09 57.3201C275.806 58.2362 273.558 58.2544 272.821 59.8236C272.5 60.513 272.415 61.2659 272.047 61.9462C271.782 62.436 271.508 62.9803 271.206 63.452C270.299 64.8942 266.512 66.9079 267.891 69.0215C269.374 71.2801 273.586 71.1803 275.758 70.2642C276.712 69.865 277.553 69.2845 278.318 68.6133C278.696 68.2776 279.13 67.9239 279.442 67.5248C279.706 67.1982 279.772 66.6902 280.075 66.4C280.452 66.019 280.944 66.1369 281.482 66.1369" fill="none" opacity="1" stroke="#231f20" stroke-linecap="round" stroke-linejoin="round" stroke-width="5" vectornator:layerName="path"/>
<g opacity="1" vectornator:layerName="g">
<path d="M221.356 116.262C216.912 116.541 219.086 121.144 217.814 124.397C216.199 128.543 212.116 128.97 212.56 134.177C212.768 136.544 214.069 137.564 213.446 140.186C213.011 142 211.324 143.573 210.7 145.26C209.661 148.072 212.177 150.055 212.442 152.658C213.122 159.208 209.713 163.172 207.512 168.986C205.274 174.9 203.881 181.219 203.38 187.496C202.955 192.784 205.319 197.286 208.162 201.641C208.907 202.782 209.421 203.941 210.022 205.1C211.002 204.724 218.416 206.336 226.228 207.858C234.698 209.508 244.254 206.89 251.805 204.984C258.516 203.289 263.691 202.369 264.364 202.28C266.869 201.947 269.204 200.771 267.842 199.685C262.893 195.74 259.581 190.465 255.652 185.739C249.777 178.673 249.589 164.114 253.792 155.578C254.491 154.172 256.65 154.85 257.483 153.707C260.023 150.233 260.152 146.03 260.699 142.057C261.209 138.365 263.542 133.463 259.991 130.832C256.893 128.537 249.755 128.656 245.882 127.459C241.273 126.035 236.474 123.662 232.394 121.194C229.721 119.579 226.974 116.967 223.687 116.432C222.752 116.279 221.991 116.222 221.356 116.262ZM301.175 235.693C300.103 236.52 271.865 245.978 271.62 246.287C271.545 246.381 271.437 246.429 271.354 246.514C271.832 246.397 272.279 246.24 272.8 246.116C277.594 244.983 286.154 241.408 287.824 240.872C289.643 240.29 291.2 239.369 293.933 238.832C295.204 238.582 297.569 237.494 298.154 237.301C298.764 237.1 300.743 235.405 301.607 235.543C302.229 235.643 303.098 234.316 303.762 233.843C303.923 233.763 303.876 233.249 304.057 233.19C303.615 232.603 302.271 234.848 301.175 235.693ZM267.783 247.364C266.414 247.889 254.347 252.581 251.137 253.515C251.024 253.627 250.896 253.796 250.635 254.139C250.643 254.129 250.024 254.921 249.896 255.074C249.801 255.19 249.668 255.223 249.572 255.33C251.726 258.386 253.899 264.22 255.269 267.603C255.917 269.204 263.952 250.113 266.041 248.753C267.011 248.121 267.747 247.841 268.521 247.506C268.271 247.479 268.024 247.445 267.783 247.364Z" fill="none" opacity="1" stroke="#231f20" stroke-linecap="round" stroke-linejoin="round" stroke-width="5" vectornator:layerName="Curve 1"/>
<path d="M216.199 152.637C223.302 155.131 229.592 155.621 237.242 155.675C240.737 155.703 248.718 156.628 251.948 155.113" fill="none" opacity="1" stroke="#231f20" stroke-linecap="round" stroke-linejoin="round" stroke-width="5" vectornator:layerName="path"/>
</g>
<path d="M262.318 67.7878C267.154 68.831 266.578 76.0332 266.578 79.8249" fill="none" opacity="1" stroke="#231f20" stroke-linecap="round" stroke-linejoin="round" stroke-width="5" vectornator:layerName="path"/>
</g>
<g opacity="1" vectornator:layerName="feet_00000071550047477120499060000010913143916442259606_">
<path d="M357.986 823.436C355.945 826.275 354.935 832.017 356.172 835.364C356.805 837.087 357.249 839.074 359.128 839.799C361.518 840.716 364.625 840.652 367.157 840.77C376.564 841.215 386.009 841.133 395.406 840.525C397.786 840.371 400.157 840.18 402.528 839.963C404.672 839.763 407.203 839.809 409.243 839.155C412.161 838.212 414.428 836.307 414.844 833.287C415.155 830.955 414.967 828.352 414.579 826.039C414.362 824.715 413.776 823.472 413.493 822.157C413.257 821.041 413.238 819.898 412.993 818.782C412.794 817.875 412.398 815.607 411.113 815.453C409.026 815.208 410.055 819.19 410.027 820.206C409.989 821.567 409.885 823.046 409.526 824.352C408.818 826.946 406.787 828.225 404.162 828.515C397.994 829.187 391.751 829.159 385.555 829.413C380.105 829.64 374.712 830.094 369.234 830.103C367.024 830.112 363.341 830.311 362.311 828.035C361.773 826.846 362.075 825.585 362.425 824.388C362.906 822.719 363.105 821.367 363.114 819.635C363.114 818.256 362.17 815.09 359.884 816.605C358.562 817.485 358.533 821.195 357.825 822.646C357.003 824.325 356.55 825.286 356.172 827.064" fill="none" opacity="1" stroke="#231f20" stroke-linecap="round" stroke-linejoin="round" stroke-width="5" vectornator:layerName="path"/>
<path d="M212.619 827.645C210.976 827.908 209.512 827.781 209.087 829.658C207.954 834.693 213.356 835.899 217.313 836.824C222.621 838.076 228.109 838.593 233.568 838.348C237.384 838.176 241.19 837.641 245.006 837.722C247.254 837.777 249.492 838.04 251.731 838.158C256.236 838.393 260.769 838.022 265.171 837.06C267.419 836.57 269.572 835.863 271.754 835.146C273.869 834.448 276.098 834.049 278.242 833.377C280.046 832.806 281.973 832.643 283.834 832.189C287.857 831.218 291.796 829.849 295.451 827.935C296.32 827.472 297.198 826.973 297.803 826.211C298.719 825.068 298.483 823.281 298.53 821.903C298.587 820.288 298.379 818.682 298.275 817.068C293.911 816.578 291.276 819.363 287.753 821.123C277.062 826.465 265.407 825.567 253.78 826.021C239.83 826.574 225.701 825.54 212.619 827.645Z" fill="none" opacity="1" stroke="#231f20" stroke-linecap="round" stroke-linejoin="round" stroke-width="5" vectornator:layerName="path"/>
<path d="M400.1 782.913C398.851 783.237 397.168 783.652 397.591 783.537C395.691 784.054 388.918 786.784 388.289 786.969C381.416 788.994 377.463 789.869 372.666 790.609C372.458 790.642 367.648 791.027 367.504 791.051C366.997 796.205 366.194 800.989 364.829 805.987C364.111 808.672 363.331 811.333 362.557 814.009C362.236 815.125 361.612 816.125 361.376 817.24C361.121 818.438 361.218 819.698 360.726 820.84C360.396 821.611 359.833 822.25 359.398 822.967C358.152 825.035 358.009 828.013 358.661 830.309C359.265 832.421 359.991 834.819 362.409 835.581C363.4 835.889 364.439 835.913 365.478 835.949C367.603 836.021 369.738 836.093 371.853 835.921C373.44 835.794 376.549 835.76 377.314 834.164C377.551 833.665 377.472 832.08 378.199 831.98C378.521 831.935 378.794 832.239 378.879 832.547C378.964 832.856 378.92 833.174 378.967 833.483C379.09 834.29 379.806 834.913 380.59 835.212C381.374 835.512 382.229 835.534 383.069 835.552C384.514 835.589 385.992 835.624 387.408 835.298C387.88 835.189 388.476 835.103 388.825 834.759C389.222 834.369 389.357 833.775 390.065 833.766C390.396 833.766 390.687 833.933 390.979 834.078C393.596 835.403 397.052 834.963 399.244 833.058C400.736 833.593 402.329 834.147 403.878 833.766C404.653 833.576 405.356 833.18 406.121 832.945C407.245 832.591 408.125 833.152 409.22 832.916C410.316 832.671 411.444 832.189 412.142 831.3C413.474 829.613 413.243 827.137 412.969 825.177C411.146 812.206 400.863 800.613 400.306 787.306C400.246 785.818 400.167 784.377 400.1 782.913Z" fill="none" opacity="1" stroke="#231f20" stroke-linecap="round" stroke-linejoin="round" stroke-width="5" vectornator:layerName="Curve 2"/>
<path d="M290.551 785.555C290.3 785.557 289.162 785.239 288.867 785.23C288.702 785.535 289.047 785.805 288.887 785.918C288.74 786.152 288.913 787.306 288.728 787.493C287.213 789.028 275.464 788.28 275.458 788.281C275.018 788.288 266.757 787.927 265.717 787.799C265.221 787.738 258.945 787.313 258.606 787.144C258.583 787.673 258.631 787.118 258.604 787.647C257.81 803.049 246.968 805.376 234.312 811.827C229.562 814.249 225.078 817.567 220.205 819.735C216.37 821.431 207.563 821.445 210.642 828.012C212.804 832.611 220.548 831.735 224.78 831.725C228.576 831.725 232.375 831.675 236.172 831.584C237.853 831.539 239.567 831.629 241.219 831.584C242.513 831.548 243.682 830.865 244.938 830.62C246.005 830.411 247.688 830.144 248.746 830.506C249.662 830.824 250.438 831.755 251.373 832.236C257.096 835.239 263.916 832.399 269.583 830.649C271.557 830.041 273.526 829.454 275.575 829.146C277.511 828.846 279.453 829.021 281.389 828.749C283.505 828.45 285.697 828.184 287.558 827.105C289.447 826.007 290.979 824.358 293.019 823.505C296.306 822.127 297.074 822.285 297.357 818.63C297.612 815.301 297.846 811.927 296.354 808.907C292.729 801.523 290.897 794.034 290.551 785.555Z" fill="none" opacity="1" stroke="#231f20" stroke-linecap="round" stroke-linejoin="round" stroke-width="5" vectornator:layerName="Curve 1"/>
<g opacity="1" vectornator:layerName="g">
<path d="M268.722 812.251C265.898 812.378 263.083 812.923 260.373 813.721C257.785 814.483 255.282 815.49 252.826 816.587C251.664 817.113 250.427 817.957 249.209 818.302C248.104 818.61 247.584 817.893 247.018 817.032C244.798 813.648 240.793 811.399 236.628 811.208C233.436 811.063 230.206 812.133 227.731 814.075C227.231 814.465 224.718 816.533 226.409 816.297C227.353 816.161 228.213 815.163 229.053 814.764C230.281 814.183 231.585 813.73 232.945 813.503C235.731 813.049 238.848 813.703 240.737 815.734C242.163 817.267 242.72 819.372 242.9 821.422C243.07 823.472 242.9 825.531 243.089 827.572C243.192 828.67 243.429 829.831 244.212 830.638C245.384 831.835 246.489 831.128 247.802 830.883C249.332 830.602 249.199 830.248 249.199 828.86C249.199 827.118 249.634 825.658 250.229 824.025C251.504 820.542 254.215 818.565 257.841 817.721C262.366 816.669 267.012 815.961 271.574 817.213C275.966 818.419 280.207 821.168 281.898 825.395C282.71 827.418 283.201 828.225 285.713 828.198C287.234 828.189 290.152 827.363 290.795 825.848C291.239 824.805 290.662 823.644 290.039 822.692C286.346 817.113 279.999 813.24 273.18 812.396C271.707 812.233 270.214 812.188 268.722 812.251Z" fill="none" opacity="1" stroke="#231f20" stroke-linecap="round" stroke-linejoin="round" stroke-width="5" vectornator:layerName="path"/>
<path d="M225.275 817.757L225.077 816.66C224.926 816.959 224.794 817.267 224.68 817.585C224.907 817.839 224.983 817.694 225.275 817.757Z" fill="none" opacity="1" stroke="#231f20" stroke-linecap="round" stroke-linejoin="round" stroke-width="5" vectornator:layerName="path"/>
<path d="M225.068 816.66C225.077 816.651 225.077 816.642 225.087 816.632C225.077 816.632 225.077 816.632 225.068 816.632L225.068 816.66Z" fill="none" opacity="1" stroke="#231f20" stroke-linecap="round" stroke-linejoin="round" stroke-width="5" vectornator:layerName="path"/>
</g>
<path d="M412.048 817.821C412.237 818.728 412.426 819.671 412.464 819.689C412.398 819.662 412.341 819.644 412.275 819.617C406.06 817.159 398.995 816.841 392.525 818.537C389.777 819.263 385.952 820.342 384.082 822.483C381.891 824.996 380.19 827.889 379.322 831.073C379.218 831.454 379.114 831.862 378.821 832.144C378.528 832.425 377.98 832.497 377.725 832.18C377.603 832.026 377.574 831.817 377.555 831.618C377.13 827.164 377.31 820.687 371.851 819.118C369.678 818.492 367.345 818.71 365.088 818.936C363.605 819.082 361.896 819.363 361.15 820.606C360.743 821.277 360.555 822.256 359.761 822.383C359.232 822.465 358.741 822.057 358.552 821.576C357.646 819.227 360.3 816.007 362.387 815.145C364.21 814.401 366.24 814.365 368.224 814.374C371.095 814.392 374.146 814.546 376.526 816.088C377.272 816.569 377.943 817.186 378.774 817.503C380.729 818.265 382.58 816.106 384.176 815.236C386.226 814.12 388.408 813.249 390.674 812.641C395.142 811.435 399.911 811.235 404.445 812.17C406.136 812.514 407.826 813.031 409.3 813.911C410.301 814.501 411.179 815.172 411.642 816.233C411.746 816.442 411.897 817.122 412.048 817.821Z" fill="none" opacity="1" stroke="#231f20" stroke-linecap="round" stroke-linejoin="round" stroke-width="5" vectornator:layerName="path"/>
<path d="M236.817 820.479C231.726 821.113 229.658 826.275 231.736 831.645" fill="none" opacity="1" stroke="#231f20" stroke-linecap="round" stroke-linejoin="round" stroke-width="5" vectornator:layerName="path"/>
<path d="M227.826 821.621C224.048 822.447 221.516 828.742 223.169 831.645" fill="none" opacity="1" stroke="#231f20" stroke-linecap="round" stroke-linejoin="round" stroke-width="5" vectornator:layerName="path"/>
<path d="M219.467 822.365C214.442 824.225 215.84 829.304 216.473 831.536" fill="none" opacity="1" stroke="#231f20" stroke-linecap="round" stroke-linejoin="round" stroke-width="5" vectornator:layerName="path"/>
<path d="M268.968 821.957C270.649 824.243 270.781 827.481 269.279 829.885" fill="none" opacity="1" stroke="#231f20" stroke-linecap="round" stroke-linejoin="round" stroke-width="5" vectornator:layerName="path"/>
<path d="M271.924 825.803C272.519 827.626 272.122 829.731 270.894 831.237" fill="none" opacity="1" stroke="#231f20" stroke-linecap="round" stroke-linejoin="round" stroke-width="5" vectornator:layerName="path"/>
<path d="M253.006 822.792C256.009 821.64 259.353 821.34 262.526 821.93" fill="none" opacity="1" stroke="#231f20" stroke-linecap="round" stroke-linejoin="round" stroke-width="5" vectornator:layerName="path"/>
<path d="M361.773 825.059C365.23 823.626 369.216 823.427 372.805 824.488" fill="none" opacity="1" stroke="#231f20" stroke-linecap="round" stroke-linejoin="round" stroke-width="5" vectornator:layerName="path"/>
<path d="M389.229 823.2C389.975 826.202 390.126 829.341 389.683 832.389" fill="none" opacity="1" stroke="#231f20" stroke-linecap="round" stroke-linejoin="round" stroke-width="5" vectornator:layerName="path"/>
<path d="M398.957 822.692C400.28 825.522 400.469 828.824 399.477 831.772" fill="none" opacity="1" stroke="#231f20" stroke-linecap="round" stroke-linejoin="round" stroke-width="5" vectornator:layerName="path"/>
<path d="M406.768 823.708C407.609 826.275 407.543 829.114 406.579 831.645" fill="none" opacity="1" stroke="#231f20" stroke-linecap="round" stroke-linejoin="round" stroke-width="5" vectornator:layerName="path"/>
</g>
<g opacity="1" vectornator:layerName="pasoe_00000122701865982495187750000006048823575464524970_">
<path d="M288.001 588.145C287.734 588.315 287.457 588.448 287.145 588.541C286.379 602.557 286.546 612.783 288.06 623.04C288.704 627.411 289.754 723.585 290.037 728.658C290.373 734.672 289.062 784.865 288.975 784.982C290.119 785.169 288.934 785.347 290.304 785.464C293.171 785.711 299.134 786.123 304.795 786.258C304.63 786.071 304.663 780.883 304.589 779.739C304.468 777.87 304.37 775.533 304.235 772.056C304.204 771.274 304.009 765.95 303.968 765.055C303.878 763.026 303.792 761.743 303.732 761.37C302.928 756.323 302.558 751.159 302.434 744.759C302.39 742.498 302.383 740.699 302.375 736.652C302.362 729.422 302.284 726.22 302.05 722.195C301.747 716.991 299.606 702.57 299.542 702.154C297.912 691.673 297.269 685.889 297.269 679.165C297.269 667.312 296.32 655.405 294.405 643.137C294.226 641.985 290.331 612.924 290.304 612.041C290.277 611.209 288.497 594.769 288.001 588.145Z" fill="none" opacity="1" stroke="#231f20" stroke-linecap="round" stroke-linejoin="round" stroke-width="5" vectornator:layerName="Curve 1"/>
<g opacity="1" vectornator:layerName="g">
<path d="M244.496 408.967C242.615 409.246 240.905 409.832 239.743 412C238.515 414.295 238.505 417.02 238.533 419.597C238.675 431.053 237.946 442.495 237.294 453.924C236.964 459.702 236.667 465.485 236.497 471.272C235.76 496.018 232.847 521.481 235.671 546.164C238.268 568.905 233.309 593.844 233.309 617.03C233.309 637.122 236.518 655.637 238.444 675.593C240.985 701.899 242.85 728.593 246.325 754.708C247.308 762.065 250.221 786.399 250.221 786.399C250.221 786.399 280.155 789.737 288.769 787.76C290.629 736.918 288.001 685.689 288.001 634.774C288.001 607.761 287.145 580.821 287.145 553.817C287.136 536.655 284.861 519.723 286.259 502.652C286.873 495.232 289.133 486.666 288.916 479.237C288.727 472.761 285.407 467.886 283.839 461.692C280.061 446.77 285.366 436.393 284.223 436.604C280.945 437.211 274.19 436.466 270.439 434.082C267.377 432.135 266.032 429.015 265.215 427.024C262.655 420.784 260.812 413.878 263.798 410.895C263.734 410.943 263.658 410.989 263.591 411.036C263.409 411.164 262.308 414.193 262.083 414.322C262.064 414.333 258.201 415.145 255.14 414.622C252.859 414.232 251.014 414.07 249.781 413.547C248.535 413.018 246.146 411.562 246.108 411.547C245.187 411.196 245.018 409.59 244.496 408.967Z" fill="none" opacity="1" stroke="#231f20" stroke-linecap="round" stroke-linejoin="round" stroke-width="5" vectornator:layerName="Curve 2"/>
<g opacity="0.5" vectornator:layerName="path">
<path d="M265.215 408.854C264.935 409.715 264.88 409.889 264.654 410.157C264.351 410.511 264.34 410.525 264.212 410.639C264.119 410.723 263.977 410.825 263.858 410.923C261.764 413.602 258.232 414.416 254.088 413.672C250.698 413.064 246.931 411.445 244.732 409.704C244.479 409.504 244.317 409.241 244.142 408.995C242.399 409.3 240.836 409.961 239.743 412C238.515 414.295 238.505 417.02 238.533 419.597C238.675 431.053 237.946 442.495 237.294 453.924C236.964 459.702 236.667 465.485 236.497 471.272C235.76 496.018 232.847 521.481 235.671 546.164C238.268 568.905 233.309 593.844 233.309 617.03C233.309 637.122 236.518 655.637 238.444 675.593C240.985 701.899 242.85 728.593 246.325 754.708C247.308 762.065 250.221 786.399 250.221 786.399C250.221 786.399 280.155 789.737 288.769 787.76C290.629 736.918 288.001 685.689 288.001 634.774C288.001 607.761 287.145 580.821 287.145 553.817C287.136 536.655 284.861 519.723 286.259 502.652C286.873 495.232 289.133 486.666 288.916 479.237C288.727 472.761 285.407 467.886 283.839 461.692C281.468 452.326 282.354 444.919 284.341 437.285C282.423 437.332 279.74 437.19 277.228 436.775C275.164 436.433 273.433 435.976 272.122 435.357C270.452 434.571 270.057 435.438 267.96 433.6C267.447 433.333 263.198 426.764 262.352 420.646C261.674 415.736 264.032 411.344 266.012 408.938C265.745 408.918 265.481 408.875 265.215 408.854Z" fill="none" opacity="1" stroke="#231f20" stroke-linecap="round" stroke-linejoin="round" stroke-width="5" vectornator:layerName="path"/>
<g opacity="1" vectornator:layerName="path">
<clipPath clip-rule="nonzero" id="ClipPath">
<path d="M265.215 408.854C264.935 409.715 264.88 409.889 264.654 410.157C264.351 410.511 264.34 410.525 264.212 410.639C264.119 410.723 263.977 410.825 263.858 410.923C261.764 413.602 258.232 414.416 254.088 413.672C250.698 413.064 246.931 411.445 244.732 409.704C244.479 409.504 244.317 409.241 244.142 408.995C242.399 409.3 240.836 409.961 239.743 412C238.515 414.295 238.505 417.02 238.533 419.597C238.675 431.053 237.946 442.495 237.294 453.924C236.964 459.702 236.667 465.485 236.497 471.272C235.76 496.018 232.847 521.481 235.671 546.164C238.268 568.905 233.309 593.844 233.309 617.03C233.309 637.122 236.518 655.637 238.444 675.593C240.985 701.899 242.85 728.593 246.325 754.708C247.308 762.065 250.221 786.399 250.221 786.399C250.221 786.399 280.155 789.737 288.769 787.76C290.629 736.918 288.001 685.689 288.001 634.774C288.001 607.761 287.145 580.821 287.145 553.817C287.136 536.655 284.861 519.723 286.259 502.652C286.873 495.232 289.133 486.666 288.916 479.237C288.727 472.761 285.407 467.886 283.839 461.692C281.468 452.326 282.354 444.919 284.341 437.285C282.423 437.332 279.74 437.19 277.228 436.775C275.164 436.433 273.433 435.976 272.122 435.357C270.452 434.571 270.057 435.438 267.96 433.6C267.447 433.333 263.198 426.764 262.352 420.646C261.674 415.736 264.032 411.344 266.012 408.938C265.745 408.918 265.481 408.875 265.215 408.854Z"/>
</clipPath>
<g clip-path="url(#ClipPath)">
<path d="M236.657 405.986C236.638 410.312 239.481 414.276 243.117 416.834C246.753 419.383 251.117 420.762 255.414 422.059C258.238 422.912 261.1 423.765 264.056 423.901C267.012 424.037 270.12 423.393 272.377 421.551C274.634 419.71 275.834 416.544 274.748 413.895C273.52 410.884 270.006 409.469 266.842 408.362C261.799 406.603 256.765 404.834 251.721 403.074C249.039 402.131 246.234 401.178 243.391 401.441C240.548 401.704 237.639 403.564 237.242 406.285" fill="none" opacity="1" stroke="#231f20" stroke-linecap="round" stroke-linejoin="round" stroke-width="5" vectornator:layerName="path"/>
</g>
</g>
</g>
<g opacity="1" vectornator:layerName="path">
<path d="M243.463 409.194C242.002 409.567 240.68 410.251 239.743 412C238.515 414.295 238.505 417.02 238.533 419.597C238.675 431.053 237.946 442.495 237.294 453.924C236.964 459.702 236.667 465.485 236.497 471.272C235.76 496.018 232.847 521.481 235.671 546.164C238.268 568.905 233.309 593.844 233.309 617.03C233.309 637.122 236.518 655.637 238.444 675.593C240.985 701.899 242.85 728.593 246.325 754.708C247.308 762.065 250.221 786.399 250.221 786.399C250.221 786.399 280.155 789.737 288.769 787.76C290.629 736.918 288.001 685.689 288.001 634.774C288.001 607.761 287.145 580.821 287.145 553.817C287.136 536.655 284.861 519.723 286.259 502.652C286.873 495.232 289.133 486.666 288.916 479.237C288.727 472.761 285.407 467.886 283.839 461.692C281.309 451.7 282.287 445.418 284.577 437.228C283.309 437.618 282.141 437.354 280.592 437.228C279.77 437.161 276.822 437.26 276.638 437.228C268.806 435.858 266.23 432.186 264.389 424.529C264.374 424.468 262.973 422.009 262.707 420.646C262.238 418.249 262.285 414.458 262.47 413.616C262.632 412.877 263.29 412.095 263.693 411.42C263.524 411.503 262.484 413.815 260.904 414.158C258.743 414.627 254.29 414.486 254.081 414.474C253.694 414.452 248.026 413.354 245.499 411.15C245.211 410.898 243.941 409.757 243.846 409.676C243.684 409.536 243.59 409.354 243.463 409.194Z" fill="none" opacity="1" stroke="#231f20" stroke-linecap="round" stroke-linejoin="round" stroke-width="5" vectornator:layerName="path"/>
<g opacity="1" vectornator:layerName="path">
<clipPath clip-rule="nonzero" id="ClipPath_2">
<path d="M243.463 409.194C242.002 409.567 240.68 410.251 239.743 412C238.515 414.295 238.505 417.02 238.533 419.597C238.675 431.053 237.946 442.495 237.294 453.924C236.964 459.702 236.667 465.485 236.497 471.272C235.76 496.018 232.847 521.481 235.671 546.164C238.268 568.905 233.309 593.844 233.309 617.03C233.309 637.122 236.518 655.637 238.444 675.593C240.985 701.899 242.85 728.593 246.325 754.708C247.308 762.065 250.221 786.399 250.221 786.399C250.221 786.399 280.155 789.737 288.769 787.76C290.629 736.918 288.001 685.689 288.001 634.774C288.001 607.761 287.145 580.821 287.145 553.817C287.136 536.655 284.861 519.723 286.259 502.652C286.873 495.232 289.133 486.666 288.916 479.237C288.727 472.761 285.407 467.886 283.839 461.692C281.309 451.7 282.287 445.418 284.577 437.228C283.309 437.618 282.141 437.354 280.592 437.228C279.77 437.161 276.822 437.26 276.638 437.228C268.806 435.858 266.23 432.186 264.389 424.529C264.374 424.468 262.973 422.009 262.707 420.646C262.238 418.249 262.285 414.458 262.47 413.616C262.632 412.877 263.29 412.095 263.693 411.42C263.524 411.503 262.484 413.815 260.904 414.158C258.743 414.627 254.29 414.486 254.081 414.474C253.694 414.452 248.026 413.354 245.499 411.15C245.211 410.898 243.941 409.757 243.846 409.676C243.684 409.536 243.59 409.354 243.463 409.194Z"/>
</clipPath>
<g clip-path="url(#ClipPath_2)">
<path d="M246.271 538.239C256.453 523.916 260.873 506.926 263.678 489.9C266.143 474.951 268.637 451.694 271.376 437.226" fill="none" opacity="1" stroke="#231f20" stroke-linecap="round" stroke-linejoin="round" stroke-width="5" vectornator:layerName="path"/>
</g>
</g>
</g>
<g opacity="1" vectornator:layerName="path">
<path d="M242.665 409.477C241.54 409.908 240.512 410.565 239.743 412C238.515 414.295 238.505 417.02 238.533 419.597C238.675 431.053 237.946 442.495 237.294 453.924C236.964 459.702 236.667 465.485 236.497 471.272C235.76 496.018 232.847 521.481 235.671 546.164C238.268 568.905 233.309 593.844 233.309 617.03C233.309 637.122 236.518 655.637 238.444 675.593C240.985 701.899 242.85 728.593 246.325 754.708C247.308 762.065 250.221 786.399 250.221 786.399C250.221 786.399 280.155 789.737 288.769 787.76C290.629 736.918 288.001 685.689 288.001 634.774C288.001 607.761 287.145 580.821 287.145 553.817C287.136 536.655 284.861 519.723 286.259 502.652C286.873 495.232 289.133 486.666 288.916 479.237C288.727 472.761 285.407 467.886 283.839 461.692C281.465 452.312 282.376 444.902 284.37 437.257C279.721 438.053 273.186 437.033 268.728 432.976C266.899 431.312 266.122 427.628 264.861 425.719C261.852 421.164 261.94 415.655 261.969 415.174C261.98 414.974 262.37 413.69 262.529 413.163C262.076 413.472 261.613 413.759 261.024 413.956C257.411 415.167 250.333 414.223 247.008 412.245C246.481 411.931 244.762 410.404 244.38 409.962C244.15 409.698 244.326 408.847 244.38 408.895C244.306 408.828 242.732 409.549 242.665 409.477Z" fill="none" opacity="1" stroke="#231f20" stroke-linecap="round" stroke-linejoin="round" stroke-width="5" vectornator:layerName="path"/>
<g opacity="1" vectornator:layerName="path">
<clipPath clip-rule="nonzero" id="ClipPath_3">
<path d="M242.665 409.477C241.54 409.908 240.512 410.565 239.743 412C238.515 414.295 238.505 417.02 238.533 419.597C238.675 431.053 237.946 442.495 237.294 453.924C236.964 459.702 236.667 465.485 236.497 471.272C235.76 496.018 232.847 521.481 235.671 546.164C238.268 568.905 233.309 593.844 233.309 617.03C233.309 637.122 236.518 655.637 238.444 675.593C240.985 701.899 242.85 728.593 246.325 754.708C247.308 762.065 250.221 786.399 250.221 786.399C250.221 786.399 280.155 789.737 288.769 787.76C290.629 736.918 288.001 685.689 288.001 634.774C288.001 607.761 287.145 580.821 287.145 553.817C287.136 536.655 284.861 519.723 286.259 502.652C286.873 495.232 289.133 486.666 288.916 479.237C288.727 472.761 285.407 467.886 283.839 461.692C281.465 452.312 282.376 444.902 284.37 437.257C279.721 438.053 273.186 437.033 268.728 432.976C266.899 431.312 266.122 427.628 264.861 425.719C261.852 421.164 261.94 415.655 261.969 415.174C261.98 414.974 262.37 413.69 262.529 413.163C262.076 413.472 261.613 413.759 261.024 413.956C257.411 415.167 250.333 414.223 247.008 412.245C246.481 411.931 244.762 410.404 244.38 409.962C244.15 409.698 244.326 408.847 244.38 408.895C244.306 408.828 242.732 409.549 242.665 409.477Z"/>
</clipPath>
<g clip-path="url(#ClipPath_3)">
<path d="M271.678 441.144C271.678 487.315 271.584 540.116 255.981 588.709" fill="none" opacity="1" stroke="#231f20" stroke-linecap="round" stroke-linejoin="round" stroke-width="5" vectornator:layerName="path"/>
</g>
</g>
</g>
<path d="M243.9 408.975C241.847 409.224 240.992 409.669 239.743 412C238.515 414.295 238.505 417.02 238.533 419.597C238.675 431.053 237.946 442.495 237.294 453.924C236.964 459.702 236.667 465.485 236.497 471.272C235.76 496.018 232.847 521.481 235.671 546.164C238.268 568.905 233.309 593.844 233.309 617.03C233.309 637.122 236.518 655.637 238.444 675.593C240.985 701.899 242.85 728.593 246.325 754.708C247.308 762.065 250.221 786.399 250.221 786.399C250.221 786.399 280.155 789.737 288.769 787.76C290.629 736.918 288.001 685.689 288.001 634.774C288.001 607.761 287.145 580.821 287.145 553.817C287.136 536.655 284.861 519.723 286.259 502.652C286.873 495.232 289.133 486.666 288.916 479.237C288.727 472.761 285.407 467.886 283.839 461.692C281.401 452.059 282.402 444.501 284.519 436.633C284.499 436.636 284.443 436.631 284.43 436.633C284.114 436.681 282.63 436.934 282.393 436.974C279.607 437.436 277.96 436.931 275.811 436.293C273.65 435.652 270.293 434.671 267.901 431.956C265.943 429.732 266.073 427.874 265.097 426.089C262.417 421.18 261.372 417.488 261.88 415.657C262.307 414.116 261.874 414.405 262.943 412.538C262.829 412.646 262.596 413.833 262.31 414.041C261.624 414.539 260.464 414.505 260.327 414.52C260.041 414.574 258.841 414.64 258.384 414.663C256.72 414.747 252.852 414.455 252.636 414.399C252.517 414.367 249.09 413.424 247.117 412.171C245.694 411.267 244.465 410.171 244.38 410.088C244.189 409.931 244.046 409.261 243.9 408.975Z" fill="none" opacity="1" stroke="#231f20" stroke-linecap="round" stroke-linejoin="round" stroke-width="5" vectornator:layerName="Curve 1"/>
</g>
<g opacity="1" vectornator:layerName="g">
<path d="M311.82 418.775C312.198 419.489 312.551 420.082 312.794 420.986C313.106 422.149 312.898 423.495 312.882 423.736C312.824 424.663 312.478 425.226 311.997 425.748C311.909 425.844 309.729 427.604 307.274 428.526C304.982 429.387 302.42 429.399 301.961 429.801C301.904 429.852 301.902 429.836 301.843 429.886C301.115 430.526 297.751 430.949 294.966 432.013C291.754 433.24 289.09 435.086 288.473 435.273C286.663 435.818 286.006 436.129 284.43 436.463C280.693 437.254 276.593 437.54 274.011 436.831C273.359 436.652 272.872 436.3 272.328 436.009C269.245 460.083 275.501 483.048 279.324 507.216C285.265 544.769 285.846 582.456 291.248 619.865C296.292 654.76 299.564 690.241 301.519 725.2C302.275 738.67 302.879 752.191 303.644 765.707C303.899 770.233 304.943 788.412 304.943 788.412C304.943 788.412 334.605 790.616 346.146 791.133C361.088 791.805 373.965 791.724 387.822 787.08C391.827 785.737 396.502 783.429 400.573 782.658C403.397 782.122 412.671 782.137 414.976 780.759C414.976 780.759 413.999 731.777 413.943 721.146C413.792 695.784 407.08 672.564 403.406 647.7C397.399 607.163 389.816 566.233 387.615 525.216C386.349 501.523 391.924 478.483 383.66 455.824C381.03 448.616 379.63 439.211 376.536 431.188C376.088 431.223 373.437 431.68 372.891 431.625C372.802 431.616 367.786 431.272 362.246 430.372C354.021 429.035 342.678 425.968 341.099 425.719C331.274 424.174 315.565 419.349 311.82 418.775Z" fill="none" opacity="1" stroke="#231f20" stroke-linecap="round" stroke-linejoin="round" stroke-width="5" vectornator:layerName="Curve 4"/>
<g opacity="0.5" vectornator:layerName="path">
<path d="M311.642 418.661C312.575 421.324 311.955 423.854 309.666 425.578C308.935 426.127 306.844 427.581 304.057 428.498C300.51 429.664 296.053 430.316 294.258 431.106C290.523 432.747 287.947 436.866 285.905 437.228C280.854 438.126 272.525 436.5 272.269 436.378C269.297 460.317 275.52 483.171 279.324 507.216C285.265 544.769 285.846 582.456 291.248 619.865C296.292 654.76 299.564 690.241 301.519 725.2C302.275 738.67 302.879 752.191 303.644 765.707C303.899 770.233 304.943 788.412 304.943 788.412C304.943 788.412 334.605 790.616 346.146 791.133C361.088 791.805 373.965 791.724 387.822 787.08C391.827 785.737 396.502 783.43 400.573 782.658C403.397 782.122 412.671 782.137 414.976 780.759C414.976 780.759 413.999 731.777 413.943 721.146C413.792 695.784 407.08 672.564 403.406 647.7C397.399 607.163 389.816 566.233 387.615 525.216C386.349 501.523 391.924 478.483 383.66 455.824C381.011 448.565 379.72 440.118 376.583 432.064C376.372 432.054 376.606 431.624 376.379 431.599C372.46 433.179 367.413 432.449 362.527 431.502C360.042 431.02 356.669 431.105 352.958 429.898C348.803 428.549 318.951 421.587 318.726 421.411C318.285 421.067 315.975 420.448 315.008 420.163C313.623 419.756 312.559 419.27 311.642 418.661Z" fill="none" opacity="1" stroke="#231f20" stroke-linecap="round" stroke-linejoin="round" stroke-width="5" vectornator:layerName="path"/>
<g opacity="1" vectornator:layerName="path">
<clipPath clip-rule="nonzero" id="ClipPath_4">
<path d="M311.642 418.661C312.575 421.324 311.955 423.854 309.666 425.578C308.935 426.127 306.844 427.581 304.057 428.498C300.51 429.664 296.053 430.316 294.258 431.106C290.523 432.747 287.947 436.866 285.905 437.228C280.854 438.126 272.525 436.5 272.269 436.378C269.297 460.317 275.52 483.171 279.324 507.216C285.265 544.769 285.846 582.456 291.248 619.865C296.292 654.76 299.564 690.241 301.519 725.2C302.275 738.67 302.879 752.191 303.644 765.707C303.899 770.233 304.943 788.412 304.943 788.412C304.943 788.412 334.605 790.616 346.146 791.133C361.088 791.805 373.965 791.724 387.822 787.08C391.827 785.737 396.502 783.43 400.573 782.658C403.397 782.122 412.671 782.137 414.976 780.759C414.976 780.759 413.999 731.777 413.943 721.146C413.792 695.784 407.08 672.564 403.406 647.7C397.399 607.163 389.816 566.233 387.615 525.216C386.349 501.523 391.924 478.483 383.66 455.824C381.011 448.565 379.72 440.118 376.583 432.064C376.372 432.054 376.606 431.624 376.379 431.599C372.46 433.179 367.413 432.449 362.527 431.502C360.042 431.02 356.669 431.105 352.958 429.898C348.803 428.549 318.951 421.587 318.726 421.411C318.285 421.067 315.975 420.448 315.008 420.163C313.623 419.756 312.559 419.27 311.642 418.661Z"/>
</clipPath>
<g clip-path="url(#ClipPath_4)">
<path d="M269.364 433.253L269.364 433.253C273.378 437.471 279.735 439.031 285.676 438.668C291.616 438.305 297.283 436.273 302.865 434.278C308.447 432.291 314.142 430.305 320.083 430.051C328.688 429.688 336.942 432.953 345.14 435.493C357.664 439.385 370.727 441.68 383.874 442.296C388.077 442.496 393.083 442.133 395.274 438.677C396.643 436.518 396.436 433.788 396.115 431.275C395.482 426.295 394.481 421.034 390.977 417.315C386.906 412.997 380.474 411.755 374.505 410.757C348.144 406.349 321.235 401.995 294.771 405.768C286.261 406.983 277.26 409.197 270.516 414.603C264.953 419.066 264.491 428.128 269.364 433.253Z" fill="none" opacity="1" stroke="#231f20" stroke-linecap="round" stroke-linejoin="round" stroke-width="5" vectornator:layerName="path"/>
</g>
</g>
</g>
<g opacity="1" vectornator:layerName="path">
<path d="M312.027 419.455C312.472 420.301 312.933 421.18 312.971 421.297C312.94 422.558 311.978 424.99 311.967 425.011C310.079 428.891 302.824 430.189 299.571 430.284C299.481 430.286 295.676 431.811 295.586 431.814C293.19 431.883 283.939 437.125 283.633 437.228C283.264 437.353 280.066 437.41 278.556 437.228C276.11 436.935 273.051 435.591 272.269 435.074C269.589 458.655 275.572 483.503 279.324 507.216C285.265 544.769 285.846 582.456 291.248 619.865C296.292 654.76 299.564 690.241 301.519 725.2C302.275 738.67 302.879 752.191 303.644 765.707C303.899 770.233 304.943 788.412 304.943 788.412C304.943 788.412 334.605 790.616 346.146 791.133C361.088 791.805 373.965 791.724 387.822 787.08C391.827 785.737 396.502 783.43 400.573 782.658C403.397 782.122 412.671 782.137 414.976 780.759C414.976 780.759 413.999 731.777 413.943 721.146C413.792 695.784 407.08 672.564 403.406 647.7C397.399 607.163 389.816 566.233 387.615 525.216C386.349 501.523 391.924 478.483 383.66 455.824C380.905 448.274 379.857 439.105 376.469 430.893C376.242 431.05 376.032 431.119 375.756 431.241C374.776 431.673 360.949 430.632 353.917 429.07C345.541 427.209 337.015 424.684 336.465 424.557C333.767 423.934 317.935 419.831 317.369 419.88C317.249 419.89 317.148 419.919 316.955 419.937C315.853 420.038 315.423 420.05 314.83 420.05C313.766 420.052 312.892 419.896 312.027 419.455Z" fill="none" opacity="1" stroke="#231f20" stroke-linecap="round" stroke-linejoin="round" stroke-width="5" vectornator:layerName="path"/>
<g opacity="1" vectornator:layerName="path">
<clipPath clip-rule="nonzero" id="ClipPath_5">
<path d="M312.027 419.455C312.472 420.301 312.933 421.18 312.971 421.297C312.94 422.558 311.978 424.99 311.967 425.011C310.079 428.891 302.824 430.189 299.571 430.284C299.481 430.286 295.676 431.811 295.586 431.814C293.19 431.883 283.939 437.125 283.633 437.228C283.264 437.353 280.066 437.41 278.556 437.228C276.11 436.935 273.051 435.591 272.269 435.074C269.589 458.655 275.572 483.503 279.324 507.216C285.265 544.769 285.846 582.456 291.248 619.865C296.292 654.76 299.564 690.241 301.519 725.2C302.275 738.67 302.879 752.191 303.644 765.707C303.899 770.233 304.943 788.412 304.943 788.412C304.943 788.412 334.605 790.616 346.146 791.133C361.088 791.805 373.965 791.724 387.822 787.08C391.827 785.737 396.502 783.43 400.573 782.658C403.397 782.122 412.671 782.137 414.976 780.759C414.976 780.759 413.999 731.777 413.943 721.146C413.792 695.784 407.08 672.564 403.406 647.7C397.399 607.163 389.816 566.233 387.615 525.216C386.349 501.523 391.924 478.483 383.66 455.824C380.905 448.274 379.857 439.105 376.469 430.893C376.242 431.05 376.032 431.119 375.756 431.241C374.776 431.673 360.949 430.632 353.917 429.07C345.541 427.209 337.015 424.684 336.465 424.557C333.767 423.934 317.935 419.831 317.369 419.88C317.249 419.89 317.148 419.919 316.955 419.937C315.853 420.038 315.423 420.05 314.83 420.05C313.766 420.052 312.892 419.896 312.027 419.455Z"/>
</clipPath>
<g clip-path="url(#ClipPath_5)">
<path d="M282.861 437.226C291.862 467.468 302.941 476.185 307.144 481.283C315.115 490.952 322.473 497.873 333.693 502.409" fill="none" opacity="1" stroke="#231f20" stroke-linecap="round" stroke-linejoin="round" stroke-width="5" vectornator:layerName="path"/>
</g>
</g>
</g>
<g opacity="1" vectornator:layerName="path">
<path d="M311.997 419.059C312.167 419.572 312.339 420.09 312.381 420.702C312.521 422.789 311.46 424.466 309.695 426.089C308.736 426.969 307.724 427.665 306.418 428.498C304.419 429.773 302.843 430.152 299.689 430.482C298.144 430.643 297.536 430.743 296.855 430.964C296.813 430.978 296.809 430.978 296.767 430.992C295.607 431.389 294.515 432.002 292.487 433.288C292.356 433.372 292.211 433.438 291.956 433.6C288.148 436.023 286.205 437.025 283.338 437.511C281.709 437.788 279.146 437.71 276.963 437.314C275.127 436.98 273.596 436.422 272.388 435.584C269.173 459.812 275.479 482.907 279.324 507.216C285.265 544.769 285.846 582.456 291.248 619.865C296.292 654.76 299.564 690.241 301.519 725.2C302.275 738.67 302.879 752.191 303.644 765.707C303.899 770.233 304.943 788.412 304.943 788.412C304.943 788.412 334.605 790.616 346.146 791.133C361.088 791.805 373.966 791.724 387.822 787.08C391.827 785.737 396.502 783.429 400.573 782.658C403.397 782.122 412.671 782.137 414.976 780.759C414.976 780.759 413.999 731.777 413.943 721.146C413.792 695.784 407.08 672.564 403.406 647.7C397.399 607.163 389.816 566.234 387.615 525.216C386.349 501.523 391.924 478.483 383.66 455.824C381.033 448.623 379.339 438.812 376.252 430.794C375.966 430.907 375.696 431.063 375.366 431.134C375.156 431.179 374.541 431.28 374.717 431.247C372.493 431.662 370.457 431.634 367.781 431.304C367.291 431.243 366.947 431.209 366.01 431.077C364.344 430.843 363.551 430.735 362.615 430.68C361.412 430.61 326.445 421.755 324.659 421.468C324.431 421.431 320.232 421.012 318.608 420.788C316.48 420.493 314.742 420.133 313.355 419.654C312.859 419.481 312.424 419.269 311.997 419.059Z" fill="none" opacity="1" stroke="#231f20" stroke-linecap="round" stroke-linejoin="round" stroke-width="5" vectornator:layerName="path"/>
<g opacity="1" vectornator:layerName="path">
<clipPath clip-rule="nonzero" id="ClipPath_6">
<path d="M311.997 419.059C312.167 419.572 312.339 420.09 312.381 420.702C312.521 422.789 311.46 424.466 309.695 426.089C308.736 426.969 307.724 427.665 306.418 428.498C304.419 429.773 302.843 430.152 299.689 430.482C298.144 430.643 297.536 430.743 296.855 430.964C296.813 430.978 296.809 430.978 296.767 430.992C295.607 431.389 294.515 432.002 292.487 433.288C292.356 433.372 292.211 433.438 291.956 433.6C288.148 436.023 286.205 437.025 283.338 437.511C281.709 437.788 279.146 437.71 276.963 437.314C275.127 436.98 273.596 436.422 272.388 435.584C269.173 459.812 275.479 482.907 279.324 507.216C285.265 544.769 285.846 582.456 291.248 619.865C296.292 654.76 299.564 690.241 301.519 725.2C302.275 738.67 302.879 752.191 303.644 765.707C303.899 770.233 304.943 788.412 304.943 788.412C304.943 788.412 334.605 790.616 346.146 791.133C361.088 791.805 373.966 791.724 387.822 787.08C391.827 785.737 396.502 783.429 400.573 782.658C403.397 782.122 412.671 782.137 414.976 780.759C414.976 780.759 413.999 731.777 413.943 721.146C413.792 695.784 407.08 672.564 403.406 647.7C397.399 607.163 389.816 566.234 387.615 525.216C386.349 501.523 391.924 478.483 383.66 455.824C381.033 448.623 379.339 438.812 376.252 430.794C375.966 430.907 375.696 431.063 375.366 431.134C375.156 431.179 374.541 431.28 374.717 431.247C372.493 431.662 370.457 431.634 367.781 431.304C367.291 431.243 366.947 431.209 366.01 431.077C364.344 430.843 363.551 430.735 362.615 430.68C361.412 430.61 326.445 421.755 324.659 421.468C324.431 421.431 320.232 421.012 318.608 420.788C316.48 420.493 314.742 420.133 313.355 419.654C312.859 419.481 312.424 419.269 311.997 419.059Z"/>
</clipPath>
<g clip-path="url(#ClipPath_6)">
<path d="M277.43 436.654C281.085 497.22 319.847 549.342 344.952 597.925" fill="none" opacity="1" stroke="#231f20" stroke-linecap="round" stroke-linejoin="round" stroke-width="5" vectornator:layerName="path"/>
</g>
</g>
</g>
<path d="M310.728 416.932C311.912 418.592 313.434 420.788 312.971 423.792C312.663 425.791 311.261 427.059 309.311 427.903C308.173 428.394 306.823 428.726 305.208 429.008C303.953 429.226 298.853 430.643 298.715 430.68C297.86 430.911 290.789 433.592 290.304 433.883C290.113 433.997 289.037 434.45 288.68 434.79C288.11 435.334 287.487 435.645 286.762 435.868C286.014 436.097 281.964 437.312 279.707 437.228C276.739 437.119 273.195 435.889 272.476 435.528C268.719 460.376 275.389 482.34 279.324 507.216C285.265 544.769 285.846 582.456 291.248 619.865C296.292 654.76 299.564 690.241 301.519 725.2C302.275 738.67 302.879 752.191 303.644 765.707C303.899 770.233 304.943 788.412 304.943 788.412C304.943 788.412 334.605 790.616 346.146 791.133C361.088 791.805 373.965 791.724 387.822 787.08C391.827 785.737 396.502 783.429 400.573 782.658C403.397 782.122 412.671 782.137 414.976 780.759C414.976 780.759 413.999 731.777 413.943 721.146C413.792 695.784 407.08 672.564 403.406 647.7C397.399 607.163 389.816 566.233 387.615 525.216C386.349 501.523 391.924 478.483 383.66 455.824C381.219 449.134 379.379 439.082 376.685 431.413C376.671 431.414 372.258 432.198 366.779 431.329C355.274 429.502 337.778 425.234 337.389 425.149C336.954 425.053 332.473 423.521 331.589 423.241C330.954 423.04 317.468 420.468 317.067 420.335C316.717 420.218 313.134 421.271 311.966 420.036C310.987 418.999 311.905 417.85 311.76 417.527C311.527 417.353 311.434 417.117 311.23 416.932C311.055 416.938 310.902 416.926 310.728 416.932Z" fill="none" opacity="1" stroke="#231f20" stroke-linecap="round" stroke-linejoin="round" stroke-width="5" vectornator:layerName="Curve 3"/>
</g>
</g>
<g opacity="1" vectornator:layerName="head_00000121271747888260864630000008630587244956897968_">
<path d="M367.94 162.188C367.685 166.116 366.268 169.141 365.201 172.819C362.054 183.672 362.052 169.703 357.152 172.542C355.279 173.627 352.966 173.873 352.013 175.745C350.469 178.777 350.697 185.152 346.69 185.09C346.511 180.41 345.595 166.064 345.633 161.375C345.675 156.027 348.02 152.148 346.355 148.616C346.347 145.501 331.182 141.798 324.149 143.402C304.99 147.769 311.966 141.888 302.049 142.202C299.304 142.289 294.984 145.852 292.122 152.932C291.183 155.155 291.295 158.56 290.974 157.762L290.02 155.213C290.294 156.065 290.02 155.213 290.02 155.213C288.83 151.43 288.962 147.376 290.152 143.611C290.7 141.897 291.522 140.237 292.145 138.586C292.769 136.944 294.063 135.366 294.365 133.642C294.601 132.254 293.855 131.293 293.6 130.077C292.589 125.288 298.662 122.766 302.676 122.721C306.671 122.676 311.828 123.891 315.625 122.585C317.165 122.05 318.355 120.979 319.894 120.508C324.305 119.147 329.538 119.374 333.542 121.687C336.395 123.329 339.332 125.497 342.524 126.513C346.661 127.819 347.549 123.338 351.95 124.825C355.842 126.141 361.121 130.132 362.5 133.796C363.747 137.062 364.436 141.08 364.276 144.573C364.125 147.974 363.454 150.768 365.456 153.789C367.383 156.664 368.186 158.524 367.94 162.188Z" fill="none" opacity="1" stroke="#231f20" stroke-linecap="round" stroke-linejoin="round" stroke-width="5" vectornator:layerName="path"/>
<path d="M360.177 189.727C360.007 190.154 359.856 190.589 359.629 190.997C358.278 193.428 356.078 195.415 353.008 194.825C352.375 194.707 351.61 194 350.959 194.308C350.241 194.644 350.175 196.086 350.033 196.721C349.504 199.116 349.325 201.583 348.673 203.932C348.012 206.327 347.086 208.74 346.661 211.189C345.764 216.423 345.584 222.119 347.87 227.072C350.052 231.816 356.531 232.242 360.205 235.816C364.446 239.944 355.398 244.452 352.517 245.958C349.901 247.327 346.557 248.325 344.385 250.303C341.315 253.096 337.84 254.647 334.279 256.87C330.35 259.328 324.976 260.779 320.338 261.197C313.916 261.777 305.274 260.825 301.363 255.128C300.041 253.205 299.541 250.82 298.483 248.761C297.85 247.527 297.16 246.411 296.754 245.078C296.292 243.572 296.065 242.048 296.008 240.497C295.952 238.783 295.942 237.64 297.482 236.642C299.748 235.181 302.988 234.864 304.839 232.805C306.908 230.501 306.964 226.147 304.953 223.834C303.715 222.41 303.753 221.703 303.753 219.939C303.753 215.656 300.578 210.14 299.388 206.176C298.381 202.818 295.765 201.42 293.447 199.686C292.328 198.85 290.993 198.295 290.483 196.721C289.416 193.474 287.555 190.326 287.857 186.825C288.216 182.652 291.531 179.296 292.098 175.205C292.523 172.103 290.653 168.465 290.615 165.245C290.587 162.125 290.832 158.451 291.446 154.841C293.449 150.26 295.149 144.963 300.23 142.758C304.716 140.817 306.586 143.167 310.506 144.772C315.229 146.704 320.036 143.266 324.702 143.266C329.046 143.266 333.249 143.947 337.518 144.645C340.739 145.162 344.357 145.344 346.17 148.264C347.436 150.296 346.982 152.464 346.567 154.868C346.161 157.226 345.292 159.15 345.613 161.535C345.887 163.54 345.981 165.581 346.066 167.721C346.312 173.418 346.416 179.078 346.689 184.757C346.727 185.573 348.522 184.348 348.748 184.076C349.296 183.423 349.315 182.416 349.513 181.627C349.778 180.557 350.09 179.495 350.515 178.47C351.223 176.774 352.29 175.178 353.811 174.08C354.982 173.237 356.38 172.729 357.806 172.429C358.562 172.275 359.374 172.175 360.082 172.466C361.159 172.892 361.697 174.044 362.122 175.087C363.057 177.337 364.002 179.686 363.785 182.099C363.634 183.859 362.859 185.491 361.933 186.988C361.48 187.714 360.847 188.394 360.451 189.147C360.347 189.31 360.262 189.519 360.177 189.727Z" fill="none" opacity="1" stroke="#231f20" stroke-linecap="round" stroke-linejoin="round" stroke-width="5" vectornator:layerName="path"/>
<g opacity="1" vectornator:layerName="g">
<g opacity="1" vectornator:layerName="path">
<path d="M306.653 212.096C305.359 212.096 304.084 211.942 302.856 211.506C301.779 211.126 300.886 210.407 300.527 209.282C300.158 208.13 300.457 207.397 300.665 206.409C300.91 205.257 299.588 202.127 300.976 201.311C302.015 200.694 304.679 201.855 305.812 201.919C308.098 202.046 309.684 201.783 311.942 201.646C313.415 201.556 313.623 201.583 314.369 202.653C315.351 204.068 316.56 205.901 316.9 207.561C317.155 208.785 316.239 209.81 315.474 210.763C314.464 212.024 314.341 211.516 312.688 211.633C310.723 211.77 308.664 212.105 306.653 212.096Z" fill="none" opacity="1" stroke="#231f20" stroke-linecap="round" stroke-linejoin="round" stroke-width="5" vectornator:layerName="path"/>
<g opacity="1" vectornator:layerName="path">
<clipPath clip-rule="nonzero" id="ClipPath_7">
<path d="M306.653 212.096C305.359 212.096 304.084 211.942 302.856 211.506C301.779 211.126 300.886 210.407 300.527 209.282C300.158 208.13 300.457 207.397 300.665 206.409C300.91 205.257 299.588 202.127 300.976 201.311C302.015 200.694 304.679 201.855 305.812 201.919C308.098 202.046 309.684 201.783 311.942 201.646C313.415 201.556 313.623 201.583 314.369 202.653C315.351 204.068 316.56 205.901 316.9 207.561C317.155 208.785 316.239 209.81 315.474 210.763C314.464 212.024 314.341 211.516 312.688 211.633C310.723 211.77 308.664 212.105 306.653 212.096Z"/>
</clipPath>
<g clip-path="url(#ClipPath_7)">
<path d="M310.44 204.377C311.828 204.096 313.245 203.878 314.615 204.096C315.984 204.313 317.306 205.012 318.09 206.282C318.534 206.998 318.78 207.869 318.95 208.749C319.025 209.157 319.092 209.583 319.025 210.001C318.903 210.844 318.317 211.534 317.722 212.078C315.587 214.019 312.905 214.962 310.279 215.198C307.663 215.434 305.075 215.017 302.535 214.5L302.535 214.5C301.09 214.21 293.638 213.266 295.366 210.345C296.216 208.903 298.114 208.404 299.408 207.842C301.118 207.107 302.846 206.454 304.584 205.892C306.52 205.275 308.475 204.767 310.44 204.377Z" fill="none" opacity="1" stroke="#231f20" stroke-linecap="round" stroke-linejoin="round" stroke-width="5" vectornator:layerName="path"/>
</g>
</g>
</g>
<g opacity="1" vectornator:layerName="path">
<path d="M306.653 212.096C305.359 212.096 304.084 211.942 302.856 211.506C301.779 211.126 300.907 210.314 300.548 209.189C300.18 208.037 300.457 207.397 300.665 206.409C300.91 205.257 299.588 202.127 300.976 201.311C302.015 200.694 304.679 201.855 305.812 201.919C308.098 202.046 309.684 201.783 311.942 201.646C313.415 201.556 313.623 201.583 314.369 202.653C315.351 204.068 316.56 205.901 316.9 207.561C317.155 208.785 316.239 209.81 315.474 210.763C314.464 212.024 314.341 211.516 312.688 211.633C310.723 211.77 308.664 212.105 306.653 212.096Z" fill="none" opacity="1" stroke="#231f20" stroke-linecap="round" stroke-linejoin="round" stroke-width="5" vectornator:layerName="path"/>
<g opacity="1" vectornator:layerName="path">
<clipPath clip-rule="nonzero" id="ClipPath_8">
<path d="M306.653 212.096C305.359 212.096 304.084 211.942 302.856 211.506C301.779 211.126 300.907 210.314 300.548 209.189C300.18 208.037 300.457 207.397 300.665 206.409C300.91 205.257 299.588 202.127 300.976 201.311C302.015 200.694 304.679 201.855 305.812 201.919C308.098 202.046 309.684 201.783 311.942 201.646C313.415 201.556 313.623 201.583 314.369 202.653C315.351 204.068 316.56 205.901 316.9 207.561C317.155 208.785 316.239 209.81 315.474 210.763C314.464 212.024 314.341 211.516 312.688 211.633C310.723 211.77 308.664 212.105 306.653 212.096Z"/>
</clipPath>
<g clip-path="url(#ClipPath_8)">
<path d="M314.813 204.758C314.851 204.749 314.889 204.749 314.917 204.74C316.116 204.531 317.675 204.431 318.723 203.796C320.083 202.98 319.507 199.651 319.394 198.417C319.384 198.263 319.356 198.091 319.262 198C319.186 197.927 319.082 197.927 318.988 197.936C313.396 198.49 307.795 199.034 302.204 199.596C301.09 199.705 299.918 200.467 299.38 201.402C299.021 202.018 298.946 202.726 299.097 203.415C299.276 204.277 299.985 204.413 300.806 204.712C302.195 205.22 303.838 205.084 305.302 205.257C308.315 205.62 311.819 205.266 314.813 204.758Z" fill="none" opacity="1" stroke="#231f20" stroke-linecap="round" stroke-linejoin="round" stroke-width="5" vectornator:layerName="path"/>
</g>
</g>
</g>
<path d="M306.653 212.096C305.359 212.096 304.084 211.942 302.856 211.506C301.779 211.126 300.852 210.465 300.493 209.34C300.124 208.188 300.457 207.397 300.665 206.409C300.91 205.257 299.588 202.127 300.976 201.311C302.015 200.694 304.679 201.855 305.812 201.919C308.098 202.046 309.684 201.783 311.942 201.646C313.415 201.556 313.623 201.583 314.369 202.653C315.351 204.068 316.56 205.901 316.9 207.561C317.155 208.785 316.239 209.81 315.474 210.763C314.464 212.024 314.341 211.516 312.688 211.633C310.723 211.77 308.664 212.105 306.653 212.096Z" fill="none" opacity="1" stroke="#231f20" stroke-linecap="round" stroke-linejoin="round" stroke-width="5" vectornator:layerName="path"/>
</g>
<path d="M329.434 175.858C328.527 174.969 328.036 174.017 326.751 173.382C324.796 172.411 321.481 172.674 318.827 173.191C317.883 173.373 315.455 174.443 314.426 174.96C313.812 175.268 313.358 174.379 313.16 173.971C312.848 173.327 312.386 172.602 312.877 171.93C313.255 171.413 313.783 170.715 314.341 170.37" fill="none" opacity="1" stroke="#231f20" stroke-linecap="round" stroke-linejoin="round" stroke-width="5" vectornator:layerName="path"/>
<path d="M313.953 195.406C313.047 197.029 311.111 196.404 309.713 195.932C307.88 195.306 306.615 196.821 304.801 196.966C303.281 197.084 301.59 196.639 300.532 195.542C299.191 194.145 299.503 191.932 300.145 190.299C300.787 188.684 301.562 187.242 302.062 185.555C302.469 184.203 303.092 182.915 303.404 181.536C303.8 179.758 304.641 178.089 304.981 176.293C305.255 174.833 304.424 173.799 303.271 172.937C302.251 172.184 301.345 171.45 300.079 171.078C299.116 170.796 298.086 170.669 297.094 170.905C296.358 171.078 295.819 171.64 295.092 171.794C296.584 171.513 298.011 171.495 299.474 171.84C300.117 171.994 300.976 172.23 301.628 172.375C302.053 172.475 303.196 172.874 303.649 172.81C303.687 171.849 302.903 171.105 302.119 170.461" fill="none" opacity="1" stroke="#231f20" stroke-linecap="round" stroke-linejoin="round" stroke-width="5" vectornator:layerName="path"/>
<path d="M319.243 173.264C318.818 173.899 319.195 175.114 319.507 175.704C319.753 176.148 320.376 176.529 320.886 176.702C322.152 177.137 323.691 176.711 324.475 175.704C324.938 175.105 325.495 173.291 324.475 172.883C323.531 172.502 322.237 172.765 321.264 172.792C320.622 172.81 319.696 172.674 319.28 173.209C319.262 173.227 319.252 173.246 319.243 173.264Z" fill="none" opacity="1" stroke="#231f20" stroke-linecap="round" stroke-linejoin="round" stroke-width="5" vectornator:layerName="path"/>
<path d="M297.094 172.184C296.462 172.393 296.613 174.089 296.943 174.579C297.444 175.323 298.483 175.287 299.333 175.287C300.617 175.287 301.042 174.906 301.212 173.69C301.373 172.547 300.976 172.302 299.833 172.121C299.304 172.039 297.028 171.504 297.094 172.184Z" fill="none" opacity="1" stroke="#231f20" stroke-linecap="round" stroke-linejoin="round" stroke-width="5" vectornator:layerName="path"/>
<path d="M323.446 169.173C322.218 169.427 321.018 169.762 319.781 169.944C318.94 170.062 318.053 170.443 317.193 170.298C316.249 170.134 315.88 168.746 315.824 167.939C315.739 166.678 320.886 166.533 321.868 166.406C323.436 166.207 325.004 166.025 326.581 165.907C327.885 165.817 329.273 165.717 330.359 166.406C331.115 166.887 331.71 167.685 332.21 168.429C332.503 168.864 333.249 170.152 332.229 169.998C331.568 169.898 331.068 169.39 330.491 169.109C328.621 168.211 325.958 168.71 323.984 169.064C323.795 169.1 323.625 169.137 323.446 169.173Z" fill="none" opacity="1" stroke="#231f20" stroke-linecap="round" stroke-linejoin="round" stroke-width="5" vectornator:layerName="path"/>
<path d="M302.469 167.858C302.771 166.706 301.269 166.515 300.438 166.279C299.833 166.107 299.144 166.016 298.53 165.916C297.784 165.789 296.669 165.708 295.961 165.971C295.007 166.325 293.401 167.495 293.477 168.619C293.968 168.728 294.11 168.148 294.469 167.948C294.941 167.685 295.621 167.776 296.131 167.867C297.274 168.057 298.341 168.538 299.484 168.737C300.296 168.883 301.496 169.49 302.081 168.629C302.289 168.338 302.412 168.084 302.469 167.858Z" fill="none" opacity="1" stroke="#231f20" stroke-linecap="round" stroke-linejoin="round" stroke-width="5" vectornator:layerName="path"/>
<path d="M358.061 176.058C359.506 178.171 361.017 180.566 360.545 183.06C360.318 184.276 359.638 185.355 358.968 186.416C358.401 187.305 357.995 188.385 357.164 189.092C356.248 189.872 354.859 189.999 353.698 189.818C353.48 189.782 353.244 189.727 353.131 189.555C352.933 189.247 353.235 188.875 353.509 188.63C353.934 188.24 354.349 187.832 354.623 187.342C354.897 186.843 355.02 186.244 354.831 185.718C354.642 185.192 354.085 184.766 353.509 184.811C353.216 184.838 352.933 184.965 352.649 184.947C351.412 184.847 353.622 179.686 354 178.978C354.67 177.727 355.095 175.949 356.758 175.595C357.759 175.359 358.061 176.058 358.061 176.058Z" fill="none" opacity="1" stroke="#231f20" stroke-linecap="round" stroke-linejoin="round" stroke-width="5" vectornator:layerName="path"/>
<path d="M315.427 191.433C317.514 193.782 323.899 199.832 324.286 201.139C324.466 201.746 322.775 207.633 322.775 207.633" fill="none" opacity="1" stroke="#231f20" stroke-linecap="round" stroke-linejoin="round" stroke-width="5" vectornator:layerName="path"/>
<path d="M298.322 192.748C297.293 194.372 296.65 194.998 296.159 195.823C295.545 196.866 295.017 197.9 294.61 199.025" fill="none" opacity="1" stroke="#231f20" stroke-linecap="round" stroke-linejoin="round" stroke-width="5" vectornator:layerName="path"/>
<path d="M308.39 223.879C309.259 223.861 310.138 223.825 311.007 223.788C312.848 223.707 314.69 223.589 316.532 223.426C320.206 223.108 323.871 222.636 327.507 222.011C326.808 222.128 325.986 222.691 325.335 222.963C324.56 223.29 323.776 223.607 322.992 223.906C321.424 224.514 319.828 225.076 318.223 225.584C315.049 226.591 311.819 227.244 308.513 227.734C308.343 227.761 308.154 227.78 307.994 227.707C307.814 227.616 307.72 227.417 307.654 227.235C307.248 226.228 306.832 225.231 306.426 224.224C306.209 223.698 307.928 223.888 308.249 223.879C308.287 223.888 308.343 223.888 308.39 223.879Z" fill="none" opacity="1" stroke="#231f20" stroke-linecap="round" stroke-linejoin="round" stroke-width="5" vectornator:layerName="path"/>
</g>
<path d="M297.765 236.914C297.68 236.85 297.586 236.787 297.501 236.714C297.501 236.669 297.51 236.633 297.501 236.587L297.765 236.914Z" fill="none" opacity="1" stroke="#231f20" stroke-linecap="round" stroke-linejoin="round" stroke-width="5" vectornator:layerName="path"/>
<g opacity="1" vectornator:layerName="shirt">
<path d="M303.762 225.311C303.778 225.509 304.876 231.617 301.696 235.203C299.564 237.608 293.449 237.791 289.861 239.398C281.434 243.172 270.367 245.411 266.779 248.469C264.358 250.534 259.889 258.129 259.577 259.269C258.576 262.925 254.776 267.093 255.712 270.948C256.146 272.744 256.436 274.586 256.597 276.419C257.182 282.959 256.548 289.542 256.567 296.091C256.586 303.339 256.705 310.586 256.715 317.833C256.743 332.283 256.251 346.783 253.616 361.033C252.454 367.238 249.583 372.989 247.241 379.175C244.076 387.565 237.134 396.659 241.574 405.367C246.454 414.922 253.561 415.551 262.196 414.249C262.475 413.495 263.567 411.428 264.375 410.58C265.06 409.861 265.88 409.212 266.958 408.339C268.763 406.876 271.454 406.016 272.367 405.545C274.259 404.569 281.718 403.131 283.01 403.115C283.978 403.102 291.05 404.067 292.024 404.462C293.327 404.989 294.462 405.488 296.415 406.541C296.503 406.588 301.125 409.268 301.541 409.554C301.834 409.756 302.902 410.428 302.931 410.47C308.059 409.464 307.25 405.858 308.632 397.289C311.292 380.761 309.616 364.853 311.348 348.193C310.352 348.436 307.102 345.462 306.654 344.451C305.866 342.667 305.31 339.453 305.415 337.988C305.735 333.516 307.763 328.299 307.777 328.265C307.811 328.17 315.453 312.533 315.42 312.419C315.089 312.864 314.724 313.4 314.27 313.921C314.041 314.183 313.491 315.313 313.443 315.367C312.92 315.958 312.831 316.317 312.499 316.785C312.651 317.044 307.717 326.847 307.717 326.847C307.717 326.847 295.436 305.999 295.055 305.673C294.602 305.284 292.678 302.232 291.425 300.939C290.131 299.604 288.68 299.178 288.326 299.067C287.949 298.95 282.346 298.567 281.655 298.444C281.244 298.371 279.681 297.992 278.291 297.367C276.833 296.713 272.81 293.249 272.092 292.435C270.442 290.563 269.179 285.865 269.14 285.575C268.201 285.36 267.797 284.531 267.075 283.704C265.899 282.357 265.51 280.695 266.071 279.112C266.185 278.789 266.473 278.587 266.632 278.318C266.317 277.783 265.982 277.29 265.776 276.617C265.421 275.461 264.476 273.987 264.359 272.394C264.256 270.983 266.071 268.539 266.071 268.539C266.071 268.539 264.12 264.595 264.359 263.464C264.731 261.703 266.118 260.068 267.754 259.638C269.696 259.127 278.197 259.226 278.674 259.213C279.736 259.182 286.152 259.219 286.584 259.099C288.761 258.494 295.051 257.147 296.354 257.427C300.849 258.392 303 262.82 304.736 270.523C305.274 272.909 306.407 279.513 306.536 280.048C306.585 280.245 311.518 290.765 311.82 291.84C312.182 291.835 312.542 291.852 312.882 291.953C313.004 285.57 313.664 279.179 313.856 272.025C314.092 263.245 312 255.381 309.252 247.109C308.666 245.331 308.214 243.529 307.628 241.751C307.118 240.191 306.395 238.809 306.3 237.131C306.215 235.698 307.018 235.143 307.481 233.928C308.104 232.268 306.396 231.925 305.857 230.583C305.149 228.796 306.49 226.86 304.441 225.707C304.027 225.476 304.217 225.445 303.762 225.311Z" fill="none" opacity="1" stroke="#231f20" stroke-linecap="round" stroke-linejoin="round" stroke-width="5" vectornator:layerName="Curve 3"/>
<g opacity="1" vectornator:layerName="g">
<g opacity="1" vectornator:layerName="g">
<path d="M346.176 218.507L346.53 221.257C346.615 222.001 347.467 223.183 346.352 224.035C343.028 226.584 338.393 227.415 334.37 228.485C330.544 229.501 326.683 230.483 322.858 231.49C320.554 232.097 316.637 231.96 315.362 234.41C314.71 235.67 315.399 238.115 315.332 239.512C315.257 241.317 314.254 243.087 312.941 244.302C311.609 245.536 309.859 246.851 309.311 248.611C308.773 250.362 307.815 263.94 307.57 265.591C307.003 269.364 306.588 274.738 306.153 279.792C306.574 279.968 306.535 281.751 307.041 283.033C307.346 283.806 310.994 290.32 314.873 295.192C317.338 298.286 320.377 300.805 320.649 301.358C320.939 301.948 321.823 303.229 321.764 303.46C321.696 303.731 315.556 312.198 315.479 312.332C315.247 312.732 314.124 314.345 313.727 314.913C313.566 315.145 310.373 320.874 310.387 321.085C310.432 321.756 307.774 326.901 307.774 326.901C307.774 326.901 304.069 320.783 303.85 320.356C303.66 321.395 303.546 322.449 303.26 323.474C299.756 336.101 293.63 346.652 293.668 360.041C293.696 370.917 294.92 382.168 291.454 392.554C289.184 399.34 289.695 401.161 294.608 405.239C296.361 406.693 301.992 409.289 303.759 410.883C307.011 413.814 309.803 415.077 311.966 419.529C314.887 425.539 325.835 421.137 334.222 423.934C347.36 428.315 364.07 432.557 378.199 431.106C394.407 429.437 392.53 403.996 393.135 393.093C394.202 373.8 398.264 356.803 397.65 337.392C397.557 334.424 400.227 328.502 400.72 325.402C401.821 318.467 399.872 312.266 400.838 305.616C401.688 299.729 402.126 295.229 403.052 289.487C404.081 283.119 401.562 276.415 402.195 269.956C403.725 254.355 383.381 245.794 371.735 238.746C368.6 236.85 365.528 234.894 362.468 232.907C359.361 230.885 355.979 228.609 353.466 225.906C352.257 224.599 352.576 222.975 352.255 221.342C352.01 220.072 351.097 219.317 349.983 219.017C349.284 218.836 347.082 218.516 346.176 218.507Z" fill="none" opacity="1" stroke="#231f20" stroke-linecap="round" stroke-linejoin="round" stroke-width="5" vectornator:layerName="Curve 2"/>
<g opacity="0.2" vectornator:layerName="path">
<path d="M346.176 218.507L346.53 221.257C346.615 222.001 347.467 223.183 346.352 224.035C343.028 226.584 338.393 227.415 334.37 228.485C330.544 229.501 326.683 230.483 322.858 231.49C320.554 232.097 316.637 231.96 315.362 234.41C314.71 235.67 315.399 238.115 315.332 239.512C315.257 241.317 314.254 243.087 312.941 244.302C311.609 245.536 309.859 246.851 309.311 248.611C308.773 250.362 307.815 263.94 307.57 265.591C306.858 270.326 306.331 275.066 305.857 279.821C306.792 280.572 307.332 281.739 307.068 282.967C306.42 285.984 309.622 290 315.863 295.184C315.985 295.286 317.243 296.261 317.694 296.63C318.436 297.24 319.038 297.804 319.552 298.387C320.325 299.263 320.869 300.151 321.087 301.194C321.491 303.12 320.48 305.218 317.723 309.953C316.295 312.405 314.445 315.36 313.413 316.898C312.62 318.082 308.546 325.378 307.658 326.507C307.343 326.908 303.749 321.456 303.85 320.809C303.895 320.527 303.626 322.158 303.26 323.474C299.756 336.101 293.63 346.652 293.668 360.041C293.696 370.917 294.92 382.168 291.454 392.554C290.228 396.221 288.694 399.964 288.001 403.439C288.886 403.879 296.682 406.327 296.704 406.335C302.782 408.721 309.848 417.713 310.108 418.094C310.123 418.112 310.751 419.265 310.816 419.54C318.708 420.677 326.676 421.417 334.222 423.934C347.36 428.315 364.07 432.557 378.199 431.106C394.407 429.437 392.53 403.996 393.135 393.093C394.202 373.8 396.582 354.876 395.968 335.464C395.666 325.858 393.241 315.524 394.639 305.9C395.489 300.013 399.735 295.37 400.66 289.628C401.69 283.261 401.562 276.415 402.195 269.956C403.725 254.355 383.381 245.794 371.735 238.746C368.6 236.85 365.528 234.894 362.468 232.907C359.361 230.885 355.979 228.609 353.466 225.906C352.257 224.599 352.576 222.975 352.255 221.342C352.01 220.072 351.097 219.317 349.983 219.017C349.284 218.836 347.082 218.516 346.176 218.507Z" fill="none" opacity="1" stroke="#231f20" stroke-linecap="round" stroke-linejoin="round" stroke-width="5" vectornator:layerName="path"/>
<g opacity="1" vectornator:layerName="path">
<clipPath clip-rule="nonzero" id="ClipPath_9">
<path d="M346.176 218.507L346.53 221.257C346.615 222.001 347.467 223.183 346.352 224.035C343.028 226.584 338.393 227.415 334.37 228.485C330.544 229.501 326.683 230.483 322.858 231.49C320.554 232.097 316.637 231.96 315.362 234.41C314.71 235.67 315.399 238.115 315.332 239.512C315.257 241.317 314.254 243.087 312.941 244.302C311.609 245.536 309.859 246.851 309.311 248.611C308.773 250.362 307.815 263.94 307.57 265.591C306.858 270.326 306.331 275.066 305.857 279.821C306.792 280.572 307.332 281.739 307.068 282.967C306.42 285.984 309.622 290 315.863 295.184C315.985 295.286 317.243 296.261 317.694 296.63C318.436 297.24 319.038 297.804 319.552 298.387C320.325 299.263 320.869 300.151 321.087 301.194C321.491 303.12 320.48 305.218 317.723 309.953C316.295 312.405 314.445 315.36 313.413 316.898C312.62 318.082 308.546 325.378 307.658 326.507C307.343 326.908 303.749 321.456 303.85 320.809C303.895 320.527 303.626 322.158 303.26 323.474C299.756 336.101 293.63 346.652 293.668 360.041C293.696 370.917 294.92 382.168 291.454 392.554C290.228 396.221 288.694 399.964 288.001 403.439C288.886 403.879 296.682 406.327 296.704 406.335C302.782 408.721 309.848 417.713 310.108 418.094C310.123 418.112 310.751 419.265 310.816 419.54C318.708 420.677 326.676 421.417 334.222 423.934C347.36 428.315 364.07 432.557 378.199 431.106C394.407 429.437 392.53 403.996 393.135 393.093C394.202 373.8 396.582 354.876 395.968 335.464C395.666 325.858 393.241 315.524 394.639 305.9C395.489 300.013 399.735 295.37 400.66 289.628C401.69 283.261 401.562 276.415 402.195 269.956C403.725 254.355 383.381 245.794 371.735 238.746C368.6 236.85 365.528 234.894 362.468 232.907C359.361 230.885 355.979 228.609 353.466 225.906C352.257 224.599 352.576 222.975 352.255 221.342C352.01 220.072 351.097 219.317 349.983 219.017C349.284 218.836 347.082 218.516 346.176 218.507Z"/>
</clipPath>
<g clip-path="url(#ClipPath_9)">
<path d="M386.396 394.257C385.593 394.801 384.752 395.309 383.883 395.772C377.518 399.137 369.962 399.808 362.708 399.31C356.021 398.856 349.268 397.414 343.601 393.976C335.167 388.86 330.331 380.188 325.325 372.224C322.766 368.142 320.14 364.087 316.881 360.477C314.19 357.493 310.213 352.622 310.138 348.486C310.1 346.644 311.139 344.93 312.15 343.306C314.889 338.916 317.665 334.471 321.5 330.752C325.335 327.033 330.416 324.021 336.14 323.314C348.701 321.763 360.092 331.314 372.776 330.834C378.547 330.616 384.28 328.312 389.909 329.41C397.739 330.952 402.339 338.245 401.441 345.42C400.299 354.599 402.055 363.779 399.921 372.995C398.013 381.295 393.536 389.395 386.396 394.257Z" fill="none" opacity="1" stroke="#231f20" stroke-linecap="round" stroke-linejoin="round" stroke-width="5" vectornator:layerName="path"/>
</g>
</g>
</g>
<path d="M346.176 218.507L346.53 221.257C346.615 222.001 347.467 223.183 346.352 224.035C343.028 226.584 338.393 227.415 334.37 228.485C330.544 229.501 326.683 230.483 322.858 231.49C320.554 232.097 316.637 231.96 315.362 234.41C314.71 235.67 315.399 238.115 315.332 239.512C315.257 241.317 314.254 243.087 312.941 244.302C311.609 245.536 309.859 246.851 309.311 248.611C308.773 250.362 307.815 263.94 307.57 265.591C306.787 270.806 306.17 276.026 305.681 281.266C306.061 281.845 306.314 282.481 306.3 283.137C306.298 283.247 306.253 283.318 306.242 283.42L306.3 283.506C306.502 283.856 306.488 283.857 306.566 284.044C306.647 284.302 306.628 284.239 306.654 284.327C307.091 284.774 307.493 285.058 307.982 285.66C308.348 286.108 308.714 286.6 309.104 287.134C309.829 288.125 311.423 290.474 311.406 290.45C312.988 292.608 314.6 294.395 317.752 297.651C317.877 297.779 321.766 302.669 321.766 302.923C321.766 303.663 315.745 312.305 315.745 312.305C315.745 312.305 313.73 314.99 311.967 318.202C309.55 322.607 307.22 327.799 307.688 326.62C306.826 325.716 304.732 321.49 303.85 320.469C303.663 321.473 303.536 322.484 303.26 323.474C299.756 336.101 293.63 346.652 293.668 360.041C293.696 370.917 294.92 382.168 291.454 392.554C290.218 396.251 288.685 400.026 288.001 403.525C291.059 403.995 294.123 405.308 296.41 406.465C297.501 407.016 300.833 409.059 301.123 409.199C301.145 409.209 307.285 413.547 307.702 413.91C309.199 415.213 311.96 419.001 311.966 419.725C312.734 419.834 314.251 420.04 314.251 420.04C314.251 420.04 327.55 421.708 334.222 423.934C347.36 428.315 364.07 432.557 378.199 431.106C394.407 429.437 392.53 403.996 393.135 393.093C393.686 383.118 396.352 363.216 396.352 363.216L397.65 348.135C397.65 348.135 397.7 344.698 397.561 341.559C397.476 339.63 396.911 337.991 397.414 336.797C401.054 328.147 401.134 318.316 400.896 308.337C400.756 302.396 402.126 296.901 403.052 291.16C404.081 284.792 402.419 276.896 403.052 270.438C404.582 254.836 383.381 245.794 371.735 238.746C368.6 236.85 365.528 234.894 362.468 232.907C359.361 230.885 355.979 228.609 353.466 225.906C352.257 224.599 352.576 222.975 352.255 221.342C352.01 220.072 351.097 219.317 349.983 219.017C349.284 218.836 347.082 218.516 346.176 218.507Z" fill="none" opacity="1" stroke="#231f20" stroke-linecap="round" stroke-linejoin="round" stroke-width="5" vectornator:layerName="Curve 3"/>
</g>
<path d="M325.165 238.329C327.394 238.266 335.715 236.225 338.737 235.091C342.213 233.785 347.662 231.254 350.807 229.421" fill="none" opacity="1" stroke="#231f20" stroke-linecap="round" stroke-linejoin="round" stroke-width="5" vectornator:layerName="path"/>
<path d="M354.727 304.32C354.396 298.505 356.984 292.083 358.684 286.758C360.583 280.781 362.349 273.76 366.76 268.943" fill="none" opacity="1" stroke="#231f20" stroke-linecap="round" stroke-linejoin="round" stroke-width="5" vectornator:layerName="path"/>
<path d="M352.224 299.748C352.243 288.699 352.092 276.191 357.239 266.05" fill="none" opacity="1" stroke="#231f20" stroke-linecap="round" stroke-linejoin="round" stroke-width="5" vectornator:layerName="path"/>
</g>
<path d="M318.581 286.06C323.502 287.584 338.52 295.693 352.98 297.843C354.415 298.061 353.745 302.632 352.101 302.923C347.87 303.675 322.35 293.162 319.139 291.938C317.213 291.209 316.972 294.487 317.075 297.748" fill="none" opacity="1" stroke="#231f20" stroke-linecap="round" stroke-linejoin="round" stroke-width="5" vectornator:layerName="Curve 2"/>
<path d="M262.46 413.669C262.488 413.596 262.507 413.524 262.536 413.451C263.452 411.056 265.473 409.17 267.749 407.872C275.078 403.673 283.55 401.695 291.767 404.507C297.085 406.321 309.958 413.959 312.017 419.193C316.211 429.815 298.728 430.042 292.91 432.545C287.914 434.695 288.254 437.697 281.189 437.162C277.317 436.863 272.963 435.883 269.723 433.733C266.833 431.81 265.341 426.867 263.886 423.873C262.356 420.68 261.298 416.989 262.46 413.669Z" fill="none" opacity="1" stroke="#231f20" stroke-linecap="round" stroke-linejoin="round" stroke-width="5" vectornator:layerName="path"/>
</g>
<g opacity="1" vectornator:layerName="speaker">
<path d="M286.909 241.411C286.672 241.429 286.445 241.498 286.201 241.468C285.425 241.37 270.635 247.187 269.495 247.061C269.707 248.045 269.77 248.302 269.879 249.064C270.153 250.978 270.666 252.838 270.911 254.734C271.055 255.868 270.899 257.84 270.941 258.986C271.53 258.702 272.392 259.011 273.096 259.099C277.39 259.642 281.988 259.107 288.709 258.958C291.429 258.897 293.319 257.59 295.822 257.2C295.893 257.189 295.84 256.923 295.911 256.917C292.448 254.836 289.118 253.056 288.591 250.624C287.919 247.552 287.42 244.493 286.909 241.411Z" fill="none" opacity="1" stroke="#231f20" stroke-linecap="round" stroke-linejoin="round" stroke-width="5" vectornator:layerName="Curve 1"/>
<g opacity="1" vectornator:layerName="g">
<path d="M290.037 198.892C276.635 199.998 263.411 202.38 250.339 205.383C244.701 206.68 238.744 209.026 232.926 209.153C228.043 209.261 223.914 206.848 219.201 206.176C213.467 205.36 207.576 203.927 201.758 204.816C196.79 205.578 194.076 208.254 192.489 211.846C191.318 214.504 190.653 217.501 190.512 220.35C190.342 223.815 189.819 227.26 190.188 230.725C190.36 232.364 190.474 233.531 190.796 235.164C191.07 235.122 205.956 229.375 206.731 229.524C207.507 229.672 208.261 230.396 208.933 231.171C209.612 231.955 211.668 235.244 212.536 238.656C213.39 242.011 214.415 250.16 213.57 250.818C212.359 251.762 197.365 253.995 196.116 253.883C197.006 255.942 205.304 269.95 207.07 272.082C207.779 272.943 208.541 274.039 209.372 274.747C213.915 278.638 219.267 277.978 224.395 275.71C229.382 273.506 233.683 270.321 237.943 267.065C243.204 263.046 245.991 257.454 251.667 253.798L300.427 236.734C303.014 235.646 303.174 232.086 303.467 229.392C304.289 221.682 303.39 215.511 300.604 208.699C298.828 204.354 294.401 198.529 290.037 198.892Z" fill="none" opacity="1" stroke="#231f20" stroke-linecap="round" stroke-linejoin="round" stroke-width="5" vectornator:layerName="Curve 3"/>
<path d="M197.98 207.141C192.365 208.574 190.142 219.038 191.841 232.482C192.159 232.468 192.561 232.447 193.109 232.426C191.831 228.267 191.971 223.655 193.021 216.495C193.158 215.558 193.323 214.692 193.552 213.801C194.131 211.542 194.679 210.347 196.474 209.578C197.189 209.271 198.048 209.201 198.954 209.295C201.67 209.575 204.875 211.35 206.48 212.923C209.169 215.558 211.039 218.875 213.328 224.233C213.651 224.99 214.728 227.55 214.921 228.004C215.571 229.536 216.077 230.658 216.574 231.632C216.916 232.301 217.42 233.15 218.197 234.41C218.28 234.543 222.573 247.57 223.092 248.421C223.199 248.596 220.634 238.378 220.735 238.549C220.71 238.452 220.703 238.361 220.677 238.265C215.406 219.229 205.249 205.284 197.98 207.141ZM223.599 262.897C223.447 263.521 223.349 263.911 223.156 264.712C223.118 265.261 223.117 265.856 223.038 266.299C222.941 266.843 222.807 267.317 222.595 267.773C222.309 268.393 221.909 268.932 221.356 269.332C221.129 271.127 220.509 272.68 219.171 273.84C217.504 275.284 215.419 275.334 213.357 274.576C212.113 274.12 210.841 273.366 209.49 272.337C207.631 270.921 205.642 268.959 204.443 267.546C208.707 273.657 213.282 277.048 217.075 276.079C220.827 275.12 223.028 270.105 223.599 262.897Z" fill="none" opacity="1" stroke="#231f20" stroke-linecap="round" stroke-linejoin="round" stroke-width="5" vectornator:layerName="Curve 1"/>
<path d="M287.923 218.246L262.706 224.686C261.856 224.904 260.987 224.414 260.76 223.607L260.647 223.208C260.42 222.392 260.93 221.557 261.771 221.339L286.988 214.899C287.838 214.681 288.707 215.171 288.934 215.978L289.047 216.378C289.283 217.194 288.773 218.028 287.923 218.246Z" fill="none" opacity="1" stroke="#231f20" stroke-linecap="round" stroke-linejoin="round" stroke-width="5" vectornator:layerName="path"/>
<path d="M290.899 224.006L265.832 230.982C264.991 231.217 264.103 230.746 263.858 229.938L263.735 229.539C263.489 228.732 263.981 227.879 264.821 227.644L289.888 220.668C290.729 220.432 291.616 220.904 291.862 221.711L291.985 222.11C292.221 222.927 291.739 223.77 290.899 224.006Z" fill="none" opacity="1" stroke="#231f20" stroke-linecap="round" stroke-linejoin="round" stroke-width="5" vectornator:layerName="path"/>
<path d="M291.55 231.036L266.72 238.746C265.888 239.009 264.991 238.565 264.717 237.767L264.585 237.368C264.311 236.569 264.774 235.708 265.605 235.444L290.436 227.734C291.267 227.471 292.164 227.916 292.438 228.714L292.57 229.113C292.844 229.92 292.381 230.782 291.55 231.036Z" fill="none" opacity="1" stroke="#231f20" stroke-linecap="round" stroke-linejoin="round" stroke-width="5" vectornator:layerName="path"/>
<path d="M237.252 214.709C244.817 222.736 248.33 236.07 248.321 248.924" fill="none" opacity="1" stroke="#231f20" stroke-linecap="round" stroke-linejoin="round" stroke-width="5" vectornator:layerName="path"/>
<path d="M240.501 214.255C242.531 215.888 244.694 219.335 245.695 221.738" fill="none" opacity="1" stroke="#231f20" stroke-linecap="round" stroke-linejoin="round" stroke-width="5" vectornator:layerName="path"/>
<path d="M201.404 203.399C199.914 203.213 198.439 203.288 197.005 203.654C191.272 205.114 187.345 210.756 185.938 219.528C185.088 224.811 185.479 230.475 186.48 236.914C186.698 236.55 194.209 233.79 194.3 233.848C193.883 229.529 192.804 224.202 193.375 220.634C194.273 215.037 196.366 211.289 198.954 210.627C199.246 210.545 199.538 210.513 199.869 210.513C202.381 210.513 205.68 212.737 208.929 216.665C213.387 222.035 217.167 229.813 219.585 238.549C224.902 257.742 221.145 271.332 216.102 272.62C211.981 273.68 204.289 266.392 198.733 253.511C198.441 253.565 192.844 254.375 192.705 254.479C198.634 266.382 207.541 279.934 215.186 279.934C216.14 279.934 217.085 279.83 218.02 279.594C229.052 276.773 232.863 258.32 226.875 236.677C224.192 226.999 219.923 218.29 214.832 212.158C210.511 206.947 205.869 203.955 201.404 203.399Z" fill="none" opacity="1" stroke="#231f20" stroke-linecap="round" stroke-linejoin="round" stroke-width="5" vectornator:layerName="Curve 2"/>
<path d="M206.509 229.449L206.303 229.534L188.623 236.082C188.928 236.236 206.73 229.562 207.002 229.582C207.26 229.601 209.405 231.731 209.964 232.502C210.88 233.767 212.204 236.788 212.96 239.903C213.876 243.67 214.481 248.489 213.852 250.843C212.929 252.041 210.263 251.381 205.438 252.384C199.295 253.661 192.526 254.201 192.129 254.24L191.516 254.451L212.353 251.531C212.429 251.531 212.534 251.521 212.619 251.503C214.414 251.04 214.506 245.712 212.825 239.625C211.144 233.539 208.304 228.986 206.509 229.449Z" fill="none" opacity="1" stroke="#231f20" stroke-linecap="round" stroke-linejoin="round" stroke-width="5" vectornator:layerName="Curve 4"/>
<path d="M185.814 246.448C184.465 241.578 184.831 237.257 186.63 236.797C188.43 236.338 190.982 239.914 192.331 244.784C193.68 249.654 193.314 253.975 191.514 254.434C189.715 254.894 187.163 251.318 185.814 246.448Z" fill="none" opacity="1" stroke="#231f20" stroke-linecap="round" stroke-linejoin="round" stroke-width="5" vectornator:layerName="ellipse"/>
</g>
</g>
<g opacity="1" vectornator:layerName="left_arm_00000111900592383266308550000013874642109458006449_">
<g opacity="1" vectornator:layerName="g">
<path d="M297.328 257.001C295.798 256.684 294.379 257.375 293.019 257.937C291.574 258.536 290.229 258.815 288.68 259.014C284.704 259.522 280.682 258.905 276.696 259.241C273.523 259.504 269.636 258.545 266.661 259.978C264.536 261.003 264.375 263.703 264.772 265.789C264.942 266.651 265.88 267.331 266.012 268.057C266.22 269.272 265.719 268.706 265.068 269.531C264.104 270.756 264.341 272.376 264.625 273.754C264.946 275.315 266.033 276.128 266.543 277.553C266.949 278.678 265.992 279.017 265.983 280.388C265.964 283.182 268.306 284.25 269.289 286.482C270.271 288.731 270.726 290.806 272.417 292.747C274.466 295.114 277.815 297.639 281.035 298.274C282.414 298.546 283.888 298.599 285.285 298.699C286.929 298.826 288.618 298.9 289.949 299.861C293.227 302.238 295.542 306.705 297.771 309.953C300.604 314.098 302.787 318.608 305.356 322.908C306.212 324.336 306.542 325.716 307.774 327.867C307.881 327.648 309.343 322.375 311.966 317.801C313.946 314.351 316.666 310.372 317.816 308.934C317.797 308.958 321.712 303.604 322.416 303.363C313.924 295.575 307.241 288.136 305.149 275.937C304.601 272.717 305.179 269.165 303.999 266.072C302.809 262.943 302.206 259.781 299.099 257.767C298.56 257.422 297.96 257.137 297.328 257.001Z" fill="none" opacity="1" stroke="#231f20" stroke-linecap="round" stroke-linejoin="round" stroke-width="5" vectornator:layerName="Curve 1"/>
<path d="M266.049 268.589C267.22 268.589 270.8 268.589 271.971 268.589" fill="none" opacity="1" stroke="#231f20" stroke-linecap="round" stroke-linejoin="round" stroke-width="5" vectornator:layerName="path"/>
<path d="M266.54 277.57C268.202 277.624 270.498 278.114 272.963 278.114" fill="none" opacity="1" stroke="#231f20" stroke-linecap="round" stroke-linejoin="round" stroke-width="5" vectornator:layerName="path"/>
<path d="M268.599 285.316C269.884 285.389 272.83 286.305 274.087 286.06" fill="none" opacity="1" stroke="#231f20" stroke-linecap="round" stroke-linejoin="round" stroke-width="5" vectornator:layerName="path"/>
</g>
<g opacity="1" vectornator:layerName="g">
<path d="M364.871 282.159C367.638 280.862 370.547 279.747 373.145 278.35C377.026 276.254 380.625 273.769 384.356 271.483C386.207 270.349 387.652 268.934 389.616 268C390.92 267.383 392.1 266.367 393.309 265.587C396.275 263.655 399.836 259.664 402.14 264.435C403.595 267.446 402.858 271.311 402.858 274.513C402.858 281.543 403.028 288.536 402.188 295.494C401.498 301.208 401.016 306.896 401.016 312.647C401.016 317.354 401.885 322.38 401.13 327.042C400.27 332.348 397.522 336.848 396.256 341.927C394.717 348.114 392.705 354.2 390.051 360.024C387.047 366.591 383.704 373.403 379.898 379.599C376.686 384.814 373.003 390.583 366.779 392.76C357.825 395.89 346.274 392.107 340.399 385.486C336.272 380.832 332.192 376.097 328.791 370.909C326.732 367.761 324.947 364.45 322.681 361.43C322.208 360.795 321.661 360.223 321.358 359.488C321.094 358.844 321.368 358.064 320.999 357.484C320.395 356.531 319.318 356.368 318.204 355.896C316.475 355.162 314.917 354.309 313.642 352.894C312.707 351.86 312.367 351.034 311.998 349.783C311.706 348.794 312.348 349.003 311.602 348.295C311.186 347.896 310.383 347.841 309.911 347.633C302.487 344.313 306.02 332.612 307.918 327.169C310.837 318.769 315.484 310.923 321.547 304.256C322.841 302.832 324.588 301.344 326.496 301.762C327.79 302.052 328.688 303.14 329.67 303.993C332.069 306.07 335.346 306.923 338.104 308.528C339.965 309.617 341.797 311.386 342.316 313.481C342.94 316.03 340.966 317.454 340.73 319.831C340.645 320.656 341.079 320.584 341.457 320.039C341.75 319.631 341.967 319.169 342.165 318.715C342.959 316.955 344.168 312.456 346.368 316.057C346.708 316.62 346.916 319.849 347.861 318.524C348.323 317.871 347.615 315.214 347.691 314.397C348.059 310.179 350.524 306.106 351.761 302.088C353.055 297.915 354.16 293.652 356.153 289.715C357.079 287.883 358.004 286.35 359.705 285.117C361.272 283.937 363.039 283.012 364.871 282.159Z" fill="none" opacity="1" stroke="#231f20" stroke-linecap="round" stroke-linejoin="round" stroke-width="5" vectornator:layerName="path"/>
<path d="M324.995 350.064C326.44 341.492 331.53 332.947 337.367 325.808" fill="none" opacity="1" stroke="#231f20" stroke-linecap="round" stroke-linejoin="round" stroke-width="5" vectornator:layerName="path"/>
<path d="M319.705 326.797C320.905 322.225 323.021 317.862 325.92 313.98" fill="none" opacity="1" stroke="#231f20" stroke-linecap="round" stroke-linejoin="round" stroke-width="5" vectornator:layerName="path"/>
<path d="M349.211 322.198C350.212 325.11 352.394 328.475 353.83 331.278C355.804 335.151 358.713 339.043 361.395 342.508C361.811 343.043 363.889 345.991 363.794 345.465" fill="none" opacity="1" stroke="#231f20" stroke-linecap="round" stroke-linejoin="round" stroke-width="5" vectornator:layerName="path"/>
<path d="M351.903 321.554C353.688 324.738 358.278 327.033 361.32 328.874" fill="none" opacity="1" stroke="#231f20" stroke-linecap="round" stroke-linejoin="round" stroke-width="5" vectornator:layerName="path"/>
</g>
</g>
</g>
<path d="M0 688C0 688 150 708 300 708C450 708 600 688 600 688L600 848C600 848 450 868 300 868C150 868 0 848 0 848L0 688Z" fill="#e7f5e1" fill-rule="nonzero" opacity="1" stroke="#000000" stroke-linecap="butt" stroke-linejoin="round" stroke-width="0.5" vectornator:layerName="Rectangle 2"/>
<g fill="#000000" opacity="1" stroke="none" vectornator:layerName="Text 1">
<path d="M94.3897 785.748L86.2681 785.748L86.2681 799.5L78.328 799.5L78.328 761.253L94.9865 761.253C98.8268 761.253 101.889 762.239 104.172 764.211C106.455 766.183 107.597 769.236 107.597 773.371C107.597 777.885 106.455 781.077 104.172 782.945C101.889 784.814 98.6279 785.748 94.3897 785.748ZM98.1262 777.782C99.1641 776.865 99.6831 775.412 99.6831 773.422C99.6831 771.433 99.1598 770.015 98.1132 769.167C97.0667 768.319 95.6006 767.896 93.7151 767.896L86.2681 767.896L86.2681 779.157L93.7151 779.157C95.6006 779.157 97.071 778.699 98.1262 777.782Z"/>
<path d="M127.214 778.041C124.238 778.041 122.24 779.01 121.22 780.947C120.649 782.037 120.363 783.715 120.363 785.981L120.363 799.5L112.916 799.5L112.916 771.217L119.974 771.217L119.974 776.147C121.116 774.261 122.111 772.973 122.958 772.281C124.342 771.122 126.141 770.542 128.355 770.542C128.494 770.542 128.611 770.547 128.706 770.555C128.801 770.564 129.013 770.577 129.341 770.594L129.341 778.171C128.874 778.119 128.459 778.084 128.096 778.067C127.733 778.05 127.439 778.041 127.214 778.041Z"/>
<path d="M157.261 774.798C159.648 777.79 160.842 781.328 160.842 785.41C160.842 789.562 159.648 793.113 157.261 796.062C154.874 799.011 151.25 800.486 146.389 800.486C141.528 800.486 137.904 799.011 135.517 796.062C133.13 793.113 131.936 789.562 131.936 785.41C131.936 781.328 133.13 777.79 135.517 774.798C137.904 771.805 141.528 770.309 146.389 770.309C151.25 770.309 154.874 771.805 157.261 774.798ZM146.363 776.562C144.201 776.562 142.536 777.328 141.368 778.859C140.201 780.389 139.617 782.573 139.617 785.41C139.617 788.247 140.201 790.436 141.368 791.975C142.536 793.515 144.201 794.284 146.363 794.284C148.525 794.284 150.186 793.515 151.345 791.975C152.504 790.436 153.084 788.247 153.084 785.41C153.084 782.573 152.504 780.389 151.345 778.859C150.186 777.328 148.525 776.562 146.363 776.562Z"/>
<path d="M182.015 779.001C181.393 777.635 180.173 776.951 178.357 776.951C176.246 776.951 174.828 777.635 174.101 779.001C173.703 779.78 173.505 780.939 173.505 782.478L173.505 799.5L166.006 799.5L166.006 771.269L173.193 771.269L173.193 775.395C174.11 773.924 174.975 772.878 175.788 772.255C177.224 771.148 179.083 770.594 181.367 770.594C183.529 770.594 185.276 771.07 186.608 772.021C187.681 772.904 188.494 774.037 189.047 775.42C190.016 773.76 191.218 772.54 192.654 771.762C194.176 770.983 195.872 770.594 197.74 770.594C198.985 770.594 200.213 770.836 201.424 771.321C202.635 771.805 203.734 772.653 204.72 773.864C205.515 774.85 206.052 776.06 206.328 777.496C206.501 778.448 206.588 779.84 206.588 781.674L206.536 799.5L198.959 799.5L198.959 781.492C198.959 780.42 198.786 779.538 198.44 778.846C197.783 777.531 196.572 776.874 194.808 776.874C192.766 776.874 191.357 777.721 190.578 779.416C190.18 780.316 189.981 781.397 189.981 782.66L189.981 799.5L182.534 799.5L182.534 782.66C182.534 780.982 182.361 779.762 182.015 779.001Z"/>
<path d="M220.989 771.217L220.989 799.5L213.49 799.5L213.49 771.217L220.989 771.217ZM220.989 761.019L220.989 767.844L213.49 767.844L213.49 761.019L220.989 761.019Z"/>
<path d="M241.462 776.692C238.954 776.692 237.232 777.756 236.298 779.883C235.814 781.008 235.572 782.444 235.572 784.191L235.572 799.5L228.202 799.5L228.202 771.269L235.338 771.269L235.338 775.395C236.29 773.941 237.189 772.895 238.037 772.255C239.559 771.113 241.488 770.542 243.823 770.542C246.746 770.542 249.138 771.308 250.998 772.839C252.857 774.37 253.787 776.908 253.787 780.454L253.787 799.5L246.21 799.5L246.21 782.297C246.21 780.809 246.011 779.667 245.613 778.872C244.887 777.418 243.503 776.692 241.462 776.692Z"/>
<path d="M284.821 791.197C284.63 792.875 283.757 794.579 282.2 796.308C279.778 799.059 276.388 800.434 272.028 800.434C268.43 800.434 265.256 799.275 262.505 796.957C259.755 794.639 258.38 790.868 258.38 785.644C258.38 780.748 259.621 776.995 262.103 774.383C264.586 771.77 267.807 770.464 271.769 770.464C274.121 770.464 276.24 770.906 278.126 771.788C280.012 772.67 281.568 774.063 282.797 775.965C283.904 777.643 284.622 779.589 284.95 781.804C285.141 783.101 285.218 784.969 285.184 787.408L265.827 787.408C265.931 790.245 266.821 792.235 268.499 793.376C269.52 794.086 270.748 794.44 272.184 794.44C273.706 794.44 274.943 794.008 275.895 793.143C276.413 792.676 276.872 792.027 277.27 791.197L284.821 791.197ZM277.503 782.53C277.382 780.575 276.79 779.092 275.726 778.08C274.662 777.068 273.343 776.562 271.769 776.562C270.056 776.562 268.729 777.098 267.786 778.171C266.843 779.243 266.251 780.697 266.008 782.53L277.503 782.53Z"/>
<path d="M303.477 776.692C300.969 776.692 299.248 777.756 298.313 779.883C297.829 781.008 297.587 782.444 297.587 784.191L297.587 799.5L290.218 799.5L290.218 771.269L297.353 771.269L297.353 775.395C298.305 773.941 299.204 772.895 300.052 772.255C301.574 771.113 303.503 770.542 305.838 770.542C308.762 770.542 311.153 771.308 313.013 772.839C314.872 774.37 315.802 776.908 315.802 780.454L315.802 799.5L308.225 799.5L308.225 782.297C308.225 780.809 308.027 779.667 307.629 778.872C306.902 777.418 305.518 776.692 303.477 776.692Z"/>
<path d="M335.574 794.233L335.574 799.759L332.071 799.889C328.577 800.01 326.19 799.405 324.91 798.073C324.08 797.225 323.664 795.919 323.664 794.155L323.664 776.744L319.72 776.744L319.72 771.476L323.664 771.476L323.664 763.588L330.982 763.588L330.982 771.476L335.574 771.476L335.574 776.744L330.982 776.744L330.982 791.69C330.982 792.849 331.129 793.571 331.423 793.856C331.717 794.142 332.616 794.284 334.121 794.284C334.346 794.284 334.584 794.28 334.835 794.272C335.086 794.263 335.332 794.25 335.574 794.233Z"/>
<path d="M382.306 782.79L363.728 782.79L363.728 792.624L384.901 792.624L384.901 799.5L355.917 799.5L355.917 761.253L383.967 761.253L383.967 768.025L363.728 768.025L363.728 776.147L382.306 776.147L382.306 782.79Z"/>
<path d="M387.755 771.217L396.059 771.217L401.949 792.079L407.969 771.217L415.909 771.217L405.711 799.5L397.901 799.5L387.755 771.217Z"/>
<path d="M444.296 791.197C444.105 792.875 443.232 794.579 441.675 796.308C439.253 799.059 435.863 800.434 431.503 800.434C427.905 800.434 424.731 799.275 421.981 796.957C419.23 794.639 417.855 790.868 417.855 785.644C417.855 780.748 419.096 776.995 421.578 774.383C424.061 771.77 427.283 770.464 431.244 770.464C433.597 770.464 435.716 770.906 437.601 771.788C439.487 772.67 441.044 774.063 442.272 775.965C443.379 777.643 444.097 779.589 444.425 781.804C444.616 783.101 444.694 784.969 444.659 787.408L425.302 787.408C425.406 790.245 426.297 792.235 427.974 793.376C428.995 794.086 430.223 794.44 431.659 794.44C433.181 794.44 434.418 794.008 435.37 793.143C435.889 792.676 436.347 792.027 436.745 791.197L444.296 791.197ZM436.978 782.53C436.857 780.575 436.265 779.092 435.201 778.08C434.137 777.068 432.818 776.562 431.244 776.562C429.531 776.562 428.204 777.098 427.261 778.171C426.318 779.243 425.726 780.697 425.484 782.53L436.978 782.53Z"/>
<path d="M462.952 776.692C460.444 776.692 458.723 777.756 457.789 779.883C457.304 781.008 457.062 782.444 457.062 784.191L457.062 799.5L449.693 799.5L449.693 771.269L456.828 771.269L456.828 775.395C457.78 773.941 458.679 772.895 459.527 772.255C461.049 771.113 462.978 770.542 465.313 770.542C468.237 770.542 470.628 771.308 472.488 772.839C474.348 774.37 475.277 776.908 475.277 780.454L475.277 799.5L467.701 799.5L467.701 782.297C467.701 780.809 467.502 779.667 467.104 778.872C466.377 777.418 464.993 776.692 462.952 776.692Z"/>
<path d="M495.05 794.233L495.05 799.759L491.547 799.889C488.052 800.01 485.665 799.405 484.385 798.073C483.555 797.225 483.139 795.919 483.139 794.155L483.139 776.744L479.195 776.744L479.195 771.476L483.139 771.476L483.139 763.588L490.457 763.588L490.457 771.476L495.05 771.476L495.05 776.744L490.457 776.744L490.457 791.69C490.457 792.849 490.604 793.571 490.898 793.856C491.192 794.142 492.091 794.284 493.596 794.284C493.821 794.284 494.059 794.28 494.31 794.272C494.561 794.263 494.807 794.25 495.05 794.233Z"/>
<path d="M519.285 772.514C521.499 773.933 522.77 776.372 523.099 779.832L515.704 779.832C515.6 778.88 515.332 778.128 514.9 777.574C514.087 776.571 512.703 776.069 510.748 776.069C509.139 776.069 507.993 776.32 507.31 776.822C506.627 777.323 506.285 777.911 506.285 778.586C506.285 779.434 506.648 780.048 507.375 780.428C508.101 780.826 510.67 781.51 515.081 782.478C518.022 783.17 520.228 784.217 521.698 785.618C523.151 787.036 523.878 788.81 523.878 790.937C523.878 793.74 522.835 796.027 520.751 797.8C518.666 799.574 515.444 800.46 511.085 800.46C506.64 800.46 503.357 799.522 501.238 797.645C499.119 795.768 498.059 793.376 498.059 790.47L505.558 790.47C505.714 791.785 506.051 792.719 506.57 793.273C507.487 794.259 509.182 794.752 511.656 794.752C513.109 794.752 514.264 794.535 515.12 794.103C515.976 793.67 516.405 793.022 516.405 792.157C516.405 791.326 516.059 790.695 515.367 790.263C514.675 789.83 512.106 789.086 507.66 788.031C504.46 787.235 502.202 786.241 500.888 785.047C499.573 783.871 498.916 782.176 498.916 779.961C498.916 777.349 499.941 775.105 501.991 773.228C504.04 771.351 506.925 770.413 510.644 770.413C514.173 770.413 517.053 771.113 519.285 772.514Z"/>
</g>
</g>
</svg>
