<?xml version="1.0" encoding="UTF-8" standalone="no"?>
<!DOCTYPE svg PUBLIC "-//W3C//DTD SVG 1.1//EN" "http://www.w3.org/Graphics/SVG/1.1/DTD/svg11.dtd">
<!-- Created with Vectornator (http://vectornator.io/) -->
<svg height="100%" stroke-miterlimit="10" style="fill-rule:nonzero;clip-rule:evenodd;stroke-linecap:round;stroke-linejoin:round;" version="1.1" viewBox="0 0 600 966" width="100%" xml:space="preserve" xmlns="http://www.w3.org/2000/svg" xmlns:vectornator="http://vectornator.io" xmlns:xlink="http://www.w3.org/1999/xlink">
<defs>
<filter color-interpolation-filters="sRGB" filterUnits="userSpaceOnUse" height="970.5" id="Filter" width="550.5" x="29.1642" y="-1.1862">
<feDropShadow dx="4.41425" dy="4.0638" flood-color="#000000" flood-opacity="0.2" in="SourceGraphic" result="Shadow" stdDeviation="2"/>
</filter>
</defs>
<clipPath id="ArtboardFrame">
<rect height="966" width="600" x="0" y="0"/>
</clipPath>
<g clip-path="url(#ArtboardFrame)" id="Layer-1" vectornator:layerName="Layer 1">
<path d="M30 0L570 2.71682e-14L570 960L30 960L30 0Z" fill="#f788bf" fill-rule="nonzero" filter="url(#Filter)" stroke="#ffffff" stroke-linecap="butt" stroke-linejoin="round" stroke-width="0.5" vectornator:layerName="Rectangle 1" vectornator:shadowAngle="0.744085" vectornator:shadowColor="#000000" vectornator:shadowOffset="6" vectornator:shadowOpacity="0.2" vectornator:shadowRadius="4"/>
<g opacity="1" vectornator:layerName="the election">
<path d="M73.2761 181.807C68.5598 181.807 68.5598 181.807 63.8434 181.807C60.5873 196.044 52.9389 209.957 54.075 224.518C54.6692 232.133 63.7315 236.345 68.5598 242.259C79.8789 221.479 79.8789 221.479 91.1981 200.698C93.3084 227.687 56.4627 245 51.7458 271.656C45.2293 308.484 63.7667 346.099 61.5096 383.431C59.8311 411.195 41.6515 436.306 40.1122 464.078C38.6798 489.924 51.4092 514.84 52.7939 540.688C55.535 591.858 52.5657 643.173 52.4517 694.416C68.3289 698.608 83.6649 707.211 100.084 706.994C122.238 706.7 142.896 692.971 165.052 692.926C296.773 692.652 428.351 701.667 560 706.037C547.977 640.485 550.337 570.558 523.931 509.379C515.335 489.462 481.988 496.164 464.118 483.893C455.924 478.266 450.356 467.938 449.191 458.058C442.902 404.705 444.459 350.715 442.092 297.043C380.308 296.571 380.308 296.571 318.525 296.099C318.196 289.159 321.091 281.247 317.54 275.279C313.996 269.322 306.672 264.517 299.747 264.54C249.522 264.706 199.592 279.401 149.493 275.833C136.7 274.922 129.495 259.747 119.496 251.705C129.838 241.055 142.853 232.471 150.521 219.755C155.664 211.226 152.449 199.587 156.43 190.456C159.433 183.571 168.796 180.373 170.843 173.146C172.518 167.24 170.585 159.76 166.4 155.274C157.47 145.701 146.217 137.489 133.784 133.419C123.116 129.926 110.887 130.42 100.115 133.573C91.0271 136.232 81.569 141.765 76.9607 150.046C71.7802 159.357 74.5043 171.22 73.2761 181.807Z" fill="none" opacity="1" stroke="#000000" stroke-linecap="butt" stroke-linejoin="round" stroke-width="5" vectornator:layerName="path"/>
<path d="M131.758 186.53C132.23 183.224 132.23 183.224 132.702 179.918C123.269 192.67 123.269 192.67 113.836 205.421C120.439 190.781 120.439 190.781 127.042 176.14C121.383 178.974 121.383 178.974 115.723 181.807C119.496 180.863 119.496 180.863 123.269 179.918C119.496 186.53 119.496 186.53 115.723 193.142C118.553 192.67 118.553 192.67 121.383 192.197C113.836 201.171 113.836 201.171 106.29 210.144C118.081 198.809 118.081 198.809 129.872 187.475C135.06 192.67 135.06 192.67 140.248 197.865C141.989 194.754 142.623 190.672 145.473 188.532C148.157 186.516 152.051 187.197 155.34 186.53C153.35 188.39 149.606 189.394 149.369 192.109C148.94 197.051 154.162 201.441 153.616 206.371C152.931 212.556 148.477 217.702 145.907 223.368C139.776 222.423 139.776 222.423 133.645 221.479C138.08 225.031 138.08 225.031 142.516 228.584C133.972 235.063 133.972 235.063 125.428 241.544C108.319 229.298 96.0476 210.391 87.1859 191.292C86.2077 189.184 88.1264 185.775 90.3399 185.074C96.0101 183.277 102.231 184.785 108.177 184.641C107.705 194.087 107.705 194.087 107.234 203.532C111.478 193.614 111.478 193.614 115.723 183.696C111.478 190.308 111.478 190.308 107.234 196.92C109.12 188.419 109.12 188.419 111.007 179.918C100.263 181.779 100.263 181.779 89.5189 183.64C88.472 192.642 88.472 192.642 87.425 201.643C79.8785 191.625 73.7258 178.734 74.691 166.222C75.2912 158.442 78.9381 150.837 83.5816 144.571C89.9893 135.923 108.729 131.139 118.058 132.824C130.726 135.112 143.119 139.699 154.397 145.914C159.468 148.709 163.484 153.749 165.724 159.093C170.367 170.167 163.61 177.822 153.948 181.83C146.963 184.728 139.155 184.964 131.758 186.53Z" fill="none" opacity="1" stroke="#000000" stroke-linecap="butt" stroke-linejoin="round" stroke-width="5" vectornator:layerName="path"/>
<path d="M168.546 169.528C170.623 179.928 163.885 185.323 154.397 185.585C154.548 184.375 166.449 175.827 168.546 169.528Z" fill="none" opacity="1" stroke="#000000" stroke-linecap="butt" stroke-linejoin="round" stroke-width="5" vectornator:layerName="path"/>
<path d="M75.1626 178.974C76.5775 178.974 76.5775 178.974 77.9924 178.974C77.5208 180.863 77.5208 180.863 77.0491 182.752C76.1059 180.863 76.1059 180.863 75.1626 178.974Z" fill="none" opacity="1" stroke="#000000" stroke-linecap="butt" stroke-linejoin="round" stroke-width="5" vectornator:layerName="path"/>
<path d="M98.7442 201.643C96.5428 197.361 93.8313 191.816 95.9144 187.475C94.9711 187.002 94.9711 187.002 94.0279 186.53C93.1591 191.212 91.4438 201.643 98.7442 201.643Z" fill="none" opacity="1" stroke="#000000" stroke-linecap="butt" stroke-linejoin="round" stroke-width="5" vectornator:layerName="path"/>
<path d="M133.645 187.475C138.361 187.947 138.361 187.947 143.078 188.419C141.81 191.594 142.591 190.066 140.719 192.994C135.347 189.595 137.659 191.493 133.645 187.475Z" fill="none" opacity="1" stroke="#000000" stroke-linecap="butt" stroke-linejoin="round" stroke-width="5" vectornator:layerName="path"/>
<path d="M122.326 188.419C121.854 189.364 121.854 189.364 122.326 188.419Z" fill="none" opacity="1" stroke="#000000" stroke-linecap="butt" stroke-linejoin="round" stroke-width="5" vectornator:layerName="path"/>
<path d="M133.645 195.031C134.117 193.142 134.117 193.142 134.588 191.253C133.645 191.253 133.645 191.253 132.702 191.253C133.016 192.512 133.331 193.772 133.645 195.031Z" fill="none" opacity="1" stroke="#000000" stroke-linecap="butt" stroke-linejoin="round" stroke-width="5" vectornator:layerName="path"/>
<path d="M83.652 219.59C81.2938 217.7 81.2938 217.7 78.9357 215.811C79.2946 222.358 78.7247 226.786 76.1059 232.813C74.6448 225.869 76.57 227.922 72.3328 225.257C72.0847 233.396 73.3863 230.052 69.503 235.647C69.503 230.452 69.503 230.452 69.503 225.257C66.6311 230.447 66.6462 233.953 65.73 240.37C61.7206 232.32 59.7635 225.739 59.1271 216.756C55.1036 218.957 56.9235 217.19 55.3541 223.368C55.8257 216.284 55.8257 216.284 56.2973 209.199C54.4108 209.672 54.4108 209.672 52.5243 210.144C67.2369 187.859 90.8358 186.062 83.652 219.59Z" fill="none" opacity="1" stroke="#000000" stroke-linecap="butt" stroke-linejoin="round" stroke-width="5" vectornator:layerName="path"/>
<path d="M96.386 204.477C103.215 212.093 102.376 223.071 109.233 230.976C111.062 233.085 118.975 238.668 119.834 243.618C121.396 252.614 116.78 260.657 119.496 269.651C104.754 256.955 90.5641 249.901 72.3328 243.204C79.4782 238.083 83.0337 236.917 87.3499 230.104C92.4503 222.052 89.4645 211.55 96.386 204.477Z" fill="none" opacity="1" stroke="#000000" stroke-linecap="butt" stroke-linejoin="round" stroke-width="5" vectornator:layerName="path"/>
<path d="M144.021 211.089C143.395 207.325 143.878 209.154 142.577 205.598C140.301 208.411 141.331 208.779 144.021 211.089Z" fill="none" opacity="1" stroke="#000000" stroke-linecap="butt" stroke-linejoin="round" stroke-width="5" vectornator:layerName="path"/>
<path d="M88.3683 248.871C79.4073 250.288 79.4073 250.288 70.4463 251.705C95.9144 263.039 95.9144 263.039 121.383 274.374C110.535 291.376 110.535 291.376 99.6875 308.378C88.9385 305.157 77.0171 304.571 67.4405 298.716C61.255 294.936 55.2244 288.217 54.8483 280.97C54.306 270.521 57.4266 258.497 64.978 251.265C70.6423 245.842 80.5716 249.669 88.3683 248.871Z" fill="none" opacity="1" stroke="#000000" stroke-linecap="butt" stroke-linejoin="round" stroke-width="5" vectornator:layerName="path"/>
<path d="M89.3116 249.815C90.2548 250.288 90.2548 250.288 89.3116 249.815Z" fill="none" opacity="1" stroke="#000000" stroke-linecap="butt" stroke-linejoin="round" stroke-width="5" vectornator:layerName="path"/>
<path d="M118.553 254.538C134.248 256.285 144.403 263.326 149.68 278.152C130.094 275.978 119.049 276.397 118.553 254.538Z" fill="none" opacity="1" stroke="#000000" stroke-linecap="butt" stroke-linejoin="round" stroke-width="5" vectornator:layerName="path"/>
<path d="M316.638 279.097C309.547 274.519 301.986 270.485 294 267.762C310.329 274.779 320.708 277.607 315.695 296.099C313.531 283.336 307.437 270.049 292.113 274.374C301.764 274.958 325.115 291.66 309.092 296.099C309.169 289.85 301.441 286.141 296.83 281.93C301.013 286.292 305.066 290.897 308.149 296.099C293.486 293.14 270.538 286.195 253.321 288.07C216.583 292.072 183.777 317.06 145.966 313.691C133.141 312.548 120.374 310.681 107.705 308.378C104.055 307.714 101.621 304.88 101.102 301.294C96.7606 271.281 140.707 279.375 155.163 278.595C202.352 276.046 249.713 268.841 296.83 264.928C304.952 264.254 314.074 272.018 316.638 279.097Z" fill="none" opacity="1" stroke="#000000" stroke-linecap="butt" stroke-linejoin="round" stroke-width="5" vectornator:layerName="path"/>
<path d="M97.8009 307.433C97.8009 296.828 97.2657 286.878 106.526 279.923C110.067 277.263 115.067 277.174 117.609 273.429C102.329 275.898 90.3792 292.57 97.8009 307.433Z" fill="none" opacity="1" stroke="#000000" stroke-linecap="butt" stroke-linejoin="round" stroke-width="5" vectornator:layerName="path"/>
<path d="M52.5243 275.319C60.0914 284.717 64.175 298.687 75.2258 303.513C100.104 314.377 128.379 314.538 154.956 320.05C151.195 337.503 144.447 354.57 143.673 372.408C142.979 388.372 148.307 404.027 150.624 419.836C103.461 412.279 103.461 412.279 56.2973 404.723C58.6761 393.132 63.7783 381.78 63.4334 369.952C62.5079 338.211 56.1607 306.863 52.5243 275.319Z" fill="none" opacity="1" stroke="#000000" stroke-linecap="butt" stroke-linejoin="round" stroke-width="5" vectornator:layerName="path"/>
<path d="M171.375 289.487C197.126 286.142 223.902 285.264 249.44 281.179C225.209 280.392 200.546 283.593 176.563 286.653C171.441 287.307 172.018 286.68 171.375 289.487Z" fill="none" opacity="1" stroke="#000000" stroke-linecap="butt" stroke-linejoin="round" stroke-width="5" vectornator:layerName="path"/>
<path d="M297.773 296.099C271.975 297.042 242.547 296.111 217.773 305.899C204.12 311.292 193.503 320.667 180.366 311.831C186.289 308.959 192.914 307.847 199.202 305.899C211.324 302.141 223.151 297.468 235.282 293.737C251.728 288.679 263.629 290.936 280.93 292.026C290.679 292.641 290.372 291.198 297.773 296.099Z" fill="none" opacity="1" stroke="#000000" stroke-linecap="butt" stroke-linejoin="round" stroke-width="5" vectornator:layerName="path"/>
<path d="M301.546 304.6C293.206 306.059 285.012 308.414 277.021 311.212C294.874 310.946 312.736 311.01 330.58 310.415C336.303 310.224 336.706 308.849 341.163 305.544C327.014 305.072 327.014 305.072 312.865 304.6C320.582 295.432 339.592 298.486 348.798 298.46C378.638 298.377 408.479 298.775 438.319 298.932C422.028 308.114 404.245 313.801 385.331 313.978C323.448 314.559 261.559 314.023 199.673 314.045C213.838 309.823 227.839 305.008 242.167 301.38C258.033 297.363 288.619 291.042 301.546 304.6Z" fill="none" opacity="1" stroke="#000000" stroke-linecap="butt" stroke-linejoin="round" stroke-width="5" vectornator:layerName="path"/>
<path d="M301.546 297.988C304.376 297.988 304.376 297.988 307.205 297.988C307.205 301.294 307.205 301.294 307.205 304.6C302.334 304.6 302.187 302.485 301.546 297.988Z" fill="none" opacity="1" stroke="#000000" stroke-linecap="butt" stroke-linejoin="round" stroke-width="5" vectornator:layerName="path"/>
<path d="M308.149 297.988C310.035 297.988 310.035 297.988 311.922 297.988C311.45 301.294 311.45 301.294 310.978 304.6C307.997 302.393 308.247 301.821 308.149 297.988Z" fill="none" opacity="1" stroke="#000000" stroke-linecap="butt" stroke-linejoin="round" stroke-width="5" vectornator:layerName="path"/>
<path d="M152.51 306.489C134.53 308.289 145.344 300.227 136.475 298.932C140.797 307.588 143.172 310.942 152.51 306.489Z" fill="none" opacity="1" stroke="#000000" stroke-linecap="butt" stroke-linejoin="round" stroke-width="5" vectornator:layerName="path"/>
<path d="M439.262 298.932C439.458 355.173 440.186 411.414 439.852 467.654C439.809 474.739 438.246 481.755 438.136 488.84C437.914 503.085 441.678 512.296 434.104 524.239C429.126 532.088 423.708 539.647 418.51 547.351C418.588 497.818 418.118 448.279 418.743 398.75C418.983 379.827 419.999 360.919 421.104 342.028C422.241 322.614 423.357 309.838 439.262 298.932Z" fill="none" opacity="1" stroke="#000000" stroke-linecap="butt" stroke-linejoin="round" stroke-width="5" vectornator:layerName="path"/>
<path d="M306.262 309.323C314.132 303.499 329.98 307.275 336.447 307.433C318.525 311.966 301.202 310.73 282.681 310.267C290.802 307.08 298.446 304.025 306.262 309.323Z" fill="none" opacity="1" stroke="#000000" stroke-linecap="butt" stroke-linejoin="round" stroke-width="5" vectornator:layerName="path"/>
<path d="M305.319 306.489C306.734 306.961 306.734 306.961 305.319 306.489Z" fill="none" opacity="1" stroke="#000000" stroke-linecap="butt" stroke-linejoin="round" stroke-width="5" vectornator:layerName="path"/>
<path d="M187.411 342.382C186.882 337.098 184.201 331.587 185.824 326.532C187.315 321.888 192.541 319.467 195.9 315.935C194.206 336.424 194.206 336.424 192.512 356.912C182.48 351.278 170.158 348.527 162.414 340.01C156.525 333.534 157.069 323.33 154.397 314.99C167.248 314.842 167.248 314.842 180.099 314.693C183.755 328.538 183.755 328.538 187.411 342.382Z" fill="none" opacity="1" stroke="#000000" stroke-linecap="butt" stroke-linejoin="round" stroke-width="5" vectornator:layerName="path"/>
<path d="M416.624 315.935C416.624 433.06 416.624 433.06 416.624 550.185C306.734 550.185 306.734 550.185 196.844 550.185C197.315 432.824 197.315 432.824 197.787 315.462C270.733 315.462 343.679 315.618 416.624 315.935Z" fill="none" opacity="1" stroke="#000000" stroke-linecap="butt" stroke-linejoin="round" stroke-width="5" vectornator:layerName="path"/>
<path d="M155.34 338.604C168.25 346.075 181.044 358.771 195.9 357.495C195.9 422.197 195.9 422.197 195.9 486.9C180.515 489.047 169.41 503.554 158.17 514.292C156.559 486.624 155.75 458.898 153.336 431.289C151.728 412.916 147.693 394.81 146.11 376.435C144.664 359.64 149.04 354.733 155.34 338.604Z" fill="none" opacity="1" stroke="#000000" stroke-linecap="butt" stroke-linejoin="round" stroke-width="5" vectornator:layerName="path"/>
<path d="M56.2973 405.668C87.6782 412.679 119.478 418.75 151.567 420.78C151.567 424.086 151.567 424.086 151.567 427.392C119.325 425.59 87.0938 422.013 55.3541 416.058C55.8257 410.863 55.8257 410.863 56.2973 405.668Z" fill="none" opacity="1" stroke="#000000" stroke-linecap="butt" stroke-linejoin="round" stroke-width="5" vectornator:layerName="path"/>
<path d="M152.039 430.698C153.271 460.305 161.065 503.496 139.889 530.236C129.117 543.838 112.041 553.132 105.293 569.123C104.321 571.425 103.966 573.956 103.626 576.431C100.117 601.972 96.2554 627.482 93.7496 653.141C92.4427 666.523 92.2404 680.003 92.1981 693.449C92.1636 704.442 108.827 701.163 113.836 701.314C113.836 703.203 113.836 703.203 113.836 705.092C101.734 705.092 78.0457 706.735 64.1535 702.467C50.2499 698.194 48.1167 684.185 47.3412 671.667C45.0276 634.324 56.3595 598.392 55.2992 561.313C53.9528 514.228 27.73 469.365 53.069 425.581C54.4151 423.255 59.2267 421.445 61.4634 421.645C79.5767 423.259 97.5042 426.592 115.599 428.401C127.709 429.612 139.892 429.932 152.039 430.698Z" fill="none" opacity="1" stroke="#000000" stroke-linecap="butt" stroke-linejoin="round" stroke-width="5" vectornator:layerName="path"/>
<path d="M77.0491 421.725C77.9924 422.197 77.9924 422.197 77.0491 421.725Z" fill="none" opacity="1" stroke="#000000" stroke-linecap="butt" stroke-linejoin="round" stroke-width="5" vectornator:layerName="path"/>
<path d="M81.7654 422.67C82.7087 423.142 82.7087 423.142 81.7654 422.67Z" fill="none" opacity="1" stroke="#000000" stroke-linecap="butt" stroke-linejoin="round" stroke-width="5" vectornator:layerName="path"/>
<path d="M85.5385 423.614C86.4818 424.086 86.4818 424.086 85.5385 423.614Z" fill="none" opacity="1" stroke="#000000" stroke-linecap="butt" stroke-linejoin="round" stroke-width="5" vectornator:layerName="path"/>
<path d="M90.2548 424.559C91.1981 425.031 91.1981 425.031 90.2548 424.559Z" fill="none" opacity="1" stroke="#000000" stroke-linecap="butt" stroke-linejoin="round" stroke-width="5" vectornator:layerName="path"/>
<path d="M94.9711 425.503C96.386 425.976 96.386 425.976 94.9711 425.503Z" fill="none" opacity="1" stroke="#000000" stroke-linecap="butt" stroke-linejoin="round" stroke-width="5" vectornator:layerName="path"/>
<path d="M99.6875 426.448C102.046 426.92 102.046 426.92 99.6875 426.448Z" fill="none" opacity="1" stroke="#000000" stroke-linecap="butt" stroke-linejoin="round" stroke-width="5" vectornator:layerName="path"/>
<path d="M106.29 427.392C108.648 427.865 108.648 427.865 106.29 427.392Z" fill="none" opacity="1" stroke="#000000" stroke-linecap="butt" stroke-linejoin="round" stroke-width="5" vectornator:layerName="path"/>
<path d="M113.836 428.337C117.609 428.809 117.609 428.809 113.836 428.337Z" fill="none" opacity="1" stroke="#000000" stroke-linecap="butt" stroke-linejoin="round" stroke-width="5" vectornator:layerName="path"/>
<path d="M190.712 488.316C200.27 507.371 195.548 530.754 195.9 552.074C246.308 551.828 296.741 552.941 347.124 551.337C366.257 550.728 385.304 548.192 404.248 545.443C433.224 541.24 437.878 518.132 442.092 493.511C461.586 494.379 481.212 493.69 500.574 496.116C515.94 498.041 526.343 515.663 528.736 529.406C531.187 543.493 532.6 557.741 534.532 571.91C321.354 568.604 321.354 568.604 108.177 565.298C134.936 538.852 160.598 510.856 190.712 488.316Z" fill="none" opacity="1" stroke="#000000" stroke-linecap="butt" stroke-linejoin="round" stroke-width="5" vectornator:layerName="path"/>
<path d="M559.057 705.092C540.663 705.092 540.663 705.092 522.269 705.092C526.986 641.335 526.986 641.335 531.702 577.577C519.147 621.227 540.433 680.483 488.576 702.75C484.542 704.482 479.972 704.747 475.585 704.902C461.624 705.393 447.632 705.331 433.678 704.683C350.48 700.819 267.436 693.192 184.168 691.367C152.738 690.678 121.404 698.027 90.0001 696.577C93.6219 671.074 95.2288 645.201 100.865 620.067C102.019 614.924 106.351 610.954 110.044 607.198C141.503 575.21 201.714 573.834 242.246 571.381C322.111 566.548 406.466 567.93 484.185 589.266C502.321 594.245 519.925 602.77 533.834 615.662C537.91 619.44 542.133 623.798 543.642 629.151C550.653 654.01 553.919 679.778 559.057 705.092Z" fill="none" opacity="1" stroke="#000000" stroke-linecap="butt" stroke-linejoin="round" stroke-width="5" vectornator:layerName="path"/>
<path d="M132.702 690.924C121.489 651.626 120.256 610.385 110.063 570.965C114.68 606.686 115.965 658.092 132.702 690.924Z" fill="none" opacity="1" stroke="#000000" stroke-linecap="butt" stroke-linejoin="round" stroke-width="5" vectornator:layerName="path"/>
<path d="M242.12 649.363C227.192 642.382 212.531 641.677 197.315 633.778C167.19 618.141 143.022 594.988 117.609 572.854C149.524 611.34 194.149 637.199 242.12 649.363Z" fill="none" opacity="1" stroke="#000000" stroke-linecap="butt" stroke-linejoin="round" stroke-width="5" vectornator:layerName="path"/>
<path d="M378.893 675.811C437.396 663.663 484.376 633.444 518.496 584.189C509.477 590.177 504.179 600.444 496.919 608.482C478.909 628.425 456.269 646.599 432.26 658.692C420.919 664.405 408.149 670.225 395.401 672.387C388.81 673.505 382.837 670.179 378.893 675.811Z" fill="none" opacity="1" stroke="#000000" stroke-linecap="butt" stroke-linejoin="round" stroke-width="5" vectornator:layerName="path"/>
<path d="M352.482 655.031C339.901 651.858 326.702 650.247 314.929 644.788C287.719 632.173 267.686 610.735 246.837 589.856C270.592 625.538 310.773 649.361 352.482 655.031Z" fill="none" opacity="1" stroke="#000000" stroke-linecap="butt" stroke-linejoin="round" stroke-width="5" vectornator:layerName="path"/>
<path d="M298.716 685.257C283.075 683.865 268.542 689.649 252.427 689.051C208.274 687.412 175.75 671.934 139.305 648.419C195.261 686.519 231.843 694.19 298.716 685.257Z" fill="none" opacity="1" stroke="#000000" stroke-linecap="butt" stroke-linejoin="round" stroke-width="5" vectornator:layerName="path"/>
<path d="M423.227 699.425C456.929 696.023 479.862 679.195 506.234 658.809C497.276 659.375 483.629 675.654 475.183 680.754C458.579 690.779 442.166 695.327 423.227 699.425Z" fill="none" opacity="1" stroke="#000000" stroke-linecap="butt" stroke-linejoin="round" stroke-width="5" vectornator:layerName="path"/>
</g>
<path d="M0 688C0 688 150 708 300 708C450 708 600 688 600 688L600 848C600 848 450 868 300 868C150 868 0 848 0 848L0 688Z" fill="#fcedf5" fill-rule="nonzero" opacity="1" stroke="#000000" stroke-linecap="butt" stroke-linejoin="round" stroke-width="0.5" vectornator:layerName="Rectangle 2"/>
<g fill="#000000" opacity="1" stroke="none" vectornator:layerName="Text 1">
<path d="M173.868 761.253L173.868 768.025L162.425 768.025L162.425 799.5L154.381 799.5L154.381 768.025L142.886 768.025L142.886 761.253L173.868 761.253Z"/>
<path d="M203.5 782.893L203.5 799.5L195.949 799.5L195.949 782.297C195.949 780.774 195.69 779.546 195.171 778.612C194.496 777.297 193.216 776.64 191.331 776.64C189.376 776.64 187.893 777.293 186.881 778.599C185.869 779.905 185.363 781.769 185.363 784.191L185.363 799.5L177.993 799.5L177.993 761.383L185.363 761.383L185.363 774.901C186.435 773.258 187.676 772.112 189.086 771.463C190.496 770.815 191.979 770.49 193.536 770.49C195.283 770.49 196.871 770.793 198.298 771.399C199.725 772.004 200.897 772.929 201.814 774.175C202.592 775.23 203.068 776.316 203.241 777.431C203.414 778.547 203.5 780.368 203.5 782.893Z"/>
<path d="M234.612 791.197C234.421 792.875 233.548 794.579 231.991 796.308C229.569 799.059 226.179 800.434 221.819 800.434C218.221 800.434 215.047 799.275 212.296 796.957C209.546 794.639 208.171 790.868 208.171 785.644C208.171 780.748 209.412 776.995 211.894 774.383C214.377 771.77 217.598 770.464 221.56 770.464C223.912 770.464 226.032 770.906 227.917 771.788C229.803 772.67 231.359 774.063 232.588 775.965C233.695 777.643 234.413 779.589 234.741 781.804C234.932 783.101 235.009 784.969 234.975 787.408L215.618 787.408C215.722 790.245 216.612 792.235 218.29 793.376C219.311 794.086 220.539 794.44 221.975 794.44C223.497 794.44 224.734 794.008 225.686 793.143C226.204 792.676 226.663 792.027 227.061 791.197L234.612 791.197ZM227.294 782.53C227.173 780.575 226.581 779.092 225.517 778.08C224.453 777.068 223.134 776.562 221.56 776.562C219.847 776.562 218.52 777.098 217.577 778.171C216.634 779.243 216.042 780.697 215.799 782.53L227.294 782.53Z"/>
<path d="M281.94 782.79L263.362 782.79L263.362 792.624L284.535 792.624L284.535 799.5L255.551 799.5L255.551 761.253L283.601 761.253L283.601 768.025L263.362 768.025L263.362 776.147L281.94 776.147L281.94 782.79Z"/>
<path d="M290.321 761.253L297.717 761.253L297.717 799.5L290.321 799.5L290.321 761.253Z"/>
<path d="M329.139 791.197C328.949 792.875 328.076 794.579 326.519 796.308C324.097 799.059 320.706 800.434 316.347 800.434C312.749 800.434 309.575 799.275 306.824 796.957C304.074 794.639 302.699 790.868 302.699 785.644C302.699 780.748 303.94 776.995 306.422 774.383C308.904 771.77 312.126 770.464 316.088 770.464C318.44 770.464 320.559 770.906 322.445 771.788C324.33 772.67 325.887 774.063 327.115 775.965C328.223 777.643 328.94 779.589 329.269 781.804C329.459 783.101 329.537 784.969 329.503 787.408L310.146 787.408C310.249 790.245 311.14 792.235 312.818 793.376C313.839 794.086 315.067 794.44 316.503 794.44C318.025 794.44 319.262 794.008 320.213 793.143C320.732 792.676 321.191 792.027 321.589 791.197L329.139 791.197ZM321.822 782.53C321.701 780.575 321.109 779.092 320.045 778.08C318.981 777.068 317.662 776.562 316.088 776.562C314.375 776.562 313.047 777.098 312.105 778.171C311.162 779.243 310.569 780.697 310.327 782.53L321.822 782.53Z"/>
<path d="M358.953 781.362L351.377 781.362C351.238 780.307 350.884 779.356 350.313 778.508C349.482 777.367 348.194 776.796 346.447 776.796C343.956 776.796 342.252 778.033 341.335 780.506C340.85 781.821 340.608 783.568 340.608 785.748C340.608 787.823 340.85 789.493 341.335 790.756C342.217 793.108 343.878 794.284 346.317 794.284C348.047 794.284 349.275 793.817 350.001 792.883C350.728 791.949 351.169 790.738 351.325 789.251L358.876 789.251C358.703 791.499 357.89 793.627 356.436 795.634C354.118 798.869 350.685 800.486 346.135 800.486C341.586 800.486 338.238 799.137 336.093 796.438C333.948 793.74 332.876 790.237 332.876 785.929C332.876 781.068 334.061 777.289 336.431 774.59C338.801 771.892 342.07 770.542 346.239 770.542C349.785 770.542 352.687 771.338 354.944 772.929C357.202 774.521 358.538 777.332 358.953 781.362Z"/>
<path d="M376.987 794.233L376.987 799.759L373.484 799.889C369.99 800.01 367.603 799.405 366.323 798.073C365.492 797.225 365.077 795.919 365.077 794.155L365.077 776.744L361.133 776.744L361.133 771.476L365.077 771.476L365.077 763.588L372.394 763.588L372.394 771.476L376.987 771.476L376.987 776.744L372.394 776.744L372.394 791.69C372.394 792.849 372.541 793.571 372.835 793.856C373.13 794.142 374.029 794.284 375.534 794.284C375.759 794.284 375.997 794.28 376.248 794.272C376.498 794.263 376.745 794.25 376.987 794.233Z"/>
<path d="M389.338 771.217L389.338 799.5L381.839 799.5L381.839 771.217L389.338 771.217ZM389.338 761.019L389.338 767.844L381.839 767.844L381.839 761.019L389.338 761.019Z"/>
<path d="M420.086 774.798C422.474 777.79 423.667 781.328 423.667 785.41C423.667 789.562 422.474 793.113 420.086 796.062C417.699 799.011 414.075 800.486 409.214 800.486C404.353 800.486 400.729 799.011 398.342 796.062C395.955 793.113 394.761 789.562 394.761 785.41C394.761 781.328 395.955 777.79 398.342 774.798C400.729 771.805 404.353 770.309 409.214 770.309C414.075 770.309 417.699 771.805 420.086 774.798ZM409.188 776.562C407.026 776.562 405.361 777.328 404.193 778.859C403.026 780.389 402.442 782.573 402.442 785.41C402.442 788.247 403.026 790.436 404.193 791.975C405.361 793.515 407.026 794.284 409.188 794.284C411.351 794.284 413.011 793.515 414.17 791.975C415.329 790.436 415.909 788.247 415.909 785.41C415.909 782.573 415.329 780.389 414.17 778.859C413.011 777.328 411.351 776.562 409.188 776.562Z"/>
<path d="M442.272 776.692C439.763 776.692 438.042 777.756 437.108 779.883C436.624 781.008 436.382 782.444 436.382 784.191L436.382 799.5L429.012 799.5L429.012 771.269L436.148 771.269L436.148 775.395C437.099 773.941 437.999 772.895 438.847 772.255C440.369 771.113 442.298 770.542 444.633 770.542C447.556 770.542 449.948 771.308 451.808 772.839C453.667 774.37 454.597 776.908 454.597 780.454L454.597 799.5L447.02 799.5L447.02 782.297C447.02 780.809 446.821 779.667 446.423 778.872C445.697 777.418 444.313 776.692 442.272 776.692Z"/>
</g>
</g>
</svg>
