<svg width="1080" height="1075" viewBox="0 0 1080 1075" fill="none" xmlns="http://www.w3.org/2000/svg">
<g clip-path="url(#clip0_16_1498)">
<g clip-path="url(#clip1_16_1498)">
<path d="M608.09 502.559C608.1 512.299 608.11 522.029 608.12 531.769C608.13 537.789 606.96 548.859 610.47 554.129C613.81 559.129 626.72 560.849 632.28 562.429C634.3 563.009 636.32 563.579 638.35 564.159C640.96 564.899 643.69 565.649 646.34 565.099C648.99 564.549 651.49 562.229 651.27 559.529C651.08 557.279 649.22 554.729 650.77 553.089C651.37 552.449 652.31 552.259 653.04 551.769C654.72 550.639 654.93 548.299 654.97 546.279C655.1 540.239 655.24 534.199 655.37 528.149C655.4 526.839 655.41 525.439 654.74 524.309C654.12 523.259 653.01 522.609 652.01 521.909C645.77 517.489 645.39 512.019 644.45 505.279C643.38 497.659 638.78 489.289 635.11 482.639C628.46 482.069 621.69 483.079 615.5 485.569C612.88 486.619 610.29 487.999 608.54 490.209C606.79 492.429 606.06 495.609 607.41 498.089L608.09 502.559Z" fill="#EB978D" stroke="#231F20" stroke-miterlimit="10" stroke-linecap="round" stroke-linejoin="round"/>
<path d="M648.831 551.019C647.681 547.109 646.881 543.099 646.461 539.049" stroke="#231F20" stroke-miterlimit="10" stroke-linecap="round" stroke-linejoin="round"/>
<path d="M601.707 502.5C602.427 507.46 603.147 512.42 603.867 517.38C604.037 518.52 604.397 519.89 605.507 520.18C606.077 520.33 606.677 520.12 607.237 519.92C618.027 516.01 628.987 512.55 640.067 509.56C642.377 508.94 645.037 508.03 645.797 505.76C646.197 504.57 645.957 503.28 645.717 502.05C644.637 496.6 643.557 491.14 642.477 485.69C640.537 485.62 638.687 486.4 636.907 487.17C630.147 490.1 623.827 496.15 616.477 495.63L601.707 502.5Z" fill="white" stroke="#231F20" stroke-miterlimit="10" stroke-linecap="round" stroke-linejoin="round"/>
<path d="M659.588 183.28C659.408 188.55 657.438 193.57 656.798 198.78C655.578 208.72 653.758 218.6 652.958 228.57C652.398 235.55 652.048 242.74 651.878 249.94C651.608 260.67 651.738 271.46 652.158 281.74C653.008 302.34 649.108 322.99 647.198 343.63C646.108 355.51 645.388 367.44 643.788 379.26C642.788 386.6 640.088 393.82 638.368 400.96C637.868 403.04 637.458 405.12 637.188 407.19C636.778 410.43 636.978 413.97 637.498 417.59C638.628 425.38 641.228 433.64 642.458 440.51C645.188 455.82 650.988 473.05 651.088 488.54C651.098 489.41 651.058 490.3 650.718 491.09C650.068 492.57 648.468 493.37 646.998 494.05C633.218 500.43 619.448 506.81 605.668 513.19C603.598 514.15 601.388 515.13 599.128 514.78C592.528 473.43 587.898 431.39 583.718 389.68C581.918 371.73 579.318 355.86 584.038 338.59C589.318 319.25 592.258 299.06 596.928 279.53C600.388 265.03 604.418 250.69 608.658 236.41C612.658 222.92 618.168 203.67 624.628 191.18C630.068 180.68 636.828 175.79 647.658 172.65C654.338 170.73 659.838 175.96 659.588 183.28Z" fill="#D1C8C1" stroke="#231F20" stroke-miterlimit="10" stroke-linecap="round" stroke-linejoin="round"/>
<path opacity="0.3" d="M647.199 343.639C646.109 355.519 645.389 367.449 643.789 379.269C642.789 386.609 640.089 393.829 638.369 400.969C637.869 403.049 637.459 405.129 637.189 407.199C636.759 410.579 637.379 414.079 637.039 417.329C627.449 417.769 629.379 393.489 629.039 387.709C628.069 371.089 624.859 358.179 623.979 341.599C623.229 327.459 628.169 309.569 631.799 295.979C634.229 286.879 635.879 276.019 640.159 267.589C643.009 261.969 651.709 256.619 651.879 249.949C651.609 260.679 651.739 271.469 652.159 281.749C653.009 302.349 649.099 322.989 647.199 343.639Z" fill="#231F20"/>
<path d="M601.547 343.119C607.497 342.809 613.517 342.51 619.387 343.56C622.307 344.08 625.167 344.94 628.007 345.79C631.627 346.88 635.247 347.959 638.867 349.049" stroke="#231F20" stroke-miterlimit="10" stroke-linecap="round" stroke-linejoin="round"/>
<path d="M610.66 334.561C615.95 336.061 621.04 338.291 625.73 341.181" stroke="#231F20" stroke-miterlimit="10" stroke-linecap="round" stroke-linejoin="round"/>
<path d="M745.878 1061.91C743.278 1078.61 727.658 1076.59 713.858 1077.61C697.858 1078.79 681.748 1078.62 665.778 1077.09C660.788 1076.62 655.218 1075.68 652.278 1071.61C649.788 1068.18 650.008 1063.35 651.728 1059.47C655.918 1050.03 662.058 1045.56 663.768 1034.62C664.178 1031.98 664.428 1029.24 664.688 1026.48C665.338 1019.76 666.068 1012.93 669.428 1007.12C674.658 998.069 683.888 998.269 691.848 999.189C702.128 1000.39 712.418 1001.59 722.698 1002.78C727.938 1003.39 733.538 1004.21 737.608 1009.2C740.748 1013.03 742.398 1018.57 743.378 1024.56C744.018 1028.52 744.378 1032.67 744.678 1036.66C745.278 1044.83 747.148 1053.79 745.878 1061.91Z" fill="#414042" stroke="#231F20" stroke-miterlimit="10" stroke-linecap="round" stroke-linejoin="round"/>
<path d="M662.5 1048.18C665.37 1047.65 667.81 1045.85 670.65 1044.79C677.61 1042.19 685.15 1042.31 692.42 1042.31C700.74 1042.31 709.39 1043.12 717.15 1045.83" stroke="white" stroke-miterlimit="10" stroke-linecap="round" stroke-linejoin="round"/>
<path d="M847.757 1016.58C844.507 1026.35 837.657 1034.34 830.027 1040.79C824.757 1045.25 818.877 1049.19 812.297 1050.75C796.007 1054.59 779.007 1036.05 777.257 1019.62C776.147 1009.2 781.627 997.74 782.267 987.26C782.317 986.42 782.347 985.58 782.377 984.74C782.637 974.21 780.977 963.43 786.167 953.8C788.877 948.78 796.667 948.23 800.727 947.84C811.077 946.85 833.507 943.26 839.097 952.1C842.367 957.26 842.087 970.4 843.107 976.64C843.617 979.73 844.377 982.77 845.197 985.79C847.947 995.95 851.337 1005.84 847.757 1016.58Z" fill="#414042" stroke="#231F20" stroke-miterlimit="10" stroke-linecap="round" stroke-linejoin="round"/>
<g opacity="0.3">
<path d="M845.197 985.79C844.057 986.71 842.817 987.5 841.537 988.21C833.947 992.38 824.977 993.5 816.337 992.85C808.337 992.25 800.547 990.22 792.847 988.07C789.597 987.16 785.547 986.49 782.377 984.74C782.637 974.21 780.977 963.43 786.167 953.8C788.877 948.78 796.667 948.23 800.727 947.84C811.077 946.85 833.507 943.26 839.097 952.1C842.367 957.26 842.087 970.4 843.107 976.64C843.617 979.73 844.377 982.77 845.197 985.79Z" fill="#231F20"/>
</g>
<g opacity="0.3">
<path d="M743.378 1024.56C742.948 1024.62 742.518 1024.66 742.098 1024.71C728.248 1026.12 714.237 1027.53 700.447 1025.62C696.927 1025.13 693.427 1024.43 689.877 1024.31C681.437 1024.02 673.108 1027.01 664.688 1026.48C665.337 1019.76 666.067 1012.93 669.427 1007.12C674.657 998.069 683.887 998.269 691.847 999.189C702.127 1000.39 712.417 1001.59 722.697 1002.78C727.937 1003.39 733.537 1004.21 737.607 1009.2C740.747 1013.03 742.398 1018.57 743.378 1024.56Z" fill="#231F20"/>
</g>
<path d="M869.539 607.171C869.459 605.161 869.349 603.151 869.209 601.151C869.169 600.601 869.129 600.051 869.079 599.501C868.439 590.911 867.409 582.431 867.079 573.751C866.309 554.031 866.279 534.181 865.569 514.401C865.559 514.111 865.549 513.821 865.539 513.531C865.349 508.171 865.189 502.681 864.959 497.151C864.459 485.041 863.649 472.771 861.629 461.351C854.049 418.461 810.579 428.621 784.099 431.981C758.459 435.211 732.289 432.931 706.889 438.841C688.279 443.181 662.109 447.411 648.049 463.381C646.129 465.551 644.459 467.941 643.079 470.571C638.009 480.251 636.819 493.511 636.849 507.331C636.869 514.131 637.179 521.061 637.459 527.771C637.849 537.131 638.199 546.071 637.659 553.651C636.659 567.711 636.349 581.351 636.529 594.921V595.211C636.759 612.331 637.749 629.331 639.019 646.851C647.969 769.281 651.499 893.581 655.749 1016.57C678.599 1014.99 701.439 1013.42 724.279 1011.84C729.499 1011.48 744.799 1009.2 744.799 1009.2C744.799 1009.2 745.589 993.981 745.489 986.241C745.019 950.901 744.059 915.561 742.599 880.251C741.279 848.101 744.639 815.881 746.479 783.591C748.069 755.731 748.469 727.791 748.909 699.891C749.169 683.171 749.819 666.361 749.459 649.651C749.309 642.651 749.059 635.461 750.009 628.781C750.659 624.121 751.889 619.701 754.129 615.731C756.589 611.391 760.249 607.601 765.679 604.661C753.619 613.031 752.029 623.771 752.949 635.471C752.989 635.941 753.019 636.421 753.069 636.901C753.099 637.241 753.129 637.581 753.169 637.921C753.249 638.781 753.349 639.641 753.459 640.501C753.919 644.331 754.529 648.261 755.009 652.201C757.239 670.501 759.619 688.791 760.939 707.181C761.319 712.521 761.709 717.851 762.089 723.201C763.859 748.061 765.459 772.931 765.349 797.741C765.229 825.071 770.179 852.021 773.339 879.071C776.349 904.771 775.329 930.291 777.239 956.031C778.899 978.521 798.749 982.191 818.309 981.311C826.709 980.941 835.569 980.411 842.579 975.771C861.029 963.551 858.639 920.941 859.779 900.751C861.819 864.411 864.119 828.071 864.959 791.681C866.399 730.041 871.949 668.951 869.539 607.171Z" fill="#D1C8C1" stroke="#231F20" stroke-miterlimit="10" stroke-linecap="round" stroke-linejoin="round"/>
<path opacity="0.3" d="M869.079 599.501C858.859 606.501 846.819 610.931 834.989 614.941C821.429 619.531 807.769 623.771 794.059 627.841C782.279 631.351 772.339 634.391 767.639 646.971C764.929 654.251 764.619 662.161 764.339 669.921C763.939 680.791 763.549 691.661 763.159 702.541C762.899 709.431 762.649 716.331 762.109 723.201C761.729 717.851 761.339 712.521 760.959 707.181C759.639 688.791 757.269 670.501 755.029 652.201C754.549 648.261 753.939 644.331 753.479 640.501C753.369 639.641 753.269 638.781 753.189 637.921C753.149 637.581 753.119 637.241 753.089 636.901C753.039 636.421 753.009 635.941 752.969 635.471C752.059 623.781 753.639 613.031 765.699 604.661C760.259 607.601 756.609 611.401 754.149 615.731C751.909 619.691 750.679 624.121 750.029 628.781C750.039 628.631 750.049 628.481 750.069 628.331C750.519 624.301 752.779 619.001 751.349 615.101C750.129 611.781 744.619 605.521 740.719 607.621C738.939 608.581 737.539 610.271 735.569 610.781C732.919 611.491 730.289 609.831 727.849 608.591C723.719 606.501 719.139 605.461 714.609 604.481C698.209 600.891 682.549 597.141 665.819 596.831C663.519 596.791 636.579 597.031 636.529 594.921C636.349 581.351 636.659 567.711 637.659 553.651C638.199 546.071 637.849 537.131 637.459 527.771C637.179 521.051 636.869 514.121 636.849 507.331C637.299 507.171 637.749 507.011 638.199 506.861C669.089 496.341 702.419 496.391 735.049 496.551C778.359 496.761 821.649 496.961 864.949 497.161C865.179 502.691 865.339 508.181 865.529 513.541C865.539 513.831 865.549 514.121 865.559 514.411C866.269 534.191 866.299 554.041 867.069 573.761C867.409 582.431 868.439 590.911 869.079 599.501Z" fill="#231F20"/>
<path d="M751.439 621.531C743.729 639.471 737.199 648.831 722.969 661.481" stroke="#231F20" stroke-miterlimit="10" stroke-linecap="round" stroke-linejoin="round"/>
<path d="M782.85 847.381C796.98 847.381 814.33 849.131 827.93 845.231C809.53 845.231 787.26 846.121 775.34 830.201" stroke="#231F20" stroke-miterlimit="10" stroke-linecap="round" stroke-linejoin="round"/>
<path d="M690.189 114.661C689.459 113.431 688.819 112.141 688.349 110.771C687.009 106.841 686.719 102.511 685.839 98.381C685.179 95.291 680.809 82.691 684.769 80.721C687.669 79.281 690.889 85.271 691.899 87.061C692.499 88.131 692.819 89.881 693.899 90.461C695.289 87.441 692.929 83.941 692.199 81.051C691.799 79.471 692.119 78.321 692.219 76.781C692.339 74.821 691.969 72.761 691.859 70.801C691.559 65.501 690.839 60.191 692.479 55.011C696.049 43.781 707.109 38.851 718.039 36.141C727.039 33.911 736.659 34.271 745.819 33.641C753.009 33.141 761.579 33.011 768.579 35.121C776.139 37.401 783.899 42.721 789.569 48.301C795.019 53.671 796.179 61.551 795.959 68.891C795.809 73.761 794.739 78.651 793.509 83.351C792.919 85.601 791.469 88.091 791.719 90.441C791.629 89.601 793.449 86.981 793.839 86.151C794.669 84.401 795.569 82.411 797.069 81.101C798.239 80.071 800.779 79.081 801.889 80.751C802.969 82.371 802.419 86.971 802.359 88.881C802.239 93.001 801.229 97.421 800.089 101.381C799.019 105.081 798.009 110.521 795.479 113.511C793.349 116.031 791.459 117.751 790.929 121.021C789.759 128.191 789.119 132.091 787.949 139.261C787.079 144.591 784.549 145.941 781.879 149.781C779.349 153.431 781.679 158.681 782.389 162.831C786.089 184.241 766.129 191.521 749.349 192.641C736.169 193.521 707.459 193.401 698.449 179.871C695.659 175.691 693.929 170.041 700.209 168.331C705.409 166.921 709.369 168.411 709.309 160.451C709.259 153.281 705.229 152.861 703.959 149.001C702.319 144.021 700.209 138.021 699.419 132.841C698.869 129.251 697.479 125.501 696.399 122.021C695.399 118.771 692.989 118.961 691.209 116.281C690.869 115.761 690.519 115.221 690.189 114.661Z" fill="#EB978D" stroke="#231F20" stroke-miterlimit="10" stroke-linecap="round" stroke-linejoin="round"/>
<path d="M689.526 71.8009C689.736 75.1709 689.716 78.5209 690.556 81.8709C691.216 84.5009 693.176 86.6609 693.646 89.3509C693.866 90.6009 693.676 95.3909 695.966 95.0009C697.266 94.7809 697.266 90.9509 697.516 90.0009C698.166 87.4909 697.986 84.8709 698.326 82.3109C699.116 76.2709 699.506 70.2709 700.096 64.2209C700.606 58.9309 702.566 54.2909 707.326 51.3709C716.446 45.7709 727.926 44.4009 738.746 44.2709C749.746 44.1409 760.366 44.1909 770.966 46.9009C776.666 48.3609 783.686 49.9809 786.976 55.2709C788.916 58.3909 787.836 61.5309 788.166 65.0109C788.596 69.4209 789.606 73.7709 789.636 78.2009C789.656 82.0209 789.646 85.8409 789.636 89.6609C789.626 93.1709 791.066 93.4809 792.086 90.1009C792.646 88.2409 792.566 86.1709 793.226 84.3609C793.726 82.9609 794.916 82.1609 795.616 80.8209C797.246 77.6909 797.316 73.4009 797.466 69.9809C797.696 64.9009 797.576 59.8109 797.556 54.7309C797.536 51.5209 797.576 49.2609 795.826 46.4509C794.496 44.3109 792.656 42.5109 791.186 40.4709C788.336 36.4909 784.086 33.5409 779.556 31.5909C772.596 28.6009 764.886 27.7609 757.306 27.2009C743.346 26.1609 729.036 25.9609 715.646 29.9509C703.056 33.7109 687.486 43.4109 688.266 57.8909C688.506 62.2409 689.136 66.5509 689.476 70.8909C689.476 71.1809 689.506 71.4909 689.526 71.8009Z" fill="#231F20"/>
<path opacity="0.3" d="M724.066 164.991C724.146 164.871 724.266 164.751 724.416 164.641C726.126 163.431 730.796 166.871 732.706 167.121C736.066 167.561 739.406 167.251 742.786 167.111C746.076 166.981 749.436 167.301 752.616 166.561C755.076 165.991 757.856 165.491 760.046 164.321C762.226 163.161 765.736 161.791 765.336 165.711C765.126 167.811 761.256 170.021 759.446 170.811C750.756 174.591 753.356 172.791 744.576 174.771C743.226 175.071 735.756 173.281 734.466 172.791C731.346 171.611 727.886 169.931 725.386 167.741C724.736 167.161 723.446 165.921 724.066 164.991Z" fill="#231F20"/>
<path d="M694.877 99.8711C693.567 107.961 695.097 122.071 699.937 126.381" stroke="#231F20" stroke-miterlimit="10" stroke-linecap="round" stroke-linejoin="round"/>
<path d="M791.989 97.4609C792.999 99.5809 792.159 107.821 791.929 110.151C791.329 116.441 791.909 120.571 787.199 125.111" stroke="#231F20" stroke-miterlimit="10" stroke-linecap="round" stroke-linejoin="round"/>
<path d="M815.107 42.0207C814.157 44.4807 812.427 47.0707 809.737 49.7607C806.517 53.0007 799.857 56.2707 799.097 61.2407C798.787 63.2307 798.357 68.3307 795.987 69.6507C793.457 71.0607 792.707 66.9607 791.197 65.8507C788.317 63.7407 784.967 63.6707 781.437 63.7307C776.857 63.8107 772.057 63.2907 767.457 62.9007C758.727 62.1707 749.987 61.4007 741.217 61.5907C733.037 61.7607 724.877 62.3607 716.737 63.0407C711.767 63.4507 703.857 62.6107 699.607 65.5007C697.787 66.7507 692.827 73.5707 690.257 70.7507C688.107 68.3907 688.377 68.1907 686.977 65.5807C685.777 63.3307 682.867 61.4107 680.977 59.6807C675.417 54.5707 667.227 49.4207 667.867 40.5307C668.817 27.5007 683.617 20.9607 693.947 16.9107C707.687 11.5207 722.067 3.78067 736.467 0.500668C744.477 -1.31933 752.807 -0.969332 760.417 1.82067C773.207 6.51067 785.027 13.2707 797.497 18.5107C808.907 23.3207 819.137 31.5307 815.107 42.0207Z" fill="#BDB09F" stroke="#231F20" stroke-miterlimit="10" stroke-linecap="round" stroke-linejoin="round"/>
<path d="M683.066 53.2808L691.416 49.3608C725.436 33.4008 763.016 32.7608 797.246 47.5508L803.716 50.3408L798.476 72.8108L776.116 65.7708C755.016 59.1208 732.826 59.0008 711.616 65.4008L686.436 73.0008L683.066 53.2808Z" fill="#FCD26B" stroke="#231F20" stroke-miterlimit="10" stroke-linecap="round" stroke-linejoin="round"/>
<path d="M745.806 61.6703C757.996 61.7903 770.126 62.2803 782.006 64.1703C785.376 64.7103 789.776 64.9403 792.646 66.5303C798.896 69.9803 789.166 71.8803 785.156 72.4503C769.146 74.7303 764.946 75.0603 743.966 75.5803C734.576 75.8103 725.066 75.3203 715.706 74.6003C712.416 74.3503 691.286 73.3103 691.036 70.4103C690.846 68.1503 696.016 66.9303 698.016 66.3203C709.326 62.8803 722.166 61.6403 734.436 61.6403C738.236 61.6303 742.026 61.6303 745.806 61.6703Z" fill="#FCD26B" stroke="#231F20" stroke-miterlimit="10" stroke-linecap="round" stroke-linejoin="round"/>
<path d="M720.637 58.4007C721.057 51.7807 719.547 46.0307 722.087 39.6307C724.027 34.7407 727.157 30.1207 731.837 27.0607C738.107 22.9607 745.407 20.5107 753.177 26.8707C758.567 31.2807 762.047 35.4207 763.207 41.8207C763.837 45.3107 764.547 48.6907 764.627 52.2507C764.747 57.4207 763.757 58.5107 757.947 59.1007C750.537 59.8507 743.327 59.4307 735.847 59.4907C732.057 59.5207 724.667 60.9007 721.387 58.7507L720.637 58.4007Z" fill="#231F20"/>
<path d="M723.659 56.0616C724.019 50.3516 722.719 45.3916 724.909 39.8716C726.579 35.6516 730.119 31.6516 734.149 29.0116C739.559 25.4716 743.969 24.5616 749.759 28.8816C754.709 32.5716 759.369 36.2416 760.359 41.7616C760.899 44.7716 761.509 47.6816 761.579 50.7616C761.689 55.2216 760.829 56.1616 755.819 56.6716C749.429 57.3216 743.209 56.9516 736.759 57.0116C733.499 57.0416 727.119 58.2216 724.289 56.3716L723.659 56.0616Z" fill="#FCD26B" stroke="#231F20" stroke-miterlimit="10" stroke-linecap="round" stroke-linejoin="round"/>
<path d="M691.887 61.7507C691.887 61.7507 746.377 47.1207 793.007 60.5907L794.257 66.1307C794.257 66.1307 754.887 54.5107 690.707 67.7607L691.887 61.7507Z" fill="#FCD26B" stroke="#231F20" stroke-miterlimit="10" stroke-linecap="round" stroke-linejoin="round"/>
<path d="M691.258 67.76C692.639 67.76 693.758 66.3586 693.758 64.63C693.758 62.9013 692.639 61.5 691.258 61.5C689.877 61.5 688.758 62.9013 688.758 64.63C688.758 66.3586 689.877 67.76 691.258 67.76Z" fill="#FCD26B" stroke="#231F20" stroke-miterlimit="10" stroke-linecap="round" stroke-linejoin="round"/>
<path d="M793.496 66.4416C794.877 66.4416 795.996 65.0403 795.996 63.3116C795.996 61.583 794.877 60.1816 793.496 60.1816C792.115 60.1816 790.996 61.583 790.996 63.3116C790.996 65.0403 792.115 66.4416 793.496 66.4416Z" fill="#FCD26B" stroke="#231F20" stroke-miterlimit="10" stroke-linecap="round" stroke-linejoin="round"/>
<path d="M775.287 95.75C774.517 95.55 771.417 94.61 768.617 93.81C767.077 93.38 765.618 92.99 764.688 92.79C764.678 92.78 764.668 92.78 764.658 92.78C764.288 92.7 763.997 92.66 763.837 92.65C763.707 92.64 763.477 92.68 763.197 92.74C762.487 92.91 761.378 93.29 760.188 93.76C758.088 94.57 755.697 95.68 754.688 96.45" stroke="#231F20" stroke-miterlimit="10" stroke-linecap="round" stroke-linejoin="round"/>
<path d="M710.957 96.1512C712.097 96.0512 715.777 95.0812 718.887 94.2312C721.217 93.6112 723.237 93.0412 723.637 92.9512C724.047 92.8612 725.637 93.3012 727.407 93.9012C729.727 94.6812 732.357 95.7312 733.007 96.1512" stroke="#231F20" stroke-miterlimit="10" stroke-linecap="round" stroke-linejoin="round"/>
<path d="M768.616 93.8102C768.596 94.7202 768.186 95.6202 767.446 96.3002C766.326 97.3102 764.456 97.7402 762.876 97.2802C761.156 96.7902 760.056 95.2402 760.186 93.7702C761.376 93.3002 762.486 92.9202 763.196 92.7502C763.496 92.7402 763.796 92.7502 764.086 92.7602C764.266 92.7702 764.466 92.7802 764.646 92.7902C764.656 92.7902 764.666 92.7902 764.676 92.8002C765.616 92.9902 767.076 93.3802 768.616 93.8102Z" fill="#231F20"/>
<path d="M727.407 93.91C727.227 94.94 726.727 95.95 725.847 96.72C724.867 97.54 723.367 98.02 721.967 97.75C720.727 97.49 719.747 96.69 719.277 95.76C719.027 95.28 718.907 94.77 718.887 94.25C721.217 93.63 723.237 93.06 723.637 92.97C724.057 92.86 725.647 93.3 727.407 93.91Z" fill="#231F20"/>
<path d="M757.429 87.4199C752.459 89.4199 749.759 95.2699 749.719 97.4599C749.629 102.19 749.699 113.69 750.809 114.63C751.639 115.33 755.399 118.89 756.179 119.65C757.489 120.93 756.419 123.71 755.569 125.19C754.319 127.36 752.699 125.85 750.939 126.07C748.949 126.31 747.559 128.29 745.469 128.29C744.289 128.29 742.669 128.33 741.549 127.95C740.639 127.64 739.999 126.86 739.089 126.51C736.839 125.65 734.589 129.1 732.559 127.05" stroke="#231F20" stroke-miterlimit="10" stroke-linecap="round" stroke-linejoin="round"/>
<path d="M746.246 128.191C746.246 129.501 746.246 131.491 746.246 132.801C746.246 133.551 746.036 134.011 745.426 134.211C744.446 134.521 743.926 134.041 743.086 133.571" stroke="#231F20" stroke-miterlimit="10" stroke-linecap="round" stroke-linejoin="round"/>
<path d="M726.289 140.382C730.929 136.942 736.379 136.132 738.799 135.302C741.339 134.432 742.889 136.682 745.389 136.242C748.089 135.762 748.589 134.672 751.449 135.792C753.609 136.642 755.809 136.652 760.819 139.492C757.739 139.082 754.649 138.872 751.539 138.742C748.969 138.632 746.749 139.352 744.279 139.952C741.929 140.532 740.029 139.262 737.769 139.042C736.019 138.872 733.769 139.222 732.019 139.492C732.029 139.492 726.289 140.382 726.289 140.382Z" stroke="#231F20" stroke-miterlimit="10" stroke-linecap="round" stroke-linejoin="round"/>
<path d="M726.328 140.35C727.838 141.65 730.288 142.21 732.248 142.6C734.088 142.97 735.408 144.05 737.168 144.57C739.738 145.32 742.848 145.26 745.518 145.23C748.398 145.19 751.438 144.7 753.988 143.31C756.218 142.09 758.288 139.82 760.848 139.27C760.968 139.24 761.078 139.22 761.158 139.14C758.758 138.17 755.008 138.63 752.448 138.59C748.778 138.53 745.208 140.74 741.548 140.09C740.078 139.83 738.898 139.02 737.428 138.8C733.478 138.24 730.048 139.5 726.328 140.35Z" stroke="#231F20" stroke-miterlimit="10" stroke-linecap="round" stroke-linejoin="round"/>
<path d="M756.277 116.9C758.047 119.69 760.657 121.06 762.287 124.1C763.767 126.86 764.757 129.82 766.087 132.63C767.197 134.98 768.837 137.48 768.237 140.27C767.237 144.9 763.507 149.86 760.247 153.29" stroke="#231F20" stroke-miterlimit="10" stroke-linecap="round" stroke-linejoin="round"/>
<path d="M731.637 118.15C730.537 121.23 727.337 124.17 725.117 126.59C722.907 128.99 723.987 131.75 722.367 134.62" stroke="#231F20" stroke-miterlimit="10" stroke-linecap="round" stroke-linejoin="round"/>
<path d="M750.856 117.66C750.856 119.46 751.136 121.44 750.406 123.09" stroke="#231F20" stroke-miterlimit="10" stroke-linecap="round" stroke-linejoin="round"/>
<path d="M705.676 151.631C708.036 154.581 709.876 156.021 711.956 157.001C714.896 158.391 718.576 159.641 719.516 160.181" stroke="#231F20" stroke-miterlimit="10" stroke-linecap="round" stroke-linejoin="round"/>
<path d="M733.988 166.89C738.328 166.88 748.338 167.17 752.688 166.91C758.088 166.59 771.518 157.9 775.058 154.32" stroke="#231F20" stroke-miterlimit="10" stroke-linecap="round" stroke-linejoin="round"/>
<path d="M754.228 85.1902C754.248 85.0802 754.288 84.9702 754.338 84.8502C754.648 84.1802 755.568 83.7402 756.198 83.4102C757.698 82.6402 761.268 81.7202 762.838 81.1402C764.538 80.5202 769.588 79.6502 771.218 79.6002C773.108 79.5402 775.068 80.5502 776.338 81.8502C777.118 82.6402 778.888 85.1602 778.368 86.2402C776.588 85.3802 774.798 84.8602 772.888 84.3402C768.618 83.1802 763.458 85.8602 759.408 87.2002C758.178 87.6102 756.778 88.3702 755.628 87.2602C754.968 86.6302 754.058 86.0802 754.228 85.1902Z" fill="#231F20"/>
<path d="M769.656 104.29C772.416 104.49 775.356 103.59 777.826 102.5" stroke="#231F20" stroke-miterlimit="10" stroke-linecap="round" stroke-linejoin="round"/>
<path d="M710.969 102.391C712.919 103.881 716.279 104.621 718.729 104.381" stroke="#231F20" stroke-miterlimit="10" stroke-linecap="round" stroke-linejoin="round"/>
<path d="M733.028 84.9505C733.038 84.4005 732.788 83.8905 732.158 83.4705C730.888 82.6105 729.038 82.0305 727.548 81.6505C724.288 80.8105 720.968 80.2005 717.608 79.9305C714.248 79.6705 712.738 80.2105 710.378 82.6105C709.878 83.1205 709.438 83.5805 709.058 84.1705C708.988 84.2705 708.118 86.2005 708.388 86.0505C710.098 85.1205 711.998 84.7805 713.888 84.3205C717.358 83.4905 721.018 84.7705 724.268 85.8505C726.068 86.4505 730.858 89.0805 732.318 86.8105C732.728 86.1705 733.018 85.5405 733.028 84.9505Z" fill="#231F20"/>
<path d="M739.188 149.021C742.547 148.231 746.197 147.211 749.717 147.961" stroke="#231F20" stroke-miterlimit="10" stroke-linecap="round" stroke-linejoin="round"/>
<path opacity="0.3" d="M693.519 103.97C693.579 103.97 693.059 100.2 693.009 99.8802C692.669 97.8502 692.279 95.8002 691.169 93.9102C690.579 92.9102 690.189 91.8102 689.399 90.8902C688.929 90.3302 687.609 88.9802 687.289 90.4202C686.739 92.8702 688.499 95.1602 688.929 97.5502C689.409 100.22 689.319 102.93 689.849 105.6C690.049 106.58 690.639 111.77 692.779 111.25C693.079 111.18 691.449 105.7 691.449 105.09C691.449 104.59 691.099 102.61 691.809 102.48C692.869 102.27 692.709 103.98 693.519 103.97Z" fill="#231F20"/>
<path opacity="0.3" d="M792.739 103.31C792.679 103.31 793.199 99.54 793.249 99.22C793.589 97.19 793.979 95.14 795.089 93.25C795.679 92.25 796.069 91.15 796.859 90.23C797.329 89.67 798.649 88.32 798.969 89.76C799.519 92.21 797.759 94.5 797.329 96.89C796.849 99.56 796.939 102.27 796.409 104.94C796.209 105.92 795.619 111.11 793.479 110.59C793.179 110.52 794.809 105.04 794.809 104.43C794.809 103.93 795.159 101.95 794.449 101.82C793.389 101.61 793.559 103.33 792.739 103.31Z" fill="#231F20"/>
<path d="M760.858 296.511C760.248 304.981 757.038 312.151 754.518 320.061C752.818 325.391 752.188 333.461 748.758 337.621C740.978 329.621 737.888 313.421 732.998 302.891C731.148 298.891 729.148 295.001 727.728 290.781C726.398 286.811 726.928 283.921 727.478 279.761C728.578 271.491 728.778 263.121 730.188 254.891C731.508 247.231 733.448 239.611 735.008 232.061C736.108 226.751 737.828 226.751 742.788 226.831C747.808 226.911 748.658 226.681 750.538 232.191C752.148 236.921 752.538 242.021 753.088 246.981C754.108 256.181 755.388 265.361 757.738 274.291C759.768 281.981 761.428 288.341 760.858 296.511Z" fill="#231F20"/>
<path d="M628.487 206.251C629.207 199.731 630.067 193.251 630.917 186.891C631.347 183.731 631.847 180.461 633.557 177.771C638.187 170.461 655.947 170.151 663.607 169.061C673.377 167.681 686.487 161.861 695.767 168.621C704.547 175.011 702.757 191.331 706.157 200.511C712.937 218.801 720.657 236.561 727.507 254.561C736.257 277.541 743.597 298.251 743.307 322.561C742.757 369.331 732.687 418.171 740.987 462.881C745.307 486.141 747.177 510.001 745.917 533.641C745.367 544.041 744.717 587.551 732.297 589.931C727.097 590.931 721.977 588.341 717.147 586.181C686.467 572.431 651.477 573.551 617.887 574.921C619.717 551.491 621.767 527.991 623.577 504.441C624.717 489.561 623.337 474.451 624.677 459.641C625.917 445.911 627.797 432.161 628.537 418.291C629.387 402.351 629.707 386.381 629.507 370.421C629.357 358.601 631.647 347.191 631.407 335.621C631.167 323.801 630.677 311.991 630.087 300.191C629.577 289.911 632.357 278.171 630.477 268.241C629.557 263.401 626.747 258.651 627.907 253.861C628.147 252.871 628.557 251.901 628.517 250.881C628.487 250.061 628.167 249.291 627.867 248.531C622.437 234.491 626.907 220.551 628.487 206.251Z" fill="#D1C8C1" stroke="#231F20" stroke-miterlimit="10" stroke-linecap="round" stroke-linejoin="round"/>
<path d="M729.897 402.941C729.687 406.871 729.517 410.861 729.497 414.971C729.367 436.861 729.537 458.581 731.077 480.051C731.757 489.551 732.637 498.351 731.657 507.501C730.197 521.101 736.977 528.501 740.177 540.891C744.257 556.701 749.987 601.441 771.457 599.961C802.847 597.801 833.747 588.891 861.457 573.991C888.667 559.371 877.887 527.741 875.367 501.641C873.737 484.811 869.867 468.161 868.047 451.221C864.267 415.991 864.917 326.621 863.137 304.741C861.587 285.651 863.177 265.521 865.117 246.511C867.207 226.011 862.667 204.531 859.897 184.081C859.477 180.961 859.017 177.771 857.577 174.961C851.897 163.891 826.207 166.651 815.777 165.631C810.257 165.091 797.757 163.261 794.637 168.361C790.627 174.911 793.027 183.701 790.017 190.741C786.537 198.901 781.657 206.361 778.347 214.521C773.647 226.131 772.057 238.991 765.907 249.931C761.417 257.911 754.497 263.921 749.657 271.511C746.107 277.091 742.507 282.821 739.187 288.441C733.967 297.291 727.767 305.401 727.657 315.701C727.467 334.091 728.647 352.331 730.267 370.391C731.307 381.891 730.457 392.211 729.897 402.941Z" fill="#D1C8C1" stroke="#231F20" stroke-miterlimit="10" stroke-linecap="round" stroke-linejoin="round"/>
<path d="M732.797 323.869C738.017 323.869 743.237 323.519 748.447 323.589" stroke="#231F20" stroke-miterlimit="10" stroke-linecap="round" stroke-linejoin="round"/>
<path d="M736.914 389.439C741.744 389.439 746.624 388.989 751.424 389.159" stroke="#231F20" stroke-miterlimit="10" stroke-linecap="round" stroke-linejoin="round"/>
<path d="M739.625 447.689C743.875 447.689 749.455 447.689 753.005 447.689" stroke="#231F20" stroke-miterlimit="10" stroke-linecap="round" stroke-linejoin="round"/>
<path d="M743.867 503.881C747.807 503.881 751.667 503.751 755.537 503.311" stroke="#231F20" stroke-miterlimit="10" stroke-linecap="round" stroke-linejoin="round"/>
<path d="M744.424 325.355C745.921 321.404 744.84 317.332 742.01 316.26C739.18 315.187 735.672 317.521 734.175 321.471C732.678 325.422 733.759 329.494 736.589 330.567C739.419 331.639 742.927 329.305 744.424 325.355Z" fill="#FCD26B" stroke="#231F20" stroke-miterlimit="9.9997" stroke-linecap="round" stroke-linejoin="round"/>
<path d="M749.374 389.887C749.887 385.816 747.792 382.199 744.696 381.809C741.6 381.42 738.675 384.404 738.162 388.476C737.65 392.547 739.744 396.164 742.84 396.553C745.936 396.943 748.862 393.958 749.374 389.887Z" fill="#FCD26B" stroke="#231F20" stroke-miterlimit="10.0003" stroke-linecap="round" stroke-linejoin="round"/>
<path d="M750.542 447.979C751.055 443.907 748.96 440.291 745.864 439.901C742.768 439.511 739.843 442.496 739.33 446.567C738.818 450.639 740.912 454.255 744.008 454.645C747.104 455.035 750.03 452.05 750.542 447.979Z" fill="#FCD26B" stroke="#231F20" stroke-miterlimit="10.0003" stroke-linecap="round" stroke-linejoin="round"/>
<path d="M752.687 503.674C753.199 499.603 751.105 495.986 748.009 495.596C744.913 495.207 741.987 498.191 741.475 502.263C740.962 506.334 743.057 509.951 746.153 510.34C749.249 510.73 752.174 507.746 752.687 503.674Z" fill="#FCD26B" stroke="#231F20" stroke-miterlimit="10.0003" stroke-linecap="round" stroke-linejoin="round"/>
<path d="M732.688 200.601C733.138 200.591 733.648 200.731 734.078 200.851C736.528 201.521 738.908 202.021 741.458 202.151C743.858 202.271 746.288 202.301 748.688 202.201C749.788 202.161 750.968 202.091 752.028 201.761C752.698 201.551 753.428 201.401 754.088 201.171C754.488 201.021 754.918 200.631 755.348 200.601C756.128 200.551 756.768 201.631 757.348 202.151C758.698 203.371 760.078 204.531 761.398 205.781C762.148 206.491 762.438 206.811 761.988 207.851C761.158 209.801 759.868 211.541 758.978 213.461C758.048 215.461 756.878 217.071 755.638 218.841C754.818 220.011 753.968 221.141 752.968 222.131C752.178 222.921 751.788 223.261 750.658 223.491C748.718 223.891 746.788 224.021 744.818 223.981C742.838 223.951 740.818 224.031 738.848 223.761C737.998 223.641 737.088 223.511 736.368 222.981C734.548 221.631 733.138 219.931 731.968 217.921C730.298 215.061 728.458 212.221 727.088 209.191C726.768 208.481 726.258 207.681 726.578 206.851C727.108 205.531 728.648 204.471 729.608 203.531C730.328 202.831 731.048 202.161 731.758 201.441C732.058 201.141 732.368 200.671 732.788 200.541L732.688 200.601Z" fill="#231F20"/>
<path d="M697.245 166.861C691.725 177.651 675.665 179.151 664.525 181.821C656.505 183.741 648.485 185.661 640.475 187.581C638.615 188.021 636.955 186.401 637.505 184.671C638.485 181.591 638.895 176.861 641.915 174.851C645.665 172.351 655.835 171.141 660.525 170.191C666.925 168.891 673.485 167.871 679.895 166.811C684.565 166.041 693.015 164.481 697.245 166.861Z" fill="#D1C8C1" stroke="#231F20" stroke-miterlimit="10" stroke-linecap="round" stroke-linejoin="round"/>
<path d="M654.556 173.402L649.376 175.272C648.386 175.632 647.306 175.112 646.946 174.122C646.586 173.132 647.106 172.042 648.086 171.682L653.266 169.812C654.256 169.452 655.336 169.972 655.696 170.962C656.046 171.952 655.536 173.052 654.556 173.402Z" fill="#FCD26B" stroke="#231F20" stroke-miterlimit="10" stroke-linecap="round" stroke-linejoin="round"/>
<path d="M663.217 171.972L657.387 174.082C656.397 174.442 655.317 173.922 654.957 172.932L654.857 172.662C654.497 171.672 655.017 170.582 655.997 170.222L661.827 168.112C662.817 167.752 663.897 168.272 664.257 169.262L664.357 169.532C664.717 170.522 664.207 171.612 663.217 171.972Z" fill="#FCD26B" stroke="#231F20" stroke-miterlimit="10" stroke-linecap="round" stroke-linejoin="round"/>
<path d="M672.316 170.641L665.816 172.991C664.826 173.351 663.746 172.831 663.386 171.841L663.196 171.301C662.836 170.311 663.356 169.221 664.336 168.861L670.836 166.511C671.826 166.151 672.906 166.671 673.266 167.661L673.456 168.201C673.816 169.191 673.306 170.281 672.316 170.641Z" fill="#FCD26B" stroke="#231F20" stroke-miterlimit="10" stroke-linecap="round" stroke-linejoin="round"/>
<path d="M681.805 169.192L675.305 171.542C674.315 171.902 673.235 171.382 672.875 170.392L672.685 169.852C672.325 168.862 672.845 167.772 673.825 167.412L680.325 165.062C681.315 164.702 682.395 165.222 682.755 166.212L682.945 166.752C683.305 167.742 682.795 168.832 681.805 169.192Z" fill="#FCD26B" stroke="#231F20" stroke-miterlimit="10" stroke-linecap="round" stroke-linejoin="round"/>
<path d="M709.818 223.741C710.118 223.691 710.428 223.601 710.758 223.441C712.988 222.401 714.358 219.301 715.748 217.151C720.548 209.711 724.918 203.041 731.118 196.951C733.038 195.071 735.318 194.781 734.818 191.161C734.398 188.071 730.338 185.831 728.318 184.501C723.098 181.061 717.848 176.001 714.448 170.191C712.718 167.241 711.358 158.341 707.288 158.611C705.778 158.711 702.978 161.221 701.858 162.311C697.978 166.051 699.948 173.061 700.368 178.151C700.998 185.791 701.988 193.381 702.848 200.991C703.278 204.861 703.768 224.661 709.818 223.741Z" fill="white" stroke="#231F20" stroke-miterlimit="10" stroke-linecap="round" stroke-linejoin="round"/>
<path d="M707.998 191.982C709.598 200.662 714.358 209.682 716.928 218.082C720.538 229.892 735.468 262.962 736.888 266.122C738.878 270.572 745.878 288.062 738.728 289.852C733.858 291.072 726.168 283.582 722.378 280.912C716.618 276.842 711.118 272.362 705.948 267.502C695.978 258.152 687.198 247.422 679.918 235.662C678.958 234.102 677.988 232.462 677.768 230.612C677.198 225.992 683.378 223.942 686.408 221.832C690.668 218.862 694.918 215.892 699.178 212.932C700.058 212.322 701.058 211.222 700.498 210.282C700.158 209.712 699.418 209.602 698.778 209.552C694.308 209.212 674.738 210.112 673.178 206.182C671.528 202.012 678.448 194.482 680.048 191.002C683.508 183.492 688.598 177.012 693.088 170.112C695.358 166.622 697.418 162.572 700.888 160.092C701.818 159.432 702.988 159.002 704.058 158.612C705.038 158.252 707.808 156.992 708.798 157.632C709.798 158.272 709.228 159.732 708.458 160.432C707.688 161.142 706.668 161.532 705.948 162.302C704.608 163.742 704.658 166.012 704.828 168.012C705.488 176.072 706.538 184.062 707.998 191.982Z" fill="#D1C8C1" stroke="#231F20" stroke-miterlimit="10" stroke-linecap="round" stroke-linejoin="round"/>
<path d="M694.097 191.862C692.157 196.032 689.497 202.582 688.567 204.902C688.367 205.412 687.827 205.712 687.257 205.622C684.897 205.272 681.507 204.522 678.927 203.832C678.177 203.632 677.767 202.832 678.077 202.152C680.337 197.222 681.667 193.872 684.087 189.132C684.337 188.652 684.887 188.392 685.437 188.512C687.047 188.852 690.447 189.582 693.187 190.162C693.977 190.342 694.427 191.162 694.097 191.862Z" fill="#FCD26B" stroke="#231F20" stroke-miterlimit="10" stroke-linecap="round" stroke-linejoin="round"/>
<path d="M750.815 189.55C750.785 188.55 750.995 187.68 751.495 186.98C753.675 183.96 758.535 183.32 761.345 181.42C769.815 175.69 773.695 163.94 779.885 155.27C781.745 152.66 781.985 152.73 783.685 155.06C785.595 157.67 788.225 160.73 788.355 164.55C788.495 168.46 786.985 173.4 786.115 177.15C784.425 184.47 782.245 191.6 779.925 198.63C776.605 208.65 771.475 217.94 763.055 209.53C760.535 207.03 751.005 195.85 750.815 189.55Z" fill="white" stroke="#231F20" stroke-miterlimit="10" stroke-linecap="round" stroke-linejoin="round"/>
<path d="M793.156 167.12C794.886 162.43 817.496 163.72 819.986 163.77C829.026 163.94 838.066 164.1 847.116 164.27C848.186 164.29 849.146 164.8 849.616 165.61L853.826 172.78C854.846 174.51 853.216 176.57 850.926 176.45C843.126 176.04 835.316 175.64 827.506 175.23C818.996 174.79 800.856 176.46 794.596 170.39C793.226 169.06 792.836 167.99 793.156 167.12Z" fill="#D1C8C1" stroke="#231F20" stroke-miterlimit="10" stroke-linecap="round" stroke-linejoin="round"/>
<path d="M835.005 166.52L840.415 167.53C841.445 167.72 842.435 167.04 842.625 166C842.815 164.97 842.135 163.97 841.105 163.78L835.695 162.77C834.665 162.58 833.675 163.26 833.485 164.3C833.295 165.33 833.975 166.33 835.005 166.52Z" fill="#FCD26B" stroke="#231F20" stroke-miterlimit="10" stroke-linecap="round" stroke-linejoin="round"/>
<path d="M826.226 166.511L832.326 167.641C833.356 167.831 834.346 167.151 834.536 166.111L834.586 165.831C834.776 164.801 834.096 163.801 833.066 163.611L826.966 162.481C825.936 162.291 824.946 162.971 824.756 164.011L824.706 164.291C824.506 165.321 825.196 166.321 826.226 166.511Z" fill="#FCD26B" stroke="#231F20" stroke-miterlimit="10" stroke-linecap="round" stroke-linejoin="round"/>
<path d="M817.028 166.67L823.828 167.93C824.858 168.12 825.848 167.44 826.038 166.4L826.138 165.83C826.328 164.8 825.648 163.8 824.618 163.61L817.818 162.35C816.788 162.16 815.798 162.84 815.608 163.88L815.508 164.45C815.318 165.49 815.998 166.48 817.028 166.67Z" fill="#FCD26B" stroke="#231F20" stroke-miterlimit="10" stroke-linecap="round" stroke-linejoin="round"/>
<path d="M807.427 166.78L814.227 168.04C815.257 168.23 816.247 167.55 816.437 166.51L816.537 165.94C816.727 164.91 816.047 163.91 815.017 163.72L808.217 162.46C807.187 162.27 806.197 162.95 806.007 163.99L805.907 164.56C805.717 165.6 806.397 166.59 807.427 166.78Z" fill="#FCD26B" stroke="#231F20" stroke-miterlimit="10" stroke-linecap="round" stroke-linejoin="round"/>
<path d="M814.406 194.44C813.096 190.78 811.826 187.12 809.996 183.74C807.016 178.22 804.946 170.76 800.446 166.24C798.496 163.72 796.356 161.44 793.996 159.26C793.636 158.92 793.156 158.67 792.736 158.4C791.846 157.81 790.806 157.4 789.766 157.08C789.076 156.87 787.886 156.51 787.236 156.96C786.816 157.26 785.726 157.57 785.886 158.08C785.886 158.08 787.276 159.96 787.376 160.66C787.456 161.24 787.056 165.11 786.756 166.62C785.556 172.65 785.036 180.55 783.966 185.68C781.466 197.63 778.606 208.98 773.846 220.31C768.606 232.81 762.206 244.81 755.356 256.48C751.326 263.35 747.616 270.85 743.416 277.49C741.646 280.28 732.066 296.75 729.066 307.52C758.156 287.29 785.546 264.26 812.566 241.32C816.056 238.36 819.876 234.05 818.196 229.78C817.436 227.85 815.696 226.51 814.026 225.27C808.486 221.16 799.056 216.61 794.976 211.08C791.696 206.63 795.256 206.19 799.686 206.19C803.696 206.23 807.706 206.26 811.726 206.3C813.946 206.32 816.776 205.91 817.346 203.75C817.636 202.66 817.186 201.53 816.746 200.5C815.876 198.52 815.136 196.48 814.406 194.44Z" fill="#D1C8C1" stroke="#231F20" stroke-miterlimit="10" stroke-linecap="round" stroke-linejoin="round"/>
<path d="M797.765 187.831C799.215 192.441 801.105 199.631 801.755 202.181C801.895 202.741 802.395 203.121 802.975 203.121C805.365 203.101 808.825 202.801 811.475 202.451C812.245 202.351 812.745 201.571 812.515 200.831C810.835 195.381 809.905 191.711 808.035 186.441C807.845 185.911 807.325 185.561 806.765 185.601C805.125 185.731 801.655 185.991 798.865 186.201C798.055 186.271 797.515 187.061 797.765 187.831Z" fill="#FCD26B" stroke="#231F20" stroke-miterlimit="10" stroke-linecap="round" stroke-linejoin="round"/>
<path d="M839.848 391.131C837.218 392.821 775.158 394.671 774.398 390.921C772.998 384.011 772.928 329.861 772.398 311.641L777.398 305.351C793.948 285.681 818.418 290.451 836.328 299.801C840.398 301.921 843.298 302.831 843.178 308.291C843.028 315.391 843.488 322.811 843.058 329.961C842.518 339.021 841.918 389.791 839.848 391.131Z" fill="#D1C8C1" stroke="#231F20" stroke-miterlimit="10" stroke-linecap="round" stroke-linejoin="round"/>
<path d="M783.496 290.321C793.366 290.041 806.356 290.061 812.476 290.181C815.846 290.251 843.846 288.861 844.046 294.641C844.196 299.141 844.706 325.471 843.136 326.921C841.256 328.651 835.756 325.491 833.876 324.801C826.046 321.921 819.356 322.461 811.926 325.091C801.786 328.681 792.736 320.251 782.816 323.931C778.786 325.431 773.736 327.501 772.976 321.241C772.146 314.471 772.096 300.001 772.406 293.061C772.556 289.501 778.726 290.461 783.496 290.321Z" fill="#D1C8C1" stroke="#231F20" stroke-miterlimit="10" stroke-linecap="round" stroke-linejoin="round"/>
<path d="M807.876 316.011C807.696 313.441 808.306 310.721 808.616 308.191" stroke="#231F20" stroke-miterlimit="10" stroke-linecap="round" stroke-linejoin="round"/>
<path d="M807.444 320.831C809.582 320.831 811.314 319.009 811.314 316.761C811.314 314.514 809.582 312.691 807.444 312.691C805.307 312.691 803.574 314.514 803.574 316.761C803.574 319.009 805.307 320.831 807.444 320.831Z" fill="#D1C8C1" stroke="#231F20" stroke-miterlimit="10" stroke-linecap="round" stroke-linejoin="round"/>
<path d="M641.529 390.32C644.309 392.01 710.009 393.86 710.809 390.11C712.289 383.2 712.359 329.05 712.929 310.83L707.639 304.54C690.119 284.87 664.219 289.64 645.259 298.99C640.959 301.11 637.879 302.02 638.009 307.48C638.169 314.58 637.679 322 638.129 329.15C638.699 338.22 639.329 388.98 641.529 390.32Z" fill="#D1C8C1" stroke="#231F20" stroke-miterlimit="10" stroke-linecap="round" stroke-linejoin="round"/>
<path d="M701.179 289.52C690.729 289.24 676.979 289.26 670.499 289.38C666.929 289.45 637.289 288.06 637.079 293.84C636.919 298.34 636.379 324.67 638.049 326.12C640.039 327.85 645.869 324.69 647.849 324C656.139 321.12 663.219 321.66 671.089 324.29C681.819 327.88 691.409 319.45 701.909 323.13C706.179 324.63 711.519 326.7 712.329 320.44C713.199 313.67 713.259 299.2 712.929 292.26C712.759 288.7 706.229 289.65 701.179 289.52Z" fill="#D1C8C1" stroke="#231F20" stroke-miterlimit="10" stroke-linecap="round" stroke-linejoin="round"/>
<path d="M676.398 315.12C677.458 312.78 677.778 310.01 678.338 307.52" stroke="#231F20" stroke-miterlimit="10" stroke-linecap="round" stroke-linejoin="round"/>
<path d="M676.577 319.47C678.841 319.47 680.677 317.648 680.677 315.4C680.677 313.152 678.841 311.33 676.577 311.33C674.312 311.33 672.477 313.152 672.477 315.4C672.477 317.648 674.312 319.47 676.577 319.47Z" fill="#D1C8C1" stroke="#231F20" stroke-miterlimit="10" stroke-linecap="round" stroke-linejoin="round"/>
<path d="M866.977 546.99C864.057 549.43 794.887 572.23 790.447 569.58C783.337 565.34 782.777 496.79 779.277 474.96L779.377 468.86C796.387 442.62 826.827 444.53 850.027 452.99C855.297 454.91 858.967 455.54 859.667 462.14C860.587 470.7 862.317 479.55 862.927 488.23C863.707 499.19 869.287 545.05 866.977 546.99Z" fill="#D1C8C1" stroke="#231F20" stroke-miterlimit="10" stroke-linecap="round" stroke-linejoin="round"/>
<path d="M779.008 451.729C788.258 446.509 857.778 441.219 858.948 448.289C859.818 453.549 864.468 484.429 862.788 486.369C860.768 488.699 840.638 494.789 823.378 496.389C813.858 497.279 790.038 492.459 782.898 491.839C781.338 491.709 779.838 491.379 779.628 489.799C778.138 478.609 777.688 452.479 779.008 451.729Z" fill="#D1C8C1" stroke="#231F20" stroke-miterlimit="10" stroke-linecap="round" stroke-linejoin="round"/>
<path d="M820.969 483.9C820.349 480.9 820.679 477.62 820.669 474.6" stroke="#231F20" stroke-miterlimit="10" stroke-linecap="round" stroke-linejoin="round"/>
<path d="M821.644 488.585C824.222 488.128 825.934 485.633 825.469 483.011C825.004 480.39 822.537 478.636 819.96 479.094C817.382 479.551 815.67 482.047 816.135 484.668C816.6 487.289 819.067 489.043 821.644 488.585Z" fill="#D1C8C1" stroke="#231F20" stroke-miterlimit="9.9998" stroke-linecap="round" stroke-linejoin="round"/>
<path d="M630.917 551.591C633.897 553.931 708.547 565.51 712.927 562.83C719.937 558.53 716.277 497.4 719.307 475.92L719.077 469.93C701.507 444.5 671.117 446.94 648.117 455.67C642.897 457.65 639.237 458.34 638.677 464.82C637.937 473.23 636.407 481.95 635.987 490.47C635.447 501.26 628.567 549.741 630.917 551.591Z" fill="#D1C8C1" stroke="#231F20" stroke-miterlimit="10" stroke-linecap="round" stroke-linejoin="round"/>
<path d="M719.076 453.121C709.716 448.171 640.116 444.271 639.096 451.231C638.336 456.411 634.366 486.781 636.096 488.661C638.166 490.911 658.416 496.511 675.706 497.761C685.246 498.451 708.946 493.281 716.066 492.551C717.626 492.391 719.116 492.041 719.286 490.491C720.526 479.471 720.406 453.831 719.076 453.121Z" fill="#D1C8C1" stroke="#231F20" stroke-miterlimit="10" stroke-linecap="round" stroke-linejoin="round"/>
<path d="M677.828 485.46C678.378 482.51 677.978 479.29 677.918 476.33" stroke="#231F20" stroke-miterlimit="10" stroke-linecap="round" stroke-linejoin="round"/>
<path d="M680.651 489.33C682.821 487.866 683.395 484.924 681.934 482.758C680.472 480.593 677.529 480.025 675.359 481.489C673.189 482.953 672.614 485.896 674.076 488.061C675.537 490.227 678.481 490.795 680.651 489.33Z" fill="#D1C8C1" stroke="#231F20" stroke-miterlimit="10" stroke-linecap="round" stroke-linejoin="round"/>
<path d="M845.375 265.041C846.675 252.701 851.795 240.801 859.855 231.361" stroke="#231F20" stroke-miterlimit="10" stroke-linecap="round" stroke-linejoin="round"/>
<path d="M631.727 247.72C641.017 239.8 651.247 232.97 662.137 227.42" stroke="#231F20" stroke-miterlimit="10" stroke-linecap="round" stroke-linejoin="round"/>
<path d="M798.119 486.1C797.039 486.07 793.889 489.92 793.069 490.71C791.439 492.28 789.849 493.9 788.299 495.55C785.089 498.96 782.039 502.5 779.059 506.11C778.719 506.11 776.079 509.4 775.529 509.93C773.879 511.52 772.449 513.36 770.959 515.1C768.559 517.91 766.149 520.73 763.369 523.16C761.729 524.59 758.159 526.44 757.449 528.61C757.299 529.06 757.279 529.54 757.259 530.01C757.159 532.44 756.589 535.69 757.549 537.92C758.479 540.1 760.859 541.48 762.249 543.34C764.259 546.03 764.669 549.61 764.949 552.86C765.229 556.2 765.389 559.25 766.279 562.56C766.719 564.18 767.329 565.92 768.759 566.81C770.619 567.97 775.199 566.27 777.289 565.93C777.669 565.87 778.059 565.8 778.409 565.63C779.599 565.03 779.829 563.44 780.709 562.45C782.669 560.26 786.849 561.32 789.489 560.77C792.339 560.17 794.299 557.02 797.299 557.07C798.369 557.09 799.379 557.58 800.449 557.65C803.749 557.89 804.439 555 807.279 554.52C807.919 554.41 808.569 554.44 809.219 554.38C812.129 554.11 814.589 551.77 816.219 549.5C819.909 544.35 820.599 537.39 820.599 531.24C820.599 527.21 820.809 523.2 820.699 519.12C820.689 518.65 820.679 518.16 820.839 517.72C820.999 517.27 821.329 516.9 821.649 516.54C825.089 512.68 828.239 508.56 831.059 504.22C835.349 497.62 834.369 491.82 827.749 487.37C819.019 481.5 805.479 486.42 795.799 486.42C795.789 486.42 798.119 486.1 798.119 486.1Z" fill="#EB978D" stroke="#231F20" stroke-miterlimit="10" stroke-linecap="round" stroke-linejoin="round"/>
<path d="M767.507 535.121C766.327 541.451 765.478 544.031 764.938 552.941" stroke="#231F20" stroke-miterlimit="10" stroke-linecap="round" stroke-linejoin="round"/>
<path d="M782.219 498.901C795.979 504.991 813.869 506.421 828.299 520.441C828.299 520.441 833.819 516.121 835.609 514.151C837.989 511.521 840.529 507.941 839.039 504.711C838.249 502.991 836.499 501.971 834.849 501.081C824.609 495.551 813.859 491.031 802.779 487.561C798.279 486.151 794.809 484.201 791.049 486.621C789.699 487.471 785.519 492.881 782.219 498.901Z" fill="white" stroke="#231F20" stroke-miterlimit="10" stroke-linecap="round" stroke-linejoin="round"/>
<path d="M910.509 375.761C910.259 377.051 909.959 378.341 909.629 379.621C908.209 385.141 906.099 390.461 903.989 395.761C898.909 408.531 893.829 421.291 888.759 434.061C883.359 447.641 877.939 461.251 871.149 474.191C866.529 482.981 861.279 491.421 856.499 500.121C853.249 506.041 849.209 522.681 842.259 524.771C842.259 524.771 837.669 519.311 834.629 516.361C825.289 507.301 813.739 500.611 801.329 496.981C793.139 494.581 782.219 489.301 782.219 489.301C792.829 471.191 801.329 451.871 809.469 432.561C813.599 422.771 817.589 412.921 821.589 403.081C823.249 399.001 824.799 394.811 826.509 390.791C828.099 387.051 832.039 382.151 830.889 377.881C830.549 376.621 829.829 375.091 830.759 374.171C831.149 373.781 831.729 373.651 832.199 373.351C834.419 371.921 832.569 368.421 833.199 365.861C833.409 365.001 833.919 364.241 834.389 363.481C841.619 351.781 842.079 334.211 843.089 320.801C843.719 312.421 843.019 304.011 841.899 295.701C840.869 288.041 841.479 280.561 841.799 272.841C841.939 269.611 842.069 266.361 841.649 263.151C841.249 260.151 840.379 257.241 839.859 254.261C839.019 249.391 839.149 244.401 839.419 239.461C839.789 232.841 843.139 170.961 858.329 176.641C860.579 177.481 873.179 186.501 881.969 205.661C893.699 231.241 900.589 259.201 904.809 286.941C907.049 301.651 907.619 316.601 909.639 331.411C911.609 346.061 913.389 361.121 910.509 375.761Z" fill="#D1C8C1" stroke="#231F20" stroke-miterlimit="10" stroke-linecap="round" stroke-linejoin="round"/>
<path d="M836.918 374.061C846.088 375.671 854.968 378.971 862.958 383.741" stroke="#231F20" stroke-miterlimit="10" stroke-linecap="round" stroke-linejoin="round"/>
<path d="M838.777 369.652C852.747 365.872 867.527 367.232 881.937 368.632" stroke="#231F20" stroke-miterlimit="10" stroke-linecap="round" stroke-linejoin="round"/>
</g>
</g>
<defs>
<clipPath id="clip0_16_1498">
<rect width="1080" height="1080" fill="white" transform="translate(0 -5)"/>
</clipPath>
<clipPath id="clip1_16_1498">
<rect width="335" height="1080" fill="white" transform="translate(579)"/>
</clipPath>
</defs>
</svg>
