<svg width="1080" height="1075" viewBox="0 0 1080 1075" fill="none" xmlns="http://www.w3.org/2000/svg">
<g clip-path="url(#clip0_16_1498)">
<path d="M850.78 1067.73C847.84 1071.79 842.26 1072.73 837.27 1073.21C821.29 1074.74 805.18 1074.91 789.16 1073.73C775.35 1072.71 759.73 1074.72 757.12 1058.02C755.86 1049.89 757.72 1040.92 758.33 1032.75C758.56 1029.69 758.82 1026.53 759.22 1023.43C760.14 1016.4 761.78 1009.7 765.4 1005.27C769.47 1000.28 775.08 999.47 780.32 998.86C790.61 997.66 800.9 996.46 811.19 995.26C819.15 994.34 828.38 994.14 833.62 1003.19C837.55 1009.99 837.89 1018.21 838.69 1025.99C838.86 1027.59 839.04 1029.17 839.28 1030.71C840.99 1041.65 847.14 1046.13 851.33 1055.57C853.05 1059.45 853.27 1064.29 850.78 1067.73Z" fill="#414042" stroke="#231F20" stroke-miterlimit="10" stroke-linecap="round" stroke-linejoin="round"/>
<g opacity="0.3">
<path d="M838.689 1025.99C828.629 1025.47 818.549 1026.2 808.509 1026.77C798.229 1027.37 787.879 1027.89 777.609 1026.76C771.389 1026.07 765.369 1024.04 759.219 1023.43C760.139 1016.4 761.779 1009.7 765.399 1005.27C769.469 1000.28 775.079 999.47 780.319 998.86C790.609 997.66 800.899 996.46 811.189 995.26C819.149 994.34 828.379 994.14 833.619 1003.19C837.549 1009.99 837.889 1018.21 838.689 1025.99Z" fill="#231F20"/>
</g>
<path d="M787.16 1042.7C790.03 1042.17 792.47 1040.37 795.31 1039.3C802.27 1036.69 809.82 1036.82 817.09 1036.82C825.42 1036.82 834.07 1037.63 841.84 1040.35" stroke="white" stroke-miterlimit="10" stroke-linecap="round" stroke-linejoin="round"/>
<path d="M725.732 1015.7C723.982 1032.14 706.962 1050.69 690.672 1046.85C684.082 1045.29 678.202 1041.35 672.922 1036.88C665.292 1030.43 658.442 1022.43 655.182 1012.66C652.332 1004.1 653.902 996.071 656.062 988.021C657.412 982.971 658.992 977.901 659.842 972.691C660.862 966.451 660.582 953.301 663.852 948.141C669.452 939.301 691.882 942.891 702.242 943.881C706.302 944.271 714.102 944.821 716.812 949.841C722.422 960.261 720.032 971.991 720.722 983.321C720.822 984.991 721.042 986.691 721.352 988.401C722.932 997.441 726.662 1006.94 725.732 1015.7Z" fill="#414042" stroke="#231F20" stroke-miterlimit="10" stroke-linecap="round" stroke-linejoin="round"/>
<g opacity="0.3">
<path d="M721.353 988.401C721.253 988.541 721.143 988.691 721.033 988.831C715.203 996.311 706.753 1001.89 697.403 1003.5C691.283 1004.55 685.012 1003.92 678.842 1003.24C674.112 1002.72 669.172 1002.1 665.272 999.391C662.472 997.451 660.453 994.601 658.543 991.781C657.703 990.541 656.882 989.291 656.062 988.021C657.413 982.971 658.992 977.901 659.842 972.691C660.862 966.451 660.583 953.301 663.853 948.141C669.453 939.301 691.883 942.891 702.243 943.881C706.303 944.271 714.102 944.821 716.812 949.841C722.423 960.261 720.033 971.991 720.723 983.321C720.823 984.991 721.043 986.691 721.353 988.401Z" fill="#231F20"/>
</g>
<path d="M637.96 787.639C638.8 824.049 641.1 860.409 643.14 896.779C644.28 916.969 641.89 959.609 660.35 971.839C667.36 976.479 676.23 977.009 684.63 977.379C704.19 978.259 724.06 974.589 725.72 952.089C727.63 926.339 726.61 900.799 729.63 875.089C732.8 848.019 737.739 821.059 737.619 793.709C737.509 768.879 739.11 743.999 740.89 719.119C741.27 713.769 741.659 708.429 742.039 703.089C743.359 684.689 745.74 666.389 747.97 648.079C748.45 644.129 749.06 640.209 749.52 636.369C749.63 635.509 749.73 634.649 749.81 633.789C749.85 633.449 749.88 633.109 749.91 632.769C749.96 632.289 749.99 631.809 750.03 631.339C750.94 619.639 749.359 608.889 737.289 600.519C742.729 603.459 746.39 607.259 748.85 611.599C751.09 615.569 752.329 619.989 752.979 624.649C753.929 631.339 753.68 638.529 753.53 645.539C753.17 662.259 753.82 679.079 754.08 695.809C754.52 723.719 754.919 751.679 756.509 779.549C758.349 811.849 761.719 844.099 760.399 876.259C758.939 911.589 757.98 946.949 757.5 982.309C757.4 990.049 756.69 1004.22 756.69 1004.22C755.97 1003.64 758.199 1006.5 778.729 1007.92C801.579 1009.5 824.439 1011.08 847.299 1012.66C851.549 889.599 855.08 765.229 864.04 642.729C865.31 625.199 866.299 608.189 866.529 591.059V590.769C866.709 577.199 866.399 563.539 865.399 549.479C864.859 541.899 865.21 532.949 865.6 523.589C865.88 516.869 866.189 509.939 866.209 503.139C866.239 489.309 865.05 476.039 859.98 466.359C858.61 463.739 856.93 461.339 855.01 459.169C840.95 443.189 814.759 438.959 796.139 434.619C770.729 428.709 744.54 430.989 718.89 427.759C692.39 424.399 648.9 414.239 641.32 457.149C639.3 468.579 638.49 480.849 637.98 492.969C637.75 498.499 637.59 503.999 637.4 509.359C637.39 509.649 637.38 509.939 637.37 510.229C636.66 530.019 636.63 549.879 635.86 569.609C635.53 578.289 634.5 586.779 633.86 595.369C633.81 595.919 633.77 596.469 633.73 597.019C633.59 599.009 633.48 601.029 633.4 603.039C630.99 664.829 636.54 725.949 637.96 787.639Z" fill="#D1C8C1" stroke="#231F20" stroke-miterlimit="10" stroke-linecap="round" stroke-linejoin="round"/>
<path opacity="0.3" d="M633.848 595.339C644.078 602.339 656.118 606.779 667.958 610.789C681.518 615.379 695.198 619.629 708.908 623.699C720.698 627.219 730.648 630.249 735.348 642.839C738.058 650.119 738.378 658.039 738.658 665.799C739.058 676.679 739.448 687.559 739.838 698.439C740.098 705.329 740.348 712.229 740.888 719.119C741.268 713.769 741.658 708.429 742.038 703.089C743.358 684.689 745.738 666.389 747.968 648.079C748.448 644.129 749.058 640.209 749.518 636.369C749.628 635.509 749.728 634.649 749.808 633.789C749.848 633.449 749.878 633.109 749.908 632.769C749.958 632.289 749.988 631.809 750.028 631.339C750.938 619.639 749.358 608.889 737.288 600.519C742.728 603.459 746.388 607.259 748.848 611.599C751.088 615.569 752.328 619.989 752.978 624.649C752.968 624.499 752.958 624.349 752.938 624.199C752.488 620.159 750.228 614.859 751.658 610.969C752.878 607.639 758.388 601.379 762.298 603.489C764.078 604.449 765.488 606.139 767.448 606.659C770.098 607.369 772.728 605.709 775.168 604.469C779.308 602.379 783.878 601.329 788.408 600.349C804.818 596.749 820.478 593.009 837.218 592.699C839.518 592.659 866.478 592.899 866.528 590.789C866.708 577.219 866.398 563.559 865.398 549.499C864.858 541.919 865.208 532.969 865.598 523.609C865.878 516.889 866.188 509.959 866.208 503.159C865.758 502.999 865.308 502.839 864.858 502.689C833.958 492.159 800.598 492.209 767.948 492.369C724.618 492.579 681.298 492.779 637.978 492.979C637.748 498.509 637.588 504.009 637.398 509.369C637.388 509.659 637.378 509.949 637.368 510.239C636.658 530.029 636.628 549.889 635.858 569.619C635.528 578.259 634.488 586.749 633.848 595.339Z" fill="#231F20"/>
<path d="M720.748 843.369C706.608 843.369 689.258 845.129 675.648 841.219C694.058 841.219 716.338 842.109 728.268 826.189" stroke="#231F20" stroke-miterlimit="10" stroke-linecap="round" stroke-linejoin="round"/>
<path d="M751.379 617.379C759.089 635.329 765.619 644.689 779.869 657.349" stroke="#231F20" stroke-miterlimit="10" stroke-linecap="round" stroke-linejoin="round"/>
<path d="M887.201 503.811C887.191 513.551 887.181 523.301 887.171 533.041C887.161 540.531 887.121 548.301 884.661 555.471C881.901 563.521 876.431 563.921 868.331 563.621C865.701 563.521 863.091 563.161 860.461 563.171C856.641 563.201 852.831 564.051 849.361 565.651C848.231 566.171 847.021 566.791 845.801 566.551C844.371 566.271 843.391 564.861 843.151 563.431C842.601 560.161 844.141 555.971 841.441 553.211C840.531 552.291 839.261 551.851 838.121 551.241C831.991 547.971 830.211 538.671 834.711 533.381C836.851 530.861 839.951 529.361 842.331 527.081C847.051 522.551 848.371 515.651 850.031 509.311C852.341 500.461 855.761 491.901 860.171 483.881C866.821 483.311 873.601 484.321 879.791 486.811C882.411 487.861 885.001 489.241 886.751 491.461C888.501 493.681 889.241 496.871 887.881 499.341L887.201 503.811Z" fill="#EB978D" stroke="#231F20" stroke-miterlimit="10" stroke-linecap="round" stroke-linejoin="round"/>
<path d="M893.581 503.76C892.861 508.72 892.141 513.69 891.421 518.65C891.251 519.79 890.891 521.16 889.781 521.45C889.211 521.6 888.611 521.39 888.051 521.19C877.251 517.28 866.291 513.82 855.201 510.82C852.891 510.2 850.231 509.29 849.471 507.02C849.071 505.83 849.311 504.54 849.561 503.31C850.641 497.85 851.721 492.39 852.801 486.94C854.741 486.87 856.591 487.65 858.371 488.42C865.141 491.35 871.451 497.4 878.811 496.89L893.581 503.76Z" fill="white" stroke="#231F20" stroke-miterlimit="10" stroke-linecap="round" stroke-linejoin="round"/>
<path d="M835.661 184.36C835.841 189.63 837.811 194.66 838.451 199.87C839.671 209.82 841.501 219.7 842.301 229.68C842.861 236.66 843.211 243.85 843.381 251.07C843.651 261.81 843.521 272.61 843.101 282.88C842.251 303.49 846.161 324.15 848.061 344.81C849.151 356.7 849.871 368.63 851.481 380.46C852.481 387.8 855.191 395.02 856.901 402.18C857.401 404.26 857.811 406.35 858.081 408.41C858.491 411.66 858.291 415.19 857.771 418.82C856.641 426.61 854.031 434.88 852.811 441.75C850.071 457.07 844.271 474.31 844.181 489.8C844.171 490.67 844.211 491.56 844.561 492.35C845.211 493.84 846.811 494.63 848.281 495.32C862.061 501.7 875.851 508.09 889.631 514.47C891.701 515.43 893.921 516.41 896.171 516.06C902.771 474.69 907.401 432.62 911.581 390.89C913.381 372.93 915.991 357.05 911.261 339.77C905.981 320.42 903.041 300.21 898.361 280.68C894.891 266.18 890.871 251.82 886.621 237.54C882.611 224.05 877.101 204.78 870.641 192.28C865.201 181.77 858.431 176.88 847.601 173.74C840.921 171.79 835.411 177.03 835.661 184.36Z" fill="#D1C8C1" stroke="#231F20" stroke-miterlimit="10" stroke-linecap="round" stroke-linejoin="round"/>
<path opacity="0.3" d="M848.073 344.801C849.163 356.691 849.883 368.621 851.493 380.451C852.493 387.791 855.203 395.011 856.913 402.171C857.413 404.251 857.823 406.341 858.093 408.401C858.523 411.781 857.903 415.281 858.243 418.541C867.843 418.981 865.913 394.691 866.253 388.901C867.223 372.271 870.433 359.351 871.313 342.761C872.063 328.611 867.113 310.711 863.493 297.111C861.063 288.001 859.413 277.141 855.133 268.701C852.283 263.081 843.583 257.731 843.413 251.051C843.683 261.791 843.553 272.591 843.133 282.861C842.263 303.491 846.163 324.141 848.073 344.801Z" fill="#231F20"/>
<path d="M893.741 344.28C887.781 343.97 881.761 343.67 875.891 344.72C872.961 345.24 870.111 346.1 867.261 346.95C863.641 348.04 860.011 349.12 856.391 350.21" stroke="#231F20" stroke-miterlimit="10" stroke-linecap="round" stroke-linejoin="round"/>
<path d="M884.631 335.721C879.331 337.221 874.241 339.461 869.551 342.341" stroke="#231F20" stroke-miterlimit="10" stroke-linecap="round" stroke-linejoin="round"/>
<path d="M693.502 110.839C692.772 109.609 692.132 108.319 691.662 106.949C690.322 103.009 690.032 98.6894 689.152 94.5594C688.492 91.4594 684.122 78.8594 688.082 76.8894C690.982 75.4494 694.202 81.4394 695.212 83.2394C695.812 84.3094 696.132 86.0594 697.212 86.6394C698.602 83.6194 696.242 80.1194 695.512 77.2294C695.112 75.6494 695.432 74.4994 695.532 72.9494C695.652 70.9894 695.282 68.9294 695.172 66.9694C694.872 61.6694 694.152 56.3494 695.792 51.1694C699.362 39.9294 710.432 34.9994 721.362 32.2894C730.362 30.0594 740.002 30.4194 749.162 29.7894C756.352 29.2894 764.932 29.1594 771.942 31.2694C779.502 33.5494 787.272 38.8694 792.942 44.4594C798.402 49.8294 799.562 57.7194 799.332 65.0594C799.182 69.9294 798.112 74.8194 796.882 79.5294C796.292 81.7794 794.842 84.2694 795.092 86.6194C795.002 85.7794 796.822 83.1494 797.212 82.3194C798.042 80.5694 798.942 78.5794 800.442 77.2594C801.622 76.2294 804.162 75.2394 805.262 76.9094C806.342 78.5294 805.792 83.1294 805.732 85.0394C805.612 89.1594 804.602 93.5894 803.462 97.5494C802.392 101.259 801.382 106.689 798.842 109.689C796.712 112.209 794.822 113.939 794.292 117.199C793.122 124.369 792.482 128.279 791.312 135.449C790.442 140.789 787.912 142.129 785.242 145.979C782.712 149.629 785.042 154.879 785.762 159.039C789.472 180.469 769.492 187.739 752.702 188.869C739.512 189.749 710.792 189.629 701.772 176.099C698.982 171.909 697.252 166.259 703.532 164.559C708.732 163.149 712.692 164.639 712.632 156.679C712.582 149.499 708.552 149.079 707.272 145.229C705.632 140.249 703.522 134.239 702.732 129.059C702.182 125.469 700.782 121.719 699.712 118.239C698.712 114.989 696.302 115.169 694.522 112.499C694.182 111.939 693.832 111.399 693.502 110.839Z" fill="#EB978D" stroke="#231F20" stroke-miterlimit="10" stroke-linecap="round" stroke-linejoin="round"/>
<path d="M692.841 67.961C693.051 71.331 693.031 74.681 693.871 78.031C694.531 80.671 696.491 82.821 696.961 85.511C697.181 86.761 696.991 91.551 699.291 91.161C700.591 90.941 700.591 87.111 700.841 86.161C701.491 83.651 701.311 81.031 701.651 78.471C702.441 72.431 702.831 66.421 703.421 60.371C703.931 55.081 705.891 50.441 710.661 47.511C719.781 41.911 731.271 40.531 742.101 40.401C753.101 40.271 763.731 40.321 774.341 43.031C780.041 44.491 787.071 46.111 790.361 51.401C792.301 54.521 791.221 57.661 791.561 61.141C791.991 65.551 793.001 69.901 793.031 74.341C793.051 78.161 793.041 81.981 793.031 85.801C793.021 89.311 794.471 89.621 795.481 86.241C796.041 84.381 795.961 82.311 796.621 80.491C797.121 79.091 798.311 78.291 799.011 76.951C800.641 73.821 800.711 69.521 800.861 66.111C801.091 61.031 800.971 55.941 800.951 50.851C800.931 47.631 800.971 45.381 799.221 42.561C797.891 40.421 796.051 38.621 794.581 36.571C791.731 32.581 787.481 29.641 782.941 27.691C775.981 24.701 768.261 23.861 760.671 23.301C746.701 22.261 732.381 22.051 718.991 26.051C706.391 29.811 690.811 39.521 691.591 54.001C691.831 58.361 692.461 62.661 692.801 67.001C692.791 67.341 692.821 67.651 692.841 67.961Z" fill="#231F20"/>
<path opacity="0.3" d="M727.399 161.2C727.479 161.08 727.599 160.96 727.749 160.85C729.459 159.64 734.129 163.08 736.039 163.34C739.399 163.78 742.749 163.47 746.119 163.33C749.409 163.2 752.779 163.52 755.959 162.78C758.419 162.21 761.209 161.71 763.399 160.54C765.579 159.37 769.089 158 768.689 161.93C768.479 164.04 764.609 166.24 762.799 167.03C754.099 170.81 756.699 169.01 747.919 170.99C746.569 171.29 739.089 169.5 737.799 169.01C734.669 167.83 731.219 166.15 728.719 163.95C728.069 163.37 726.779 162.13 727.399 161.2Z" fill="#231F20"/>
<path d="M698.201 96.0508C696.891 104.141 698.421 118.261 703.261 122.571" stroke="#231F20" stroke-miterlimit="10" stroke-linecap="round" stroke-linejoin="round"/>
<path d="M795.36 93.6309C796.37 95.7509 795.53 104.001 795.3 106.331C794.7 112.621 795.28 116.761 790.57 121.301" stroke="#231F20" stroke-miterlimit="10" stroke-linecap="round" stroke-linejoin="round"/>
<path d="M818.49 38.16C817.54 40.62 815.81 43.21 813.12 45.91C809.9 49.15 803.24 52.43 802.48 57.39C802.17 59.38 801.74 64.49 799.37 65.8C796.84 67.21 796.09 63.11 794.57 62C791.69 59.89 788.34 59.82 784.8 59.88C780.21 59.96 775.42 59.44 770.81 59.05C762.08 58.32 753.33 57.55 744.55 57.74C736.36 57.91 728.2 58.51 720.05 59.19C715.08 59.6 707.16 58.76 702.91 61.65C701.09 62.9 696.13 69.73 693.56 66.91C691.41 64.55 691.67 64.35 690.28 61.74C689.08 59.49 686.17 57.57 684.28 55.83C678.71 50.72 670.52 45.56 671.16 36.67C672.11 23.63 686.92 17.09 697.25 13.03C711 7.64004 725.38 -0.109957 739.79 -3.38996C747.8 -5.20996 756.14 -4.85996 763.75 -2.06996C776.55 2.62004 788.37 9.38004 800.85 14.63C812.29 19.45 822.53 27.67 818.49 38.16Z" fill="#BDB09F" stroke="#231F20" stroke-miterlimit="10" stroke-linecap="round" stroke-linejoin="round"/>
<path d="M686.379 49.4309L694.729 45.5109C728.769 29.5409 766.369 28.9009 800.619 43.7009L807.089 46.5009L801.849 68.9809L779.479 61.9309C758.369 55.2809 736.169 55.1509 714.939 61.5609L689.749 69.1709L686.379 49.4309Z" fill="#FCD26B" stroke="#231F20" stroke-miterlimit="10" stroke-linecap="round" stroke-linejoin="round"/>
<path d="M749.162 57.8196C761.352 57.9496 773.492 58.4296 785.382 60.3196C788.752 60.8596 793.162 61.0896 796.032 62.6796C802.292 66.1296 792.552 68.0296 788.542 68.5996C772.532 70.8796 768.312 71.2096 747.332 71.7296C737.932 71.9596 728.422 71.4696 719.052 70.7396C715.752 70.4896 694.622 69.4496 694.372 66.5396C694.182 64.2796 699.352 63.0596 701.352 62.4496C712.672 59.0096 725.512 57.7596 737.792 57.7696C741.582 57.7796 745.372 57.7796 749.162 57.8196Z" fill="#FCD26B" stroke="#231F20" stroke-miterlimit="10" stroke-linecap="round" stroke-linejoin="round"/>
<path d="M723.969 54.5398C724.389 47.9098 722.879 42.1598 725.419 35.7598C727.359 30.8598 730.499 26.2498 735.169 23.1898C741.439 19.0898 748.749 16.6298 756.519 22.9998C761.909 27.4198 765.399 31.5598 766.549 37.9598C767.179 41.4498 767.889 44.8298 767.969 48.3998C768.089 53.5698 767.099 54.6698 761.279 55.2598C753.859 56.0098 746.649 55.5898 739.169 55.6498C735.379 55.6798 727.979 57.0598 724.699 54.9098L723.969 54.5398Z" fill="#231F20"/>
<path d="M726.991 52.2105C727.351 46.5005 726.051 41.5405 728.241 36.0105C729.921 31.7905 733.451 27.7805 737.491 25.1405C742.901 21.6005 747.311 20.6905 753.111 25.0105C758.061 28.7005 762.721 32.3805 763.721 37.9005C764.261 40.9105 764.871 43.8305 764.951 46.9005C765.061 51.3605 764.201 52.3105 759.181 52.8105C752.781 53.4605 746.571 53.0905 740.111 53.1505C736.841 53.1805 730.461 54.3705 727.631 52.5105L726.991 52.2105Z" fill="#FCD26B" stroke="#231F20" stroke-miterlimit="10" stroke-linecap="round" stroke-linejoin="round"/>
<path d="M695.201 57.8996C695.201 57.8996 749.721 43.2596 796.381 56.7396L797.631 62.2796C797.631 62.2796 758.241 50.6596 694.031 63.9096L695.201 57.8996Z" fill="#FCD26B" stroke="#231F20" stroke-miterlimit="10" stroke-linecap="round" stroke-linejoin="round"/>
<path d="M694.57 63.9104C695.951 63.9104 697.07 62.509 697.07 60.7804C697.07 59.0517 695.951 57.6504 694.57 57.6504C693.19 57.6504 692.07 59.0517 692.07 60.7804C692.07 62.509 693.19 63.9104 694.57 63.9104Z" fill="#FCD26B" stroke="#231F20" stroke-miterlimit="10" stroke-linecap="round" stroke-linejoin="round"/>
<path d="M796.871 62.5901C798.252 62.5901 799.371 61.1887 799.371 59.4601C799.371 57.7314 798.252 56.3301 796.871 56.3301C795.49 56.3301 794.371 57.7314 794.371 59.4601C794.371 61.1887 795.49 62.5901 796.871 62.5901Z" fill="#FCD26B" stroke="#231F20" stroke-miterlimit="10" stroke-linecap="round" stroke-linejoin="round"/>
<path d="M778.651 91.9199C777.881 91.7199 774.781 90.7799 771.971 89.9799C770.431 89.5499 768.971 89.1599 768.041 88.9599C768.031 88.9499 768.021 88.9499 768.011 88.9499C767.641 88.8699 767.351 88.8299 767.191 88.8199C767.061 88.8099 766.831 88.8499 766.551 88.9099C765.841 89.0799 764.731 89.4599 763.541 89.9299C761.431 90.7399 759.051 91.8499 758.031 92.6199" stroke="#231F20" stroke-miterlimit="10" stroke-linecap="round" stroke-linejoin="round"/>
<path d="M714.289 92.3194C715.429 92.2194 719.109 91.2494 722.219 90.3994C724.549 89.7794 726.579 89.2094 726.979 89.1094C727.389 89.0194 728.979 89.4594 730.749 90.0594C733.069 90.8394 735.699 91.8894 736.349 92.3094" stroke="#231F20" stroke-miterlimit="10" stroke-linecap="round" stroke-linejoin="round"/>
<path d="M771.969 89.9804C771.949 90.8904 771.539 91.8004 770.799 92.4704C769.679 93.4804 767.809 93.9104 766.229 93.4504C764.499 92.9604 763.399 91.4104 763.539 89.9304C764.729 89.4604 765.839 89.0804 766.549 88.9104C766.849 88.9004 767.149 88.9104 767.439 88.9204C767.629 88.9304 767.819 88.9404 768.009 88.9504C768.019 88.9504 768.029 88.9504 768.039 88.9604C768.969 89.1604 770.429 89.5404 771.969 89.9804Z" fill="#231F20"/>
<path d="M730.739 90.0691C730.559 91.0991 730.059 92.1091 729.179 92.8791C728.199 93.6991 726.689 94.1791 725.299 93.9091C724.059 93.6491 723.079 92.8491 722.609 91.9191C722.359 91.4391 722.239 90.9291 722.219 90.4091C724.549 89.7891 726.579 89.2191 726.979 89.1191C727.389 89.0291 728.979 89.4691 730.739 90.0691Z" fill="#231F20"/>
<path d="M760.781 83.5801C755.811 85.5901 753.111 91.4301 753.061 93.6301C752.971 98.3701 753.041 109.87 754.151 110.81C754.981 111.51 758.741 115.07 759.521 115.83C760.831 117.11 759.761 119.89 758.911 121.38C757.661 123.55 756.031 122.04 754.271 122.26C752.281 122.5 750.891 124.49 748.801 124.48C747.621 124.48 746.001 124.52 744.881 124.14C743.971 123.83 743.331 123.05 742.421 122.7C740.171 121.84 737.921 125.29 735.891 123.24" stroke="#231F20" stroke-miterlimit="10" stroke-linecap="round" stroke-linejoin="round"/>
<path d="M749.592 124.381C749.592 125.691 749.592 127.691 749.592 129.001C749.592 129.751 749.382 130.211 748.772 130.411C747.792 130.721 747.262 130.241 746.422 129.771" stroke="#231F20" stroke-miterlimit="10" stroke-linecap="round" stroke-linejoin="round"/>
<path d="M729.629 136.571C734.269 133.131 739.729 132.321 742.149 131.491C744.689 130.621 746.239 132.871 748.749 132.431C751.449 131.951 751.949 130.861 754.809 131.981C756.969 132.831 759.179 132.841 764.189 135.681C761.109 135.271 758.009 135.061 754.909 134.931C752.339 134.821 750.109 135.541 747.649 136.141C745.289 136.721 743.389 135.451 741.139 135.231C739.389 135.061 737.139 135.411 735.389 135.681C735.369 135.681 729.629 136.571 729.629 136.571Z" stroke="#231F20" stroke-miterlimit="10" stroke-linecap="round" stroke-linejoin="round"/>
<path d="M729.66 136.549C731.17 137.849 733.62 138.409 735.58 138.799C737.42 139.169 738.74 140.259 740.5 140.769C743.07 141.519 746.18 141.459 748.85 141.429C751.74 141.389 754.77 140.899 757.32 139.509C759.55 138.289 761.62 136.019 764.18 135.469C764.3 135.439 764.41 135.419 764.49 135.339C762.09 134.369 758.34 134.829 755.77 134.789C752.1 134.729 748.53 136.939 744.86 136.289C743.39 136.029 742.21 135.219 740.74 134.999C736.81 134.439 733.38 135.689 729.66 136.549Z" stroke="#231F20" stroke-miterlimit="10" stroke-linecap="round" stroke-linejoin="round"/>
<path d="M759.629 113.08C761.399 115.87 764.009 117.24 765.649 120.28C767.129 123.04 768.119 126 769.459 128.82C770.579 131.17 772.209 133.67 771.609 136.46C770.609 141.09 766.879 146.06 763.619 149.49" stroke="#231F20" stroke-miterlimit="10" stroke-linecap="round" stroke-linejoin="round"/>
<path d="M734.981 114.33C733.881 117.41 730.671 120.35 728.451 122.77C726.241 125.17 727.321 127.94 725.691 130.81" stroke="#231F20" stroke-miterlimit="10" stroke-linecap="round" stroke-linejoin="round"/>
<path d="M754.2 113.84C754.2 115.65 754.48 117.62 753.75 119.27" stroke="#231F20" stroke-miterlimit="10" stroke-linecap="round" stroke-linejoin="round"/>
<path d="M709 147.83C711.36 150.78 713.21 152.22 715.28 153.2C718.22 154.59 721.9 155.84 722.84 156.39" stroke="#231F20" stroke-miterlimit="10" stroke-linecap="round" stroke-linejoin="round"/>
<path d="M737.332 163.1C741.672 163.09 751.692 163.38 756.042 163.12C761.452 162.8 774.882 154.1 778.432 150.52" stroke="#231F20" stroke-miterlimit="10" stroke-linecap="round" stroke-linejoin="round"/>
<path d="M757.581 81.3503C757.601 81.2403 757.641 81.1304 757.691 81.0104C758.001 80.3404 758.931 79.8904 759.551 79.5704C761.051 78.8004 764.621 77.8804 766.201 77.3004C767.901 76.6804 772.951 75.8104 774.581 75.7604C776.471 75.7004 778.431 76.7104 779.711 78.0104C780.491 78.8004 782.261 81.3204 781.741 82.4104C779.961 81.5504 778.171 81.0304 776.261 80.5104C771.991 79.3504 766.821 82.0304 762.781 83.3704C761.551 83.7804 760.151 84.5404 759.001 83.4304C758.321 82.7904 757.401 82.2403 757.581 81.3503Z" fill="#231F20"/>
<path d="M773.012 100.47C775.782 100.67 778.712 99.7697 781.192 98.6797" stroke="#231F20" stroke-miterlimit="10" stroke-linecap="round" stroke-linejoin="round"/>
<path d="M714.289 98.5703C716.239 100.06 719.609 100.8 722.059 100.56" stroke="#231F20" stroke-miterlimit="10" stroke-linecap="round" stroke-linejoin="round"/>
<path d="M736.372 81.1109C736.382 80.5609 736.132 80.0509 735.502 79.6209C734.232 78.7609 732.382 78.1809 730.892 77.8009C727.632 76.9609 724.312 76.3509 720.942 76.0809C717.572 75.8209 716.072 76.3609 713.702 78.7609C713.202 79.2709 712.762 79.7309 712.382 80.3309C712.312 80.4309 711.442 82.3609 711.712 82.2109C713.422 81.2809 715.322 80.9409 717.222 80.4809C720.692 79.6509 724.352 80.9309 727.612 82.0109C729.412 82.6109 734.202 85.2509 735.662 82.9709C736.072 82.3409 736.362 81.7009 736.372 81.1109Z" fill="#231F20"/>
<path d="M742.531 145.22C745.901 144.43 749.541 143.41 753.061 144.16" stroke="#231F20" stroke-miterlimit="10" stroke-linecap="round" stroke-linejoin="round"/>
<path opacity="0.3" d="M696.83 100.15C696.89 100.15 696.37 96.3801 696.32 96.0601C695.98 94.0301 695.59 91.9801 694.48 90.0901C693.89 89.0901 693.5 87.9901 692.71 87.0601C692.24 86.5001 690.92 85.1501 690.59 86.5901C690.04 89.0401 691.8 91.3301 692.23 93.7301C692.71 96.4001 692.62 99.1101 693.15 101.78C693.35 102.76 693.94 107.96 696.09 107.44C696.39 107.37 694.76 101.89 694.76 101.27C694.76 100.77 694.41 98.7901 695.12 98.6601C696.18 98.4401 696.02 100.16 696.83 100.15Z" fill="#231F20"/>
<path opacity="0.3" d="M796.11 99.4899C796.05 99.4899 796.57 95.7199 796.62 95.3999C796.96 93.3699 797.35 91.3199 798.46 89.4299C799.05 88.4299 799.44 87.3299 800.23 86.3999C800.7 85.8399 802.02 84.4899 802.35 85.9299C802.9 88.3799 801.14 90.6699 800.71 93.0699C800.23 95.7399 800.32 98.4499 799.79 101.12C799.59 102.1 799 107.3 796.85 106.78C796.55 106.71 798.18 101.23 798.18 100.61C798.18 100.11 798.53 98.1299 797.82 97.9999C796.76 97.7799 796.93 99.4999 796.11 99.4899Z" fill="#231F20"/>
<path d="M764.253 292.19C763.643 300.67 760.433 307.84 757.913 315.76C756.213 321.1 755.583 329.17 752.153 333.33C744.373 325.33 741.273 309.11 736.393 298.58C734.543 294.58 732.533 290.68 731.123 286.46C729.793 282.49 730.323 279.6 730.873 275.44C731.973 267.16 732.173 258.79 733.583 250.55C734.903 242.88 736.843 235.26 738.403 227.7C739.503 222.39 741.223 222.39 746.183 222.47C751.213 222.55 752.053 222.32 753.933 227.84C755.543 232.57 755.933 237.67 756.483 242.64C757.503 251.85 758.783 261.03 761.133 269.97C763.163 277.65 764.823 284.01 764.253 292.19Z" fill="#231F20"/>
<path d="M764.502 398.14C764.802 402.07 765.072 406.05 765.202 410.16C765.872 432.06 766.232 453.79 765.222 475.3C764.772 484.82 764.112 493.65 765.312 502.78C767.102 516.35 760.502 523.92 757.612 536.39C753.922 552.31 749.292 597.19 727.782 596.25C696.332 594.87 665.202 586.71 637.112 572.49C624.922 566.32 616.992 568.73 615.542 557.59C613.702 543.53 620.372 515.06 621.422 500.46C622.632 483.59 626.102 466.84 627.502 449.85C630.412 414.52 627.562 325.14 628.802 303.21C629.512 290.6 628.862 277.95 627.682 265.39C627.082 259.01 626.082 252.66 625.542 246.27C625.072 240.73 626.732 235.78 627.932 230.42C631.242 215.62 638.242 198.37 634.922 183.02C634.232 179.82 631.072 177.16 630.872 174.01C630.052 161 666.222 163.7 672.752 162.9C678.262 162.23 690.712 160.08 693.962 165.11C698.132 171.56 695.952 180.41 699.132 187.38C702.812 195.45 707.882 202.8 711.382 210.88C716.372 222.38 718.272 235.2 724.702 246C729.382 253.87 736.462 259.71 741.482 267.19C745.172 272.68 748.912 278.33 752.372 283.87C757.812 292.59 764.212 300.55 764.572 310.86C765.222 329.25 764.482 347.53 763.312 365.63C762.572 377.11 763.672 387.42 764.502 398.14Z" fill="#D1C8C1" stroke="#231F20" stroke-miterlimit="10" stroke-linecap="round" stroke-linejoin="round"/>
<path d="M880.762 567.401C847.132 566.861 812.102 566.611 781.762 581.111C776.982 583.391 771.922 586.111 766.692 585.241C754.212 583.161 752.502 539.651 751.682 529.261C749.852 505.641 745.772 476.221 742.982 452.711C738.262 413.071 739.952 359.211 738.262 312.441C738.002 305.251 739.362 298.851 741.632 292.801C747.012 278.401 757.482 265.991 763.242 249.651C765.252 243.941 767.352 238.261 769.482 232.581C774.122 220.161 778.912 207.731 783.252 195.071C785.892 187.381 784.832 174.841 789.352 167.021C790.262 165.431 791.402 164.031 792.872 162.911C795.592 160.821 798.702 159.841 801.982 159.541C809.622 158.821 818.182 161.751 825.052 162.551C832.742 163.441 854.572 168.411 859.392 175.611C861.162 178.261 860.232 192.391 861.102 198.881C863.022 213.151 867.852 226.991 862.752 241.161C862.482 241.931 862.182 242.711 862.162 243.521C862.152 244.541 862.582 245.501 862.842 246.491C864.112 251.261 861.422 256.081 860.632 260.941C858.992 270.921 862.062 282.591 861.802 292.881C861.502 304.701 861.302 316.531 861.352 328.361C861.402 339.931 863.972 351.291 864.112 363.121C864.292 379.091 865.012 395.051 866.252 410.981C867.332 424.831 869.562 438.551 871.132 452.241C872.832 467.021 871.832 482.181 873.332 497.031C875.722 520.561 878.352 544.021 880.762 567.401Z" fill="#D1C8C1" stroke="#231F20" stroke-miterlimit="10" stroke-linecap="round" stroke-linejoin="round"/>
<path d="M746.172 319.561C751.402 319.561 756.622 319.211 761.832 319.281" stroke="#231F20" stroke-miterlimit="10" stroke-linecap="round" stroke-linejoin="round"/>
<path d="M745.473 385.109C750.303 385.109 755.193 384.659 759.993 384.829" stroke="#231F20" stroke-miterlimit="10" stroke-linecap="round" stroke-linejoin="round"/>
<path d="M750.633 441.66C754.883 441.66 760.473 441.66 764.013 441.66" stroke="#231F20" stroke-miterlimit="10" stroke-linecap="round" stroke-linejoin="round"/>
<path d="M759.781 500.599C763.731 500.599 767.581 500.469 771.461 500.029" stroke="#231F20" stroke-miterlimit="10" stroke-linecap="round" stroke-linejoin="round"/>
<path d="M757.818 321.052C759.317 317.096 758.238 313.02 755.408 311.948C752.578 310.876 749.068 313.213 747.569 317.169C746.071 321.125 747.15 325.201 749.98 326.274C752.81 327.346 756.319 325.008 757.818 321.052Z" fill="#FCD26B" stroke="#231F20" stroke-miterlimit="9.9997" stroke-linecap="round" stroke-linejoin="round"/>
<path d="M757.941 385.555C758.453 381.483 756.359 377.867 753.263 377.477C750.167 377.087 747.241 380.072 746.729 384.144C746.216 388.215 748.311 391.832 751.407 392.221C754.503 392.611 757.428 389.626 757.941 385.555Z" fill="#FCD26B" stroke="#231F20" stroke-miterlimit="10.0003" stroke-linecap="round" stroke-linejoin="round"/>
<path d="M761.554 441.944C762.066 437.872 759.972 434.256 756.876 433.866C753.78 433.476 750.855 436.461 750.342 440.532C749.83 444.604 751.924 448.22 755.02 448.61C758.116 449 761.041 446.015 761.554 441.944Z" fill="#FCD26B" stroke="#231F20" stroke-miterlimit="10.0003" stroke-linecap="round" stroke-linejoin="round"/>
<path d="M768.62 500.393C769.133 496.321 767.038 492.705 763.942 492.315C760.846 491.925 757.921 494.91 757.408 498.981C756.896 503.053 758.99 506.669 762.086 507.059C765.182 507.449 768.108 504.464 768.62 500.393Z" fill="#FCD26B" stroke="#231F20" stroke-miterlimit="10.0003" stroke-linecap="round" stroke-linejoin="round"/>
<path d="M736.063 196.22C736.513 196.21 737.023 196.35 737.453 196.47C739.903 197.14 742.283 197.64 744.833 197.77C747.233 197.89 749.673 197.92 752.063 197.82C753.163 197.78 754.343 197.71 755.403 197.38C756.073 197.17 756.803 197.02 757.463 196.78C757.863 196.63 758.293 196.24 758.723 196.21C759.503 196.16 760.143 197.24 760.723 197.76C762.073 198.98 763.453 200.14 764.773 201.39C765.533 202.1 765.813 202.42 765.363 203.46C764.533 205.41 763.243 207.15 762.353 209.07C761.423 211.07 760.243 212.68 759.013 214.46C758.193 215.63 757.343 216.76 756.343 217.76C755.553 218.55 755.163 218.89 754.033 219.12C752.093 219.52 750.153 219.65 748.193 219.61C746.213 219.58 744.183 219.66 742.223 219.39C741.373 219.27 740.453 219.14 739.743 218.61C737.923 217.26 736.513 215.56 735.343 213.55C733.673 210.68 731.823 207.84 730.463 204.82C730.143 204.11 729.623 203.31 729.953 202.48C730.483 201.16 732.023 200.09 732.983 199.16C733.703 198.46 734.433 197.79 735.133 197.07C735.433 196.77 735.743 196.3 736.163 196.17L736.063 196.22Z" fill="#231F20"/>
<path d="M701.963 162.029C695.653 172.379 679.513 172.679 668.193 174.509C661.573 175.579 654.953 176.649 648.333 177.719C645.723 178.139 642.843 179.309 640.863 176.969C639.513 175.369 639.563 172.959 638.513 171.179C637.223 168.969 633.873 166.899 637.603 165.209C639.283 164.449 641.563 164.699 643.373 164.539C645.693 164.339 648.033 164.139 650.343 163.869C655.253 163.289 660.203 163.229 665.053 162.609C671.533 161.789 678.153 161.259 684.633 160.689C689.383 160.269 697.923 159.349 701.963 162.029Z" fill="#D1C8C1" stroke="#231F20" stroke-miterlimit="10" stroke-linecap="round" stroke-linejoin="round"/>
<path d="M654.523 166.089L648.413 167.789C647.253 168.109 646.053 167.479 645.753 166.369C645.443 165.259 646.143 164.099 647.303 163.779L653.413 162.079C654.573 161.759 655.773 162.389 656.073 163.499C656.383 164.609 655.683 165.769 654.523 166.089Z" fill="#FCD26B" stroke="#231F20" stroke-miterlimit="10" stroke-linecap="round" stroke-linejoin="round"/>
<path d="M664.572 165.089L657.692 167.009C656.532 167.329 655.332 166.699 655.032 165.589L654.952 165.289C654.642 164.179 655.342 163.019 656.502 162.699L663.382 160.779C664.542 160.459 665.742 161.089 666.042 162.199L666.122 162.499C666.432 163.609 665.742 164.769 664.572 165.089Z" fill="#FCD26B" stroke="#231F20" stroke-miterlimit="10" stroke-linecap="round" stroke-linejoin="round"/>
<path d="M675.113 164.24L667.443 166.38C666.283 166.7 665.083 166.07 664.783 164.96L664.613 164.35C664.303 163.24 665.003 162.08 666.163 161.76L673.833 159.62C674.993 159.3 676.193 159.93 676.493 161.04L676.663 161.65C676.973 162.76 676.283 163.92 675.113 164.24Z" fill="#FCD26B" stroke="#231F20" stroke-miterlimit="10" stroke-linecap="round" stroke-linejoin="round"/>
<path d="M686.113 163.279L678.443 165.419C677.283 165.739 676.083 165.109 675.783 163.999L675.613 163.389C675.303 162.279 676.003 161.119 677.163 160.799L684.833 158.659C685.993 158.339 687.193 158.969 687.493 160.079L687.663 160.689C687.973 161.799 687.273 162.959 686.113 163.279Z" fill="#FCD26B" stroke="#231F20" stroke-miterlimit="10" stroke-linecap="round" stroke-linejoin="round"/>
<path d="M713.182 219.37C713.482 219.32 713.792 219.23 714.122 219.07C716.352 218.03 717.732 214.92 719.112 212.78C723.912 205.34 728.282 198.66 734.492 192.56C736.412 190.68 738.692 190.39 738.192 186.76C737.772 183.67 733.712 181.43 731.692 180.1C726.472 176.66 721.222 171.6 717.812 165.78C716.082 162.82 714.722 153.92 710.642 154.2C709.132 154.3 706.332 156.81 705.202 157.9C701.322 161.64 703.292 168.66 703.712 173.75C704.342 181.4 705.332 188.99 706.192 196.61C706.632 200.48 707.122 220.3 713.182 219.37Z" fill="white" stroke="#231F20" stroke-miterlimit="10" stroke-linecap="round" stroke-linejoin="round"/>
<path d="M711.362 187.591C712.962 196.281 717.732 205.301 720.302 213.711C723.912 225.531 738.852 258.611 740.272 261.781C742.262 266.231 754.472 285.571 747.322 287.361C742.452 288.581 729.542 279.251 725.762 276.581C719.992 272.511 714.502 268.021 709.322 263.161C699.352 253.801 690.552 243.071 683.282 231.301C682.312 229.741 681.352 228.091 681.132 226.251C680.562 221.621 686.752 219.581 689.772 217.471C694.032 214.501 698.292 211.531 702.542 208.561C703.422 207.951 704.422 206.851 703.862 205.911C703.522 205.341 702.782 205.231 702.132 205.181C697.662 204.841 678.072 205.741 676.522 201.811C674.872 197.631 681.792 190.101 683.392 186.621C686.852 179.101 691.942 172.621 696.432 165.721C698.702 162.231 700.762 158.181 704.242 155.701C705.172 155.041 706.352 154.611 707.412 154.221C708.392 153.861 711.162 152.601 712.162 153.241C713.162 153.881 712.592 155.341 711.822 156.051C711.052 156.761 710.032 157.151 709.312 157.921C707.972 159.361 708.022 161.631 708.192 163.631C708.852 171.681 709.902 179.671 711.362 187.591Z" fill="#D1C8C1" stroke="#231F20" stroke-miterlimit="10" stroke-linecap="round" stroke-linejoin="round"/>
<path d="M697.461 187.481C695.521 191.651 692.861 198.211 691.921 200.531C691.721 201.041 691.181 201.341 690.611 201.251C688.251 200.901 684.861 200.151 682.271 199.461C681.521 199.261 681.111 198.461 681.421 197.781C683.691 192.851 685.011 189.491 687.441 184.751C687.691 184.271 688.241 184.011 688.791 184.131C690.401 184.471 693.801 185.201 696.541 185.781C697.341 185.951 697.781 186.781 697.461 187.481Z" fill="#FCD26B" stroke="#231F20" stroke-miterlimit="10" stroke-linecap="round" stroke-linejoin="round"/>
<path d="M754.214 185.17C754.184 184.17 754.394 183.3 754.894 182.6C757.074 179.58 761.944 178.94 764.744 177.04C773.214 171.3 777.104 159.55 783.294 150.88C785.154 148.27 785.394 148.34 787.094 150.67C789.004 153.29 791.634 156.35 791.764 160.17C791.904 164.08 790.394 169.02 789.524 172.78C787.834 180.1 785.654 187.23 783.324 194.27C780.004 204.3 774.874 213.59 766.454 205.18C763.934 202.65 754.394 191.47 754.214 185.17Z" fill="white" stroke="#231F20" stroke-miterlimit="10" stroke-linecap="round" stroke-linejoin="round"/>
<path d="M793.141 161.779C795.551 157.399 817.731 162.059 820.181 162.479C829.101 163.999 838.021 165.509 846.941 167.029C847.991 167.209 848.871 167.859 849.211 168.729L852.301 176.449C853.051 178.309 851.131 180.109 848.881 179.639C841.221 178.069 833.561 176.499 825.901 174.929C817.541 173.219 799.351 172.159 794.071 165.219C792.921 163.709 792.691 162.589 793.141 161.779Z" fill="#D1C8C1" stroke="#231F20" stroke-miterlimit="10" stroke-linecap="round" stroke-linejoin="round"/>
<path d="M834.641 167.45L839.851 169.26C840.841 169.6 841.921 169.08 842.271 168.08C842.611 167.08 842.091 166 841.101 165.65L835.891 163.84C834.901 163.5 833.821 164.02 833.471 165.02C833.121 166.02 833.651 167.11 834.641 167.45Z" fill="#FCD26B" stroke="#231F20" stroke-miterlimit="10" stroke-linecap="round" stroke-linejoin="round"/>
<path d="M825.95 166.13L831.81 168.16C832.8 168.5 833.88 167.98 834.23 166.98L834.32 166.71C834.66 165.71 834.14 164.63 833.15 164.28L827.29 162.25C826.3 161.91 825.22 162.43 824.87 163.43L824.78 163.7C824.43 164.7 824.96 165.79 825.95 166.13Z" fill="#FCD26B" stroke="#231F20" stroke-miterlimit="10" stroke-linecap="round" stroke-linejoin="round"/>
<path d="M816.833 164.92L823.373 167.19C824.363 167.53 825.443 167.01 825.793 166.01L825.983 165.47C826.323 164.47 825.803 163.39 824.813 163.04L818.273 160.77C817.283 160.43 816.203 160.95 815.853 161.95L815.663 162.49C815.313 163.49 815.843 164.57 816.833 164.92Z" fill="#FCD26B" stroke="#231F20" stroke-miterlimit="10" stroke-linecap="round" stroke-linejoin="round"/>
<path d="M807.321 163.59L813.861 165.86C814.851 166.2 815.931 165.68 816.281 164.68L816.471 164.14C816.811 163.14 816.291 162.06 815.301 161.71L808.761 159.44C807.771 159.1 806.691 159.62 806.341 160.62L806.151 161.16C805.801 162.16 806.331 163.24 807.321 163.59Z" fill="#FCD26B" stroke="#231F20" stroke-miterlimit="10" stroke-linecap="round" stroke-linejoin="round"/>
<path d="M815.983 236.971C792.343 257.031 767.073 275.061 741.633 292.801C747.013 278.401 757.483 265.991 763.243 249.651C765.253 243.941 767.353 238.261 769.483 232.581C772.253 227.121 774.863 221.581 777.233 215.931C781.993 204.591 784.853 193.241 787.363 181.281C788.163 177.431 788.653 172.021 789.353 167.021C789.583 165.351 789.843 163.711 790.143 162.211C790.453 160.701 790.853 156.831 790.773 156.251C790.673 155.551 789.283 153.681 789.283 153.681C789.133 153.171 790.213 152.861 790.633 152.561C791.283 152.101 792.473 152.461 793.163 152.681C794.203 153.001 795.243 153.401 796.143 153.991C796.563 154.271 797.043 154.521 797.403 154.851C799.023 156.351 800.553 157.911 801.973 159.551C802.623 160.291 803.243 161.051 803.853 161.841C808.363 166.361 810.423 173.821 813.413 179.351C815.243 182.741 816.523 186.391 817.833 190.061C818.563 192.091 819.303 194.141 820.153 196.131C820.593 197.161 821.043 198.291 820.753 199.381C820.183 201.541 817.343 201.951 815.123 201.931C811.103 201.891 807.103 201.861 803.083 201.821C798.653 201.821 795.093 202.261 798.373 206.721C802.453 212.251 811.883 216.801 817.433 220.911C819.093 222.141 820.853 223.481 821.603 225.421C823.293 229.691 819.473 234.001 815.983 236.971Z" fill="#D1C8C1" stroke="#231F20" stroke-miterlimit="10" stroke-linecap="round" stroke-linejoin="round"/>
<path d="M801.183 183.45C802.633 188.06 804.523 195.26 805.183 197.81C805.323 198.37 805.823 198.75 806.403 198.75C808.793 198.73 812.253 198.43 814.913 198.08C815.683 197.98 816.183 197.2 815.953 196.46C814.273 191.01 813.343 187.33 811.473 182.06C811.283 181.53 810.763 181.18 810.203 181.22C808.563 181.35 805.093 181.61 802.293 181.83C801.473 181.88 800.933 182.68 801.183 183.45Z" fill="#FCD26B" stroke="#231F20" stroke-miterlimit="10" stroke-linecap="round" stroke-linejoin="round"/>
<path d="M654.451 386.85C657.081 388.54 719.181 390.401 719.941 386.641C721.341 379.731 721.411 325.54 721.941 307.31L716.941 301.02C700.381 281.34 675.891 286.11 657.981 295.47C653.911 297.59 651.001 298.5 651.131 303.97C651.281 311.07 650.821 318.5 651.251 325.65C651.771 334.72 652.371 385.51 654.451 386.85Z" fill="#D1C8C1" stroke="#231F20" stroke-miterlimit="10" stroke-linecap="round" stroke-linejoin="round"/>
<path d="M710.831 285.991C700.951 285.711 687.961 285.731 681.831 285.851C678.461 285.921 650.441 284.531 650.241 290.311C650.091 294.811 649.581 321.161 651.161 322.611C653.041 324.341 658.551 321.181 660.431 320.491C668.261 317.611 674.961 318.141 682.391 320.781C692.541 324.371 701.591 315.941 711.521 319.621C715.561 321.121 720.601 323.191 721.371 316.921C722.201 310.151 722.251 295.671 721.941 288.731C721.771 285.181 715.601 286.131 710.831 285.991Z" fill="#D1C8C1" stroke="#231F20" stroke-miterlimit="10" stroke-linecap="round" stroke-linejoin="round"/>
<path d="M686.431 311.691C686.611 309.111 686.001 306.401 685.691 303.871" stroke="#231F20" stroke-miterlimit="10" stroke-linecap="round" stroke-linejoin="round"/>
<path d="M686.862 316.521C689 316.521 690.732 314.699 690.732 312.451C690.732 310.203 689 308.381 686.862 308.381C684.725 308.381 682.992 310.203 682.992 312.451C682.992 314.699 684.725 316.521 686.862 316.521Z" fill="#D1C8C1" stroke="#231F20" stroke-miterlimit="10" stroke-linecap="round" stroke-linejoin="round"/>
<path d="M852.881 386.05C850.101 387.74 784.361 389.6 783.561 385.84C782.081 378.93 782.011 324.74 781.441 306.51L786.731 300.22C804.261 280.54 830.181 285.31 849.141 294.67C853.451 296.79 856.521 297.7 856.391 303.17C856.231 310.27 856.721 317.7 856.271 324.85C855.711 333.91 855.071 384.71 852.881 386.05Z" fill="#D1C8C1" stroke="#231F20" stroke-miterlimit="10" stroke-linecap="round" stroke-linejoin="round"/>
<path d="M793.189 285.19C803.639 284.91 817.399 284.93 823.879 285.05C827.449 285.12 857.109 283.73 857.319 289.51C857.479 294.01 858.019 320.36 856.349 321.81C854.359 323.54 848.529 320.38 846.539 319.69C838.249 316.81 831.159 317.34 823.289 319.98C812.549 323.57 802.959 315.14 792.459 318.82C788.189 320.32 782.849 322.39 782.039 316.12C781.169 309.35 781.109 294.87 781.439 287.93C781.609 284.37 788.139 285.32 793.189 285.19Z" fill="#D1C8C1" stroke="#231F20" stroke-miterlimit="10" stroke-linecap="round" stroke-linejoin="round"/>
<path d="M817.991 310.799C816.931 308.459 816.601 305.689 816.051 303.199" stroke="#231F20" stroke-miterlimit="10" stroke-linecap="round" stroke-linejoin="round"/>
<path d="M821.911 311.08C821.911 313.33 820.071 315.15 817.811 315.15C815.551 315.15 813.711 313.33 813.711 311.08C813.711 308.83 815.551 307.01 817.811 307.01C820.071 307.01 821.911 308.83 821.911 311.08Z" fill="#D1C8C1" stroke="#231F20" stroke-miterlimit="10" stroke-linecap="round" stroke-linejoin="round"/>
<path d="M627.29 542.81C630.22 545.25 699.42 568.06 703.86 565.41C710.97 561.16 711.54 492.58 715.04 470.74L714.94 464.63C697.92 438.37 667.46 440.29 644.25 448.75C638.98 450.67 635.31 451.3 634.6 457.9C633.67 466.46 631.95 475.32 631.34 484C630.57 494.98 624.98 540.87 627.29 542.81Z" fill="#D1C8C1" stroke="#231F20" stroke-miterlimit="10" stroke-linecap="round" stroke-linejoin="round"/>
<path d="M715.322 447.49C706.062 442.26 636.502 436.97 635.332 444.05C634.462 449.32 629.812 480.21 631.492 482.15C633.512 484.48 653.652 490.57 670.922 492.18C680.452 493.07 704.282 488.25 711.422 487.63C712.982 487.5 714.482 487.17 714.692 485.59C716.192 474.38 716.642 448.24 715.322 447.49Z" fill="#D1C8C1" stroke="#231F20" stroke-miterlimit="10" stroke-linecap="round" stroke-linejoin="round"/>
<path d="M673.332 479.681C673.952 476.681 673.622 473.401 673.632 470.371" stroke="#231F20" stroke-miterlimit="10" stroke-linecap="round" stroke-linejoin="round"/>
<path d="M678.158 480.541C678.624 477.915 676.913 475.415 674.335 474.957C671.758 474.5 669.29 476.259 668.824 478.885C668.358 481.511 670.07 484.011 672.647 484.469C675.225 484.926 677.692 483.168 678.158 480.541Z" fill="#D1C8C1" stroke="#231F20" stroke-miterlimit="9.9998" stroke-linecap="round" stroke-linejoin="round"/>
<path d="M868.852 545.95C865.872 548.29 791.172 559.88 786.802 557.2C779.782 552.9 783.442 491.73 780.422 470.24L780.652 464.25C798.232 438.81 828.642 441.25 851.652 449.98C856.882 451.96 860.532 452.65 861.092 459.14C861.832 467.56 863.362 476.28 863.782 484.81C864.322 495.58 871.202 544.09 868.852 545.95Z" fill="#D1C8C1" stroke="#231F20" stroke-miterlimit="10" stroke-linecap="round" stroke-linejoin="round"/>
<path d="M780.639 447.421C790.009 442.461 859.649 438.561 860.659 445.531C861.419 450.711 865.389 481.101 863.669 482.981C861.599 485.231 841.329 490.831 824.039 492.091C814.499 492.781 790.779 487.611 783.649 486.881C782.089 486.721 780.599 486.371 780.429 484.821C779.189 473.791 779.309 448.131 780.639 447.421Z" fill="#D1C8C1" stroke="#231F20" stroke-miterlimit="10" stroke-linecap="round" stroke-linejoin="round"/>
<path d="M821.908 479.781C821.358 476.831 821.758 473.611 821.818 470.641" stroke="#231F20" stroke-miterlimit="10" stroke-linecap="round" stroke-linejoin="round"/>
<path d="M825.691 482.462C827.153 480.297 826.578 477.355 824.408 475.89C822.238 474.426 819.295 474.994 817.833 477.159C816.372 479.325 816.947 482.267 819.116 483.732C821.286 485.196 824.23 484.628 825.691 482.462Z" fill="#D1C8C1" stroke="#231F20" stroke-miterlimit="10" stroke-linecap="round" stroke-linejoin="round"/>
<path d="M859.382 243.85C849.752 251.68 837.722 256.52 825.352 257.54" stroke="#231F20" stroke-miterlimit="10" stroke-linecap="round" stroke-linejoin="round"/>
<path d="M660.992 273.969C667.612 263.699 673.022 252.639 677.062 241.109" stroke="#231F20" stroke-miterlimit="10" stroke-linecap="round" stroke-linejoin="round"/>
<path d="M695.583 485.31C696.663 485.28 699.813 489.14 700.633 489.93C702.263 491.51 703.853 493.12 705.403 494.77C708.613 498.18 711.673 501.73 714.653 505.34C714.993 505.34 717.633 508.63 718.193 509.16C719.843 510.75 721.273 512.59 722.763 514.33C725.163 517.14 727.573 519.97 730.363 522.4C732.003 523.83 735.573 525.68 736.283 527.85C736.433 528.3 736.453 528.78 736.473 529.25C736.573 531.68 737.143 534.93 736.183 537.17C735.253 539.35 732.873 540.73 731.473 542.59C729.463 545.28 729.053 548.86 728.773 552.11C728.493 555.45 728.333 558.5 727.443 561.82C727.003 563.44 726.393 565.18 724.963 566.07C723.103 567.23 718.523 565.53 716.423 565.19C716.043 565.13 715.653 565.06 715.303 564.89C714.113 564.29 713.883 562.7 712.993 561.71C711.033 559.52 706.843 560.58 704.213 560.03C701.363 559.43 699.403 556.28 696.403 556.33C695.333 556.35 694.313 556.84 693.253 556.91C689.953 557.15 689.253 554.26 686.423 553.78C685.783 553.67 685.133 553.7 684.483 553.64C681.573 553.37 679.103 551.03 677.473 548.75C673.773 543.6 673.093 536.63 673.093 530.48C673.093 526.45 672.883 522.43 672.993 518.35C673.003 517.88 673.013 517.39 672.853 516.95C672.683 516.5 672.363 516.13 672.043 515.77C668.603 511.91 665.453 507.78 662.633 503.44C658.343 496.84 659.313 491.04 665.943 486.58C674.673 480.7 688.233 485.63 697.913 485.63C697.913 485.62 695.583 485.31 695.583 485.31Z" fill="#EB978D" stroke="#231F20" stroke-miterlimit="10" stroke-linecap="round" stroke-linejoin="round"/>
<path d="M726.203 534.35C727.383 540.68 728.233 543.26 728.773 552.18" stroke="#231F20" stroke-miterlimit="10" stroke-linecap="round" stroke-linejoin="round"/>
<path d="M711.492 498.11C697.722 504.2 679.832 505.63 665.382 519.66C665.382 519.66 660.032 513.84 656.782 510.63C654.252 508.14 653.152 507.15 654.642 503.92C655.442 502.2 657.182 501.18 658.832 500.28C669.072 494.75 679.832 490.22 690.922 486.75C695.422 485.34 698.892 483.39 702.652 485.81C704.002 486.67 708.182 492.08 711.492 498.11Z" fill="white" stroke="#231F20" stroke-miterlimit="10" stroke-linecap="round" stroke-linejoin="round"/>
<path d="M583.121 374.9C583.371 376.19 583.671 377.48 584.001 378.77C585.421 384.3 587.531 389.61 589.641 394.92C594.721 407.69 599.801 420.47 604.881 433.24C610.281 446.83 615.701 460.44 622.501 473.39C627.121 482.19 632.381 490.63 637.161 499.34C640.411 505.26 644.461 521.91 651.401 524C651.401 524 655.991 518.54 659.041 515.58C668.391 506.51 679.941 499.82 692.361 496.18C700.561 493.78 711.481 488.5 711.481 488.5C700.861 470.38 692.361 451.05 684.211 431.73C680.081 421.94 676.081 412.08 672.091 402.23C670.431 398.15 668.881 393.96 667.171 389.93C665.581 386.18 661.641 381.29 662.791 377.01C663.131 375.75 663.851 374.22 662.921 373.3C662.531 372.91 661.951 372.78 661.481 372.48C659.261 371.05 661.111 367.55 660.481 364.98C660.271 364.12 659.761 363.36 659.291 362.6C643.501 337.04 656.611 309.23 657.371 282.1C657.551 275.64 657.671 268.99 656.721 262.66C654.861 250.23 654.171 237.63 652.371 225.19C650.311 210.95 648.061 195.9 642.181 182.64C640.681 179.24 637.851 172.66 633.791 171.48C625.361 169.03 619.691 183.39 617.181 188.93C613.971 196.02 611.771 204.46 610.301 212.13C609.241 217.65 608.471 223.25 607.301 228.78C606.371 233.15 604.201 237.11 603.141 241.43C602.171 245.37 601.751 249.44 600.821 253.45C598.701 262.56 596.721 271.71 594.761 280.86C590.451 300.91 584.741 321.49 582.581 341.92C581.441 352.88 580.981 364.02 583.121 374.9Z" fill="#D1C8C1" stroke="#231F20" stroke-miterlimit="10" stroke-linecap="round" stroke-linejoin="round"/>
<path d="M656.751 373.199C647.571 374.809 638.691 378.109 630.691 382.889" stroke="#231F20" stroke-miterlimit="10" stroke-linecap="round" stroke-linejoin="round"/>
<path d="M654.891 368.79C640.911 365 626.121 366.37 611.711 367.77" stroke="#231F20" stroke-miterlimit="10" stroke-linecap="round" stroke-linejoin="round"/>
</g>
<defs>
<clipPath id="clip0_16_1498">
<rect width="335" height="1080" fill="white" transform="translate(580 -5)"/>
</clipPath>
</defs>
</svg>
