<?xml version="1.0" encoding="utf-8"?>
<!-- Generator: Adobe Illustrator 28.1.0, SVG Export Plug-In . SVG Version: 6.00 Build 0)  -->
<svg version="1.1" xmlns="http://www.w3.org/2000/svg" xmlns:xlink="http://www.w3.org/1999/xlink" x="0px" y="0px"
     viewBox="0 0 1080 1080" style="enable-background:new 0 0 1080 1080;" xml:space="preserve">
<style type="text/css">
	.st0{fill:#414042;stroke:#231F20;stroke-linecap:round;stroke-linejoin:round;stroke-miterlimit:10;}
	.st1{opacity:0.3;}
	.st2{fill:#231F20;}
	.st3{fill:#8B5E3C;stroke:#231F20;stroke-linecap:round;stroke-linejoin:round;stroke-miterlimit:10;}
	.st4{fill:#60412C;stroke:#231F20;stroke-linecap:round;stroke-linejoin:round;stroke-miterlimit:10;}
	.st5{opacity:0.2;clip-path:url(#XMLID_00000176757776947035971600000008950751666335668159_);}
	.st6{fill:#D6D6D4;stroke:#231F20;stroke-linecap:round;stroke-linejoin:round;stroke-miterlimit:10;}
	.st7{fill:#FCF2CA;stroke:#231F20;stroke-linecap:round;stroke-linejoin:round;stroke-miterlimit:10;}
	.st8{fill:#EB978D;stroke:#231F20;stroke-linecap:round;stroke-linejoin:round;stroke-miterlimit:10;}
	.st9{opacity:0.3;fill:#231F20;}
	.st10{fill:none;stroke:#231F20;stroke-linecap:round;stroke-linejoin:round;stroke-miterlimit:10;}
	.st11{opacity:0.2;clip-path:url(#XMLID_00000039823825666601813530000015556615832544634286_);}

		.st12{clip-path:url(#XMLID_00000039823825666601813530000015556615832544634286_);fill:none;stroke:#231F20;stroke-linecap:round;stroke-linejoin:round;stroke-miterlimit:10;}
	.st13{opacity:0.3;clip-path:url(#XMLID_00000118375021891545999100000004953690661740833186_);}
	.st14{fill:#FFDAA8;stroke:#231F20;stroke-linecap:round;stroke-linejoin:round;stroke-miterlimit:10;}
	.st15{fill:#FFFFFF;stroke:#231F20;stroke-linecap:round;stroke-linejoin:round;stroke-miterlimit:10;}
	.st16{fill:#D1C8C1;stroke:#231F20;stroke-linecap:round;stroke-linejoin:round;stroke-miterlimit:10;}
	.st17{opacity:0.2;}
	.st18{fill:#FCD26B;stroke:#231F20;stroke-linecap:round;stroke-linejoin:round;stroke-miterlimit:10;}
	.st19{opacity:0.2;fill:#231F20;}
	.st20{fill:#BDB09F;stroke:#231F20;stroke-linecap:round;stroke-linejoin:round;stroke-miterlimit:10;}
</style>
    <g id="left_one_00000093137292716443946280000016350396036356939935_">
	<g id="shoe">
		<path class="st0" d="M393.65,1002.03c0.1,3.63-2.15,6.99-5.06,9.11c-2.92,2.12-6.44,3.18-9.91,4.14
			c-18.42,5.05-37.42,7.61-56.37,9.98c-0.01,0-0.01,0-0.02,0c-2.72,0.33-5.55,0.66-8.2,0.05c-0.39-0.1-0.78-0.21-1.17-0.35
			c-2.98-1.05-5.55-4.02-5.08-7.16c-3.27,1.04-2.84,6.27-5.55,8.4c-1.12,0.88-2.62,1.09-4.05,1.22
			c-11.12,1.04-22.44-0.33-32.99-4.01c-1.07-0.37-2.23-0.84-2.82-1.82c-0.48-0.79-0.5-1.78-0.51-2.71
			c-0.08-8.37-0.16-16.75-0.24-25.12c-0.04-4.28-0.08-8.55-0.12-12.84c9.93,0.36,20.03,0.98,30.11,0.98
			c9.48,0,18.93-0.55,28.18-2.43c1.54-0.31,3.09-0.66,4.65-0.51c1.45,0.13,2.81,0.68,4.16,1.21c14.25,5.51,29.3,8.9,44.52,9.98
			c2.48,0.18,5,0.3,7.45,0.69c1.84,0.29,3.64,0.73,5.36,1.46C389.98,993.99,393.52,997.65,393.65,1002.03z"/>
        <path class="st0" d="M355.89,1059.9c-4.94,3.05-10.9,3.88-16.68,4.39c-19.08,1.67-38.36,0.68-57.25-2.45
			c-12.46-2.07-25.7-5.63-33.69-15.49c-0.05,1.81-0.1,3.61-0.15,5.41c-7.64,0.05-15.29-1.53-22.3-4.61
			c-1.49-0.65-2.98-1.42-4.01-2.68c-1.17-1.46-1.56-3.4-1.86-5.26c-0.91-5.57-1.57-11.24-1.9-16.92
			c-0.56-9.01-0.35-18.08,0.74-26.99c0.92-7.47,2.13-9.61,9.3-6.71c3.19,1.3,6.34,2.59,9.55,3.64c3.21,1.05,6.5,1.86,9.97,2.16
			c4.68,0.4,9.38-0.05,14.05-0.63c0.23-0.02,0.45-0.05,0.68-0.08c10.82-1.36,21.61-3.17,32.28-5.43
			c-1.33,12.27,8.13,22.97,17.91,30.42c0.18,0.13,0.35,0.27,0.53,0.4c2.95,2.23,6.02,4.34,9.24,6.18c4.33,2.48,8.9,4.49,13.74,5.67
			c5.31,1.31,10.87,1.59,16.05,3.37s10.15,5.58,11.25,10.98C364.5,1051,360.83,1056.85,355.89,1059.9z"/>
        <g class="st1">
			<path class="st2" d="M380.61,990.84c-5.23,7.15-12.79,12.92-20.97,16.39c-15.78,6.68-33.49,6.62-50.62,6.45
				c1.5,1.55,3.02,3.43,4.05,5.4c1.09,2.09,1.65,4.27,1.01,6.23c-0.18,0.6-0.48,1.17-0.9,1.72c-1.6,2.08-4.41,2.7-7,3.11
				c-29.41,4.79-60.02,2.03-88.13-7.84c-0.56-9.01-0.35-18.08,0.74-26.99c0.92-7.47,2.13-9.61,9.3-6.71
				c3.19,1.3,6.34,2.59,9.55,3.64c3.21,1.05,6.5,1.86,9.97,2.16c4.68,0.4,9.38-0.05,14.05-0.63c-0.04-4.28-0.08-8.55-0.12-12.84
				c9.93,0.36,20.03,0.98,30.11,0.98c9.48,0,18.93-0.55,28.18-2.43c1.54-0.31,3.09-0.66,4.65-0.51c1.45,0.13,2.81,0.68,4.16,1.21
				c14.25,5.51,29.3,8.9,44.52,9.98C375.64,990.33,378.16,990.45,380.61,990.84z"/>
		</g>
	</g>
        <g id="pasoe">
		<path class="st3" d="M414.79,503.81c25.59,157.58,26.59,318.02,27.51,477.69c-44.75-15.41-93.7-18.27-139.92-8.17
			c-1.44-49.26-2.88-98.62-9.31-147.48c-3.85-29.3-9.5-58.38-11.85-87.84c-1.55-19.42-1.66-38.91-1.78-58.39
			c-0.31-54.41-0.63-108.86,2.85-163.16c43.17-9.15,87.24-13.95,131.35-14.31"/>
            <path class="st4" d="M419.87,788.04L419.87,788.04c0.48,25.34,0.88,50.69,1.28,76.03c0.24,15.05,0.47,30.11,0.71,45.16
			c0.31,19.52,0.62,39.03,0.92,58.55c0.04,2.84,0.03,5.9-1.6,8.23c-1.64,2.36-4.54,3.41-7.27,4.26
			c-27.01,8.4-55.95,10.44-83.86,5.92c5.11-69.56,7.71-139.31,7.78-209.07c0.04-35.29-0.57-70.59,0.03-105.88
			c0.85-50.11,4.13-100.19,9.84-149.98c0.01-0.08,55.78-8.41,59.72-5.71c10.96,7.5,5.94,44.43,6.38,56.27
			c1.71,45.89,3.15,91.78,4.32,137.69C418.79,735.68,419.37,761.86,419.87,788.04z"/>
            <g>
			<defs>
				<path id="XMLID_00000136408521084331853630000006171281969857112235_" d="M188.29,659.08c1.07,21.85,0.86,43.91,0.95,65.48
					c0.1,25.76,1.31,51.67,2.36,77.43c2.07,50.62,1.06,101.68,1.06,152.24c0,5.4-0.26,10.71-0.52,16.02
					c-0.41,8.49-0.29,17.33,0.07,25.81c30.62,7.72,62.66,6.93,93.97,6.17c28.52-0.69,56.51-2.68,84.54-8.37
					c2.15-0.44,5.45-0.74,6.78-2.49c0,0,1.48-17.39,1.61-19.44c0.58-8.54,1.16-17.09,1.73-25.63c1.15-17.09,2.3-34.18,3.42-51.27
					c2.25-34.18,4.41-68.37,6.39-102.57c1.98-34.2,3.77-68.4,5.27-102.62c0.68-15.4,1.3-30.8,1.85-46.21
					c0.82-22.9,1.49-45.81,3.11-68.67c1.25-17.59,3.07-35.15,5.45-52.62c2.14-15.68,5.94-32.01,3.62-47.91
					c-1.27-8.68-5.85-7.93-13.21-7.96c-17.49-0.06-35.45,3.79-52.86,5.56c-25.77,2.63-51.27,2.92-77.2,2.95
					c-18.29,0.02-36.48-2.13-54.75-2.57c-11.28-0.27-24.36,1.72-27.27,14.64c-9.87,43.82-8.29,83.27-0.85,127.79
					C186.23,629.36,187.56,644.17,188.29,659.08z"/>
			</defs>
                <use xlink:href="#XMLID_00000136408521084331853630000006171281969857112235_"
                     style="overflow:visible;fill:#8B5E3C;"/>
                <clipPath id="XMLID_00000069376142068565955710000002081903541588622468_">
				<use xlink:href="#XMLID_00000136408521084331853630000006171281969857112235_" style="overflow:visible;"/>
			</clipPath>
                <g style="opacity:0.2;clip-path:url(#XMLID_00000069376142068565955710000002081903541588622468_);">
				<path class="st2" d="M370.12,541.21c4.37-0.1,8.73-0.22,13.1-0.37c10.26-0.35,21.7-1.39,28.48-9.09
					c6.41-7.28,6.05-17.5,4.4-26.46c-0.63-3.43-1.08-9.04-3.86-10.88c-3.31-2.19-15.31-0.25-19.44-0.31
					c-25.04-0.4-50.08-0.81-75.12-1.21c-50.08-0.81-100.16-1.62-150.25-2.43c-10.02-0.16-20.03-0.32-30.05-0.49
					c3.84,0.06,10.46,13.31,11.99,16.39c3.48,7.01,1.4,15.69,8.63,19.16c8.51,4.09,22.79,3.71,32.16,5.03
					c21.46,3.04,43,5.45,64.6,7.22C293.13,540.93,331.64,542.08,370.12,541.21z"/>
			</g>

                <use xlink:href="#XMLID_00000136408521084331853630000006171281969857112235_"
                     style="overflow:visible;fill:none;stroke:#231F20;stroke-linecap:round;stroke-linejoin:round;stroke-miterlimit:10;"/>
		</g>
	</g>
        <g id="upper_body">
		<path class="st6" d="M392.29,359.6c6.11,26.94,15.16,53.08,22.01,79.82c3.43,13.4,6.33,26.97,7.94,40.73
			c0.42,3.57,4.2,36.19-0.15,37.35c-3.72,0.99-8.37,0.96-12.19,0.5c-1.61-11.15-3.86-22.17-5.73-33.11
			c-0.94-5.51-0.64-10.82-4.85-15.27c-5.56-5.86-14.67-3.41-21.86-4.74c-14.02-2.6-14.04-14.14-15.7-27.08
			c-1.48-11.58-1.64-22.98-1.63-34.64c0.01-15.93-2.64-30.26-10.72-44.3c-6.28-10.92-15.5-19.69-21.96-30.58
			c-4.93-8.31-9.6-16.57-13.45-25.42c-9.99-22.98-23.85-45.58-30.57-69.8c-1.72-6.2-6.57-16.23-2.85-22.51
			c3.15-5.3,10.51-4.6,15.62-4.31c6.45,0.37,5.64-2,6.34-7.61c3.44-0.45,4.12,2.27,5.03,4.73c1.68,4.56,0.19,4.08,5.17,5.96
			c11.24,4.25,17.78,9.04,24.91,18.83c6.39,8.78,11.24,18.66,15.05,28.82c10.74,28.64,19.8,57.26,33,84.68
			C388.45,347.32,392.29,352.81,392.29,359.6z"/>
            <path class="st7" d="M285.11,189.19c6.4,1.62,13.47,3.43,18.95,7.36c2.53,1.81,3.58,3.08,3.57,6.32
			c-0.01,4.61-1.14,8.87-2.49,13.16c-0.55,1.74-1.51,3.69-2.33,5.36c-1.98,4-7.38,3.45-11.21,2.64c-4.81-1.01-9.65-1.92-14.44-3.03
			c-2-0.46-5.46-1.33-6.91-2.98c-1.58-1.8-1.05-6.36-0.66-8.49c0.62-3.39,2.21-6.58,3.15-9.89c0.76-2.68,0.72-3.45,2.45-5.54
			c1.2-1.45,2.44-3.48,3.97-4.6c1.05-0.77,3.79-1.51,5.22-1.2c1.36,0.3,2.34,1.62,3.76,1.79h0.18"/>
            <g id="Head">
			<g>
				<path class="st8" d="M341.55,140.46c-1.17,2.61-3.03,2.94-5.48,4c-1.98,0.85-2.15,2.12-1.61,4.04c0.6,2.17,0.36,4.11,0.8,6.37
					c0.37,1.85,1.66,3.76,0.81,5.43c-0.27,0.55-0.75,0.97-1.09,1.49c-3.49,5.12,3.85,10.73-0.46,16.19
					c-3.41,4.31-9.7,4.13-14.3,6.41c-3.11,1.55-6.26,3.25-9.54,4.48c-2.38,0.89-5.35,0.73-5.94,3.22c-0.67,2.76,0.09,5.63-0.72,8.45
					c-1.09,3.8-2.47,7.49-3.43,11.33c-2.14,8.48-3.49,17.18-4.03,25.93c-24.6,1.55-49.64-5.42-69.98-19.47
					c4.57-17.42,6.54-35.54,5.83-53.55c-0.14-3.63-0.4-7.35-1.76-10.72c-1.85-4.62-5.54-8.18-8.74-11.99
					c-14.47-17.23-19.09-43.94-6.73-62.76c10.75-16.36,31.27-23.42,50.69-24.96c17.37-1.39,40.21,1.75,51.11,17.16
					c3.41,4.83,5.34,9.97,8.07,15.08c2.47,4.62,6.29,8.85,6.82,14.27c0.42,4.2-0.39,8.34-0.44,12.53c-0.01,0.08-0.01,0.15-0.01,0.23
					c-0.01,2.15,0.34,4.59,1.05,6.81c0.39,1.21,0.88,2.35,1.49,3.34c0.22,0.36,0.45,0.71,0.69,1.05c1.93,2.72,4.6,4.97,6.5,7.71
					C342.77,134.86,342.69,137.93,341.55,140.46z"/>
                <path class="st2" d="M272.95,83.92c-0.72,3.36-1.92,6.39-0.18,9.85c1.05,2.09,2.82,3.72,4.2,5.61c1.38,1.89,2.4,4.35,1.62,6.56
					c-0.72,2.03-2.75,3.28-4.76,4.02c-2.01,0.74-4.17,1.14-6,2.27c-3.19,1.97-3.59,5.83-2.71,9.16c0.76,2.87,2.03,5.63,2.31,8.6
					c0.17,1.84-0.54,4.22-2.37,4.34c-2.58,0.16-4.19-5.23-4.82-7.08c-0.85-2.49-2.12-3.81-4.27-5.21c-2.34-1.52-4.28-3.24-6.48-4.92
					c-1.85-1.42-3.59-1.81-5.91-2c-3.13-0.27-5.24,0.32-8.12,1.43c-4.47,1.72-4.8,3-4.31,7.66c0.44,4.16,2.12,8.13,3.83,11.9
					c2.11,4.68,3.59,7.21,8.28,8.98c4.78,1.81,8.61,4.35,6.04,10.11c-1.65,3.69-4.11,7.02-7.15,9.68
					c-2.37,2.08-7.22,5.53-10.49,3.67c-1.4-0.79-2.07-2.41-2.59-3.93c-1.46-4.31-2.45-8.79-4.3-12.94c-1.15-2.58-2.67-5.06-4.7-7.05
					c-1.85-1.82-3.8-3.01-5.47-5.04c-3.85-4.69-6.42-10.15-8.32-15.88c-5.76-17.35-5.5-37.64,4.76-52.74
					c7.39-10.89,19.38-18.13,32.12-21.19c9.74-2.34,19.91-2.36,29.78-0.89c9.36,1.4,16.71,5.7,25.65,8.46
					c1.57,0.48,3.39,1.22,3.74,2.83c-4.75,1.21-9.73,1.09-14.55,1.95s-9.82,2.99-12.22,7.27c-2.29,4.08-1.67,8.82-2.37,13.26
					C273.13,83.08,273.04,83.5,272.95,83.92z"/>
                <path class="st9" d="M280.62,184.64c1.55-0.83,8.99,1.41,9.95,1.77c3.63,1.35,7.22,3.03,11.1,3.55
					c0.42,0.06,0.86,0.11,1.19,0.37c0.91,0.7,0.05,3.4-0.07,4.33c-0.04,0.3-0.09,0.61-0.29,0.83c-0.33,0.36-0.9,0.31-1.38,0.2
					c-3.62-0.78-6.85-3-9.91-4.98c-1.59-1.03-3.06-2.24-4.71-3.17c-0.84-0.48-1.73-0.9-2.67-1.15c-0.91-0.24-2.01-0.04-2.85-0.45
					c-0.32-0.15-0.59-0.44-0.64-0.79C280.31,184.91,280.41,184.75,280.62,184.64z"/>
                <path class="st8" d="M321.85,183.68c-1.17,0.48-2.44,0.54-6.14-0.44c-2.14-0.57-4.06-2.04-4.97-3.47"/>
                <path class="st2" d="M320,109.08c-1.24,0.64-2.57,0.14-3.84-0.01c-1.3-0.15-2.79,0.21-4.08,0.42c-2.91,0.47-5.79,1.18-8.59,2.12
					c-2.08,0.69-4.12,1.51-6.11,2.44c-0.61,0.29-1.85,1.28-2.23,0.71c-0.4-0.59,0.31-1.83,0.67-2.26c0.61-0.72,1.46-1.19,2.29-1.64
					c2.18-1.18,4.37-2.1,6.7-2.94c1.19-0.43,2.4-0.82,3.62-1.16c1.11-0.32,2.53-0.93,3.69-0.93c1.84-0.4,6.01-1.56,7.47,0.13
					C320.08,106.53,320.82,108.65,320,109.08z"/>
                <path class="st9"
                      d="M327.59,143.54c1.06-0.31,7.54-3.46,7.09-1.26c-1.96,0.79-4.58,2.81-6.74,1.43L327.59,143.54z"/>
                <path class="st9" d="M247.3,147.22c2.9,0.43,5.11,2.75,8.48,2.46c1.12-0.1,2.38-0.38,3.3-1.05c0.71-0.52,1.18-1.78,1.76-1.92
					c-0.23,3.35-1.39,7.3-5.46,7.35C251.72,154.1,250.72,150.01,247.3,147.22z"/>
                <path class="st10" d="M319.11,116.15c-0.2-0.02-0.41-0.03-0.61-0.04c-1.99-0.08-4.11,0.24-6.12,0.5
					c-0.54,0.07-1.06,0.13-1.59,0.18c-1.46,0.13-2.97,0.56-4.36,1.02c-1.09,0.37-2.29,0.87-3.25,1.52
					c-0.72,0.49-1.23,0.74-2.12,1.52"/>
                <path class="st2" d="M317.95,120.22c-1.17,1.17-3.53,0.55-4.45-0.58c-0.6-0.74-1.11-1.96-1.12-3.03
					c2.01-0.25,4.13-0.58,6.11-0.5C318.61,117.69,318.66,119.53,317.95,120.22z"/>
                <path class="st8" d="M333.12,154.42c-2.78,0.88-6.36,0.69-9.15,1.44c-2.16,0.58-3.47,1.68-5.41,2.78"/>
                <path class="st9" d="M248.82,125.63c-1.84-1.27-3.67-2.68-5.84-3.18c-2.17-0.5-4.83,0.21-5.77,2.23
					c-0.94,2.01,0.11,4.35,1.15,6.32c1.48,2.79,3.01,5.66,5.42,7.7c2.41,2.04,5.95,3.08,8.8,1.71c0.7-0.34,1.36-0.84,1.68-1.54
					s0.22-1.64-0.38-2.13c-0.69-0.55-1.68-0.36-2.55-0.47c-1.81-0.24-3.23-2.13-2.95-3.94c0.18-1.15,1.03-2.12,2.07-2.59
					c0.8-0.35,3.3,0.3,3.66-0.11C255.15,128.48,249.48,126.09,248.82,125.63z"/>
                <path class="st9" d="M332.51,163c-1.67,0.18-3.34,0.43-4.99,0.75c0.15,2.15,1.71,4.13,3.76,4.77c0.31,0.1,0.7,0.15,0.92-0.09
					c0.17-0.18,0.16-0.46,0.15-0.71c-0.07-1.28-0.03-2.56-0.1-3.84L332.51,163z"/>
                <path class="st2" d="M332.89,105.93c0.02-0.68,0-1.2-0.7-1.5c-0.3-0.13-0.63-0.17-0.95-0.21c-0.35-0.05-0.71-0.09-1.03,0.06
					c-0.47,0.22-0.67,0.78-0.7,1.3c-0.03,0.55-0.09,1.13-0.11,1.66c-0.02,0.46,0.33,0.98,0.76,1.15c0.25,0.1,0.52,0.09,0.78,0.07
					c0.41-0.04,0.82-0.13,1.16-0.37C332.72,107.66,332.87,106.64,332.89,105.93z"/>
                <path class="st9" d="M334.66,124.8c-0.49,0.02-0.95-0.34-1.33-0.69c-1.26-1.23-2.33-2.63-3.16-4.17
					c-0.7-1.3-1.26-2.78-0.95-4.22c0.24-1.11,1.15-2.13,2.22-2.36c-0.01,0.08-0.01,0.15-0.01,0.23c-0.01,2.15,0.34,4.59,1.05,6.81
					c0.39,1.21,0.88,2.35,1.49,3.34C334.19,124.11,334.42,124.46,334.66,124.8z"/>
                <path class="st8" d="M323.79,137.14c-2.31,4.49-6.14,8.19-10.72,10.33c-0.84,0.39-1.72,0.75-2.41,1.37
					c-0.82,0.75-1.28,1.81-1.64,2.85c-0.67,1.9-1.14,3.87-1.38,5.87"/>
			</g>
                <path class="st10" d="M331.44,113.07c0.01,0.27-0.26,0.47-0.52,0.53c-0.26,0.06-0.54,0.03-0.8,0.11
				c-0.54,0.16-0.86,0.74-0.89,1.3c-0.06,1.04,0.56,2.38,0.91,3.35c0.39,1.08,0.89,2.12,1.49,3.1c1.24,2.07,3.06,4.26,4.96,5.73"/>
		</g>
            <path class="st7" d="M233.92,175.99c0.84,0.46,1.64,0.94,2.33,1.29c5.19,2.56,10.3,5.3,15.5,7.86
			c10.22,5.03,20.64,9.72,31.48,13.23c4.21,1.36,8.47,2.51,12.78,3.48c2.67,0.6,6.38,0.82,8.13,3.24
			c2.86,3.95,0.14,10.58-1.51,14.49c-4.02,9.55,0.78,19.62-0.1,29.55c-0.8,9.12-8.93,8.42-15.95,8.46
			c-9.81,0.06-19.62-0.16-29.42-0.64c-19.82-0.98-39.58-3.07-59.17-6.26c-0.36-8.99-0.69-18.22,2.16-26.75
			c1.44-4.31,3.66-8.31,6-12.21c3.76-6.26,7.94-12.24,12.33-18.06c2.07-2.74,3.7-5,4.93-8.22c1.22-3.2,2.22-6.54,4.07-9.45
			C229.01,173.62,231.62,174.73,233.92,175.99z"/>
            <g>
			<defs>
				<path id="XMLID_00000070828153103773801410000010652218010450332317_" d="M304.66,220.48c2.48,3.55,3.35,8.34,5.03,13.19
					c6.99,20.13,15.56,39.67,22.34,59.98c3.14,9.4,6.43,18.78,10.85,27.64c7.24,14.53,17.19,27.18,26.48,40.21
					c9.43,13.24,14.28,32.5,18.95,47.96c5.96,19.72,10.24,39.96,12.78,60.42c1.27,10.25,1.96,20.51,2.48,30.81
					c0.26,5.21,1.87,15.87-1.79,20.18c-1.77,2.07-10.33,2.76-13.28,3.18c-12.6,1.79-25.8,2.44-38.71,2.47
					c-54.04,0.12-107.9-7.28-160.73-17.11c-3.12-0.58-11.77,0.2-13.54-1.84c-1.86-2.15-1.07-11.45-0.97-14.04
					c0.37-9.94,5.26-20.2,5.26-30.04c0.01-9.45-5.27-18.47-6.21-27.75c-1.46-14.33-2.94-29.51-3.05-43.87
					c-0.16-20.86-3.71-41.41-3.7-62.24c0-10.49-2.35-21.69,0.45-31.96c2.5-9.18,2.79-17.97,3.7-27.59
					c1.93-20.32,6.99-40.39,19.81-56.66c6.2-7.86,14.32-13.22,21.61-19.89c1.68-1.53,4.3-3.88,6.72-3.88c2.65,0,5.86,2.56,8.32,3.66
					c6.65,3,13.51,5.52,20.44,7.79c13.79,4.51,27.89,7.99,41.8,12.09c2.7,0.8,5.23,1.62,7.91,2.39
					C300.96,216.55,303.12,218.28,304.66,220.48z"/>
			</defs>
                <use xlink:href="#XMLID_00000070828153103773801410000010652218010450332317_"
                     style="overflow:visible;fill:#D6D6D4;"/>
                <clipPath id="XMLID_00000067947831039844440920000007459180691595774385_">
				<use xlink:href="#XMLID_00000070828153103773801410000010652218010450332317_" style="overflow:visible;"/>
			</clipPath>
                <g style="opacity:0.2;clip-path:url(#XMLID_00000067947831039844440920000007459180691595774385_);">
				<path class="st2" d="M205.87,379.48C205.87,379.48,205.87,379.48,205.87,379.48c3.89,21.54,8.62,44.68,24.7,59.53
					c10.22,9.44,23.93,14.31,37.67,16.53c13.73,2.22,27.72,2.03,41.62,2.7c31.28,1.49,62.18,7.32,92.95,13.13
					c2.35-9.11,4.71-18.34,4.71-27.75c-0.01-9.41-2.65-19.17-9.13-26c-5.22-5.49-12.42-8.62-19.6-11.03
					c-18.42-6.17-37.88-8.46-56.72-13.18c-18.84-4.72-37.77-12.37-50.74-26.83c-8.41-9.38-13.79-21.05-18.47-32.75
					c-3.91-9.75-7.52-19.84-14-28.11c-10.92-13.93-42.54-21.26-45.35,3.48c-1.02,8.92,3.33,20.15,4.9,28.84
					C200.88,351.85,203.37,365.67,205.87,379.48z"/>
			</g>

                <path
                    style="clip-path:url(#XMLID_00000067947831039844440920000007459180691595774385_);fill:none;stroke:#231F20;stroke-linecap:round;stroke-linejoin:round;stroke-miterlimit:10;"
                    d="
				M192.7,432.15c-8.66,19.45-15.46,40.85-20.12,63.29"/>

                <path
                    style="clip-path:url(#XMLID_00000067947831039844440920000007459180691595774385_);fill:none;stroke:#231F20;stroke-linecap:round;stroke-linejoin:round;stroke-miterlimit:10;"
                    d="
				M186.21,413.99c-1.87,10.69-3.74,21.38-5.61,32.07"/>

                <use xlink:href="#XMLID_00000070828153103773801410000010652218010450332317_"
                     style="overflow:visible;fill:none;stroke:#231F20;stroke-linecap:round;stroke-linejoin:round;stroke-miterlimit:10;"/>
		</g>
            <path class="st10" d="M344.38,278.09c3.03,0,12.46-0.78,15.42-1.73"/>
	</g>
        <g id="Kaung_Paung">
		<g>
			<g>
				<defs>
					<path id="XMLID_00000150810235204727637990000007167253348048350120_" d="M201.17,115.76c-3.48-9.84-6.74-20.18-6.52-30.75
						c0.22-10.45,3.26-17.5,10.72-24.5c13.55-12.72,31.67-20.49,50.2-21.17c15.35-0.56,32.87,3.98,46.46,13.23
						c0.4,0.28,1.8-1.16,2.19-0.88c7.79,5.56,13.2,14.45,16.98,23.14c0.36,0.82,1.73,3.17,1.44,4.05c-0.41,1.26-2.64,1.22-3.83,1.49
						c-13.14,3.01-25.91,7.68-37.94,13.79c-13.24,6.73-25.6,15.21-36.65,25.17c-4.65,4.2-8.96,8.81-13.3,13.33
						c-4.16,4.34-8.22,9.8-13.02,13.39c-4.63-4.07-8.04-9.44-10.73-14.95c-1.37-2.8-2.52-5.69-3.58-8.63
						C202.79,120.28,201.97,118.03,201.17,115.76z"/>
				</defs>
                <use xlink:href="#XMLID_00000150810235204727637990000007167253348048350120_"
                     style="overflow:visible;fill:#FFDAA8;"/>
                <clipPath id="XMLID_00000175318639453183967830000009859600815762016672_">
					<use xlink:href="#XMLID_00000150810235204727637990000007167253348048350120_"
                         style="overflow:visible;"/>
				</clipPath>
                <g style="opacity:0.3;clip-path:url(#XMLID_00000175318639453183967830000009859600815762016672_);">
					<path class="st2" d="M248.08,98.68L248.08,98.68c2.03,4.67,2.67,9.92,2.79,15.08c0.11,4.83-0.29,9.93-2.84,13.89
						c-2.29,3.56-6.04,5.73-9.89,6.94c-3.9,1.22-8.2,1.56-11.96-0.11c-4.26-1.9-7.35-6.22-8.8-10.96c-1.45-4.75-1.42-9.89-0.8-14.84
						c0.81-6.51,3.37-13.78,8.12-18.19c4.04-3.75,11.47-3.48,15.86-0.85C243.91,91.63,246.47,94.97,248.08,98.68z"/>
				</g>

                <use xlink:href="#XMLID_00000150810235204727637990000007167253348048350120_"
                     style="overflow:visible;fill:none;stroke:#231F20;stroke-linecap:round;stroke-linejoin:round;stroke-miterlimit:10;"/>
			</g>
            <path class="st10" d="M242.47,81.54c17.04-11.32,35.6-20.34,55.03-26.74"/>
            <path class="st10" d="M279.26,55.9c3.74-1.59,7.62-2.84,11.58-3.75"/>
		</g>
            <path class="st14" d="M190.89,111.18c2.99-4.44,5.99-8.89,9.38-13.02c3.39-4.13,7.33-8.03,12.28-10c3.8-1.51,7.98-1.79,12.07-1.72
			c3.52,0.06,7.13,0.38,10.31,1.92c4.71,2.27,7.91,7,9.4,12.04s1.46,10.4,1.12,15.65c-0.45,6.97-1.45,13.97-3.92,20.49
			c-2.09,5.5-5.18,10.56-8.34,15.51c-4.61,7.22-9.4,14.31-14.38,21.27c-1.36-8.14-4.04-16.06-7.9-23.34
			c-1.64-3.09-3.52-6.11-6.08-8.48c-1.85-1.72-4.01-3.07-6.15-4.4c0,0,0,0,0,0c-3.19-1.98-6.41-3.98-9.86-5.47
			c-2.14-0.92-6.55-1.17-7.58-3.47C179.47,124.21,188.82,114.25,190.89,111.18z"/>
            <path class="st10" d="M195.27,128.31c4.66-9.71,10.53-18.84,17.44-27.11"/>
            <path class="st14" d="M220.52,95.14c-3.31,5.93-6.61,11.87-9.92,17.8c-3.66,6.57-7.33,13.15-11.75,19.24
			c-1.74,2.4-3.66,4.84-4.22,7.75c7.51,0.66,16.77,9.12,19.21,16.25"/>
            <path class="st9" d="M287.89,58.12c-19.73,6.75-38.12,16.84-53.61,29.44c-1.21,0.12-2.59-0.13-3.59-0.62
			c15.28-10.92,32.11-20.27,49.92-27.73c2.38-1,4.99-1.86,7.43-1.36L287.89,58.12z"/>
	</g>
        <g id="Hand">
		<path class="st8" d="M515.28,426.5c-1.99,0.7-3.66-0.13-5.06-1.55c-2-2.02-4.03-4.12-5.98-6.08c2.92,2.94,4.53,9.3,2.17,12.89
			c-0.88,1.33-2.09,2.39-3.42,3.26c-1.17,0.77-2.83,1.13-3.88,1.97c-0.67,0.54-1.14,1.62-1.79,2.26c-1.31,1.29-2.93,2.27-4.68,2.85
			c-1.1,0.36-2.71,0.17-3.53,0.94c-0.96,0.89-0.8,2.61-1.89,3.53c-1.34,1.13-3.22,1.54-4.95,1.26c-5.23-0.84-7.53-6.65-12.77-7.41
			c-9.7-1.42-21.07-1.17-29.34-7.23c-3.35-2.46-6.29-4.56-10.49-5.3c-4.26-0.75-7.53-3.29-11.48-4.6
			c-4.88-1.62-10.25-1.63-15.33-1.73c-7.79-0.16-15.4-1.25-23.15-2.06c-4.11-0.43-13.1,0.45-15.17-3.81
			c-2.58-5.33,2.95-14.11,4.77-18.82c2.14-5.52,5.35-12.83,10.86-15.7c4.69-2.44,11.23-1.93,16.39-1.37
			c9.37,1,18.91,3.89,27.95,6.44c9.84,2.77,17.24,6.28,27.61,4.41c0.05-0.01,0.1-0.02,0.15-0.03c0.03,0.41,0.04,0.84,0.01,1.29
			c-0.25,4.23-1.31,8.32,5.12,7.05c5.77-1.15,6.46-5.46,6.54-10.23c0.05-0.01,0.09-0.02,0.14-0.02c6.53-0.69,14.14,0.72,20.55,2.06
			c3.82,0.79,6.74,3.79,10.24,5.29c4.44,1.89,8.84,3.98,12.7,6.91c3.01,2.28,5.67,5.12,7.5,8.44c2.02,3.68,1.67,6.58,2.05,10.53
			C517.37,424.52,518.02,425.53,515.28,426.5z"/>
            <path class="st10" d="M483.61,397.03c-0.29,1.1-0.58,2.2-0.87,3.3"/>
            <path class="st10" d="M486.79,404.8c5.95,2.57,11.3,6.52,15.49,11.46"/>
            <path class="st10" d="M481.2,414.24c0.03,1.47-0.32,2.95-1.01,4.25"/>
            <path class="st10" d="M497.88,432.8c-1.7-3.07-2.93-6.24-5.52-8.76c-3.1-3.02-6.75-3.95-10.6-5.51"/>
            <path class="st10" d="M477.69,429.52c0.01,0.96-0.28,1.93-0.82,2.73"/>
            <path class="st15" d="M403.12,381.59c0.06-0.56,0.13-1.12,0.19-1.68c8.59,0.33,17.16,1.4,25.57,3.2
			c-0.99,14.14-2.18,27.89-7.78,41.11c-1.12,2.64-1.85,5.27-4.61,5.94c-3.14,0.76-7.78-0.92-10.72-1.97
			c-1.98-0.72-6.47-1.67-8.06-2.97c-1.74-1.43-0.95-3.19-0.6-5.87c0.91-6.9,1.8-13.74,3.32-20.53
			C401.67,393.26,402.47,387.29,403.12,381.59z"/>
            <path class="st6" d="M220.2,219.19c10.24,0.88,20.21,4.46,28.74,10.18c8.82,5.91,14.65,13.55,20.11,22.5
			c4.13,6.76,4.16,15.07,5.88,22.68c0.24,1.07,0.52,2.13,0.84,3.16c3.1,9.93,5.48,20.34,8.63,30.1c2.03,6.29,2.61,13.1,5.6,19.07
			c2.81,5.6,10.13,8.47,10.33,15.35c10.15-1.1,3.3,5.27,6.14,9.21c3.48,4.82,24.95,7.61,31.05,9.81
			c12.23,4.42,25.62,7.42,38.6,10.35c11.64,2.63,23.29,4.21,34.89,6.47c7.81,1.52,7.3,0.18,8.91,7.86
			c1.01,4.85-0.48,10.01-1.25,14.48c-1.66,9.74-4.4,18.77-5.85,28.53c-0.66,4.49-0.25,12.48-3.01,16.26
			c-2.69,3.69-8.81,2.99-13.1,2.72c-18.38-1.15-36.71-2.93-54.97-5.33c-16.49-2.17-33.13-2.69-49.58-4.87
			c-13.37-1.77-26.98-4.85-39.18-10c-9.38-3.96-18.57-8.87-26.81-14.88c-8.97-6.55-4.34-16.31-8.6-25.23
			c-5.69-11.93-10.06-25.12-15.08-37.56c-4.83-11.97-9.79-23.66-15.32-35.27c-2.95-6.19-3.81-12.95-4.89-19.65
			c-0.89-5.53-3.41-11.51-3.24-17.01"/>
            <path class="st10"
                  d="M252.52,356.55c7.37-1.49,14.15-4.94,21.38-6.9c3.9-1.06,7.62-0.97,11.52-1.53c3.11-0.45,5.87-1.93,9-2.7"/>
            <path class="st10" d="M255.28,373.26c5.41-8.85,15.34-14.18,23.73-19.43c3.89-2.44,8.86-5.19,15.41-8.4"/>
            <path class="st10" d="M480.1,432.31c1.69,0.63,3.15,1.77,4.39,3.09c1.23,1.32,2.26,2.81,3.27,4.3"/>
            <path class="st10" d="M266.07,237.69c2.15,7.55,8.7,14.07,11.49,21.56c1.63,4.37,2.45,9.46,3.59,14.02
			c2.45,9.71,2.31,21.2,2.37,31.23"/>
	</g>
</g>
    <g id="Nay_Win">
	<g id="Right_hand">
		<path class="st8" d="M472.55,431.28c-1.62-2.08-6.5-2.52-6.62,1.02c-0.01,0.4,0.06,0.82-0.04,1.21s-0.48,0.75-0.87,0.65
			c-0.32-3.91,1.35-8.35-2.98-10.73c-3.3-1.82-5.62,0.02-7.03,2.98c-0.79-0.69-0.66-3.12-1.15-4.22c-0.62-1.37-1.76-2.56-3.22-2.92
			c-1.73-0.42-3.68,0.54-4.41,2.16c-0.19,0.42-0.3,0.88-0.53,1.29c-0.86,1.53-2.51-0.29-3.6-0.65c-1.66-0.55-3.24-0.27-4.55,0.9
			c-1.91,1.71-2.79,4.26-3.6,6.7c-0.39,1.19-0.79,2.42-0.66,3.66c0.19,1.86,1.59,3.45,3.28,4.26c1.39,0.66,4.74,1.52,6.02,0.38
			c0.78,2.11,2.64,3.77,4.68,4.63c1.05,0.44,2.2,0.71,3.35,0.64c0.24-0.01,2.91-0.65,2.76-0.89c2.2,3.48,9.68,7.61,12.25,2.22
			c0.08,1.84,1.69,3.32,3.45,3.85c1.69,0.51,4.82,1,6.19-0.37c1.81-1.82,0.77-5.64,0.2-7.72c-0.57-2.09-1.16-4.18-1.74-6.27
			c-0.27-0.95-0.54-1.93-1.14-2.72C472.58,431.32,472.56,431.3,472.55,431.28z"/>
        <path class="st8" d="M554.94,402.7c-1.04,1.38-2.52,2.47-4.57,3.18c-4.47,1.55-9.36,2.49-13.89,3.81
			c-6.41,1.87-13.76,4.06-19.77,6.61c-0.47-2.41-1.19-4.88-2.69-6.87c-5.88-7.82-13.85-13.08-23.07-15.65
			c-6.11-1.7-12.58-4.5-18.79-5.19c-2.57-0.29-5.32-0.19-8.1,0.1c-0.02-0.48-0.05-0.97-0.12-1.46c0,0.5-0.01,1-0.02,1.48
			c-0.03,1.96-0.37,3.86-0.44,5.79c-0.06,1.78-0.68,3.53-1.77,4.94c-1.42,1.84-3.61,3.05-5.92,3.28c-1.22,0.12-2.63-0.13-3.27-1.17
			c-0.47-0.78-0.37-1.77-0.28-2.68c0.37-3.76,0.17-7.58-0.59-11.28c-0.24-1.15-0.53-2.32-0.38-3.49c0.29-2.27,3.04-3.8,5-4.51
			c2.23-0.81,4.63-1,6.87-1.8c3.2-1.14,5.46-3.13,9.01-3.13c3.59,0,7.69,1.45,11.33,2.14c3.66,0.7,7.89,0.24,11.22,1.71
			c3.41,1.52,5.11,2.99,9.31,2.23c6.18-1.11,12.66-3.77,18.32-6.44c4.59-2.17,9.09-4.16,13.81-6.04c2.87-1.15,7.83-2.67,9.9-4.65
			c1.78,0.56,2.7,5.41,3.69,7.85C552.57,378.42,560.76,394.99,554.94,402.7z"/>
        <path class="st10" d="M509.13,396.28c3.2,1.24,6.83,1.31,10.07,0.19"/>
        <path class="st10" d="M512.63,400.95c0.56-0.05,1.13-0.11,1.69-0.16"/>
        <path class="st10"
              d="M453.86,399.41c1.24-0.22,2.49-0.45,3.73-0.67c0.27-0.05,0.55-0.1,0.77-0.25c0.65-0.45,0.53-1.42,0.33-2.19"
        />
        <path class="st10" d="M454.7,382.07c1.31,0.01,2.62,0.24,3.86,0.66"/>
        <path class="st15" d="M540.34,367.35c-1.24-6.1-13.83-0.14-17.05,0.87c-2.37,0.74-6.23,1.53-8.06,3.31
			c-2.85,2.77-0.41,8.13,0.14,11.45c0.86,5.19,1.76,10.37,2.7,15.54c1.89,10.35,3.97,20.66,6.36,30.89
			c0.19,0.83,0.45,1.74,1.19,2.17c0.61,0.35,1.36,0.25,2.06,0.13c5.89-0.98,11.74-2.2,17.53-3.65c0.43-0.11,0.88-0.23,1.21-0.52
			c0.46-0.41,0.6-1.07,0.69-1.68c0.39-2.58,0.42-5.2,0.37-7.81C547.18,400.96,543.76,384.1,540.34,367.35z"/>
        <path class="st16" d="M661.04,235.89c-3.78,11.99-2.49,28.98-6.21,40.98c-3.54,11.45-10.93,22.07-16.8,32.6
			c-3.26,5.84-6.7,10.58-11.25,15.45c-0.86,0.91-1.73,1.84-2.8,2.48c-1.32,0.78-2.88,1.08-4.26,1.75
			c-3.97,1.93-6.65,5.69-10.74,7.63c-7.06,3.35-13.17,7.72-20.69,10.21c-9.26,3.07-18.68,5.61-28.24,7.04
			c-7.5,1.13-14.73,3.5-21.95,5.75c-6.37,1.98-10.5,1.62-7.44,9.14c1.6,3.93,2.39,8.82,3.11,13c1.58,9.16,3.18,18.31,5.03,27.42
			c0.95,4.7,2.43,9.28,3.59,13.93c0.57,2.28,0.53,4.75,0.84,7.08c0.5,3.77,0.16,5.16,4.15,4.35c9.73-1.97,19.36-4.68,29.01-7.01
			c23.62-5.71,48.26-9.96,71.26-17.7c26.02-8.76,38.2-33.69,49.91-56.83c6.4-12.64,12.8-25.28,19.2-37.92
			c3.36-6.64,6.79-13.53,7.3-21.01c0.4-5.93-1.08-11.82-2.55-17.58c-5.01-19.66-14,2.43-25.21-14.59
			c-6.18-9.38-16.11-68.62-24.99-58.35C664.53,211.53,664.15,226.01,661.04,235.89z"/>
        <path class="st10" d="M626.32,330.09c10.88,4.33,18.25,11.24,24.16,21.12"/>
        <path class="st10" d="M635.43,330.09c8.08-0.38,15.98,2.34,23.24,5.51"/>
        <path class="st10" d="M436.93,428.43c0.97,1.24,2.56,1.97,4.14,1.91"/>
        <path class="st10" d="M451.66,423.12c-1.29,0.11-2.6,0.01-3.87-0.29c-0.7,1.37-1.45,3.22-1.11,4.72"/>
        <path class="st10" d="M457.45,426.34c0.87,1.04,2.32,1.56,3.66,1.31"/>
        <path class="st10" d="M465.08,437.01c0.09,1.86,0.19,3.72,0.28,5.59"/>
        <path class="st10" d="M453.52,439.59c-0.18-3.4-0.01-6.82,0.5-10.18"/>
        <path class="st10" d="M442.17,435.15c0.25-2.86,0.8-5.69,1.63-8.44"/>
	</g>
        <g id="shoe_00000145055280301826582250000013281510243184487558_">
		<path class="st0" d="M765.82,995.12c-0.2,1.65-0.47,3.3-0.8,4.94c-1.98,9.6-6.36,18.49-10.7,27.22c-0.56,1.14-1.14,2.31-2.13,3.06
			c-1.16,0.87-2.67,1.04-4.1,1.17c-4.77,0.45-9.54,0.89-14.32,1.34c-3.24,0.32-6.66,0.59-9.59-0.87c-2.93-1.47-5-5.33-3.45-8.28
			c-27.7,13.52-59.4,18.11-89.64,12.98c-7.17-1.22-15.95-5.06-15.73-12.58c0.2-6.87,7.85-10.44,14.23-12.41
			c8.91-2.73,17.83-5.48,26.74-8.22c6-1.85,12.19-3.78,17.06-7.83c1.53-1.28,2.9-2.75,4.2-4.28c0.93-1.1,1.83-2.24,2.72-3.38
			c5.54-7.04,10.94-14.21,16.63-21.13c5.93-7.2,6.99-6.48,16.16-4.91c4.28,0.74,51.76,4.61,51.76,2.4
			C765.99,974.56,767.07,984.96,765.82,995.12z"/>
            <path class="st0" d="M855.13,1030.73c-0.24,3.3-0.6,5.84-1.01,6.86c-2.67,6.62-10.74,10.31-16.3,15.17
			c-12.05,10.53-19.79,23.79-36.99,25.65c-11.77,1.28-41.96,3.17-50.38-5.79c-12.52-13.33,9.26-24.03,17.08-32.75
			c2.39-2.66,4.65-6.8,6.89-11.42c5.25-10.85,10.31-24.42,16.42-28.08c5.58-3.36,23.37,0.39,30.01,0.54
			c10.47,0.27,20.95,0.53,31.44,0.78C855.52,1001.77,855.89,1020.13,855.13,1030.73z"/>
            <g class="st1">
			<path class="st2" d="M764.87,964.34c1.11,10.22,2.19,20.62,0.95,30.78c-2.76,0.72-5.61,1.17-8.45,1.55
				c-25.83,3.45-52.33,1.83-77.54-4.71c-0.74-0.2-1.49-0.39-2.22-0.6c0.93-1.1,1.83-2.24,2.72-3.38
				c5.54-7.04,10.94-14.21,16.63-21.13c5.93-7.2,6.99-6.48,16.16-4.91C717.39,962.67,764.87,966.54,764.87,964.34z"/>
		</g>
            <g class="st1">
			<path class="st2" d="M855.13,1030.73c-1.07,0.59-2.19,1.11-3.33,1.53c-5.78,2.16-12.07,2.37-18.22,2.43
				c-12.82,0.1-25.63-0.38-38.39-1.47c-5.48-0.47-10.96-1.05-16.24-2.57c-1.62-0.47-3.29-1.07-4.53-2.21
				c5.25-10.85,10.31-24.42,16.42-28.08c5.58-3.36,23.37,0.39,30.01,0.54c10.47,0.27,20.95,0.53,31.44,0.78
				C855.52,1001.77,855.89,1020.13,855.13,1030.73z"/>
		</g>
	</g>
        <g id="Pants">
		<path class="st16" d="M788.78,976.72c-3.59,10.39-7.17,10.13-16.78,9.97c-1.08-0.02-2.25-0.03-3.5-0.03
			c-10.64,0.01-20.68-1.08-31.14-2.77c-9.75-1.58-19.82-6.52-29.37-8.85c-6.93-1.7-17.92-3.73-17.92-3.73
			c-0.49-11.32-0.46-99.32,0.9-125.74c2.55-49.47-5.83-71.61-15.4-119.22c-8.02-39.88-12.67-80.44-13.88-121.12
			c-0.29-9.48-0.38-18.97-0.29-28.45c0.06-6.86,0.4-14.24,4.57-19.67c8.97-11.71,32.59-1.53,43.79,0.24
			c0.46,0.07,0.91,0.14,1.38,0.21c19.06,2.9,38.41,3.78,57.65,2.59c-1.67,19.86-3.32,39.8-4.31,59.74
			c-1.62,32.52-1.44,65.04,3.45,97.14c8.94,58.69,33.45,114.76,35.17,174.15C803.81,915.96,796.89,953.3,788.78,976.72z"/>
            <path class="st16" d="M873.79,999.81c0,0-17.2,11.53-49.26,11.53c-3.09,0-39.85-5.2-49.99-6.67c-1.47-0.21-2.54-1.48-2.51-2.95
			c0.08-4.02,0.06-9.16-0.03-15.03c-0.42-28.54-2.51-85.82-3.5-101.86c-1.01-16.32-4.32-32.38-7.61-48.37
			c-7.39-35.9-14.79-71.78-22.18-107.67c-6.47-31.35-12.84-62.72-19.38-94.05c-1.92-9.22-4.87-18.87-7.4-28.61
			c-2.93-11.27-5.32-22.66-4.94-33.67c0.21-6.38,1.71-11.2,4.15-14.89c2.18-3.29,5.1-5.68,8.56-7.49c6.5-3.4,14.88-4.7,23.66-5.86
			c15.47-2.05,31.02-3.59,46.51-5.47c18.38-2.22,44.94-12.01,55,10.38c0.52,1.16,1,2.34,1.44,3.55c6.07,16.5,5.5,37.9,3.92,60.15
			c-1.17,16.48-2.91,33.43-2.91,49.21c0,39.96,8.33,122.1,12.76,137.89c2.23,7.96,4.99,16.29,6.15,24.47
			c3.44,24.31,6.43,48.38,8.05,73.07c1.23,18.5,0.05,41.76,0.52,60.28C875.04,967.65,873.79,999.81,873.79,999.81z"/>
            <g class="st17">
			<path class="st2" d="M850.21,612.83c-7,3.3-15.19,3.97-23.03,4.44c-20.89,1.28-41.79,2.16-62.71,2.64
				c-15.76,0.37-32.92,0.53-48.69,0.45c-1.69-4.66-1.98-9.34-3.67-14c-0.03-0.08-0.09-0.16-0.19-0.23
				c-0.16-0.12,4.06,14.5,8.46,34.42c15.2,68.74,48.05,220.44,45.21,220.28c-3.82-0.21-65.44-232.35-76.97-248.17
				c-6.25-8.57-21.87-7.47-26.94-7.42c-0.29-9.48-0.38-18.97-0.29-28.45c0.06-6.86,0.4-14.24,4.57-19.67
				c8.97-11.71,32.59-1.53,43.79,0.24c0.46,0.07,0.91,0.14,1.38,0.21c2.18-3.29,5.1-5.68,8.56-7.49c42.2,0.87,84.41,1.74,126.61,2.6
				C852.37,569.18,851.8,590.58,850.21,612.83z"/>
		</g>
            <path class="st10" d="M855.44,771.46c1.17,22.55,2.61,49.84-2.21,76"/>
	</g>
        <path class="st10" d="M457.66,432.71c1.14,0.59,2.44,0.85,3.72,0.73"/>
        <g id="upper_body_00000120533370508271984650000015004518946050628770_">
		<path class="st16" d="M660.93,277.64c-0.85,7.31-2.54,14.65-3.52,21.68c-2.07,14.79-1.21,29.61-0.52,44.56
			c0.62,13.38,2.8,26.6,4.54,39.86c0.89,6.77,1.34,13.56,2.09,20.34c0.66,5.89-1.29,11.34-2.57,17.14
			c-5.76,26.2-9.54,52.82-11.78,79.54c-1.69,20.24-2.5,40.55-2.5,60.85c0,6.99-3.76,20.73,2.48,25.27
			c5.85,4.26,26.08,2.46,33.51,3.18c3.48,0.34,7.05,0.67,10.41-0.32c10.84-3.19,12.93-22.79,15.57-31.85
			c4.22-14.46,8-29.06,10.91-43.85c5.76-29.24,8.18-59.39,3.81-89.01c-3.57-24.21-11.58-47.61-14.13-71.96
			c-1.18-11.26-1.18-22.64-2.58-33.88c-1.51-12.05-14.66-79.53-10.11-114.2c2.25-17.16,26.27-19.86,26.31-19.86
			c-6.63,0.74-11.63-0.82-17.99,2.01c-6.2,2.76-12.9,4.17-19.27,6.48c-5.76,2.1-12.88,5.42-16.19,10.9
			c-1.15,1.9-1.24,3.92-1.86,6.01c-0.96,3.26-2.41,6.35-3.31,9.66c-2.68,9.84-4.15,20.01-4.38,30.21
			C659.66,259.68,662.02,268.26,660.93,277.64z"/>
            <g id="right_shoulder">
			<path class="st16" d="M671.69,203.75c-0.13,0.01-0.26,0-0.38-0.05c-0.46-0.19-0.56-0.78-0.59-1.28c-0.06-0.98-0.1-2.02,0.38-2.88
				c0.55-0.98,1.67-1.48,2.7-1.91c6.52-2.73,13.1-5.34,19.58-8.17c3.71-1.62,7.27-3.17,11.28-3.95c0.02,1.63,0.02,3.37-0.87,4.72
				c-1.22,1.84-4.27,3.04-6.14,3.97c-3.82,1.89-7.82,3.67-11.86,4.99c-4.53,1.48-9.06,2.96-13.58,4.44
				C672.04,203.68,671.87,203.74,671.69,203.75z"/>
                <g>
				<path class="st18" d="M678.41,196.56l4.43-1c0.93-0.21,1.55-1.13,1.38-2.05l-0.05-0.27c-0.17-0.92-1.07-1.49-2.01-1.29l-4.43,1
					c-0.93,0.21-1.55,1.13-1.38,2.05l0.05,0.27C676.58,196.2,677.48,196.77,678.41,196.56z"/>
                    <path class="st18" d="M683.01,194.38l4.39-0.99c0.93-0.21,1.53-1.11,1.36-2.03l-0.05-0.27c-0.17-0.91-1.06-1.48-1.99-1.27
					l-4.39,0.99c-0.93,0.21-1.53,1.11-1.36,2.03l0.05,0.27C681.2,194.02,682.09,194.59,683.01,194.38z"/>
                    <path class="st18" d="M689.07,192.06l4.37-0.98c1.04-0.23,1.73-1.26,1.54-2.29l-0.01-0.04c-0.2-1.03-1.2-1.67-2.24-1.44
					l-4.37,0.98c-1.04,0.23-1.73,1.26-1.54,2.29l0.01,0.04C687.02,191.65,688.02,192.29,689.07,192.06z"/>
                    <path class="st18" d="M694.58,190.35l4.73-1.06c1.15-0.26,1.91-1.39,1.69-2.52v0c-0.22-1.13-1.32-1.84-2.47-1.58l-4.73,1.06
					c-1.15,0.26-1.91,1.39-1.69,2.52v0C692.33,189.9,693.43,190.6,694.58,190.35z"/>
			</g>
		</g>
            <g>
			<path class="st16" d="M701.97,186.7c-0.31,0.29-0.62,0.58-0.93,0.87c-3.8,3.62-7.38,7.48-10.63,11.6
				c-3.89,4.92-7.94,9.75-11.61,14.77c-0.57,0.78-1.14,1.71-0.89,2.63c0.29,1.04,1.54,1.53,2.62,1.44c1.08-0.09,2.07-0.6,3.12-0.87
				c0.97-0.25,2.12-0.26,2.82,0.46c0.96,0.98,0.46,2.65-0.36,3.76c-3.75,5.05-10.07,12.77-9.79,19.48c0.12,2.96,1.43,5.73,2.78,8.37
				c4.98,9.76,10.82,19.08,17.43,27.82c2.41,3.19,6.79,6.98,6.33,0.31c-0.23-3.44-1.97-6.74-3.12-9.94
				c-3.19-8.93-3.73-17.61-3.73-27.04c0-12.64,1.9-23.34,6.36-35.16c3.45-9.13,9.53-12.31,17.42-16.61c2.15-1.17,5.56-3.88,3.91-6.8
				c-0.77-1.35-2.32-2.06-3.84-2.38c-3.49-0.74-7.17,0.1-10.34,1.72C706.73,182.56,704.28,184.57,701.97,186.7z"/>
                <path class="st18" d="M690.81,208.39c-1.29,2.26-3.36,5.18-4.23,6.39c-0.26,0.36-0.68,0.55-1.12,0.51c-1-0.1-2.29-0.31-3.45-0.53
				c-0.86-0.17-1.3-1.15-0.82-1.89c1.35-2.12,2.85-3.97,4.04-6.28c0.25-0.49,0.77-0.77,1.31-0.68c1.07,0.17,2.24,0.43,3.42,0.67
				C690.79,206.73,691.22,207.65,690.81,208.39z"/>
		</g>
            <path class="st15" d="M702.22,198.49c0-2.44,0.01-4.95,0.63-7.2c0.88-3.2,2.85-5.39,4.75-7.34c14.4-14.78,30.57-25.68,47.49-32
			c2.04,5.32,3.28,11.33,3.59,17.46c0.06,1.19,0.08,2.43-0.26,3.51c-0.59,1.88-2.04,2.68-3.35,3.34
			c-6.63,3.31-12.98,7.15-19.04,11.41c-3.13,2.2-6.19,4.52-9.16,6.93c-2.45,1.99-5.97,3.45-7.62,6.06
			c-0.71,1.12-1.79,2.33-3.11,2.12c-0.79-0.13-1.4-0.75-1.95-1.33c-1.13-1.21-1.61-2.86-2.85-3.94c-0.73-0.63-1.77-0.99-2.67-0.66
			c-0.75,0.28-1.28,0.98-1.54,1.74c-0.26,0.76-0.29,1.57-0.32,2.38c-0.09,2.54-0.17,5.07-0.26,7.61c-0.03,0.86-0.06,1.73-0.36,2.54
			c-0.3,0.81-0.91,1.55-1.74,1.77c-1.66,0.45-2.31-1.27-2.48-2.57C701.49,206.43,702.22,202.37,702.22,198.49z"/>
            <g id="Head_00000103946216913167459070000011928391029911825839_">
			<g>
				<g>
					<path class="st8" d="M666.1,107.92c-0.27,0.63-0.53,1.26-0.77,1.9c-1.26,3.43-2.65,6.73-4.13,10.06
						c-0.71,1.59-2.09,5.39-1.52,7.08c1.29,3.81,9.07,0.09,11.92,1.22c2.85,1.13,0.35,3.41-0.32,5.11c-1,2.53,1.25,5.25,0.89,7.95
						c-0.28,2.06-1.29,3.98-0.62,6.08c0.65,2.06,2.68,1.36,4.04,2.24c1.46,0.95,1.28,3.18,1.15,4.73c-0.29,3.7-1.77,7.38,1.15,10.31
						c2.45,2.46,5.38,3.2,8.79,3.04c4.35-0.21,7.75-0.74,11.17,2.22c3.36,2.9,8.87,8.65,12.34,11.41c4.14,3.3,5.57,10.49,7.56,15.33
						c2.38,5.81,6,5.33,13.14,5.37c6.15,0.03,12.26-3.51,17.72-5.88c14.72-6.39,28.01-16.1,38.31-28.27
						c0.35-0.42-6.26-11.44-6.86-12.69c-2.01-4.14-2.7-7.75-3.72-12.13c-2.36-10.16-2.35-20.36-1.42-30.69
						c1.07-11.81,3-23.63,2.33-35.47c-0.74-12.97-4.92-25.76-15.11-34.41c-11.15-9.46-26.5-11.89-40.77-10.86
						c-8.88,0.64-17.96,1.88-26.12,5.56c-4.17,1.88-7.98,4.4-11.23,7.6c-3.25,3.19-5.45,6.84-7.49,10.93
						c-1.61,3.22-2.97,6.59-4.52,9.86c-2.03,4.31-4.22,9.35-5.5,13.94c-0.87,3.09,0.05,6.46,1.35,9.26c1.07,2.31,3.17,4.8,2.7,7.51
						c-0.36,2.1-1.52,5.1-2.39,7.12C667.49,104.89,666.76,106.39,666.1,107.92z"/>
                    <path class="st2" d="M718.28,63.85c-1.09,2.66-1.87,5.42-1.89,8.27c-0.03,4.36,3.39,6.5,5.22,10.03
						c1.68,3.23,0.39,11.61,4.66,12.96c5.32,1.67,12.76-5.25,16.21-8.41c3.24-2.98,5.58-7.55,10.32-8.35
						c7-1.17,7.27,8.35,7.12,13.05c-0.26,7.94-4.46,17.45-1.72,25.28c0.97,2.79,3.12,5.01,4.9,7.26c2.08,2.64,4.19,4.76,6.03,7.56
						c1.1,1.67,3.77,1.57,6.6,0.89c2.83-0.67,3.79-11.7,4.35-14.05c1.38-5.84,2.75-11.63,3.13-17.62
						c0.58-9.02,1.63-18.14,0.25-27.15c-0.56-3.7-1.36-7.64-2.37-11.23c-1.31-4.71-3.98-10.38-6.27-14.75
						c-2.76-5.25-6.44-9.74-11.04-13.52c-9.42-7.75-22.07-11.14-34.34-10.65s-24.17,4.63-34.89,10.52
						c-2.63,1.45-15.7,7.75-9.19,11.68c2.16,1.3,4.91,0.75,7.35,0.15c6.87-1.67,13.75-3.34,20.62-5.01c3.93-0.96,9.03-1.47,11.12,2
						c1.05,1.74,0.89,3.95,0.42,5.93c-0.97,4.07-3.06,7.77-4.92,11.52C719.36,61.39,718.79,62.61,718.28,63.85z"/>
                    <path class="st10" d="M744.75,122.39c1.71-1.15,3.09-2.69,4.73-3.88c1.51-1.09,3.61-1.61,4.91-3c1.9-2.04,4.79-13.32,5.2-16.29
						"/>
				</g>
                <path class="st10" d="M676.24,93.43c0.08-0.08,0.18-0.14,0.28-0.19c1.19-0.7,3.68-0.12,4.96,0.28c0.01,0,0.02,0.01,0.03,0.01
					c3.21,1.06,5.07,2.12,7.02,2.92"/>
                <path class="st2" d="M681.37,97.24c-0.96,1.65-2.68,0.52-3.5-0.6c-0.55-0.75-1.53-2.33-1.36-3.4c1.19-0.7,3.68-0.12,4.96,0.28
					c0.01,0,0.02,0.01,0.03,0.01C681.76,94.85,681.93,96.26,681.37,97.24z"/>
                <path class="st19" d="M734.87,160.38c-1.63,5.53-23.66,20.33-24.77,20.2c-2.39-0.29-3.77-3.03-5.51-4.65
					C706.08,175.72,721.67,171.44,734.87,160.38z"/>
                <path class="st2" d="M673.76,87.05c-0.3-1.14,0.88-1.45,1.97-1.92c2.45-1.06,5-2.22,7.51-3.1c3.01-1.07,5.81,1.63,7.75,3.71
					c-1.35-0.42-2.51-1.13-4.02-1.07c-1.43,0.05-2.67,0.45-3.91,1.18c-1.81,1.08-7.89,4.88-9.23,1.42
					C673.8,87.19,673.77,87.12,673.76,87.05z"/>
                <path class="st10" d="M672.64,136.25c1.34-1.78,0.26-1.9,2.54-2.21c1.88-0.25,4.17,0.73,5.93,1.26c1.55,0.46,3.04,1.08,4.53,1.7
					c0.6,0.25,3.02,1.33,1.2,1.92c-0.9,0.29-2.16,0.23-3.12,0.34c-1.49,0.17-2.99,0.11-4.49,0.11c-1.64,0-2.98,0.05-4.41,0.83
					c-0.62,0.34-1.93,1.4-2.55,0.67"/>
                <path class="st19" d="M752.13,86.74c0.61,0.06,1.24,0.35,1.6,1.1c0.4,0.82,0.39,2,0.37,3.09c-0.06,2.99-0.12,6.01-0.58,8.96
					c-0.46,2.95-1.37,5.87-2.84,7.86c-0.69,0.93-1.77,1.61-2.33,0.62c-0.38-0.67-0.3-1.79-0.08-2.7c0.31-1.3,0.86-2.52,0.95-3.89
					c0.09-1.34-0.55-2.72-1.42-2.33c-0.74,0.33-0.87,2.17-1.6,2.59c-1.67,0.97-1.56-1.6-1.27-3.34
					C745.83,93.23,748.1,86.35,752.13,86.74z"/>
                <path class="st10" d="M676.07,148.16c2.72-0.62,5.24-2.36,7.57-3.96"/>
                <path class="st8" d="M678.25,119.46c1.71,4.09,3.79,7.9,7.31,10.69c3.53,2.79,8.65,3.05,8.8,8.51"/>
                <path class="st19" d="M672.88,124.2c0.12-0.01,0.24-0.02,0.32,0.09c0.14,0.19,0.04,0.65-0.13,0.87s-0.39,0.26-0.58,0.29
					c-1.29,0.2-4.04,0.82-4.94-0.54C669.31,124.42,671.13,124.42,672.88,124.2z"/>
                <path class="st10" d="M691.15,167.47c3.74,0.12,15.2-0.92,18.58-2.6"/>
                <path class="st8" d="M724.72,113.25c-0.73,3.35-4.85,10.68-7.4,13.01c-3.78,3.45-9.1,4.67-13.64,6.12"/>
                <path class="st8" d="M738.83,97.8c0.93-4.05,2.52-10.03,4.8-13.41"/>
			</g>
                <g>
				<path class="st20" d="M800.88,59.46c-3.28,2.79-8.13,3.28-10.02,7.17c-2.95,6.08-6.36,25.96-6.73,25.92
					c-2.35-0.24-15.78-9.58-21.49-12.93c-8.67-5.09-19.89-7.87-28.93-12.1c-2.37-1.11-4.84-1.99-7.39-2.68
					c-4.01-1.1-8.18-1.74-12.36-2.1c-3.24-0.28-6.48-0.39-9.66-0.42c-10.03-0.11-20.1,0.57-30.04-0.5c-0.99-0.11-2-0.23-2.99-0.38
					c-9.5-1.44-2.58-22.04-4.07-28.44c-0.93-4-3.31-7.51-5.17-11.19s-3.25-7.92-2.03-11.84c1.24-3.98,4.99-6.85,9.05-8.17
					s8.43-1.34,12.71-1.26c17.49,0.31,35.31,1.96,51.37,8.69c14.97,6.27,27.97,16.77,43.56,21.43c5.16,1.54,10.54,2.42,15.52,4.42
					c4.99,2,9.72,5.37,11.68,10.25c1.64,4.1,1.04,8.98-1.56,12.58C801.9,58.5,801.41,59.01,800.88,59.46z"/>
                    <path class="st18" d="M669.47,56.57c-8.08,1.86-15.92,4.67-23.25,8.34c-1.31,0.66-2.76,1.55-2.87,2.93
					c-0.1,1.2,0.94,2.28,2.15,2.72c1.21,0.44,2.55,0.37,3.84,0.31c29.44-1.56,58.96-3.12,88.05-7.61
					c-23.13-5.24-46.97-6.46-70.78-6.46l-1.71,0.53"/>
                    <path class="st18"
                          d="M669.71,34.8c0,0,81.13,6.34,121.58,30.89l-3.71,19.55c0,0-40.28-25.23-118.1-28.66L669.71,34.8z"/>
                    <path class="st2" d="M665.65,48.19c-0.37-4.1-0.39-8.29-0.52-12.41c-0.09-2.7-0.61-6.48,0.02-9.23
					c0.07-0.32,0.38-0.56,0.73-0.54c5.73,0.18,10.7,5.74,13.34,10.53c2.4,4.36,4.62,9.23,5.43,14.18c0.63,3.88-0.72,5.15-4.83,5.97
					c-1.58,0.32-14.03,2.88-13.72-0.78C666.1,55.91,665.84,50.29,665.65,48.19z"/>
                    <path class="st18" d="M665.55,28.94c5.2-0.17,15.04,14.67,15.45,23.14l0.03,3.86c-1.38,0.28-15.34,1.41-15.06-1.77
					C665.96,54.16,664.81,31.35,665.55,28.94z"/>
                    <path class="st18" d="M665.36,51.88l-2.48,6.43c0,0,61.23,4.64,66.18,5.43l-2.03-5.28L665.36,51.88z"/>
			</g>
                <circle class="st18" cx="727" cy="60.69" r="3.39"/>
		</g>
            <g>
			<path class="st2" d="M706.33,220.65c1.75,2.11,8.72,2.47,10.69,0.76c0.46-0.4,0.81-0.92,1.14-1.43c1.03-1.57,2.07-3.13,3.1-4.7
				c0.79-1.2,2.05-2.91,1.88-4.44c-0.17-1.5-1.75-2.74-2.36-4.07c-0.67-1.47-0.52-3.18-0.74-4.78c-0.68-4.93-6-4.24-9.78-4.46
				c-2.07-0.12-4.1,1.37-5.11,3.09c-1.26,2.12-1.46,4.7-1.42,7.17c0.05,3.13,0.43,6.26,1.13,9.32c0.28,1.24,0.64,2.5,1.42,3.49
				C706.29,220.61,706.31,220.63,706.33,220.65z"/>
		</g>
            <g>
			<path class="st2"
                  d="M696.3,305.04c0.04,0.1,0.08,0.19,0.11,0.28l-0.04,0.38C696.34,305.49,696.32,305.26,696.3,305.04z"/>
		</g>
            <g>
			<path class="st2" d="M715.12,277.33c-2.36,5.55-5.22,11.48-8.76,16.42c-2.72,3.79-5.36,9.97-9.82,11.69
				c0.52-5.47,0.7-11.18,0.31-16.71c-0.26-3.75-1.57-7.09-1.97-10.72c-0.61-5.49-0.46-12.41,0.39-17.82
				c2.04-12.94,6.09-26.21,10.94-38.36c0.56-1.4,1.56-2.81,3.04-3.11c1.09-0.22,2.21,0.22,3.33,0.21c0.75,0,1.5-0.21,2.25-0.24
				c0.75-0.03,1.58,0.14,2.05,0.74c0.42,0.53,0.46,1.27,0.47,1.95C717.78,240.19,722.54,259.07,715.12,277.33z"/>
		</g>
            <path class="st15" d="M757.75,165.9c-12.55,8.82-25.71,16.43-38.83,24.36c-1.22,0.74-2.53,1.59-2.94,2.95
			c-0.41,1.36,0.22,2.8,0.83,4.09c2.69,5.66,5.39,11.31,8.08,16.97c1.35,2.83,2.76,5.63,4.04,8.49c0.62,1.39,1.27,4.17,3.08,4.4
			c0.85,0.11,1.62-0.47,2.28-1.02c20.03-16.52,37.97-35.76,53.19-57.07c0.79-1.1,1.59-2.26,1.81-3.61c0.24-1.42-0.19-2.87-0.66-4.23
			c-1.24-3.6-2.48-7.33-4.65-10.49c-0.86-1.25-5.41-7.08-7.03-4.63c-0.18,0.27-0.24,0.59-0.31,0.91c-0.47,2.29-0.59,3.45-2.16,5.05
			c-1.71,1.74-3.67,3.31-5.51,4.9C765.38,160.12,761.67,163.15,757.75,165.9z"/>
            <g>
			<path class="st16" d="M860.97,590.85c-22.5,0.6-45,1.3-67.5,2.02c-0.98,0.03-1.97,0.06-2.95,0.1c-9.71,0.3-19.42,0.62-29.13,0.94
				c-19.1,0.63-57.54,11.48-66.16-10.33c-2.74-6.95-6.48-13.7-9.17-20.97c-5.48-14.78-11.17-28.39-10.53-44.33
				c0.75-18.79,0.69-37.78,0.9-56.74c0.23-20.98,0.2-42.56,1.83-63.5c1.96-25.13,0.18-51.29,5.29-76.09
				c2.62-12.71,12.72-21.12,17.38-32.68c5.47-13.61,11.34-27.08,18.46-39.91c1.13-2.05,2.14-4.13,3.06-6.26
				c3.33-7.64,5.59-15.7,8.99-23.52c4.66-10.71,10.41-20.93,17.14-30.43c9.02-12.75,19.78-24.26,31.96-33.99
				c0.66-0.53,1.38-1.07,2.11-1.55c1.73-1.12,3.63-1.92,5.61-1.58c4.81,0.84,4.32,5.54,6.72,8.5c0.42,0.51,0.91,0.95,1.47,1.33
				c3.02,2,7.72,1.94,11.03,2.1c23.44,1.17,44.67-0.17,56.41,24.5c5.32,11.18,6.85,23.73,8.24,36.04c1.26,11.1,1.9,22.47,2.01,33.9
				c0.15,15.35-0.67,30.81-2.24,45.81c-1.83,17.44-5.25,34.51-7.25,51.81c-2.03,17.58-6.21,36.07-5.55,53.78
				c0.66,18.17,4.99,36.21,5.73,54.53c0.07,1.66,0.14,3.32,0.22,4.98c0.05,1.15,0.11,2.3,0.17,3.44c0.1,1.93,0.2,3.86,0.32,5.78
				c0,0.05,0,0.11,0.01,0.16c0.14,2.39,0.29,4.79,0.45,7.18c0.15,2.27,0.31,4.53,0.48,6.8c0.01,0.12,0.02,0.25,0.03,0.38
				c0.3,4.12,0.63,8.22,0.99,12.34c0.11,1.51,0.24,3.01,0.39,4.52c0.34,3.94,0.7,7.87,1.07,11.81c0.02,0.27,0.05,0.53,0.08,0.79
				c0.54,5.7,1.1,11.42,1.68,17.14c0.96,9.52,3.18,18.89,4.27,28.41c0.06,0.5,0.11,1,0.16,1.5
				C876.59,583.73,877.37,590.41,860.97,590.85z"/>
		</g>
            <g>
			<path class="st16" d="M782.41,389.17c-2.73,1.72-63.22,0.38-66.67-2.3c-5.52-4.3,1.53-61.49,0.98-80.06l0.75-5.08
				c17.21-20.05,42.65-15.19,61.27-5.65c4.23,2.16,7.25,3.09,7.12,8.66c-0.16,7.23,0.32,14.8-0.12,22.09
				C785.19,336.05,784.57,387.8,782.41,389.17z"/>
                <g>
				<path class="st16" d="M716.56,289.93c8.57-3.36,70-2.84,70.21,3.19c0.16,4.48,0.7,30.71-0.97,32.15c-2,1.72-7.87-1.43-9.86-2.11
					c-8.34-2.87-15.47-2.33-23.39,0.29c-7.95,2.63-13.82-0.18-20.94-2.25c-5.55-1.61-10.2-1.01-15.4,0.07
					c-1.33,0.28-2.59-0.71-2.59-2.05C713.6,309.72,715.33,290.41,716.56,289.93z"/>
                    <path class="st10" d="M745.84,315.92c-0.19-2.56,0.46-5.26,0.79-7.79"/>
                    <ellipse class="st18" cx="744.83" cy="315.15" rx="4.12" ry="4.05"/>
			</g>
                <path class="st16" d="M816.37,567.47c-3.2,2.47-82.71,6.23-87.48,3.65c-7.66-4.13-7.38-72.52-10.9-94.25l0.19-6.09
				c18.79-26.42,51.81-24.94,76.87-16.82c5.69,1.84,9.66,2.42,10.34,8.99c0.89,8.53,2.65,17.34,3.2,25.98
				C809.28,499.87,818.9,565.51,816.37,567.47z"/>
                <g>
				<path class="st16" d="M717.99,453.69c10.11-5.34,85.61-11.59,86.79-4.55c0.88,5.24,5.52,35.98,3.67,37.94
					c-2.22,2.35-24.15,8.71-42.9,10.55c-10.34,1.02-36.13-3.46-43.87-3.97c-1.69-0.11-3.31-0.42-3.52-1.99
					C716.7,480.52,716.55,454.46,717.99,453.69z"/>
                    <path class="st10" d="M763.11,485.2c-0.63-2.98-0.23-6.26-0.2-9.28"/>

                    <ellipse transform="matrix(0.9898 -0.1424 0.1424 0.9898 -61.3108 113.5705)" class="st18" cx="762.93"
                             cy="485.2" rx="5.15" ry="4.8"/>
			</g>
                <path class="st16" d="M637.87,567.33c-0.7-6.73,0.19-13.96,0.39-20.7c0.37-12.42,0.8-24.84,1.31-37.25
				c0.36-8.92,1.23-17.9,1.37-26.83c0.06-3.94,1.26-7.71,2.32-11.51c1-3.62,2.22-6.57,5.62-8.56c2.96-1.73,10.48-4.77,12.65-0.53
				c1.68,3.3,0.69,8.54,0.71,12.14c0.03,4.92,0.05,9.84-0.07,14.75c-0.53,21.7,0,43.43-0.31,65.13c-0.05,3.53,0.28,11.24-1.16,14.05
				c-1.31,2.56-6.87,2.02-9.12,1.97C647.05,569.86,638.16,570.06,637.87,567.33z"/>
                <g>
				<path class="st16" d="M647.08,448.75c3.4-3.38,4.11-3.09,7.92-1.91c2.59,0.8,8.27,2.48,8.32,6.03
					c0.08,5.31,0.05,36.29-0.46,38.1c-2.36,8.35-24.09,6.03-24.17,4.21C637.83,475.92,646.24,449.59,647.08,448.75z"/>
                    <path class="st10" d="M643.02,486.11c-0.09-3.04,0.22-6.24,0.37-9.23"/>
                    <ellipse class="st18" cx="643.2" cy="486.3" rx="1.95" ry="4.8"/>
			</g>
                <path class="st16" d="M668.19,302.04c1.51,2.3,5.26,64.45,5.34,75.47c0.03,4.5-7.08,2.79-12.7,2.31
				c-7.43-0.64-5.68-41.02-6.51-56.94c-0.27-5.2-3.53-16.5,3.34-19.44c2.03-0.87,8.44-3.54,10.28-1.7
				C668.03,301.82,668.12,301.92,668.19,302.04z"/>
                <path class="st16" d="M664.75,318.45c-1.3-0.44-2.54-0.92-3.79-1.45c-1.24-0.52-2.79-0.37-3.81,0.56
				c-0.6,0.55-0.99,1.29-1.58,1.85c-0.58,0.56-1.51,0.93-2.2,0.51c-0.68-0.41-0.8-1.32-0.85-2.1c-0.21-3.15-0.57-6.31-0.64-9.46
				c-0.09-3.9,0.44-8.88,4.84-10.12c3.26-0.92,8.63-1.82,12.01-2.12c0.97-0.08,1.82,0.65,1.9,1.62c0.24,3.15,1.03,11.28,1.19,13.51
				c0.2,2.83,1.23,6.99-1.78,7.63C668.52,319.19,666.59,319.07,664.75,318.45z"/>
		</g>
            <g>
			<path class="st16" d="M796.45,161.87c-0.16,0.23-0.35,0.46-0.57,0.69c-0.08,0.09-0.16,0.17-0.24,0.25
				c-1.82,1.79-3.69,3.57-4.89,5.86c-1.03,1.95-1.69,3.88-2.41,5.96c-1.43,4.15-2.82,8.32-3.78,12.6c-0.46,2.04-0.75,4.11-1.12,6.16
				c-0.22,1.22-0.32,5.08-0.54,7.51c-0.1,1.14-0.98,2.05-2.11,2.22c-1.34,0.19-11.65,1.4-15.38,2.42c-2.55,0.7-5.75,1.35-7.88,3
				c-2.56,1.99-2.01,5.05-0.81,7.67c1.84,4.03,4.76,7.51,7.16,11.21c1.78,2.74,4.46,6.67,3.34,10.13c-1.29,4-13.44,11.19-16.9,13.91
				c-12.32,9.72-26.03,18.78-38.12,28.93c-4.32,3.62-8.45,8.04-12.66,12.38c5.88-14.74,12.03-29.31,19.86-43.41
				c1.13-2.04,2.14-4.13,3.06-6.25c3.33-7.65,5.59-15.71,8.99-23.52c4.66-10.71,10.41-20.93,17.14-30.44
				c9.02-12.76,19.78-24.26,31.96-33.99c0.66-0.54,1.38-1.07,2.11-1.55c1.73-1.12,3.63-1.92,5.61-1.58
				c4.81,0.85,4.32,5.54,6.72,8.51C795.41,161.06,795.9,161.49,796.45,161.87z"/>
                <path class="st18" d="M779.61,182.65c-0.48,4.8-0.86,12.23-0.99,14.85c-0.03,0.58-0.44,1.05-1,1.17
				c-2.35,0.47-5.81,0.89-8.48,1.09c-0.78,0.06-1.42-0.6-1.35-1.37c0.54-5.67,0.7-9.46,1.45-14.99c0.08-0.56,0.52-1,1.08-1.08
				c1.64-0.21,5.09-0.67,7.88-1.03C779,181.18,779.69,181.85,779.61,182.65z"/>
		</g>
            <g id="left_shoulder">
			<path class="st16" d="M791.55,167.46c0.9-1.55,2.01-2.84,3.41-3.96c3.77-3.02,7.97-2.85,12.65-3.03
				c11.59-0.44,23.23,0.6,34.56,3.09c1.64,0.36,3.92,1.22,4.85,2.74c0.45,0.75,0.39,1.88-0.36,2.33c-0.43,0.26-0.97,0.23-1.48,0.19
				c-7.38-0.53-12.04-0.44-18.7,2.89c-2.19,1.4-4.01,3.77-6.66,4.29c-2.98,0.59-6.4,0.25-9.37-0.2c-3.33-0.51-6.6-1.37-9.89-2.1
				c-1.69-0.37-7.38-1.71-8.78-2.1c-0.99-0.28-1.51-1.35-1.1-2.29C790.99,168.58,791.33,167.84,791.55,167.46z"/>
                <path class="st18" d="M806.66,163.07l-5.53,0.82c-0.69,0.1-1.34-0.38-1.44-1.07l-0.19-1.26c-0.1-0.69,0.38-1.34,1.07-1.44
				l5.53-0.82c0.69-0.1,1.34,0.38,1.44,1.07l0.19,1.26C807.83,162.33,807.35,162.97,806.66,163.07z"/>
                <path class="st18" d="M814.26,163.56l-5.94,0.88c-0.74,0.11-1.44-0.4-1.55-1.15l-0.2-1.35c-0.11-0.74,0.4-1.44,1.15-1.55
				l5.94-0.88c0.74-0.11,1.44,0.4,1.55,1.15l0.2,1.35C815.52,162.76,815.01,163.45,814.26,163.56z"/>
                <path class="st18" d="M822.23,164.25l-6.37,0.94c-0.8,0.12-1.54-0.43-1.66-1.23l-0.21-1.45c-0.12-0.8,0.43-1.54,1.23-1.66
				l6.37-0.94c0.8-0.12,1.54,0.43,1.66,1.23l0.21,1.45C823.58,163.39,823.03,164.13,822.23,164.25z"/>
                <path class="st18" d="M830.64,164.89l-6.37,0.94c-0.8,0.12-1.54-0.43-1.66-1.23l-0.21-1.45c-0.12-0.8,0.43-1.54,1.23-1.66
				l6.37-0.94c0.8-0.12,1.54,0.43,1.66,1.23l0.21,1.45C831.99,164.03,831.44,164.77,830.64,164.89z"/>
		</g>
            <g>
			<path class="st10" d="M689.39,446.28c-2.3,0.28-4.04-1.05-6.33-0.84"/>
                <path class="st10" d="M688.13,499.48c-1.76-1.02-3.72-1.93-5.49-2.96"/>
                <path class="st10" d="M689.81,390.54c-2.44,0.1-4.9,0.1-7.18-0.84"/>
                <path class="st10" d="M693.19,328.04c-2.12-0.4-4.15-1.03-6.33-0.84"/>

                <ellipse transform="matrix(0.1605 -0.987 0.987 0.1605 254.652 954.25)" class="st18" cx="688.32"
                         cy="327.42" rx="7.39" ry="3.29"/>

                <ellipse transform="matrix(0.0744 -0.9972 0.9972 0.0744 245.0524 1043.9266)" class="st18" cx="684.86"
                         cy="389.96" rx="7.39" ry="3.29"/>

                <ellipse transform="matrix(0.0744 -0.9972 0.9972 0.0744 188.3468 1094.9213)" class="st18" cx="683.98"
                         cy="446" rx="7.39" ry="3.29"/>

                <ellipse transform="matrix(0.0744 -0.9972 0.9972 0.0744 136.1821 1142.2906)" class="st18" cx="683.41"
                         cy="497.79" rx="7.39" ry="3.29"/>
		</g>
	</g>
        <g id="left_hand">
		<g class="st17">
			<path class="st2" d="M860.97,590.85c-9.84,0.27-20.93-0.82-30.57,1.15c-6.83,1.39-12.92,4.05-15.95-5.53
				c-1.6-5.05-0.45-10.5,0.64-15.69c8.65-41.26,12.65-83.49,11.98-125.64c-0.25-15.96-2.05-31.45-4.52-47.09
				c-2.3-14.6,3.41-31.05,3.28-46.09c-0.13-15.4-3.03-31.07-10.72-44.42c-4.74-8.24-11.23-15.5-14.84-24.29
				c-6-14.63,1.79-25.77,11.12-36.46c8.97-10.27,23.26-15.02,36.41-10.77c11.24,3.64,20.2,12.13,26.33,22.37
				c0.15,15.35-0.67,30.81-2.24,45.81c-1.83,17.44-5.25,34.51-7.25,51.81c-2.03,17.58-6.21,36.07-5.55,53.78
				c0.66,18.17,4.99,36.21,5.73,54.53c0.07,1.66,0.14,3.32,0.22,4.98c0.05,1.14,0.11,2.29,0.17,3.44c0.1,1.93,0.2,3.86,0.32,5.78
				c0,0.05,0,0.11,0.01,0.16c0.14,2.39,0.29,4.79,0.45,7.18c0.15,2.27,0.31,4.53,0.48,6.8c0.01,0.12,0.02,0.25,0.03,0.38
				c0.3,4.12,0.63,8.22,0.99,12.34c0.12,1.51,0.25,3.01,0.39,4.52c0.34,3.94,0.7,7.87,1.07,11.81c0.02,0.27,0.05,0.53,0.08,0.79
				c0.54,5.7,1.1,11.42,1.68,17.14c0.96,9.52,3.18,18.89,4.27,28.41c0.06,0.5,0.11,1,0.16,1.5
				C876.59,583.73,877.37,590.41,860.97,590.85z"/>
		</g>
            <g>
			<path class="st8" d="M861.04,548.33c-0.68,7.17-1.5,14.34-2.32,21.5c-0.87,7.59-4.61,15.03-12.71,16.82
				c-2.84,0.63-5.82,0.73-8.53,1.8c-2.69,1.06-4.94,3.02-7.59,4.17c-3.1,1.34-6.59,1.51-9.71,2.77c-3.32,1.33-6.39,3.91-9.96,3.64
				c-4.37-0.33-6.11-4.37-6.28-8.19c-0.06-1.43,0.16-2.82,0.23-4.24c0.13-2.5-0.83-3.12-2.53-4.99c-2.1-2.32-5.96-5.25-6.63-8.44
				c-0.72-3.39,1.69-8.13,2.64-11.37c1.12-3.81,2.24-7.62,3.36-11.43c0.13-0.46,0.27-0.91,0.4-1.37c0.33-1.13,0.67-2.3,1.36-3.24
				c0.71-0.99,1.74-1.68,2.74-2.34c1.46-0.97,2.93-1.93,4.39-2.9c0.99-0.65,2.03-1.24,3.17-1.56c1.38-0.39,2.67-1.45,3.45-2.75
				c1.28-2.15,1.52-4.79,1.75-7.31c1.14-11.99,3.02-23.9,5.64-35.63c0.42-1.89,0.96-3.94,2.47-5.04c1.32-0.96,3.05-0.96,4.65-0.87
				c10.3,0.58,20.5,3.18,29.93,7.63C862.7,512.7,862.73,530.61,861.04,548.33z"/>
                <path class="st10" d="M805.04,581.08c0.7-3.35,1.18-6.74,1.44-10.15c0.27-3.5-0.73-4.94-2.27-8.02"/>
		</g>
            <path class="st15" d="M812.44,532.02c9.27,2.49,18.54,4.99,27.81,7.48c10.69,2.87,21.57,5.77,32.61,5.32
			c0.58-7.84,0.71-15.72,0.4-23.58l0,0c-9.74-1.68-19.4-3.84-28.94-6.47c-8.9-2.45-18.03-6.91-26.97-8.47
			C816.73,508.38,812.19,531.95,812.44,532.02z"/>
            <path class="st16" d="M896.01,277.09c7.17,19.33,14.34,38.91,16.91,59.44c3.02,24.14-0.45,48.58-3.92,72.66
			c-6.01,41.74-12.01,83.48-18.02,125.22c-19.04-3.51-35.31-6.64-53.98-11.7c-4.69-1.27-24.57-7.91-24.57-7.91s2.14-9.12,3.14-14.99
			c2.07-12.2,4.67-24.49,6.14-36.85c2.29-19.19,3.2-39.37,6.97-58.26c1.45-7.29,4.3-14.27,5.97-21.37c0.9-3.83,2.35-8.01,1.97-11.97
			c-0.34-3.59-3.37-6.28-3.57-9.94c-0.24-4.56,2.6-6.8,2.7-11.04c0.08-3.29-2.42-4.5-2.72-7.69c-0.39-4.14,1.67-6.55,0.34-11.26
			c-0.97-3.46-4.3-9.2-6.18-12.43c-5.47-9.39-11.24-17.23-16.22-27.08c-5.72-11.32-15.71-21.62-15.66-34.81
			c0.06-16.31,4.24-33.51,8.96-49.22c3.9-12.99,11.64-30.34,23.99-37.2c12.17-6.76,27.37,1.77,33.57,14.1
			c6.99,13.89,11.7,28.76,17.06,43.15C884.96,244.19,889.98,260.82,896.01,277.09z"/>
            <path class="st10" d="M835.95,351.21c13.77-10.39,28.1-14.88,42.6-13.46"/>
            <path class="st10" d="M837.01,343.18c7.15-9.01,24.87-16.33,35.91-18.84"/>
	</g>
</g>
</svg>
