<svg width="1080" height="1075" viewBox="0 0 1080 1075" fill="none" xmlns="http://www.w3.org/2000/svg">
<g clip-path="url(#clip0_16_1498)">
<path d="M722.459 1019.31C721.959 1028.21 722.019 1037.32 721.829 1046.18C721.679 1052.71 724.489 1063.14 720.229 1068.65C717.389 1072.3 709.279 1072.51 705.259 1072.88C690.249 1074.25 675.089 1073.63 660.029 1073.63C655.589 1073.63 646.349 1075.56 642.399 1073.67C631.349 1068.37 641.009 1046.54 645.389 1039.78C649.649 1033.19 652.519 1024.51 654.429 1016.54C654.679 1015.51 654.909 1014.49 655.119 1013.49C655.259 1012.86 655.389 1012.23 655.509 1011.62C657.289 1002.81 657.719 999.079 667.559 997.409C680.959 995.139 696.199 996.589 709.739 996.939C712.049 996.999 714.439 997.089 716.529 998.089C722.689 1001.03 723.119 1009.64 722.629 1016.56C722.569 1017.47 722.509 1018.39 722.459 1019.31Z" fill="#414042" stroke="#231F20" stroke-miterlimit="10" stroke-linecap="round" stroke-linejoin="round"/>
<path d="M867.221 1065.59C863.701 1071.75 853.141 1071.74 846.921 1072.34C837.991 1073.21 829.091 1073.68 820.011 1073.7C811.501 1073.72 802.861 1074.37 794.461 1072.57C782.911 1070.1 781.041 1064.82 781.531 1053.69C782.001 1043.18 781.951 1032.66 782.261 1022.14C782.321 1019.87 782.191 1016.74 782.141 1013.4C782.041 1007.48 782.201 1000.92 784.201 997.43C787.081 992.4 795.391 991.85 799.711 991.46C812.391 990.32 824.851 990.67 837.501 991.64C847.591 992.41 847.901 998.76 850.081 1007.37C850.201 1007.83 850.321 1008.3 850.451 1008.78C852.061 1014.7 854.701 1019.95 857.741 1025.14C860.931 1030.61 864.591 1035.67 866.161 1041.98C867.741 1048.3 870.731 1059.48 867.221 1065.59Z" fill="#414042" stroke="#231F20" stroke-miterlimit="10" stroke-linecap="round" stroke-linejoin="round"/>
<path d="M657.961 1033.71C665.461 1032.96 671.311 1030.07 679.331 1031.18C686.321 1032.15 692.411 1036.27 699.151 1037.49" stroke="#231F20" stroke-miterlimit="10" stroke-linecap="round" stroke-linejoin="round"/>
<path d="M801.121 1033.87C804.001 1033.34 806.451 1031.53 809.301 1030.46C816.281 1027.85 823.851 1027.97 831.151 1027.97C839.501 1027.97 848.181 1028.79 855.971 1031.51" stroke="#231F20" stroke-miterlimit="10" stroke-linecap="round" stroke-linejoin="round"/>
<g opacity="0.3">
<path d="M722.631 1016.56C722.571 1017.47 722.511 1018.39 722.461 1019.31C711.761 1019.67 700.961 1018.51 690.291 1017.34C678.571 1016.05 666.851 1014.77 655.121 1013.49C655.261 1012.86 655.391 1012.23 655.511 1011.62C657.291 1002.81 657.721 999.079 667.561 997.409C680.961 995.139 696.201 996.589 709.741 996.939C712.051 996.999 714.441 997.089 716.531 998.089C722.691 1001.03 723.121 1009.64 722.631 1016.56Z" fill="#231F20"/>
</g>
<g opacity="0.3">
<path d="M850.08 1007.37C840.93 1010.98 830.65 1011.72 820.71 1012.21C807.85 1012.21 795.01 1013.32 782.14 1013.4C782.04 1007.48 782.2 1000.92 784.2 997.43C787.08 992.4 795.39 991.85 799.71 991.46C812.39 990.32 824.85 990.67 837.5 991.64C847.59 992.41 847.9 998.76 850.08 1007.37Z" fill="#231F20"/>
</g>
<path d="M908.461 515.732C908.261 525.452 911.201 535.262 914.001 544.442C917.251 555.092 919.161 566.162 919.651 577.292C919.701 578.512 919.731 579.792 919.191 580.892C918.441 582.402 916.811 583.222 915.271 583.912C912.641 585.102 909.981 586.232 907.301 587.302C905.031 588.212 902.701 589.082 900.251 589.222C896.491 589.422 892.891 587.862 889.451 586.332C886.381 584.962 878.581 579.772 877.291 576.592C876.891 575.612 877.041 574.512 877.201 573.472C878.671 563.802 880.911 553.922 881.651 544.172C882.271 535.952 880.311 527.662 881.271 519.312C883.311 501.642 910.551 500.702 909.011 519.242C909.031 519.232 908.461 515.732 908.461 515.732Z" fill="#EB978D" stroke="#231F20" stroke-miterlimit="10" stroke-linecap="round" stroke-linejoin="round"/>
<path d="M881.461 546.482C881.811 572.612 887.781 580.602 889.971 588.032C890.461 589.682 891.191 591.582 892.851 592.022C894.011 592.322 900.161 590.982 900.761 590.202C902.901 587.412 900.891 582.292 901.181 578.792C901.481 575.182 902.781 568.032 905.921 566.232" fill="#EB978D"/>
<path d="M881.461 546.482C881.811 572.612 887.781 580.602 889.971 588.032C890.461 589.682 891.191 591.582 892.851 592.022C894.011 592.322 900.161 590.982 900.761 590.202C902.901 587.412 900.891 582.292 901.181 578.792C901.481 575.182 902.781 568.032 905.921 566.232" stroke="#231F20" stroke-miterlimit="10" stroke-linecap="round" stroke-linejoin="round"/>
<path d="M916.528 504.851C916.528 511.981 916.528 518.431 915.188 524.991C901.328 525.561 887.688 527.041 873.688 526.501C873.508 520.941 872.418 512.181 874.418 507.041C877.308 499.631 884.248 501.521 891.628 502.391C896.658 502.991 917.988 500.731 916.528 504.851Z" fill="white" stroke="#231F20" stroke-miterlimit="10" stroke-linecap="round" stroke-linejoin="round"/>
<path d="M877.599 187.751C881.609 194.511 884.249 202.541 885.889 210.191C892.709 242.121 901.379 272.991 905.589 305.701C908.049 324.821 913.859 342.931 915.549 362.241C919.799 410.801 923.239 460.031 925.519 508.641C925.879 516.241 927.069 514.911 921.199 517.151C916.319 519.011 869.689 521.761 866.569 517.711C860.459 509.751 861.819 478.981 860.319 467.861C856.529 439.721 852.299 411.621 850.099 383.291C848.319 360.321 844.929 337.541 842.259 314.681C840.889 302.931 839.699 291.151 839.019 279.341C837.669 255.751 838.859 232.251 842.369 209.031C844.709 193.571 843.329 160.541 866.469 175.591C870.999 178.521 874.669 182.801 877.599 187.751Z" fill="#D1C8C1" stroke="#231F20" stroke-miterlimit="10" stroke-linecap="round" stroke-linejoin="round"/>
<path opacity="0.2" d="M831.25 276.781C846.37 281.671 862.23 273.661 863.46 279.741C870.68 315.291 876.89 389.911 873.07 424.441C871.69 436.891 869.82 449.411 865.27 461.081C862.75 467.541 856.63 474.791 850.3 471.971C845.49 469.831 844.71 463.461 844.57 458.201C843.12 401.471 837.6 344.701 827.16 288.921L831.25 276.781Z" fill="#231F20"/>
<path d="M859.672 282.16C862.282 279.92 863.622 276.58 864.802 273.34C870.072 258.84 873.922 243.83 876.292 228.59" stroke="#231F20" stroke-miterlimit="10" stroke-linecap="round" stroke-linejoin="round"/>
<path d="M857.461 361.551C868.741 356.151 881.131 353.051 893.621 352.521" stroke="#231F20" stroke-miterlimit="10" stroke-linecap="round" stroke-linejoin="round"/>
<path d="M867.182 861.67C866.772 879.91 865.982 898.08 864.052 930.2C862.962 948.19 863.612 971.94 862.182 991.15C862.182 991.15 855.592 990.54 838.082 995.13C822.442 999.23 776.302 996.16 776.302 996.16C774.132 990.89 761.382 817.2 759.082 777.94C756.162 727.93 753.842 660.57 751.822 619.3C751.722 617.18 751.612 615.13 751.512 613.15C750.542 594.15 749.632 582.05 748.762 582.05C748.892 590.88 748.962 601.48 748.972 613.18V619.34C748.942 673.25 747.822 746.95 745.872 780.98C744.662 802.06 737.112 947.78 736.272 969.73C735.882 980.09 734.352 1000.42 734.352 1000.42C734.352 1000.42 723.952 1003.95 713.882 1003.27C702.132 1002.47 691.352 1005.21 679.902 1004.08C670.672 1003.18 643.542 1001.93 643.542 1001.93C643.542 1001.93 642.062 979.56 641.362 973.42C639.402 956.21 638.162 938.02 637.822 920.72C637.412 898.5 635.432 876.35 635.492 854.12C635.572 816.98 632.142 788.42 632.202 751.28C632.262 718.38 635.532 688.31 633.102 655.47C632.142 642.44 632.012 627.7 632.372 612.63C632.422 610.6 632.472 608.57 632.542 606.53C633.132 587.01 634.442 567.26 635.662 550.23C635.932 546.4 635.982 542.24 635.912 537.85C635.882 535.84 635.822 533.78 635.752 531.69C634.972 509.41 632.542 483.12 641.122 466.85C642.512 464.22 644.202 461.82 646.142 459.64C660.372 443.62 686.872 439.37 705.702 435.03C731.422 429.1 757.912 431.4 783.872 428.15C810.672 424.79 854.682 414.61 862.372 457.64C865.402 474.62 865.742 493.45 866.372 510.87C866.592 516.82 866.742 522.77 866.872 528.72C866.912 530.77 866.952 532.82 866.992 534.87C867.232 546.73 867.432 558.6 867.892 570.42C867.902 570.77 867.912 571.11 867.922 571.46V571.52C868.162 580.08 867.212 588.81 866.982 597.42V597.51C866.942 599.04 866.932 600.56 866.952 602.09C866.962 602.92 866.982 603.77 867.012 604.6C867.062 605.8 867.102 607 867.132 608.21C868.192 641.33 866.142 677.66 867.012 710.62C867.422 725.96 867.702 741.31 867.862 756.65C867.942 764.32 868.062 772 868.012 779.68C867.992 782.6 867.142 786.55 867.552 789.34C867.962 792.14 870.322 794.28 870.432 797.11C870.532 799.66 868.132 802.21 868.192 805.38C868.262 808.99 869.852 811.09 869.492 814.95C868.032 830.37 867.542 845.9 867.182 861.67Z" fill="#D1C8C1" stroke="#231F20" stroke-miterlimit="10" stroke-linecap="round" stroke-linejoin="round"/>
<path opacity="0.2" d="M867.941 571.49V571.55C867.721 580.18 866.751 588.91 867.001 597.45V597.54C867.011 597.85 867.021 598.17 867.031 598.48C867.081 599.68 867.121 600.88 867.151 602.09C867.091 602.1 867.031 602.11 866.971 602.12C854.971 604.17 842.961 606.07 830.881 607.59C819.671 609 808.531 610.46 797.361 611.9C787.341 613.19 777.361 614.79 767.381 616.31C765.881 616.54 763.751 617.13 762.241 616.7C760.551 616.21 760.631 615.31 759.531 614.04C758.361 612.69 759.131 612.98 757.291 612.61C755.371 612.22 753.411 612.52 751.571 612.86C750.381 605.53 750.721 597.75 750.081 590.32C749.861 587.73 748.791 584.46 748.751 582.05C748.881 590.88 748.951 601.48 748.961 613.18C748.961 612.97 742.661 613.47 741.891 613.51C739.541 613.64 737.451 613.36 735.701 615.3C734.841 616.25 734.491 617.17 733.341 617.65C730.751 618.73 726.031 617.95 723.511 617.67C711.531 616.31 699.571 614.44 687.571 613.1C678.191 612.05 669.301 610.38 659.861 609.99C650.751 609.62 641.331 609.14 632.541 606.54C632.481 606.52 632.431 606.51 632.371 606.49C632.861 585.02 634.311 562.9 635.671 544.1C635.811 542.11 635.891 540.03 635.921 537.87C635.991 533.98 635.911 529.85 635.761 525.56C637.471 525.31 639.261 525.31 640.961 525.34C716.271 526.48 791.581 527.61 866.881 528.75H867.001C867.241 540.61 867.441 552.48 867.901 564.3C868.001 566.68 868.001 569.08 867.941 571.49Z" fill="#231F20"/>
<path d="M828.711 815.009C840.071 815.329 851.791 811.989 862.571 808.789" stroke="#231F20" stroke-miterlimit="10" stroke-linecap="round" stroke-linejoin="round"/>
<path d="M748.75 582.049C752.96 606.719 769.86 663.909 778.17 681.469" stroke="#231F20" stroke-miterlimit="10" stroke-linecap="round" stroke-linejoin="round"/>
<path d="M589.04 515.73C589.24 525.45 586.3 535.26 583.5 544.44C580.25 555.09 578.34 566.16 577.85 577.29C577.8 578.51 577.77 579.79 578.31 580.89C579.06 582.4 580.69 583.22 582.23 583.91C584.86 585.1 587.52 586.23 590.2 587.3C592.47 588.21 594.8 589.08 597.25 589.22C601.01 589.42 604.61 587.86 608.05 586.33C611.12 584.96 618.92 579.77 620.21 576.59C620.61 575.61 620.46 574.51 620.3 573.47C618.83 563.8 616.59 553.92 615.85 544.17C615.23 535.95 617.19 527.66 616.23 519.31C614.19 501.64 586.95 500.7 588.49 519.24C588.47 519.23 589.04 515.73 589.04 515.73Z" fill="#EB978D" stroke="#231F20" stroke-miterlimit="10" stroke-linecap="round" stroke-linejoin="round"/>
<path d="M616.038 546.48C615.688 572.61 609.718 580.601 607.528 588.031C607.038 589.681 606.308 591.581 604.648 592.021C603.488 592.321 597.338 590.981 596.738 590.201C594.598 587.411 596.608 582.29 596.318 578.79C596.018 575.18 594.718 568.03 591.578 566.23" fill="#EB978D"/>
<path d="M616.038 546.48C615.688 572.61 609.718 580.601 607.528 588.031C607.038 589.681 606.308 591.581 604.648 592.021C603.488 592.321 597.338 590.981 596.738 590.201C594.598 587.411 596.608 582.29 596.318 578.79C596.018 575.18 594.718 568.03 591.578 566.23" stroke="#231F20" stroke-miterlimit="10" stroke-linecap="round" stroke-linejoin="round"/>
<path d="M577.949 503.46C576.779 512.93 577.109 520.7 577.269 529.92C586.509 533.14 615.259 531.01 618.959 529.05C620.439 528.27 620.489 516.91 620.779 502.49C612.299 500.95 575.979 491.84 577.949 503.46Z" fill="white" stroke="#231F20" stroke-miterlimit="10" stroke-linecap="round" stroke-linejoin="round"/>
<path d="M648.799 394.6C652.449 374.92 651.909 356.12 652.319 336.37C652.749 315.58 655.179 294.64 652.859 274.07C650.919 256.94 649.729 238.28 649.869 220.8C649.949 210.75 651.069 200.74 651.589 190.7C651.859 185.45 653.469 180.28 653.279 174.99C653.009 167.64 650.969 166.42 644.429 168.83C633.809 172.74 622.459 180.06 617.779 190.96C612.209 203.93 609.149 218.03 606.099 231.81C602.869 246.39 599.869 261.04 597.429 275.8C589.669 322.77 584.569 370.13 578.919 417.39C575.829 443.19 575.259 469.12 573.879 495C573.619 499.96 572.339 516.93 573.879 521.57C575.179 525.48 590.429 524.42 592.949 524.24C605.399 523.35 607.279 522.3 615.079 522.44C617.859 522.49 621.429 523.37 623.099 521.2C624.619 519.23 624.089 512.37 624.319 509.85C625.629 495.64 626.659 481.17 632.859 468.07C643.299 446.09 644.319 418.77 648.799 394.6Z" fill="#D1C8C1" stroke="#231F20" stroke-miterlimit="10" stroke-linecap="round" stroke-linejoin="round"/>
<path opacity="0.2" d="M638.027 258.32C630.867 266.32 627.397 277.57 625.927 288.72C624.707 298.01 624.727 307.44 624.747 316.83C624.827 349.82 624.897 382.8 624.977 415.79C624.987 419.26 625.017 422.85 626.277 426.03C627.537 429.21 630.387 431.89 633.507 431.61C637.557 431.25 639.957 426.53 641.497 422.36C660.067 372.05 657.967 313.38 636.777 264.36L638.027 258.32Z" fill="#231F20"/>
<path d="M633.42 279.95C626.8 266.39 622.54 251.68 620.91 236.68" stroke="#231F20" stroke-miterlimit="10" stroke-linecap="round" stroke-linejoin="round"/>
<path d="M609.078 359.99C620.838 357.62 633.148 358 644.748 361.07" stroke="#231F20" stroke-miterlimit="10" stroke-linecap="round" stroke-linejoin="round"/>
<path d="M708.841 211.422C712.711 204.802 717.501 198.722 723.031 193.412C724.281 192.212 725.611 191.022 727.231 190.372C728.831 189.732 730.591 189.662 732.321 189.602C740.511 189.322 748.691 189.052 756.881 188.772C758.031 188.732 759.221 188.702 760.291 189.122C761.721 189.682 762.731 190.942 763.681 192.162C765.181 194.102 766.561 198.152 769.441 198.212C772.541 198.272 775.131 192.952 776.891 190.962C778.681 188.942 781.021 187.162 783.711 187.022C784.041 187.002 784.401 187.022 784.671 187.212C784.941 187.402 785.071 187.732 785.181 188.052C786.121 190.612 787.071 193.262 786.861 195.982C786.781 197.072 786.511 198.142 786.241 199.202C784.161 207.402 780.911 214.992 778.631 222.982C776.671 229.852 774.631 236.692 772.601 243.542C766.521 264.022 760.261 284.882 748.141 302.482C747.661 303.182 747.141 303.902 746.421 304.342C745.701 304.782 744.851 304.912 744.021 305.022C740.941 305.442 737.711 305.762 734.821 304.632C729.211 302.452 726.921 295.892 725.291 290.092C722.341 279.602 719.391 269.122 716.441 258.632C713.311 247.492 710.161 236.302 708.641 224.832C707.891 219.172 708.111 213.232 711.771 208.862L708.841 211.422Z" fill="white" stroke="#231F20" stroke-miterlimit="10" stroke-linecap="round" stroke-linejoin="round"/>
<path d="M731.819 191.132C732.269 191.122 732.779 191.262 733.219 191.382C735.679 192.052 738.059 192.562 740.629 192.682C743.029 192.802 745.479 192.832 747.889 192.732C748.999 192.682 750.169 192.622 751.239 192.292C751.919 192.082 752.649 191.932 753.309 191.692C753.709 191.542 754.149 191.142 754.569 191.112C755.349 191.062 755.999 192.142 756.579 192.672C757.929 193.892 759.319 195.062 760.649 196.312C761.409 197.022 761.689 197.342 761.239 198.392C760.409 200.342 759.119 202.092 758.219 204.022C757.289 206.022 756.109 207.642 754.869 209.422C754.049 210.602 753.189 211.732 752.189 212.732C751.399 213.522 751.009 213.862 749.869 214.102C747.929 214.502 745.979 214.632 744.009 214.602C742.019 214.572 739.989 214.652 738.019 214.382C737.159 214.262 736.249 214.132 735.529 213.602C733.699 212.252 732.289 210.542 731.109 208.532C729.439 205.662 727.579 202.812 726.209 199.772C725.889 199.062 725.369 198.252 725.699 197.422C726.229 196.102 727.779 195.032 728.739 194.092C729.469 193.382 730.189 192.712 730.899 191.992C731.199 191.692 731.519 191.212 731.929 191.082L731.819 191.132Z" fill="#231F20"/>
<path d="M763.118 290.411C762.458 299.301 758.918 306.811 756.148 315.101C754.278 320.691 753.598 329.151 749.808 333.511C741.228 325.121 737.798 308.121 732.408 297.081C730.358 292.881 728.148 288.801 726.588 284.381C725.118 280.221 725.698 277.191 726.308 272.831C727.518 264.161 727.728 255.381 729.278 246.751C730.728 238.721 732.858 230.731 734.578 222.811C735.778 217.251 737.678 217.241 743.148 217.331C748.688 217.421 749.618 217.181 751.698 222.961C753.478 227.921 753.918 233.271 754.528 238.471C755.658 248.121 757.078 257.751 759.678 267.111C761.908 275.171 763.748 281.841 763.118 290.411Z" fill="#231F20"/>
<path d="M690.459 111.171C689.729 109.931 689.079 108.641 688.619 107.271C687.279 103.321 686.989 98.9915 686.109 94.8415C685.449 91.7415 681.059 79.1015 685.029 77.1215C687.939 75.6715 691.169 81.6815 692.179 83.4815C692.779 84.5515 693.109 86.3115 694.189 86.8915C695.589 83.8615 693.219 80.3515 692.479 77.4515C692.079 75.8715 692.399 74.7215 692.499 73.1615C692.619 71.2015 692.249 69.1315 692.139 67.1615C691.829 61.8415 691.109 56.5115 692.759 51.3215C696.339 40.0515 707.439 35.1115 718.409 32.3815C727.439 30.1415 737.099 30.5115 746.289 29.8715C753.499 29.3715 762.099 29.2315 769.129 31.3615C776.709 33.6615 784.499 39.0015 790.189 44.6015C795.659 49.9915 796.819 57.9015 796.599 65.2615C796.449 70.1415 795.379 75.0515 794.139 79.7715C793.549 82.0315 792.089 84.5315 792.339 86.8815C792.249 86.0315 794.069 83.4115 794.469 82.5715C795.299 80.8115 796.199 78.8215 797.709 77.5015C798.889 76.4715 801.439 75.4815 802.549 77.1515C803.629 78.7815 803.079 83.3915 803.029 85.3115C802.909 89.4415 801.899 93.8815 800.749 97.8515C799.669 101.571 798.659 107.021 796.119 110.031C793.979 112.551 792.089 114.291 791.549 117.561C790.369 124.751 789.729 128.671 788.559 135.861C787.679 141.211 785.149 142.561 782.469 146.421C779.929 150.081 782.269 155.351 782.989 159.521C786.709 181.011 766.669 188.311 749.839 189.431C736.609 190.311 707.809 190.191 698.769 176.621C695.969 172.421 694.239 166.751 700.539 165.041C705.759 163.621 709.729 165.121 709.669 157.141C709.619 149.941 705.569 149.521 704.299 145.651C702.649 140.661 700.539 134.631 699.739 129.431C699.189 125.831 697.789 122.071 696.709 118.571C695.709 115.311 693.289 115.501 691.509 112.811C691.129 112.281 690.789 111.731 690.459 111.171Z" fill="#EB978D" stroke="#231F20" stroke-miterlimit="10" stroke-linecap="round" stroke-linejoin="round"/>
<path d="M689.787 68.1701C689.997 71.5501 689.977 74.9101 690.817 78.2701C691.477 80.9101 693.447 83.0701 693.917 85.7701C694.137 87.0201 693.947 91.8301 696.247 91.4401C697.547 91.2201 697.547 87.3801 697.797 86.4201C698.447 83.9001 698.277 81.2701 698.607 78.7001C699.397 72.6401 699.787 66.6202 700.377 60.5502C700.897 55.2502 702.847 50.5902 707.637 47.6502C716.787 42.0302 728.307 40.6501 739.167 40.5201C750.207 40.3901 760.857 40.4401 771.497 43.1601C777.217 44.6201 784.267 46.2501 787.557 51.5501C789.507 54.6801 788.417 57.8301 788.757 61.3201C789.187 65.7401 790.197 70.1101 790.227 74.5601C790.247 78.3901 790.237 82.2301 790.227 86.0601C790.217 89.5801 791.667 89.8901 792.687 86.5001C793.247 84.6401 793.177 82.5601 793.827 80.7401C794.327 79.3401 795.527 78.5402 796.227 77.1902C797.867 74.0502 797.927 69.7401 798.087 66.3201C798.317 61.2201 798.197 56.1201 798.177 51.0201C798.157 47.8001 798.197 45.5301 796.437 42.7101C795.097 40.5601 793.257 38.7601 791.787 36.7101C788.927 32.7101 784.667 29.7601 780.117 27.8001C773.137 24.8001 765.397 23.9601 757.787 23.4001C743.777 22.3601 729.417 22.1501 715.987 26.1601C703.357 29.9301 687.727 39.6701 688.517 54.1901C688.757 58.5601 689.387 62.8802 689.737 67.2302C689.747 67.5402 689.767 67.8601 689.787 68.1701Z" fill="#231F20"/>
<path opacity="0.3" d="M724.449 161.681C724.529 161.561 724.649 161.441 724.799 161.331C726.519 160.121 731.199 163.571 733.109 163.821C736.479 164.261 739.839 163.951 743.219 163.811C746.519 163.681 749.899 164.001 753.089 163.251C755.559 162.681 758.349 162.181 760.549 161.001C762.739 159.831 766.259 158.461 765.859 162.391C765.649 164.501 761.769 166.711 759.949 167.501C751.229 171.291 753.839 169.481 745.029 171.471C743.679 171.781 736.179 169.971 734.879 169.481C731.749 168.291 728.279 166.611 725.769 164.411C725.119 163.851 723.829 162.611 724.449 161.681Z" fill="#231F20"/>
<path d="M695.158 96.3301C693.838 104.45 695.378 118.61 700.238 122.93" stroke="#231F20" stroke-miterlimit="10" stroke-linecap="round" stroke-linejoin="round"/>
<path d="M792.597 93.9102C793.607 96.0402 792.767 104.31 792.537 106.65C791.927 112.96 792.517 117.11 787.797 121.66" stroke="#231F20" stroke-miterlimit="10" stroke-linecap="round" stroke-linejoin="round"/>
<path d="M815.798 38.281C814.848 40.751 813.108 43.341 810.408 46.051C807.178 49.301 800.498 52.591 799.738 57.571C799.428 59.571 798.998 64.691 796.618 66.011C794.078 67.431 793.328 63.311 791.808 62.191C788.928 60.071 785.558 60.011 782.008 60.071C777.408 60.151 772.598 59.631 767.978 59.231C759.218 58.501 750.448 57.731 741.648 57.921C733.438 58.091 725.248 58.701 717.078 59.381C712.088 59.791 704.148 58.951 699.888 61.851C698.058 63.101 693.088 69.951 690.508 67.121C688.348 64.751 688.618 64.551 687.218 61.931C686.008 59.681 683.098 57.751 681.198 56.011C675.618 50.881 667.398 45.711 668.048 36.801C668.998 23.721 683.848 17.161 694.218 13.091C708.008 7.68097 722.428 -0.0790329 736.878 -3.36903C744.908 -5.19903 753.278 -4.84903 760.908 -2.04903C773.738 2.66097 785.598 9.44097 798.118 14.701C809.578 19.521 819.848 27.761 815.798 38.281Z" fill="#BDB09F" stroke="#231F20" stroke-miterlimit="10" stroke-linecap="round" stroke-linejoin="round"/>
<path d="M683.309 49.5813L691.689 45.6513C725.819 29.6313 763.539 28.9913 797.879 43.8313L804.369 46.6313L799.109 69.1813L776.669 62.1113C755.489 55.4413 733.229 55.3113 711.939 61.7413L686.679 69.3713L683.309 49.5813Z" fill="#FCD26B" stroke="#231F20" stroke-miterlimit="10" stroke-linecap="round" stroke-linejoin="round"/>
<path d="M746.269 58.001C758.499 58.131 770.669 58.611 782.599 60.511C785.979 61.051 790.399 61.291 793.279 62.871C799.549 66.331 789.789 68.241 785.769 68.811C769.709 71.101 765.489 71.431 744.439 71.951C735.009 72.181 725.469 71.691 716.079 70.961C712.769 70.711 691.579 69.661 691.329 66.751C691.139 64.481 696.319 63.261 698.329 62.651C709.679 59.201 722.559 57.951 734.869 57.961C738.669 57.961 742.469 57.961 746.269 58.001Z" fill="#FCD26B" stroke="#231F20" stroke-miterlimit="10" stroke-linecap="round" stroke-linejoin="round"/>
<path d="M721.008 54.7117C721.428 48.0617 719.908 42.3017 722.458 35.8717C724.408 30.9617 727.548 26.3317 732.238 23.2617C738.528 19.1517 745.858 16.6917 753.648 23.0717C759.058 27.5017 762.548 31.6517 763.708 38.0717C764.338 41.5717 765.048 44.9617 765.128 48.5417C765.248 53.7317 764.248 54.8317 758.418 55.4217C750.978 56.1717 743.748 55.7517 736.238 55.8117C732.438 55.8417 725.018 57.2217 721.728 55.0717L721.008 54.7117Z" fill="#231F20"/>
<path d="M724.038 52.3703C724.398 46.6403 723.088 41.6603 725.288 36.1203C726.968 31.8903 730.518 27.8703 734.558 25.2203C739.978 21.6703 744.408 20.7603 750.228 25.0903C755.198 28.7903 759.868 32.4803 760.868 38.0103C761.418 41.0303 762.028 43.9603 762.098 47.0403C762.208 51.5103 761.338 52.4603 756.318 52.9703C749.898 53.6203 743.668 53.2503 737.188 53.3103C733.908 53.3403 727.508 54.5303 724.668 52.6703L724.038 52.3703Z" fill="#FCD26B" stroke="#231F20" stroke-miterlimit="10" stroke-linecap="round" stroke-linejoin="round"/>
<path d="M692.157 58.0807C692.157 58.0807 746.837 43.4007 793.627 56.9107L794.877 62.4707C794.877 62.4707 755.377 50.8107 690.977 64.1107L692.157 58.0807Z" fill="#FCD26B" stroke="#231F20" stroke-miterlimit="10" stroke-linecap="round" stroke-linejoin="round"/>
<path d="M691.53 64.1101C692.916 64.1101 694.04 62.7043 694.04 60.9701C694.04 59.2359 692.916 57.8301 691.53 57.8301C690.143 57.8301 689.02 59.2359 689.02 60.9701C689.02 62.7043 690.143 64.1101 691.53 64.1101Z" fill="#FCD26B" stroke="#231F20" stroke-miterlimit="10" stroke-linecap="round" stroke-linejoin="round"/>
<path d="M794.119 62.78C795.506 62.78 796.629 61.3742 796.629 59.64C796.629 57.9058 795.506 56.5 794.119 56.5C792.733 56.5 791.609 57.9058 791.609 59.64C791.609 61.3742 792.733 62.78 794.119 62.78Z" fill="#FCD26B" stroke="#231F20" stroke-miterlimit="10" stroke-linecap="round" stroke-linejoin="round"/>
<path d="M775.848 92.2011C775.078 92.0011 771.968 91.0511 769.148 90.2611C767.598 89.8211 766.138 89.4411 765.198 89.2411C765.188 89.2311 765.178 89.2311 765.168 89.2311C764.798 89.1511 764.508 89.1111 764.348 89.1011C764.218 89.0911 763.988 89.1311 763.708 89.1911C762.998 89.3611 761.888 89.7411 760.688 90.2111C758.578 91.0311 756.188 92.1311 755.168 92.9111" stroke="#231F20" stroke-miterlimit="10" stroke-linecap="round" stroke-linejoin="round"/>
<path d="M711.297 92.6006C712.437 92.5006 716.127 91.5306 719.247 90.6806C721.587 90.0506 723.617 89.4906 724.017 89.3906C724.427 89.3006 726.027 89.7406 727.797 90.3506C730.127 91.1406 732.767 92.1906 733.417 92.6106" stroke="#231F20" stroke-miterlimit="10" stroke-linecap="round" stroke-linejoin="round"/>
<path d="M769.148 90.2519C769.128 91.1619 768.718 92.0719 767.978 92.7419C766.858 93.7519 764.978 94.1819 763.398 93.7319C761.668 93.2419 760.568 91.6819 760.698 90.2019C761.898 89.7319 763.008 89.3519 763.718 89.1819C764.018 89.1719 764.318 89.1819 764.618 89.1919C764.808 89.2019 764.998 89.2119 765.188 89.2219C765.198 89.2219 765.208 89.2219 765.218 89.2319C766.138 89.4319 767.608 89.8219 769.148 90.2519Z" fill="#231F20"/>
<path d="M727.808 90.3509C727.618 91.3809 727.128 92.4009 726.238 93.1709C725.258 93.9909 723.748 94.4809 722.348 94.2009C721.098 93.9409 720.118 93.1409 719.648 92.2009C719.398 91.7209 719.278 91.2009 719.258 90.6809C721.598 90.0509 723.628 89.4909 724.028 89.3909C724.438 89.2909 726.028 89.7409 727.808 90.3509Z" fill="#231F20"/>
<path d="M757.917 83.8418C752.927 85.8518 750.227 91.7218 750.177 93.9118C750.087 98.6618 750.157 110.192 751.267 111.142C752.097 111.842 755.877 115.412 756.657 116.182C757.977 117.462 756.897 120.252 756.037 121.742C754.787 123.912 753.157 122.412 751.387 122.622C749.387 122.862 747.997 124.852 745.897 124.842C744.707 124.842 743.087 124.882 741.967 124.502C741.057 124.192 740.407 123.412 739.507 123.062C737.257 122.202 734.987 125.662 732.957 123.602" stroke="#231F20" stroke-miterlimit="10" stroke-linecap="round" stroke-linejoin="round"/>
<path d="M746.697 124.75C746.697 126.06 746.697 128.07 746.697 129.38C746.697 130.13 746.477 130.6 745.877 130.79C744.897 131.1 744.367 130.62 743.527 130.15" stroke="#231F20" stroke-miterlimit="10" stroke-linecap="round" stroke-linejoin="round"/>
<path d="M726.68 136.98C731.34 133.53 736.81 132.72 739.24 131.88C741.79 131 743.35 133.27 745.86 132.82C748.57 132.34 749.07 131.24 751.94 132.37C754.1 133.22 756.32 133.23 761.35 136.08C758.26 135.67 755.16 135.46 752.04 135.32C749.46 135.21 747.23 135.93 744.75 136.54C742.39 137.12 740.48 135.85 738.22 135.62C736.46 135.44 734.21 135.8 732.45 136.08C732.44 136.09 726.68 136.98 726.68 136.98Z" stroke="#231F20" stroke-miterlimit="10" stroke-linecap="round" stroke-linejoin="round"/>
<path d="M726.719 136.962C728.239 138.272 730.689 138.832 732.659 139.222C734.499 139.592 735.829 140.682 737.589 141.192C740.169 141.942 743.289 141.892 745.969 141.852C748.859 141.812 751.909 141.322 754.459 139.922C756.699 138.702 758.779 136.422 761.339 135.872C761.459 135.842 761.569 135.822 761.649 135.742C759.239 134.772 755.479 135.232 752.909 135.192C749.229 135.132 745.649 137.352 741.969 136.692C740.499 136.432 739.309 135.612 737.829 135.402C733.889 134.842 730.449 136.102 726.719 136.962Z" stroke="#231F20" stroke-miterlimit="10" stroke-linecap="round" stroke-linejoin="round"/>
<path d="M756.77 113.422C758.54 116.222 761.17 117.602 762.8 120.642C764.29 123.412 765.28 126.382 766.62 129.202C767.74 131.562 769.38 134.062 768.77 136.862C767.77 141.512 764.03 146.482 760.76 149.932" stroke="#231F20" stroke-miterlimit="10" stroke-linecap="round" stroke-linejoin="round"/>
<path d="M732.048 114.672C730.948 117.762 727.728 120.712 725.498 123.132C723.278 125.542 724.368 128.312 722.738 131.192" stroke="#231F20" stroke-miterlimit="10" stroke-linecap="round" stroke-linejoin="round"/>
<path d="M751.329 114.191C751.329 116.001 751.609 117.981 750.879 119.641" stroke="#231F20" stroke-miterlimit="10" stroke-linecap="round" stroke-linejoin="round"/>
<path d="M705.996 148.271C708.356 151.231 710.216 152.681 712.296 153.661C715.246 155.051 718.936 156.311 719.886 156.851" stroke="#231F20" stroke-miterlimit="10" stroke-linecap="round" stroke-linejoin="round"/>
<path d="M734.406 163.591C738.756 163.581 748.806 163.871 753.166 163.611C758.586 163.291 772.056 154.571 775.616 150.971" stroke="#231F20" stroke-miterlimit="10" stroke-linecap="round" stroke-linejoin="round"/>
<path d="M754.708 81.6006C754.728 81.4906 754.768 81.3806 754.818 81.2606C755.128 80.5906 756.058 80.1406 756.688 79.8206C758.188 79.0506 761.778 78.1306 763.358 77.5506C765.058 76.9206 770.128 76.0606 771.768 76.0006C773.658 75.9406 775.628 76.9506 776.908 78.2606C777.688 79.0506 779.468 81.5806 778.938 82.6706C777.158 81.8106 775.358 81.2906 773.438 80.7706C769.148 79.6106 763.968 82.2906 759.918 83.6406C758.688 84.0506 757.278 84.8206 756.128 83.7006C755.458 83.0506 754.538 82.4906 754.708 81.6006Z" fill="#231F20"/>
<path d="M770.188 100.771C772.957 100.971 775.907 100.071 778.387 98.9707" stroke="#231F20" stroke-miterlimit="10" stroke-linecap="round" stroke-linejoin="round"/>
<path d="M711.297 98.8613C713.257 100.361 716.627 101.091 719.087 100.861" stroke="#231F20" stroke-miterlimit="10" stroke-linecap="round" stroke-linejoin="round"/>
<path d="M733.438 81.3616C733.448 80.8116 733.198 80.3016 732.568 79.8716C731.298 79.0116 729.438 78.4316 727.938 78.0516C724.668 77.2116 721.338 76.5916 717.958 76.3316C714.578 76.0616 713.078 76.6216 710.698 79.0216C710.198 79.5316 709.748 79.9916 709.378 80.5916C709.308 80.7016 708.438 82.6216 708.708 82.4816C710.428 81.5516 712.328 81.2016 714.228 80.7516C717.708 79.9116 721.378 81.2016 724.648 82.2916C726.448 82.8916 731.258 85.5416 732.728 83.2616C733.138 82.5916 733.438 81.9516 733.438 81.3616Z" fill="#231F20"/>
<path d="M739.617 145.66C742.997 144.87 746.647 143.84 750.177 144.6" stroke="#231F20" stroke-miterlimit="10" stroke-linecap="round" stroke-linejoin="round"/>
<path opacity="0.3" d="M693.787 100.452C693.847 100.452 693.327 96.6716 693.277 96.3516C692.937 94.3216 692.547 92.2616 691.427 90.3616C690.837 89.3516 690.437 88.2516 689.647 87.3316C689.167 86.7716 687.847 85.4216 687.527 86.8616C686.977 89.3216 688.747 91.6216 689.177 94.0216C689.657 96.7016 689.567 99.4216 690.107 102.092C690.307 103.082 690.897 108.282 693.047 107.762C693.347 107.692 691.707 102.192 691.707 101.572C691.707 101.072 691.357 99.0816 692.067 98.9516C693.137 98.7416 692.977 100.462 693.787 100.452Z" fill="#231F20"/>
<path opacity="0.3" d="M793.356 99.7914C793.296 99.7914 793.816 96.0114 793.866 95.6914C794.206 93.6614 794.596 91.6014 795.716 89.7014C796.306 88.6914 796.706 87.5914 797.496 86.6714C797.976 86.1114 799.296 84.7614 799.616 86.2014C800.166 88.6614 798.396 90.9614 797.966 93.3614C797.486 96.0414 797.576 98.7614 797.036 101.431C796.836 102.421 796.246 107.621 794.096 107.101C793.796 107.031 795.436 101.531 795.436 100.911C795.436 100.411 795.786 98.4214 795.076 98.2914C794.006 98.0814 794.176 99.8014 793.356 99.7914Z" fill="#231F20"/>
<path d="M628.579 201.47C629.299 194.96 630.159 188.49 631.019 182.14C631.449 178.98 631.949 175.72 633.669 173.03C638.319 165.73 656.139 165.42 663.829 164.34C673.639 162.96 686.789 157.15 696.099 163.9C704.909 170.28 703.119 186.59 706.529 195.76C713.339 214.03 721.079 231.77 727.949 249.74C736.729 272.7 744.099 293.38 743.809 317.66C743.269 364.37 733.159 413.16 741.489 457.82C749.409 500.27 750.029 552.97 732.649 592.25L708.849 591.82C708.849 591.82 688.269 591.84 675.269 590.62C660.709 589.25 645.769 588.23 631.619 584.34C626.569 582.95 621.869 582.76 620.019 577.86C617.659 571.59 619.999 561.7 620.209 555.2C620.799 536.69 622.259 518.08 623.699 499.33C624.839 484.47 623.459 469.37 624.799 454.58C626.039 440.87 627.919 427.13 628.669 413.28C629.519 397.36 629.849 381.41 629.639 365.46C629.489 353.65 631.789 342.25 631.549 330.7C630.899 299.41 628.529 268.07 627.019 236.81C626.449 225.23 627.269 213.29 628.579 201.47Z" fill="#D1C8C1" stroke="#231F20" stroke-miterlimit="10" stroke-linecap="round" stroke-linejoin="round"/>
<path d="M731.93 506.08C730.47 519.66 737.48 523.36 740.69 535.74C744.65 551.02 752.86 578.16 759.72 592.28C761.68 596.31 792.45 593.71 803.15 594.58C813.94 595.46 831.25 593.7 842.06 592.94C859.05 591.75 882.22 587.01 882.22 587.01C882.37 581.02 881.15 557.02 880.61 550.99C878.99 532.86 878.11 514.68 876.35 496.56C874.72 479.75 870.83 463.12 869 446.2C865.21 411.01 865.85 321.74 864.07 299.89C862.52 280.82 864.11 260.72 866.05 241.73C868.14 221.25 864.9 203.79 862.11 183.36C861.81 181.15 860.74 177.52 860.14 175.61C859.85 174.67 859.38 173.78 858.7 173.06C850.85 164.65 826.5 161.92 816.52 160.96C810.98 160.42 798.44 158.59 795.31 163.68C791.28 170.22 793.69 179 790.68 186.03C787.19 194.18 782.29 201.64 778.98 209.78C774.26 221.38 772.67 234.22 766.5 245.15C762 253.12 755.05 259.12 750.2 266.7C746.63 272.27 743.03 278 739.7 283.61C734.46 292.45 728.24 300.55 728.13 310.84C727.94 329.21 726.49 360.8 728.11 378.83C729.13 390.28 732.91 496.95 731.93 506.08Z" fill="#D1C8C1" stroke="#231F20" stroke-miterlimit="10" stroke-linecap="round" stroke-linejoin="round"/>
<path d="M733.832 324.861C739.072 324.861 744.312 324.511 749.542 324.571" stroke="#231F20" stroke-miterlimit="10" stroke-linecap="round" stroke-linejoin="round"/>
<path d="M734.121 387.971C738.971 387.971 743.861 387.521 748.681 387.681" stroke="#231F20" stroke-miterlimit="10" stroke-linecap="round" stroke-linejoin="round"/>
<path d="M736.691 443.951C740.951 443.951 746.551 443.951 750.111 443.951" stroke="#231F20" stroke-miterlimit="10" stroke-linecap="round" stroke-linejoin="round"/>
<path d="M741.262 497.64C745.222 497.64 749.082 497.51 752.972 497.07" stroke="#231F20" stroke-miterlimit="10" stroke-linecap="round" stroke-linejoin="round"/>
<path d="M745.511 326.352C747.014 322.386 745.929 318.298 743.089 317.222C740.249 316.146 736.728 318.489 735.225 322.455C733.722 326.421 734.807 330.509 737.647 331.585C740.487 332.662 744.008 330.319 745.511 326.352Z" fill="#FCD26B" stroke="#231F20" stroke-miterlimit="9.9997" stroke-linecap="round" stroke-linejoin="round"/>
<path d="M746.616 388.427C747.13 384.344 745.027 380.718 741.92 380.327C738.813 379.936 735.878 382.928 735.364 387.01C734.85 391.093 736.952 394.719 740.059 395.111C743.166 395.502 746.102 392.509 746.616 388.427Z" fill="#FCD26B" stroke="#231F20" stroke-miterlimit="10.0003" stroke-linecap="round" stroke-linejoin="round"/>
<path d="M747.651 444.232C748.165 440.149 746.063 436.523 742.956 436.131C739.849 435.74 736.913 438.733 736.399 442.815C735.885 446.898 737.988 450.524 741.095 450.915C744.202 451.306 747.137 448.314 747.651 444.232Z" fill="#FCD26B" stroke="#231F20" stroke-miterlimit="10.0003" stroke-linecap="round" stroke-linejoin="round"/>
<path d="M750.116 497.439C750.63 493.356 748.527 489.73 745.42 489.338C742.313 488.947 739.378 491.94 738.864 496.022C738.35 500.105 740.452 503.731 743.559 504.122C746.666 504.513 749.602 501.521 750.116 497.439Z" fill="#FCD26B" stroke="#231F20" stroke-miterlimit="10.0003" stroke-linecap="round" stroke-linejoin="round"/>
<path d="M710.188 219.221C710.488 219.171 710.808 219.081 711.138 218.921C713.378 217.881 714.758 214.761 716.138 212.611C720.958 205.141 725.338 198.451 731.558 192.341C732.508 191.411 733.438 190.431 734.468 189.591C734.758 189.361 735.078 189.121 735.448 189.141C736.558 189.191 737.028 191.511 737.178 192.351C737.188 192.421 737.208 192.501 737.258 192.551C737.328 192.611 737.418 192.611 737.508 192.611C738.858 192.581 740.218 192.691 741.548 192.921C741.438 191.051 740.748 189.071 740.198 187.291C740.048 186.801 739.878 186.311 739.558 185.911C739.318 185.611 738.988 185.381 738.668 185.171C734.278 182.191 729.438 180.661 725.268 177.321C721.158 174.031 717.488 170.051 714.818 165.491C713.078 162.531 711.718 153.601 707.628 153.871C706.108 153.971 703.308 156.491 702.178 157.581C698.288 161.341 700.258 168.371 700.688 173.481C701.318 181.151 702.318 188.771 703.178 196.401C703.618 200.281 704.108 220.151 710.188 219.221Z" fill="white" stroke="#231F20" stroke-miterlimit="10" stroke-linecap="round" stroke-linejoin="round"/>
<path d="M699.51 160.321C693.97 171.151 677.85 172.661 666.68 175.331C658.63 177.261 650.59 179.181 642.54 181.111C640.68 181.561 639.01 179.921 639.56 178.191C640.54 175.101 640.96 170.361 643.98 168.341C647.74 165.831 657.95 164.621 662.65 163.661C669.07 162.351 675.65 161.331 682.09 160.271C686.8 159.501 695.27 157.931 699.51 160.321Z" fill="#D1C8C1" stroke="#231F20" stroke-miterlimit="10" stroke-linecap="round" stroke-linejoin="round"/>
<path d="M656.68 166.89L651.48 168.77C650.49 169.13 649.4 168.61 649.04 167.62C648.68 166.63 649.2 165.53 650.19 165.17L655.39 163.29C656.38 162.93 657.47 163.45 657.83 164.44C658.18 165.43 657.67 166.53 656.68 166.89Z" fill="#FCD26B" stroke="#231F20" stroke-miterlimit="10" stroke-linecap="round" stroke-linejoin="round"/>
<path d="M665.371 165.451L659.521 167.571C658.531 167.931 657.441 167.411 657.081 166.421L656.981 166.151C656.621 165.161 657.141 164.061 658.131 163.701L663.981 161.581C664.971 161.221 666.061 161.741 666.421 162.731L666.521 163.001C666.871 163.991 666.361 165.091 665.371 165.451Z" fill="#FCD26B" stroke="#231F20" stroke-miterlimit="10" stroke-linecap="round" stroke-linejoin="round"/>
<path d="M674.501 164.121L667.981 166.481C666.991 166.841 665.901 166.321 665.541 165.331L665.341 164.791C664.981 163.801 665.501 162.701 666.491 162.341L673.011 159.981C674.001 159.621 675.091 160.141 675.451 161.131L675.651 161.671C676.011 162.661 675.491 163.761 674.501 164.121Z" fill="#FCD26B" stroke="#231F20" stroke-miterlimit="10" stroke-linecap="round" stroke-linejoin="round"/>
<path d="M684.02 162.66L677.5 165.02C676.51 165.38 675.42 164.86 675.06 163.87L674.86 163.33C674.5 162.34 675.02 161.24 676.01 160.88L682.53 158.52C683.52 158.16 684.61 158.68 684.97 159.67L685.17 160.21C685.53 161.21 685.01 162.3 684.02 162.66Z" fill="#FCD26B" stroke="#231F20" stroke-miterlimit="10" stroke-linecap="round" stroke-linejoin="round"/>
<path d="M708.37 187.351C709.98 196.061 714.76 205.111 717.33 213.541C720.95 225.391 735.94 258.571 737.36 261.751C739.35 266.211 750.71 283.781 739.21 285.561C734.23 286.331 726.61 279.271 722.81 276.591C717.03 272.511 711.51 268.011 706.32 263.141C696.32 253.761 687.5 242.991 680.2 231.191C679.23 229.621 678.27 227.981 678.04 226.131C677.47 221.491 683.67 219.441 686.71 217.321C690.98 214.341 695.25 211.361 699.52 208.381C700.4 207.761 701.41 206.671 700.85 205.721C700.51 205.151 699.77 205.041 699.12 204.991C694.64 204.651 674.99 205.551 673.43 201.611C671.77 197.421 678.71 189.871 680.32 186.371C683.79 178.831 688.9 172.331 693.4 165.411C695.68 161.911 697.74 157.841 701.23 155.361C702.17 154.691 703.34 154.271 704.41 153.871C705.39 153.511 708.17 152.241 709.17 152.881C710.17 153.521 709.6 154.991 708.83 155.691C708.06 156.401 707.04 156.801 706.31 157.571C704.96 159.011 705.02 161.291 705.18 163.301C705.85 171.391 706.9 179.401 708.37 187.351Z" fill="#D1C8C1" stroke="#231F20" stroke-miterlimit="10" stroke-linecap="round" stroke-linejoin="round"/>
<path d="M694.42 187.24C692.47 191.42 689.8 198 688.87 200.33C688.66 200.84 688.13 201.14 687.56 201.05C685.19 200.7 681.79 199.95 679.2 199.25C678.45 199.05 678.04 198.24 678.35 197.57C680.62 192.62 681.95 189.26 684.38 184.51C684.63 184.03 685.18 183.77 685.73 183.89C687.34 184.23 690.75 184.96 693.5 185.55C694.3 185.71 694.75 186.54 694.42 187.24Z" fill="#FCD26B" stroke="#231F20" stroke-miterlimit="10" stroke-linecap="round" stroke-linejoin="round"/>
<path d="M749.658 183.551C750.628 182.471 751.958 181.751 753.248 181.061C755.118 180.061 756.978 179.061 758.848 178.071C760.208 177.351 761.538 177.061 762.788 176.121C765.258 174.261 767.298 171.891 769.078 169.381C772.858 164.051 775.558 158.051 779.108 152.571C779.558 151.871 780.018 151.19 780.508 150.51C782.378 147.901 782.618 147.961 784.318 150.301C786.228 152.921 788.868 155.991 789.008 159.831C789.148 163.761 787.638 168.711 786.768 172.481C785.068 179.821 782.888 186.981 780.548 194.031C777.218 204.091 772.068 213.411 763.628 204.971C760.998 202.341 758.638 199.431 756.558 196.341C755.848 195.291 752.248 188.241 751.408 188.701C750.378 189.271 749.868 191.391 749.648 192.431C749.618 192.561 749.588 192.701 749.488 192.781C749.388 192.861 749.248 192.871 749.118 192.871C748.258 192.871 747.398 192.871 746.538 192.861C746.488 192.861 746.438 192.861 746.408 192.831C746.368 192.791 746.378 192.721 746.388 192.661C746.868 190.501 747.398 188.241 748.198 186.161C748.498 185.381 748.838 184.611 749.338 183.941C749.428 183.811 749.538 183.681 749.658 183.551Z" fill="white" stroke="#231F20" stroke-miterlimit="10" stroke-linecap="round" stroke-linejoin="round"/>
<path d="M797.41 161.472C799.83 157.072 822.07 161.752 824.53 162.172C833.48 163.692 842.42 165.212 851.37 166.732C852.43 166.912 853.3 167.562 853.65 168.432L856.75 176.172C857.5 178.042 855.57 179.842 853.32 179.372C845.64 177.802 837.95 176.222 830.27 174.652C821.89 172.932 803.65 171.872 798.35 164.912C797.19 163.402 796.97 162.282 797.41 161.472Z" fill="#D1C8C1" stroke="#231F20" stroke-miterlimit="10" stroke-linecap="round" stroke-linejoin="round"/>
<path d="M839.029 167.151L844.249 168.961C845.239 169.311 846.329 168.781 846.669 167.781C847.009 166.781 846.489 165.691 845.489 165.351L840.269 163.541C839.279 163.191 838.189 163.721 837.849 164.721C837.509 165.721 838.039 166.811 839.029 167.151Z" fill="#FCD26B" stroke="#231F20" stroke-miterlimit="10" stroke-linecap="round" stroke-linejoin="round"/>
<path d="M830.319 165.832L836.199 167.872C837.189 168.222 838.279 167.692 838.619 166.692L838.709 166.422C839.049 165.422 838.529 164.332 837.529 163.992L831.649 161.952C830.659 161.602 829.569 162.132 829.229 163.132L829.139 163.402C828.789 164.392 829.319 165.482 830.319 165.832Z" fill="#FCD26B" stroke="#231F20" stroke-miterlimit="10" stroke-linecap="round" stroke-linejoin="round"/>
<path d="M821.171 164.612L827.721 166.882C828.711 167.232 829.801 166.702 830.141 165.702L830.331 165.152C830.671 164.152 830.151 163.062 829.151 162.722L822.601 160.452C821.611 160.102 820.521 160.632 820.181 161.632L819.991 162.182C819.651 163.182 820.171 164.272 821.171 164.612Z" fill="#FCD26B" stroke="#231F20" stroke-miterlimit="10" stroke-linecap="round" stroke-linejoin="round"/>
<path d="M811.631 163.282L818.181 165.552C819.171 165.902 820.261 165.372 820.601 164.372L820.791 163.822C821.131 162.822 820.611 161.732 819.611 161.392L813.061 159.122C812.071 158.772 810.981 159.302 810.641 160.302L810.451 160.852C810.111 161.842 810.641 162.932 811.631 163.282Z" fill="#FCD26B" stroke="#231F20" stroke-miterlimit="10" stroke-linecap="round" stroke-linejoin="round"/>
<path d="M815.139 189.831C813.829 186.161 812.549 182.491 810.709 179.091C807.719 173.551 805.639 166.061 801.119 161.531C799.159 159.001 797.009 156.711 794.649 154.521C794.279 154.181 793.799 153.931 793.379 153.651C792.479 153.061 791.439 152.651 790.399 152.331C789.699 152.121 788.519 151.751 787.859 152.211C787.429 152.511 786.349 152.821 786.499 153.331C786.499 153.331 787.899 155.211 787.989 155.921C788.069 156.501 787.669 160.381 787.359 161.901C786.149 167.951 785.639 175.881 784.559 181.021C782.049 193.011 779.179 204.401 774.409 215.771C769.149 228.311 762.729 240.351 755.859 252.071C751.819 258.971 748.089 266.491 743.879 273.151C742.109 275.951 732.819 295.041 729.859 301.501C759.049 281.201 786.149 259.871 813.259 236.861C816.759 233.891 820.589 229.571 818.909 225.281C818.149 223.341 816.399 222.001 814.729 220.761C809.169 216.631 799.699 212.071 795.609 206.521C792.309 202.051 795.899 201.611 800.329 201.611C804.359 201.651 808.379 201.681 812.409 201.721C814.639 201.741 817.479 201.331 818.049 199.161C818.339 198.071 817.889 196.941 817.449 195.901C816.619 193.911 815.869 191.871 815.139 189.831Z" fill="#D1C8C1" stroke="#231F20" stroke-miterlimit="10" stroke-linecap="round" stroke-linejoin="round"/>
<path d="M798.44 183.2C799.9 187.82 801.79 195.05 802.45 197.6C802.6 198.16 803.09 198.55 803.67 198.54C806.07 198.52 809.54 198.22 812.2 197.87C812.97 197.77 813.47 196.99 813.24 196.24C811.55 190.77 810.62 187.09 808.75 181.8C808.56 181.26 808.04 180.92 807.47 180.96C805.82 181.09 802.35 181.35 799.54 181.57C798.74 181.62 798.19 182.42 798.44 183.2Z" fill="#FCD26B" stroke="#231F20" stroke-miterlimit="10" stroke-linecap="round" stroke-linejoin="round"/>
<path d="M845.781 384.24C842.991 385.88 777.061 387.7 776.261 384.04C774.781 377.31 774.701 324.52 774.141 306.76L779.451 300.63C797.031 281.46 823.021 286.1 842.041 295.22C846.361 297.29 849.451 298.17 849.311 303.5C849.151 310.42 849.641 317.65 849.191 324.63C848.621 333.45 847.981 382.94 845.781 384.24Z" fill="#D1C8C1" stroke="#231F20" stroke-miterlimit="10" stroke-linecap="round" stroke-linejoin="round"/>
<path d="M785.919 285.97C796.399 285.69 810.199 285.72 816.699 285.84C820.279 285.91 850.019 284.56 850.229 290.19C850.389 294.58 850.929 320.25 849.259 321.66C847.259 323.35 841.419 320.26 839.419 319.59C831.109 316.78 823.999 317.31 816.099 319.87C805.329 323.37 795.709 315.15 785.179 318.74C780.899 320.2 775.539 322.22 774.729 316.11C773.849 309.51 773.799 295.41 774.129 288.64C774.299 285.18 780.859 286.1 785.919 285.97Z" fill="#D1C8C1" stroke="#231F20" stroke-miterlimit="10" stroke-linecap="round" stroke-linejoin="round"/>
<path d="M811.819 311.011C811.629 308.501 812.279 305.861 812.609 303.391" stroke="#231F20" stroke-miterlimit="10" stroke-linecap="round" stroke-linejoin="round"/>
<path d="M811.368 315.719C813.638 315.719 815.478 313.942 815.478 311.749C815.478 309.557 813.638 307.779 811.368 307.779C809.098 307.779 807.258 309.557 807.258 311.749C807.258 313.942 809.098 315.719 811.368 315.719Z" fill="#D1C8C1" stroke="#231F20" stroke-miterlimit="10" stroke-linecap="round" stroke-linejoin="round"/>
<path d="M645.02 383.49C647.81 385.13 713.74 386.95 714.54 383.29C716.02 376.56 716.1 323.77 716.66 306.01L711.35 299.88C693.77 280.71 667.78 285.35 648.76 294.47C644.44 296.54 641.35 297.42 641.49 302.75C641.65 309.67 641.16 316.9 641.61 323.88C642.18 332.69 642.81 382.18 645.02 383.49Z" fill="#D1C8C1" stroke="#231F20" stroke-miterlimit="10" stroke-linecap="round" stroke-linejoin="round"/>
<path d="M704.869 285.22C694.389 284.94 680.589 284.97 674.089 285.09C670.509 285.16 640.769 283.81 640.559 289.44C640.399 293.83 639.859 319.5 641.529 320.91C643.529 322.6 649.369 319.51 651.369 318.84C659.679 316.03 666.789 316.56 674.689 319.12C685.459 322.62 695.079 314.4 705.609 317.99C709.889 319.45 715.249 321.47 716.059 315.36C716.939 308.76 716.989 294.66 716.659 287.89C716.489 284.43 709.939 285.35 704.869 285.22Z" fill="#D1C8C1" stroke="#231F20" stroke-miterlimit="10" stroke-linecap="round" stroke-linejoin="round"/>
<path d="M680 310.18C681.07 307.9 681.39 305.2 681.95 302.77" stroke="#231F20" stroke-miterlimit="10" stroke-linecap="round" stroke-linejoin="round"/>
<path d="M680.18 314.42C682.45 314.42 684.29 312.643 684.29 310.45C684.29 308.258 682.45 306.48 680.18 306.48C677.91 306.48 676.07 308.258 676.07 310.45C676.07 312.643 677.91 314.42 680.18 314.42Z" fill="#D1C8C1" stroke="#231F20" stroke-miterlimit="10" stroke-linecap="round" stroke-linejoin="round"/>
<path d="M870.262 550.98C867.332 553.36 795.552 560.81 791.112 558.23C783.982 554.09 783.412 487.28 779.902 465.99L780.002 460.04C797.062 434.46 827.622 436.32 850.892 444.57C856.182 446.44 859.862 447.06 860.572 453.49C861.502 461.83 863.232 470.47 863.842 478.92C864.612 489.62 872.582 549.09 870.262 550.98Z" fill="#D1C8C1" stroke="#231F20" stroke-miterlimit="10" stroke-linecap="round" stroke-linejoin="round"/>
<path d="M779.621 443.349C788.901 438.259 858.661 433.099 859.841 439.999C860.711 445.129 865.381 475.229 863.691 477.119C861.661 479.389 841.461 485.329 824.141 486.889C814.591 487.749 790.681 483.059 783.521 482.459C781.961 482.329 780.451 482.009 780.241 480.469C778.741 469.549 778.291 444.079 779.621 443.349Z" fill="#D1C8C1" stroke="#231F20" stroke-miterlimit="10" stroke-linecap="round" stroke-linejoin="round"/>
<path d="M821.73 474.709C821.11 471.789 821.44 468.589 821.43 465.639" stroke="#231F20" stroke-miterlimit="10" stroke-linecap="round" stroke-linejoin="round"/>
<path d="M826.155 475.875C826.8 473.361 825.259 470.793 822.713 470.139C820.167 469.485 817.579 470.994 816.934 473.508C816.289 476.022 817.83 478.59 820.376 479.244C822.922 479.897 825.51 478.389 826.155 475.875Z" fill="#D1C8C1" stroke="#231F20" stroke-miterlimit="9.9999" stroke-linecap="round" stroke-linejoin="round"/>
<path d="M631.291 551.93C634.281 554.21 706.181 560.23 710.571 557.62C717.611 553.43 716.671 487.87 719.711 466.93L719.481 461.09C701.851 436.3 671.351 438.68 648.271 447.19C643.031 449.12 639.361 449.79 638.801 456.11C638.061 464.31 636.521 472.81 636.101 481.12C635.571 491.63 628.931 550.12 631.291 551.93Z" fill="#D1C8C1" stroke="#231F20" stroke-miterlimit="10" stroke-linecap="round" stroke-linejoin="round"/>
<path d="M719.48 444.711C710.09 439.881 640.25 436.081 639.23 442.871C638.47 447.921 634.48 477.531 636.22 479.361C638.29 481.551 658.62 487.011 675.97 488.231C685.54 488.901 709.32 483.871 716.47 483.151C718.03 482.991 719.53 482.661 719.7 481.141C720.94 470.391 720.82 445.401 719.48 444.711Z" fill="#D1C8C1" stroke="#231F20" stroke-miterlimit="10" stroke-linecap="round" stroke-linejoin="round"/>
<path d="M678.09 476.23C678.64 473.35 678.24 470.22 678.18 467.33" stroke="#231F20" stroke-miterlimit="10" stroke-linecap="round" stroke-linejoin="round"/>
<path d="M678.439 480.807C681.06 480.686 683.089 478.527 682.972 475.983C682.854 473.44 680.635 471.476 678.014 471.597C675.394 471.718 673.365 473.878 673.482 476.421C673.599 478.965 675.819 480.928 678.439 480.807Z" fill="#D1C8C1" stroke="#231F20" stroke-miterlimit="9.9996" stroke-linecap="round" stroke-linejoin="round"/>
</g>
<defs>
<clipPath id="clip0_16_1498">
<rect width="355" height="1080" fill="white" transform="translate(572 -5)"/>
</clipPath>
</defs>
</svg>
