<svg width="1080" height="1075" viewBox="0 0 1080 1075" fill="none" xmlns="http://www.w3.org/2000/svg">
<g clip-path="url(#clip0_16_1498)">
<path d="M753.679 1005.38C753.139 1011.35 751.279 1017.04 746.369 1020.52C740.649 1024.57 731.929 1023.13 725.829 1027.44C718.309 1032.77 711.899 1038.7 702.959 1042.01C685.209 1048.61 660.959 1044.32 642.059 1045.18C628.999 1045.77 620.919 1036.45 631.709 1024.92C639.199 1016.91 650.059 1014.7 657.929 1006.73C660.319 1004.31 662.609 1001.78 664.799 999.151C668.219 995.051 671.389 990.731 674.219 986.201C675.659 983.901 677.009 981.561 678.269 979.161C681.919 972.241 684.629 961.871 692.739 958.831C699.809 956.171 712.919 960.081 720.729 960.621C726.219 961.011 743.179 958.711 747.529 961.611C752.359 964.821 752.799 985.761 753.369 992.031C753.729 996.061 754.089 1000.8 753.679 1005.38Z" fill="#414042" stroke="#231F20" stroke-miterlimit="10" stroke-linecap="round" stroke-linejoin="round"/>
<path d="M867.541 1021.08C866.881 1024.43 865.151 1027.44 863.951 1030.64C861.701 1036.7 864.511 1042.53 863.091 1048.86C861.801 1054.67 859.191 1060.07 854.611 1063.96C843.681 1073.25 820.541 1073.95 806.781 1074.36C795.271 1074.69 776.661 1075.26 767.931 1065.99C755.501 1052.8 776.831 1044.69 782.791 1036.01C786.771 1030.22 786.331 1020.66 788.581 1013.75C788.631 1013.6 788.691 1013.45 788.731 1013.3C791.281 1005.66 795.091 998.371 801.551 993.361C812.571 984.791 828.131 984.811 841.381 985.691C853.061 986.471 858.191 989.761 861.971 997.401C863.431 1000.34 864.671 1003.9 866.021 1008.22C866.591 1010.04 867.101 1011.88 867.431 1013.76C867.891 1016.19 868.011 1018.65 867.541 1021.08Z" fill="#414042" stroke="#231F20" stroke-miterlimit="10" stroke-linecap="round" stroke-linejoin="round"/>
<g opacity="0.3">
<path d="M753.371 992.03C753.731 996.07 754.091 1000.81 753.691 1005.39C736.871 1007.37 719.711 1006.08 702.771 1004.77C690.061 1003.79 676.961 1002.68 664.801 999.16C668.221 995.06 671.391 990.74 674.221 986.21C675.661 983.91 677.011 981.57 678.271 979.17C681.921 972.25 684.631 961.88 692.741 958.84C699.811 956.18 712.921 960.09 720.731 960.63C726.221 961.02 743.181 958.72 747.531 961.62C752.361 964.82 752.801 985.75 753.371 992.03Z" fill="#231F20"/>
</g>
<g opacity="0.3">
<path d="M867.438 1013.74C867.328 1013.78 867.208 1013.82 867.108 1013.84C846.208 1019.68 824.158 1021.36 802.618 1018.76C799.018 1018.32 795.328 1017.74 792.178 1015.94C790.888 1015.2 789.748 1014.3 788.738 1013.28C791.288 1005.64 795.098 998.351 801.558 993.341C812.578 984.771 828.138 984.791 841.388 985.671C853.068 986.451 858.198 989.741 861.978 997.381C863.438 1000.32 864.678 1003.88 866.028 1008.2C866.598 1010.02 867.108 1011.86 867.438 1013.74Z" fill="#231F20"/>
</g>
<path d="M786.91 1035.08C803.99 1026.18 833.33 1034.34 838.42 1042.53" stroke="white" stroke-miterlimit="10" stroke-linecap="round" stroke-linejoin="round"/>
<path d="M653.879 1014.62C672.589 1009.7 683.439 1010.45 699.709 1016.64" stroke="white" stroke-miterlimit="10" stroke-linecap="round" stroke-linejoin="round"/>
<path d="M761.002 987.259C753.712 995.729 718.852 989.849 708.072 988.269C696.492 986.569 684.382 981.989 672.392 981.599C670.562 981.539 669.172 979.939 669.362 978.109C671.192 960.499 666.542 864.169 665.292 855.589C663.272 841.709 662.072 827.699 660.002 813.829C652.742 765.389 643.832 719.769 641.402 670.819C640.572 654.049 640.092 637.029 640.092 619.999C640.092 613.299 639.392 606.619 638.872 599.919C638.742 598.239 638.622 596.559 638.532 594.879C638.352 591.729 638.262 588.599 638.342 585.439C638.642 574.229 643.842 564.779 643.832 554.009C643.832 551.139 643.762 547.439 643.712 543.209C643.672 539.989 643.652 536.479 643.692 532.789C643.902 510.419 646.192 481.739 659.862 476.819C668.052 473.869 754.812 475.699 754.972 472.689C754.632 480.259 754.202 487.849 753.752 495.419C753.152 505.319 752.482 515.219 751.892 525.109C751.682 528.469 751.492 531.829 751.302 535.189C750.792 544.179 750.372 553.159 750.122 562.139C749.632 579.229 749.442 596.339 749.472 613.429C749.472 614.659 749.472 615.879 749.482 617.119C749.632 663.029 751.392 708.919 753.642 754.769V754.809C754.062 763.409 754.492 771.989 754.942 780.579C756.832 817.009 758.932 853.409 760.642 889.849C761.382 905.759 761.002 987.259 761.002 987.259Z" fill="#D1C8C1" stroke="#231F20" stroke-miterlimit="10" stroke-linecap="round" stroke-linejoin="round"/>
<path d="M875.844 994.079C872.634 998.339 860.884 998.039 856.184 998.919C846.514 1000.71 836.594 1000.81 826.794 1000.46C814.564 1000.02 794.184 997.619 782.294 994.939C782.294 994.939 781.894 984.709 780.904 975.269C776.774 935.959 772.154 878.689 766.744 839.719C762.814 811.429 758.484 783.159 753.634 754.829V754.799C752.934 750.679 752.214 746.579 751.494 742.459C746.104 711.899 748.434 680.129 741.404 650.069C738.444 637.429 733.804 624.609 728.944 611.649C728.334 610.029 727.724 608.399 727.114 606.769C718.634 584.279 710.084 561.369 709.114 538.209C708.974 534.859 708.984 531.519 709.184 528.169C709.504 522.639 710.324 517.099 711.724 511.559C715.354 497.299 734.974 495.149 753.764 495.449C766.554 495.659 778.964 497.009 785.644 496.459C802.954 495.049 820.354 492.929 837.704 495.079C849.274 496.499 854.144 506.059 856.104 517.769C856.634 520.969 856.954 524.329 857.134 527.729C857.744 539.469 856.694 551.679 857.184 559.359C858.004 572.359 855.494 585.309 856.844 598.349C857.064 600.489 857.264 602.619 857.444 604.719C857.524 605.519 857.594 606.319 857.654 607.119C858.944 622.439 859.334 637.179 858.764 653.099C857.404 691.119 859.664 728.689 868.384 765.569C876.854 801.429 873.854 838.849 874.464 875.359C874.894 901.469 876.654 945.839 875.394 971.959C875.124 977.649 875.844 994.079 875.844 994.079Z" fill="#D1C8C1" stroke="#231F20" stroke-miterlimit="10" stroke-linecap="round" stroke-linejoin="round"/>
<path opacity="0.2" d="M857.442 604.71C822.172 612.23 785.922 615.19 749.872 613.48C749.732 613.47 749.602 613.47 749.462 613.46C747.482 613.36 745.492 613.25 743.502 613.13C738.172 612.79 732.352 612.15 728.532 608.41C728.252 608.13 727.982 607.85 727.732 607.55C727.512 607.3 727.302 607.04 727.102 606.77C726.432 605.89 737.582 631.37 743.662 661.63C746.002 673.29 747.162 702.64 749.482 726.96C751.942 752.79 756.532 769.7 753.862 775.67C751.062 781.92 715.252 633.66 697.052 614.58C682.212 599.02 660.032 594.81 638.532 594.9C638.352 591.75 638.262 588.62 638.342 585.46C638.642 574.25 643.842 564.8 643.832 554.03C643.832 551.16 643.762 547.46 643.712 543.23C643.672 540.01 643.652 536.5 643.692 532.81C644.442 532.74 645.182 532.69 645.922 532.64C666.062 531.21 686.192 529.79 706.342 528.36C707.282 528.29 708.222 528.23 709.162 528.16C723.392 527.16 737.612 526.14 751.842 525.13H751.882C786.622 522.68 821.352 520.21 856.092 517.76C856.622 520.96 856.942 524.32 857.122 527.72C857.732 539.46 856.682 551.67 857.172 559.35C857.992 572.35 855.482 585.3 856.832 598.34C857.062 600.48 857.262 602.6 857.442 604.71Z" fill="#231F20"/>
<path d="M862.254 732.52C866.064 755.01 864.004 803.48 856.934 843.78" stroke="#231F20" stroke-miterlimit="10" stroke-linecap="round" stroke-linejoin="round"/>
<path d="M603.67 517.48C600.21 523.21 598.66 529.13 594.26 534.66C591.02 538.73 586.76 541.01 584.17 545.38C579.24 553.71 589.66 563.77 596 567.92C598.41 569.49 599.05 568.98 601.31 571.42C603.18 573.45 603.71 576.97 605.56 579.09C608.25 582.18 606.94 582.3 611.46 582.63C616.6 583.01 615.29 580.83 618.27 579.26C621 577.82 620.35 577.16 623.67 576.32C626.64 575.57 630.36 576.6 633.4 576.21C640.64 575.28 646.44 571.36 648.95 564.35C651.26 557.9 648.91 546.07 648.92 539.2C648.93 533.46 648.48 527.87 648.19 522.16C647.67 512.07 648.99 501.64 648.03 491.67C638.89 490.55 618.04 484.62 610.77 492.48C605.68 497.99 606.47 508.7 603.67 515.38V517.48Z" fill="#EB978D" stroke="#231F20" stroke-miterlimit="10" stroke-linecap="round" stroke-linejoin="round"/>
<path d="M603.631 570.269C604.961 570.109 605.551 571.849 606.471 572.809C607.481 573.869 609.201 574.029 610.531 573.419C611.851 572.809 612.791 571.539 613.301 570.169C614.121 567.939 613.871 565.409 612.981 563.199C612.091 560.999 610.591 559.079 608.921 557.389C606.101 554.519 602.751 552.169 599.051 550.609" stroke="#231F20" stroke-miterlimit="10" stroke-linecap="round" stroke-linejoin="round"/>
<path d="M605.02 549.83C605.13 547.9 605.24 545.97 605.34 544.03C605.39 543.21 605.44 542.36 605.8 541.62C606.57 540.03 608.66 539.39 610.35 539.91C612.04 540.43 613.3 541.89 614.02 543.5C614.74 545.11 614.98 546.89 615.22 548.64C616.42 557.43 617.61 566.23 618.81 575.02" stroke="#231F20" stroke-miterlimit="10" stroke-linecap="round" stroke-linejoin="round"/>
<path d="M618.02 547.23C619.59 546.44 621.28 545.89 623.01 545.61C623.89 545.47 624.87 545.42 625.6 545.94C626.09 546.29 626.39 546.84 626.65 547.38C630.09 554.58 629.18 563.14 631.76 570.69" stroke="#231F20" stroke-miterlimit="10" stroke-linecap="round" stroke-linejoin="round"/>
<path d="M600.19 505.58C601.07 513.7 596.08 523.31 593.98 530.73C607.03 532.59 619.65 535.01 632.91 535C637.74 535 649.63 537.46 653.54 534.91C656.84 532.75 660.51 519.65 659.97 516.16C641.69 515.42 622.13 507.68 603.67 507.68L600.19 505.58Z" fill="white" stroke="#231F20" stroke-miterlimit="10" stroke-linecap="round" stroke-linejoin="round"/>
<path d="M699.7 374.62C692.71 412.44 688.67 450.65 683.17 488.66C681.81 498.11 681.55 509 678.54 518.11C675.74 526.56 667.35 529.68 657.11 530.08C657.1 530.08 657.09 530.08 657.09 530.08C642.63 530.65 624.54 525.78 613.53 522.83C611.39 522.26 609.51 521.76 607.99 521.39C604.09 520.44 595.73 520.01 592.54 517.6C584.53 511.55 593.22 490.27 595.33 482.01C600.15 463.13 604.98 444.4 608.94 425.3C611.86 411.2 614.78 397.12 617.71 383.02C626.33 341.44 630.87 299.45 638.53 257.72C639.34 253.27 640.19 248.81 641.09 244.37C641.67 241.52 642.26 238.67 642.87 235.81C644.22 229.54 645.61 223.15 648.75 217.55C652.71 210.48 658.69 206.25 663.56 208.13C666.11 209.12 668.37 211.8 669.86 216.63C673.24 227.55 677.33 238.24 682.1 248.62C686.18 257.51 692.69 263.78 696.88 272.12C701.35 281.05 705.15 293.61 706.84 303.46C710.91 327.17 704 351.35 699.7 374.62Z" fill="#D1C8C1" stroke="#231F20" stroke-miterlimit="10" stroke-linecap="round" stroke-linejoin="round"/>
<path opacity="0.2" d="M699.699 374.621C692.709 412.441 688.669 450.651 683.169 488.661C681.809 498.111 681.549 509.001 678.539 518.111C675.739 526.561 667.349 529.681 657.109 530.081C657.099 530.081 657.089 530.081 657.089 530.081C643.669 529.571 628.349 525.441 618.579 522.831C614.599 521.761 619.839 477.661 620.399 472.891C621.929 459.881 622.759 441.731 631.029 430.951C633.189 428.111 635.969 425.741 637.779 422.661C640.239 418.461 640.669 413.411 641.029 408.551C641.529 401.831 642.029 395.081 641.589 388.351C640.949 378.491 636.689 368.791 637.209 359.131C637.789 348.101 639.809 336.811 640.589 325.701C642.129 303.721 639.649 279.271 643.579 257.711C644.389 253.261 645.239 248.801 646.139 244.361C646.719 241.511 647.309 238.661 647.919 235.801C649.269 229.531 650.659 223.141 653.799 217.541C656.459 212.791 660.029 209.331 663.559 208.121C666.109 209.111 668.369 211.791 669.859 216.621C673.239 227.541 677.329 238.231 682.099 248.611C686.179 257.501 692.689 263.771 696.879 272.111C701.349 281.041 705.149 293.601 706.839 303.451C710.909 327.171 703.999 351.351 699.699 374.621Z" fill="#231F20"/>
<path d="M732.824 182.175C726.274 182.895 719.494 182.145 713.194 184.065C705.264 186.465 699.134 192.775 694.294 199.505C677.334 223.095 672.494 254.385 679.104 282.675C680.364 288.065 682.304 293.785 686.884 296.905C693.294 301.265 702.124 298.735 708.764 294.735C726.784 283.855 737.504 264.255 745.844 244.935C754.184 225.615 761.284 205.195 775.064 189.295C778.284 185.575 783.494 180.015 780.304 174.695C778.014 170.865 772.714 172.145 768.894 172.635C756.484 174.225 745.294 180.795 732.824 182.175Z" fill="white" stroke="#231F20" stroke-miterlimit="10" stroke-linecap="round" stroke-linejoin="round"/>
<path d="M641.826 269.726C641.186 299.836 641.786 330.246 645.136 359.976C648.746 391.956 646.946 425.996 637.986 456.976C631.946 477.876 628.966 499.526 626.446 521.106C624.226 540.126 619.786 558.576 620.226 577.686C639.006 578.656 660.796 584.756 679.316 580.436C680.776 567.806 686.926 559.296 691.026 547.546C696.086 533.056 698.806 519.356 701.886 504.516C707.866 475.676 710.606 445.886 706.766 416.546C704.826 401.726 699.916 387.256 697.996 372.546C697.116 365.806 699.776 357.616 701.226 351.036C702.756 344.136 704.476 337.276 705.776 330.326C708.416 316.156 709.146 300.946 703.086 287.866C699.586 280.316 693.956 273.756 691.586 265.786C689.716 259.496 690.036 252.786 690.426 246.236C691.206 233.026 692.216 219.826 693.456 206.656C693.966 201.246 694.526 195.736 696.656 190.736C698.416 186.596 701.906 181.626 706.226 179.976C707.736 179.396 709.356 178.866 710.416 177.646C711.476 176.426 711.656 174.266 710.306 173.366C709.456 172.796 708.346 172.916 707.336 173.056C697.336 174.446 687.276 175.846 677.656 178.916C670.186 181.306 662.946 184.756 656.816 189.716C651.376 194.126 650.166 201.766 648.376 208.356C643.966 224.616 642.626 241.556 642.106 258.336C642.006 262.126 641.906 265.916 641.826 269.726Z" fill="#D1C8C1" stroke="#231F20" stroke-miterlimit="10" stroke-linecap="round" stroke-linejoin="round"/>
<path d="M668.466 188.026C667.456 188.146 666.416 188.126 665.676 187.536C665.006 187.006 664.786 186.126 664.886 185.326C665.476 180.606 671.566 178.866 675.836 177.986C685.536 175.996 695.316 173.566 705.076 172.376C705.856 172.276 706.816 172.436 707.146 173.186C707.416 173.816 707.106 174.536 706.756 175.126C705.966 176.446 704.776 178.056 703.626 179.056C702.326 180.196 700.126 180.166 698.506 180.466C694.306 181.226 690.076 182.006 686.086 183.636C680.766 185.806 675.016 186.886 669.306 187.906C669.016 187.946 668.746 187.996 668.466 188.026Z" fill="#D1C8C1" stroke="#231F20" stroke-miterlimit="10" stroke-linecap="round" stroke-linejoin="round"/>
<path d="M673.598 181.096L678.368 180.766C679.368 180.696 680.158 179.886 680.128 178.946L680.118 178.666C680.088 177.736 679.238 177.036 678.238 177.106L673.468 177.436C672.468 177.506 671.678 178.316 671.708 179.256L671.718 179.536C671.758 180.466 672.598 181.166 673.598 181.096Z" fill="#FCD26B" stroke="#231F20" stroke-miterlimit="10" stroke-linecap="round" stroke-linejoin="round"/>
<path d="M678.726 179.615L683.446 179.285C684.436 179.215 685.216 178.405 685.186 177.485L685.176 177.205C685.146 176.285 684.306 175.585 683.316 175.655L678.596 175.985C677.606 176.055 676.826 176.865 676.856 177.785L676.866 178.065C676.906 178.995 677.736 179.685 678.726 179.615Z" fill="#FCD26B" stroke="#231F20" stroke-miterlimit="10" stroke-linecap="round" stroke-linejoin="round"/>
<path d="M685.398 178.205L690.098 177.875C691.218 177.795 692.098 176.885 692.058 175.845V175.805C692.018 174.765 691.078 173.985 689.958 174.055L685.258 174.385C684.138 174.465 683.258 175.375 683.298 176.415V176.455C683.328 177.505 684.268 178.285 685.398 178.205Z" fill="#FCD26B" stroke="#231F20" stroke-miterlimit="10" stroke-linecap="round" stroke-linejoin="round"/>
<path d="M693.139 176.886L698.219 176.526C699.459 176.436 700.419 175.436 700.379 174.286C700.339 173.136 699.299 172.276 698.069 172.366L692.989 172.726C691.749 172.816 690.789 173.816 690.829 174.966C690.859 176.116 691.899 176.976 693.139 176.886Z" fill="#FCD26B" stroke="#231F20" stroke-miterlimit="10" stroke-linecap="round" stroke-linejoin="round"/>
<path d="M704.605 196.595C701.615 202.605 698.125 208.545 695.725 214.695C691.895 224.515 690.835 235.115 690.655 245.575C690.605 248.335 691.045 260.155 693.115 266.035C695.975 274.185 698.285 281.235 698.155 287.765C689.665 276.665 680.375 260.835 675.425 247.775C672.985 241.335 670.985 234.715 669.495 227.985C668.085 221.625 670.995 217.775 677.055 215.335C679.735 214.255 686.225 212.315 687.415 209.335C687.965 207.965 686.495 206.685 685.195 205.985C681.445 203.985 673.515 203.665 677.795 198.365C684.425 190.125 692.165 182.785 700.715 176.565C704.485 173.825 709.415 169.505 714.055 168.495C719.615 167.285 719.975 172.345 717.325 176.055C712.455 182.865 708.295 189.205 704.605 196.595Z" fill="#D1C8C1" stroke="#231F20" stroke-miterlimit="10" stroke-linecap="round" stroke-linejoin="round"/>
<path d="M690.217 195.406C688.717 197.626 686.377 200.466 685.387 201.646C685.097 201.996 684.657 202.156 684.217 202.086C683.227 201.906 681.967 201.606 680.827 201.286C679.987 201.056 679.647 200.016 680.187 199.296C681.737 197.226 683.407 195.436 684.817 193.156C685.117 192.676 685.657 192.426 686.197 192.556C687.247 192.806 688.397 193.156 689.547 193.486C690.357 193.716 690.707 194.686 690.217 195.406Z" fill="#FCD26B" stroke="#231F20" stroke-miterlimit="10" stroke-linecap="round" stroke-linejoin="round"/>
<path d="M698.606 185.536C698.606 183.176 698.616 180.746 699.216 178.556C700.066 175.456 701.976 173.336 703.826 171.446C717.796 157.116 733.486 146.566 749.906 140.436C751.886 145.586 753.086 151.416 753.386 157.356C753.446 158.506 753.466 159.706 753.136 160.756C752.566 162.576 751.156 163.356 749.886 163.986C738.796 169.516 728.096 176.766 717.996 185.566C713.546 189.436 708.156 197.806 703.356 199.866C696.456 202.826 698.596 194.326 698.606 185.536Z" fill="white" stroke="#231F20" stroke-miterlimit="10" stroke-linecap="round" stroke-linejoin="round"/>
<path d="M703.196 177.005C703.166 176.045 705.286 175.595 706.106 175.695C708.126 175.925 710.396 177.765 711.926 178.985C713.586 180.315 714.916 181.975 716.416 183.475" stroke="#231F20" stroke-miterlimit="10" stroke-linecap="round" stroke-linejoin="round"/>
<path d="M784.298 160.514C768.768 176.554 747.818 187.194 725.768 190.224C725.208 190.294 722.318 179.904 721.878 178.794C718.978 171.414 714.208 170.584 707.858 166.924C704.888 165.204 703.188 162.824 699.638 162.174C699.318 162.114 698.988 162.074 698.668 162.044C694.878 162.564 690.938 163.044 687.398 162.494C683.828 161.944 680.288 159.824 679.078 156.414C676.708 149.714 675.018 142.454 673.368 135.484C672.228 130.684 672.268 126.274 670.558 121.584C669.048 117.424 667.578 113.194 667.748 108.714C668.028 100.704 671.658 92.7043 671.158 84.4843C670.638 75.7043 671.538 67.3843 675.098 59.1643C679.248 49.6043 685.708 41.1543 693.008 33.7643C703.198 23.4543 717.878 21.8943 731.648 21.9343C745.418 21.9743 759.968 25.4943 769.958 35.5943C779.098 44.8343 782.138 57.7043 781.868 70.4843C781.618 82.1543 778.868 93.6043 776.958 105.124C775.278 115.204 774.508 125.214 775.998 135.364C776.648 139.734 777.038 143.324 778.648 147.534C779.158 148.824 784.668 160.134 784.298 160.514Z" fill="#EB978D" stroke="#231F20" stroke-miterlimit="10" stroke-linecap="round" stroke-linejoin="round"/>
<path d="M719.5 49.1153C728.15 51.2253 737.07 54.3153 741.69 60.7553C744.46 64.6053 744.68 69.0653 748.12 71.6753C752.5 75.0053 753.88 76.1553 753.65 82.5853C753.54 85.6853 749.92 95.5953 755.73 93.2353C761.07 91.0653 759.29 80.8753 766.72 80.1053C771.07 79.6553 773.51 84.3053 774.34 88.2553C775.29 92.7853 775.06 99.1053 773.26 103.345C771.25 108.095 766.94 110.025 767.32 115.645C767.52 118.725 768.68 125.825 772.4 126.605C778.71 127.925 780.24 115.375 781.48 111.425C783.25 105.795 785 100.215 785.82 94.3653C787.06 85.5553 788.75 76.6753 788.12 67.7353C787.86 64.0553 787.39 60.1353 786.7 56.5353C785.79 51.8153 783.67 46.0553 781.79 41.5953C779.54 36.2353 776.35 31.5653 772.21 27.5053C763.75 19.2053 751.87 14.9453 740.06 14.5153C728.25 14.0853 716.51 17.2753 705.77 22.2653C699.87 25.0053 687.94 32.8553 694.37 40.6153C697.3 44.1453 702.56 45.2053 706.77 46.2453C710.49 47.1653 714.96 48.0053 719.5 49.1153Z" fill="#231F20"/>
<path d="M724.147 93.2046C721.917 92.4146 719.677 91.2346 717.357 90.4846C717.017 90.3746 716.677 90.2746 716.337 90.1846C713.777 89.5146 713.187 88.9446 710.667 89.0446C710.067 89.0746 705.827 92.9146 705.207 92.8846" stroke="#231F20" stroke-miterlimit="10" stroke-linecap="round" stroke-linejoin="round"/>
<path d="M676.859 82.6555C680.519 82.4555 684.209 84.5955 686.189 88.0755C691.199 96.8755 684.039 110.085 681.329 118.585C681.009 119.595 680.689 120.745 681.119 121.705C681.569 122.705 682.639 123.085 683.619 123.265C686.609 123.815 689.239 122.185 692.099 121.615C694.959 121.045 696.709 123.665 699.569 122.855" stroke="#231F20" stroke-miterlimit="10" stroke-linecap="round" stroke-linejoin="round"/>
<path d="M686.047 94.2243C685.227 93.0043 683.607 91.6543 681.887 90.8743C680.897 90.4243 679.887 90.1743 678.977 90.2643C678.757 90.2843 678.547 90.3143 678.347 90.3843C676.527 90.9443 675.627 92.8543 674.047 93.7743" stroke="#231F20" stroke-miterlimit="10" stroke-linecap="round" stroke-linejoin="round"/>
<path d="M716.508 93.4258C713.378 97.2958 709.418 93.7058 708.898 89.9858C709.928 89.9458 711.048 89.1058 712.048 89.0658C713.498 89.0058 714.828 89.7858 716.338 90.1858C716.678 90.2758 717.018 90.3758 717.358 90.4858C717.708 91.2058 717.518 92.1758 716.508 93.4258Z" fill="#231F20"/>
<path d="M679.047 94.3143C676.137 94.3043 676.657 91.1443 678.977 90.2643C679.877 90.1743 680.887 90.4243 681.887 90.8743C682.227 92.2743 682.997 94.3243 679.047 94.3143Z" fill="#231F20"/>
<path d="M700.527 113.395C701.837 114.485 702.857 116.175 703.507 117.055C706.647 121.275 711.127 124.305 714.387 128.475C714.907 129.145 715.437 129.825 715.717 130.635C715.907 131.175 715.977 131.755 716.007 132.325C716.137 134.735 715.657 137.165 714.607 139.335" stroke="#231F20" stroke-miterlimit="10" stroke-linecap="round" stroke-linejoin="round"/>
<path d="M683.35 113.035C681.23 115.165 679.05 119.295 677.77 121.195" stroke="#231F20" stroke-miterlimit="10" stroke-linecap="round" stroke-linejoin="round"/>
<path d="M706.699 134.625C703.509 134.545 700.339 134.125 697.159 133.895C693.979 133.665 690.979 134.155 687.789 134.155C686.419 134.155 681.829 135.245 681.739 134.475C681.579 133.185 685.279 130.405 686.579 130.335C687.509 130.285 688.059 131.565 688.809 131.615C689.909 131.685 690.619 130.205 691.919 130.175C693.539 130.135 696.549 131.815 698.179 132.305C701.449 133.305 704.239 134.645 707.829 134.645C707.449 134.645 707.069 134.635 706.699 134.625Z" stroke="#231F20" stroke-miterlimit="10" stroke-linecap="round" stroke-linejoin="round"/>
<path d="M682.688 137.826C685.678 144.836 694.298 139.056 698.958 138.826" stroke="#231F20" stroke-miterlimit="10" stroke-linecap="round" stroke-linejoin="round"/>
<path d="M683.659 86.1359C682.279 85.8059 680.889 85.1559 679.599 84.8459C677.459 84.3359 675.559 84.2759 673.329 84.2059C672.609 80.9159 678.199 81.8459 680.729 82.1059C681.759 82.2159 684.559 82.4559 685.219 83.1759C685.679 83.6759 684.189 85.2159 683.659 86.1359Z" fill="#231F20"/>
<path d="M700.527 81.0453C700.567 83.2253 703.737 84.1153 703.737 84.1153C703.737 84.1153 711.937 81.5953 713.947 81.2653C718.817 80.4753 722.007 82.4953 726.267 83.2353C726.107 78.5053 718.567 76.4853 715.097 76.7753C712.827 76.9653 700.527 81.0453 700.527 81.0453Z" fill="#231F20"/>
<path d="M692.93 162.675C703.75 161.575 710.09 159.695 721.87 153.475" stroke="#231F20" stroke-miterlimit="10" stroke-linecap="round" stroke-linejoin="round"/>
<path opacity="0.2" d="M731.329 164.436C728.139 166.056 718.669 170.456 714.419 169.846C712.629 169.596 706.399 167.296 706.979 165.986C711.169 165.146 715.339 163.456 719.289 162.286C722.949 161.196 726.589 160.076 730.249 158.996C731.219 158.706 732.329 158.076 733.429 158.076C741.069 158.066 733.679 163.236 731.329 164.436Z" fill="#231F20"/>
<path opacity="0.2" d="M761.367 95.6445C762.857 94.5045 763.097 92.4745 763.587 90.7045C764.077 88.9345 765.387 86.9745 767.287 87.1145C768.317 87.1945 769.197 87.9245 769.687 88.7945C770.177 89.6645 770.337 90.6745 770.457 91.6545C770.977 95.9445 770.587 100.785 767.347 103.775C766.657 104.415 765.377 104.875 764.857 104.105C764.507 103.585 764.827 102.885 765.207 102.385C765.817 101.585 766.577 100.885 767.017 99.9945C767.457 99.1045 767.467 97.8945 766.677 97.2545C765.977 96.6845 764.857 96.7945 764.127 97.3245C763.387 97.8545 762.977 98.7045 762.767 99.5645C762.617 100.175 762.357 100.965 761.697 100.975C761.117 100.985 760.777 100.275 760.907 99.7345C761.027 99.1845 761.427 98.7445 761.687 98.2445C761.947 97.7445 762.027 97.0445 761.597 96.6745L761.367 95.6445Z" fill="#231F20"/>
<path d="M750.709 105.006C748.009 111.676 745.819 113.546 743.039 116.686C739.999 120.116 732.819 123.886 728.539 125.086" stroke="#231F20" stroke-miterlimit="10" stroke-linecap="round" stroke-linejoin="round"/>
<path d="M700.527 113.395C701.377 113.775 702.177 115.045 702.757 115.775C703.557 116.775 702.867 117.925 702.877 119.215C702.887 120.135 702.797 121.235 702.007 121.695" stroke="#231F20" stroke-miterlimit="10" stroke-linecap="round" stroke-linejoin="round"/>
<path d="M804.025 48.4458C802.575 51.4058 800.425 54.0158 798.085 55.6558C796.195 56.9758 794.495 57.3658 792.345 57.9358C790.875 58.3258 790.305 58.6058 789.975 60.0758C789.495 62.2058 789.735 64.1358 789.835 66.2958C789.935 68.6458 789.745 70.9958 789.525 73.3358C789.365 75.0458 789.525 77.3358 787.315 77.7858C786.075 78.0358 784.895 77.2558 783.875 76.5058C780.565 74.0458 777.445 71.3558 773.775 69.4558C770.205 67.6058 766.465 66.0958 762.635 64.8858C754.945 62.4758 746.955 61.2958 738.925 60.8258C720.645 59.8858 702.665 63.4958 684.465 63.2258C683.865 63.2158 683.255 63.2058 682.645 63.1858C680.505 63.1058 678.225 63.0458 676.185 62.6358C672.965 62.0058 670.325 60.5158 669.595 56.7058C669.135 54.2858 669.155 51.8658 669.325 49.4458C669.435 47.7458 669.625 46.0458 669.765 44.3458C669.795 44.0258 669.815 43.6958 669.845 43.3758C669.885 42.7158 669.905 42.0458 669.915 41.3758C669.975 38.3658 670.455 34.0858 669.325 30.8158C668.745 29.1058 667.705 27.6558 665.925 26.8458C664.405 26.1458 662.705 25.9058 661.185 25.2158C657.495 23.5358 655.415 19.2558 655.655 15.2158C655.905 11.1658 658.175 7.45578 661.205 4.74578C676.185 -8.62422 698.505 -3.68422 716.075 0.185782C736.925 4.76578 757.315 11.3658 776.895 19.8758C782.775 22.4258 788.565 25.1458 794.285 28.0458C796.105 28.9658 798.185 29.8758 799.855 31.0458C801.035 31.8758 802.345 32.8658 803.315 33.9458C806.875 37.8858 806.385 43.6258 804.025 48.4458Z" fill="#BDB09F" stroke="#231F20" stroke-miterlimit="10" stroke-linecap="round" stroke-linejoin="round"/>
<path d="M789.646 73.6659C783.446 69.8959 748.756 51.3559 669.316 54.1459V30.8059C669.316 30.8059 669.316 30.8059 669.326 30.8059C670.506 30.6959 750.996 23.4359 790.556 54.7459C789.756 56.6959 789.626 73.0759 789.646 73.6659Z" fill="#FCD26B" stroke="#231F20" stroke-miterlimit="10" stroke-linecap="round" stroke-linejoin="round"/>
<path d="M668.366 46.8349C668.376 46.7249 668.386 46.6249 668.396 46.5149C668.716 43.4649 669.316 40.4149 669.766 37.3649C670.116 35.0049 669.826 32.4749 670.476 30.1649C670.856 28.8049 671.436 27.3649 672.076 26.0849C673.456 23.3449 675.956 20.4549 678.616 18.9749C685.806 14.9649 695.826 20.4849 699.916 26.6449C703.006 31.3049 705.586 36.5249 706.706 42.0349C707.336 45.1549 710.156 51.6749 707.216 54.3049C704.186 57.0049 696.686 56.3249 693.016 56.5949C688.746 56.9049 684.306 57.7349 680.036 57.1649C677.006 56.7549 672.376 56.7149 669.966 54.6549C667.606 52.6449 668.056 49.6649 668.366 46.8349Z" fill="#231F20"/>
<path d="M669.765 45.3767C669.775 45.2867 669.785 45.1967 669.795 45.1167C670.065 42.5767 670.555 40.0367 670.935 37.4967C671.225 35.5267 670.985 33.4267 671.525 31.4967C671.845 30.3667 672.325 29.1667 672.855 28.0967C674.005 25.8167 676.085 23.4067 678.305 22.1667C684.295 18.8267 692.645 23.4267 696.045 28.5567C698.625 32.4367 700.765 36.7867 701.705 41.3767C702.235 43.9767 704.585 49.4067 702.125 51.5967C699.605 53.8467 693.355 53.2767 690.295 53.5067C686.745 53.7667 683.035 54.4567 679.475 53.9767C676.945 53.6367 673.095 53.5967 671.085 51.8867C669.135 50.2167 669.505 47.7267 669.765 45.3767Z" fill="#FCD26B" stroke="#231F20" stroke-miterlimit="10" stroke-linecap="round" stroke-linejoin="round"/>
<path d="M648.057 68.1763C646.297 68.1063 658.537 58.4763 668.167 57.5363C672.587 57.1063 740.927 57.8863 743.217 58.9663C745.797 60.1863 742.517 61.9063 740.917 62.5063C740.427 62.6963 720.637 70.9063 648.057 68.1763Z" fill="#FCD26B" stroke="#231F20" stroke-miterlimit="10" stroke-linecap="round" stroke-linejoin="round"/>
<path d="M668.777 51.6562L668.887 57.5563L743.217 58.9663L740.997 52.9263L668.777 51.6562Z" fill="#FCD26B" stroke="#231F20" stroke-miterlimit="10" stroke-linecap="round" stroke-linejoin="round"/>
<path d="M742.576 58.9862C744.553 58.9862 746.156 57.3833 746.156 55.4062C746.156 53.429 744.553 51.8262 742.576 51.8262C740.599 51.8262 738.996 53.429 738.996 55.4062C738.996 57.3833 740.599 58.9862 742.576 58.9862Z" fill="#FCD26B" stroke="#231F20" stroke-miterlimit="10" stroke-linecap="round" stroke-linejoin="round"/>
<path d="M708.148 208.376C708.468 210.766 709.208 211.266 711.478 211.596C712.748 211.786 714.078 211.576 715.328 211.746C716.688 211.926 717.918 212.396 719.318 212.516C720.458 212.606 721.168 212.946 721.538 211.786C722.038 210.246 721.668 208.256 722.008 206.606C722.618 203.556 723.208 200.126 726.368 198.856C727.228 198.516 728.198 198.416 729.028 198.036C730.208 197.496 730.398 196.696 730.298 195.316C730.128 192.936 729.578 188.816 728.118 186.886C726.358 184.566 722.648 182.946 719.948 182.136C717.368 181.366 714.538 181.156 712.068 182.286C704.248 185.856 707.238 201.526 708.148 208.376Z" fill="#231F20"/>
<path d="M682.777 309.916C682.817 310.016 682.857 310.106 682.887 310.186L682.847 310.556C682.817 310.346 682.797 310.136 682.777 309.916Z" fill="#231F20"/>
<path d="M717.826 279.917C716.976 283.027 715.906 286.087 714.626 289.047C713.676 291.247 702.446 307.157 702.626 307.577C694.126 287.367 692.116 264.587 696.406 243.127C697.476 237.757 698.946 232.467 700.816 227.327C701.916 224.287 704.066 215.217 706.216 213.267C708.726 210.997 717.586 212.207 720.346 214.247C719.986 231.637 721.216 249.397 720.066 266.657C719.766 271.127 719.006 275.587 717.826 279.917Z" fill="#231F20"/>
<path d="M760.104 155.036C751.234 161.256 741.744 167.916 731.594 172.496C729.584 173.406 727.194 173.696 726.504 175.706C725.874 177.536 727.964 182.716 728.374 184.676C729.644 190.736 730.924 196.796 732.624 202.746C733.894 207.166 735.814 208.916 740.804 207.776C749.664 205.746 758.664 194.176 764.544 187.886C773.324 178.516 781.484 168.556 788.954 158.106C789.714 157.036 790.494 155.916 790.714 154.606C790.944 153.226 790.524 151.826 790.074 150.506C788.704 146.536 780.734 134.546 777.054 136.396C775.664 137.096 777.084 137.686 777.114 138.856C777.214 141.996 771.404 146.056 769.324 147.826C766.364 150.356 763.304 152.786 760.104 155.036Z" fill="white" stroke="#231F20" stroke-miterlimit="10" stroke-linecap="round" stroke-linejoin="round"/>
<path d="M859.075 580.626C854.965 586.396 837.495 584.296 830.965 584.436C807.785 584.926 784.615 583.836 761.415 584.306C742.885 584.676 705.455 594.896 697.365 573.216C694.805 566.326 691.265 559.596 688.745 552.376C683.625 537.686 678.295 524.166 679.115 508.396C680.095 489.836 680.285 471.036 680.745 452.296C681.245 431.556 681.505 410.206 683.355 389.526C685.635 364.006 679.665 328.366 689.815 304.626C693.505 296.006 703.895 277.046 704.425 275.726C705.655 272.696 714.965 256.576 716.805 251.596C720.535 242.996 721.455 242.516 726.085 234.206C727.185 232.226 728.155 230.196 729.065 228.146C732.145 221.096 737.255 216.536 740.135 209.396C742.895 202.566 746.785 196.136 750.735 189.846C752.925 186.346 755.215 182.906 757.575 179.516C765.775 168.766 775.265 159.046 785.805 150.696C786.445 150.176 787.145 149.656 787.865 149.196C789.555 148.106 791.415 147.346 793.325 147.716C797.955 148.606 797.455 153.186 799.695 156.156C799.705 156.176 799.715 156.196 799.735 156.216C800.135 156.726 800.605 157.166 801.135 157.546C804.045 159.556 808.595 159.556 811.805 159.766C830.395 160.936 849.985 156.746 855.085 178.306C860.465 201.036 860.065 226.096 858.915 249.546C858.835 251.336 858.735 253.126 858.645 254.896C856.735 290.596 851.385 326.006 848.925 361.666C846.515 396.676 850.355 429.496 853.715 464.226C855.305 480.816 855.535 497.166 856.065 513.826C856.215 518.656 856.435 523.486 856.665 528.326C857.095 537.316 857.575 546.296 857.795 555.256C857.835 557.016 858.295 559.636 858.805 562.546C859.995 569.136 861.445 577.296 859.075 580.626Z" fill="#D1C8C1" stroke="#231F20" stroke-miterlimit="10" stroke-linecap="round" stroke-linejoin="round"/>
<g opacity="0.2">
<path d="M848.945 361.645C846.535 396.655 850.375 429.475 853.735 464.205C855.325 480.795 855.555 497.145 856.085 513.805C856.235 518.635 856.455 523.465 856.685 528.305C850.245 527.185 840.475 528.625 834.665 525.535C829.015 522.535 828.085 515.325 826.915 509.185C823.965 493.815 825.465 477.985 825.975 462.475C826.965 432.355 824.205 402.115 817.795 372.665C815.175 360.595 810.455 349.155 811.635 336.775C812.835 324.195 812.185 311.545 814.135 298.995C815.965 287.225 816.275 273.295 822.965 263.075C830.425 251.675 845.435 247.075 858.935 249.535C858.855 251.325 858.755 253.115 858.665 254.885C856.755 290.575 851.405 325.985 848.945 361.645Z" fill="#231F20"/>
</g>
<path d="M803.115 156.927C807.835 159.967 797.475 160.967 796.345 161.887C792.435 165.047 790.045 167.257 788.785 172.127C787.585 176.787 789.615 195.687 787.765 198.767C786.015 201.677 779.375 201.557 776.335 202.187C771.275 203.237 766.225 204.277 761.165 205.327C760.365 205.497 759.535 205.667 758.875 206.147C758.215 206.627 757.765 207.507 758.025 208.287C758.285 209.047 759.085 209.457 759.815 209.777C767.005 212.957 773.485 216.307 779.855 220.957C781.705 222.307 783.725 223.977 783.805 226.277C784.025 233.027 772.145 238.277 767.675 241.397C759.725 246.937 751.735 252.417 743.705 257.827C727.855 268.497 712.225 281.727 696.035 291.867C701.165 286.347 729.765 222.007 733.795 215.527C736.035 211.927 776.655 141.527 792.255 145.407C794.845 146.047 797.045 149.347 798.595 151.537C798.775 151.807 798.965 152.087 799.125 152.377C799.765 153.467 802.065 156.247 803.115 156.927Z" fill="#D1C8C1" stroke="#231F20" stroke-miterlimit="10" stroke-linecap="round" stroke-linejoin="round"/>
<path d="M784.317 180.237C783.837 185.027 783.457 192.437 783.337 195.057C783.307 195.627 782.907 196.107 782.337 196.217C779.987 196.687 776.537 197.107 773.867 197.307C773.087 197.367 772.447 196.707 772.517 195.937C773.057 190.277 773.217 186.497 773.967 180.977C774.047 180.417 774.487 179.977 775.047 179.897C776.677 179.687 780.127 179.227 782.907 178.867C783.707 178.767 784.397 179.437 784.317 180.237Z" fill="#FCD26B" stroke="#231F20" stroke-miterlimit="10" stroke-linecap="round" stroke-linejoin="round"/>
<path d="M694.684 329.527C697.584 329.527 700.484 329.527 703.384 329.527" stroke="#231F20" stroke-miterlimit="10" stroke-linecap="round" stroke-linejoin="round"/>
<path d="M692.195 392.877C695.375 391.587 698.555 393.677 701.715 393.707" stroke="#231F20" stroke-miterlimit="10" stroke-linecap="round" stroke-linejoin="round"/>
<path d="M691.785 447.538C694.495 447.538 698.025 446.968 700.485 447.948" stroke="#231F20" stroke-miterlimit="10" stroke-linecap="round" stroke-linejoin="round"/>
<path d="M691.375 500.538C694.065 500.538 697.335 500.148 699.655 500.948" stroke="#231F20" stroke-miterlimit="10" stroke-linecap="round" stroke-linejoin="round"/>
<path d="M700.597 330.318C701.689 326.311 700.548 322.511 698.048 321.83C695.549 321.149 692.638 323.846 691.547 327.853C690.455 331.861 691.596 335.661 694.096 336.342C696.595 337.023 699.506 334.326 700.597 330.318Z" fill="#FCD26B" stroke="#231F20" stroke-miterlimit="10.0005" stroke-linecap="round" stroke-linejoin="round"/>
<path d="M698.741 392.687C699.16 388.616 697.38 385.098 694.766 384.828C692.151 384.559 689.691 387.641 689.271 391.711C688.852 395.782 690.632 399.3 693.247 399.57C695.861 399.839 698.321 396.758 698.741 392.687Z" fill="#FCD26B" stroke="#231F20" stroke-miterlimit="9.9997" stroke-linecap="round" stroke-linejoin="round"/>
<path d="M697.44 448.326C697.859 444.255 696.08 440.737 693.465 440.467C690.85 440.198 688.39 443.279 687.97 447.35C687.551 451.421 689.331 454.939 691.946 455.209C694.561 455.478 697.021 452.397 697.44 448.326Z" fill="#FCD26B" stroke="#231F20" stroke-miterlimit="9.9997" stroke-linecap="round" stroke-linejoin="round"/>
<path d="M697.436 501.423C697.856 497.353 696.076 493.834 693.461 493.565C690.846 493.295 688.386 496.377 687.967 500.448C687.547 504.518 689.327 508.037 691.942 508.306C694.557 508.576 697.017 505.494 697.436 501.423Z" fill="#FCD26B" stroke="#231F20" stroke-miterlimit="9.9997" stroke-linecap="round" stroke-linejoin="round"/>
<path d="M788.625 172.676C788.485 172.466 788.385 172.226 788.325 171.946C787.835 169.706 789.625 166.946 791.075 165.446C794.485 161.926 800.025 160.076 804.865 160.086C808.015 160.096 811.075 160.186 814.195 160.506C818.045 160.896 821.615 161.886 825.465 161.786C829.165 161.686 832.885 161.666 836.585 161.936C839.675 162.156 842.905 162.506 845.815 163.646C846.915 164.086 848.045 164.626 848.895 165.476C849.055 165.636 850.685 167.856 850.285 167.996C845.655 169.546 840.525 169.436 836.075 171.346C831.315 173.386 829.765 177.016 824.265 177.726C817.575 178.596 810.905 177.346 804.365 176.046C801.095 175.396 797.815 174.716 794.505 174.296C792.745 174.066 789.675 174.286 788.625 172.676Z" fill="#D1C8C1" stroke="#231F20" stroke-miterlimit="10" stroke-linecap="round" stroke-linejoin="round"/>
<path d="M808.226 162.636L801.526 163.626C800.836 163.726 800.196 163.246 800.086 162.556L799.896 161.306C799.796 160.616 800.276 159.976 800.966 159.866L807.666 158.876C808.356 158.776 808.996 159.256 809.106 159.946L809.296 161.196C809.396 161.896 808.916 162.536 808.226 162.636Z" fill="#FCD26B" stroke="#231F20" stroke-miterlimit="10" stroke-linecap="round" stroke-linejoin="round"/>
<path d="M816.916 162.967L809.716 164.027C808.976 164.137 808.286 163.627 808.176 162.877L807.976 161.527C807.866 160.787 808.376 160.097 809.126 159.987L816.326 158.927C817.066 158.817 817.756 159.327 817.866 160.077L818.066 161.427C818.176 162.167 817.656 162.857 816.916 162.967Z" fill="#FCD26B" stroke="#231F20" stroke-miterlimit="10" stroke-linecap="round" stroke-linejoin="round"/>
<path d="M826.007 163.487L818.287 164.627C817.487 164.747 816.747 164.197 816.637 163.397L816.427 161.957C816.307 161.157 816.857 160.417 817.657 160.307L825.377 159.167C826.177 159.047 826.917 159.597 827.027 160.397L827.237 161.837C827.357 162.627 826.807 163.367 826.007 163.487Z" fill="#FCD26B" stroke="#231F20" stroke-miterlimit="10" stroke-linecap="round" stroke-linejoin="round"/>
<path d="M835.604 163.946L827.884 165.086C827.084 165.206 826.344 164.656 826.234 163.856L826.024 162.416C825.904 161.616 826.454 160.876 827.254 160.766L834.974 159.626C835.774 159.506 836.514 160.056 836.624 160.856L836.834 162.296C836.944 163.086 836.394 163.826 835.604 163.946Z" fill="#FCD26B" stroke="#231F20" stroke-miterlimit="10" stroke-linecap="round" stroke-linejoin="round"/>
<path d="M740.276 335.596C740.276 335.896 740.276 336.076 740.266 336.176C740.276 335.986 740.276 335.786 740.276 335.596Z" stroke="#231F20" stroke-miterlimit="10" stroke-linecap="round" stroke-linejoin="round"/>
<path d="M792.624 379.806C789.974 381.466 731.284 380.176 727.944 377.596C722.584 373.456 729.434 318.376 728.894 300.496L729.624 295.606C746.324 276.296 771.004 280.976 789.064 290.156C793.164 292.236 796.094 293.126 795.974 298.496C795.814 305.466 796.284 312.746 795.854 319.776C795.324 328.656 794.714 378.496 792.624 379.806Z" fill="#D1C8C1" stroke="#231F20" stroke-miterlimit="10" stroke-linecap="round" stroke-linejoin="round"/>
<path d="M730.374 284.236C738.494 280.996 796.654 281.506 796.864 287.306C797.014 291.626 797.524 316.886 795.944 318.266C794.044 319.926 788.494 316.896 786.604 316.226C778.704 313.466 771.964 313.976 764.464 316.506C756.944 319.036 751.374 316.336 744.644 314.346C739.384 312.796 734.984 313.376 730.064 314.416C728.804 314.686 727.614 313.736 727.614 312.446C727.564 303.296 729.214 284.696 730.374 284.236Z" fill="#D1C8C1" stroke="#231F20" stroke-miterlimit="10" stroke-linecap="round" stroke-linejoin="round"/>
<path d="M758.095 309.266C757.915 306.796 758.525 304.196 758.845 301.766" stroke="#231F20" stroke-miterlimit="10" stroke-linecap="round" stroke-linejoin="round"/>
<path d="M757.134 312.415C759.288 312.415 761.034 310.669 761.034 308.515C761.034 306.361 759.288 304.615 757.134 304.615C754.98 304.615 753.234 306.361 753.234 308.515C753.234 310.669 754.98 312.415 757.134 312.415Z" fill="#FCD26B" stroke="#231F20" stroke-miterlimit="10" stroke-linecap="round" stroke-linejoin="round"/>
<path d="M675.846 373.345C674.316 374.895 640.396 373.695 638.466 371.275C635.366 367.395 639.326 315.815 639.016 299.065L639.436 294.485C649.086 276.405 663.346 280.785 673.786 289.385C676.156 291.335 677.846 292.165 677.776 297.195C677.686 303.715 677.956 310.545 677.706 317.115C677.406 325.435 677.056 372.115 675.846 373.345Z" fill="#D1C8C1" stroke="#231F20" stroke-miterlimit="10" stroke-linecap="round" stroke-linejoin="round"/>
<path d="M639.223 286.165C639.733 283.995 640.603 282.835 643.933 282.275C648.853 281.445 654.283 281.985 659.263 282.255C661.783 282.395 678.293 282.455 678.413 286.715C678.523 290.755 678.903 314.415 677.733 315.715C676.323 317.265 672.203 314.425 670.803 313.805C667.693 312.435 663.593 311.505 660.173 311.925C656.523 312.375 653.423 314.535 649.563 314.385C647.043 314.295 641.623 312.855 640.243 310.725C638.833 308.535 639.733 304.705 639.623 302.245C639.403 297.395 638.103 290.945 639.223 286.165Z" fill="#D1C8C1" stroke="#231F20" stroke-miterlimit="10" stroke-linecap="round" stroke-linejoin="round"/>
<path d="M649.663 307.286C649.523 304.976 649.983 302.536 650.223 300.266" stroke="#231F20" stroke-miterlimit="10" stroke-linecap="round" stroke-linejoin="round"/>
<path d="M648.951 310.246C650.552 310.246 651.851 308.607 651.851 306.586C651.851 304.564 650.552 302.926 648.951 302.926C647.349 302.926 646.051 304.564 646.051 306.586C646.051 308.607 647.349 310.246 648.951 310.246Z" fill="#FCD26B" stroke="#231F20" stroke-miterlimit="10" stroke-linecap="round" stroke-linejoin="round"/>
<path d="M825.565 551.525C822.455 553.905 745.325 557.525 740.695 555.045C733.265 551.065 733.535 485.205 730.125 464.275L730.305 458.405C748.535 432.965 780.565 434.385 804.885 442.205C810.405 443.975 814.265 444.535 814.925 450.865C815.795 459.075 817.495 467.565 818.025 475.885C818.695 486.415 828.025 549.635 825.565 551.525Z" fill="#D1C8C1" stroke="#231F20" stroke-miterlimit="10" stroke-linecap="round" stroke-linejoin="round"/>
<path d="M730.123 441.956C739.933 436.816 813.183 430.796 814.333 437.576C815.183 442.626 819.693 472.226 817.893 474.116C815.743 476.376 794.463 482.506 776.273 484.276C766.243 485.256 741.223 480.946 733.713 480.456C732.073 480.346 730.503 480.056 730.303 478.546C728.863 467.786 728.723 442.686 730.123 441.956Z" fill="#D1C8C1" stroke="#231F20" stroke-miterlimit="10" stroke-linecap="round" stroke-linejoin="round"/>
<path d="M773.891 472.295C773.281 469.425 773.671 466.265 773.701 463.365" stroke="#231F20" stroke-miterlimit="10" stroke-linecap="round" stroke-linejoin="round"/>
<path d="M774.361 476.925C777.094 476.569 779.042 474.226 778.713 471.69C778.383 469.154 775.9 467.386 773.167 467.742C770.434 468.097 768.486 470.44 768.816 472.976C769.145 475.512 771.628 477.28 774.361 476.925Z" fill="#FCD26B" stroke="#231F20" stroke-miterlimit="10.0004" stroke-linecap="round" stroke-linejoin="round"/>
<path d="M620.714 551.385C619.364 544.905 621.074 537.945 621.454 531.455C622.154 519.495 625.224 504.265 626.734 492.365C627.934 482.925 630.934 458.825 632.944 455.165C634.864 451.675 635.274 452.315 641.804 450.405C647.484 448.735 661.914 445.805 666.064 449.895C669.294 453.075 667.384 458.125 667.414 461.585C667.464 466.325 667.514 471.055 667.274 475.795C666.254 496.695 667.274 517.615 666.684 538.515C666.594 541.915 667.214 549.345 664.464 552.045C661.954 554.515 651.274 553.995 646.964 553.935C638.324 553.835 621.264 554.025 620.714 551.385Z" fill="#D1C8C1" stroke="#231F20" stroke-miterlimit="10" stroke-linecap="round" stroke-linejoin="round"/>
<path d="M633.552 439.796C639.392 436.546 644.072 437.186 653.552 437.186C658.082 437.186 669.102 437.736 669.192 441.146C669.322 446.256 669.282 476.096 668.402 477.836C664.342 485.876 626.742 484.416 626.742 480.296C626.742 461.706 632.092 440.606 633.552 439.796Z" fill="#D1C8C1" stroke="#231F20" stroke-miterlimit="10" stroke-linecap="round" stroke-linejoin="round"/>
<path d="M638.381 473.165C638.241 470.235 638.711 467.155 638.951 464.275" stroke="#231F20" stroke-miterlimit="10" stroke-linecap="round" stroke-linejoin="round"/>
<path d="M638.653 477.987C640.282 477.987 641.603 475.914 641.603 473.357C641.603 470.799 640.282 468.727 638.653 468.727C637.024 468.727 635.703 470.799 635.703 473.357C635.703 475.914 637.024 477.987 638.653 477.987Z" fill="#FCD26B" stroke="#231F20" stroke-miterlimit="10" stroke-linecap="round" stroke-linejoin="round"/>
<path d="M877.02 546.091C876.43 552.111 875.64 558.091 875 564.111C874.5 568.941 874.02 574.021 871.36 578.031C868.23 582.761 863.63 587.351 858.75 586.851C857.08 586.681 855.46 587.411 854.39 588.701C851.59 592.081 847.23 592.951 842.95 591.751C841.3 591.281 839.55 590.321 837.98 591.021C836.25 591.811 835.86 594.101 834.84 595.741C832.31 599.811 825.75 598.981 822.86 595.191C819.97 591.391 819.96 586.051 820.87 581.311C818.48 578.741 816.09 576.171 813.71 573.591C812.77 572.581 811.78 571.491 811.49 570.131C811.21 568.821 811.6 567.481 811.98 566.201C813.94 559.711 815.89 553.221 817.84 546.731C818.18 545.631 818.52 544.511 819.19 543.591C819.9 542.631 820.91 541.961 821.91 541.331C824.07 539.951 826.23 538.551 828.39 537.171C830.13 537.131 831.89 535.931 832.85 534.351C834.12 532.271 834.36 529.721 834.59 527.271C835.71 515.671 837.58 504.151 840.19 492.801C840.61 490.981 841.14 489.001 842.64 487.921C843.95 486.991 845.66 486.991 847.26 487.081C857.49 487.631 867.6 490.151 876.96 494.461C878.67 511.611 878.69 528.941 877.02 546.091Z" fill="#EB978D" stroke="#231F20" stroke-miterlimit="10" stroke-linecap="round" stroke-linejoin="round"/>
<path d="M820.871 581.31C821.451 577.13 822.271 570.69 822.701 566.5Z" fill="#EB978D"/>
<path d="M820.871 581.31C821.451 577.13 822.271 570.69 822.701 566.5" stroke="#231F20" stroke-miterlimit="10" stroke-linecap="round" stroke-linejoin="round"/>
<path d="M828.849 529.362C837.849 531.782 846.839 534.192 855.839 536.612C866.209 539.402 876.769 542.202 887.479 541.762C888.039 534.162 888.169 526.532 887.869 518.912C878.419 517.282 869.049 515.192 859.799 512.642C851.169 510.272 842.309 505.942 833.629 504.432C833.009 506.462 828.609 529.292 828.849 529.362Z" fill="white" stroke="#231F20" stroke-miterlimit="10" stroke-linecap="round" stroke-linejoin="round"/>
<path d="M891.271 279.051C906.111 358.341 909.631 439.911 901.621 520.261C899.531 541.211 860.561 521.551 847.921 518.031C843.371 516.761 832.991 516.471 829.501 512.811C823.821 506.851 829.711 483.381 830.531 475.801C832.201 460.471 833.141 445.061 833.371 429.631C833.801 399.811 831.531 369.941 826.611 340.551C822.411 315.451 811.641 290.791 808.251 265.921C805.661 246.971 813.021 223.661 818.281 205.641C822.301 191.871 834.641 163.641 852.591 167.051C871.571 170.661 878.191 220.021 882.161 236.461C885.571 250.571 888.601 264.771 891.271 279.051Z" fill="#D1C8C1" stroke="#231F20" stroke-miterlimit="10" stroke-linecap="round" stroke-linejoin="round"/>
</g>
<defs>
<clipPath id="clip0_16_1498">
<rect width="335" height="1080" fill="white" transform="translate(577 -5)"/>
</clipPath>
</defs>
</svg>
