<?xml version="1.0" encoding="UTF-8" standalone="no"?>
<!DOCTYPE svg PUBLIC "-//W3C//DTD SVG 1.1//EN" "http://www.w3.org/Graphics/SVG/1.1/DTD/svg11.dtd">
<!-- Created with Vectornator (http://vectornator.io/) -->
<svg height="100%" stroke-miterlimit="10" style="fill-rule:nonzero;clip-rule:evenodd;stroke-linecap:round;stroke-linejoin:round;" version="1.1" viewBox="0 0 551 608" width="100%" xml:space="preserve" xmlns="http://www.w3.org/2000/svg" xmlns:vectornator="http://vectornator.io" xmlns:xlink="http://www.w3.org/1999/xlink">
<defs/>
<clipPath id="ArtboardFrame">
<rect height="608" width="551" x="0" y="0"/>
</clipPath>
<g clip-path="url(#ArtboardFrame)" id="Untitled" vectornator:layerName="Untitled">
<g opacity="1" vectornator:layerName="Layer 2">
<g opacity="1" vectornator:layerName="path">
<g opacity="1" vectornator:layerName="path">
<path d="M524.689 467.254L551.049 607.754L406.409 607.754C406.409 607.754 119.689 584.254 97.8386 596.464C91.6186 599.944 85.1486 601.704 79.0786 602.434C63.8286 604.284 51.0986 599.684 51.0986 599.684L70.3386 459.544L524.689 467.254Z" fill="#3ebaff" fill-rule="nonzero" opacity="1" stroke="none" vectornator:layerName="path"/>
<path d="M514.009 383.575L524.689 467.255L70.3388 459.545L123.249 406.945L153.769 376.615L165.339 376.845L165.339 444.115L399.979 444.115L425.049 405.545L425.049 381.865L514.009 383.575Z" fill="#51e4fc" fill-rule="nonzero" opacity="1" stroke="none" vectornator:layerName="path"/>
<path d="M425.049 381.865L425.049 405.545L399.979 444.115L399.979 381.375L399.979 193.745L425.049 174.935L425.049 381.865Z" fill="#c4c1b1" fill-rule="nonzero" opacity="1" stroke="none" vectornator:layerName="path"/>
<path d="M425.049 174.935L399.979 193.745L165.339 193.745C167.269 190.185 225.119 174.935 225.119 174.935L275.658 174.935C275.939 175.395 276.139 175.875 276.229 176.365C276.828 179.585 276.799 182.095 278.288 184.135L267.229 184.035L251.479 189.405L282.979 189.405L304.839 189.405L318.979 184.525L284.519 184.195C284.288 183.355 283.819 182.285 283.019 180.925C283.399 181.475 286.299 185.535 287.799 183.435C287.799 183.435 288.408 179.065 289.408 174.935L292.368 174.935L425.049 174.935Z" fill="#aaa077" fill-rule="nonzero" opacity="1" stroke="none" vectornator:layerName="path"/>
<path d="M399.979 381.374L399.979 444.114L165.339 444.114L165.339 376.844L165.339 236.464L165.339 193.744L399.979 193.744L399.979 381.374Z" fill="#c4c1b1" fill-rule="nonzero" opacity="1" stroke="none" vectornator:layerName="path"/>
<path d="M295.148 157.764L297.768 159.644C297.768 159.644 294.868 168.644 295.188 172.504C295.188 172.504 293.898 174.934 292.368 174.934C291.608 174.934 290.788 174.324 290.038 172.514C289.808 173.284 289.598 174.104 289.408 174.934L284.028 174.934L275.658 174.934C273.038 170.594 263.048 167.844 263.048 167.844C263.048 167.844 253.408 170.894 247.298 167.844C241.188 164.794 243.118 165.434 228.018 166.074C212.908 166.714 192.658 175.714 168.868 183.434C161.058 185.974 153.028 187.914 145.508 189.394C145.488 189.394 145.468 189.404 145.448 189.404C135.238 191.404 125.938 192.554 119.348 193.164C116.028 193.474 113.388 193.644 111.658 193.714C103.938 194.044 101.368 190.824 101.368 190.824C84.9784 191.464 65.5084 186.964 65.5084 186.964C55.3584 159.004 87.5484 152.254 87.5484 152.254C87.5484 152.254 109.408 156.254 112.298 156.184C113.048 156.164 114.928 155.924 117.358 155.554C124.248 154.524 135.528 152.524 137.718 152.044C142.548 150.964 209.688 148.074 212.268 147.114C214.838 146.144 244.088 141.964 253.088 141.964C262.088 141.964 274.618 139.714 274.618 139.714L295.188 153.214L295.188 157.714L295.148 157.764Z" fill="#ffb08d" fill-rule="nonzero" opacity="1" stroke="none" vectornator:layerName="path"/>
<path d="M284.028 174.935L289.408 174.935C288.408 179.065 287.799 183.435 287.799 183.435C286.299 185.535 283.398 181.475 283.018 180.925C282.988 180.885 282.978 180.865 282.978 180.865C282.508 180.085 283.348 177.305 284.028 174.935" fill="#ffb08d" fill-rule="nonzero" opacity="1" stroke="none" vectornator:layerName="path"/>
<path d="M284.519 184.194L278.289 184.134C276.799 182.094 276.829 179.584 276.229 176.364C276.139 175.874 275.939 175.394 275.659 174.934L284.029 174.934C283.349 177.304 282.509 180.084 282.979 180.864C282.979 180.864 282.989 180.884 283.019 180.924C283.819 182.284 284.289 183.354 284.519 184.194" fill="#ffb08d" fill-rule="nonzero" opacity="1" stroke="none" vectornator:layerName="path"/>
<path d="M155.479 198.754L165.339 193.744L165.339 236.464C165.339 236.464 163.189 241.614 158.909 239.894C154.649 238.194 122.639 217.654 122.139 217.344C123.549 210.524 123.429 202.334 119.369 193.394L119.349 193.164C125.939 192.554 135.239 191.404 145.449 189.404C145.469 189.404 145.489 189.394 145.509 189.394C147.019 189.394 155.479 198.754 155.479 198.754" fill="#ffb08d" fill-rule="nonzero" opacity="1" stroke="none" vectornator:layerName="path"/>
<path d="M137.389 33.1646C139.659 54.7646 129.929 57.8246 123.239 57.4946C119.929 57.3246 117.359 56.3146 117.359 56.3146C133.919 50.5546 136.829 38.3346 137.299 33.1546L137.389 33.1646Z" fill="#331818" fill-rule="nonzero" opacity="1" stroke="none" vectornator:layerName="path"/>
<path d="M109.898 58.2642C108.618 58.5042 107.278 58.7042 105.868 58.8742C105.868 58.8742 100.798 58.7042 97.1885 58.2342C96.3585 58.1242 95.6085 58.0042 95.0185 57.8642C92.0185 64.8242 85.2185 75.6142 70.5185 82.3442C70.5185 82.3442 83.4585 72.5442 92.1385 53.2542C92.1385 53.2542 93.1785 49.8742 92.8485 47.7942C92.8485 47.7942 87.8685 61.7342 80.3185 66.7342C80.3185 66.7342 88.6785 57.2742 89.4785 49.3942C89.4785 49.3942 77.4285 51.1342 72.4385 68.5842L70.5185 75.5942C70.5185 75.5942 68.9885 60.2442 74.5485 51.8742C73.8585 52.7342 66.8285 61.2542 60.3185 56.4542C59.8385 56.1042 59.3785 55.6842 58.9085 55.1842C54.7385 54.0242 52.4885 54.9442 51.3485 56.6942C51.3385 56.6942 51.3385 56.7042 51.3285 56.7142C46.4285 61.7742 52.8585 75.9942 52.9085 75.8242C52.9085 75.8242 50.5085 75.4742 47.3385 72.7142C45.2785 70.9342 42.8985 68.1542 40.6185 63.8142C40.3085 63.2242 39.9985 62.5842 39.7085 61.9142C40.1785 60.2542 40.0485 58.0242 38.8485 55.0242C38.8485 55.0242 42.1985 51.9642 39.9685 49.7142C39.9685 49.7142 37.3785 48.8242 36.2785 50.3342C34.0385 38.1642 34.9085 22.8742 43.8385 13.3942C56.6885-0.265818 103.458-14.4058 137.368 30.7542C137.368 30.7542 137.438 31.6642 137.298 33.1542C136.828 38.3342 133.918 50.5542 117.358 56.3142C115.128 57.0942 112.648 57.7542 109.898 58.2642" fill="#331818" fill-rule="nonzero" opacity="1" stroke="none" vectornator:layerName="path"/>
<path d="M123.249 406.945L70.3386 459.545L51.0986 599.684C51.0986 599.684 63.8286 604.285 79.0786 602.434L78.9686 607.755L8.32855 607.755L8.17855 606.755C8.17855 606.755 4.90855 533.144 8.17855 524.134C11.4586 515.115 20.2386 465.474 12.0386 417.115C3.90855 369.184-12.8314 353.115 17.1986 301.764C29.2386 305.844 81.2686 322.195 119.049 313.814C119.049 313.814 123.249 397.115 123.249 406.945" fill="#7a0972" fill-rule="nonzero" opacity="1" stroke="none" vectornator:layerName="path"/>
<path d="M58.7887 58.6646L60.3187 56.4546C66.8287 61.2546 73.8587 52.7346 74.5487 51.8746C68.9887 60.2446 70.5187 75.5946 70.5187 75.5946L72.4387 68.5846C77.4287 51.1346 89.4787 49.3946 89.4787 49.3946C88.6787 57.2746 80.3187 66.7346 80.3187 66.7346C87.8687 61.7346 92.8487 47.7946 92.8487 47.7946C93.1787 49.8746 92.1387 53.2546 92.1387 53.2546C83.4587 72.5446 70.5187 82.3446 70.5187 82.3446C85.2187 75.6146 92.0187 64.8246 95.0187 57.8646C95.6087 58.0046 96.3587 58.1246 97.1887 58.2346C97.2687 58.7446 97.9387 59.5346 98.8987 60.4346C99.4787 60.9646 100.159 61.5446 100.889 62.1246C101.539 62.6546 102.229 63.1846 102.909 63.6746C105.279 65.4346 107.479 66.8846 107.479 66.8846C106.789 64.7546 108.989 60.1646 109.899 58.2646C112.649 57.7546 115.129 57.0946 117.359 56.3146C117.359 56.3146 119.929 57.3246 123.239 57.4946L123.229 57.5946C123.229 58.0746 123.869 62.0746 117.359 68.0246C118.859 72.0046 120.969 76.9046 123.229 78.8046C123.229 78.8046 120.339 84.5946 115.189 85.3946C115.189 85.3946 111.019 92.9546 114.239 96.0446C114.239 96.0446 110.699 98.2946 108.129 97.4946C108.129 97.4946 112.469 104.405 105.719 105.205L105.229 105.805C101.149 120.065 91.1787 118.005 87.6087 116.745C86.7887 116.465 86.3087 116.215 86.3087 116.215C64.2487 102.435 62.4787 76.3946 62.4787 76.3946C62.2787 76.3546 61.9987 76.3346 61.6387 76.3146L61.8387 73.8246C57.6587 72.2146 64.7287 71.8946 57.8187 66.6646C51.3687 61.7746 57.7987 58.6646 58.7887 58.6646" fill="#ffb08d" fill-rule="nonzero" opacity="1" stroke="none" vectornator:layerName="path"/>
<path d="M122.139 217.344C120.199 226.724 115.369 233.524 113.909 236.144C105.869 250.615 112.779 292.294 115.999 296.464C117.389 298.264 118.139 301.754 118.559 305.124C82.0588 310.774 16.1488 289.174 16.1488 289.174C17.0288 284.274 18.3888 278.354 20.4788 272.464C28.9688 248.554 20.1288 233.454 18.7688 222.324C17.7288 213.854 3.63875 175.714 15.3288 142.804L16.2588 143.134C11.6188 155.634 18.4388 168.964 18.4388 168.964C40.9388 191.464 65.5088 186.964 65.5088 186.964C65.5088 186.964 84.9788 191.464 101.369 190.824C101.369 190.824 103.939 194.044 111.659 193.714C113.389 193.644 116.029 193.474 119.349 193.164L119.369 193.394C123.429 202.334 123.549 210.524 122.139 217.344" fill="#ff73f5" fill-rule="nonzero" opacity="1" stroke="none" vectornator:layerName="path"/>
<path d="M118.559 305.124C119.099 309.563 119.049 313.813 119.049 313.813C69.0486 317.914 18.0186 300.364 18.0186 300.364C17.7386 300.834 17.4686 301.304 17.1986 301.764C15.5386 301.204 14.6386 300.874 14.6386 300.874C14.6386 300.874 14.9286 296.014 16.1486 289.174C16.1486 289.174 82.0586 310.773 118.559 305.124" fill="#7a0972" fill-rule="nonzero" opacity="1" stroke="none" vectornator:layerName="path"/>
<path d="M117.358 155.554C114.928 155.924 113.048 156.164 112.298 156.184C109.408 156.254 87.5484 152.254 87.5484 152.254C87.5484 152.254 87.5284 152.224 87.4884 152.164C86.8384 151.154 80.8684 141.554 82.7884 129.334C86.1384 129.414 110.608 130.904 117.358 155.554" fill="#ff73f5" fill-rule="nonzero" opacity="1" stroke="none" vectornator:layerName="path"/>
<path d="M109.898 58.2642C108.988 60.1642 106.788 64.7542 107.478 66.8842C107.478 66.8842 105.278 65.4342 102.908 63.6742C102.228 63.1842 101.538 62.6542 100.888 62.1242C100.158 61.5442 99.4785 60.9642 98.8985 60.4342C97.9385 59.5342 97.2685 58.7442 97.1885 58.2342C100.798 58.7042 105.868 58.8742 105.868 58.8742C107.278 58.7042 108.618 58.5042 109.898 58.2642" fill="#f79869" fill-rule="nonzero" opacity="1" stroke="none" vectornator:layerName="path"/>
<path d="M18.0185 300.365C18.0185 300.365 69.0485 317.915 119.049 313.814C81.2685 322.195 29.2385 305.844 17.1985 301.764C17.4685 301.304 17.7385 300.835 18.0185 300.365" fill="#ff73f5" fill-rule="nonzero" opacity="1" stroke="none" vectornator:layerName="path"/>
<path d="M82.7887 129.334C80.8687 141.554 86.8387 151.154 87.4887 152.164C78.5987 140.314 69.5487 133.474 61.4287 129.624L61.5187 129.434C52.5187 121.394 30.6587 118.504 30.6587 118.504C30.6587 118.504 41.0487 112.164 48.1887 108.554C49.3787 107.954 50.2287 106.834 50.5187 105.524L57.0587 75.2745C58.8387 76.1545 60.5487 76.2445 61.6387 76.3145C61.9987 76.3345 62.2787 76.3545 62.4787 76.3945C62.4787 76.3945 64.2487 102.434 86.3087 116.214C86.3087 116.214 86.7887 116.464 87.6087 116.744L87.5487 116.904C84.8387 121.184 83.4087 125.394 82.7887 129.334" fill="#ffb08d" fill-rule="nonzero" opacity="1" stroke="none" vectornator:layerName="path"/>
<path d="M61.4287 129.624C69.5487 133.474 78.5987 140.314 87.4887 152.164C87.5287 152.224 87.5487 152.254 87.5487 152.254C87.5487 152.254 55.3587 159.004 65.5087 186.964C65.5087 186.964 40.9387 191.464 18.4387 168.964C18.4387 168.964 11.6187 155.634 16.2587 143.134L15.3287 142.804C18.4087 134.134 23.2787 125.814 30.6587 118.504C30.6587 118.504 52.5187 121.394 61.5187 129.434L61.4287 129.624Z" fill="#ff73f5" fill-rule="nonzero" opacity="1" stroke="none" vectornator:layerName="path"/>
<path d="M57.0586 75.2744C54.8086 74.1744 52.4486 71.8344 51.0986 66.7544C50.7686 65.5244 49.3086 59.8244 51.3286 56.7144C51.3386 56.7044 51.3386 56.6944 51.3486 56.6944C52.7786 55.2244 55.1486 54.5344 58.9086 55.1844C59.3786 55.6844 59.8386 56.1044 60.3186 56.4544L58.7886 58.6644C57.7986 58.6644 51.3686 61.7744 57.8186 66.6644C64.7286 71.8944 57.6586 72.2144 61.8386 73.8244L61.6386 76.3144C60.5486 76.2444 58.8386 76.1544 57.0586 75.2744" fill="#ffb08d" fill-rule="nonzero" opacity="1" stroke="none" vectornator:layerName="path"/>
<path d="M47.3384 72.7144C53.3984 83.5044 44.6384 95.6144 44.6384 95.6144C44.9584 92.1644 42.2784 89.7444 42.2784 89.7444C45.5484 102.604 35.2384 110.144 35.2384 110.144C36.5984 107.734 35.2384 99.2144 35.2384 99.2144C34.8284 109.024 31.7784 114.164 31.7784 114.164C29.0484 107.094 30.6584 99.8644 30.6584 99.8644C26.9584 102.274 29.0484 116.904 29.0484 116.904C16.6684 107.744 19.0884 90.7044 19.0884 90.7044C15.8684 93.7544 18.9284 104.204 18.9284 104.204C11.6884 92.9544 16.0284 82.0244 16.0284 82.0244C11.3684 85.4344 13.7684 96.0644 13.9284 96.7644C5.29844 76.8544 29.0484 64.9144 29.0484 64.9144C29.7884 65.7644 30.9584 66.4444 32.7484 66.7344C32.7484 66.7344 38.4484 66.4844 39.7084 61.9144C39.9984 62.5844 40.3084 63.2244 40.6184 63.8144C42.8984 68.1544 45.2784 70.9344 47.3384 72.7144" fill="#331818" fill-rule="nonzero" opacity="1" stroke="none" vectornator:layerName="path"/>
<path d="M39.9688 49.7144C42.1988 51.9644 38.8488 55.0244 38.8488 55.0244C40.0488 58.0244 40.1788 60.2544 39.7088 61.9144C38.3088 58.7544 37.0888 54.7444 36.2788 50.3344C37.3788 48.8244 39.9688 49.7144 39.9688 49.7144" fill="#ff0000" fill-rule="nonzero" opacity="1" stroke="none" vectornator:layerName="path"/>
<path d="M36.2783 50.3344C37.0883 54.7444 38.3083 58.7544 39.7083 61.9144C38.4483 66.4844 32.7483 66.7344 32.7483 66.7344C30.9583 66.4444 29.7883 65.7644 29.0483 64.9144C26.8483 62.4044 28.3283 58.3944 28.3283 58.3944C25.3483 57.9144 25.0283 55.1844 25.9983 53.8944C26.9583 52.6144 29.0483 52.7744 30.6583 55.1844C32.0983 52.2744 35.9583 53.5744 35.9583 53.5744C35.6383 51.9444 35.8283 50.9444 36.2783 50.3344" fill="#ff0000" fill-rule="nonzero" opacity="1" stroke="none" vectornator:layerName="path"/>
</g>
<path d="M123.249 406.945C123.249 397.115 119.049 313.814 119.049 313.814C69.0486 317.915 18.0186 300.365 18.0186 300.365C17.7386 300.835 17.4686 301.304 17.1986 301.764C-12.8314 353.115 3.90855 369.184 12.0386 417.115C20.2386 465.474 11.4586 515.115 8.17855 524.134C4.90855 533.144 8.17855 606.755 8.17855 606.755L8.32855 607.755L78.9686 607.755L79.0786 602.434" fill="none" opacity="1" stroke="#231f20" stroke-linecap="butt" stroke-linejoin="miter" stroke-width="1" vectornator:layerName="path"/>
<path d="M61.5185 129.435C52.5185 121.395 30.6585 118.505 30.6585 118.505C23.2785 125.815 18.4085 134.135 15.3285 142.805C3.63854 175.715 17.7285 213.855 18.7685 222.325C20.1285 233.455 28.9685 248.555 20.4785 272.465C18.3885 278.354 17.0285 284.274 16.1485 289.175C14.9285 296.015 14.6385 300.875 14.6385 300.875C14.6385 300.875 15.5385 301.205 17.1985 301.765C29.2385 305.845 81.2685 322.195 119.049 313.814C119.049 313.814 119.099 309.564 118.559 305.125C118.139 301.755 117.389 298.265 115.999 296.465C112.779 292.295 105.869 250.615 113.909 236.145C115.369 233.525 120.199 226.725 122.139 217.345C123.549 210.525 123.429 202.335 119.369 193.395" fill="none" opacity="1" stroke="#231f20" stroke-linecap="butt" stroke-linejoin="miter" stroke-width="1" vectornator:layerName="path"/>
<path d="M87.5483 152.254C87.5483 152.254 55.3583 159.004 65.5083 186.964C65.5083 186.964 40.9383 191.464 18.4383 168.964C18.4383 168.964 11.6183 155.634 16.2583 143.134C18.2183 137.844 22.2383 132.704 29.6883 128.794" fill="none" opacity="1" stroke="#231f20" stroke-linecap="butt" stroke-linejoin="miter" stroke-width="1" vectornator:layerName="path"/>
<path d="M32.6788 126.214C32.6788 126.214 45.1888 121.934 61.4288 129.624C69.5488 133.474 78.5988 140.314 87.4888 152.164" fill="none" opacity="1" stroke="#231f20" stroke-linecap="butt" stroke-linejoin="miter" stroke-width="1" vectornator:layerName="path"/>
<path d="M61.5185 185.364C58.9385 183.434 51.8685 159.644 81.7685 150.324" fill="none" opacity="1" stroke="#231f20" stroke-linecap="butt" stroke-linejoin="miter" stroke-width="1" vectornator:layerName="path"/>
<path d="M282.979 180.864C282.509 180.084 283.349 177.304 284.029 174.934C284.579 173.014 285.019 171.364 284.589 171.214C283.619 170.894 273.339 159.644 273.339 159.644" fill="none" opacity="1" stroke="#231f20" stroke-linecap="butt" stroke-linejoin="miter" stroke-width="1" vectornator:layerName="path"/>
<path d="M145.508 189.394C153.028 187.914 161.058 185.974 168.868 183.434C192.658 175.714 212.908 166.714 228.018 166.074C243.118 165.434 241.188 164.794 247.298 167.844C253.408 170.894 263.048 167.844 263.048 167.844C263.048 167.844 273.038 170.594 275.658 174.934C275.938 175.394 276.138 175.874 276.228 176.364C276.828 179.584 276.799 182.094 278.288 184.134C279.169 185.344 280.578 186.394 282.978 187.334C282.978 187.334 285.358 187.334 284.518 184.194C284.288 183.354 283.818 182.284 283.018 180.924" fill="none" opacity="1" stroke="#231f20" stroke-linecap="butt" stroke-linejoin="miter" stroke-width="1" vectornator:layerName="path"/>
<path d="M65.5083 186.964C65.5083 186.964 84.9783 191.464 101.368 190.824C101.368 190.824 103.938 194.044 111.658 193.714C113.388 193.644 116.028 193.474 119.348 193.164C125.938 192.554 135.238 191.404 145.448 189.404" fill="none" opacity="1" stroke="#231f20" stroke-linecap="butt" stroke-linejoin="miter" stroke-width="1" vectornator:layerName="path"/>
<path d="M295.189 157.714L295.189 153.214L274.619 139.714C274.619 139.714 262.089 141.964 253.089 141.964C244.089 141.964 214.839 146.144 212.269 147.114C209.689 148.074 142.549 150.964 137.719 152.044C135.529 152.524 124.249 154.524 117.359 155.554C114.929 155.924 113.049 156.164 112.299 156.184C109.409 156.254 87.5485 152.254 87.5485 152.254C87.5485 152.254 87.5285 152.224 87.4885 152.164C86.8385 151.154 80.8685 141.554 82.7885 129.334C83.4085 125.394 84.8385 121.184 87.5485 116.904" fill="none" opacity="1" stroke="#231f20" stroke-linecap="butt" stroke-linejoin="miter" stroke-width="1" vectornator:layerName="path"/>
<path d="M290.038 172.504C290.698 170.264 291.469 168.424 292.299 167.844C292.299 167.844 277.839 150.964 274.938 148.714L267.228 150.324" fill="none" opacity="1" stroke="#231f20" stroke-linecap="butt" stroke-linejoin="miter" stroke-width="1" vectornator:layerName="path"/>
<path d="M282.979 180.864C282.979 180.864 282.989 180.884 283.019 180.924C283.399 181.474 286.299 185.534 287.799 183.434C287.799 183.434 288.409 179.064 289.409 174.934C289.599 174.104 289.809 173.284 290.039 172.514" fill="none" opacity="1" stroke="#231f20" stroke-linecap="butt" stroke-linejoin="miter" stroke-width="1" vectornator:layerName="path"/>
<path d="M269.179 144.864L277.189 144.864L295.149 157.764L297.769 159.644C297.769 159.644 294.868 168.644 295.189 172.504C295.189 172.504 293.899 174.934 292.368 174.934C291.609 174.934 290.788 174.324 290.038 172.514L290.038 172.504" fill="none" opacity="1" stroke="#231f20" stroke-linecap="butt" stroke-linejoin="miter" stroke-width="1" vectornator:layerName="path"/>
<path d="M399.979 444.115L165.339 444.115L165.339 376.844L165.339 236.465L165.339 193.745L399.979 193.745L399.979 381.375L399.979 444.115Z" fill="none" opacity="1" stroke="#231f20" stroke-linecap="butt" stroke-linejoin="miter" stroke-width="1" vectornator:layerName="path"/>
<path d="M399.979 444.115L425.049 405.545L425.049 381.865L425.049 174.935" fill="none" opacity="1" stroke="#231f20" stroke-linecap="butt" stroke-linejoin="miter" stroke-width="1" vectornator:layerName="path"/>
<path d="M282.979 189.404L251.479 189.404L267.229 184.034L278.289 184.134L284.519 184.194L318.979 184.524L304.839 189.404L282.979 189.404Z" fill="none" opacity="1" stroke="#231f20" stroke-linecap="butt" stroke-linejoin="miter" stroke-width="1" vectornator:layerName="path"/>
<path d="M102.979 176.694C102.979 176.694 104.909 193.274 119.049 184.334" fill="none" opacity="1" stroke="#231f20" stroke-linecap="butt" stroke-linejoin="miter" stroke-width="1" vectornator:layerName="path"/>
<path d="M138.979 166.374C141.549 163.824 221.909 157.714 221.909 157.714" fill="none" opacity="1" stroke="#231f20" stroke-linecap="butt" stroke-linejoin="miter" stroke-width="1" vectornator:layerName="path"/>
<path d="M70.3384 459.544L51.0984 599.684C51.0984 599.684 63.8284 604.284 79.0784 602.434C85.1484 601.704 91.6184 599.944 97.8384 596.464C119.688 584.254 406.408 607.754 406.408 607.754L551.048 607.754L524.688 467.254L70.3384 459.544Z" fill="none" opacity="1" stroke="#231f20" stroke-linecap="butt" stroke-linejoin="miter" stroke-width="1" vectornator:layerName="path"/>
<path d="M422.689 381.814L425.049 381.865L514.009 383.575L524.689 467.254" fill="none" opacity="1" stroke="#231f20" stroke-linecap="butt" stroke-linejoin="miter" stroke-width="1" vectornator:layerName="path"/>
<path d="M398.559 381.344L399.979 381.374L401.949 381.414" fill="none" opacity="1" stroke="#231f20" stroke-linecap="butt" stroke-linejoin="miter" stroke-width="1" vectornator:layerName="path"/>
<path d="M70.3384 459.544L123.248 406.944L153.768 376.614L165.338 376.844L166.588 376.864" fill="none" opacity="1" stroke="#231f20" stroke-linecap="butt" stroke-linejoin="miter" stroke-width="1" vectornator:layerName="path"/>
<path d="M520.189 472.394C519.549 474.325 510.549 606.754 510.549 606.754" fill="none" opacity="1" stroke="#231f20" stroke-linecap="butt" stroke-linejoin="miter" stroke-width="1" vectornator:layerName="path"/>
<path d="M73.4088 464.044C74.0488 465.964 90.1188 584.254 97.8388 591.964" fill="none" opacity="1" stroke="#231f20" stroke-linecap="butt" stroke-linejoin="miter" stroke-width="1" vectornator:layerName="path"/>
<path d="M81.7685 467.254C84.3385 467.894 155.689 545.684 214.189 546.964" fill="none" opacity="1" stroke="#231f20" stroke-linecap="butt" stroke-linejoin="miter" stroke-width="1" vectornator:layerName="path"/>
<path d="M105.548 546.964C108.118 549.544 175.618 611.254 273.978 584.894" fill="none" opacity="1" stroke="#231f20" stroke-linecap="butt" stroke-linejoin="miter" stroke-width="1" vectornator:layerName="path"/>
<path d="M219.338 485.254C219.338 485.254 273.978 554.684 331.188 553.394" fill="none" opacity="1" stroke="#231f20" stroke-linecap="butt" stroke-linejoin="miter" stroke-width="1" vectornator:layerName="path"/>
<path d="M506.049 479.464C504.769 482.044 437.908 572.044 358.839 575.254" fill="none" opacity="1" stroke="#231f20" stroke-linecap="butt" stroke-linejoin="miter" stroke-width="1" vectornator:layerName="path"/>
<path d="M493.839 557.254C491.908 558.544 440.479 605.464 406.408 600.324" fill="none" opacity="1" stroke="#231f20" stroke-linecap="butt" stroke-linejoin="miter" stroke-width="1" vectornator:layerName="path"/>
<path d="M30.6587 118.504C30.6587 118.504 41.0487 112.164 48.1887 108.554C49.3787 107.954 50.2287 106.834 50.5187 105.524L57.0587 75.2744L57.0787 75.1544" fill="none" opacity="1" stroke="#231f20" stroke-linecap="butt" stroke-linejoin="miter" stroke-width="1" vectornator:layerName="path"/>
<path d="M115.189 85.3944C115.189 85.3944 111.019 92.9544 114.239 96.0444C114.239 96.0444 110.699 98.2944 108.129 97.4944C105.559 96.6844 101.379 95.5644 98.9686 95.8844" fill="none" opacity="1" stroke="#231f20" stroke-linecap="butt" stroke-linejoin="miter" stroke-width="1" vectornator:layerName="path"/>
<path d="M108.128 97.4946C108.128 97.4946 112.468 104.405 105.718 105.205" fill="none" opacity="1" stroke="#231f20" stroke-linecap="butt" stroke-linejoin="miter" stroke-width="1" vectornator:layerName="path"/>
<path d="M115.189 62.2544C115.409 62.3944 116.199 64.9344 117.359 68.0244C118.859 72.0044 120.969 76.9044 123.229 78.8044C123.229 78.8044 120.339 84.5944 115.189 85.3944" fill="none" opacity="1" stroke="#231f20" stroke-linecap="butt" stroke-linejoin="miter" stroke-width="1" vectornator:layerName="path"/>
<path d="M110.209 83.7943C109.569 83.6243 106.029 80.7343 108.359 78.1643" fill="none" opacity="1" stroke="#231f20" stroke-linecap="butt" stroke-linejoin="miter" stroke-width="1" vectornator:layerName="path"/>
<path d="M123.229 57.5941C123.229 58.0741 123.869 62.0741 117.359 68.0241" fill="none" opacity="1" stroke="#231f20" stroke-linecap="butt" stroke-linejoin="miter" stroke-width="1" vectornator:layerName="path"/>
<path d="M120.309 64.9146C120.309 64.9146 120.179 67.8746 121.939 68.8446" fill="none" opacity="1" stroke="#231f20" stroke-linecap="butt" stroke-linejoin="miter" stroke-width="1" vectornator:layerName="path"/>
<path d="M118.559 66.8842C118.559 66.8842 118.659 69.0042 120.299 70.2942" fill="none" opacity="1" stroke="#231f20" stroke-linecap="butt" stroke-linejoin="miter" stroke-width="1" vectornator:layerName="path"/>
<path d="M110.209 57.5941C110.149 57.7441 110.039 57.9741 109.899 58.2641C108.989 60.1641 106.789 64.7541 107.479 66.8841C107.479 66.8841 105.279 65.4341 102.909 63.6741C102.229 63.1841 101.539 62.6541 100.889 62.1241C100.159 61.5441 99.4785 60.9641 98.8985 60.4341C97.9385 59.5341 97.2685 58.7441 97.1885 58.2341" fill="none" opacity="1" stroke="#231f20" stroke-linecap="butt" stroke-linejoin="miter" stroke-width="1" vectornator:layerName="path"/>
<path d="M105.229 65.4945C105.229 65.4945 104.099 68.5245 105.229 69.6445" fill="none" opacity="1" stroke="#231f20" stroke-linecap="butt" stroke-linejoin="miter" stroke-width="1" vectornator:layerName="path"/>
<path d="M102.909 63.6743C102.909 63.6743 101.109 67.7143 102.689 69.6443" fill="none" opacity="1" stroke="#231f20" stroke-linecap="butt" stroke-linejoin="miter" stroke-width="1" vectornator:layerName="path"/>
<path d="M100.889 62.1245C100.889 62.1245 97.6788 63.6545 98.7988 66.7345" fill="none" opacity="1" stroke="#231f20" stroke-linecap="butt" stroke-linejoin="miter" stroke-width="1" vectornator:layerName="path"/>
<path d="M98.8985 60.4345C98.8985 60.4345 95.5885 62.3345 95.9085 63.8145" fill="none" opacity="1" stroke="#231f20" stroke-linecap="butt" stroke-linejoin="miter" stroke-width="1" vectornator:layerName="path"/>
<path d="M51.3286 56.7144C49.3086 59.8244 50.7686 65.5244 51.0986 66.7544C52.4486 71.8344 54.8086 74.1744 57.0586 75.2744C58.8386 76.1544 60.5486 76.2444 61.6386 76.3144C61.9986 76.3344 62.2786 76.3544 62.4786 76.3944C62.4786 76.3944 64.2486 102.434 86.3086 116.214C86.3086 116.214 86.7886 116.464 87.6086 116.744C91.1786 118.004 101.149 120.064 105.229 105.804" fill="none" opacity="1" stroke="#231f20" stroke-linecap="butt" stroke-linejoin="miter" stroke-width="1" vectornator:layerName="path"/>
<path d="M74.5483 51.8745C73.8583 52.7345 66.8283 61.2545 60.3183 56.4545C59.8383 56.1045 59.3783 55.6845 58.9083 55.1845C54.7383 54.0245 52.4883 54.9445 51.3483 56.6945" fill="none" opacity="1" stroke="#231f20" stroke-linecap="butt" stroke-linejoin="miter" stroke-width="1" vectornator:layerName="path"/>
<path d="M97.2085 51.1646C97.2085 51.1646 96.7285 53.8846 95.0185 57.8646C92.0185 64.8246 85.2185 75.6146 70.5185 82.3446C70.5185 82.3446 83.4585 72.5446 92.1385 53.2546C92.1385 53.2546 93.1785 49.8746 92.8485 47.7946C92.8485 47.7946 87.8685 61.7346 80.3185 66.7346C80.3185 66.7346 88.6785 57.2746 89.4785 49.3946C89.4785 49.3946 77.4285 51.1346 72.4385 68.5846L70.5185 75.5946C70.5185 75.5946 68.9885 60.2446 74.5485 51.8746C74.5785 51.8246 74.5985 51.8046 74.5985 51.8046" fill="none" opacity="1" stroke="#231f20" stroke-linecap="butt" stroke-linejoin="miter" stroke-width="1" vectornator:layerName="path"/>
<path d="M58.9088 55.1845C55.1488 54.5345 52.7788 55.2245 51.3488 56.6945C51.3388 56.6945 51.3388 56.7045 51.3288 56.7145C46.4288 61.7745 52.8588 75.9945 52.9088 75.8245C52.9088 75.8245 50.5088 75.4745 47.3388 72.7145C45.2788 70.9345 42.8988 68.1545 40.6188 63.8145C40.3088 63.2245 39.9988 62.5845 39.7088 61.9145C38.3088 58.7545 37.0888 54.7445 36.2788 50.3345C34.0388 38.1645 34.9088 22.8745 43.8388 13.3945C56.6888-0.265469 103.459-14.4055 137.369 30.7545C137.369 30.7545 137.439 31.6645 137.299 33.1545C136.829 38.3345 133.919 50.5545 117.359 56.3145C115.129 57.0945 112.649 57.7545 109.899 58.2645C108.619 58.5045 107.279 58.7045 105.869 58.8745C105.869 58.8745 100.799 58.7045 97.1888 58.2345C96.3588 58.1245 95.6088 58.0045 95.0188 57.8645C94.6588 57.7845 94.3588 57.6945 94.1388 57.5945" fill="none" opacity="1" stroke="#231f20" stroke-linecap="butt" stroke-linejoin="miter" stroke-width="1" vectornator:layerName="path"/>
<path d="M117.358 56.3145C117.358 56.3145 119.928 57.3245 123.238 57.4945C129.928 57.8245 139.658 54.7645 137.388 33.1645" fill="none" opacity="1" stroke="#231f20" stroke-linecap="butt" stroke-linejoin="miter" stroke-width="1" vectornator:layerName="path"/>
<path d="M36.2783 50.3344C35.8283 50.9444 35.6383 51.9444 35.9583 53.5744C35.9583 53.5744 32.0983 52.2744 30.6583 55.1844C29.0483 52.7744 26.9583 52.6144 25.9983 53.8944C25.0283 55.1844 25.3483 57.9144 28.3283 58.3944C28.3283 58.3944 26.8483 62.4044 29.0483 64.9144C29.7883 65.7644 30.9583 66.4444 32.7483 66.7344C32.7483 66.7344 38.4483 66.4844 39.7083 61.9144C40.1783 60.2544 40.0483 58.0244 38.8483 55.0244C38.8483 55.0244 42.1983 51.9644 39.9683 49.7144C39.9683 49.7144 37.3783 48.8244 36.2783 50.3344Z" fill="none" opacity="1" stroke="#231f20" stroke-linecap="butt" stroke-linejoin="miter" stroke-width="1" vectornator:layerName="path"/>
<path d="M13.9385 96.8042C13.9385 96.8042 13.9385 96.7942 13.9285 96.7642C13.7685 96.0642 11.3685 85.4342 16.0285 82.0242C16.0285 82.0242 11.6885 92.9542 18.9285 104.204C18.9285 104.204 15.8685 93.7542 19.0885 90.7042C19.0885 90.7042 16.6685 107.744 29.0485 116.904C29.0485 116.904 26.9585 102.274 30.6585 99.8642C30.6585 99.8642 29.0485 107.094 31.7785 114.164C31.7785 114.164 34.8285 109.024 35.2385 99.2142C35.2385 99.2142 36.5985 107.734 35.2385 110.144C35.2385 110.144 45.5485 102.604 42.2785 89.7442C42.2785 89.7442 44.9585 92.1642 44.6385 95.6142C44.6385 95.6142 53.3985 83.5042 47.3385 72.7142" fill="none" opacity="1" stroke="#231f20" stroke-linecap="butt" stroke-linejoin="miter" stroke-width="1" vectornator:layerName="path"/>
<path d="M29.0483 64.9146C29.0483 64.9146 5.29835 76.8546 13.9283 96.7646" fill="none" opacity="1" stroke="#231f20" stroke-linecap="butt" stroke-linejoin="miter" stroke-width="1" vectornator:layerName="path"/>
<path d="M82.4088 129.324C82.4088 129.324 82.5388 129.324 82.7888 129.334C86.1388 129.414 110.609 130.904 117.359 155.554" fill="none" opacity="1" stroke="#231f20" stroke-linecap="butt" stroke-linejoin="miter" stroke-width="1" vectornator:layerName="path"/>
<path d="M122.128 217.334L122.138 217.344C122.638 217.654 154.648 238.194 158.908 239.894C163.188 241.614 165.338 236.464 165.338 236.464" fill="none" opacity="1" stroke="#231f20" stroke-linecap="butt" stroke-linejoin="miter" stroke-width="1" vectornator:layerName="path"/>
<path d="M145.449 189.404C145.469 189.404 145.489 189.394 145.509 189.394C147.019 189.394 155.479 198.754 155.479 198.754C155.479 198.754 149.049 209.044 157.189 222.754" fill="none" opacity="1" stroke="#231f20" stroke-linecap="butt" stroke-linejoin="miter" stroke-width="1" vectornator:layerName="path"/>
<path d="M155.479 198.754L165.339 193.744C167.269 190.184 225.119 174.934 225.119 174.934L275.659 174.934L284.029 174.934L289.409 174.934L292.369 174.934L425.049 174.934L399.979 193.744" fill="none" opacity="1" stroke="#231f20" stroke-linecap="butt" stroke-linejoin="miter" stroke-width="1" vectornator:layerName="path"/>
<path d="M58.9088 58.7144C58.8988 58.6844 58.8588 58.6644 58.7888 58.6644C57.7988 58.6644 51.3688 61.7744 57.8188 66.6644C64.7288 71.8944 57.6588 72.2144 61.8388 73.8244" fill="none" opacity="1" stroke="#231f20" stroke-linecap="butt" stroke-linejoin="miter" stroke-width="1" vectornator:layerName="path"/>
<path d="M16.1484 289.174C16.1484 289.174 82.0584 310.774 118.558 305.124" fill="none" opacity="1" stroke="#231f20" stroke-linecap="butt" stroke-linejoin="miter" stroke-width="1" vectornator:layerName="path"/>
</g>
<g opacity="1" vectornator:layerName="path">
<path d="M13.0102 155.555C13.0102 155.555 9.56325 180.754 19.9042 201.307C30.2442 221.861 40.4572 227.861 40.4572 227.861C40.4572 227.861 27.9472 199.01 29.9892 194.414C32.0312 189.818 68.6702 191.708 68.6702 191.708C68.6702 191.708 18.3722 186.782 13.0102 155.555" fill="#c156bf" fill-rule="nonzero" opacity="1" stroke="none" vectornator:layerName="path"/>
<path d="M117.363 224.159C117.363 224.159 111.457 236.67 103.468 236.159" fill="#c156bf" fill-rule="nonzero" opacity="1" stroke="none" vectornator:layerName="path"/>
<path d="M62.7979 220.839C62.7979 220.839 87.3079 242.03 96.7549 234.371" fill="#c156bf" fill-rule="nonzero" opacity="1" stroke="none" vectornator:layerName="path"/>
<path d="M83.5636 137.31C83.5636 137.31 112.78 147.918 115.193 155.869C113.504 146.366 105.522 132.84 83.5636 130.457L83.5636 137.31Z" fill="#c156bf" fill-rule="nonzero" opacity="1" stroke="none" vectornator:layerName="path"/>
<path d="M106.372 249.776C106.372 249.776 103.201 289.708 111.014 298.797" fill="#c156bf" fill-rule="nonzero" opacity="1" stroke="none" vectornator:layerName="path"/>
<path d="M20.1593 316.172C20.1593 316.172 1.41925 346.448 16.1513 381.814" fill="#590857" fill-rule="nonzero" opacity="1" stroke="none" vectornator:layerName="path"/>
<path d="M66.8335 459.544C66.8335 459.544 66.0615 462.133 64.7155 466.618C61.2385 478.201 53.9325 502.43 46.2025 527.361C35.4785 561.945 40.7355 606.754 40.7355 606.754L54.9815 546.968" fill="#590857" fill-rule="nonzero" opacity="1" stroke="none" vectornator:layerName="path"/>
<path d="M104.729 335.222C104.729 335.222 117.652 387.307 109.502 400.328" fill="#590857" fill-rule="nonzero" opacity="1" stroke="none" vectornator:layerName="path"/>
<path d="M35.2353 464.04C35.2353 464.04 19.3933 500.468 20.1593 519.334" fill="#590857" fill-rule="nonzero" opacity="1" stroke="none" vectornator:layerName="path"/>
<path d="M117.363 405.18C117.363 405.18 74.4668 435.979 76.0738 444.112" fill="#590857" fill-rule="nonzero" opacity="1" stroke="none" vectornator:layerName="path"/>
<path d="M55.9038 82.7163C55.9038 82.7163 63.8188 108.499 71.2228 114.499L78.6278 120.499C78.6278 120.499 75.0528 114.754 74.2868 110.669C73.5208 106.584 66.6278 95.1583 65.0318 89.4143C63.4358 83.6693 62.6058 80.2223 62.6058 80.2223L62.0958 76.8393L57.0768 75.8303" fill="#d8967c" fill-rule="nonzero" opacity="1" stroke="none" vectornator:layerName="path"/>
<path d="M66.2022 85.8607C66.5422 86.1157 66.1172 94.2007 76.1592 106.201" fill="#e28269" fill-rule="nonzero" opacity="1" stroke="none" vectornator:layerName="path"/>
<path d="M64.7549 58.6709C64.7549 58.6709 62.7979 60.8729 63.3079 64.4309C63.8189 67.9879 66.4569 69.5209 66.2019 72.3289C65.9469 75.1369 66.2019 75.8299 66.2019 75.8299C66.2019 75.8299 68.1589 71.6559 68.8399 70.2899C69.5209 68.9249 70.4249 67.2509 70.4249 67.2509L70.4249 63.6749L71.1809 58.6709L72.3299 55.1369C72.3299 55.1369 66.3369 59.5769 64.7549 58.6709" fill="#e28269" fill-rule="nonzero" opacity="1" stroke="none" vectornator:layerName="path"/>
<path d="M128.925 166.375C128.925 166.375 220.329 163.79 225.946 157.719L231.563 151.648" fill="#e89574" fill-rule="nonzero" opacity="1" stroke="none" vectornator:layerName="path"/>
<path d="M243.819 162.047C243.819 162.047 257.351 166.712 260.925 164.159" fill="#e89574" fill-rule="nonzero" opacity="1" stroke="none" vectornator:layerName="path"/>
<path d="M271.648 153.435C271.648 153.435 273.946 151.137 275.478 153.435" fill="#e89574" fill-rule="nonzero" opacity="1" stroke="none" vectornator:layerName="path"/>
<path d="M98.9023 174.933C98.9023 174.933 102.341 199.819 121.122 184.031" fill="#e89574" fill-rule="nonzero" opacity="1" stroke="none" vectornator:layerName="path"/>
<path d="M67.2656 182.104C67.2656 182.104 63.0666 173.06 70.3366 167.843C77.6056 162.626 88.5846 159.011 88.5846 159.011" fill="#e89574" fill-rule="nonzero" opacity="1" stroke="none" vectornator:layerName="path"/>
<path d="M74.5425 146.541C74.5425 146.541 61.0105 119.478 27.8185 134.796" fill="#c156bf" fill-rule="nonzero" opacity="1" stroke="none" vectornator:layerName="path"/>
<path d="M210.372 479.468C210.372 479.468 285.946 584.713 339.563 553.414" fill="#2591c1" fill-rule="nonzero" opacity="1" stroke="none" vectornator:layerName="path"/>
<path d="M361.522 582.372C361.522 582.372 514.558 530.798 510.55 475.648" fill="#2591c1" fill-rule="nonzero" opacity="1" stroke="none" vectornator:layerName="path"/>
<path d="M392.67 591.968C392.67 591.968 435.564 627.991 502.968 546.968" fill="#2591c1" fill-rule="nonzero" opacity="1" stroke="none" vectornator:layerName="path"/>
<path d="M349.776 575.254C349.776 575.254 383.51 582.882 398.558 562.456" fill="#2591c1" fill-rule="nonzero" opacity="1" stroke="none" vectornator:layerName="path"/>
<path d="M96.6969 536.924C96.6969 536.924 146.543 623.733 285.947 582.371" fill="#2591c1" fill-rule="nonzero" opacity="1" stroke="none" vectornator:layerName="path"/>
<path d="M76.0304 464.04C76.0304 464.04 166.457 569.268 223.649 546.968" fill="#2591c1" fill-rule="nonzero" opacity="1" stroke="none" vectornator:layerName="path"/>
<path d="M70.3384 461.861C70.3384 461.861 83.7344 613.77 102.116 591.432" fill="#2591c1" fill-rule="nonzero" opacity="1" stroke="none" vectornator:layerName="path"/>
<path d="M520.192 467.254C520.192 467.254 538.749 617.52 506.049 606.754" fill="#2591c1" fill-rule="nonzero" opacity="1" stroke="none" vectornator:layerName="path"/>
<path d="M429.946 385.265C429.946 385.265 504.536 385.776 506.05 388.328C507.563 390.882 515.743 454.058 515.743 454.058" fill="#3ac0ce" fill-rule="nonzero" opacity="1" stroke="none" vectornator:layerName="path"/>
<path d="M162.372 385.265L155.478 385.265L94.4571 446.541L104.728 449.581" fill="#3ac0ce" fill-rule="nonzero" opacity="1" stroke="none" vectornator:layerName="path"/>
<path d="M173.096 206.075C173.096 206.075 169.001 427.648 175.134 433.776C181.266 439.904 234.883 436.839 234.883 436.839" fill="#999582" fill-rule="nonzero" opacity="1" stroke="none" vectornator:layerName="path"/>
<path d="M418.713 186.716C418.713 186.716 420.755 401.605 418.713 405.18C416.67 408.754 404.415 419.661 404.415 419.661" fill="#999582" fill-rule="nonzero" opacity="1" stroke="none" vectornator:layerName="path"/>
<path d="M115.193 65.8607C115.193 65.8607 119.564 80.7547 122.372 78.7117C117.096 83.5627 115.193 84.1587 115.193 84.1587" fill="#e28269" fill-rule="nonzero" opacity="1" stroke="none" vectornator:layerName="path"/>
<path d="M115.819 58.6709C115.819 58.6709 120.554 56.2469 121.123 58.6709C121.692 61.0949 119.211 63.8189 119.211 63.8189" fill="#e28269" fill-rule="nonzero" opacity="1" stroke="none" vectornator:layerName="path"/>
</g>
</g>
</g>
</svg>
