<?xml version="1.0" encoding="UTF-8" standalone="no"?>
<!DOCTYPE svg PUBLIC "-//W3C//DTD SVG 1.1//EN" "http://www.w3.org/Graphics/SVG/1.1/DTD/svg11.dtd">
<!-- Created with Vectornator (http://vectornator.io/) -->
<svg height="100%" stroke-miterlimit="10" style="fill-rule:nonzero;clip-rule:evenodd;stroke-linecap:round;stroke-linejoin:round;" version="1.1" viewBox="0 0 850.5 850.5" width="100%" xml:space="preserve" xmlns="http://www.w3.org/2000/svg" xmlns:vectornator="http://vectornator.io" xmlns:xlink="http://www.w3.org/1999/xlink">
<defs/>
<g id="Base-Body" vectornator:layerName="Base Body">
<path d="M141.75 425.25C141.75 268.677 268.677 141.75 425.25 141.75C581.823 141.75 708.75 268.677 708.75 425.25C708.75 581.823 581.823 708.75 425.25 708.75C268.677 708.75 141.75 581.823 141.75 425.25Z" fill="none" opacity="1" stroke="#fe5050" stroke-linecap="butt" stroke-linejoin="round" stroke-width="50" vectornator:layerName="Oval 1"/>
<path d="M598.24 205.706L654.046 261.511L267.222 648.335L211.417 592.53L598.24 205.706Z" fill="#fe5050" fill-rule="nonzero" opacity="1" stroke="#fe5050" stroke-linecap="butt" stroke-linejoin="round" stroke-width="50" vectornator:layerName="Rectangle 1"/>
<g fill="#ffffff" opacity="1" stroke="none" vectornator:layerName="Text 1">
<path d="M338.954 500.58C342.499 497.036 344.594 493.522 345.24 490.041C345.885 486.56 344.36 482.971 340.663 479.274C336.688 475.299 332.536 474.033 328.206 475.476C325.902 476.261 323.458 477.945 320.876 480.527L302.418 498.985L321.484 518.051L338.954 500.58ZM288.366 500.049L314.191 474.223C318.445 469.969 322.572 467.082 326.573 465.563C334.194 462.702 341.207 464.475 347.613 470.88C350.956 474.223 353 477.647 353.747 481.154C354.494 484.661 354.272 488.3 353.082 492.073C356.146 490.782 358.95 490.307 361.495 490.649C364.039 490.99 366.995 492.719 370.363 495.833L378.111 503.049C380.314 505.1 382.073 506.505 383.39 507.265C385.618 508.581 387.568 508.91 389.239 508.252L390.492 509.505L381.225 518.772C380.491 518.545 379.668 518.127 378.756 517.519C377.845 516.911 376.25 515.569 373.971 513.493L364.21 504.644C360.387 501.175 356.589 500.087 352.817 501.378C350.69 502.137 348.082 504.062 344.993 507.151L327.788 524.355L351.715 548.282L344.157 555.84L288.366 500.049Z"/>
<path d="M373.857 442.966C376.744 440.079 380.219 437.959 384.282 436.604C388.346 435.249 392.163 434.939 395.733 435.674C399.151 436.357 402.456 437.838 405.646 440.117C407.925 441.586 411.115 444.371 415.217 448.473L385.403 478.286C389.657 482.287 393.942 484.623 398.259 485.294C402.576 485.965 406.646 484.388 410.469 480.565C414.039 476.995 415.71 472.969 415.482 468.488C415.331 465.905 414.609 463.462 413.318 461.158L420.04 454.435C421.357 456.106 422.433 458.36 423.268 461.196C424.104 464.031 424.484 466.652 424.408 469.057C424.357 473.159 423.154 477.096 420.8 480.869C419.559 482.92 417.9 484.983 415.824 487.06C410.76 492.124 404.627 494.573 397.423 494.409C390.22 494.244 383.301 490.845 376.668 484.211C370.135 477.679 366.603 470.602 366.071 462.981C365.54 455.36 368.135 448.688 373.857 442.966ZM402.759 450.068C399.518 447.384 396.505 445.662 393.72 444.903C388.555 443.485 383.782 444.966 379.402 449.346C376.262 452.486 374.762 456.252 374.902 460.645C375.041 465.038 376.794 469.045 380.162 472.665L402.759 450.068Z"/>
<path d="M400.709 403.505L393.872 410.341L385.973 402.442L392.809 395.605L400.709 403.505ZM445.6 474.982C448.563 471.817 450.132 469.703 450.31 468.64C450.487 467.576 449.411 465.88 447.081 463.55L401.278 417.747L408.114 410.911L454.639 457.436C457.602 460.398 459.336 463.095 459.842 465.525C460.729 469.602 458.944 473.868 454.487 478.324C454.158 478.654 453.797 478.989 453.405 479.331C453.012 479.673 452.386 480.198 451.525 480.907L445.6 474.982Z"/>
<path d="M434.396 382.426C437.283 379.54 440.758 377.42 444.822 376.065C448.885 374.71 452.702 374.4 456.272 375.134C459.69 375.818 462.995 377.299 466.185 379.578C468.464 381.047 471.654 383.832 475.756 387.933L445.942 417.747C450.196 421.748 454.481 424.083 458.798 424.754C463.115 425.425 467.185 423.849 471.008 420.026C474.578 416.456 476.249 412.43 476.022 407.949C475.87 405.366 475.148 402.923 473.857 400.619L480.579 393.896C481.896 395.567 482.972 397.821 483.807 400.657C484.643 403.492 485.023 406.113 484.947 408.518C484.896 412.62 483.693 416.557 481.339 420.33C480.098 422.381 478.44 424.444 476.363 426.521C471.299 431.584 465.166 434.034 457.962 433.87C450.759 433.705 443.84 430.306 437.207 423.672C430.674 417.14 427.142 410.063 426.61 402.442C426.079 394.82 428.674 388.149 434.396 382.426ZM463.298 389.529C460.058 386.845 457.045 385.123 454.259 384.363C449.094 382.946 444.321 384.427 439.941 388.807C436.802 391.947 435.301 395.713 435.441 400.106C435.58 404.499 437.333 408.506 440.701 412.126L463.298 389.529Z"/>
<path d="M476.136 340.155C480.718 335.573 485.561 332.958 490.663 332.313C495.765 331.667 501.329 333.775 507.355 338.636L500.708 345.283C497.796 343.181 494.79 342.023 491.688 341.808C488.586 341.592 485.44 343.08 482.25 346.27C477.895 350.625 476.908 355.866 479.288 361.994C480.832 365.969 483.63 369.982 487.681 374.033C491.758 378.109 496.049 380.679 500.556 381.743C505.063 382.806 509.165 381.49 512.862 377.793C515.697 374.957 517.077 371.843 517.001 368.45C516.925 365.057 515.697 361.538 513.317 357.892L519.964 351.245C524.597 357.398 526.642 363.241 526.097 368.773C525.553 374.305 522.913 379.439 518.179 384.174C512.862 389.491 506.677 391.788 499.626 391.067C492.574 390.345 486.137 387.073 480.313 381.249C473.173 374.109 469.35 366.817 468.843 359.373C468.337 351.929 470.768 345.523 476.136 340.155Z"/>
<path d="M490.53 305.404L497.442 298.492L508.798 309.848L515.292 303.353L520.875 308.936L514.381 315.431L540.928 341.978C542.346 343.396 543.777 343.865 545.22 343.384C546.03 343.13 547.056 342.384 548.296 341.143C548.625 340.814 548.974 340.453 549.341 340.06C549.708 339.668 550.119 339.193 550.575 338.636L555.968 344.029C555.411 345.042 554.759 346.023 554.012 346.973C553.265 347.922 552.398 348.891 551.411 349.878C548.22 353.068 545.239 354.417 542.466 353.923C539.694 353.429 537.004 351.878 534.396 349.27L507.469 322.343L501.961 327.85L496.379 322.267L501.886 316.76L490.53 305.404Z"/>
</g>
</g>
<g id="line" vectornator:layerName="line" visibility="hidden">
<path d="M425.25 37.7813L425.25 425.25L37.7812 425.25L37.7812 428.094L425.25 428.094L425.25 812.719L428.094 812.719L428.094 428.094L812.719 428.094L812.719 425.25L428.094 425.25L428.094 37.7813L425.25 37.7813Z" fill="#000000" fill-rule="nonzero" opacity="1" stroke="#000000" stroke-linecap="butt" stroke-linejoin="round" stroke-width="1" vectornator:layerName="Base line"/>
<path d="M577.669 59.207L578.896 59.9157L191.427 731.031L190.2 730.323L577.669 59.207Z" fill="#68c40c" fill-rule="nonzero" opacity="1" stroke="none" vectornator:layerName="Rectangle 4"/>
<path d="M659.073 119.469L660.3 120.177L272.831 791.293L271.604 790.584L659.073 119.469Z" fill="#68c40c" fill-rule="nonzero" opacity="1" stroke="none" vectornator:layerName="Rectangle 5"/>
</g>
</svg>
